<svg xmlns="http://www.w3.org/2000/svg" viewBox="0 0 300 300"><defs><style>.a{fill:#fcbbe4;}.b{fill:#fff;}.c{fill:#bbe7ff;}.d{fill:#80beff;}.e{fill:#db199b;}.f{fill:#5a80f9;}</style></defs><title>Artificial Intelligence AI</title><path class="a" d="M138.409,238.163a.661.661,0,0,0,.148-.5c.019-15.244-.13-30.47-.3-45.714-.353-29.839-.835-59.678-.947-89.517-.111-27.982,0-55.982,1.263-83.927a.758.758,0,0,0-.446-.687c-8.541-3.825-17.1-7.6-26.274-10.046-21.074-5.626-45.51-3.082-61.794,11.29C37.584,30.072,36.377,50.255,48.539,61.749a71.116,71.116,0,0,0-21.5,9.4C15.86,78.59,7.671,89.619,6.929,102.32a32.478,32.478,0,0,0,14.91,29.616c-6.778,7.13-9.451,17.138-6.406,26.2,2.933,8.69,10.732,15.579,20.276,18.4-10.435,11.2-11.494,28.651-1.56,40.441,9.637,11.438,27.722,15.6,42.428,10.4.632,11.642,11.791,20.926,24.157,23.229,14.632,2.711,27.388-3.417,37.582-12.348.037-.018.056-.056.074-.074A.019.019,0,0,0,138.409,238.163Z"/><path class="b" d="M122.663,50.014c-.594-.5-1.207-1-1.82-1.5-3.843-3.138-7.464-6.091-7.687-11.067-.241-5.477,3.974-10.584,10.454-12.663a1.726,1.726,0,1,0-1.04-3.287c-5.812,1.876-10.546,6.165-12.366,11.2a12.846,12.846,0,0,0,.223,9.618A18.085,18.085,0,0,0,95.962,44.87a14.084,14.084,0,0,0-6.369,13.592A1.944,1.944,0,0,0,91.6,60.04a1.753,1.753,0,0,0,.3-.018,1.508,1.508,0,0,0,1.392-1.708,11.132,11.132,0,0,1,4.977-10.807,13.963,13.963,0,0,1,14.743-.52,1.794,1.794,0,0,0,.854.241,43.8,43.8,0,0,0,4.01,3.417,37.383,37.383,0,0,1,4.55,3.992,10.748,10.748,0,0,1,2.878,9.024,9.135,9.135,0,0,1-5.014,6.5,1.549,1.549,0,0,0-.724,2.191,1.86,1.86,0,0,0,1.653,1.021,1.971,1.971,0,0,0,.891-.223,12.527,12.527,0,0,0,7.13-10.955C129.292,57.868,127.082,53.764,122.663,50.014Z"/><path class="b" d="M72.177,150.04A12.834,12.834,0,0,0,63,147.124a18.122,18.122,0,0,0,2.284-14.5A14.006,14.006,0,0,0,54.5,122.188a1.983,1.983,0,0,0-2.228,1.652,1.5,1.5,0,0,0,1.169,1.875,11.143,11.143,0,0,1,8.6,8.226,13.964,13.964,0,0,1-4.307,14.112,2.09,2.09,0,0,0-.52.724,46,46,0,0,0-4.531,2.674,38.075,38.075,0,0,1-5.255,3.008,10.764,10.764,0,0,1-9.469-.205,9.078,9.078,0,0,1-4.512-6.851,1.575,1.575,0,0,0-1.839-1.411,1.877,1.877,0,0,0-1.578,2.154,12.524,12.524,0,0,0,8.04,10.305c4.085,1.448,8.69.687,13.666-2.265.669-.409,1.356-.817,2.006-1.226,4.214-2.618,8.188-5.088,12.96-3.676,5.273,1.559,8.708,7.185,8.578,14h0a1.737,1.737,0,0,0,1.709,1.838h.037a1.692,1.692,0,0,0,1.708-1.727C78.861,159.268,76.336,153.4,72.177,150.04Z"/><path class="b" d="M130.889,232.834a13.178,13.178,0,0,0-10.955-6.963,11.077,11.077,0,0,0-10.194,4.958,18.8,18.8,0,0,0-1,1.782c-.91,1.709-1.745,3.324-3.769,3.955a9.7,9.7,0,0,1-7.743-1.262,12.775,12.775,0,0,1-6.109-11.977,1.373,1.373,0,0,0-.576-1.281,1.966,1.966,0,0,0-1.875-.13,1.6,1.6,0,0,0-.947,1.3A16.549,16.549,0,0,0,92.9,236.1a13.76,13.76,0,0,0,9.544,3.955,12.894,12.894,0,0,0,1.876-.13,9.015,9.015,0,0,0,5.422-2.692,14.269,14.269,0,0,0,1.986-3.045,10.928,10.928,0,0,1,2.284-3.268,7.983,7.983,0,0,1,6.945-1.857,10.1,10.1,0,0,1,7,5.292,1.46,1.46,0,0,0,1.244.835,1.875,1.875,0,0,0,1.634-.835A1.533,1.533,0,0,0,130.889,232.834Z"/><path class="b" d="M134.639,143.448a1.6,1.6,0,0,0-1.541-.613c-6.146.631-11.642,3.677-14.743,8.133a13.122,13.122,0,0,0-2.339,9.674,17.913,17.913,0,0,0-14.223-.631c-5.7,2.153-9.507,6.777-10.176,12.384a1.507,1.507,0,0,0,1.43,1.709,1.359,1.359,0,0,0,.26.018,1.9,1.9,0,0,0,1.987-1.6,11.524,11.524,0,0,1,7.7-9.339,14.134,14.134,0,0,1,14.316,2.543,1.974,1.974,0,0,0,.8.428,45.987,45.987,0,0,0,2.989,4.084,36.592,36.592,0,0,1,3.4,4.772,10.733,10.733,0,0,1,.669,9.284,9.19,9.19,0,0,1-4.382,4.642,7.34,7.34,0,1,0,.984,3.695V192.3a12.928,12.928,0,0,0,7.5-8.392c1.151-4.29-.018-8.82-3.472-13.444-.39-.52-.78-1.04-1.188-1.541-3.064-3.992-5.979-7.761-4.7-12.756,1.337-5.236,6.666-9.228,13.276-9.915a1.9,1.9,0,0,0,1.578-1.1A1.741,1.741,0,0,0,134.639,143.448Zm-20.183,51.879a2.693,2.693,0,1,1,2.692-2.692A2.694,2.694,0,0,1,114.456,195.327Z"/><path class="b" d="M127.7,116.153c-4.679-2.451-11.029-2.154-16.154.78-.2.111-.409.241-.594.353-3.937,1.522-8.133,1.392-11.048-.39a7.914,7.914,0,0,1-3.788-6.425c-.223-2.915-.075-5.886,2.562-8.04,1.727-1.392,5.942-3.825,8.486-2.952a7.319,7.319,0,1,0,.7-3.361c-4.066-1-8.727,1.745-10.676,3.082-3.64,2.507-5.162,6.109-4.754,11.364a11.2,11.2,0,0,0,5.4,9.135,14.646,14.646,0,0,0,7.687,2.006c.185,0,.371,0,.575-.019-.315.409-.612.817-.91,1.263-.389.557-.742,1.132-1.114,1.708-1.541,2.451-3.008,4.753-5.774,6.183a11.427,11.427,0,0,1-11.011-.278A8.346,8.346,0,0,1,83,123.506a1.762,1.762,0,0,0-1.913-1.653,1.684,1.684,0,0,0-1.782,1.69c.093,4.735,2.989,8.745,7.743,10.714a15.738,15.738,0,0,0,6.071,1.207,15.137,15.137,0,0,0,10.436-4.048,23.36,23.36,0,0,0,3.565-4.772,30.885,30.885,0,0,1,2-2.99,14.374,14.374,0,0,1,3.621-3.323c.148-.056.278-.112.427-.167a1.8,1.8,0,0,0,.668-.465,14.849,14.849,0,0,1,3.4-1.318,12.67,12.67,0,0,1,11.234,2.655,7.6,7.6,0,0,1,2.581,6.908,1.908,1.908,0,0,0,1.689,2.079,1.538,1.538,0,0,0,1.894-1.281C135.364,123.673,132.653,118.752,127.7,116.153ZM114.456,96.564a2.692,2.692,0,1,1-2.692,2.692A2.694,2.694,0,0,1,114.456,96.564Z"/><path class="b" d="M90.577,197.462a11.888,11.888,0,0,0-6.647-10.231,15.534,15.534,0,0,0-16.711,1.133,24.206,24.206,0,0,0-4.048,4.382,32.736,32.736,0,0,1-2.3,2.767,14.994,14.994,0,0,1-3.937,2.952,3.931,3.931,0,0,0-.445.13,1.735,1.735,0,0,0-.725.408,15.09,15.09,0,0,1-3.509.966,12.611,12.611,0,0,1-10.9-3.788,7.554,7.554,0,0,1-1.857-7.13,1.679,1.679,0,0,0-.483-1.671,2.144,2.144,0,0,0-1.968-.576,1.513,1.513,0,0,0-1.058,1.077c-1.282,4.884.891,10.064,5.57,13.165a15.7,15.7,0,0,0,8.69,2.469,18.469,18.469,0,0,0,7.464-1.578,6.861,6.861,0,0,0,.65-.316c4.066-1.095,8.226-.538,10.937,1.523a7.888,7.888,0,0,1,3.1,6.777c-.074,2.916-.519,5.868-3.379,7.725-1.968,1.281-6.777,3.416-9.117,1.875a1.854,1.854,0,0,0-2.6.5,1.573,1.573,0,0,0,.482,2.266,7.493,7.493,0,0,0,4.234,1.169,18.361,18.361,0,0,0,8.17-2.432c3.881-2.117,5.756-5.552,5.886-10.825a11.217,11.217,0,0,0-4.438-9.637,14.838,14.838,0,0,0-8-2.822c.353-.372.706-.743,1.04-1.151.446-.52.854-1.059,1.281-1.6,1.783-2.266,3.473-4.42,6.369-5.552a11.452,11.452,0,0,1,10.937,1.411,8.463,8.463,0,0,1,3.546,6.183,7.318,7.318,0,1,0,8.393,7.242A7.144,7.144,0,0,0,90.577,197.462Zm-2.636,9.526a2.693,2.693,0,1,1,2.692-2.693A2.695,2.695,0,0,1,87.941,206.988Z"/><path class="b" d="M80.049,79.463a7.316,7.316,0,1,0-7.315,7.315,3.68,3.68,0,0,0,.445-.018,10.5,10.5,0,0,1-1.207,7.074,11.616,11.616,0,0,1-8.114,5.719,14.741,14.741,0,0,1-9.692-1.745c-3.194-1.82-4.717-4.382-6.016-7.687-1.764-4.438-5.051-10.25-13.277-9.563-5.886.483-11.01,4.475-14.056,10.955h0a1.777,1.777,0,0,0,.966,2.377,1.629,1.629,0,0,0,2.265-.724c1.95-4.141,4.382-6.833,7.427-8.226,4.215-1.931,9.062-.947,11.308,2.3a20.03,20.03,0,0,1,2.061,4.308,19.217,19.217,0,0,0,2.414,4.865,13.766,13.766,0,0,0,1.374,1.578,1.567,1.567,0,0,0,.149,1.282c2.042,3.6-.3,9.246-3.769,12.254-2.1,1.82-6.982,3.306-10.956,2.581a5.575,5.575,0,0,1-4.122-2.562,1.61,1.61,0,0,0-1.411-.873,1.994,1.994,0,0,0-1.745.947,1.606,1.606,0,0,0-.037,1.634,8.446,8.446,0,0,0,5.756,4.011,16.307,16.307,0,0,0,3.862.446,18.578,18.578,0,0,0,9.841-2.656c4.326-2.9,7.557-8.689,6.944-13.87.427.2.854.409,1.282.576a18.745,18.745,0,0,0,6.981,1.355,16.313,16.313,0,0,0,10.268-3.454A13.949,13.949,0,0,0,76.726,85.59,7.311,7.311,0,0,0,80.049,79.463Zm-10.026,0a2.692,2.692,0,1,1,2.692,2.692A2.694,2.694,0,0,1,70.023,79.463Z"/><path class="b" d="M88.2,17.65a7.331,7.331,0,0,0-6.276,3.528,24.843,24.843,0,0,0-17.38.7A12.871,12.871,0,0,0,57.229,29.7a7.743,7.743,0,0,0,.483,6.016,13.77,13.77,0,0,0,2.915,3.38,15.215,15.215,0,0,1,2.321,2.488,6.29,6.29,0,0,1,.65,6.7c-1.56,3.082-5.552,5.347-9.729,5.5a1.791,1.791,0,0,0-1.579.928A1.673,1.673,0,0,0,53.831,57.2h.075c5.774-.2,11.215-3.509,13.239-8.021,1.541-3.416.947-7.037-1.671-10.212a20.868,20.868,0,0,0-1.913-1.931c-1.485-1.374-2.9-2.693-3.045-4.55-.2-2.673,1.95-5.124,4.048-6.536C69,22.979,75.445,22.4,80.885,24.427a4.586,4.586,0,0,0-.019.52,7.316,7.316,0,1,0,7.335-7.3Zm0,10.026a2.692,2.692,0,1,1,2.692-2.692A2.694,2.694,0,0,1,88.2,27.676Z"/><path class="c" d="M292.616,128.946c-.26-11.865.761-29.486-6.944-39.587-3.38-4.438-8.189-6.74-13.778-4.642-3.528,1.319-6.276,4.7-7.873,7.8,1.059-14.019,1.411-28.056,1.17-42.131-.148-7.947.074-16.544-3.064-24.008C259.9,21.085,254.9,16.164,248.7,17.148c-5.719.91-8.579,6.2-10.231,11.494-.539-6.239-1.968-12.868-5.589-17.621-3.7-4.865-10.324-6.907-15.263-2.637-4.494,3.881-5.831,10.732-7.186,16.229a64.216,64.216,0,0,0-1.485,9.209,54.408,54.408,0,0,0-1.579-7.445c-1.5-5.274-4.048-11.234-10.156-12.181-6.425-1-11.494,4.215-13.8,9.655-2.451,5.831-3.658,25.717-3.231,37.043-1.207-4.549-4.122-10.806-8.672-11.957-7.854-1.987-12.236,6.814-13.517,13-1.913,9.117-1.318,7.576-1.523,16.841a221.133,221.133,0,0,0,.78,23.248,1.014,1.014,0,0,0,.242.575.656.656,0,0,0-.279.613c1.058,17.268.8,34.574,1.783,51.842.52,8.95.612,18.252,3.565,26.812a109.914,109.914,0,0,0,10.1,21.706,161.085,161.085,0,0,0,10.379,13.48c-1.671,7.093-1.745,16.3-1.5,23.563.019.464,78.487.39,78.506-.093A225.608,225.608,0,0,0,259.194,217c1.374-1.708,4.809-2.488,6.61-3.51a46.3,46.3,0,0,0,8.04-5.756,41.455,41.455,0,0,0,10.918-15.244,111.088,111.088,0,0,0,6.331-23.823,162.277,162.277,0,0,0,1.542-17.992C292.95,143.448,292.783,136.188,292.616,128.946ZM182.823,216.68c.019.019.019.037.037.056C182.953,216.884,182.86,216.829,182.823,216.68Z"/><path class="d" d="M264.077,87.8a1.155,1.155,0,0,0,.817-1.077,1.447,1.447,0,0,0-.724-1.3,1.09,1.09,0,0,0-1.114,0,.811.811,0,0,1-.13.093l-.056.055c-.65-.2-1.56-.668-1.894-.779a32.748,32.748,0,0,0-3.286-.873,36.879,36.879,0,0,0-5.348-.724,36.156,36.156,0,0,0-11.289,1.132q.278-13.507-.056-27.035a1.22,1.22,0,0,0,.557-.13c3.379-1.782,7.52-1.652,11.215-1.318a40.414,40.414,0,0,1,11.419,2.841c1.319.538,1.894-1.616.6-2.135-6.871-2.767-16.767-4.958-23.842-1.56-.093-3.194-.2-6.388-.353-9.581a1.15,1.15,0,0,0-.055-1.1c-.223-4.957-.52-9.934-.873-14.891-.093-1.411-2.321-1.43-2.228,0q.474,6.684.8,13.369c-3.695-1.876-7.891-2.321-12.05-2.247-5.311.093-10.863.483-15.932,2.21-.018-2.786-.055-5.589-.074-8.375a1.115,1.115,0,0,0-2.228,0c.056,5.831.093,11.643.148,17.473-4.4-1.838-9.135-2-13.888-1.541-4.55.445-9.99.65-13.518,3.88-1.058.966.52,2.544,1.578,1.579,3.12-2.878,8.764-2.971,12.794-3.3,4.475-.372,8.987-.186,13.072,1.838q.138,15.763.278,31.51c-4.233-1.43-9.1-1.077-13.5-.929a35.742,35.742,0,0,0-13.5,2.786c.2-8.727.483-17.473-.631-26.144-.186-1.393-2.4-1.411-2.228,0a111.542,111.542,0,0,1,.8,11.382c-3.342-1.355-7.483-1.56-10.955-1.653-4.1-.111-8.188.669-11.531,3.176-1.132.854-.018,2.785,1.114,1.912,3.046-2.3,6.629-2.971,10.4-2.878,3.473.093,7.836.241,10.993,1.875.055,7.168-.3,14.335-.3,21.5a33.559,33.559,0,0,0-22.1,2.767c-1.282.631-.149,2.544,1.114,1.912a31.061,31.061,0,0,1,20.7-2.469,1.483,1.483,0,0,0,.279.037,103.208,103.208,0,0,0,1.448,17.045c.26,1.411,2.4.817,2.135-.594-1.522-8.467-1.522-17.008-1.337-25.568a1.315,1.315,0,0,0,.52-.111,32.331,32.331,0,0,1,13.016-2.786c4.253-.148,9.544-.668,13.518,1.059q.111,11.976.2,23.971a1.115,1.115,0,0,0,2.228,0q-.138-16.628-.278-33.274c3.843-2.915,8.8-3.286,13.462-3.323,4.957-.038,10.119-.038,14.668,2.135l.038,11.1q-.307,11.307-1.04,22.578c-.093,1.43,2.135,1.43,2.228,0q.807-12.338,1.095-24.714a34.379,34.379,0,0,1,12.608-1.132,33.852,33.852,0,0,1,6.369,1.281C261.218,87.205,262.759,88.264,264.077,87.8ZM223.246,73.316c-4.475.075-8.894.632-12.7,2.9q-.138-15.568-.26-31.157l.223-.056c4.754-1.671,9.878-2.061,14.873-2.209,4.531-.149,9.08.222,12.979,2.636.093,2.191.186,4.382.26,6.573l.074,23.248C233.83,73.279,228.445,73.224,223.246,73.316Z"/><path class="d" d="M292.579,117.638c-8.281-4.382-18.067-6.406-27-3.082q.418-10.974.149-21.947a1.115,1.115,0,0,0-2.229,0,354.771,354.771,0,0,1-1.912,46.364c-.149,1.411,2.079,1.411,2.228,0q1.17-10.974,1.653-22h.018c8.56-3.472,17.974-1.634,25.958,2.6C292.709,120.238,293.842,118.325,292.579,117.638Z"/><path class="d" d="M223.729,246.148V165.525a7.706,7.706,0,1,0-3.157,0v80.623a7.706,7.706,0,1,0,3.157,0ZM219.4,158.005a2.748,2.748,0,1,1,2.748,2.748A2.742,2.742,0,0,1,219.4,158.005Zm2.748,98.411a2.748,2.748,0,1,1,2.748-2.748A2.742,2.742,0,0,1,222.15,256.416Z"/><path class="e" d="M264.578,151.376a7.7,7.7,0,0,0-2,15.133v18.68l-23.86,23.971v53.773a7.706,7.706,0,1,0,3.157,0V210.46l23.86-23.971v-.465l.092-.093V166.658a7.69,7.69,0,0,0-1.244-15.282Zm-21.52,119.077a2.748,2.748,0,1,1-2.748-2.748A2.741,2.741,0,0,1,243.058,270.453Zm21.52-108.623a2.748,2.748,0,1,1,2.748-2.748A2.742,2.742,0,0,1,264.578,161.83Z"/><path class="f" d="M212.235,286.719a8.247,8.247,0,0,0-6.647-7.836v-47.4l-14.65-27.555V176.777a7.955,7.955,0,0,0,4.809-2.748h0a8.157,8.157,0,0,0,1.838-5.4,8.23,8.23,0,0,0-13.907-5.719,8.159,8.159,0,0,0-2.544,5.942,8.261,8.261,0,0,0,1.244,4.363,8.175,8.175,0,0,0,5.4,3.584v27.889l14.65,27.555v46.624a8.206,8.206,0,0,0-6.647,8.059A8,8,0,0,0,204.009,295h.056a8.1,8.1,0,0,0,6.332-2.9A8.278,8.278,0,0,0,212.235,286.719Zm-25.1-117.889a2.228,2.228,0,1,1,2.228,2.229A2.235,2.235,0,0,1,187.131,168.83Zm16.878,120.34a2.229,2.229,0,1,1,2.229-2.229A2.235,2.235,0,0,1,204.009,289.17Z"/></svg>