<svg xmlns="http://www.w3.org/2000/svg" xmlns:xlink="http://www.w3.org/1999/xlink" viewBox="0 0 300 300"><defs><style>.a,.t{fill:none;}.b{fill:#465cff;stroke:#465cff;}.b,.d,.e,.f,.l,.n,.r{stroke-miterlimit:10;}.b,.d,.e,.f,.n,.q{stroke-width:0.346px;}.c{clip-path:url(#a);}.d,.i{fill:#3e9ff8;}.d{stroke:#3e9ff8;}.e,.j{fill:#fff;}.e{stroke:#fff;}.f{fill:#a4d2fc;stroke:#a4d2fc;}.g,.n{fill:#ffeb7d;}.h{fill:#ff5c76;}.k,.r{fill:#da7656;}.k,.l,.r,.t{stroke:#ae504a;stroke-width:1.038px;}.k,.q,.t{stroke-linecap:round;stroke-linejoin:round;}.l{fill:#ae504a;}.m{fill:#ff859b;}.n{stroke:#ffeb7d;}.o{clip-path:url(#b);}.p{fill:#f9c126;}.q{fill:#ffadc7;stroke:#ffadc7;}.s{fill:#621cd1;}</style><clipPath id="a"><path class="a" d="M154.547,13.468h0c-.035,0-.035-.034-.07-.034L143.094,6.1c-.242-.208-.519-.346-.761-.519h0a4.857,4.857,0,0,0-4.844.138L52.549,56.475a9.8,9.8,0,0,0-4.775,8.442V276.49a4.959,4.959,0,0,0,2.422,4.29h0l11.176,7.2a4.977,4.977,0,0,0,5.708.416l85.356-51.034a8.882,8.882,0,0,0,4.325-7.646V17.62A4.911,4.911,0,0,0,154.547,13.468Z"/></clipPath><clipPath id="b"><path class="a" d="M189.8,151.553c4.152,2.768,22.143,1.73,26.3-2.422,6.574,6.92,26.295,41.519,28.717,56.742-14.877,15.224-54.666,12.11-62.278,5.882C180.461,198.261,185.305,161.932,189.8,151.553Z"/></clipPath></defs><title>Buy Online</title><path class="b" d="M154.547,13.468h0c-.035,0-.035-.034-.07-.034L143.094,6.1c-.242-.208-.519-.346-.761-.519h0a4.857,4.857,0,0,0-4.844.138L52.549,56.475a9.8,9.8,0,0,0-4.775,8.442V276.49a4.959,4.959,0,0,0,2.422,4.29h0l11.176,7.2a4.977,4.977,0,0,0,5.708.416l85.356-51.034a8.882,8.882,0,0,0,4.325-7.646V17.62A4.911,4.911,0,0,0,154.547,13.468Z"/><g class="c"><path class="d" d="M151.986,16.1,67.08,66.855A9.8,9.8,0,0,0,62.306,75.3V286.869a4.993,4.993,0,0,0,7.542,4.291L155.2,240.126a8.882,8.882,0,0,0,4.325-7.646V20.388A4.993,4.993,0,0,0,151.986,16.1Z"/></g><path class="e" d="M145.966,212.032,79.017,251.371a3.507,3.507,0,0,1-5.294-3.01V236.632a5.186,5.186,0,0,1,2.492-4.4l66.948-39.373a3.507,3.507,0,0,1,5.294,3.01V207.6A5.2,5.2,0,0,1,145.966,212.032Z"/><path class="f" d="M111.678,77.857,77.183,98.2a3.012,3.012,0,0,1-4.532-2.595V76.265a2.988,2.988,0,0,1,1.488-2.594l34.5-20.345a3.012,3.012,0,0,1,4.532,2.595V75.262A2.948,2.948,0,0,1,111.678,77.857Z"/><path class="e" d="M134.929,149.442,82.408,180.823a3.612,3.612,0,0,1-5.467-3.113V119.583a9.886,9.886,0,0,1,4.809-8.476l52.522-31.382a3.612,3.612,0,0,1,5.466,3.114v58.092A9.945,9.945,0,0,1,134.929,149.442Z"/><path class="g" d="M126.21,186.394c.069-.761.1-1.557.173-2.318.069-.692.208-1.384.208-2.076a1.362,1.362,0,0,0-.416-.865c-.346-.346-.83-.554-1.176-.9a.941.941,0,0,1,0-1.626c.623-.553,1.28-1.038,1.9-1.522a2.778,2.778,0,0,0,1.073-1.557c.276-1.246.657-2.457,1.038-3.668.069-.207.311-.38.484-.553a4.587,4.587,0,0,1,.38.484,20.747,20.747,0,0,1,.9,2.007c.173.484.45.553.9.38.519-.207,1.072-.484,1.626-.657a3.78,3.78,0,0,1,.9-.1,3.618,3.618,0,0,1-.069.9,16.508,16.508,0,0,1-1.28,2.456,4.868,4.868,0,0,0-.519,3.6c.069.553.208,1.107.277,1.66.1.831-.277,1.177-1.073,1.038a.972.972,0,0,1-.311-.034c-2.145-.381-1.557-.554-2.941,1.211-.45.588-.865,1.176-1.315,1.764a6.108,6.108,0,0,1-.484.45C126.383,186.428,126.314,186.428,126.21,186.394Z"/><path class="g" d="M114.792,193.279a5.244,5.244,0,0,1-.069-.726c.1-1,.173-2.007.346-3.011a1.743,1.743,0,0,0-.969-1.937c-1.487-.969-1.487-1.453-.069-2.526a12.931,12.931,0,0,0,1.523-1.211,3.08,3.08,0,0,0,.8-1.28c.381-1.176.692-2.422,1.038-3.6.069-.242.312-.415.485-.623a2.419,2.419,0,0,1,.484.554,16.833,16.833,0,0,1,.761,1.833c.173.519.519.588.969.381.554-.242,1.107-.485,1.661-.692a4.649,4.649,0,0,1,.726-.069,2.223,2.223,0,0,1-.034.83c-.485,1.073-1.038,2.145-1.592,3.183a2.682,2.682,0,0,0-.311,1.869c.173.9.242,1.8.38,2.7.1.8-.242,1.142-1,1.038a2.012,2.012,0,0,1-.45-.069c-1.315-.588-2.11.069-2.733,1.142a16.862,16.862,0,0,1-1.142,1.591,5.333,5.333,0,0,1-.588.658C114.931,193.314,114.862,193.279,114.792,193.279Z"/><path class="g" d="M103.409,199.991c.069-.8.1-1.591.173-2.387a7.334,7.334,0,0,1,.208-1.488c.207-.865-.346-1.315-.934-1.73a4.038,4.038,0,0,1-.623-.45c-.623-.553-.623-1.037,0-1.626.588-.519,1.245-.934,1.8-1.487a4.159,4.159,0,0,0,1-1.35c.416-1.211.727-2.456,1.073-3.667a2.463,2.463,0,0,1,.415-.623,3.458,3.458,0,0,1,.45.554,13.152,13.152,0,0,1,.83,1.9c.173.589.519.519.935.381.553-.208,1.072-.484,1.591-.657a2.78,2.78,0,0,1,.761-.035,2.936,2.936,0,0,1-.069.8c-.554,1.142-1.142,2.249-1.661,3.425a2.988,2.988,0,0,0-.207,1.35c.069.968.242,1.937.346,2.906.1.8-.242,1.142-1.038,1-.45-.069-.9-.173-1.35-.242a.957.957,0,0,0-1.107.45c-.588.865-1.211,1.7-1.834,2.526-.138.207-.346.345-.519.553A.814.814,0,0,0,103.409,199.991Z"/><path class="g" d="M92.407,206.669a2.564,2.564,0,0,1-.069-.727c.1-1.176.276-2.352.346-3.529a1.127,1.127,0,0,0-.346-.83,11.631,11.631,0,0,0-1.211-1c-.623-.484-.692-.9-.1-1.453a19.377,19.377,0,0,1,1.834-1.522,2.754,2.754,0,0,0,1.107-1.592c.277-1.141.588-2.249.934-3.356a2.031,2.031,0,0,1,.45-.657,6.622,6.622,0,0,1,.45.588,17.26,17.26,0,0,1,.8,1.834c.173.519.45.553.9.38.553-.242,1.107-.484,1.661-.692a3.48,3.48,0,0,1,.622-.069c0,.208.1.485.035.658-.484,1.072-.969,2.179-1.522,3.217a2.691,2.691,0,0,0-.346,1.869c.173.9.242,1.8.346,2.7.1.831-.243,1.177-1.073,1.038-2.11-.346-2.11-.346-3.252,1.454-.415.622-.9,1.176-1.35,1.8C92.545,206.7,92.476,206.7,92.407,206.669Z"/><path class="g" d="M84.587,198.607c.346.8.727,1.557,1,2.353.207.519.484.657,1,.415a14.644,14.644,0,0,1,1.557-.623,1.843,1.843,0,0,1,.623-.034,4.5,4.5,0,0,1,.035.657,2.976,2.976,0,0,1-.208.485c-.45.968-.969,1.9-1.349,2.871a4.588,4.588,0,0,0-.277,1.7c.034.865.207,1.764.311,2.629.1.831-.207,1.142-1.038,1a3.574,3.574,0,0,1-.588-.1c-1.107-.381-1.765.1-2.318,1.038a15.489,15.489,0,0,1-1.28,1.8,4.423,4.423,0,0,0-.312.554c-.1-.07-.207-.1-.311-.173,0-.485-.035-.969,0-1.419.069-.934.242-1.834.277-2.768a1.277,1.277,0,0,0-.346-.83c-.346-.346-.761-.623-1.142-.969-.657-.519-.692-.969-.035-1.557.589-.519,1.177-1,1.8-1.488a2.59,2.59,0,0,0,1-1.453c.242-1.107.588-2.214.934-3.321a3.124,3.124,0,0,1,.381-.762Z"/><path class="h" d="M99.638,136.087l7.439-4.186v6.816a13.188,13.188,0,0,0-4.29,5.4c-1.7,3.84-2.249,7.958-1,10.864a3.66,3.66,0,0,0,5.121,1.695l10.829-5.812a5,5,0,0,0,2.63-3.91c.346-4.221-1.419-8.027-4.809-9.549a7.548,7.548,0,0,0-3.806-.588v-7.681l8.788-5.086a2.19,2.19,0,0,0,.969-2.665l-6.263-17.091a2.215,2.215,0,0,0-3.183-1.142l-11.418,6.677a2.259,2.259,0,0,0-1.072,1.488L96.351,133.7A2.24,2.24,0,0,0,99.638,136.087Z"/><path class="i" d="M100.78,230.542a.845.845,0,0,0-.9,0l-20.621,12.11a1.223,1.223,0,0,0-.623,1.072v2.526a.915.915,0,0,0,.45.8,1.136,1.136,0,0,0,.45.138.7.7,0,0,0,.45-.138l20.621-12.11h0a1.223,1.223,0,0,0,.623-1.072v-2.526A.915.915,0,0,0,100.78,230.542Z"/><path class="i" d="M118.771,212.066a.9.9,0,0,0-.934,0L79.19,235.351a1.222,1.222,0,0,0-.623,1.073v2.526a.914.914,0,0,0,.45.8,1.112,1.112,0,0,0,.45.139.7.7,0,0,0,.45-.139l38.647-23.285a1.221,1.221,0,0,0,.622-1.072v-2.526A.791.791,0,0,0,118.771,212.066Z"/><path class="j" d="M133.268,63.152c-.346.208-.692.381-1,.589-1.488.865-2.976,1.764-4.463,2.629a.4.4,0,0,0-.208.485,4.777,4.777,0,0,1-1.246,4.29,1,1,0,0,1-.449.277.845.845,0,0,1-1.108-.312,2.342,2.342,0,0,1-.38-1.522,5.218,5.218,0,0,1,.83-2.837,2.783,2.783,0,0,1,.969-.934c2.664-1.557,5.363-3.149,8.027-4.706a.449.449,0,0,0,.277-.415c0-.311.069-.588.1-.934-.139.069-.243.138-.312.173-3.079,1.8-6.158,3.633-9.238,5.432-.415.242-.553.173-.657-.277-.761-3.391-1.523-6.816-2.318-10.207a1.217,1.217,0,0,1,.588-1.418l13.493-8.1a.769.769,0,0,0,.416-.623c.311-2.526.657-5.052,1-7.577a1.365,1.365,0,0,1,.692-1.073c.83-.484,1.661-1,2.491-1.488.312-.207.519-.1.588.277a1.3,1.3,0,0,1-.588,1.246c-.726.449-1.418.865-2.145,1.28a.5.5,0,0,0-.242.38c-.242,1.834-.485,3.7-.727,5.536-.242,1.9-.519,3.772-.761,5.674-.277,2.042-.519,4.118-.8,6.159-.242,1.73-.449,3.46-.692,5.225,0,.069.035.207.1.242a1.184,1.184,0,0,1,.865.968,4.814,4.814,0,0,1-1.142,4.325,3.758,3.758,0,0,1-.449.346.891.891,0,0,1-1.281-.346,2.742,2.742,0,0,1-.346-1.384C133.164,64.087,133.234,63.637,133.268,63.152Zm3.045-16.365a2.155,2.155,0,0,1-.277.139c-4.186,2.525-8.407,5.016-12.594,7.542-.277.173-.277.311-.242.588.553,2.457,1.107,4.879,1.661,7.335.1.45.207.9.346,1.384a1.95,1.95,0,0,1,.276-.138c.727-.415,1.454-.865,2.18-1.28,2.318-1.384,4.636-2.734,6.955-4.118a.7.7,0,0,0,.242-.311c.1-.623.173-1.28.242-1.9.208-1.522.415-3.01.588-4.532.139-1.108.277-2.215.45-3.322C136.209,47.721,136.244,47.272,136.313,46.787ZM134.1,63.879a1.081,1.081,0,0,0,.034.311.641.641,0,0,0,.381.589.584.584,0,0,0,.588-.277,2.159,2.159,0,0,0,.45-1.765c-.035-.242-.1-.45-.346-.519a.513.513,0,0,0-.554.242A2.079,2.079,0,0,0,134.1,63.879Zm-7.3,4.29c0-.069-.034-.173-.034-.276-.035-.243-.1-.485-.381-.554s-.45.138-.588.311a2.062,2.062,0,0,0-.415,1.73c.034.242.138.519.38.519a.941.941,0,0,0,.554-.277A2.363,2.363,0,0,0,126.8,68.169Z"/><path class="j" d="M130.881,39.521v7.266a1.327,1.327,0,0,1-.312.934.438.438,0,0,1-.38.173.545.545,0,0,1-.242-.311,1.057,1.057,0,0,1-.035-.346V40.179h-.069c-.277.623-.554,1.211-.8,1.833l-.726,1.661a1.442,1.442,0,0,1-.243.381c-.207.207-.415.138-.519-.139a1.418,1.418,0,0,1,.1-.934c.692-1.522,1.349-3.079,2.041-4.6.139-.277.243-.589.381-.865.208-.416.415-.416.761-.1.727.761,1.384,1.522,2.145,2.214a1.175,1.175,0,0,1-.207,1.557.328.328,0,0,1-.45-.069c-.415-.45-.83-.9-1.28-1.349-.069-.07-.1-.173-.173-.243Z"/><path class="k" d="M160.74,142.9l-3.633-9.515-9.688-2.145c-.346.069-.242-.657-12.317-4.152-1.176-.346-2.076-.622-2.491-.726a11.513,11.513,0,0,0-3.841-.831,1.091,1.091,0,0,0-1,1.073c0,.969,2.387,2.11,4.809,3.114a2.621,2.621,0,0,0-1.522.934.858.858,0,0,0,0,.865,8.034,8.034,0,0,0,.8,1.107c-.727.1-.969.485-1.038.727a1.932,1.932,0,0,0,.865,2.041.772.772,0,0,0-.554.83c.1,2.007,2.906,2.907,4.775,2.976a4.536,4.536,0,0,0,1.211-.035c.726-.1,1.176-.311,1.349-.657a15.248,15.248,0,0,0,5.19-.035c1.142-.138,2.145-.311,2.7-.415Z"/><path class="k" d="M137.212,129.271c-1.556.242-3.978,1.246-3.252,2.214.8,1,6.4.831,8.788.139"/><path class="k" d="M131.85,132.7a27.012,27.012,0,0,0,3.771,1.523c2.318.311,4.809-.07,4.844-1.7"/><path class="k" d="M131.5,135.464a18.564,18.564,0,0,0,3.736,1.384c2.249.346,4.706-.1,3.945-1.315"/><path class="k" d="M138.077,137.54c1.384,1.038.277,1.211.277,1.211"/><path class="l" d="M185.824,91.178c-1.038,7.265-21.8,13.839-17.645-4.5-6.92.346-13.84-12.11-2.768-15.57-4.844-3.806,1.038-24.911,17.645-19.029,3.114-12.8,22.489-9.342,21.451,1.384,5.19-4.5,15.916-2.422,13.148,8.649,10.034-1.729,10.726,5.536,6.228,10.38,8.65,3.114,4.152,14.532-2.768,12.456,0,9-13.84,13.839-20.759,7.266S185.824,91.178,185.824,91.178Z"/><path class="k" d="M202.4,81.767c.346-.623,4.878-3.564,5.64-.416.761,3.114-6.228,5.675-6.816,5.467"/><path class="k" d="M190.841,210.025c0,11.764,4.152,66.084,3.806,69.544s-1.384,7.612-3.806,9.688-7.958,3.805-4.152,4.843,9,0,10.38-1.73,3.46-3.805,3.806-1.037,2.075,3.459,2.075,1.729.865-22.662,1.211-28.2.173-33.734.865-38.923,2.422-17.646,2.422-17.646Z"/><path class="k" d="M208.832,208.3a34.984,34.984,0,0,0,4.152,20.067c4.152,7.958,23.181,39.443,24.911,41.865s3.46,12.456,1.73,15.224.692,2.768,2.422,1.384,5.536-5.882,5.19-9-.692-6.228,2.076-3.46,2.768,1.038,1.73-.346a134.663,134.663,0,0,1-7.266-11.418c-1.384-2.768-14.185-30.793-18.337-36.674s0-20.068,0-20.068Z"/><path class="m" d="M190.426,288.945a19.2,19.2,0,0,1-2.63,1.7c-1.764,1-3.01,1.764-2.906,2.7.1.727,1,1.073,1.661,1.246a13.922,13.922,0,0,0,3.459.415c3.114,0,6.3-.9,7.439-2.318,1.869-2.353,2.526-2.18,2.561-2.18.1.035.242.242.346.9.276,2.11,1.245,3.183,2.11,3.114.484-.035,1-.416,1-1.454,0-.761.173-5.605.416-11.14C199.248,287.077,194.37,288.668,190.426,288.945Z"/><path class="m" d="M242.359,287.25c1.522-1.211,5.778-5.882,5.4-9.446-.138-1.28-.415-3.633-.069-3.944,0,0,.311-.035,1.28.934,1.488,1.488,2.387,1.938,2.976,1.453.588-.519.173-1.591-.45-2.456-.969-1.28-4.913-7.231-6.712-10.38a73.881,73.881,0,0,1-.45,7.4c-.588,5.64-2.388,8.1-4.5,9.653.1,2.076-.035,3.876-.588,4.775-1,1.592-.692,2.387-.277,2.768a1.335,1.335,0,0,0,.969.346A5.441,5.441,0,0,0,242.359,287.25Z"/><path class="n" d="M189.8,151.553c4.152,2.768,22.143,1.73,26.3-2.422,6.574,6.92,26.295,41.519,28.717,56.742-14.877,15.224-54.666,12.11-62.278,5.882C180.461,198.261,185.305,161.932,189.8,151.553Z"/><g class="o"><path class="p" d="M197.415,202.932c4.013,0,4.013-6.228,0-6.228s-4.014,6.228,0,6.228Z"/></g><g class="o"><path class="p" d="M208.832,187.536h-.1a2.489,2.489,0,0,0-1.21.276,3.259,3.259,0,0,0-1.938,2.872,3.334,3.334,0,0,0,.9,2.215,3.265,3.265,0,0,0,2.214.9h.1a2.485,2.485,0,0,0,1.211-.277,3.257,3.257,0,0,0,1.937-2.871,3.07,3.07,0,0,0-3.114-3.114h-.1a2.489,2.489,0,0,0-1.21.276,3.259,3.259,0,0,0-1.938,2.872,3.334,3.334,0,0,0,.9,2.215,3.265,3.265,0,0,0,2.214.9h.1a2.485,2.485,0,0,0,1.211-.277,3.257,3.257,0,0,0,1.937-2.871,3.07,3.07,0,0,0-3.114-3.114Z"/></g><g class="o"><path class="p" d="M196.031,182.692h-.173a2.48,2.48,0,0,0-1.211.277,3.256,3.256,0,0,0-1.938,2.871,3.339,3.339,0,0,0,.9,2.215,3.267,3.267,0,0,0,2.214.9H196a2.485,2.485,0,0,0,1.211-.277,3.256,3.256,0,0,0,1.938-2.871,3.072,3.072,0,0,0-3.114-3.114Z"/></g><g class="o"><path class="p" d="M209.524,178.194c4.014,0,4.014-6.228,0-6.228s-4.013,6.228,0,6.228Z"/></g><g class="o"><path class="p" d="M222.672,186.844c4.013,0,4.013-6.228,0-6.228s-4.014,6.228,0,6.228Z"/></g><g class="o"><path class="p" d="M194.3,173.177c4.013,0,4.013-6.228,0-6.228s-4.014,6.228,0,6.228Z"/></g><g class="o"><path class="p" d="M208.832,159.857c4.014,0,4.014-6.228,0-6.228s-4.013,6.228,0,6.228Z"/></g><g class="o"><path class="p" d="M218.52,168.679v.173a2.482,2.482,0,0,0,.277,1.211A3.259,3.259,0,0,0,221.669,172a3.336,3.336,0,0,0,2.214-.9,3.267,3.267,0,0,0,.9-2.214v-.173a2.493,2.493,0,0,0-.276-1.211,3.259,3.259,0,0,0-2.872-1.938,3.074,3.074,0,0,0-3.114,3.114Z"/></g><g class="o"><path class="p" d="M198.28,159.165v-.173a2.491,2.491,0,0,0-.277-1.211,3.259,3.259,0,0,0-2.872-1.938,3.329,3.329,0,0,0-2.214.9,3.262,3.262,0,0,0-.9,2.214v.173a2.485,2.485,0,0,0,.277,1.211,3.254,3.254,0,0,0,2.872,1.937,3.072,3.072,0,0,0,3.114-3.113Z"/></g><g class="o"><path class="p" d="M182.71,197.05h-.1a2.5,2.5,0,0,0-1.211.277,3.26,3.26,0,0,0-1.937,2.872,3.328,3.328,0,0,0,.9,2.214,3.266,3.266,0,0,0,2.215.9h.1a2.48,2.48,0,0,0,1.211-.277,3.259,3.259,0,0,0,1.938-2.872,3.074,3.074,0,0,0-3.114-3.114h-.1a2.5,2.5,0,0,0-1.211.277,3.26,3.26,0,0,0-1.937,2.872,3.328,3.328,0,0,0,.9,2.214,3.266,3.266,0,0,0,2.215.9h.1a2.48,2.48,0,0,0,1.211-.277,3.259,3.259,0,0,0,1.938-2.872,3.074,3.074,0,0,0-3.114-3.114Z"/></g><g class="o"><path class="p" d="M182.364,182.173c4.014,0,4.014-6.228,0-6.228s-4.013,6.228,0,6.228Z"/></g><g class="o"><path class="p" d="M210.908,213.312c4.014,0,4.014-6.228,0-6.228s-4.013,6.228,0,6.228Z"/></g><g class="o"><path class="p" d="M220.942,199.3c4.013,0,4.013-6.227,0-6.227s-4.014,6.227,0,6.227Z"/></g><g class="o"><path class="p" d="M192.744,211.755h-.1a2.485,2.485,0,0,0-1.211.277,3.256,3.256,0,0,0-1.938,2.871,3.337,3.337,0,0,0,.9,2.215,3.267,3.267,0,0,0,2.214.9h.1a2.493,2.493,0,0,0,1.211-.276,3.259,3.259,0,0,0,1.938-2.872,3.072,3.072,0,0,0-3.114-3.114h-.1a2.485,2.485,0,0,0-1.211.277,3.256,3.256,0,0,0-1.938,2.871,3.337,3.337,0,0,0,.9,2.215,3.267,3.267,0,0,0,2.214.9h.1a2.493,2.493,0,0,0,1.211-.276,3.259,3.259,0,0,0,1.938-2.872,3.072,3.072,0,0,0-3.114-3.114Z"/></g><g class="o"><path class="p" d="M231.668,209.679H231.5a2.48,2.48,0,0,0-1.211.277,3.259,3.259,0,0,0-1.938,2.872,3.331,3.331,0,0,0,.9,2.214,3.265,3.265,0,0,0,2.214.9h.173a2.5,2.5,0,0,0,1.211-.276,3.254,3.254,0,0,0,1.937-2.872,3.072,3.072,0,0,0-3.113-3.114Z"/></g><g class="o"><path class="p" d="M235.992,200.683c4.014,0,4.014-6.228,0-6.228s-4.013,6.228,0,6.228Z"/></g><g class="o"><path class="p" d="M236.338,187.19c4.014,0,4.014-6.228,0-6.228s-4.013,6.228,0,6.228Z"/></g><g class="o"><path class="p" d="M220.423,153.283h-.1a2.5,2.5,0,0,0-1.211.276,3.254,3.254,0,0,0-1.937,2.872,3.333,3.333,0,0,0,.9,2.215,3.27,3.27,0,0,0,2.215.9h.1a2.48,2.48,0,0,0,1.211-.277,3.256,3.256,0,0,0,1.938-2.871,3.072,3.072,0,0,0-3.114-3.114h-.1a2.5,2.5,0,0,0-1.211.276,3.254,3.254,0,0,0-1.937,2.872,3.333,3.333,0,0,0,.9,2.215,3.27,3.27,0,0,0,2.215.9h.1a2.48,2.48,0,0,0,1.211-.277,3.256,3.256,0,0,0,1.938-2.871,3.072,3.072,0,0,0-3.114-3.114Z"/></g><path class="k" d="M225.959,152.072c1,2.664.934,16.538.623,22.489,0,2.18-5.156,7.2-4.568,9.411.9,1.246,1.834-1.557,2.734-2.491,1.557-1.626-1.557,8.234-1.211,8.753.623.623,1.834-1.868,1.834-1.868-.623,1.557-.9,2.18-.623,2.8.311.622,3.045-2.18,3.045-2.8-.9,2.18-1.523,2.18-.9,2.8s3.633-3.149,3.633-3.772c-.9,2.18-1.384,2.111-.623,2.491.623.312,3.045-2.8,3.633-6.262.623-3.46-.311-4.705-.623-8.442-.311-3.771,1.834-13.459,1.834-16.919a57.13,57.13,0,0,0-.623-8.442Z"/><path class="q" d="M155.55,132.523c3.114,3.46,2.768,6.574,1.557,9.688,5.19,2.422,15.742,5.536,27.16-12.11-.692,5.882,5.882,9.688,6.228,12.456s-1.107,11-1.107,11,17.922,5.606,29.063-2.006c-.554-9.342-.277-15.57-2.353-21.452,3.46,6.574,9.342,18.338,9.342,23.182,5.19,1.73,9.687-3.114,9.687-3.114-.691-5.536-1.037-24.565-14.185-37.713s-30.793-8.65-34.6-4.5-11.764,17.3-16.954,21.451S155.55,132.523,155.55,132.523Z"/><path class="k" d="M198.764,95.4c-.1.173.761,8.165,1.073,10.587a3.727,3.727,0,0,1-.692,2.733,2.722,2.722,0,0,1-3.08,1.142,3.027,3.027,0,0,1-1.868-2.7l-.761-9.86"/><path class="r" d="M181.707,78.653s-.692,24.392,13.493,21.174c9.723-2.525,8.062-20.794,5.571-27.194"/><ellipse class="s" cx="194.4" cy="85.656" rx="1.038" ry="1.28" transform="translate(-15.72 54.382) rotate(-15.313)"/><path class="t" d="M190.322,89.344a10.2,10.2,0,0,1-.277,2.422c-.208.865,1.522-.035,1.522-.035"/><path class="t" d="M195.685,82.078a2.1,2.1,0,0,0-2.076,0"/><path class="t" d="M195.442,93.738a1.729,1.729,0,0,1-1.8,1.28"/><ellipse class="s" cx="187.415" cy="86.895" rx="1.038" ry="1.28" transform="translate(-16.295 52.581) rotate(-15.313)"/><path class="t" d="M186.966,82.943a2.207,2.207,0,0,0-1.834,1.038"/><path class="l" d="M203.4,77.3c-4.74,3.772-12.49,2.215-12.871-1.038-2.11,2.076-14.6,3.5-13.009-6.435,1.592-9.964,10.415-4.325,10.415-4.325,1.695-6.089,13.216-3.01,13.078,2.284C206.064,66.716,208.244,73.463,203.4,77.3Z"/><path class="t" d="M226.305,185.633c-1.038,2.768-1.107,3.183-1.246,3.494"/><path class="t" d="M228.727,186.325a11.875,11.875,0,0,1-1.661,3.183"/></svg>