<svg xmlns="http://www.w3.org/2000/svg" viewBox="0 0 300 300"><defs><style>.a{fill:#bbe7ff;}.b{fill:#80beff;}.c{fill:#fff;}.d{fill:#5a80f9;}.e{fill:#fedffd;}.f{fill:#2c2b47;}.g{fill:#db199b;}.h{fill:#fb0e39;}</style></defs><title>Designing a Website</title><path class="a" d="M290.334,29.939H9.684A4.692,4.692,0,0,0,5,34.623V216.291a4.692,4.692,0,0,0,4.684,4.684H290.316A4.692,4.692,0,0,0,295,216.291V34.623A4.677,4.677,0,0,0,290.334,29.939Z"/><path class="b" d="M165.934,107.269H52a2.127,2.127,0,0,0-2.121,2.121v47.193A2.127,2.127,0,0,0,52,158.7H165.917a2.127,2.127,0,0,0,2.121-2.121V109.39A2.1,2.1,0,0,0,165.934,107.269Z"/><circle class="c" cx="190.609" cy="95.409" r="9.651"/><circle class="c" cx="221.7" cy="95.409" r="9.651"/><circle class="c" cx="252.172" cy="95.409" r="9.651"/><path class="d" d="M261.222,123.566h-46.68a20.059,20.059,0,0,0-20.009,20.008h0a20.059,20.059,0,0,0,20.009,20.009h46.68a20.059,20.059,0,0,0,20.009-20.009h0A20.059,20.059,0,0,0,261.222,123.566Z"/><path class="e" d="M214.612,129.1A14.519,14.519,0,1,0,230.4,144.882,14.559,14.559,0,0,0,214.612,129.1Z"/><path class="f" d="M218.024,239.393c-1.291-5.285-7.636-7.5-12.355-8.485a30.965,30.965,0,0,0-10.447-.406c-2.739.353-5.726.884-7.883,2.7a.622.622,0,0,0-.177.2c-1.855,3.146-3.817,10.163,1.185,11.489,2.775.724,6.062.335,8.908.424,3.5.088,6.982.23,10.482.247C212,245.579,219.579,245.756,218.024,239.393Z"/><path class="e" d="M214.506,231.4c-2.669-2.05-6.257-2.987-9.456-3.818-4.012-1.042-8.254-2.209-12.408-2.333-4.348-.141-8.52,1.273-12.567,2.652-.336.123-.23.636.088.6l.194,7.936c-.3-.018-.406.477-.07.6,7.529,2.58,15.094,5.249,23.031,6.345,1.785.248,4.313.265,5.267-1.679,1.22-2.492-3.288-3.977-4.684-4.878-.371-.23-1.944-.973-1.98-1.344-.159-1.272,2.015-.371,2.546-.229a53.708,53.708,0,0,1,6.027,1.838c1.785.654,5.232,2.262,6.363-.336C217.723,234.726,215.991,232.534,214.506,231.4Z"/><path class="d" d="M87.049,152.483c-.247-.707-1.007-.9-1.891-.849.689-.654,1.1-1.4.654-2.1-1.043-1.626-4.879-.053-6.063.406-4.348,1.7-7.689,6.24-5.55,10.906a.485.485,0,0,0,.583.3.774.774,0,0,0,.248-.071A28.025,28.025,0,0,1,82.259,158c2.174-.512,4.26-1.131,4.543-3.658a.539.539,0,0,0-.177-.425A1.3,1.3,0,0,0,87.049,152.483Z"/><path class="c" d="M79.873,157.184a3.018,3.018,0,0,0-2.952-1.82,2.958,2.958,0,0,0-2.192,1.979,7.156,7.156,0,0,0-.3,3.058c.018.23.035.478.053.725a5.184,5.184,0,0,0,.141,1.467,2.853,2.853,0,0,0,2.21,2.262,2.725,2.725,0,0,0,2.474-1.254,6,6,0,0,0,.9-2.758A6.448,6.448,0,0,0,79.873,157.184Z"/><path class="d" d="M76.073,154.9c-2.1.955-2.369,3.5-1.892,5.5.018.089.089.106.16.106-.036.089-.054.195-.089.283a.158.158,0,0,0,.3.089c.583-2.139,2.686-5.073,5.267-4.1a.155.155,0,0,0,.194-.142C79.8,154.869,77.522,154.233,76.073,154.9Z"/><path class="f" d="M83.6,158.563a.892.892,0,0,0-.106-.141.7.7,0,0,0-.123-.106,2.028,2.028,0,0,0-1.467-.584,5.356,5.356,0,0,0-1.839.106,1.894,1.894,0,0,0-1.166,1.291c-.212,0-.442-.036-.654-.018l-.265.053a1.982,1.982,0,0,0-.283-.495,1.033,1.033,0,0,0-.106-.141.751.751,0,0,0-.124-.106A2.027,2.027,0,0,0,76,157.838a5.352,5.352,0,0,0-1.838.106c-1.344.478-1.626,2.351-.937,3.465a1.8,1.8,0,0,0,1.714.689,6.078,6.078,0,0,0,2.263-.265,1.612,1.612,0,0,0,.972-1.467,1.821,1.821,0,0,1,.619-.035,2.458,2.458,0,0,0,.336.954,1.8,1.8,0,0,0,1.714.689,6.07,6.07,0,0,0,2.262-.265C84.345,161.2,84.309,159.518,83.6,158.563Zm-6.663,1.927c-.195.318-.548.3-.866.318-.672.071-1.856.318-1.98-.566-.124-.848.354-1.219,1.131-1.2.6,0,1.043-.088,1.5.336A1.167,1.167,0,0,1,76.939,160.49Zm5.9-.106c-.194.318-.548.3-.866.318-.671.07-1.856.318-1.979-.566-.124-.848.353-1.219,1.131-1.2.6,0,1.043-.088,1.5.336A1.215,1.215,0,0,1,82.842,160.384Z"/><path class="f" d="M277.165,253.816l-25.894-74.838,9.315-41.661a3.59,3.59,0,0,0-2.828-4.242,3.824,3.824,0,0,0-2.775.5,3.531,3.531,0,0,0-1.609,2.245L230.732,237.042a3.469,3.469,0,0,0,.513,2.686,3.665,3.665,0,0,0,2.315,1.556,4.043,4.043,0,0,0,.778.088,3.676,3.676,0,0,0,3.606-2.81l12.532-56.031,24.321,71.02a4.94,4.94,0,0,1-.336,4.56,5.234,5.234,0,0,1-4.383,1.856H235.469a.972.972,0,1,0,0,1.944h36.889a5.74,5.74,0,0,0,4.525-3.129A6.357,6.357,0,0,0,277.165,253.816Z"/><path class="g" d="M250.829,60.27c-2.015-2.633-10.464-13.716-12.125-15.908a1.267,1.267,0,0,0-1.043-.494h0a1.372,1.372,0,0,0-1.043.494c-1.679,2.192-10.11,13.292-12.125,15.908a1.068,1.068,0,0,0-.089,1.22,1.286,1.286,0,0,0,1.132.636h.088V74.817a1.215,1.215,0,0,0,1.273,1.167h21.546a1.227,1.227,0,0,0,1.273-1.167V62.126h.088a1.284,1.284,0,0,0,1.131-.636A1.173,1.173,0,0,0,250.829,60.27Z"/><path class="a" d="M240.118,61.189h-4.932a3.348,3.348,0,0,0-3.482,3.2V79.625h11.878V64.406A3.345,3.345,0,0,0,240.118,61.189ZM241.832,78h-8.36V64.406a1.657,1.657,0,0,1,1.714-1.573h4.932a1.645,1.645,0,0,1,1.714,1.573V78Z"/><path class="h" d="M183.539,225.977c-5.868-2.863-12.231-4.277-18.577-5.674l-21.528-4.772c-1.7-.371-3.394-.743-5.091-1.131a5.185,5.185,0,0,1-2.545-.937,12.409,12.409,0,0,1-1.432-2.086q-1.989-2.891-4.083-5.709c-2.757-3.694-5.727-7.212-8.749-10.711a117.949,117.949,0,0,0-14-13.222c-4.207-3.517-8.255-7.193-13.345-9.4a39.544,39.544,0,0,0-12.284-2.846,1.331,1.331,0,0,0-.407-1.325c-.654-.637-1.573-.283-2.351-.159a11.639,11.639,0,0,1-4.861-.531.235.235,0,0,0-.247.053c-.548,0-1.025.478-.831,1.291v.017a1.2,1.2,0,0,0,.053.654,27.3,27.3,0,0,0-2.828.513c-9.721,2.369-19.248,7.477-27.432,13.15-9.209,6.381-15.978,15.025-22.5,24-6.38,8.8-11.524,20.857-8.943,31.868,2.739,11.666,14.705,17.517,25.222,20.751a151.736,151.736,0,0,0,18.6,4.119c6.61,1.166,13.239,2.244,19.938,2.863a94.63,94.63,0,0,0,20.857-.141,65.95,65.95,0,0,0,9.65-1.644c2.157-.619,1.609-1.344,1.7-3.588.124-3.306.407-6.8.53-10.111,1.839-.106,13.858-1.414,13.823-1.7a73.491,73.491,0,0,0-1.467-8.52,408.221,408.221,0,0,0,61.669.672.343.343,0,0,0,.3-.23c.672-2.086.46-4.4.584-6.593.176-2.9.654-5.815.724-8.7A.333.333,0,0,0,183.539,225.977Z"/><path class="c" d="M181.135,175.072l-11.666-15.731a1.158,1.158,0,0,1,.23-1.626l9.616-7.23a1.951,1.951,0,0,0,.742-2,1.926,1.926,0,0,0-1.52-1.5l-39.01-8.449a1.969,1.969,0,0,0-2.386,1.8l-2.757,39.822a1.976,1.976,0,0,0,3.164,1.715l9.615-7.229a1.159,1.159,0,0,1,1.626.229l11.86,15.59a1.958,1.958,0,0,0,1.573.778,1.982,1.982,0,0,0,1.185-.389l17.322-13.009A1.983,1.983,0,0,0,181.135,175.072Z"/><path class="f" d="M216.68,234.85a21.565,21.565,0,0,0-12.956-4.419.6.6,0,0,0,0,1.2,20.491,20.491,0,0,1,12.338,4.26C216.7,236.37,217.3,235.31,216.68,234.85Z"/><path class="e" d="M139.068,257.121c1.325-.672,1.962-1.75-.089-2.97-2.333-1.4-5.673-1.732-8.714-1.661a2.18,2.18,0,0,0,.743-1.361c.353-1.679-1.061-2.209-2.51-2.28a51.2,51.2,0,0,0-9.421.848c-3.641.513-7.265,1.167-10.906,1.8a.234.234,0,0,0-.212.265v.018a103.045,103.045,0,0,0-.442,10.959c0,.565-.159,1.75.265,2.244.478.531,2.227.814,2.952,1.061,1.485.495,2.987.954,4.49,1.379,5.391,1.484,11.418,2.81,17.039,2.616,1.272-.036,3.252-.478,3.747-1.874a1.814,1.814,0,0,0-.46-1.927c1.927-.159,4.49-.459,5.374-1.855a1.453,1.453,0,0,0-.637-2.281c1.185-.176,2.21-.724,2.3-2.1C142.744,257.934,140.853,257.262,139.068,257.121Z"/><path class="f" d="M129.523,251.642a36.044,36.044,0,0,0-9.032.8c-.76.159-.442,1.326.318,1.167a33.557,33.557,0,0,1,8.714-.761C130.318,252.879,130.3,251.677,129.523,251.642Z"/><path class="f" d="M138.59,256.538a87.093,87.093,0,0,0-10.074-.212c-.778.035-.778,1.237,0,1.2a86.87,86.87,0,0,1,10.074.212C139.368,257.81,139.368,256.608,138.59,256.538Z"/><path class="f" d="M139.828,261.77a34.681,34.681,0,0,1-10.552-.725c-.76-.177-1.079.99-.319,1.166a35.748,35.748,0,0,0,10.888.761C140.588,262.918,140.6,261.717,139.828,261.77Z"/><path class="f" d="M135.586,265.517a36.148,36.148,0,0,1-7.919-.884c-.76-.177-1.078.99-.318,1.167a37.044,37.044,0,0,0,8.237.919A.6.6,0,0,0,135.586,265.517Z"/><path class="e" d="M108.967,248.071a5.531,5.531,0,0,0-2.917-1.75c-5.126-1.926-10.022-4.189-15.271-5.815-5.851-1.8-11.79-3.27-17.693-4.861q-4.349-1.166-8.626-2.51c-1.361-.424-2.722-.883-4.083-1.361-1.29-.459-2.9-.813-3.889-1.82-2.58-2.563.23-7.3,1.821-9.686.654-.972-.919-1.891-1.573-.919-1.52,2.28-2.97,5.019-3.04,7.83-.124,4.613,4.259,5.709,7.883,6.929,11.931,3.994,24.374,6.239,36.164,10.676,2.686,1.007,5.249,2.35,7.954,3.323,2.421.883,2.474,2.686,2.262,5.108-.106,1.166,1.715,1.149,1.821,0C109.939,251.518,110.027,249.521,108.967,248.071Z"/><path class="e" d="M122.029,239.994c-4.013-13.063-9.58-25.559-13.893-38.515-.371-1.1-2.121-.636-1.75.477,4.3,12.956,9.88,25.453,13.893,38.515a.907.907,0,0,0,1.75-.477Z"/><path class="c" d="M158.67,83.9H34.483a12.884,12.884,0,0,1-12.85-12.85V60.783a12.884,12.884,0,0,1,12.85-12.85H158.67a12.885,12.885,0,0,1,12.85,12.85V71.052A12.885,12.885,0,0,1,158.67,83.9Z"/><path class="b" d="M155.771,55.3a9.249,9.249,0,0,0-13.327,12.637l-7.3,8.8A.881.881,0,0,0,135.268,78l2,1.661a.881.881,0,0,0,1.255-.124l7.3-8.8a9.245,9.245,0,0,0,9.951-15.43Zm-1.308,10.941a5.987,5.987,0,1,1-.778-8.432A5.977,5.977,0,0,1,154.463,66.245Z"/></svg>