<svg xmlns="http://www.w3.org/2000/svg" viewBox="0 0 300 300"><defs><style>.a{fill:#80beff;}.b,.d{fill:#fedffd;}.b{stroke:#fedffd;stroke-miterlimit:10;stroke-width:0.086px;}.c{fill:#fb0e39;}.e{fill:#ff4900;}.f{fill:#db199b;}</style></defs><title>Downloading</title><path class="a" d="M218.934,71.494l-35.334.171a4.616,4.616,0,0,1-4.638-4.569l-.616-57.527A4.626,4.626,0,0,0,173.709,5l-31.792.154-31.793.154a4.638,4.638,0,0,0-4.6,4.6l-.085,57.528a4.605,4.605,0,0,1-4.6,4.6L65.5,72.213a4.613,4.613,0,0,0-3.456,7.648L139.179,168.1a4.612,4.612,0,0,0,6.981-.035l76.316-88.96A4.624,4.624,0,0,0,218.934,71.494Z"/><rect class="b" x="105.704" y="281.432" width="7.769" height="3.508" transform="translate(-186.331 351.272) rotate(-81.802)"/><rect class="b" x="161.985" y="280.885" width="7.769" height="3.508" transform="translate(-137.534 406.51) rotate(-81.802)"/><rect class="b" x="134.648" y="278.75" width="3.508" height="7.769" transform="translate(-38.909 22.339) rotate(-8.198)"/><rect class="b" x="197.036" y="278.75" width="3.508" height="7.769" transform="translate(-38.271 31.235) rotate(-8.198)"/><path class="a" d="M248.5,183.949h-8.2a1.814,1.814,0,0,0-1.814,1.813V203.8a1.814,1.814,0,0,1-1.814,1.813H47.771a1.815,1.815,0,0,1-1.814-1.813V185.762a1.814,1.814,0,0,0-1.813-1.813h-8.2a1.814,1.814,0,0,0-1.813,1.813V214.3a1.815,1.815,0,0,0,1.813,1.814H248.5a1.815,1.815,0,0,0,1.814-1.814V185.762A1.8,1.8,0,0,0,248.5,183.949Z"/><path class="c" d="M134.867,225.854a.3.3,0,0,0-.257-.206q-5.235.667-10.489.907c-1.643.069-3.268.1-4.911.12a3.111,3.111,0,0,0-2.327.565,12.619,12.619,0,0,0-2.036,3.148,45.173,45.173,0,0,0-2.293,4.552,63.073,63.073,0,0,0-2.823,7.854,111.818,111.818,0,0,0-3.662,18.668q-.566,4.851-.7,9.736-.076,2.439-.051,4.877c.017,1.489.5,3.593.1,5.031a.269.269,0,0,0,.256.342l6.366.1a.271.271,0,0,0,.462.017.624.624,0,0,0,.085-.137.208.208,0,0,0,.034-.137,287.068,287.068,0,0,0,13-32.032c.257,4.945,1.8,9.941,3.011,14.664q2.208,8.6,5.048,17.009a.268.268,0,0,0,.394.154,10.1,10.1,0,0,1,2.515-.12c.77-.069,1.523-.171,2.276-.257a8.448,8.448,0,0,0,2.635-.479.272.272,0,0,0,.137-.24C142.208,261.736,142.088,242.931,134.867,225.854Z"/><path d="M202.815,280.028c-.034-1.352-.119-2.7-.273-4.039a134.607,134.607,0,0,0-3.183-15.588c-2.447-10.4-5.219-20.482-9.976-30.115a.267.267,0,0,0-.308-.12c-3.234.872-6.81-.411-10.13-.411-2.926,0-5.578.8-8.436,1.112-.119.017-.239.069-.256.206q-2.875,13.038-5.75,26.094c-1.8,8.162-3.644,16.307-3.542,24.709a.273.273,0,0,0,.206.256c2.173.291,4.346.565,6.536.7h.069a.274.274,0,0,0,.427-.034,124.593,124.593,0,0,0,14.494-30.527c.444,1.13.65,2.55.992,3.645.462,1.4.941,2.806,1.454,4.192.89,2.4,1.866,4.774,2.944,7.1a105.3,105.3,0,0,0,8.4,14.973.276.276,0,0,0,.308.119,26.427,26.427,0,0,1,3.85-.444c.633-.069,1.369.068,1.848-.428C202.952,280.969,202.832,280.746,202.815,280.028Z"/><path class="d" d="M133.224,179.876a.288.288,0,0,0-.342.051c-.291-.855-.719-1.711-1.352-1.608a.617.617,0,0,0-.5.53,2.458,2.458,0,0,0-1.215-1.214.238.238,0,0,0-.257.068,1.651,1.651,0,0,0-.239,1.318l-.308-.308a.268.268,0,0,0-.377,0c-.7.906-.239,2.5.394,3.884a.537.537,0,0,0-.719.1c-.872.959,1.472,4.158,1.9,4.843a.228.228,0,0,0,.137.12,8.472,8.472,0,0,0,.752,1.317.277.277,0,0,0,.308.12,9.036,9.036,0,0,1,2.533-.65.3.3,0,0,0,.274-.274C134.336,186.122,135.226,181.382,133.224,179.876Z"/><path class="d" d="M125.079,181.912a.536.536,0,0,0-.718-.1c.616-1.386,1.095-2.978.393-3.885a.269.269,0,0,0-.376,0l-.308.308a1.65,1.65,0,0,0-.24-1.317.237.237,0,0,0-.256-.069,2.366,2.366,0,0,0-1.2,1.215.66.66,0,0,0-.5-.53c-.6-.137-1.044.753-1.352,1.608a.264.264,0,0,0-.342-.051c-2,1.506-1.13,6.263-.993,8.3a.3.3,0,0,0,.274.274,8.115,8.115,0,0,1,2.532.65.276.276,0,0,0,.308-.12,7.237,7.237,0,0,0,.753-1.317.228.228,0,0,0,.137-.12C123.642,186.019,125.952,182.905,125.079,181.912Z"/><path class="e" d="M137.16,208.5c-.188-7.033.085-14.339-2.208-21.1a.282.282,0,0,0-.325-.188,37.973,37.973,0,0,0-4.346.975.294.294,0,0,0-.205.257c-.12,3.028.445,6.177.564,9.223a86.081,86.081,0,0,1-.119,10.284,36.067,36.067,0,0,1-1.729,9.616c-.855,2.293-3.165,5.1-5.595,2.567a8.582,8.582,0,0,1-1.933-5.065,55.336,55.336,0,0,1,.393-9.822q.386-4.877,1.027-9.736c.256-1.968.479-3.987.855-5.938.1-.565.462-1.3.274-1.865-.154-.513-.393-.548-.855-.667a27.837,27.837,0,0,0-4.33-.394.255.255,0,0,0-.256.205c-2.772,14.75-4.312,29.654-5.7,44.575-.017.274.308.325.462.171a.246.246,0,0,0,.256.223q6.7.153,13.4.085c2.105-.034,4.227-.068,6.332-.137,1.18-.034,2.361-.068,3.542-.12a1.984,1.984,0,0,0,.958-.136.275.275,0,0,0,.137-.24Q137.45,219.883,137.16,208.5Z"/><path d="M50.132,294.025a12.889,12.889,0,0,0-4.637-3.406c-1.112-.6-2.327-1.1-3.4-1.762-1.916-1.164-.633-2.977.052-4.5a.281.281,0,0,0-.24-.411,38.94,38.94,0,0,0-4.671.017.3.3,0,0,0-.223.445l-.462.359a.243.243,0,0,0-.428.018l-2.72,5.9c-.462,1.009-1.677,2.6-1.609,3.713a.3.3,0,0,0,.274.274,27.468,27.468,0,0,0,2.892.154.274.274,0,0,0,.257-.206,17.423,17.423,0,0,1,1.574-3.216c-.069.376-.171.77-.206.992-.1.719-.188,1.437-.29,2.156a.269.269,0,0,0,.273.274c4.432.085,8.881-.206,13.313-.308a.3.3,0,0,0,.239-.137.38.38,0,0,1,.052-.086C50.167,294.213,50.184,294.093,50.132,294.025Z"/><path d="M93.355,294.042c-1.317-1.78-3.319-2.721-5.236-3.731-1.078-.564-2.72-1.009-3.525-1.933-.77-.873-.513-3.131-.154-4.141.069-.171-.1-.325-.256-.342a27.446,27.446,0,0,0-3.748.1.3.3,0,0,0-.222.445l-.462.36a.242.242,0,0,0-.428.017l-2.721,5.9c-.462,1.01-1.676,2.6-1.608,3.713a.3.3,0,0,0,.274.274,27.187,27.187,0,0,0,2.892.154.273.273,0,0,0,.256-.2,17.5,17.5,0,0,1,1.574-3.217c-.068.376-.171.77-.2.992-.1.719-.188,1.438-.291,2.156a.271.271,0,0,0,.274.274c4.432.086,8.881-.2,13.312-.308a.294.294,0,0,0,.24-.137.372.372,0,0,1,.051-.085A.29.29,0,0,0,93.355,294.042Z"/><path class="e" d="M71.419,226.453a.263.263,0,0,0-.086-.223c-.068-.171-.12-.342-.188-.513-.12-.325-.65-.188-.513.137.034.1.085.222.119.325-1.694.085-3.37.188-5.064.274-1.267.068-3.217-.206-4.415.256a8.052,8.052,0,0,0-2.379,2.122,31.379,31.379,0,0,0-2.344,2.841c-3.9,5.321-6.878,11.5-9.633,17.47a156.876,156.876,0,0,0-7.05,18.241q-1.515,4.8-2.721,9.7c-.411,1.676-.8,3.37-1.163,5.064-.154.753-.719,2.054-.48,2.807a.3.3,0,0,0,.257.2c2.1.068,4.227.137,6.331.188a.3.3,0,0,0,.24-.137c2.772-5.236,5.9-10.318,9-15.365,4.107-6.691,8.316-13.347,12.9-19.713a13.081,13.081,0,0,0,.377,1.643c.427,1.677.872,3.337,1.368,5q1.541,5.133,3.508,10.1a121.981,121.981,0,0,0,9.155,18.309.276.276,0,0,0,.308.12,24.7,24.7,0,0,1,5.629-.257.282.282,0,0,0,.274-.274C83.773,264.747,78.588,245.189,71.419,226.453Z"/><path d="M68.151,245.087a50.758,50.758,0,0,0-3.8,4.534c-.308.411.393.822.7.411a49.825,49.825,0,0,1,3.662-4.381A.4.4,0,0,0,68.151,245.087Z"/><path class="d" d="M97.462,198c.513-.787.958-1.728.376-2.088a.678.678,0,0,0-.65-.034,2.387,2.387,0,0,0,.206-1.643.274.274,0,0,0-.257-.205,1.586,1.586,0,0,0-1.147.616c.018-.154.035-.291.052-.445a.269.269,0,0,0-.342-.256c-1.1.171-1.985,1.42-2.67,2.686a.549.549,0,0,0-.564-.513c-1.284-.069-2.259,3.593-2.584,4.483a.292.292,0,0,0,0,.171,7.683,7.683,0,0,0-.548,1.4.276.276,0,0,0,.12.308,8.659,8.659,0,0,1,2.036,1.574.258.258,0,0,0,.325.034c1.677-1.163,5.938-3.388,5.869-5.835C97.719,198.117,97.6,198.014,97.462,198Z"/><path class="d" d="M80.111,182.648a.534.534,0,0,0-.718-.1c.633-1.351,1.146-2.926.513-3.781a.276.276,0,0,0-.428-.051c-.1.085-.2.188-.291.273A1.5,1.5,0,0,0,79,177.754a.275.275,0,0,0-.308-.119,2.518,2.518,0,0,0-1.215,1.18.625.625,0,0,0-.445-.513c-.616-.188-1.078.7-1.386,1.557a.285.285,0,0,0-.342-.051c-2.019,1.437-1.232,6.177-1.146,8.2a.281.281,0,0,0,.273.274,7.746,7.746,0,0,1,2.413.65.283.283,0,0,0,.376-.1,8.151,8.151,0,0,0,.77-1.283.309.309,0,0,0,.154-.12C78.623,186.686,80.967,183.641,80.111,182.648Z"/><path class="f" d="M92.791,203.147c-1.061-.65-2-1.437-3.063-2.07a.26.26,0,0,0-.274,0c-3.3,2.19-6.006,4.979-9.1,7.409a41.027,41.027,0,0,1-4.432,3.251c-1.112.65-2.224,1.3-3.285,2.053q1.437-6.852,2.891-13.706c.5-2.327.976-4.654,1.472-6.981.325-1.54,1.318-3.833.941-5.373a.263.263,0,0,0-.188-.188,12.28,12.28,0,0,0-1.763-.342c-.444-.052-1.368.1-1.728-.12a.278.278,0,0,0-.376.1c-2,2.635-3.029,5.852-4.244,8.9-1.437,3.594-2.892,7.17-4.312,10.763a201.816,201.816,0,0,0-7.443,21.937.27.27,0,0,0,.257.342c5.3.479,10.78.051,16.118-.017a.247.247,0,0,0,.257-.223.144.144,0,0,0,0-.119c-.274-1.626-.7-3.2-1.027-4.826.12-.051.24-.154.445-.273a32.925,32.925,0,0,0,3.388-2.328,54.778,54.778,0,0,0,5.818-5.082,68.151,68.151,0,0,0,9.736-12.7A.3.3,0,0,0,92.791,203.147Z"/><path class="d" d="M73.147,223.7c-2.738.787-10.044,1.18-10.25-3.08.36-2.019,2.67-3.371,4.4-4.175a47.42,47.42,0,0,1,5.3-1.831c.5-.171.274-.941-.222-.787-2.276.753-4.706,1.317-6.742,2.6-1.523.958-3.1,1.984-3.49,3.815a.479.479,0,0,0-.069.223c.069,5.065,7.991,4.945,11.276,4A.4.4,0,0,0,73.147,223.7Z"/><path class="d" d="M65.55,212.387c-.548-1.728-2.122-2.293-3.833-2.087a7.429,7.429,0,0,0-2.841,1.061,6.549,6.549,0,0,1-3.114,1.078c-.924.017-1.831-.171-2.755-.12a5.343,5.343,0,0,0-2.823.941c-.633.445-1.095,1.061-1.746,1.506a5.643,5.643,0,0,1-3.148.872,17.061,17.061,0,0,0-3.61.257,8.22,8.22,0,0,0-2.772,1.728c-1.814,1.3-5.972.445-5.8,3.85a2.394,2.394,0,0,0,3.319,2.225,12.889,12.889,0,0,1,2.636-1.13,6.484,6.484,0,0,1,3.08.326,4.261,4.261,0,0,0,3.114-.154c1.249-.565,2.019-1.746,3.2-2.379,1.574-.838,3.3,0,5.013-.393a6.349,6.349,0,0,0,3.251-2c.89-1.01,1.078-1.866,2.687-2.02a16.377,16.377,0,0,0,1.831.035,2.669,2.669,0,0,0,.941-.445c.085-.069.564-.6.393-.5a6.771,6.771,0,0,1,.8-.462,1.19,1.19,0,0,0,.444.479c.839.5,1.455-.394,1.609-1.13a4.487,4.487,0,0,0,.068-.53A1.051,1.051,0,0,0,65.55,212.387Z"/><path class="a" d="M112.776,285.229a.254.254,0,0,0-.393-.222.267.267,0,0,0-.377.086,3.2,3.2,0,0,1-1.266,1.317c-.017,0-.034.017-.068.017a2.207,2.207,0,0,1-.822-.017c-.735-.359-1.283-1.471-1.745-1.933a2.428,2.428,0,0,0-.667-.565,3.267,3.267,0,0,0-2.088-.257,20.765,20.765,0,0,0-6.793,2.67c-3.268,1.745-7.6,3.815-8.076,7.973-.018.154.136.257.273.274,7.238.257,14.459.633,21.7.291a.282.282,0,0,0,.274-.274C112.605,291.441,112.622,288.344,112.776,285.229Z"/><path class="e" d="M168.422,285.281a.255.255,0,0,0-.394-.223.266.266,0,0,0-.376.086,3.72,3.72,0,0,1-1.164,1.3.4.4,0,0,1-.137.035,2.19,2.19,0,0,1-.941-.052,7.769,7.769,0,0,1-1.4-1.677,2.628,2.628,0,0,0-.855-.77,3.514,3.514,0,0,0-2.054-.273,19.559,19.559,0,0,0-6.5,2.5c-3.319,1.745-7.837,3.85-8.316,8.076-.017.154.137.257.274.274,7.187.257,14.356.633,21.543.291a.282.282,0,0,0,.274-.274C168.251,291.475,168.285,288.378,168.422,285.281Z"/><path d="M127.954,213.192a3.431,3.431,0,0,0-.753.188c.24-.308.5-.6.736-.907a.136.136,0,0,0-.137-.223,6.586,6.586,0,0,0-.992.274,9.509,9.509,0,0,0,.735-.907.141.141,0,0,0-.154-.2c-1.4.445-2.994,1.027-3.576,2.532-.428,1.113-.171,2.926,1.249,3.063.017,0,.034.017.069,0,.034,0,.051,0,.068-.017a1.679,1.679,0,0,0,1.215-1.009,5.322,5.322,0,0,0,.308-1.01c.24-.77.856-1.027,1.335-1.574C128.176,213.311,128.091,213.174,127.954,213.192Z"/><path class="a" d="M220.662,277.8c-.034-.154-.256-.1-.256.034h-2.43c0-.136-.223-.188-.257-.034-.513,1.677-.616,3.457-.975,5.168a10.476,10.476,0,0,1-.993,2.857,5.731,5.731,0,0,1-3.148,2.43c-2.122.941-4.209,1.968-6.28,3.029-.513.256-3.576,1.215-3.3,2.1.308.942,2.412.5,3.1.514,2.5.051,4.979.068,7.477.051.633,0,1.951.257,2.516-.12.445-.29.65-1.317.8-1.728.239-.633.53-1.249.736-1.882.119-.376.154-1.01.137-.257-.018,1.489-.172,3.012-.206,4.5a.147.147,0,0,0,.137.136c1.42-.034,2.841-.068,4.278-.085a.148.148,0,0,0,.137-.137C221.638,288.874,221.809,283.227,220.662,277.8Z"/><path class="a" d="M265.134,291.817c-2.156-1.1-4.312-2.173-6.536-3.148a5.589,5.589,0,0,1-3.149-2.43,10.485,10.485,0,0,1-.992-2.857c-.36-1.712-.479-3.491-.976-5.168-.051-.154-.273-.1-.256.034H250.8c0-.137-.222-.188-.257-.034-1.146,5.424-.992,11.071-1.471,16.564a.146.146,0,0,0,.137.136c1.42.035,2.84.069,4.277.086a.147.147,0,0,0,.137-.137c-.034-1.386-.051-2.789-.188-4.158-.068-.753-.205-1.095.12-.085.2.633.5,1.266.736,1.882.154.393.376,1.454.8,1.728.582.376,1.934.1,2.515.12,2.4.017,4.774,0,7.17-.034.684-.018,3.114.444,3.422-.514C268.454,292.93,265.613,292.057,265.134,291.817Z"/><path class="d" d="M171.006,179.568a.267.267,0,0,0-.36.086c-.445-.839-1.026-1.694-1.625-1.352a.655.655,0,0,0-.342.565,2.345,2.345,0,0,0-1.335-.993.3.3,0,0,0-.308.12,1.555,1.555,0,0,0-.034,1.3c-.12-.085-.24-.188-.36-.273a.276.276,0,0,0-.393.154c-.394,1.043.256,2.464,1.044,3.678a.55.55,0,0,0-.719.189c-.719,1.095,2,3.781,2.618,4.5a.237.237,0,0,0,.154.085,7.629,7.629,0,0,0,.958,1.181.258.258,0,0,0,.325.034,8.572,8.572,0,0,1,2.379-1.009.3.3,0,0,0,.2-.257C173.025,185.54,173.179,180.715,171.006,179.568Z"/><path class="d" d="M205.536,183.966c0-.7.222-4.774-.992-5.082a.55.55,0,0,0-.668.308c-.222-1.489-.667-3.063-1.745-3.457a.26.26,0,0,0-.325.188,3.815,3.815,0,0,0-.086.428,1.551,1.551,0,0,0-.89-.958.238.238,0,0,0-.256.068,2.561,2.561,0,0,0-.377,1.66.6.6,0,0,0-.616-.188c-.667.188-.564,1.2-.342,2.105a.281.281,0,0,0-.325.188c-.856,2.276,2.464,5.835,3.61,7.409a.293.293,0,0,0,.377.1,8.871,8.871,0,0,1,2.464-.822c.12-.017.188-.154.2-.256a8.773,8.773,0,0,0-.068-1.506A.531.531,0,0,0,205.536,183.966Z"/><path class="d" d="M239.433,203.335a.264.264,0,0,0-.342-.034c-.171-.872-.479-1.8-1.112-1.642a.669.669,0,0,0-.462.393,2.278,2.278,0,0,0-.907-1.232.282.282,0,0,0-.325.034,1.536,1.536,0,0,0-.377,1.13c-.068-.1-.154-.206-.239-.325a.269.269,0,0,0-.377,0c-.718.7-.5,2.241-.119,3.576a.5.5,0,0,0-.685.017c-.941.8.787,3.953,1.147,4.757a.205.205,0,0,0,.119.12,7.655,7.655,0,0,0,.531,1.3.267.267,0,0,0,.308.12,8.732,8.732,0,0,1,2.4-.257.272.272,0,0,0,.257-.205C239.639,209.273,241.076,204.961,239.433,203.335Z"/><path class="d" d="M157.556,181.348a.536.536,0,0,0-.7.239c-.137-1.506-.5-3.1-1.472-3.525a.277.277,0,0,0-.393.154c-.035.137-.086.274-.12.394a1.641,1.641,0,0,0-.856-1.01.237.237,0,0,0-.256.069,2.458,2.458,0,0,0-.445,1.642.715.715,0,0,0-.616-.239c-.65.1-.6,1.146-.445,2.07a.269.269,0,0,0-.325.12c-1.01,2.276,2.07,5.972,3.165,7.666a.293.293,0,0,0,.377.1,8.525,8.525,0,0,1,2.43-.668.28.28,0,0,0,.273-.274,8.715,8.715,0,0,0,.017-1.5.26.26,0,0,0,.069-.171C158.275,185.66,158.754,181.758,157.556,181.348Z"/><path class="c" d="M185.293,205.372c-2.652-7.255-5.612-14.049-11.686-19.062a.259.259,0,0,0-.326-.034,19.092,19.092,0,0,0-3.73,2.019.26.26,0,0,0-.034.325q3.825,8.418,6.844,17.18a32.768,32.768,0,0,1,2.174,9c.1,2.019-.274,4.517-2.841,4.62-1.711.068-3.183-1.112-4.295-2.293-3.816-4.038-5.27-10.249-7.152-15.349-1.061-2.857-2.122-5.7-3.183-8.555-.53-1.42-1.061-2.858-1.591-4.278-.171-.462-.325-1.591-.753-1.951a.288.288,0,0,0-.257-.068c-1.317.547-2.892.667-4.278,1.095a.282.282,0,0,0-.188.325c.975,3.285,1.574,6.708,2.4,10.027q1.437,5.853,2.943,11.653c2.019,7.717,4.175,15.4,6.417,23.049a.18.18,0,0,0,.1.137.21.21,0,0,0,.154.051,164.915,164.915,0,0,0,25.325-1.318.28.28,0,0,0,.273-.273C191.608,222.705,188.322,213.705,185.293,205.372Z"/><path d="M176.567,213.808a1.519,1.519,0,0,0-1.746-1.044,3.2,3.2,0,0,1-1.317.171,1.894,1.894,0,0,0-.531-.069.75.75,0,0,0-.513.257c-.462.5-.085,1.078.325,1.455.428.41.8.53,1.027,1.146.085.257.137.53.222.787a2.1,2.1,0,0,0,.565.958,1.235,1.235,0,0,0,1.54-.034,1.692,1.692,0,0,0,.6-1.643A6.754,6.754,0,0,0,176.567,213.808Z"/><path d="M103.793,286.752c-.222-1.454-.77-3.165-2.43-3.439-.513-.086-.735.7-.222.787,1.386.223,1.694,1.694,1.865,2.875C103.092,287.471,103.879,287.249,103.793,286.752Z"/><path d="M99.378,284.733c-.462-.222-.872.479-.41.7a2.806,2.806,0,0,1,1.608,2.857c-.051.514.753.514.8,0A3.588,3.588,0,0,0,99.378,284.733Z"/><path d="M97.12,285.691c-.462-.239-.873.462-.411.7a2.822,2.822,0,0,1,1.523,2.84c-.051.514.753.514.8,0A3.65,3.65,0,0,0,97.12,285.691Z"/><path class="a" d="M147.991,286.307a20.559,20.559,0,0,0-6.793-2.669,3.452,3.452,0,0,0-2.07.257,3.367,3.367,0,0,0-.514.359,3.658,3.658,0,0,0-.41.5c-.668,1.489-1.883,1.592-3.645.343a.264.264,0,0,0-.377-.086c-.171-.086-.41-.017-.393.222.154,3.115.171,6.229.068,9.343a.282.282,0,0,0,.274.274c7.238.342,14.459-.034,21.7-.291a.271.271,0,0,0,.274-.274C155.589,290.123,151.242,288.053,147.991,286.307Z"/><path d="M144.569,283.484a3.608,3.608,0,0,0-2.584,3.354c-.017.513.787.513.8,0a2.786,2.786,0,0,1,1.985-2.584A.4.4,0,1,0,144.569,283.484Z"/><path d="M146.725,284.8a3.3,3.3,0,0,0-2.584,3.1c-.017.513.787.513.8,0a2.478,2.478,0,0,1,2-2.31C147.444,285.486,147.238,284.7,146.725,284.8Z"/><path d="M148.949,285.982a4.21,4.21,0,0,0-2.891,3.4c-.069.514.7.736.787.223a3.478,3.478,0,0,1,2.327-2.841C149.651,286.6,149.446,285.828,148.949,285.982Z"/><path d="M152.064,286.8c-.514.017-.514.821,0,.8a2.911,2.911,0,0,1,2.772,1.711c.222.479.924.068.7-.411A3.68,3.68,0,0,0,152.064,286.8Z"/><path d="M153.792,285.726a.4.4,0,0,0,0,.8,2.388,2.388,0,0,1,2.361,2c.086.513.873.291.787-.223A3.24,3.24,0,0,0,153.792,285.726Z"/><path d="M159.49,287.8a4.488,4.488,0,0,0-3.576-3.422c-.514-.086-.719.684-.223.787a3.731,3.731,0,0,1,3.012,2.858C158.823,288.515,159.61,288.292,159.49,287.8Z"/><path class="f" d="M256.613,281.841a239.172,239.172,0,0,0-20.859-52.548.274.274,0,0,0-.427-.051c-.223.188-1.694-.188-2.02-.223-.787-.1-1.574-.188-2.361-.291-1.591-.188-3.183-.393-4.774-.564a38.854,38.854,0,0,0-4.877-.24c-.462.017-1.4-.154-1.813.257-.582.6-.839,2.413-1.061,3.183-.428,1.437-.822,2.891-1.181,4.346-.736,3.046-1.3,6.126-1.728,9.223-1.694,12.251-1.335,24.657-.8,36.977a.27.27,0,0,0,.273.274h6.862a.274.274,0,0,0,.257-.206q4.7-15.194,8.555-30.646a157.194,157.194,0,0,0,19.13,30.578.229.229,0,0,0,.24.085c2.1.069,4.192.12,6.3.189A.272.272,0,0,0,256.613,281.841Z"/><path class="e" d="M210.6,286.205a19.754,19.754,0,0,0-6.468-2.5,3.515,3.515,0,0,0-2.053.239,2.533,2.533,0,0,0-.7.565c-.462.462-1.01,1.574-1.745,1.933a2.11,2.11,0,0,1-.805.018c-.017,0-.034-.018-.051-.018a3.31,3.31,0,0,1-1.266-1.317.264.264,0,0,0-.377-.086.256.256,0,0,0-.393.223c.154,3.1.171,6.177.068,9.274a.282.282,0,0,0,.274.274c7.187.342,14.356-.034,21.543-.291a.271.271,0,0,0,.274-.274C218.438,290.072,213.92,287.95,210.6,286.205Z"/><path d="M206.306,283.45a3.318,3.318,0,0,0-2.378,2.857c-.052.514.752.514.8,0a2.481,2.481,0,0,1,1.779-2.07A.407.407,0,0,0,206.306,283.45Z"/><path d="M208.565,284.391a3.666,3.666,0,0,0-2.653,3.508.4.4,0,0,0,.805,0,2.859,2.859,0,0,1,2.053-2.738A.4.4,0,0,0,208.565,284.391Z"/><path d="M210.7,285.76a3.592,3.592,0,0,0-2.79,3.337c-.034.513.788.513.805,0a2.765,2.765,0,0,1,2.207-2.55C211.422,286.427,211.2,285.64,210.7,285.76Z"/><path class="c" d="M259.539,194.369a3.172,3.172,0,0,0-2.618.394,4,4,0,0,1-2.1.633,9.557,9.557,0,0,1-1.848-.377,4.463,4.463,0,0,0-1.9-.068c-1.78.376-2.943,1.9-4.637,2.43-1.883.6-3.731-.7-5.647-.274-1.677.376-2.875,1.8-4.483,2.293-1.694.513-3.457-.513-5.1.325a10.6,10.6,0,0,0-1.746,1.318c-1.215.958-2.327.855-3.764.958a3.5,3.5,0,0,0-3.08,2.139.229.229,0,0,0,.017.256c-.479,1.352-.24,3.149,1.591,2.328.5-.223.907-.77,1.506-.856a8.7,8.7,0,0,1,1.609.205,5.258,5.258,0,0,0,1.711-.119c.7-.172,1.369-.531,2.07-.685,1.438-.325,2.327.6,3.611.787a5.365,5.365,0,0,0,2.926-.736,4.859,4.859,0,0,1,3.422-.41,16.657,16.657,0,0,0,2.549.735,5.685,5.685,0,0,0,3.217-.889A8.15,8.15,0,0,1,250.3,203.7a19.638,19.638,0,0,0,2.258-.137,4.4,4.4,0,0,0,2.721-1.78,7.918,7.918,0,0,1,2.361-2.156,14.156,14.156,0,0,0,2.5-1.112A2.421,2.421,0,0,0,259.539,194.369Z"/><path d="M230.861,250.579a16.406,16.406,0,0,1-1.849-4.106.409.409,0,0,0-.787.222,17.063,17.063,0,0,0,1.934,4.3C230.433,251.435,231.134,251.024,230.861,250.579Z"/><path class="d" d="M242.342,217.247a58.28,58.28,0,0,0-2.772-8.521l-.308.017c-1.369.239-2.738.462-4.107.7a23.3,23.3,0,0,0-.308,4.62l-.085-.154c-1.763-2.532-2.5-4.055-4.62-4.671a25.587,25.587,0,0,0-5.288-.445c.018-.308.018-.616.035-.89.017-.154-.137-.257-.274-.274-.445-.017-.873-.051-1.318-.1a4.163,4.163,0,0,0-1.215-.171c-.308.085-.393.462-.41.821a9.347,9.347,0,0,1-3.32-1.985,19.153,19.153,0,0,1-3.405-3.713c-2.156-3.114-7.5-15.6-9.154-18.822l-4.723,1.728c2.567,12.166,12.388,29.79,15.349,46.765.051.325,14.51.445,20.858.291-.411-1.489-.547-3.132-.872-4.518l.273.291c.924.873,2,1.8,3.183,1.609,1.4-.24,2.259-1.951,2.635-3.56A20.565,20.565,0,0,0,242.342,217.247Z"/><path d="M205.142,183.641a21.83,21.83,0,0,1-3.524,1.163.266.266,0,0,0,.136.513,21.3,21.3,0,0,0,3.662-1.214C205.724,183.966,205.45,183.5,205.142,183.641Z"/><path d="M239.467,209.119a15.036,15.036,0,0,1-3.918-.171c-.342-.068-.479.445-.137.513a15.487,15.487,0,0,0,4.073.189C239.81,209.632,239.81,209.085,239.467,209.119Z"/></svg>