<svg xmlns="http://www.w3.org/2000/svg" xmlns:xlink="http://www.w3.org/1999/xlink" viewBox="0 0 300 300"><defs><style>.a,.g,.h,.m,.p,.q{fill:none;}.b{fill:#f9c126;}.c,.j{fill:#da7656;}.c,.j,.p,.q{stroke:#ae504a;}.c,.g,.h,.j,.m,.p,.q{stroke-linecap:round;stroke-linejoin:round;}.c,.g,.h,.m{stroke-width:1.546px;}.d{fill:#621cd1;}.e{fill:#fff;}.f{fill:#ffeb7d;}.g,.h{stroke:#f9c126;}.g{stroke-dasharray:6.958;}.i{fill:#a4d2fc;}.j,.q{stroke-width:1.933px;}.k{fill:#3e9ff8;}.l{clip-path:url(#a);}.m{stroke:#465cff;}.n{fill:#ff5c76;}.o{fill:#ae504a;}.p{stroke-width:2.706px;}</style><clipPath id="a"><path class="a" d="M41.131,274.772a40.673,40.673,0,0,0-14.3-2.049,2.932,2.932,0,0,1-2.976-2.513c-2.165-14.42-11.714-83.618.386-100.55C37.768,150.717,51.3,154.2,62.9,166.954c11.365,12.525,23.5,39.16,56.789,22.3a2.9,2.9,0,0,1,3.4.619,38.367,38.367,0,0,0,10.089,7.345,2.377,2.377,0,0,1,1.2,3.054c-3.982,9.935-14.265,19.213-14.265,19.213s-30.386,32.821-32.4,53.658a3.093,3.093,0,0,1-3.75,2.706C65.834,271.756,43.18,242.3,43.18,242.3s3.4,18.014,1.894,30.076A2.919,2.919,0,0,1,41.131,274.772Z"/></clipPath></defs><title>Downloading_2</title><path class="b" d="M284.176,43.788H199.707a10.806,10.806,0,0,1-10.824-10.824h0A10.806,10.806,0,0,1,199.707,22.14h84.469A10.806,10.806,0,0,1,295,32.964h0A10.856,10.856,0,0,1,284.176,43.788Z"/><path class="c" d="M252.746,269.707c6.108-.58,23.427-1.43,23.427-1.43l-.541-11.327-21.88-2.126Z"/><path class="d" d="M276.715,270.674c3.17.541,6.842,1.044,9.51,1.43,2.01.271,3.788-.812,3.981-2.474l2.049-17.242,2.088-17.512a3.006,3.006,0,0,0-1.856-2.976h0c-1.855-.928-4.214-.426-5.1,1.121-3.092,5.528-9.935,17.4-14.381,21.455a2.481,2.481,0,0,0-.579,2.977c1.314,2.783,2.358,5.412,1.237,9.394C273.2,268.548,274.588,270.326,276.715,270.674Z"/><rect class="e" x="206.859" y="26.779" width="8.891" height="12.371"/><path class="e" d="M214.2,28.325V37.6h-5.8V28.325h5.8m3.054-3.093H205.313V40.657h11.945V25.232Z"/><path class="e" d="M199.9,39.149a6.334,6.334,0,0,1-6.379-5.953,6.208,6.208,0,0,1,6.185-6.417h2.126v12.37Z"/><path class="e" d="M200.287,28.325V37.6H199.9a4.772,4.772,0,0,1-4.833-4.484,4.663,4.663,0,0,1,1.315-3.4,4.6,4.6,0,0,1,3.324-1.431h.58m3.054-3.054h-3.672a7.742,7.742,0,0,0-7.732,8,7.9,7.9,0,0,0,7.925,7.461h3.44l.039-15.464Z"/><rect class="e" x="220.776" y="26.779" width="8.891" height="12.371"/><path class="e" d="M228.121,28.325V37.6h-5.8V28.325h5.8m3.054-3.093H219.23V40.657h11.945V25.232Z"/><rect class="e" x="234.693" y="26.779" width="8.891" height="12.371"/><path class="e" d="M242.038,28.325V37.6h-5.8V28.325h5.8m3.054-3.093H233.147V40.657h11.945V25.232Z"/><rect class="e" x="248.61" y="26.779" width="8.891" height="12.371"/><path class="e" d="M255.955,28.325V37.6h-5.8V28.325h5.8m3.054-3.093H247.064V40.657h11.945V25.232Z"/><path class="b" d="M284.176,82.06H199.707a10.806,10.806,0,0,1-10.824-10.824h0a10.807,10.807,0,0,1,10.824-10.825h84.469A10.807,10.807,0,0,1,295,71.236h0A10.856,10.856,0,0,1,284.176,82.06Z"/><rect class="e" x="206.859" y="65.05" width="8.891" height="12.371"/><path class="e" d="M214.2,66.6v9.278h-5.8V66.6h5.8m3.054-3.093H205.313V78.929h11.945V63.5Z"/><path class="e" d="M199.9,77.421a6.334,6.334,0,0,1-6.379-5.953,6.209,6.209,0,0,1,6.185-6.418h2.126V77.421Z"/><path class="e" d="M200.287,66.6v9.278H199.9a4.773,4.773,0,0,1-4.833-4.485,4.666,4.666,0,0,1,1.315-3.4,4.6,4.6,0,0,1,3.324-1.43h.58m3.054-3.054h-3.672a7.742,7.742,0,0,0-7.732,8,7.9,7.9,0,0,0,7.925,7.461h3.44l.039-15.463Z"/><rect class="e" x="220.776" y="65.05" width="8.891" height="12.371"/><path class="e" d="M228.121,66.6v9.278h-5.8V66.6h5.8m3.054-3.093H219.23V78.929h11.945V63.5Z"/><rect class="e" x="234.693" y="65.05" width="8.891" height="12.371"/><path class="e" d="M242.038,66.6v9.278h-5.8V66.6h5.8m3.054-3.093H233.147V78.929h11.945V63.5Z"/><rect class="e" x="248.61" y="65.05" width="8.891" height="12.371"/><path class="e" d="M255.955,66.6v9.278h-5.8V66.6h5.8m3.054-3.093H247.064V78.929h11.945V63.5Z"/><rect class="e" x="262.527" y="65.05" width="8.891" height="12.371"/><path class="e" d="M269.872,66.6v9.278h-5.8V66.6h5.8m3.054-3.093H260.981V78.929h11.945V63.5Z"/><path class="f" d="M140.637,234.876c19.6,4.755,99.12,12.8,114.738,13.569a2.13,2.13,0,0,1,2.01,2.358c-.618,6.572,1.2,14.768,2.281,18.943a2.116,2.116,0,0,1-2.087,2.667c-12.062-.154-58.684-.618-66.724.039-7.848.657-68.116,3.557-86.518,4.446a2.135,2.135,0,0,1-1.662-3.6L138.55,235.5A2.109,2.109,0,0,1,140.637,234.876Z"/><path class="g" d="M138.936,261.628c11.018,1.739,119.029,0,119.029,0"/><path class="c" d="M195.571,250.378c3.093,5.3,11.211,20.605,11.211,20.605l10.051-5.3-7.345-20.721Z"/><path class="d" d="M202.877,270.481c-.038,3.208,0,6.919.039,9.625.039,2.011,1.392,3.634,3.054,3.557l17.357-.619,17.629-.618a3.009,3.009,0,0,0,2.667-2.281h0c.657-1.971-.232-4.252-1.894-4.832-5.954-2.2-18.749-7.152-23.427-10.9a2.5,2.5,0,0,0-3.054-.116c-2.513,1.74-4.987,3.17-9.123,2.668C204.424,266.692,202.916,268.316,202.877,270.481Z"/><path class="f" d="M71.014,263.947c6.958,7.345,24.355,21.649,54.121,6.572,21.649-8.891,49.87-64.173,49.87-64.173s3.479,32.473,22.035,51.029c8.118-.966,16.275-9.9,22.538-12.912a4.292,4.292,0,0,0,2.242-5.064c-4.717-15.54-19.329-52.846-22.847-60.887-3.866-8.891-13.144-28.22-33.246-10.051s-52.189,53.735-55.668,61.467S71.014,265.88,71.014,265.88"/><path class="h" d="M121.386,274.578s15.115-4.445,34.444-35.913"/><path class="h" d="M185.752,241.564c4.136,6.34,9.162,15.618,11.481,16.391s21.069-12.8,21.069-12.8"/><path class="h" d="M179.257,189.723a38.545,38.545,0,0,0-4.059,16.43"/><path class="g" d="M88.835,251.151c12.139,9.9,35.141,4.291,86.556-75.345,3.866-6.185,13.531,3.48,15.657,19.909,3.247,25.09,17.2,56.248,17.2,56.248"/><path class="i" d="M182.156,112.368a2.321,2.321,0,0,0-2.822,1.662l-12.409,47.241-33.71,30.888a2.359,2.359,0,0,0-.155,3.286,2.289,2.289,0,0,0,1.7.734,2.35,2.35,0,0,0,1.585-.618l34.213-31.352a2.3,2.3,0,0,0,.7-1.121l12.564-47.9A2.322,2.322,0,0,0,182.156,112.368Z"/><path class="j" d="M43.18,268.354c.116,2.861-2.32,9.24-3.557,11.211-1.894,3.054-8.93,3.866-20.489,3.789-8.273.5-14.574.5-14.11-.735s20.1-6.881,21.881-7.461.038-9.007.038-9.007S39.623,263.561,43.18,268.354Z"/><path class="c" d="M129.774,186.128c0-.155,3.209-9.394,2.706-15.734-.115-1.314,1.044-1.353,2.049.387,1.16,1.971,2.2,5.992,1.2,8.621"/><path class="c" d="M122.7,193.589c2.049-7.229,13.376-20.875,23.813-20.875s7.191.7,3.905,3.711-13.84,12.061-15.85,14.845a40.7,40.7,0,0,1-6.185,6.108Z"/><path class="k" d="M41.131,274.772a40.673,40.673,0,0,0-14.3-2.049,2.932,2.932,0,0,1-2.976-2.513c-2.165-14.42-11.714-83.618.386-100.55C37.768,150.717,51.3,154.2,62.9,166.954c11.365,12.525,23.5,39.16,56.789,22.3a2.9,2.9,0,0,1,3.4.619,38.367,38.367,0,0,0,10.089,7.345,2.377,2.377,0,0,1,1.2,3.054c-3.982,9.935-14.265,19.213-14.265,19.213s-30.386,32.821-32.4,53.658a3.093,3.093,0,0,1-3.75,2.706C65.834,271.756,43.18,242.3,43.18,242.3s3.4,18.014,1.894,30.076A2.919,2.919,0,0,1,41.131,274.772Z"/><g class="l"><path class="i" d="M63.9,223.279a2.093,2.093,0,0,1-2.513.966A5.543,5.543,0,0,0,54,226.681c-1.2,2.358-.773,5.257,2.668,6.726a1.782,1.782,0,0,1,.889,2.358,2.094,2.094,0,0,1-2.513.967c-5.49-2.4-6.34-7.655-4.33-11.6a9.483,9.483,0,0,1,12.448-4.329A1.821,1.821,0,0,1,63.9,223.279Z"/><line class="a" x1="46.543" y1="197.996" x2="56.942" y2="205.728"/><path class="i" d="M54.313,211.759a1.976,1.976,0,0,1-2.048-.194l-10.4-7.731a1.937,1.937,0,0,1,2.281-3.132l10.4,7.732a1.966,1.966,0,0,1,.426,2.706A2.007,2.007,0,0,1,54.313,211.759Z"/><line class="a" x1="86.902" y1="190.767" x2="77.392" y2="199.543"/><path class="i" d="M75.537,200.084a2,2,0,0,1,.541-1.972l9.549-8.814a1.941,1.941,0,0,1,2.667,2.822l-9.549,8.814A1.985,1.985,0,0,1,76,200.857,1.093,1.093,0,0,1,75.537,200.084Z"/><path class="i" d="M66.027,187.172a1.987,1.987,0,0,1,1.044-2.513,5.444,5.444,0,0,0,3.17-7.074c-.89-2.436-3.286-4.137-6.727-2.629a1.734,1.734,0,0,1-2.319-.967,1.986,1.986,0,0,1,1.043-2.512c5.49-2.436,9.936.541,11.443,4.639a9.457,9.457,0,0,1-5.219,12.1A1.856,1.856,0,0,1,66.027,187.172Z"/><line class="a" x1="79.016" y1="240.598" x2="69.506" y2="249.373"/><path class="i" d="M67.651,249.914a2,2,0,0,1,.541-1.971l9.548-8.814a1.942,1.942,0,0,1,2.668,2.822L70.82,250.8a1.984,1.984,0,0,1-2.744-.077A1.646,1.646,0,0,1,67.651,249.914Z"/><line class="a" x1="28.335" y1="249.141" x2="16.428" y2="244.077"/><path class="i" d="M15.191,242.569a1.885,1.885,0,0,1,2.01-.309l11.946,5.1a1.914,1.914,0,0,1-1.508,3.518l-11.945-5.1a1.9,1.9,0,0,1-1.005-2.513A1.676,1.676,0,0,1,15.191,242.569Z"/><line class="a" x1="33.129" y1="263.599" x2="42.871" y2="272.181"/><path class="i" d="M43.605,273.96a1.939,1.939,0,0,1-1.972-.348l-9.7-8.582a1.944,1.944,0,0,1,2.59-2.9l9.7,8.582a1.918,1.918,0,0,1,.154,2.745A3.7,3.7,0,0,1,43.605,273.96Z"/><path class="i" d="M59.3,262.594a2.051,2.051,0,0,1,2.049,1.778,5.486,5.486,0,0,0,5.644,5.335c2.629-.077,4.987-1.778,4.678-5.528a1.72,1.72,0,0,1,1.662-1.855,2.05,2.05,0,0,1,2.049,1.778c.5,5.992-3.75,9.2-8.118,9.317a9.418,9.418,0,0,1-9.7-8.853A1.8,1.8,0,0,1,59.3,262.594Z"/><path class="i" d="M24.624,199.89a2.03,2.03,0,0,1,1.314-2.358,5.568,5.568,0,0,0,4.1-6.572c-.58-2.512-2.783-4.523-6.34-3.479a1.711,1.711,0,0,1-2.165-1.237,2.029,2.029,0,0,1,1.315-2.358c5.76-1.7,9.78,1.817,10.747,6.069a9.434,9.434,0,0,1-6.766,11.289A1.8,1.8,0,0,1,24.624,199.89Z"/><line class="a" x1="27.639" y1="218.06" x2="20.719" y2="229.039"/><path class="i" d="M19.018,230.005a2.044,2.044,0,0,1,0-2.049l6.959-10.94a1.936,1.936,0,0,1,3.286,2.049L22.3,230.005a1.974,1.974,0,0,1-2.667.619A2.361,2.361,0,0,1,19.018,230.005Z"/><path class="i" d="M104.724,234.876a2.093,2.093,0,0,1-1.431,2.281,5.573,5.573,0,0,0-4.445,6.379c.425,2.59,2.513,4.677,6.146,3.788a1.753,1.753,0,0,1,2.127,1.353,2.093,2.093,0,0,1-1.431,2.281c-5.837,1.392-9.664-2.319-10.437-6.649a9.446,9.446,0,0,1,7.345-10.94A1.852,1.852,0,0,1,104.724,234.876Z"/><line class="a" x1="85.704" y1="214.271" x2="96.412" y2="221.616"/><path class="i" d="M97.379,223.279a2.048,2.048,0,0,1-2.049-.078L84.622,215.9a1.946,1.946,0,1,1,2.2-3.209l10.708,7.307a2.007,2.007,0,0,1,.5,2.706A1.832,1.832,0,0,1,97.379,223.279Z"/><line class="a" x1="128.228" y1="199.117" x2="129.813" y2="211.99"/><path class="i" d="M129.542,213.962a1.891,1.891,0,0,1-1.275-1.585L126.643,199.5a1.947,1.947,0,0,1,3.866-.464l1.624,12.873a1.925,1.925,0,0,1-1.7,2.165A3.531,3.531,0,0,1,129.542,213.962Z"/><path class="i" d="M110.329,193.821a2.05,2.05,0,0,1-1.314,2.358,5.547,5.547,0,0,0-4.059,6.611c.618,2.551,2.783,4.523,6.378,3.4a1.694,1.694,0,0,1,2.165,1.237,2.05,2.05,0,0,1-1.314,2.358c-5.76,1.74-9.781-1.778-10.786-6.031a9.46,9.46,0,0,1,6.688-11.365A1.987,1.987,0,0,1,110.329,193.821Z"/><line class="a" x1="42.755" y1="168.307" x2="33.245" y2="177.121"/><path class="i" d="M31.389,177.662a2,2,0,0,1,.541-1.972l9.549-8.814a1.941,1.941,0,1,1,2.667,2.822l-9.587,8.814a1.985,1.985,0,0,1-2.745-.077A1.7,1.7,0,0,1,31.389,177.662Z"/></g><path class="m" d="M121.386,216.359c-24.394,15.927-58.993,5.915-74.727-25.089"/><path class="m" d="M28.528,202.365c1.779,11.481,6.92,23.311,14.652,39.934"/><path class="c" d="M62.625,144.493c-.309.155-5.644,14.536-6.765,17.9A5.151,5.151,0,0,1,53,165.485a5.4,5.4,0,0,1-5.683-.735,4.31,4.31,0,0,1-1.2-4.871L53,141.826"/><path class="c" d="M49.829,115.577c-1.894,5.8-5.1,22.808,10.476,29.96,17.087,7.809,22.229-30.733,21.456-34.019S69.39,98.954,61.272,102.433,49.829,115.577,49.829,115.577Z"/><path class="n" d="M75.537,107.033C68.269,86,38.27,96.6,45.151,115.809c-7.422,5.605-16.275,9.548-18.788,11.558s1.895,3.209,3.634,2.243c1.663-.928,15.348-7.693,16.546-8.2.039-.039.116-.039.155-.077,1.2-.657,17.628-9.665,27.679-12.178A1.645,1.645,0,0,0,75.537,107.033Z"/><path class="o" d="M94.789,88.632a28.815,28.815,0,0,0-13.8,10.322s-5.876-3.866-8.814,2.435c-1.16,2.474-2.591,6.3-2.243,7.654-5.45,1.315-15.54,7.848-15.54,7.848,3.479,8.273,11.984,8.466,17.976-3.518,5.992,5.8,25.9,4.639,32.473-4.832S107.469,84.5,94.789,88.632Z"/><path class="c" d="M57.329,129.687c-.889,0-9.008-6.688-6.34-10.554,2.59-3.9,7.152,2.2,7.345,3.209"/><ellipse class="d" cx="73.224" cy="128.44" rx="1.662" ry="1.314" transform="translate(-73.681 145.102) rotate(-66.783)"/><path class="j" d="M78.359,128.45s.232,5.837.425,9.7c.077,1.778-4.214-.928-4.214-.928"/><path class="p" d="M71.942,121.337a18.668,18.668,0,0,1,4.136-.387"/><path class="q" d="M65.37,137.187s.5,2.474,2.319,2.474"/><path class="f" d="M163.252,24.884a2.636,2.636,0,0,1,1.547,3.132c-.657,3.865-1.315,7.731-2.088,11.558-.309,1.663-1.585,2.513-3.479,2.513H141.217c-2.4,0-4.793-.038-7.152-.038.851-4.717,1.74-9.394,2.552-14.111.5-2.783,1.392-3.595,4.252-3.595h18.324A9.468,9.468,0,0,1,163.252,24.884Z"/><path class="b" d="M161.436,22.333c0,.58.038,1.817,0,2.126-.232,0-.619-.077-2.2-.077H140.908c-2.861,0-3.789.812-4.252,3.595-.851,4.716-1.7,9.394-2.552,14.11a3.135,3.135,0,0,1-3.209-3.324q-.057-9.568,0-19.136a3.126,3.126,0,0,1,3.364-3.286c2.358,0,4.716-.039,7.074.038a2.105,2.105,0,0,1,1.469.58c1.624,2.243,3.789,2.822,6.5,2.629,2.938-.232,5.915-.077,8.853-.039A3.085,3.085,0,0,1,161.436,22.333Z"/><path class="b" d="M138.4,59.29a.855.855,0,0,1,.039-.348,1.859,1.859,0,0,1,1.933-1.894h15.54a.785.785,0,0,1,.58.232c2.242,2.242,4.485,4.484,6.765,6.727a.844.844,0,0,1,.271.657V86.776a1.871,1.871,0,0,1-2.049,2.049h-5.18c-.232,0-.309.039-.348.309a1.908,1.908,0,0,1-2.049,1.972H132.944a1.9,1.9,0,0,1-1.971-1.43,2.362,2.362,0,0,1-.039-.542V61.339a1.9,1.9,0,0,1,2.088-2.049H138.4Zm16.739-.734H140.6c-.58,0-.657.077-.657.657V86.7c0,.58.038.657.657.657h20.759c.464,0,.58-.116.58-.618V65.746c0-.348-.116-.386-.425-.386h-4.407a1.918,1.918,0,0,1-2.049-2.011V59.02A.987.987,0,0,0,155.134,58.556ZM138.4,60.837h-5.451c-.541,0-.618.077-.618.657V89.018c0,.5.116.619.58.619h20.8c.541,0,.7-.193.541-.735H140.483a1.911,1.911,0,0,1-2.088-2.087V82.021c0-.27-.077-.348-.348-.348-.5.039-1.044,0-1.546,0h-.773V80.166h2.629V78.078c0-.077-.155-.154-.232-.154h-2.359V76.416h2.32a.36.36,0,0,0,.271-.155c.038-.7,0-1.391,0-2.126h-2.668V72.9c0-.232.077-.309.309-.271h1.431c.928,0,.928,0,.928-.927V70.347h-2.668V69.109c0-.232.077-.27.309-.27h2.32C138.4,66.094,138.4,63.5,138.4,60.837Zm22.267,3.015c-1.314-1.353-2.667-2.706-4.02-4.059v3.479c0,.5.116.58.58.58h3.44Z"/><path class="b" d="M158.536,74.1v1.276c0,.232-.154.193-.309.193H143.382V74.058C148.408,74.1,153.472,74.1,158.536,74.1Z"/><path class="b" d="M143.382,79.393V77.885h14.806c.31,0,.387.077.348.386a2.906,2.906,0,0,0,0,.812c.039.271-.077.348-.348.348H143.807A1.607,1.607,0,0,0,143.382,79.393Z"/><path class="b" d="M143.382,71.815V70.308h15.154v1.353c0,.039-.193.154-.309.154H143.382Z"/><path class="b" d="M158.536,66.558v1.43H143.421v-1.43Z"/><path class="c" d="M138.163,178.242c2.822-2.59,12.023-3.325,14.033-4.33"/><path class="c" d="M139.71,181.218c1.933-1.662,10.94-5.914,10.94-5.914"/></svg>