<svg xmlns="http://www.w3.org/2000/svg" viewBox="0 0 300 300"><defs><style>.a{fill:#7fd9b2;}.b{fill:#fcafb7;}.c{fill:#fff;}.d{fill:#f36e72;}.e{fill:#fee253;}.f{fill:#fde992;}.g{fill:#ffd2d9;}</style></defs><title>Download</title><path class="a" d="M38.108,140.36c-2.86,5.855-5.8,12.168-4.82,18.6,1.168,7.688,7.625,13.476,14.231,17.682,5.3,3.372,11.072,6.279,15.706,10.41A5.808,5.808,0,0,1,64.68,193.9a179.219,179.219,0,0,0-13.87,40.938,3.518,3.518,0,0,0,3.512,4.228l22.5-.319a6.448,6.448,0,0,0,3.426-.687,6.35,6.35,0,0,0,2.173-3.453q7.6-21.423,15.2-42.845c.827-2.33,1.666-4.8,1.192-7.221-.507-2.6-2.427-4.674-4.327-6.536a121.986,121.986,0,0,0-12.1-10.4c-2.14-1.607-4.4-3.219-5.713-5.539-2.44-4.314-.941-9.674.61-14.374C68.256,139.149,50.206,137.3,38.108,140.36Z"/><path class="a" d="M140.553,182.27c-1.3-2.816-4.521-4.142-7.456-5.217-10.006-3.665-16.02-7.33-26.026-10.994-2.848-1.043-5.826-2.175-7.794-4.464s-2.459-6.121-.219-8.151l.008-.138a27.837,27.837,0,0,0-19.721-9.831,17.83,17.83,0,0,0-3.859.2,25,25,0,0,1,2.84,2.277.546.546,0,0,1,.142.539,39.99,39.99,0,0,0-1.714,6.567,12.438,12.438,0,0,0,.594,6.689,13.436,13.436,0,0,0,4.436,5.109c3.885,3.024,7.754,6.008,11.375,9.354,3.183,2.943,7.352,6.329,7.317,11.076a17.235,17.235,0,0,1-1.242,5.6c2.522.607,5.073,1.151,7.626,1.689a4.213,4.213,0,0,1,3.2,5.322c-2.927,9.761-8.409,20.482-9.1,30.408-.211,3.025-1.492,6.717,1.823,8.043a5.789,5.789,0,0,0,2.626.326l10.878.027c3.224-.272,6.695-.645,9.1-2.785,1.728-1.537,2.634-3.76,3.462-5.909,4.628-12.008,8.223-25.514,11.511-37.948C141.037,187.5,141.668,184.682,140.553,182.27Z"/><path class="b" d="M160.4,84.927c-1.926-1.779-4.708-3.1-6.933-4.487a183.971,183.971,0,0,0-25.684-13.5c-18.464-7.81-38.208-11.844-57.737-15.993C59.6,48.725,37.586,60.636,26.4,85.215S9.58,132.956,28.938,139.953c31.992,11.563,63.974,16.817,95.88,28.616,0,0,32.58-71.637,34.732-77.069C160.381,89.4,162.245,86.631,160.4,84.927Z"/><path class="b" d="M161.446,83.882c-2.1-1.905-4.654-3.135-7.05-4.606-2.623-1.611-5.249-3.209-7.927-4.725A175.743,175.743,0,0,0,130.027,66.3,215.454,215.454,0,0,0,94.691,54.888C88.685,53.43,82.644,52.116,76.6,50.827c-3.674-.783-7.364-1.926-11.154-1.514-6.842.743-13.295,4.176-18.757,8.208A68.253,68.253,0,0,0,28.252,78.377a116.536,116.536,0,0,0-6.944,14.977,112.316,112.316,0,0,0-4.838,14.557c-1.929,7.756-3.1,16.773.737,24.158a18.743,18.743,0,0,0,7.774,7.734,48.982,48.982,0,0,0,7.332,2.909q4.626,1.6,9.3,3.07c12.192,3.844,24.564,7.072,36.916,10.348,12.372,3.282,24.735,6.63,36.877,10.693q4.536,1.516,9.023,3.172a1.477,1.477,0,0,0,1.669-.68q1.791-3.936,3.58-7.875,4.251-9.361,8.5-18.726,5.1-11.256,10.19-22.52,4.365-9.668,8.7-19.348,1.376-3.081,2.733-6.171.471-1.078.929-2.163a31.414,31.414,0,0,0,1.734-4.236,4.379,4.379,0,0,0-1.009-4.394,1.479,1.479,0,0,0-2.091,2.09,1.126,1.126,0,0,1,.333,1.186,8.277,8.277,0,0,1-.63,1.832c-.35.782-.7,1.559-1.028,2.351l-.123.3c-.11.269.142-.33.071-.168-.029.067-.057.135-.086.2q-.2.466-.4.931c-.824,1.9-1.665,3.789-2.507,5.68q-4.121,9.249-8.3,18.471-5.026,11.141-10.074,22.271-4.381,9.671-8.772,19.336l-2.874,6.327c-.451.992-.986,1.982-1.366,3-.017.045-.04.088-.06.132l1.67-.679c-11.916-4.4-24.109-7.982-36.362-11.311-12.049-3.274-24.159-6.326-36.155-9.8-6.111-1.768-12.192-3.644-18.213-5.7q-2.267-.774-4.522-1.583a24.478,24.478,0,0,1-2.841-1.169,20.32,20.32,0,0,1-2.436-1.426c-.187-.127-.37-.259-.552-.393-.023-.017-.223-.167-.056-.038-.078-.06-.155-.122-.231-.184q-.537-.434-1.039-.91a13.764,13.764,0,0,1-2.946-3.871,13.168,13.168,0,0,1-.931-2.089,20.741,20.741,0,0,1-.715-2.5q-.137-.617-.239-1.241c-.1-.59-.1-.626-.158-1.191-.1-.943-.144-1.89-.152-2.838a40.915,40.915,0,0,1,.4-5.886C19.476,105.176,23.276,95.7,27.34,86.7a69.194,69.194,0,0,1,16.5-23.054,54.34,54.34,0,0,1,9.377-6.878,35.376,35.376,0,0,1,8.872-3.819c.68-.185,1.368-.346,2.06-.476.312-.059.624-.1.936-.156.271-.046-.026,0-.069.008l.268-.033c.176-.021.352-.039.528-.055a17.233,17.233,0,0,1,1.818-.07c.27.005.541.017.81.037.139.01.277.024.416.037.478.045-.2-.044.19.023,2.6.439,5.175,1.079,7.751,1.629q4.441.949,8.873,1.935a269.517,269.517,0,0,1,35.033,9.89,184.11,184.11,0,0,1,32.2,16.115c2.169,1.332,4.552,2.421,6.452,4.143C160.762,87.248,162.86,85.163,161.446,83.882Z"/><path class="c" d="M156.188,144.346c10.384-22.81,15.14-54.174,5.417-58.6s-31.216,8.248-41.6,31.058-14.281,42.083,4,51.544C133.485,173.257,145.8,167.156,156.188,144.346Z"/><path class="b" d="M167.9,95.328a18.338,18.338,0,0,0-2.422-7.759,8.418,8.418,0,0,0-5.52-3.711c-5.646-1.155-11.627,1.3-16.419,4.088a59.565,59.565,0,0,0-17.577,16.208,66.493,66.493,0,0,0-6.984,11.808,143.187,143.187,0,0,0-5.453,13.446c-2.539,7.429-4.5,15.583-3.093,23.448a21.8,21.8,0,0,0,3.927,9.212,25.946,25.946,0,0,0,8.669,7.227,15.534,15.534,0,0,0,7.462,1.929,17.329,17.329,0,0,0,7.865-2.126c6.84-3.611,11.7-10.475,15.4-17.054,1.29-2.294,2.464-4.652,3.557-7.045a129.784,129.784,0,0,0,8.7-26.391,101.465,101.465,0,0,0,1.954-12.725A50.187,50.187,0,0,0,167.9,95.328Zm-3.335,17.016a126.95,126.95,0,0,1-7.055,25.561q-1.138,2.928-2.435,5.788c-3.465,7.588-7.807,15.414-14.384,20.76a23.29,23.29,0,0,1-3.587,2.381c-.273.145-.55.285-.83.417-.146.069-.294.136-.442.2l-.064.028c-.095.04-.191.079-.287.117a16.535,16.535,0,0,1-1.8.595q-.431.114-.866.2c-.126.026-.251.05-.377.072-.055.01-.262.041-.353.056a13.187,13.187,0,0,1-3.368.01c-.068-.011-.17-.025-.214-.033-.136-.022-.272-.047-.408-.074q-.432-.087-.858-.2a15.121,15.121,0,0,1-1.633-.548.362.362,0,0,0-.057-.021c-.019-.01-.048-.024-.119-.056-.129-.059-.258-.118-.385-.179-.374-.181-.74-.376-1.1-.576a25.549,25.549,0,0,1-4.437-3.03,19.445,19.445,0,0,1-5.427-7.523c-2.547-6.57-1.543-13.933.251-20.658a102.206,102.206,0,0,1,4.324-12.484,91.307,91.307,0,0,1,6-12.381,61.111,61.111,0,0,1,15.821-17.7,43.136,43.136,0,0,1,8.54-5c.137-.059.509-.21.813-.328q.549-.212,1.106-.4.946-.324,1.917-.578c.647-.167,1.3-.308,1.959-.415.122-.02.244-.038.366-.055.035,0,.238-.029.29-.034q.432-.047.865-.071a14.062,14.062,0,0,1,1.754.007q.2.013.4.033c.043,0,.155.018.223.027.239.036.478.076.714.128a11.1,11.1,0,0,1,1.447.436c.033.012.032.01.037.01l.064.034c.1.049.2.095.3.148.211.112.41.241.609.373.031.021.062.044.092.067.071.06.143.119.213.181a6.784,6.784,0,0,1,.554.558c.08.089.155.182.232.274.019.022.017.018.022.024l.052.078c.152.222.3.444.439.675s.259.46.376.7c.053.107.1.214.153.323.029.063.057.126.085.189l.012.027.021.054a17.655,17.655,0,0,1,.582,1.749,31.079,31.079,0,0,1,.91,8.816A75.484,75.484,0,0,1,164.561,112.344Z"/><path class="b" d="M292.55,255.469c-2.143-2.169-5.142-3.4-8-4.307a78.285,78.285,0,0,0-15.414-2.871c-8.339-.9-16.743-1.178-25.125-1.278-12.342-.148-24.692.15-37.023.652-11,.449-22.014,1.087-32.969,2.254a176.31,176.31,0,0,0-21.549,3.383,47.111,47.111,0,0,0-12.382,4.353,12.045,12.045,0,0,0-5.378,5.237,10.477,10.477,0,0,0-.568,5.346,8.839,8.839,0,0,0,1.527,4.522,12.072,12.072,0,0,0,5.561,3.8,48.39,48.39,0,0,0,11.346,2.491,195.964,195.964,0,0,0,19.954,1.322c10.454.271,20.918.147,31.371-.1,12.538-.3,25.078-.745,37.594-1.562,8.75-.571,17.5-1.308,26.187-2.562a95.814,95.814,0,0,0,15.736-3.331,23.867,23.867,0,0,0,8.388-4.226,8.833,8.833,0,0,0,2.986-4.931,11.531,11.531,0,0,0,.2-2.569A8.322,8.322,0,0,0,292.55,255.469Zm-6.062-1.252ZM285.8,269.6Zm6.957-7.305c-.009.132-.062.524-.051.478-.022.142-.043.284-.073.425a9.239,9.239,0,0,1-.337,1.139c-.01.027-.008.023-.014.041s0,0,0,0c-.045.09-.084.184-.129.275q-.144.288-.312.562c-.117.191-.249.371-.376.555-.016.024-.01.018-.018.03s-.013.012-.042.046c-.077.087-.149.177-.226.264a10.543,10.543,0,0,1-1.123,1.073l-.154.124c-.109.082-.218.164-.329.243q-.38.27-.776.515a20.052,20.052,0,0,1-1.808.991c-.352.171-.71.331-1.069.489l-.075.033-.252.1c-.207.083-.414.166-.622.246-.875.336-1.763.638-2.659.916-2.247.7-4.538,1.246-6.841,1.722a189.982,189.982,0,0,1-20.478,2.858c-10.61,1.013-21.26,1.591-31.908,2.021-12.181.492-24.375.819-36.567.851-8.283.022-16.578-.079-24.846-.618a98.614,98.614,0,0,1-14.966-1.846,33.665,33.665,0,0,1-4.673-1.336c-.154-.058-.307-.119-.46-.179l-.133-.051-.092-.042c-.278-.125-.556-.25-.829-.387a12.481,12.481,0,0,1-1.381-.8c-.1-.066-.2-.135-.293-.2-.037-.026-.072-.054-.109-.081-.168-.141-.338-.279-.5-.429s-.292-.283-.428-.434c-.066-.072-.128-.147-.192-.221l-.036-.045a8.229,8.229,0,0,1-.578-.929c-.039-.078-.073-.159-.113-.236l0-.009c-.056-.164-.123-.324-.175-.49a8.178,8.178,0,0,1-.245-1c-.03-.163-.1-.743-.046-.257-.018-.175-.042-.35-.058-.526-.065-.722-.106-1.457-.1-2.182,0-.215.021-.428.034-.643v-.044l0-.021c.023-.112.039-.226.063-.338a6.129,6.129,0,0,1,.175-.651c.034-.106.075-.209.111-.314.009-.025.012-.036.017-.052l.018-.034a11.225,11.225,0,0,1,.746-1.27c.029-.041.03-.045.042-.063a.217.217,0,0,0,.032-.034c.091-.107.178-.216.271-.32q.285-.321.6-.615c.223-.212.455-.412.692-.607l.16-.127h0l.01-.007c.14-.1.28-.207.422-.307a19.3,19.3,0,0,1,1.875-1.148c.752-.406,1.526-.77,2.311-1.107l.037-.017.094-.038.325-.133c.237-.1.476-.188.715-.279q.737-.281,1.482-.534a97.234,97.234,0,0,1,16.53-3.739c8.869-1.374,17.829-2.154,26.779-2.755,12.417-.834,24.864-1.285,37.306-1.5,10.171-.176,20.358-.174,30.52.338a147.894,147.894,0,0,1,19.606,2.031,56.741,56.741,0,0,1,6.481,1.557c.864.27,1.718.57,2.558.908.082.032.163.066.244.1l.076.033c.186.083.372.164.557.25q.505.236,1,.5a15.122,15.122,0,0,1,1.67,1.029c.063.045.257.194.277.206.082.066.164.131.244.2q.307.26.593.543c.184.184.357.376.526.573.034.039.066.08.1.12.062.087.126.172.186.26.132.193.254.393.366.6.054.1.193.423.232.5a7.5,7.5,0,0,1,.325,1.06c.022.1.037.206.058.309l.008.036v.019c.014.21.039.419.046.63C292.788,261.49,292.785,261.891,292.757,262.29Z"/><circle class="a" cx="194.96" cy="172.807" r="7.661"/><circle class="a" cx="214.52" cy="144.21" r="5.497"/><circle class="a" cx="225.93" cy="242.895" r="9.211"/><circle class="a" cx="162.983" cy="99.449" r="6.224"/><polygon class="d" points="149.528 124.429 126.136 133.144 130.626 107.878 149.528 124.429"/><polygon class="d" points="235.274 181.404 220.461 168.943 239.229 162.327 235.274 181.404"/><polygon class="d" points="196.281 262.598 172.256 242.388 202.695 231.657 196.281 262.598"/><rect class="e" x="209.023" y="210.84" width="16.3" height="16.3" transform="translate(82.357 -58.4) rotate(18.841)"/><rect class="e" x="167.284" y="187.733" width="14.149" height="14.149" transform="translate(-47.212 56.037) rotate(-16.111)"/><rect class="e" x="144.027" y="140.584" width="24.464" height="24.464" transform="translate(147.045 371.184) rotate(-131.946)"/><path d="M186.386,145.313a.74.74,0,0,0-1.479,0l.032,2.465a15.262,15.262,0,0,0-9.434-7.156c-.924-.227-1.318,1.2-.393,1.426a13.8,13.8,0,0,1,8.494,6.359,7.614,7.614,0,0,0-1.167-.533c-.9-.32-1.284,1.108-.393,1.426a5.638,5.638,0,0,1,3.044,2.619.745.745,0,0,0,1.378-.374Z"/><path d="M223.737,191.636l-.375,1.7a36.954,36.954,0,0,0-4.236-10.328.74.74,0,0,0-1.277.747,35.642,35.642,0,0,1,3.943,9.44,10.212,10.212,0,0,0-2.674-1.245.74.74,0,0,0-.393,1.426,8.521,8.521,0,0,1,3.594,2.161c.025.132.065.261.089.394a.619.619,0,0,0,.809.507.744.744,0,0,0,1.068-.432q.44-1.987.878-3.975C225.367,191.1,223.942,190.706,223.737,191.636Z"/><path d="M208.4,124.867c.176-.93-1.248-1.328-1.426-.393a15.148,15.148,0,0,0-.222,1.836,21.342,21.342,0,0,0-6.588-8.28c-.758-.575-1.5.709-.747,1.277a19.5,19.5,0,0,1,6.086,7.836,5.5,5.5,0,0,0-2.185-.355c-.948.04-.953,1.518,0,1.479a4.146,4.146,0,0,1,2.983,1.069c.029.1.066.191.093.288a.667.667,0,0,0,.569.5c.019.029.047.049.065.079a.743.743,0,0,0,1.351-.57A13.036,13.036,0,0,1,208.4,124.867Z"/><path d="M156.4,120.056q-.327-1.917-.655-3.833c-.156-.911-1.5-.556-1.424.322a41.222,41.222,0,0,0-4.824-5.632c-.683-.663-1.729.381-1.045,1.045a39.924,39.924,0,0,1,5.4,6.508,14.893,14.893,0,0,0-2.692-.854c-.928-.2-1.324,1.226-.393,1.425a13.83,13.83,0,0,1,4.549,1.854C155.905,121.266,156.5,120.648,156.4,120.056Z"/><path d="M158.707,176.177q-.065,1.5-.128,2.993a23.621,23.621,0,0,0-5.806-7.206c-.727-.6-1.778.437-1.045,1.046a22.564,22.564,0,0,1,5.528,6.794,12.5,12.5,0,0,0-1.761-.864c-.888-.345-1.272,1.084-.393,1.426a10.246,10.246,0,0,1,3.563,2.358.748.748,0,0,0,1.262-.522l.258-6.025C160.226,175.225,158.748,175.227,158.707,176.177Z"/><path d="M192.653,222.5l-.544,1.444a37.1,37.1,0,0,0-2.335-10.314c-.339-.878-1.769-.5-1.426.393a36.121,36.121,0,0,1,2.3,10.2l-1.217-1.714c-.547-.77-1.83-.032-1.277.746L191.1,227.4a.751.751,0,0,0,1.351-.177q.816-2.166,1.631-4.333C194.414,222,192.985,221.617,192.653,222.5Z"/><path d="M244.246,234.067l-.223.51a54.721,54.721,0,0,0-1.069-9.267c-.189-.932-1.615-.537-1.425.393a52.445,52.445,0,0,1,1.021,9.328l-1.176-2.086a.74.74,0,0,0-1.277.746l2.615,4.638a.744.744,0,0,0,1.276,0q.768-1.758,1.534-3.516C245.9,233.95,244.626,233.2,244.246,234.067Z"/><circle cx="229.845" cy="203.997" r="1.375"/><circle cx="186.297" cy="188.181" r="1.375"/><circle cx="178.009" cy="165.146" r="1.375"/><circle cx="184.922" cy="231.376" r="1.375"/><circle cx="199.787" cy="202.622" r="1.375"/><circle cx="231.96" cy="226.376" r="1.375"/><circle cx="211.501" cy="162.327" r="1.375"/><circle cx="130.886" cy="148.429" r="1.375"/><circle cx="190.29" cy="116.93" r="1.375"/><circle cx="146.459" cy="99.449" r="1.375"/><circle cx="135.311" cy="51.117" r="1.375"/><circle cx="147.42" cy="53.44" r="1.375"/><path d="M142.807,57.157a3.255,3.255,0,0,1-5.291-.243c-.518-.794-1.8-.054-1.277.746a4.756,4.756,0,0,0,7.845.244C144.661,57.147,143.377,56.41,142.807,57.157Z"/><path d="M155.265,36.414a28.2,28.2,0,0,0-7.6-10.85,25.276,25.276,0,0,0-11.428-5.591A18.484,18.484,0,0,0,123.768,21.3a14.393,14.393,0,0,0-2.646,1.847c-3.3,2.964-5.062,7.355-6.192,11.549-.3,1.1-.551,2.22-.769,3.343A7.567,7.567,0,0,0,114,40.893a2.058,2.058,0,0,0,1.352,1.753,1.474,1.474,0,0,0,.642.018c-.687,1.641-1.369,3.285-2.017,4.942q-.588,1.5-1.155,3.018a.487.487,0,0,0-.018.289,15.791,15.791,0,0,0,2.413,14.093c.425.562,1.388.01.958-.56a14.747,14.747,0,0,1-2.285-13.3.519.519,0,0,0,.016-.262c1.209-3.22,2.506-6.406,3.862-9.567.69-.825,1.37-1.659,2.055-2.488a4.085,4.085,0,0,1,3.347-1.9,3.421,3.421,0,0,0-2.374,2,3.916,3.916,0,0,0,.476,4.181,3.307,3.307,0,0,0,3.881.917c.65-.291.087-1.247-.56-.958a2.206,2.206,0,0,1-2.536-.743,2.822,2.822,0,0,1-.231-2.992,2.077,2.077,0,0,1,2.238-1.314,2.635,2.635,0,0,1,1.929,2.158c.124.646,1.032.438,1.068-.146.166.226.336.448.514.654a14.644,14.644,0,0,0,5.062,3.812,9.678,9.678,0,0,0,6.1.607,7.731,7.731,0,0,0,2.772-1.259,6.213,6.213,0,0,1,1.119-.881c.628-.252.942.277,1.236.728.526.8,1.18,1.84,2.218,1.969a1.986,1.986,0,0,0,2.034-1.218.828.828,0,0,1,.813-.536c.522.036.7.512.947.891a5.506,5.506,0,0,0,.963,1.108,22.411,22.411,0,0,1-.514,4.54c-1.385,6.352-5.963,12.611-12.953,12.982a10.634,10.634,0,0,1-9-4.133,13.107,13.107,0,0,1-2.658-10.044c.115-.7-.953-1-1.069-.295a14.347,14.347,0,0,0,3.865,12.14,7.556,7.556,0,0,0-3.065,4.751c-.1.7.967,1,1.069.3a6.633,6.633,0,0,1,2.823-4.286,11.239,11.239,0,0,0,4.8,2.411,13.037,13.037,0,0,0,9.819-1.9,17.287,17.287,0,0,0,6.429-8.308,22.513,22.513,0,0,0,1.526-7.47,3.852,3.852,0,0,0,.377.167c2.141.7,3.851-1.118,4.279-3.074C157.1,41.263,156.154,38.64,155.265,36.414Z"/><path d="M139.8,241.412a22.145,22.145,0,0,0-5.982-.955c-2.236-.129-4.474-.231-6.71-.345l-13.655-.7c-4.007-.205-8.45-.736-12.058,1.43a7.085,7.085,0,0,0-3.344,4.219,5.5,5.5,0,0,0,1.166,5.1.473.473,0,0,0,.438.162.454.454,0,0,0,.113.025q17.667.3,35.33-.416,4.98-.2,9.955-.488a.572.572,0,0,0,.554-.555C145.946,245.3,142.937,242.5,139.8,241.412Z"/><path d="M69.854,241.189c-4.2-.571-8.587-.99-12.76,0a13.72,13.72,0,0,0-8.694,6.654,3.107,3.107,0,0,0,2.758,4.544c1.009.035,2.022.028,3.031.042l11.908.167,4.123.058a15.422,15.422,0,0,0,4.8-.431,4.88,4.88,0,0,0,3.048-2.426,4.819,4.819,0,0,0-.145-4.349C76.386,242.5,72.877,241.6,69.854,241.189Z"/><path class="c" d="M170.112,115.234a3.724,3.724,0,0,0-3.512-1.128,11.922,11.922,0,0,0-6.912,4.723,2.166,2.166,0,0,0-.518,1.919,1.565,1.565,0,0,0,1.383.845,14.355,14.355,0,0,0,6.17-.49,10.029,10.029,0,0,0-6.692,6.529,2.658,2.658,0,0,0,.059,2.472,1.742,1.742,0,0,0,1.5.454,18.1,18.1,0,0,0,5.375-1.064,12.271,12.271,0,0,0-5.207,3.8,3.267,3.267,0,0,0-.895,2.016,2.2,2.2,0,0,0,1.089,1.841,3.421,3.421,0,0,0,1.942.348c4.545-.261,8.747-4.4,9.844-9.7A14.53,14.53,0,0,0,170.112,115.234Z"/><path d="M174.868,123.886a15.6,15.6,0,0,0-4.1-9.3c-3.348-3.319-8.491-.2-11,2.674a5.206,5.206,0,0,0-1.592,2.894,2.182,2.182,0,0,0,1.639,2.231,8.275,8.275,0,0,0,2.366.281,12.214,12.214,0,0,0-3,4.629c-.611,1.681-.415,3.919,1.748,4.167a6.784,6.784,0,0,0,1.251.006,6.29,6.29,0,0,0-2.2,3.389,3.151,3.151,0,0,0,2.562,3.487,7.741,7.741,0,0,0,4.068-.478C172.151,135.8,175.381,129.624,174.868,123.886Zm-2.673,5.843a11.676,11.676,0,0,1-4.149,5.323,8.972,8.972,0,0,1-2.74,1.285c-.944.251-2.55.6-3.251-.295-.917-1.166.757-2.635,1.534-3.368a10.976,10.976,0,0,1,3.617-2.289c1.1-.414.641-2.182-.491-1.782a17.519,17.519,0,0,1-4.893,1.019c-.632.034-1.166.1-1.14-.683a5,5,0,0,1,.576-1.879A8.981,8.981,0,0,1,166.969,122a.925.925,0,0,0-.491-1.783,13.831,13.831,0,0,1-5.449.515c-.644-.071-1.245-.121-.874-.9a7.428,7.428,0,0,1,1.493-1.881c1.789-1.8,5.512-4.335,7.81-2.056A13.4,13.4,0,0,1,172.2,129.729Z"/><path class="c" d="M49.137,83.1a90.719,90.719,0,0,0-29.5,27.538q1.44,2.526,2.931,5.025c3.163,5.285,5.568,10.626,9.364,15.476a7.725,7.725,0,0,0,2.161,2.093,2.819,2.819,0,0,0,2.877.067c1.2-.8,1.251-2.569.8-3.939s-1.259-2.65-1.352-4.088a14.745,14.745,0,0,0,4.09,4.83c1.782,1.162,4.348,1.413,5.935,0a4.989,4.989,0,0,0,1.261-4.7,8.66,8.66,0,0,0-.5-1.55,9.666,9.666,0,0,0,1.092,1.417A5.466,5.466,0,0,0,53,127.1c1.726-.3,3.8-2.865.508-9.079-1.628-3.748-3.741-8.747-5.369-12.494a11.035,11.035,0,0,0,2.573,3.574,3.758,3.758,0,0,0,4.127.583c1.854-1.1,1.786-3.776,1.34-5.884C54.669,96.659,51.57,89.981,49.137,83.1Z"/><path d="M56.258,100.252c-.77-2.771-1.733-5.483-2.746-8.172-1.16-3.077-2.384-6.13-3.484-9.23a.9.9,0,0,0-.117-.2l-.015-.025a.918.918,0,0,0-.141-.171.832.832,0,0,0-1.084-.16,93.784,93.784,0,0,0-24.382,20.557,84.78,84.78,0,0,0-5.454,7.312.922.922,0,0,0,0,.933c1.479,2.592,3.038,5.137,4.5,7.739,1.372,2.445,2.682,4.924,4.121,7.331a36.012,36.012,0,0,0,4.805,6.777,4.913,4.913,0,0,0,3.384,1.637,3.165,3.165,0,0,0,2.834-1.619,4.634,4.634,0,0,0,.365-3.056,6.7,6.7,0,0,0,5.357,2.054,4.8,4.8,0,0,0,4.053-2.864,6,6,0,0,0,.477-2.3,5.756,5.756,0,0,0,4.309,1.222,3.521,3.521,0,0,0,2.656-2.043,7.312,7.312,0,0,0-.011-5.209,38.914,38.914,0,0,0-1.614-3.758q-.764-1.763-1.518-3.529c-.425-.993-.854-1.985-1.279-2.979a4.854,4.854,0,0,0,1.307.426,4.017,4.017,0,0,0,4.669-3.478C57.652,105.045,56.9,102.548,56.258,100.252Zm-2.274,8.8a3.14,3.14,0,0,1-2.937-.885,11.436,11.436,0,0,1-2.111-3.112c-.572-1.073-2.057-.13-1.6.933q1.377,3.171,2.729,6.351c.922,2.157,1.753,4.394,2.817,6.484A9.955,9.955,0,0,1,54.3,124.2a2.841,2.841,0,0,1-.444,1.285,1.849,1.849,0,0,1-.312.353c-.174.168,0,.019-.114.093-.093.06-.187.113-.285.164.072-.037.021.008-.134.048a2.622,2.622,0,0,1-.342.069,3.691,3.691,0,0,1-1.771-.262,6.366,6.366,0,0,1-2.892-2.574c-.541-.817-2.1-.315-1.689.712a5.539,5.539,0,0,1,.27,4.235,3.022,3.022,0,0,1-2.946,1.814c-3.115-.033-4.962-2.993-6.426-5.339-.451-.722-1.808-.5-1.722.467a11.214,11.214,0,0,0,1.006,3.339,5.337,5.337,0,0,1,.582,2.772,1.442,1.442,0,0,1-1.8,1.319,4.668,4.668,0,0,1-2.5-1.961c-3.141-3.927-5.4-8.465-7.854-12.831-1.364-2.43-2.811-4.814-4.2-7.23a87.6,87.6,0,0,1,21.413-21.9c2.113-1.525,4.3-2.945,6.525-4.3,1.614,4.422,3.433,8.77,4.9,13.248a44.759,44.759,0,0,1,1.852,7C55.633,106.163,55.705,108.5,53.984,109.055Z"/><path class="f" d="M112.636,52.064S84.683,29.728,71.192,26c-13.257-3.661-27.907-3.2-40.206,3.477C13.383,39.042,7.445,57.107,6.211,65.992,4.3,79.721,10.857,95.493,19.343,110.6A92.258,92.258,0,0,1,49.136,83.053c-.151-.444-.31-.885-.453-1.332-2.509-7.818-6.3-18.286-.493-24.09,4.02-4.017,16.509-9.257,21.426-8.212,19.529,4.149,46.077,15.307,46.077,15.307C112.752,60.893,111.131,56.655,112.636,52.064Z"/><path d="M116.491,64.259a17.566,17.566,0,0,1-3.074-5.725,10.631,10.631,0,0,1,.11-6.224.844.844,0,0,0,.022-.207c0-.02,0-.038.006-.058a.778.778,0,0,0-.049-.3.541.541,0,0,0-.025-.071.816.816,0,0,0-.138-.191c-.021-.022-.029-.054-.054-.074-1.679-1.342-3.387-2.648-5.1-3.947q-5.854-4.44-11.9-8.627c-4.636-3.2-9.366-6.291-14.3-9.026a69.969,69.969,0,0,0-6.614-3.28,42.233,42.233,0,0,0-7.831-2.365,58.659,58.659,0,0,0-23.977-.24,47.3,47.3,0,0,0-20.525,9.82A49.325,49.325,0,0,0,11.2,48.366,54.768,54.768,0,0,0,5.919,62.45,43.9,43.9,0,0,0,6.2,81.513c1.834,8.3,5.305,16.2,9.2,23.724q1.523,2.941,3.15,5.828a.935.935,0,0,0,1.6,0A89.159,89.159,0,0,1,42.089,88.729q3.642-2.61,7.513-4.878a.936.936,0,0,0,.425-1.043,94.8,94.8,0,0,1-3.375-11.48c-.7-3.408-1.118-7.346.454-10.587,1.337-2.756,4.013-4.414,6.613-5.835a44.611,44.611,0,0,1,9.531-3.889,20.682,20.682,0,0,1,4.262-.79,13.675,13.675,0,0,1,4.093.581c3.837.892,7.634,1.949,11.4,3.091,7.163,2.171,14.233,4.651,21.235,7.3q3.73,1.407,7.432,2.887c1.2.481,2.393,1.03,3.612,1.469.054.02.106.044.159.067A.932.932,0,0,0,116.491,64.259Zm-10.051-4.2c-7.033-2.69-14.136-5.215-21.329-7.448-3.881-1.2-7.792-2.325-11.742-3.283a25.427,25.427,0,0,0-4.844-.961,16.883,16.883,0,0,0-4.309.5,44.143,44.143,0,0,0-9.939,3.663c-2.74,1.365-5.714,2.993-7.624,5.456-2.319,2.993-2.707,6.9-2.3,10.557a59.932,59.932,0,0,0,2.909,11.771q.378,1.169.771,2.331A94.952,94.952,0,0,0,24.078,102.82c-1.638,1.944-3.17,3.975-4.632,6.054a121.1,121.1,0,0,1-9.92-22.106C7.378,79.945,6.074,72.622,7.215,65.484a50.638,50.638,0,0,1,3.89-12.769A49.9,49.9,0,0,1,20.928,38.2,44.759,44.759,0,0,1,39.138,27a53.69,53.69,0,0,1,23.235-1.861,51.7,51.7,0,0,1,9.945,2.176,45.645,45.645,0,0,1,6.017,2.632A139.086,139.086,0,0,1,92.3,38.35c4.267,2.854,8.445,5.84,12.561,8.907q2.244,1.671,4.461,3.379l.232.178.006.005.061.047.416.323.675.525c.293.229.584.458.876.688a13.647,13.647,0,0,0,1.7,10.352Q109.874,61.374,106.44,60.059Z"/><path class="b" d="M150.119,84.216a2.249,2.249,0,0,0,1.263-4.195S134.9,69.54,125.973,65.992C107.509,58.65,76.991,44.758,59.348,50.683c-19.669,6.6-12.964,32.535,5.466,32.5C95.3,83.119,132.449,84.252,150.119,84.216Z"/><path class="b" d="M150.119,85.694a3.834,3.834,0,0,0,3.784-4.621,4.27,4.27,0,0,0-2.166-2.576q-3.119-1.963-6.284-3.85c-3.4-2.035-6.841-4.021-10.339-5.892a103.576,103.576,0,0,0-10.293-4.807c-3.907-1.571-7.8-3.178-11.713-4.734-4.34-1.725-8.7-3.394-13.115-4.924-4.458-1.545-8.968-2.954-13.548-4.088a82.459,82.459,0,0,0-13.282-2.27,39.565,39.565,0,0,0-11.814.657A21.969,21.969,0,0,0,51.4,53.56a16.6,16.6,0,0,0-4.887,8.058,18.032,18.032,0,0,0,.069,9.1,19.206,19.206,0,0,0,4.438,8.061,18.322,18.322,0,0,0,8.113,5.067,19.527,19.527,0,0,0,5.215.809c2.528.055,5.062,0,7.59.01q8.052.028,16.1.129,8.075.1,16.147.234,7.722.127,15.443.271,6.994.126,13.991.24c3.93.061,7.86.116,11.79.142q2.353.016,4.706.013a1.479,1.479,0,0,0,0-2.957c-7.64.015-15.281-.129-22.92-.261-9.951-.172-19.9-.364-29.854-.513-10.439-.156-20.879-.273-31.32-.263-.983,0-1.964.015-2.944-.072-.2-.018-.4-.041-.594-.063-.349-.039.348.054,0,0-.1-.015-.194-.028-.29-.044-.413-.067-.824-.148-1.23-.244a17.02,17.02,0,0,1-2.234-.69c-.11-.042-.692-.238-.241-.094a4.248,4.248,0,0,1-.5-.224q-.529-.249-1.041-.535A18.081,18.081,0,0,1,55.1,78.526c-.079-.058-.338-.212.021.018-.072-.046-.139-.11-.206-.163-.135-.11-.27-.222-.4-.336-.285-.246-.563-.5-.831-.766a20.106,20.106,0,0,1-1.438-1.607c-.2-.242.205.282.021.028-.051-.07-.1-.138-.154-.207q-.153-.207-.3-.419-.316-.457-.6-.935a17.594,17.594,0,0,1-.984-1.887,2.02,2.02,0,0,1-.1-.234c.118.41.059.144.018.04-.062-.157-.125-.315-.185-.474q-.192-.514-.352-1.042a17.182,17.182,0,0,1-.49-2.051c-.025-.138-.046-.276-.068-.415s-.117-.347.006.06a1.5,1.5,0,0,1-.03-.251q-.063-.541-.09-1.088a16.473,16.473,0,0,1,.031-2.1q.02-.25.048-.5a1.1,1.1,0,0,1,.03-.25c-.134.351-.032.218-.007.061.057-.36.12-.719.2-1.075a15.323,15.323,0,0,1,.6-2.025,3.009,3.009,0,0,1,.188-.475c-.247.416.036-.079.09-.2q.236-.508.508-1a11.579,11.579,0,0,1,1.206-1.836c-.306.363.091-.106.162-.192.117-.139.236-.277.357-.412q.4-.447.835-.862.411-.393.849-.757c.083-.069.584-.458.23-.191.183-.138.367-.275.555-.408a18.608,18.608,0,0,1,2.2-1.327q.578-.3,1.174-.56c.062-.027.411-.171.056-.026l.312-.127q.372-.147.749-.282a24.169,24.169,0,0,1,2.527-.749c.83-.2,1.67-.356,2.515-.478.076-.011.45-.059.038-.007l.326-.041q.329-.039.658-.072.723-.073,1.449-.116a45.324,45.324,0,0,1,5.862.055q1.542.108,3.077.3l.375.047c.053.007.473.062.108.013.252.034.5.07.756.106q.826.122,1.65.261a109.424,109.424,0,0,1,13.118,3.15c8.674,2.595,17.109,5.92,25.493,9.321q2.808,1.138,5.615,2.28,1.305.527,2.611,1.048c.176.07.351.14.526.212l.261.108c.312.13-.315-.136,0,0,.4.172.794.346,1.188.525,3.487,1.585,6.862,3.421,10.195,5.3q4.668,2.636,9.237,5.443,1.421.869,2.834,1.751l.728.458.158.1.029.018c.032.021.067.043.1.06q.2.141-.038-.04c.053.044.1.09.152.139.086.085.206.316.023,0,.047.081.1.163.146.242.156.252-.042-.3-.009-.014.006.056.089.21.064.263l-.03-.216c.006.06.009.119.009.178-.016.2.1.242.027-.038.017.066-.044.2-.057.261l-.025.086c-.054.148-.037.113.051-.1,0,.069-.095.178-.126.238l-.049.077q-.135.19.067-.082c-.012.062-.15.155-.192.2-.211.228.279-.152,0,0a1.452,1.452,0,0,1-.252.142c.01.011.32-.1-.019,0-.1.03-.2.049-.307.069.391-.078.043-.019-.05-.017a1.479,1.479,0,1,0,0,2.957Z"/><path class="g" d="M82.8,52.007a36.228,36.228,0,0,0-17.775-1.285,2.784,2.784,0,0,0-1.937,3.41,2.851,2.851,0,0,0,3.41,1.936,7.821,7.821,0,0,1,.888-.144l.034,0c.2-.023.4-.046.594-.067q.954-.1,1.911-.141a32.871,32.871,0,0,1,4.068.07c.318.025.636.054.954.089.155.016.311.037.467.054.665.107,1.328.213,1.988.35a33.486,33.486,0,0,1,3.924,1.077,2.791,2.791,0,0,0,3.41-1.936A2.838,2.838,0,0,0,82.8,52.007Z"/><path class="c" d="M63.261,90.493a2.82,2.82,0,0,0-2.772,2.772v.326a2.772,2.772,0,0,0,5.544,0v-.326A2.8,2.8,0,0,0,63.261,90.493Z"/><path class="c" d="M107.368,110.285q-.975-1.113-1.905-2.262c-.191-.237-.378-.475-.567-.713l-.067-.083-.056-.075c-.275-.363-.549-.726-.818-1.093q-1.782-2.431-3.35-5.011-1.536-2.529-2.853-5.18-.657-1.325-1.259-2.677c-.107-.242-.212-.486-.319-.729l-.042-.1-.033-.08c-.2-.492-.4-.983-.593-1.478A2.841,2.841,0,0,0,92.1,88.872c-1.308.423-2.5,1.963-1.936,3.41a74.764,74.764,0,0,0,5.163,10.634q-6.924-2.541-14.072-4.4a2.773,2.773,0,0,0-1.474,5.346,149.9,149.9,0,0,1,15.956,5.119c-5.921.447-11.785,2.024-17.5,3.656a2.773,2.773,0,1,0,1.473,5.346,111.878,111.878,0,0,1,12.92-3.121q.369-.058.74-.114l.3-.042.071-.009c.535-.057,1.068-.125,1.6-.173,1.065-.1,2.135-.154,3.2-.165s2.133.026,3.2.117c.327.028.654.065.981.1l.111.011.131.021c.572.093,1.141.193,1.708.312a2.845,2.845,0,0,0,3.131-1.274A2.894,2.894,0,0,0,107.368,110.285Z"/><path class="c" d="M72.009,93.861a2.822,2.822,0,0,0-2.773,2.773v.326a2.773,2.773,0,0,0,5.545,0v-.326A2.8,2.8,0,0,0,72.009,93.861Z"/></svg>