<svg xmlns="http://www.w3.org/2000/svg" xmlns:xlink="http://www.w3.org/1999/xlink" viewBox="0 0 300 300"><defs><style>.a,.d,.e,.f,.k,.l,.r{fill:none;}.b,.j{fill:#ffc3a9;stroke:#e89589;}.b,.d,.e,.f,.k,.l,.n,.r{stroke-linecap:round;stroke-linejoin:round;}.b,.j,.k,.n{stroke-width:1.051px;}.c{fill:#ffeb7d;}.d,.e,.f,.r{stroke:#f9c126;}.d,.e,.f,.l{stroke-width:1.402px;}.e{stroke-dasharray:4.271 4.271;}.f{stroke-dasharray:4.251 4.251;}.g{fill:#f9c126;}.h{fill:#621cd1;}.i{fill:#3e9ff8;}.j{stroke-miterlimit:10;}.k,.l,.n{stroke:#ae504a;}.m{fill:#ae504a;}.n{fill:#da7656;}.o{clip-path:url(#a);}.p{fill:#a4d2fc;}.q,.s{fill:#ff5c76;}.r{stroke-width:1.752px;}.s{opacity:0.43;isolation:isolate;}</style><clipPath id="a"><path class="a" d="M95.445,163.41C83.671,109.3,114.578,74.717,152.5,67.358s78.39,43.8,76.183,59.257-26.317,14.543-34.412,13.071a17.677,17.677,0,0,0-3.68-13.631,39.81,39.81,0,0,0,10.057-2.909,3.25,3.25,0,0,0,1.192-5.116c-3.434-4-9.181-10.443-11.424-11.669-5.537,4.8-17.662,27.613-18.783,37.18-19.519,8.831-43.067,11.774-47.483,9.952-4.415-1.857-4.8-33.5,1.122-41.6-11.424,11.775-16.926,36.8-15.84,46.012C105.012,164.882,95.445,163.41,95.445,163.41Z"/></clipPath></defs><title>In a hurry</title><path class="b" d="M224.262,254.767l3.925,22.5a4.741,4.741,0,0,1-2.278,4.941,5.882,5.882,0,0,1-6.272-.07,4.855,4.855,0,0,1-2.453-3.609c-.491-3.82-2.909-18.433-3.189-18.608"/><path class="b" d="M92.046,255.923l-21.621,7.254A4.759,4.759,0,0,1,65.2,261.67a5.851,5.851,0,0,1-.876-6.237,4.912,4.912,0,0,1,3.189-2.979c3.68-1.051,17.8-5.642,17.907-5.957"/><path class="c" d="M167.213,138.565c4.415,4.8,48.954,47.483,52.634,67.352s9.567,50.777,8.831,54.106c-6.623,4.8-18.223,3.68-20.781,4.065-3.329-7.744-7.183-42.682-14.893-51.162s-34.8-33.5-34.8-33.5-3.855,61.85-69.56,82.455c-7.359-3.329-10.863-17.661-10.863-17.661s41.946-8.48,42.682-63.673S133.712,138.6,133.712,138.6h33.5Z"/><path class="d" d="M128.736,172.416q.105.947.21,2.1"/><path class="e" d="M129.331,178.759c1.367,17,.842,52.529-44.258,72.854"/><path class="d" d="M83.11,252.489c-.631.28-1.3.561-1.927.806"/><path class="d" d="M159.293,174.624c.456.42.981.876,1.612,1.367"/><path class="f" d="M164.409,178.409c13.982,9.146,45.065,26.282,50.146,81.439"/><path class="d" d="M214.731,261.986c.07.7.105,1.4.14,2.1"/><path class="d" d="M158.207,179.425a33.3,33.3,0,0,0,1.121-6.273"/><path class="d" d="M153.756,148.868c1.858,5.151,1.472,13.246,3.329,13.631a5.921,5.921,0,0,0,2.944,0"/><path class="d" d="M166.3,147.781c1.857,2.208,10.793,2.348,10.793,2.348"/><path class="g" d="M183.963,77.1c1.647-.561,2.733-.946,2.208-2.593-3.014-9.5,3.819-22.6-29.086-32.765-35.708-11.039-48.954,1.121-65.144,5.887-13.562,4-23.268,2.068-27.333-4.275a3.162,3.162,0,0,0-5.257-.175C53.6,51.133,50.345,63.363,49.5,66.9a3.122,3.122,0,0,0,.21,2.1C51.431,72.58,58.65,83.057,81.288,71.6c26.878-13.631,55.017-25.16,78.776-5.536C176.429,79.658,179.443,78.642,183.963,77.1Z"/><path class="h" d="M95.445,163.41C83.671,109.3,114.578,74.717,152.5,67.358s78.39,43.8,76.183,59.257-26.317,14.543-34.412,13.071a17.677,17.677,0,0,0-3.68-13.631,39.81,39.81,0,0,0,10.057-2.909,3.25,3.25,0,0,0,1.192-5.116c-3.434-4-9.181-10.443-11.424-11.669-5.537,4.8-17.662,27.613-18.783,37.18-19.519,8.831-43.067,11.774-47.483,9.952-4.415-1.857-4.8-33.5,1.122-41.6-11.424,11.775-16.926,36.8-15.84,46.012C105.012,164.882,95.445,163.41,95.445,163.41Z"/><path class="b" d="M188.1,126.44c-2.873,0-14.928.876-16.365,8.06s2.593,8.621,2.593,8.621.561,1.436,3.435,1.436c.56,1.157,3.294,1.437,3.959.876.631.281,6.834-.595,6.974-1.436.28-2-3.434-2-3.434-2s8.62-1.717,9.777-3.434-2.313-10.057-2.313-10.057Z"/><path class="b" d="M175.833,134.5c-.841,2.278-2.873,5.011-1.3,9.006"/><path class="b" d="M178.672,136.778c-1.682,3.119-2,7.078-.841,7.919"/><path class="b" d="M181.475,145.574c-1.4-1.4-1.121-4.521,0-6.518"/><path class="i" d="M197.139,128.648c1.192-.491,1.963-1.262,2.033-2.138.035-.245,0-.981,0-1.121.14-1.787-2.593-3.469-6.1-3.75s-6.448.982-6.588,2.769c-.035.245,0,.981,0,1.121-.1,1.472,1.682,2.839,4.205,3.434,2.138,3.785,3.68,8.446,3.4,10.233a26.166,26.166,0,0,0,5.677.841S200.223,132.573,197.139,128.648Z"/><path class="b" d="M174.817,47.524c-.876-.14-8.305-7.639-5.607-10.758,2.628-3.154,6.728,3.189,6.833,4.135"/><path class="b" d="M196.4,47.033c.7-.63,8.06-2.7,7.92,1.472-.035,4.17-10.688,4.8-11.424,4.345"/><path class="b" d="M185.12,57.3,180,74.156a3.718,3.718,0,0,1-3.294,2.629,4.551,4.551,0,0,1-4.31-2.243,3.921,3.921,0,0,1-.456-3.364c.982-2.8,4.416-13.7,4.276-13.912"/><path class="j" d="M178.531,21.908s-14.3,33.991.561,39.107C195.913,66.8,200.4,41.847,204.5,30.984"/><path class="k" d="M183.367,51.344s.456,1.647,1.437,1.051c.946-.561,2.243-6.133,2.243-6.133"/><ellipse class="h" cx="191.752" cy="46.287" rx="1.472" ry="1.191" transform="translate(35.867 167.163) rotate(-51.362)"/><path class="l" d="M180.984,39.569s2.734-1.226,4.7-.49"/><path class="m" d="M159.679,22.644c-2.629-11.81,13.561-26.353,21.726-11.039,4.38,9.742,10.2-1.962,24.67,7.009,4.7,2.908,8.831,18.4-4.8,26.492-1.121.666-2-.175-1.857-1.472,1.016-7.639-1.332-13.106-6.623-11.038C180.319,37.432,162.272,34.313,159.679,22.644Z"/><ellipse class="h" cx="182.678" cy="44.005" rx="1.472" ry="1.191" transform="translate(61.321 187.463) rotate(-63.315)"/><path class="l" d="M193.355,40.691s2.628,1.436,3.224,3.469"/><path class="n" d="M181.79,55.233c1.437.526,2,.911,2.138,1.437"/><path class="i" d="M124.566,184.856l-51.3-22.988a6.686,6.686,0,0,1-3.364-8.83L84.3,120.9a6.687,6.687,0,0,1,8.83-3.364l51.3,22.988a6.688,6.688,0,0,1,3.364,8.831l-14.4,32.134A6.686,6.686,0,0,1,124.566,184.856Z"/><path class="b" d="M108.2,158.574c.525,3.5,9.917,10.268,9.5,13.912-1.156,2.208-3.259-2.067-4.941-3.364-2.908-2.207,4.381,12.791,4,13.7-.806,1.156-3.329-2.558-3.329-2.558,1.332,2.348,1.962,3.294,1.612,4.345s-5.361-2.768-5.5-3.784c1.963,3.294,2.909,3.118,2.138,4.275s-6.553-4.135-6.693-5.152c1.962,3.3,2.7,3.014,1.577,3.855-.876.631-5.5-3.784-7.289-9.146s-.631-7.569-1.016-13.632C97.828,154.965,106.343,149.113,108.2,158.574Z"/><path class="h" d="M124.11,113.124c5.817-12.16,14.683-29.436,24.145-44.855-35.919,9.041-64.129,43.033-52.81,95.106,0,0,9.567,1.472,13.982-5.536C108.341,149.008,113.457,125.354,124.11,113.124Z"/><g class="o"><path class="p" d="M121.026,113.544c-.665-.07-.841.6-.736,1.122"/><path class="p" d="M121.412,112.073a2.2,2.2,0,0,0-.666-.1c.14.035.28.035.456.07a2.51,2.51,0,0,0-3.049,1.016,2.624,2.624,0,0,0-.245,1.927,2.317,2.317,0,0,0,1.156,1.472,2.629,2.629,0,0,0,1.927.245,2.317,2.317,0,0,0,1.472-1.156c.07-.175.175-.421.245-.6a1.849,1.849,0,0,0,.035-.981,1.738,1.738,0,0,0-.28-.911,2.937,2.937,0,0,0-.526-.631l-.315,2.523a.122.122,0,0,0,.07-.035c-.1.035-.245.105-.385.14a.21.21,0,0,1,.14-.035,1.5,1.5,0,0,0,1.121-1.471,1.6,1.6,0,0,0-.21-.771,1.7,1.7,0,0,0-.946-.7Z"/><path class="p" d="M134.623,123.356a1.911,1.911,0,0,0,1.472-.63,2.167,2.167,0,0,0,.631-1.472,1.915,1.915,0,0,0-.631-1.472,2.167,2.167,0,0,0-1.472-.631,1.912,1.912,0,0,0-1.472.631,2.167,2.167,0,0,0-.631,1.472,1.912,1.912,0,0,0,.631,1.472,2.235,2.235,0,0,0,1.472.63Z"/><path class="p" d="M134.623,110.075a1.684,1.684,0,0,0,1.191-2.873,1.823,1.823,0,0,0-1.191-.491,1.686,1.686,0,0,0-1.192,2.874,1.8,1.8,0,0,0,1.192.49Z"/><path class="p" d="M124.706,93.675c-.105.07-.175.14-.28.211-.036-.071-.036-.141-.071-.211"/><path class="p" d="M125.231,92.414h0a1.645,1.645,0,0,0-1.506-.105,1.769,1.769,0,0,0-.561.315,1.641,1.641,0,0,0-.456.736V93.4c-.035.14-.035.28-.07.455.035.141.035.281.07.456a1.641,1.641,0,0,0,.456.736,1.8,1.8,0,0,0,1.892.385,1.683,1.683,0,0,0,1.017-1.331,1.878,1.878,0,0,0-.106-.876,2.008,2.008,0,0,0-.736-.806Z"/><path class="p" d="M138.3,94.026c-.1.035-.175.035-.28.07a2.229,2.229,0,0,1-.455,1.016"/><path class="p" d="M137.146,91.993a1.482,1.482,0,0,1-.245.175,2.407,2.407,0,0,0-.911,1.052,2.235,2.235,0,0,0-.106,1.436v.071a2.186,2.186,0,0,0,1.788,1.576,2.559,2.559,0,0,0,1.156-.14,1.931,1.931,0,0,0,1.016-.876c0-.035.035-.035.035-.07-.841.316-1.647.666-2.488,1.016.07,0,.176.035.246.035a2.539,2.539,0,0,0,1.261,0,1.877,1.877,0,0,0,1.016-.595,2.35,2.35,0,0,0-.49-3.645,2.3,2.3,0,0,0-2.278-.035Z"/><path class="p" d="M134.623,82.251a.917.917,0,0,0-.386.736"/><path class="p" d="M134.623,84.109a1.837,1.837,0,0,0,1.3-.561,1.9,1.9,0,0,0,.56-1.3,1.834,1.834,0,0,0-.56-1.3,2.068,2.068,0,0,0-1.3-.561,1.833,1.833,0,0,0-1.3.561,1.9,1.9,0,0,0-.56,1.3,1.836,1.836,0,0,0,.56,1.3,2,2,0,0,0,1.3.561Z"/><path class="p" d="M151.549,89.61a1.1,1.1,0,0,0,0-2.207,1.1,1.1,0,0,0,0,2.207Z"/><path class="p" d="M107.4,102.506a1.541,1.541,0,0,0,.736,1.121"/><path class="p" d="M107.4,105.2a2.674,2.674,0,0,0,1.927-.806,2.889,2.889,0,0,0,.806-1.927,2.673,2.673,0,0,0-.806-1.927,2.824,2.824,0,0,0-1.927-.806,2.677,2.677,0,0,0-1.928.806,2.894,2.894,0,0,0-.806,1.927,2.677,2.677,0,0,0,.806,1.927,2.826,2.826,0,0,0,1.928.806Z"/><path class="p" d="M105.327,123.321a2.231,2.231,0,0,1-.245-.07.64.64,0,0,0-.806.6.62.62,0,0,0,.806.6c.07-.035.175-.035.245-.07a.548.548,0,0,0,0-1.052Z"/><path class="p" d="M98.214,137.3a1.353,1.353,0,0,0,1.331-1.331,1.379,1.379,0,0,0-1.331-1.332,1.355,1.355,0,0,0-1.332,1.332,1.378,1.378,0,0,0,1.332,1.331Z"/><path class="p" d="M114.088,123.917a1.135,1.135,0,0,0-.1.6,1.452,1.452,0,0,0,.315.806,1.277,1.277,0,0,0,.806.315,1.17,1.17,0,0,0,.806-.315,1.284,1.284,0,0,0,.316-.806,1.136,1.136,0,0,0-.106-.6,1.252,1.252,0,0,0-.385-.561,1.051,1.051,0,0,0-.631-.21,1.307,1.307,0,0,0-.526.14,1.722,1.722,0,0,0-.49.631Z"/><path class="p" d="M153.02,145.924a.914.914,0,0,0-.736-.385"/><path class="p" d="M152.284,148.132a2.52,2.52,0,0,0,1.788-.736,1.7,1.7,0,0,0,.525-.806,2.244,2.244,0,0,0,.211-.981,2.52,2.52,0,0,0-.736-1.788,2.554,2.554,0,0,0-1.788-.735,2.518,2.518,0,0,0-1.787.735,1.707,1.707,0,0,0-.525.806,2.245,2.245,0,0,0-.211.982,2.519,2.519,0,0,0,.736,1.787,2.648,2.648,0,0,0,1.787.736Z"/><path class="p" d="M171.067,130.821c-.035-.071-.035-.141-.07-.211-.105.07-.175.14-.28.211"/><path class="p" d="M170.892,133.2a2.512,2.512,0,0,0,2.488-2.488,2.434,2.434,0,0,0-.736-1.752,2.627,2.627,0,0,0-1.752-.736,2.5,2.5,0,0,0-1.752.736,2.47,2.47,0,0,0-.736,1.752,2.434,2.434,0,0,0,.736,1.753,2.73,2.73,0,0,0,1.752.735Z"/><path class="p" d="M172.189,115.752l-.386.386"/><path class="p" d="M171.8,115.121c-.07.07-.175.106-.245.176h.806a1.055,1.055,0,0,0-1.262.14.991.991,0,1,0,1.4,1.4,1,1,0,0,0,.14-1.262v.806c.07-.07.1-.175.176-.245a.746.746,0,0,0-1.017-1.017Z"/><path class="p" d="M190.131,109.409c-.035-.035-.07-.105-.1-.14a1.54,1.54,0,0,0-2.594,0c-.035.035-.07.1-.1.14a1.615,1.615,0,1,0,2.8,0Z"/><path class="p" d="M188.379,93.08a2.68,2.68,0,0,0,1.927-.806,2.362,2.362,0,0,0,.561-.877,1.782,1.782,0,0,0,.21-1.051,2.677,2.677,0,0,0-.806-1.927,2.826,2.826,0,0,0-1.928-.806,2.676,2.676,0,0,0-1.927.806,2.359,2.359,0,0,0-.561.876,1.784,1.784,0,0,0-.21,1.051,2.677,2.677,0,0,0,.806,1.928,2.83,2.83,0,0,0,1.928.806Z"/><path class="p" d="M206.39,91.818a.83.83,0,0,1-.385.736"/><path class="p" d="M204.078,91.187h0a4.065,4.065,0,0,1,.21-.56c-.035.035-.035.07-.07.14l1.472-1.157c-.035,0-.035,0-.07.035a1.588,1.588,0,0,0-.877.491,1.1,1.1,0,0,0-.49.491,2.685,2.685,0,0,0-.491.876c-.035.21-.07.49-.1.7.035.211.07.491.1.7a1.576,1.576,0,0,0,.491.876,1.1,1.1,0,0,0,.49.491,2.718,2.718,0,0,0,.877.491,3.154,3.154,0,0,0,1.4,0,1.588,1.588,0,0,0,.876-.491,1.1,1.1,0,0,0,.491-.491,2.7,2.7,0,0,0,.491-.876c.035-.21.07-.49.105-.7-.035-.21-.07-.49-.105-.7a2.3,2.3,0,0,0-.666-1.157l-.035-.035c.21.386.455.736.63,1.122a1.5,1.5,0,0,0-.035-.176c-.07-.175-.14-.385-.245-.595A1.645,1.645,0,0,0,207.9,90a.964.964,0,0,0-.525-.281,2.049,2.049,0,0,0-.911-.21,2.883,2.883,0,0,0-1.227.316,1.656,1.656,0,0,0-.666.63,1.212,1.212,0,0,0-.49.736Z"/><path class="p" d="M206.776,108.393c-.105.035-.175.035-.28.07-.035.105-.035.176-.07.281"/><path class="p" d="M206.776,107.517h-.28a.864.864,0,0,0-.806.491c-.035.035-.035.105-.07.14a2.133,2.133,0,0,0-.141.561.979.979,0,0,0,.841.946.931.931,0,0,0,1.052-.7,1.115,1.115,0,0,0,.07-.491,4.931,4.931,0,0,1-.491.806c.07-.035.175-.07.245-.105a.919.919,0,0,0,.421-.981.894.894,0,0,0-.841-.666Z"/><path class="p" d="M196.123,75.208h0a1.835,1.835,0,0,0-.456.736,1.69,1.69,0,0,0,.07,1.016,1.49,1.49,0,0,0,1.437.946,1.682,1.682,0,0,0,1.367-.771,1.7,1.7,0,0,0-.245-1.927l-.035-.035a1.606,1.606,0,0,0-2.138.035Z"/><path class="p" d="M175.483,80.744q-.631.054-.316.421a9.418,9.418,0,0,0,1.052-.175"/><path class="p" d="M176.043,78.747h-.07c.281.175.631.386.911.561l-.035-.035a2.8,2.8,0,0,0-1.121-.666,2.856,2.856,0,0,0-1.332,0,2.056,2.056,0,0,0-1.121.666,2.815,2.815,0,0,0-.666,1.121,3.281,3.281,0,0,0,0,1.542c.1.21.175.455.281.666a2.143,2.143,0,0,0,.7.771,2.737,2.737,0,0,0,1.683.595c.315-.035.63-.07.911-.105.21-.105.455-.175.665-.28a2.129,2.129,0,0,0,.771-.7,1.886,1.886,0,0,0,.386-.631,1.839,1.839,0,0,0,.21-1.051,2.5,2.5,0,0,0-.385-1.4,6.6,6.6,0,0,0-.456-.56,2.428,2.428,0,0,0-.876-.6,1.6,1.6,0,0,0-.7-.175,2.43,2.43,0,0,0-1.121.035.265.265,0,0,0-.14.035l.735-.105h-.07l-.735.105a1.71,1.71,0,0,0-.947.525,1.271,1.271,0,0,0-.525.526,2.273,2.273,0,0,0-.526.946h0c1.051-.6,2.138-1.226,3.189-1.787h-.07c.21.07.42.175.631.245h-.035l.911.911a.034.034,0,0,0-.035-.035c-.246.947-.526,1.928-.771,2.874.035,0,.035,0,.07-.035l.42-.315.316-.421a2.519,2.519,0,0,0,.245-1.332,1.661,1.661,0,0,0-.421-.981,1.042,1.042,0,0,0-.876-.911Z"/><path class="p" d="M167.843,100.754a1.43,1.43,0,0,0,.7.911,1.395,1.395,0,0,0,1.472,0,1.623,1.623,0,0,0,.7-.911,1.5,1.5,0,0,0-1.4-1.857,1.449,1.449,0,0,0-1.472,1.857Z"/><path class="p" d="M150.462,110.215a.533.533,0,0,0-.315.666c.105.035.21.035.315.07"/><path class="p" d="M149.972,109.444c-.035.036-.105.036-.141.071.141-.035.316-.071.491-.106a1.285,1.285,0,0,0-.876.176,1.6,1.6,0,0,0-.561.63,1.186,1.186,0,0,0-.07.7,1.376,1.376,0,0,0,1.157,1.157,1.357,1.357,0,0,0,1.331-.631,1.452,1.452,0,0,0,.175-.666,1.324,1.324,0,0,0-.42-.946V109.8c.07.07.14.175.21.245-.035-.035-.07-.105-.1-.14-.035.386-.105.771-.14,1.156l.1-.105a.924.924,0,0,0,.245-.665.969.969,0,0,0-.175-.561.937.937,0,0,0-1.226-.281Z"/><path class="p" d="M155.228,98.827a.444.444,0,0,1-.035.21.753.753,0,0,1,.771-.6"/><path class="p" d="M155.228,102.156a3.1,3.1,0,0,0,1.262-.246,2.569,2.569,0,0,0,1.016-.666,2.854,2.854,0,0,0,.666-1.016,2.546,2.546,0,0,0,.245-1.261,3.114,3.114,0,0,0-3.189-3.189,3.116,3.116,0,0,0-1.261.245,2.576,2.576,0,0,0-1.017.666,2.863,2.863,0,0,0-.666,1.016,2.55,2.55,0,0,0-.245,1.262,3.235,3.235,0,0,0,.911,2.277,3.535,3.535,0,0,0,2.278.912Z"/><path class="p" d="M151.934,74.542c.035.105.035.175.07.28.105.035.175.035.28.07"/><path class="p" d="M150.673,74.857a.829.829,0,0,1,.07.281,1.29,1.29,0,0,0,1.577.911,1.208,1.208,0,0,0,.77-.6,1.571,1.571,0,0,0,.141-.981c0-.1-.035-.175-.035-.281a1.182,1.182,0,0,0-.6-.77,1.606,1.606,0,0,0-.981-.141,1.284,1.284,0,0,0-.946,1.577Z"/><path class="p" d="M214.485,135.061a1.262,1.262,0,0,0,0-2.523,1.262,1.262,0,0,0,0,2.523Z"/><path class="p" d="M229.974,131.591a.954.954,0,0,1,.21-.42c-.525-.07-.7.42-.946.771"/><path class="p" d="M228.222,127.947a4.627,4.627,0,0,0-1.367,1.367c-.1.28-.245.595-.385.876a3.168,3.168,0,0,0-.14.981c.315-.806.7-1.647,1.016-2.453a3.971,3.971,0,0,0-.911,1.577,3.515,3.515,0,0,0,1.577,3.96,6.624,6.624,0,0,0,.876.385l-2.453-2.453a3.571,3.571,0,0,0,.981,1.682c.245.175.526.421.736.6a9.53,9.53,0,0,1,.876.385,9.735,9.735,0,0,1,.981.141,9.158,9.158,0,0,0,.981-.141,9.546,9.546,0,0,0,.877-.385c.245-.175.525-.421.735-.6.176-.245.421-.525.6-.736a3.31,3.31,0,0,0,.456-1.4,2.322,2.322,0,0,0,0-.982,1.814,1.814,0,0,0-.246-.946,1.5,1.5,0,0,0-.49-.806,2.013,2.013,0,0,0-.666-.665,1.922,1.922,0,0,0-.806-.491,1.737,1.737,0,0,0-.946-.245,2.318,2.318,0,0,0-.981,0,1.974,1.974,0,0,0-1.3.35Z"/><path class="p" d="M217.814,117.574c.035.106.035.176.071.281.105.035.175.035.28.07"/><path class="p" d="M217.114,116.874l.1-.106a1.269,1.269,0,0,0-.456,1.718c.035.035.07.1.1.14a1.478,1.478,0,0,0,1.437.7,1.436,1.436,0,0,0,1.191-1.017,1.5,1.5,0,0,0-.385-1.4,1.385,1.385,0,0,0-1.717-.211.265.265,0,0,1-.14.07c.21-.07.455-.105.63-.175h-.07c.176.035.316.1.526.14h-.035a1.013,1.013,0,0,0-.631-.105.822.822,0,0,0-.56.246Z"/><path class="p" d="M220.758,101.385a3.392,3.392,0,0,0,1.051-.07c-.07-.526-1.366-.281-1.787-.281"/><path class="p" d="M218.375,102.05c.245,1.332,1.507,1.928,2.628,2.313a3.22,3.22,0,0,0,2.418-.315,3.44,3.44,0,0,0,1.472-1.892,3.236,3.236,0,0,0-.806-3.224,3.791,3.791,0,0,0-1.577-.911,4.316,4.316,0,0,0-1.156-.141,3.439,3.439,0,0,0-1.858.491,3.133,3.133,0,0,0-1.121,1.121,3.393,3.393,0,0,0-.42,1.542,3,3,0,0,0,.42,1.542A3.117,3.117,0,0,0,219.5,103.7a6.55,6.55,0,0,0,1.157.456c-.245-.105-.526-.21-.736-.315.07.035.1.07.14.07-.21-.175-.455-.316-.666-.526l.07.07c-.175-.21-.315-.455-.525-.666.1.141.14.211.28.421a3.1,3.1,0,0,0,.946.841c-.21-.175-.455-.315-.666-.526l.036.035V99.072a.279.279,0,0,1-.141.14,7.344,7.344,0,0,0,.631-.491,4.444,4.444,0,0,0-.946.7,2.814,2.814,0,0,0-.7,2.628Z"/><path class="p" d="M192.794,125.494a1.684,1.684,0,0,0,1.191-2.873,1.825,1.825,0,0,0-1.191-.491A1.685,1.685,0,0,0,191.6,125a1.73,1.73,0,0,0,1.192.491Z"/><path class="p" d="M214.135,159.7a2.677,2.677,0,0,0,1.927-.806,2.342,2.342,0,0,0,.561-.876,1.787,1.787,0,0,0,.21-1.052,2.676,2.676,0,0,0-.806-1.927,2.822,2.822,0,0,0-1.927-.806,2.673,2.673,0,0,0-1.927.806,2.334,2.334,0,0,0-.561.876,1.785,1.785,0,0,0-.21,1.051,2.752,2.752,0,0,0,2.733,2.734Z"/><path class="p" d="M224.437,143.716c.106.035.176.035.281.07.035.106.035.176.07.281"/><path class="p" d="M224.788,144.277c.035,0,.035-.035.07-.035h0c-.14-.035-.28-.07-.456-.1.071.07.141.1.176.175a.32.32,0,0,0,.49-.105c.035-.07.07-.175.1-.245a.458.458,0,0,0-.1-.456c-.07-.07-.105-.14-.175-.175a.61.61,0,0,0-.631-.14.593.593,0,0,0-.455.525.667.667,0,0,0,.245.6,1.081,1.081,0,0,0,.736-.035Z"/><path class="p" d="M230.325,156.121c-.035-.035-.07-.105-.1-.14a3.734,3.734,0,0,0-1.332-1.331,4.041,4.041,0,0,0-1.892-.526,3.672,3.672,0,0,0-1.893.526,3.731,3.731,0,0,0-1.331,1.331c-.035.035-.07.105-.1.14a4.2,4.2,0,0,0-.526,1.963,3.918,3.918,0,0,0,.526,1.962,3.838,3.838,0,0,0,6.658,0,4.211,4.211,0,0,0,.525-1.962,3.93,3.93,0,0,0-.525-1.963Z"/><path class="p" d="M233.654,146.555a1,1,0,0,0,0-2,1,1,0,0,0,0,2Z"/><path class="p" d="M204.919,123.847a.65.65,0,0,0-.736.736"/><path class="p" d="M204.183,121.149a4.374,4.374,0,0,0-.876.315,6.238,6.238,0,0,0-.561.456,2.338,2.338,0,0,0-.561.876,1.594,1.594,0,0,0-.175.7,2.43,2.43,0,0,0,.035,1.121,3.587,3.587,0,0,0,.7,1.226,2.334,2.334,0,0,0,.876.561,1.785,1.785,0,0,0,1.051.21h.141l-.736-.1a.129.129,0,0,1,.1.035,2.752,2.752,0,0,0,3.5-2.663,2.753,2.753,0,0,0-.806-1.962,2.678,2.678,0,0,0-1.226-.7,2.626,2.626,0,0,0-1.472-.07Z"/><path class="p" d="M192.794,158.084l-.386-.386"/><path class="p" d="M194.3,156.577l-.211-.21a2.177,2.177,0,0,0-1.506-.631,2.155,2.155,0,0,0-2.138,2.138,2.177,2.177,0,0,0,.631,1.506l.21.211a2.183,2.183,0,0,0,1.507.63,2.04,2.04,0,0,0,1.507-.63,2.179,2.179,0,0,0,.63-1.507,2.349,2.349,0,0,0-.63-1.507Z"/><path class="p" d="M102.629,156.227a3.606,3.606,0,0,0,2.348-.947,2.651,2.651,0,0,0,.7-1.051,2.7,2.7,0,0,0,.28-1.3,3.234,3.234,0,0,0-3.294-3.295,3.606,3.606,0,0,0-2.348.947,2.641,2.641,0,0,0-.7,1.051,2.705,2.705,0,0,0-.28,1.3,3.431,3.431,0,0,0,.946,2.347,3.311,3.311,0,0,0,2.348.947Z"/><path class="p" d="M119.555,163.06a1.685,1.685,0,0,0,1.191-2.874,1.731,1.731,0,0,0-1.191-.49,1.685,1.685,0,0,0-1.192,2.873,1.9,1.9,0,0,0,1.192.491Z"/><path class="p" d="M137.847,131.171c.035.035.035.07.07.105a3.621,3.621,0,0,0,1.262,1.262,3.581,3.581,0,0,0,1.752.49,3.168,3.168,0,0,0,1.752-.49,3.627,3.627,0,0,0,1.261-1.262c.035-.035.035-.07.07-.105a3.6,3.6,0,0,0,.491-1.787,3.192,3.192,0,0,0-.491-1.787,3.59,3.59,0,0,0-3.048-1.753,3.516,3.516,0,0,0-3.049,1.753,3.61,3.61,0,0,0-.491,1.787,2.766,2.766,0,0,0,.421,1.787Z"/><path class="p" d="M178.426,69.286a1.4,1.4,0,1,0-1.4-1.4,1.363,1.363,0,0,0,1.4,1.4Z"/><path class="p" d="M120.29,80.78c-.035-.6.6-.666.736-1.122"/><path class="p" d="M123.97,79.763v-.07c.035.316.07.666.14,1.016v-.14a9.415,9.415,0,0,1-.14.981v-.035a9.492,9.492,0,0,1,.14-.981,2.741,2.741,0,0,0-.315-1.472,1.734,1.734,0,0,0-.491-.841,2.832,2.832,0,0,0-1.051-.981h0c.561,1.367,1.121,2.769,1.682,4.135.035-.21.07-.385.105-.631a2.861,2.861,0,0,0-.07-1.436,5.987,5.987,0,0,0-.386-.841,2.756,2.756,0,0,0-.841-.946,3.59,3.59,0,0,0-.876-.526,2.726,2.726,0,0,0-1.4-.28l-.946.1a3.927,3.927,0,0,0-.877.385c-.035.035-.07.035-.105.07.946-.105,1.893-.245,2.839-.385h-.035a9.415,9.415,0,0,1-.981-.14,2.737,2.737,0,0,0-1.472.315,1.718,1.718,0,0,0-.841.491,2.816,2.816,0,0,0-.981,1.051,4.686,4.686,0,0,0-.6,2.173,4.061,4.061,0,0,0,1.121,2.733,3.576,3.576,0,0,0,1.682.981,3.165,3.165,0,0,0,1.507.07,3.021,3.021,0,0,0,1.437-.455,2.851,2.851,0,0,0,1.051-.982,3.588,3.588,0,0,0,.7-1.3,4.139,4.139,0,0,0,0-2.068Z"/><path class="p" d="M161.15,162.114a.691.691,0,0,0-.42.21c0-.07.035-.14.035-.21"/><path class="p" d="M162.9,161.763c0-.035,0-.035-.035-.07a2.123,2.123,0,0,0-.56-.981,5.143,5.143,0,0,0-.456-.315,1.656,1.656,0,0,0-.806-.246,1.7,1.7,0,0,0-.6,0,1.019,1.019,0,0,0-.56.141.869.869,0,0,0-.491.28,1.72,1.72,0,0,0-.6.631c0,.035-.035.035-.035.07a2.139,2.139,0,0,0,0,2.277,2.532,2.532,0,0,0,.806.806,1.794,1.794,0,0,0,.841.246,1.862,1.862,0,0,0,.877-.035,1.925,1.925,0,0,0,.981-.6,2.232,2.232,0,0,0,.63-2.208Z"/></g><path class="q" d="M67.656,252.314c-7.744.385-11.774-3.329-12.51,2.593-.736,5.887-3.014,33.15,6.273,36.059,7.008,2.208,3.889-5.677,5.536-12.16,1.472-5.887,5.082-15.8,4.416-15.839Z"/><path class="q" d="M216.343,278.421c0,8.48,2.733,18.712,8.094,16.189s32.31-15.629,29.822-25.02c-1.857-7.079-6.9-.281-13.211,1.822-5.747,1.892-13.667,3.119-13.317,3.715Z"/><path class="g" d="M160.169,68.059a1.586,1.586,0,0,0-1.437.561c-4.625,5.677-9.321,12.195-7.534,22.112,1.542,8.655.491,25.09-4.03,33.606a1.55,1.55,0,0,0,1.963,2.137c6.973-2.8,9.671-5.151,12.51-4.941a1.685,1.685,0,0,0,1.156-.35c7.394-6.2,11.529-21.061,8.656-27.509-2.944-6.623-7.359-18.783-5.151-21.726C168.054,69.566,162.447,68.409,160.169,68.059Z"/><path class="g" d="M186.521,66.412c-3.4-.28-14.718-5.151-20.254-9.216-2.909-2.138-9.182,12.72-7.745,16.575,1.121,2.944,20.991,10.3,24.285,7.009C185.26,78.5,190.516,66.762,186.521,66.412Z"/><path class="r" d="M45.579,63.468c2.944,1.122,6.273,5.537,6.273,5.537"/><path class="r" d="M46.666,59.438c2.943,2.208,5.151,7.009,5.151,7.009"/><path class="r" d="M52.938,59.789c-.736-1.472-3.329-1.857-4.415-5.537"/><path class="r" d="M54.025,55.374c-.736-1.122-4.8-5.888-4.8-5.888"/><path class="r" d="M58.09,46.543c-.736-.736-3.68-2.593-3.68-4.8"/><path class="r" d="M63.241,43.985c-.386-1.122-1.857-7.009-.736-8.095"/><path class="r" d="M61.769,43.985c-.736-1.472-3.329-1.858-4.415-5.537"/><path class="r" d="M56.232,51.694c-.736-1.472-3.329-1.857-4.415-5.537"/><path class="r" d="M164.374,125.389c-.911-3.014.6-8.3.6-8.3"/><path class="r" d="M160.484,126.966c-.035-3.68,2.453-8.34,2.453-8.34"/><path class="r" d="M156.98,121.78c-.736,1.471.526,3.749-1.717,6.868"/><path class="r" d="M152.81,123.567c-.42,1.261-1.787,7.359-1.787,7.359"/><path class="r" d="M146.012,131.977c.771-1.472-.456-3.75,1.857-6.833"/><path class="s" d="M174.151,61.366c-4.31-2.874-7.114-3.75-9.426-2.874-2.348.876-6.1,9.847-6.2,10.163-.491,1.612-1.051,3.644.035,5.642,1.051,1.927,3.5,3.4,7.429,4.52.035,0,.105.035.14.035a.569.569,0,0,0,.526-.385.532.532,0,0,0-.385-.666c-3.61-1.016-5.888-2.383-6.764-4s.14-5.046.176-5.151c.14-.07,3.329-8.3,5.431-9.076,1.927-.7,4.451.1,8.41,2.768a.56.56,0,0,0,.771-.14A.633.633,0,0,0,174.151,61.366Z"/></svg>