<svg xmlns="http://www.w3.org/2000/svg" xmlns:xlink="http://www.w3.org/1999/xlink" viewBox="0 0 300 300"><defs><style>.a,.k{fill:none;}.b{fill:#a4d2fc;}.c{fill:#465cff;}.d,.o{fill:#fff;}.e{fill:#ffeb7d;}.f{clip-path:url(#a);}.g,.n{fill:#f9c126;}.h,.i{fill:#ffc3a9;}.h,.i,.k,.l{stroke:#e89589;stroke-width:1.391px;}.h,.k,.l{stroke-linecap:round;stroke-linejoin:round;}.i,.n{stroke-miterlimit:10;}.j{fill:#621cd1;}.l{fill:#e28584;}.m{fill:#ff5c76;}.n{stroke:#f9c126;stroke-width:0.348px;}.o{opacity:0.44;isolation:isolate;}</style><clipPath id="a"><path class="a" d="M188.945,183.729c-11.788-16.2-39.084-18.673-47.116-19.055v-.07s-.418,0-1.113.035c-.73-.035-1.113-.035-1.113-.035v.07c-8.032.382-35.328,2.851-47.116,19.055-13.909,19.125-18.429,41.031-18.429,51.115s4.833,19.473,26.044,19.82c13.457.209,30.182.174,40.614.105,10.466.069,27.157.139,40.614-.105,21.246-.347,26.044-9.736,26.044-19.82S202.854,202.854,188.945,183.729Z"/></clipPath></defs><title>Learn Online</title><path class="b" d="M288.393,268.052H11.607A6.6,6.6,0,0,1,5,261.445H5a6.6,6.6,0,0,1,6.607-6.607H288.393A6.6,6.6,0,0,1,295,261.445h0A6.6,6.6,0,0,1,288.393,268.052Z"/><path class="b" d="M283.49,80.629H195.239a5.6,5.6,0,0,0-5.6,5.6v76.151a2.159,2.159,0,0,0,3.9,1.286l8.762-11.892a5.6,5.6,0,0,1,4.521-2.295h76.707a5.594,5.594,0,0,0,5.6-5.6V86.228A5.647,5.647,0,0,0,283.49,80.629Z"/><path class="c" d="M249.866,103.927H206.853a2.953,2.953,0,0,1-2.956-2.956h0a2.953,2.953,0,0,1,2.956-2.955h43.013a2.952,2.952,0,0,1,2.955,2.955h0A2.975,2.975,0,0,1,249.866,103.927Z"/><path class="d" d="M273.963,135.917H224.586a2.952,2.952,0,0,1-2.955-2.955h0a2.953,2.953,0,0,1,2.955-2.956h49.377a2.953,2.953,0,0,1,2.955,2.956h0A2.952,2.952,0,0,1,273.963,135.917Z"/><path class="c" d="M260.923,113.663h-54.07a2.953,2.953,0,0,1-2.956-2.956h0a2.953,2.953,0,0,1,2.956-2.955h54.07a2.953,2.953,0,0,1,2.956,2.955h0A2.953,2.953,0,0,1,260.923,113.663Z"/><path class="e" d="M188.945,183.729c-11.788-16.2-39.084-18.673-47.116-19.055v-.07s-.418,0-1.113.035c-.73-.035-1.113-.035-1.113-.035v.07c-8.032.382-35.328,2.851-47.116,19.055-13.909,19.125-18.429,41.031-18.429,51.115s4.833,19.473,26.044,19.82c13.457.209,30.182.174,40.614.105,10.466.069,27.157.139,40.614-.105,21.246-.347,26.044-9.736,26.044-19.82S202.854,202.854,188.945,183.729Z"/><g class="f"><path class="g" d="M99.406,208.417c-.625-.069-.8.557-.7,1.043"/><path class="g" d="M99.789,207.026a1.984,1.984,0,0,0-.626-.1c.139.035.278.035.417.07a2.388,2.388,0,0,0-2.886.973,2.512,2.512,0,0,0-.243,1.808,2.268,2.268,0,0,0,1.078,1.391,2.512,2.512,0,0,0,1.808.244,2.275,2.275,0,0,0,1.391-1.078c.069-.174.174-.383.243-.557a1.712,1.712,0,0,0,.035-.938,1.609,1.609,0,0,0-.278-.87,4.029,4.029,0,0,0-.487-.591l-.313,2.4a.123.123,0,0,0,.07-.034c-.105.034-.244.1-.348.139a.208.208,0,0,1,.139-.035,1.419,1.419,0,0,0,1.043-1.391,1.46,1.46,0,0,0-.208-.73,1.374,1.374,0,0,0-.835-.7Z"/><path class="g" d="M112.272,217.7a1.889,1.889,0,0,0,1.391-.591,2.1,2.1,0,0,0,.591-1.391,1.891,1.891,0,0,0-.591-1.39,2.1,2.1,0,0,0-1.391-.592,1.892,1.892,0,0,0-1.391.592,2.1,2.1,0,0,0-.591,1.39,1.891,1.891,0,0,0,.591,1.391,2.1,2.1,0,0,0,1.391.591Z"/><path class="g" d="M112.272,205.149a1.61,1.61,0,0,0,1.113-.452,1.525,1.525,0,0,0,.452-1.113,1.61,1.61,0,0,0-.452-1.113,1.677,1.677,0,0,0-1.113-.452,1.612,1.612,0,0,0-1.113.452,1.525,1.525,0,0,0-.452,1.113,1.616,1.616,0,0,0,.452,1.113,1.677,1.677,0,0,0,1.113.452Z"/><path class="g" d="M102.884,189.64c-.105.07-.174.139-.278.209-.035-.07-.035-.139-.07-.209"/><path class="g" d="M103.405,188.458h0a1.5,1.5,0,0,0-1.425-.1,1.6,1.6,0,0,0-.522.313,1.432,1.432,0,0,0-.417.695v.035c-.035.139-.035.278-.07.417.035.139.035.278.07.417a1.764,1.764,0,0,0,.417.7,1.668,1.668,0,0,0,1.773.348,1.646,1.646,0,0,0,.974-1.252,1.737,1.737,0,0,0-.1-.835,2.313,2.313,0,0,0-.7-.73Z"/><path class="g" d="M115.749,189.988c-.1.035-.173.035-.278.07a2.672,2.672,0,0,1-.417.973"/><path class="g" d="M114.637,188.076a1.469,1.469,0,0,1-.244.173,2.468,2.468,0,0,0-.869,1.009,2.018,2.018,0,0,0-.1,1.356v.069a2.1,2.1,0,0,0,1.7,1.5,2.268,2.268,0,0,0,1.078-.139,1.917,1.917,0,0,0,.974-.835c0-.035.035-.035.035-.07-.8.313-1.565.626-2.365.974.07,0,.174.035.244.035a2.277,2.277,0,0,0,1.182,0,2.12,2.12,0,0,0,1.565-2.4,2.212,2.212,0,0,0-1.043-1.6,2.01,2.01,0,0,0-2.156-.069Z"/><path class="g" d="M112.272,178.861a.813.813,0,0,0-.348.7"/><path class="g" d="M112.272,180.6a1.771,1.771,0,0,0,1.217-.522,1.84,1.84,0,0,0,.522-1.217,1.771,1.771,0,0,0-.522-1.217,1.84,1.84,0,0,0-1.217-.522,1.771,1.771,0,0,0-1.217.522,1.839,1.839,0,0,0-.521,1.217,1.766,1.766,0,0,0,.521,1.217,1.707,1.707,0,0,0,1.217.522Z"/><path class="g" d="M128.267,185.815a1.043,1.043,0,0,0,0-2.086,1.043,1.043,0,0,0,0,2.086Z"/><path class="g" d="M86.541,197.986a1.369,1.369,0,0,0,.7,1.043"/><path class="g" d="M86.541,200.559a2.525,2.525,0,0,0,1.808-.765,2.745,2.745,0,0,0,.765-1.808,2.526,2.526,0,0,0-.765-1.809,2.676,2.676,0,0,0-1.808-.765,2.528,2.528,0,0,0-1.808.765,2.747,2.747,0,0,0-.765,1.809,2.521,2.521,0,0,0,.765,1.808,2.672,2.672,0,0,0,1.808.765Z"/><path class="g" d="M84.594,217.667a2.205,2.205,0,0,1-.244-.07.616.616,0,0,0-.765.556.583.583,0,0,0,.765.557c.07-.035.174-.035.244-.07a.507.507,0,0,0,0-.973Z"/><path class="g" d="M94.191,232.514a2.282,2.282,0,0,0,1.182-.278,2.621,2.621,0,0,0,.974-.626,1.971,1.971,0,0,0,.625-.973,2.368,2.368,0,0,0,.279-1.183,3.051,3.051,0,0,0-.9-2.155,3.181,3.181,0,0,0-2.156-.905,2.284,2.284,0,0,0-1.183.279,2.6,2.6,0,0,0-.973.626,1.966,1.966,0,0,0-.626.973,2.366,2.366,0,0,0-.278,1.182,3.047,3.047,0,0,0,.9,2.156,3.11,3.11,0,0,0,2.156.9Z"/><path class="g" d="M77.848,230.88a1.27,1.27,0,0,0,1.252-1.252,1.294,1.294,0,0,0-1.252-1.251,1.269,1.269,0,0,0-1.252,1.251,1.293,1.293,0,0,0,1.252,1.252Z"/><path class="g" d="M92.869,218.223a1,1,0,0,0-.1.556,1.335,1.335,0,0,0,.313.765,1.173,1.173,0,0,0,.765.313,1.078,1.078,0,0,0,.765-.313,1.171,1.171,0,0,0,.313-.765,1,1,0,0,0-.1-.556,1.388,1.388,0,0,0-.348-.522.945.945,0,0,0-.591-.208,1.125,1.125,0,0,0-.487.139,1.207,1.207,0,0,0-.522.591Z"/><path class="g" d="M126.181,241.451a.81.81,0,0,0-.695-.348"/><path class="g" d="M125.486,243.537a2.512,2.512,0,0,0,1.7-.695,1.518,1.518,0,0,0,.487-.765,2.071,2.071,0,0,0,.209-.939,2.515,2.515,0,0,0-.7-1.7,2.42,2.42,0,0,0-1.7-.695,2.514,2.514,0,0,0-1.7.695,1.524,1.524,0,0,0-.487.765,2.071,2.071,0,0,0-.209.939,2.375,2.375,0,0,0,2.4,2.4Z"/><path class="g" d="M146.7,224.76c-.035-.069-.035-.139-.07-.208-.1.069-.174.139-.278.208"/><path class="g" d="M146.523,226.986a2.5,2.5,0,0,0,1.669-.7,2.341,2.341,0,0,0,.695-1.669,2.424,2.424,0,0,0-.695-1.669,2.352,2.352,0,0,0-3.338,0,2.342,2.342,0,0,0-.7,1.669,2.429,2.429,0,0,0,.7,1.669,2.568,2.568,0,0,0,1.669.7Z"/><path class="g" d="M147.74,210.5l-.348.347"/><path class="g" d="M147.392,209.912c-.069.07-.174.1-.243.174h.765a.949.949,0,0,0-1.183.139.935.935,0,0,0,1.322,1.322.949.949,0,0,0,.139-1.183v.765c.069-.069.1-.173.174-.243a.718.718,0,0,0-.974-.974Z"/><path class="g" d="M164.709,204.523c-.035-.035-.07-.1-.1-.139a1.431,1.431,0,0,0-2.434,0c-.034.034-.069.1-.1.139a1.528,1.528,0,1,0,2.643,0Z"/><path class="g" d="M163.04,189.084a2.525,2.525,0,0,0,1.808-.765,2.112,2.112,0,0,0,.521-.835,1.655,1.655,0,0,0,.209-1.008,2.524,2.524,0,0,0-.765-1.808,2.676,2.676,0,0,0-1.808-.765,2.524,2.524,0,0,0-1.808.765,2.1,2.1,0,0,0-.522.834,1.665,1.665,0,0,0-.209,1.009,2.613,2.613,0,0,0,2.574,2.573Z"/><path class="g" d="M180.078,187.9a.81.81,0,0,1-.348.7"/><path class="g" d="M177.887,187.311h0a2.712,2.712,0,0,1,.209-.522c-.035.035-.035.07-.07.139.452-.348.939-.73,1.391-1.078-.035,0-.035,0-.069.035a1.651,1.651,0,0,0-.835.452,1.123,1.123,0,0,0-.452.452,2.431,2.431,0,0,0-.452.835c-.035.208-.069.452-.1.66.035.209.069.452.1.661a1.652,1.652,0,0,0,.452.834,1.129,1.129,0,0,0,.452.452,2.424,2.424,0,0,0,.835.452,2.808,2.808,0,0,0,1.321,0,1.644,1.644,0,0,0,.835-.452,1.135,1.135,0,0,0,.452-.452,2.444,2.444,0,0,0,.452-.834c.034-.209.069-.452.1-.661-.035-.208-.07-.452-.1-.66a2.27,2.27,0,0,0-.626-1.078l-.035-.035c.209.348.417.695.591,1.043a1.491,1.491,0,0,0-.035-.174c-.069-.174-.139-.348-.243-.556a1.476,1.476,0,0,0-.591-.626.985.985,0,0,0-.487-.278,1.885,1.885,0,0,0-.869-.209,2.568,2.568,0,0,0-1.148.313,1.476,1.476,0,0,0-.626.591,1,1,0,0,0-.452.7Z"/><path class="g" d="M180.426,203.549c-.1.035-.174.035-.279.07-.034.1-.034.174-.069.278"/><path class="g" d="M180.426,202.715h-.279a.838.838,0,0,0-.765.452c-.034.034-.034.1-.069.139a2.282,2.282,0,0,0-.139.521.93.93,0,0,0,.8.9.91.91,0,0,0,1.008-.66,1.021,1.021,0,0,0,.07-.452c-.14.243-.279.521-.452.765.069-.035.173-.07.243-.1a.841.841,0,0,0,.382-.938.855.855,0,0,0-.8-.626Z"/><path class="g" d="M170.376,172.219h0a1.632,1.632,0,0,0-.417.7,1.56,1.56,0,0,0,.07.973,1.439,1.439,0,0,0,1.356.905,1.6,1.6,0,0,0,1.286-.731,1.526,1.526,0,0,0-.243-1.808l-.035-.035a1.428,1.428,0,0,0-2.017,0Z"/><path class="g" d="M150.869,177.435c-.382.035-.487.174-.313.383a10.138,10.138,0,0,0,1.009-.174"/><path class="g" d="M151.391,175.558h-.07c.279.173.591.347.87.521l-.035-.035a2.717,2.717,0,0,0-1.043-.626,2.551,2.551,0,0,0-1.252,0,2.021,2.021,0,0,0-1.043.626,2.7,2.7,0,0,0-.626,1.044,2.958,2.958,0,0,0,0,1.46c.1.209.174.417.278.626a1.928,1.928,0,0,0,.661.73,2.421,2.421,0,0,0,1.6.556c.313-.034.591-.069.87-.1.208-.1.417-.174.625-.278a1.931,1.931,0,0,0,.731-.661,1.275,1.275,0,0,0,.347-.591,1.709,1.709,0,0,0,.209-1.008,2.5,2.5,0,0,0-.348-1.322l-.417-.521a2.2,2.2,0,0,0-.835-.557,1.438,1.438,0,0,0-.66-.173,2.12,2.12,0,0,0-1.043.034.26.26,0,0,0-.139.035c.243-.035.452-.069.695-.1h-.07c-.243.035-.452.069-.695.1a1.929,1.929,0,0,0-.9.487,1.3,1.3,0,0,0-.487.487,2.083,2.083,0,0,0-.487.9h0c1.009-.557,2.017-1.148,3.025-1.7h-.069c.209.07.382.174.591.243h-.035l.87.87a.034.034,0,0,0-.035-.035q-.366,1.356-.73,2.712c.034,0,.034,0,.069-.035a3.657,3.657,0,0,0,.383-.313,3.54,3.54,0,0,1,.313-.382,2.259,2.259,0,0,0,.243-1.252,1.87,1.87,0,0,0-.382-.939,1.393,1.393,0,0,0-.974-.8Z"/><path class="g" d="M143.637,196.351a1.518,1.518,0,0,0,.66.87,1.267,1.267,0,0,0,1.391,0,1.635,1.635,0,0,0,.661-.87,1.39,1.39,0,0,0-1.321-1.738,1.36,1.36,0,0,0-1.391,1.738Z"/><path class="g" d="M127.224,205.288a.522.522,0,0,0-.313.626c.105.034.209.034.313.069"/><path class="g" d="M126.772,204.558c-.035.034-.1.034-.139.069.139-.035.313-.069.452-.1a1.182,1.182,0,0,0-.834.174,1.4,1.4,0,0,0-.522.591,1.068,1.068,0,0,0-.07.66,1.254,1.254,0,0,0,1.078,1.078,1.274,1.274,0,0,0,1.252-.591,1.294,1.294,0,0,0,.174-.626,1.429,1.429,0,0,0-.382-.9v-.034c.069.069.139.173.208.243-.035-.035-.069-.1-.1-.139-.035.348-.1.73-.139,1.078l.1-.1a.841.841,0,0,0,.244-.625.856.856,0,0,0-.174-.522.878.878,0,0,0-1.148-.243Z"/><path class="g" d="M131.745,194.508a.44.44,0,0,1-.035.209.714.714,0,0,1,.73-.556"/><path class="g" d="M131.745,197.673a2.772,2.772,0,0,0,1.182-.244,2.728,2.728,0,0,0,1.6-1.6,2.263,2.263,0,0,0,.244-1.183,2.972,2.972,0,0,0-3.025-3.025,2.773,2.773,0,0,0-1.183.244,2.728,2.728,0,0,0-1.6,1.6,2.271,2.271,0,0,0-.244,1.182,3.082,3.082,0,0,0,.87,2.156,3.383,3.383,0,0,0,2.156.87Z"/><path class="g" d="M128.615,171.559c.035.1.035.174.07.278.1.035.174.035.278.069"/><path class="g" d="M127.433,171.872a.811.811,0,0,1,.069.278,1.258,1.258,0,0,0,1.5.869,1.2,1.2,0,0,0,.73-.556,1.457,1.457,0,0,0,.139-.939c0-.1-.035-.174-.035-.278a1.171,1.171,0,0,0-.556-.73,1.491,1.491,0,0,0-.939-.139,1.2,1.2,0,0,0-.9,1.5Z"/><path class="g" d="M169.994,234.844a1,1,0,0,0-.974-.765c-.034-.1-.034-.174-.069-.278"/><path class="g" d="M173.054,233.245a4.306,4.306,0,0,0-1.078-1.843c-.243-.209-.522-.418-.765-.591a2.976,2.976,0,0,0-1.426-.452,1.651,1.651,0,0,0-1.008,0,2.976,2.976,0,0,0-1.426.452,1.423,1.423,0,0,0-.452.347,3.1,3.1,0,0,0-.973,1.043,2.521,2.521,0,0,0-.452,1.391,1.545,1.545,0,0,0,0,.974,2.67,2.67,0,0,0,.069.522c.139.312.244.591.383.9.208.278.417.556.66.834a3.658,3.658,0,0,0,1.7.974,4.1,4.1,0,0,0,2.052,0,5.946,5.946,0,0,0,1.078-.452c.243-.209.487-.383.73-.591a2.9,2.9,0,0,0,.765-1.183,1.72,1.72,0,0,0,.243-.939,3.218,3.218,0,0,0-.1-1.39Z"/><path class="g" d="M187.728,228.759a1.2,1.2,0,0,0,0-2.4,1.2,1.2,0,0,0,0,2.4Z"/><path class="g" d="M202.332,225.456a.684.684,0,0,1,.209-.383c-.487-.069-.661.383-.9.73"/><path class="g" d="M200.7,222.013a4.138,4.138,0,0,0-1.287,1.287c-.1.278-.243.556-.347.834a2.912,2.912,0,0,0-.14.939c.313-.765.661-1.565.974-2.33a4.043,4.043,0,0,0-.869,1.5,3.406,3.406,0,0,0,0,1.773,3.628,3.628,0,0,0,1.5,1.947,3.543,3.543,0,0,0,.834.348l-2.329-2.33a3.426,3.426,0,0,0,.939,1.6c.243.174.486.382.7.556.278.1.556.243.835.348a8.663,8.663,0,0,1,.938.139,8.936,8.936,0,0,0,.939-.139c.278-.1.557-.244.835-.348.243-.174.487-.382.695-.556.174-.244.383-.487.557-.7a2.956,2.956,0,0,0,.417-1.321,2.156,2.156,0,0,0,0-.939,1.683,1.683,0,0,0-.244-.9,1.55,1.55,0,0,0-.452-.765,1.79,1.79,0,0,0-.625-.626,1.729,1.729,0,0,0-.765-.452,1.607,1.607,0,0,0-.9-.243,2.126,2.126,0,0,0-.939,0,2.6,2.6,0,0,0-1.252.382Z"/><path class="g" d="M190.857,212.242c.035.105.035.174.07.278.1.035.174.035.278.07"/><path class="g" d="M190.2,211.582l.1-.1a1.2,1.2,0,0,0-.417,1.635c.034.034.069.1.1.139a1.425,1.425,0,0,0,1.356.66,1.3,1.3,0,0,0,1.113-.973,1.431,1.431,0,0,0-.348-1.322,1.365,1.365,0,0,0-1.634-.208.272.272,0,0,1-.139.069c.208-.069.417-.1.591-.174h-.07c.174.035.313.1.487.139h-.035a.9.9,0,0,0-.591-.1.734.734,0,0,0-.521.244Z"/><path class="g" d="M193.639,196.942a3.222,3.222,0,0,0,1.008-.069c-.069-.487-1.286-.278-1.7-.278"/><path class="g" d="M191.379,197.568c.243,1.252,1.426,1.808,2.469,2.191a2.938,2.938,0,0,0,2.295-.313,3.35,3.35,0,0,0,1.391-1.773,3.108,3.108,0,0,0-.765-3.06A3.562,3.562,0,0,0,194.2,193.6a3.337,3.337,0,0,0-1.738.452,3,3,0,0,0-1.043,1.044,2.974,2.974,0,0,0,0,2.92,2.994,2.994,0,0,0,1.043,1.044,4.083,4.083,0,0,0,1.078.417c-.244-.1-.487-.209-.7-.313.07.035.1.069.139.069-.208-.173-.417-.313-.625-.486l.069.069c-.174-.208-.313-.417-.487-.626.1.139.139.209.278.383a3.348,3.348,0,0,0,.9.8c-.208-.173-.417-.312-.625-.486l.034.034v-4.242a.263.263,0,0,1-.139.139c.209-.139.383-.313.591-.452a4.014,4.014,0,0,0-.9.661,2.776,2.776,0,0,0-.7,2.538Z"/><path class="g" d="M167.212,219.718a1.608,1.608,0,0,0,1.113-.452,1.521,1.521,0,0,0,.452-1.113,1.608,1.608,0,0,0-.452-1.112,1.675,1.675,0,0,0-1.113-.452,1.608,1.608,0,0,0-1.112.452,1.522,1.522,0,0,0-.453,1.112,1.609,1.609,0,0,0,.453,1.113,1.672,1.672,0,0,0,1.112.452Z"/><path class="g" d="M187.38,252.022a2.528,2.528,0,0,0,1.808-.765,2.11,2.11,0,0,0,.522-.835,1.656,1.656,0,0,0,.208-1.008,2.524,2.524,0,0,0-.765-1.809,2.671,2.671,0,0,0-1.808-.764,2.528,2.528,0,0,0-1.808.764,2.119,2.119,0,0,0-.521.835,1.656,1.656,0,0,0-.209,1.008,2.613,2.613,0,0,0,2.573,2.574Z"/><path class="g" d="M197.116,236.93c.1.035.174.035.278.07.035.1.035.174.07.278"/><path class="g" d="M197.429,237.452c.035,0,.035-.035.07-.035h0l-.417-.1c.069.07.139.1.173.174a.284.284,0,0,0,.452-.1c.035-.07.07-.174.105-.244a.381.381,0,0,0-.105-.417c-.069-.07-.1-.139-.173-.174a.6.6,0,0,0-1.009.348.6.6,0,0,0,.244.556.733.733,0,0,0,.66,0Z"/><path class="g" d="M202.68,248.649c-.035-.035-.07-.1-.1-.139a3.507,3.507,0,0,0-6.051,0c-.035.034-.069.1-.1.139a3.738,3.738,0,0,0-.487,1.843,3.845,3.845,0,0,0,.487,1.843,3.612,3.612,0,0,0,6.259,0,3.744,3.744,0,0,0,.487-1.843,3.839,3.839,0,0,0-.487-1.843Z"/><path class="g" d="M205.809,239.608a.939.939,0,0,0,0-1.878.939.939,0,0,0,0,1.878Z"/><path class="g" d="M178.687,218.153a.625.625,0,0,0-.7.7"/><path class="g" d="M177.992,215.615a4.091,4.091,0,0,0-.835.313l-.522.417a2.119,2.119,0,0,0-.521.835,1.443,1.443,0,0,0-.174.661,2.109,2.109,0,0,0,.035,1.043,3.2,3.2,0,0,0,.66,1.147,2.122,2.122,0,0,0,.835.522,1.656,1.656,0,0,0,1.008.208h.14c-.244-.034-.453-.069-.7-.1a.126.126,0,0,1,.1.035,2.605,2.605,0,0,0,2.539-.661,2.665,2.665,0,0,0,.765-1.843,2.606,2.606,0,0,0-.765-1.843,2.547,2.547,0,0,0-1.148-.66,2.509,2.509,0,0,0-1.425-.07Z"/><path class="g" d="M167.212,250.492l-.347-.348"/><path class="g" d="M168.638,249.066l-.209-.209a2.121,2.121,0,0,0-1.425-.591,2.032,2.032,0,0,0-1.426.591,1.97,1.97,0,0,0-.591,1.426,2.19,2.19,0,0,0,.591,1.426l.209.208a2.116,2.116,0,0,0,1.425.591,2.027,2.027,0,0,0,1.426-.591,1.966,1.966,0,0,0,.591-1.425,2.193,2.193,0,0,0-.591-1.426Z"/><path class="g" d="M82.02,248.753a3.286,3.286,0,0,0,2.226-.9,3.48,3.48,0,0,0,.939-2.225A3.147,3.147,0,0,0,79.83,243.4a3.466,3.466,0,0,0-.939,2.226,3.087,3.087,0,0,0,3.129,3.129Z"/><path class="g" d="M98.016,255.186a1.608,1.608,0,0,0,1.112-.452,1.521,1.521,0,0,0,.452-1.113,1.607,1.607,0,0,0-.452-1.113,1.674,1.674,0,0,0-1.112-.452,1.608,1.608,0,0,0-1.113.452,1.525,1.525,0,0,0-.452,1.113,1.61,1.61,0,0,0,.452,1.113,1.675,1.675,0,0,0,1.113.452Z"/><path class="g" d="M102.988,239.782c0-.035.035-.105.035-.139a1.554,1.554,0,0,0-.417-1.565.034.034,0,0,1-.035-.035,1.677,1.677,0,0,0-1.113-.452c-.139.035-.278.035-.417.07a1.44,1.44,0,0,0-.7.417.034.034,0,0,0-.034.035,1.551,1.551,0,0,0-.418,1.564c0,.035.035.105.035.14a1.565,1.565,0,0,0,1.5,1.147,1.658,1.658,0,0,0,1.565-1.182Z"/><path class="g" d="M115.3,225.073c.035.035.035.07.07.1a3.492,3.492,0,0,0,1.182,1.183,3.307,3.307,0,0,0,3.338,0,3.5,3.5,0,0,0,1.183-1.183c.034-.034.034-.069.069-.1a3.206,3.206,0,0,0,.452-1.7,3.3,3.3,0,0,0-.452-1.7A3.39,3.39,0,0,0,118.253,220a3.315,3.315,0,0,0-2.886,1.669,3.208,3.208,0,0,0-.452,1.7,2.686,2.686,0,0,0,.382,1.7Z"/><path class="g" d="M153.651,166.621a1.322,1.322,0,1,0-1.321-1.321,1.3,1.3,0,0,0,1.321,1.321Z"/><path class="g" d="M98.711,177.47c-.035-.556.556-.626.7-1.043"/><path class="g" d="M102.188,176.5v-.069c.035.313.07.626.139.973v-.139a8.44,8.44,0,0,1-.139.939v-.035a8.957,8.957,0,0,1,.139-.938,2.473,2.473,0,0,0-.313-1.391,1.83,1.83,0,0,0-.452-.8,2.912,2.912,0,0,0-1.008-.939h0c.522,1.287,1.043,2.608,1.6,3.895.035-.209.07-.348.1-.592a2.578,2.578,0,0,0-.07-1.356c-.1-.278-.243-.556-.347-.8a2.877,2.877,0,0,0-.8-.9,2.2,2.2,0,0,0-.835-.487,2.446,2.446,0,0,0-1.321-.278c-.313.034-.591.069-.9.1a5.849,5.849,0,0,0-.835.348c-.034.034-.069.034-.1.069.9-.1,1.773-.243,2.677-.348h-.034a8.44,8.44,0,0,1-.939-.139,2.49,2.49,0,0,0-1.391.313,1.855,1.855,0,0,0-.8.452,2.924,2.924,0,0,0-.939,1.009,4.632,4.632,0,0,0-.556,2.051,3.78,3.78,0,0,0,1.043,2.573,3.561,3.561,0,0,0,1.6.939,2.859,2.859,0,0,0,1.425.07,3.1,3.1,0,0,0,1.356-.417,2.629,2.629,0,0,0,1.009-.939,3.192,3.192,0,0,0,.66-1.217,3.376,3.376,0,0,0,.035-1.948Z"/><path class="g" d="M137.308,254.317a.525.525,0,0,0-.382.208c0-.069.034-.139.034-.208"/><path class="g" d="M138.977,253.969c0-.035,0-.035-.035-.07a2.516,2.516,0,0,0-.521-.939l-.417-.313a1.531,1.531,0,0,0-.765-.243,1.491,1.491,0,0,0-.557,0,.906.906,0,0,0-.521.139.773.773,0,0,0-.452.278,1.516,1.516,0,0,0-.557.591c0,.035-.034.035-.034.07a2.084,2.084,0,0,0,0,2.156,2.293,2.293,0,0,0,.765.765,1.651,1.651,0,0,0,.8.243,1.7,1.7,0,0,0,.835-.034,2.187,2.187,0,0,0,.939-.557,2.216,2.216,0,0,0,.521-2.086Z"/></g><path class="h" d="M144.68,150.626c-.209.313.139,16.134.348,21,.1,1.982-.035,4.382-1.252,5.633a6.048,6.048,0,0,1-6.746,1.322c-1.912-.765-3.164-3.025-3.164-5.564l.174-19.542"/><path class="i" d="M114.428,109.317s-5.39,46.038,23.819,47.637c26.253,0,25.627-41.066,19.681-55.983"/><ellipse class="j" cx="146.532" cy="129.113" rx="2.608" ry="2.086" transform="translate(-11.949 243.243) rotate(-77.144)"/><path class="k" d="M137.482,132.44s.139,4.764.522,7.963c.173,1.391,2.016-.591,2.016-.591"/><path class="l" d="M151.182,123.817a5.417,5.417,0,0,0-5.111-.8"/><path class="l" d="M128.893,122.7s-3.407.487-4.624,1.912"/><path class="k" d="M139.568,147.392a1.912,1.912,0,0,1-1.738.348"/><ellipse class="j" cx="128.122" cy="129.374" rx="2.086" ry="2.608" transform="translate(-39.82 59.029) rotate(-22.552)"/><path class="m" d="M111.577,116.619c9.388,5.216,41.726,4.52,49.376.347-2.434-17.038-8.345-26.426-25.383-26.079S114.706,99.928,111.577,116.619Z"/><ellipse class="m" cx="151.391" cy="79.76" rx="16.517" ry="13.561"/><path class="j" d="M171.489,123.121a10.19,10.19,0,0,0-5.007-3.129c-1.008-.279-1.008-3.582-1.008-5.321a16.907,16.907,0,0,0-.07-2.051,37.316,37.316,0,0,0-1.7-7.3,29.634,29.634,0,0,0-6.885-11.127,26.087,26.087,0,0,0-41.657,5.911,39.353,39.353,0,0,0-4.624,14.917c-.07.557-.07,1.113-.105,1.669a20.686,20.686,0,0,1-.174,2.156c-.173.9-.452,1.043-1.391,1.391a2.112,2.112,0,0,0-.417.174,10.448,10.448,0,0,0-4.868,3.86C100.45,129,100.345,138,104.9,142.141a11.071,11.071,0,0,0,7.268,2.469,10.152,10.152,0,0,0,4.416-.939c2.4-1.182,1.252-4.763.417-7.406-.208-.626-.382-1.217-.487-1.669a83.172,83.172,0,0,1-1.634-9.806,29.081,29.081,0,0,1,2.782-15.16c4.033-8.659,11.753-14.118,20.133-14.257,8.171-.1,15.96,4.938,19.855,12.866a34.733,34.733,0,0,1,3.3,16.551,65.084,65.084,0,0,1-1.982,11.44l-.035.174c-.1.487-.278.974-.417,1.461-.487,1.564-1.008,3.233-.278,4.485a3.334,3.334,0,0,0,2.26,1.5c4.764,1.148,9.006.07,11.336-2.816C175.558,136.508,175.349,127.607,171.489,123.121Z"/><path class="c" d="M184.772,254.838H90.192a2.673,2.673,0,0,1-2.608-2.712h0a2.7,2.7,0,0,1,2.608-2.712h94.58a2.673,2.673,0,0,1,2.608,2.712h0A2.673,2.673,0,0,1,184.772,254.838Z"/><path class="c" d="M176.67,254.664H96.8a3.99,3.99,0,0,1-3.93-3.234L82.612,198.264a4,4,0,0,1,3.929-4.764H185.12a4,4,0,0,1,3.964,4.625l-8.45,53.166A4.028,4.028,0,0,1,176.67,254.664Z"/><path class="j" d="M279.77,254.838H226.082a2.909,2.909,0,0,1-2.887-2.921v-4.764a2.887,2.887,0,0,1,2.887-2.92h53.723a2.909,2.909,0,0,1,2.886,2.92v4.764A2.962,2.962,0,0,1,279.77,254.838Z"/><path class="n" d="M268.643,244.233H218.779a2.879,2.879,0,0,1-2.886-2.886V240.13a2.88,2.88,0,0,1,2.886-2.887h49.9a2.88,2.88,0,0,1,2.887,2.887v1.217A2.932,2.932,0,0,1,268.643,244.233Z"/><circle class="o" cx="136.439" cy="223.891" r="6.085"/><path class="m" d="M56.115,225.456H35.982a3.648,3.648,0,0,0-3.616,4.068l.347,3.338c-5.076.278-9.145,4.173-9.145,8.867,0,4.938,4.382,8.9,9.737,8.9.452,0,.869-.035,1.286-.07l.1,1.009a3.679,3.679,0,0,0,3.617,3.268H53.994A3.632,3.632,0,0,0,57.61,251.5L59.7,229.42A3.572,3.572,0,0,0,56.115,225.456Zm-22.776,21.7c-3.442,0-6.259-2.434-6.259-5.424,0-2.921,2.678-5.32,6.016-5.424l1.147,10.779A7.3,7.3,0,0,1,33.339,247.153Z"/><path class="b" d="M14.423,31.948H93.982a5.6,5.6,0,0,1,5.6,5.6v65.719a2.158,2.158,0,0,1-3.894,1.287L86.923,92.661a5.6,5.6,0,0,0-4.52-2.3H14.423a5.6,5.6,0,0,1-5.6-5.6V37.547A5.6,5.6,0,0,1,14.423,31.948Z"/><path class="c" d="M55.072,50.725H21a2.953,2.953,0,0,0-2.955,2.956h0A2.953,2.953,0,0,0,21,56.637H55.072a2.954,2.954,0,0,0,2.956-2.956h0A2.954,2.954,0,0,0,55.072,50.725Z"/><path class="d" d="M35.947,70.719H85.324a2.952,2.952,0,0,0,2.955-2.955h0a2.953,2.953,0,0,0-2.955-2.956H35.947a2.953,2.953,0,0,0-2.955,2.956h0A2.952,2.952,0,0,0,35.947,70.719Z"/><path class="c" d="M39.772,40.989H21a2.953,2.953,0,0,0-2.955,2.956v.174A2.952,2.952,0,0,0,21,47.074H39.772a2.953,2.953,0,0,0,2.956-2.955v-.174A2.954,2.954,0,0,0,39.772,40.989Z"/><path class="d" d="M23.777,81.151H85.324a2.953,2.953,0,0,0,2.955-2.956h0a2.952,2.952,0,0,0-2.955-2.955H23.777a2.953,2.953,0,0,0-2.956,2.955h0A2.954,2.954,0,0,0,23.777,81.151Z"/></svg>