<svg xmlns="http://www.w3.org/2000/svg" xmlns:xlink="http://www.w3.org/1999/xlink" viewBox="0 0 300 300"><defs><style>.a,.h,.j,.o,.t,.u,.v,.w,.y{fill:none;}.b,.e,.n{fill:#ffc3a9;}.b,.d,.e,.f,.n,.o{stroke:#e89589;}.b,.d,.g,.h,.j,.o,.p,.q,.t,.u,.v{stroke-linecap:round;stroke-linejoin:round;}.b,.d,.g,.h,.j,.n,.o,.p,.q,.t,.u,.v{stroke-width:1.006px;}.c,.s{fill:#621cd1;}.d,.g{fill:#efcabb;}.aa,.e,.f,.i,.k,.m,.n,.r,.s,.w,.x,.y,.z{stroke-miterlimit:10;}.aa,.e,.f,.i,.k,.m,.r,.s,.w,.x,.y,.z{stroke-width:0.335px;}.f{fill:#e89589;}.g,.h{stroke:#d6906b;}.i,.q{fill:#ff859b;stroke:#ff859b;}.j,.u,.v{stroke:#ff5c76;}.k{fill:#ffeb99;stroke:#ffeb7d;}.l{clip-path:url(#a);}.m{fill:#f9c126;stroke:#f9c126;}.p,.r,.z{fill:#465cff;}.p,.r,.w{stroke:#465cff;}.s,.t{stroke:#621cd1;}.u{stroke-dasharray:4.527 4.527;}.v{stroke-dasharray:3.664 3.664;}.aa,.x{fill:#3e9ff8;}.x,.y{stroke:#3e9ff8;}.aa,.z{stroke:#a4d2fc;}.ab{fill:#a4d2fc;}</style><clipPath id="a"><path class="a" d="M121.525,161.949c-5.7-9.052-13.243-45.093-12.907-49.451-4.024-5.7-14.417-9.053-17.769-14.082A9.152,9.152,0,0,1,94.7,88.861l4.359,4.024s9.421-9.857,9.387-12.4c3.654.905,6.538,12.237,28.33,7.543s32.353,8.214,39.729,21.625c-8.113,4.224-11.5,8.717-11.5,8.717l3.454,6.035s-3.185,3.855-6.873,1.508a126.251,126.251,0,0,0-7.711-13.41c2.682,12.4,9.387,35.538,11.734,44.255-5.7,3.688-4.694,5.364-17.1,3.352S121.525,161.949,121.525,161.949Z"/></clipPath></defs><title>Listen Music</title><path class="b" d="M108.282,194.973c-2.011,5.029-7.04,13.746,0,30.509s19.781,45.6,21.122,47.273,13.076,0,10.393-5.7S122.7,216.43,122.364,211.4s4.358-12.4,4.358-12.4Z"/><path class="b" d="M161.59,199c2.682,5.029,19.78,36.209,23.468,43.25s14.082,25.815,16.428,28.5,13.076,2.012,11.064-3.352-19.781-50.626-22.8-55.319-7.711-17.769-12.74-22.128S161.59,199,161.59,199Z"/><path class="c" d="M119.681,283.148c-3.185,3.185-10.594,8.482-3.352,11.4,6.2,2.515,16.931-6.2,19.278-7.543,2.212-1.274,11.4-3.688,10.393-8.047s-2.515-9.22-5.867-11.9c-1.341,2.682-8.717,6.035-11.064,5.7C127.9,275.269,121.693,281.137,119.681,283.148Z"/><path class="c" d="M224.922,281.774c3.52,2.045,8.18,4.693,2.346,9.085-4.693,2.649-13.31-1.609-15.657-2.782s-9.655-4.091-12.874-5.868c-3.218-1.743-3.218-5.565-2.648-8.18s2.078-8.047,2.782-6.873,12.774,1.743,14.048-.57c2.649,3.219,4.09,6.135,6.437,9.656A21.409,21.409,0,0,0,224.922,281.774Z"/><path class="d" d="M117.167,65.259c-.369-.57-4.895-3.118-5.465-.067s6.337,5.062,6.907,4.861"/><path class="b" d="M161.657,109.883c2.112,5.867,7.677,19.814,18.037,21.725,9.052,1.676,33.191-28.163,33.191-28.163l-5.7-7.375s-13.746,12.4-18.1,17.1c-3.621,3.889-9.12,7.007-13.109-3.252S161.657,109.883,161.657,109.883Z"/><path class="e" d="M103.253,95.5a.54.54,0,0,1-.3-.1l-.1-.067C97.956,91.711,82.97,80.748,83.64,66.13a96.34,96.34,0,0,1,4.895-25.815l1.643-4.694c-.905-3.688-1.274-6.3-1.073-7.812-.67-.2-1.039-1.207-1.106-2.883-.067-2.146.637-5.465,2.95-5.834h.168a.843.843,0,0,1,.67.3,2.991,2.991,0,0,1,.2.335,2.505,2.505,0,0,1,1.945-1.341,1.272,1.272,0,0,1,1.341,1.241,6.926,6.926,0,0,1,1.274-1.14,1.128,1.128,0,0,1,.57-.168c.771,0,1.308.906,1.676,1.878.235-.805.537-1.811.872-2.816,1.509-4.426,2.179-4.862,2.716-4.895h.1a1.016,1.016,0,0,1,.738.335c.637.771.268,2.716-.4,5.834l-.2,1c-.1.5-.3,1.61-.57,3.018-.737,3.855-1.978,10.292-2.682,13.042l-.436,2.816c-.033.134-2.179,14.282-2.179,20.216a28.148,28.148,0,0,0,10.863,22.061c2.313,1.777,3.386,3.755,3.218,5.867-.368,4.828-7.04,8.549-7.308,8.717A.541.541,0,0,1,103.253,95.5Z"/><path class="f" d="M102.482,13.024c1.14,0,.235,3.52-.369,6.571-.4,1.945-2.313,12.372-3.252,16.06L98.392,38.5s-2.179,14.249-2.179,20.284a28.745,28.745,0,0,0,11.064,22.463c8.716,6.7-4.024,13.746-4.024,13.746-5.029-3.688-19.78-14.417-19.11-28.833a93.759,93.759,0,0,1,4.862-25.648l1.709-4.861c-.637-2.582-1.676-7.309-.838-8.55a.627.627,0,0,1-.469.268c-.5,0-.838-1.039-.872-2.413-.067-1.643.436-5,2.515-5.3h.067c.771,0,.5,1.978.5,1.978s.905-2.682,2.313-2.682a.819.819,0,0,1,.268.034c.972.235.5,2.347.5,2.347a7.977,7.977,0,0,1,2.112-2.347.543.543,0,0,1,.3-.1c1.006,0,1.676,3.219,1.676,3.219s2.414-8.952,3.655-9.052c0-.034,0-.034.033-.034m0-1.006h-.134c-.905.1-1.71.939-3.151,5.264-.2.536-.369,1.106-.537,1.609a1.9,1.9,0,0,0-1.576-1.006,1.553,1.553,0,0,0-.838.269,4.553,4.553,0,0,0-.771.637,1.758,1.758,0,0,0-1.039-.771,2.555,2.555,0,0,0-.5-.068,2.6,2.6,0,0,0-1.945,1.006,1.311,1.311,0,0,0-.871-.3.58.58,0,0,0-.235.033c-2.816.436-3.42,4.325-3.353,6.337.067,1.877.537,2.749,1.073,3.151-.1,1.241.1,3.42,1.073,7.51l-1.609,4.56A95.709,95.709,0,0,0,83.137,66.2c-.3,6.37,2.247,12.807,7.577,19.043A66.666,66.666,0,0,0,102.549,95.8l.1.067a1,1,0,0,0,1.106.067c.3-.167,7.208-4.023,7.577-9.119.168-2.313-.972-4.425-3.419-6.3A27.7,27.7,0,0,1,97.252,58.855c0-5.9,2.146-19.982,2.179-20.116l.436-2.783c.738-2.782,1.945-9.186,2.682-13.042.269-1.408.47-2.481.57-2.983l.2-1.006c.7-3.353,1.073-5.3.3-6.27a1.355,1.355,0,0,0-1.14-.637Z"/><path class="g" d="M97.654,31.9c-1.039-2.683-1.844-9.22-.8-10.226s2.481,1.777,2.917,3.52"/><path class="h" d="M96.38,29.217c-2.045.269-2.749-2.816-2.581-5.733a16.358,16.358,0,0,1,1.24-4.023"/><path class="h" d="M93.43,27.239c-1.375.839-2.28-1.709-2.179-4.056a19.316,19.316,0,0,1,.737-3.722"/><path class="h" d="M88.971,27.474s.771,1.207,1.207-.771"/><path class="i" d="M106.1,198.829c1.945-5.23,14.919-34.03,14.919-36.041s41.406-8.885,42.747-9.556c1.341,2.347,6.873,14.886,9.723,21.457,4.358,10.058,8.717,21.458,8.717,21.458s-14.953-1.71-19.111,6.37c2.448,4.727,3.688,7.04,3.688,7.04s-5.867.168-8.549-1.844c-2.012-4.694-12.4-29.5-15.087-32.185-1.676,5.029-10.393,27.491-12.07,32.856a7.293,7.293,0,0,1-7.878.167c0-2.682,2.347-6.37,2.347-6.37S116.228,197.689,106.1,198.829Z"/><path class="j" d="M119.715,171.873s7.007-2.481,8.616-7.711"/><path class="j" d="M157.1,161.748c-.067.637,5.4,5.934,9.79,6.035"/><path class="j" d="M142.111,155.881s.2,8.181,1.106,9.22,3.018.3,3.018.3"/><path class="k" d="M121.525,161.949c-5.7-9.052-13.243-45.093-12.907-49.451-4.024-5.7-14.417-9.053-17.769-14.082-1.342-6.37,3.654-8.851,3.654-8.851l4.56,3.32s9.421-9.857,9.387-12.4c3.654.905,6.538,12.237,28.33,7.543s32.353,8.214,39.729,21.625c-8.717,3.688-11.466,9.756-11.466,9.756l3.42,5s-3.185,3.855-6.873,1.508a126.251,126.251,0,0,0-7.711-13.41c2.682,12.4,9.387,35.538,11.734,44.255-5.7,3.688-4.694,5.364-17.1,3.352S121.525,161.949,121.525,161.949Z"/><g class="l"><path class="m" d="M153.711,122.455l1.576.771,1.575.771-1.475.972-1.475.973-.1-1.744-.1-1.743m-.268-1.006a1.211,1.211,0,0,0-.3.134,1.069,1.069,0,0,0-.469.906l.1,1.743.1,1.743a1.063,1.063,0,0,0,.57.872,1.027,1.027,0,0,0,.7.067,1.191,1.191,0,0,0,.3-.134l1.475-.972,1.475-.973a1.022,1.022,0,0,0-.1-1.777l-1.575-.771-1.576-.771a1.016,1.016,0,0,0-.7-.067Z"/><path class="m" d="M155.052,109.916l-.872,1.509-.871,1.508-.872-1.542-.872-1.542h1.744l1.743.067m1.006-.2-.1-.3a.937.937,0,0,0-.871-.5H151.6a1.1,1.1,0,0,0-.905.5,1.033,1.033,0,0,0-.135.7l.1.3.872,1.542.871,1.542a.936.936,0,0,0,.872.5,1.1,1.1,0,0,0,.905-.5l.872-1.508.872-1.509a1.093,1.093,0,0,0,.134-.771Z"/><path class="m" d="M141.943,114.073l1.643-.637,1.643-.637-.268,1.744-.269,1.743-1.374-1.073-1.375-1.14M141,113.6a.567.567,0,0,0-.1.335.976.976,0,0,0,.369.939l1.374,1.073,1.375,1.073a1,1,0,0,0,1.006.134,1.065,1.065,0,0,0,.536-.47.565.565,0,0,0,.1-.335l.268-1.743.268-1.744a.978.978,0,0,0-.369-.938.994.994,0,0,0-1.006-.134l-1.642.637-1.643.637a2.025,2.025,0,0,0-.537.536Z"/><path class="m" d="M137.752,104.619l.537,1.676.536,1.676-1.71-.368-1.71-.369,1.174-1.308,1.173-1.307m.537-.872a1.211,1.211,0,0,0-.3-.134,1.026,1.026,0,0,0-.972.3l-1.174,1.307-1.173,1.308a1,1,0,0,0-.2,1.006,1.057,1.057,0,0,0,.436.57,1.2,1.2,0,0,0,.3.134l1.71.368,1.71.369a1.026,1.026,0,0,0,.972-.3,1.006,1.006,0,0,0,.2-1.006l-.536-1.677-.536-1.676a.866.866,0,0,0-.436-.57Z"/><path class="m" d="M147.609,101.769l1.576.771,1.576.771-1.476.973-1.475.972-.1-1.744-.1-1.743m-.268-1.006a1.211,1.211,0,0,0-.3.134,1.07,1.07,0,0,0-.469.906l.1,1.743.1,1.743a1.065,1.065,0,0,0,.57.872,1.028,1.028,0,0,0,.7.067,1.176,1.176,0,0,0,.3-.134l1.475-.972,1.475-.973a1.067,1.067,0,0,0,.469-.905,1,1,0,0,0-.57-.871l-1.575-.772-1.576-.771a1,1,0,0,0-.7-.067Z"/><path class="m" d="M151.9,92.348l-.872,1.509-.872,1.508-.872-1.542-.871-1.542h1.743l1.744.067m1-.2-.1-.3a.938.938,0,0,0-.872-.5h-3.487a1.1,1.1,0,0,0-.905.5,1.032,1.032,0,0,0-.134.7l.1.3.871,1.542.872,1.542a.936.936,0,0,0,.872.5,1.1,1.1,0,0,0,.905-.5l.871-1.508.872-1.509a1.093,1.093,0,0,0,.134-.771Z"/><path class="m" d="M138.792,96.539l1.642-.637,1.643-.637-.268,1.743-.268,1.744-1.375-1.073-1.374-1.14m-.939-.469a.565.565,0,0,0-.1.335.979.979,0,0,0,.369.939l1.375,1.072,1.374,1.073a1,1,0,0,0,1.006.134,1.055,1.055,0,0,0,.536-.469.56.56,0,0,0,.1-.335l.268-1.744.268-1.743a.978.978,0,0,0-.368-.939,1,1,0,0,0-1.006-.134l-1.643.637-1.643.637a1.377,1.377,0,0,0-.536.537Z"/><path class="m" d="M134.6,87.051l.536,1.676.537,1.677-1.71-.369-1.71-.369,1.173-1.308,1.174-1.307m.536-.872a1.2,1.2,0,0,0-.3-.134,1.028,1.028,0,0,0-.972.3l-1.173,1.307-1.174,1.308a1.008,1.008,0,0,0-.2,1.006,1.058,1.058,0,0,0,.436.57,1.211,1.211,0,0,0,.3.134l1.71.369,1.709.368a1.029,1.029,0,0,0,.973-.3,1.009,1.009,0,0,0,.2-1.006l-.537-1.677-.536-1.676a.949.949,0,0,0-.436-.57Z"/><path class="m" d="M165.747,122.757l1.643-.637,1.643-.637-.269,1.743-.268,1.744-1.374-1.073-1.375-1.14m-.905-.47a.57.57,0,0,0-.1.336.978.978,0,0,0,.369.938l1.375,1.073,1.374,1.073a1,1,0,0,0,1.006.134,1.055,1.055,0,0,0,.536-.469.567.567,0,0,0,.1-.335l.268-1.744.268-1.743a.978.978,0,0,0-.368-.939,1,1,0,0,0-1.006-.134l-1.643.637-1.643.637a1.188,1.188,0,0,0-.536.536Z"/><path class="m" d="M161.556,113.269l.537,1.676.536,1.676-1.71-.368-1.71-.369,1.174-1.308,1.173-1.307m.537-.872a1.191,1.191,0,0,0-.3-.134,1.024,1.024,0,0,0-.972.3l-1.174,1.307-1.173,1.308a1,1,0,0,0-.2,1.006,1.054,1.054,0,0,0,.435.569,1.2,1.2,0,0,0,.3.135l1.71.368,1.71.369a1.025,1.025,0,0,0,.972-.3,1,1,0,0,0,.2-1.005l-.536-1.677-.537-1.676a.947.947,0,0,0-.435-.57Z"/><path class="m" d="M171.413,110.419l1.576.771,1.576.771-1.476.972-1.475.973-.1-1.744-.1-1.743m-.235-1.006a1.2,1.2,0,0,0-.3.134,1.069,1.069,0,0,0-.47.905l.1,1.744.1,1.743a1.067,1.067,0,0,0,.57.872,1.028,1.028,0,0,0,.7.067,1.2,1.2,0,0,0,.3-.134l1.475-.972,1.475-.973a1.021,1.021,0,0,0-.1-1.777l-1.576-.771-1.576-.771a1.283,1.283,0,0,0-.7-.067Z"/><path class="m" d="M175.7,103.01l-.871,1.508-.872,1.509-.872-1.542-.871-1.543h1.743l1.743.068m1.04-.2-.1-.3a.935.935,0,0,0-.872-.5h-3.486a1.1,1.1,0,0,0-.906.5,1.037,1.037,0,0,0-.134.7l.1.3.872,1.543.871,1.542a.938.938,0,0,0,.872.5,1.1,1.1,0,0,0,.905-.5l.872-1.509.872-1.508a1.315,1.315,0,0,0,.134-.772Z"/><path class="m" d="M162.6,105.189l1.642-.637,1.643-.637-.268,1.743-.268,1.744-1.375-1.073-1.374-1.14m-.906-.47a.57.57,0,0,0-.1.336.976.976,0,0,0,.369.938l1.374,1.073,1.375,1.073a1,1,0,0,0,1,.134,1.061,1.061,0,0,0,.537-.469.567.567,0,0,0,.1-.335l.269-1.744.268-1.743a.979.979,0,0,0-.369-.939,1,1,0,0,0-1.006-.134l-1.643.637-1.642.637a1.19,1.19,0,0,0-.537.536Z"/><path class="m" d="M158.405,95.7l.536,1.676.537,1.676-1.71-.368-1.71-.369,1.173-1.308,1.174-1.307m.536-.872a1.161,1.161,0,0,0-.3-.134,1.026,1.026,0,0,0-.972.3L156.494,96.3l-1.174,1.308a1.008,1.008,0,0,0-.2,1.006,1.062,1.062,0,0,0,.436.57,1.2,1.2,0,0,0,.3.134l1.71.368,1.709.369a1.027,1.027,0,0,0,.973-.3,1.006,1.006,0,0,0,.2-1.005l-.537-1.677-.536-1.676a1.055,1.055,0,0,0-.436-.57Z"/><path class="m" d="M135,151.12l1.542.738,1.543.737-1.476.939-1.475.939-.067-1.643L135,151.12m-.235-.938a1.17,1.17,0,0,0-.3.134.977.977,0,0,0-.47.871l.067,1.643.067,1.643a.972.972,0,0,0,.537.8,1.034,1.034,0,0,0,.7.067,1.227,1.227,0,0,0,.3-.134l1.475-.939,1.475-.939a.95.95,0,0,0-.067-1.676l-1.542-.738-1.542-.737a1.643,1.643,0,0,0-.705,0Z"/><path class="m" d="M140.971,140.056l-.872,1.509-.872,1.509-.871-1.542-.872-1.543h1.743l1.744.067m1.039-.167-.1-.3a.938.938,0,0,0-.872-.5h-3.487a1.1,1.1,0,0,0-.905.5,1.031,1.031,0,0,0-.134.7l.1.3.872,1.542.872,1.542a.935.935,0,0,0,.871.5,1.1,1.1,0,0,0,.906-.5l.871-1.508.872-1.509a1.344,1.344,0,0,0,.134-.771Z"/><path class="m" d="M127.862,144.247l1.643-.637,1.643-.637-.269,1.744-.268,1.743-1.374-1.073-1.375-1.14m-.905-.469a.567.567,0,0,0-.1.335.979.979,0,0,0,.369.939l1.375,1.073,1.374,1.073a1,1,0,0,0,1.006.134,1.057,1.057,0,0,0,.536-.47.565.565,0,0,0,.1-.335l.268-1.743.268-1.744a.977.977,0,0,0-.368-.938,1,1,0,0,0-1.006-.135l-1.643.638-1.643.637a1.617,1.617,0,0,0-.536.536Z"/><path class="m" d="M120.989,136.469l.536,1.676.537,1.677-1.71-.369-1.71-.369,1.174-1.307,1.173-1.308m.536-.905a1.17,1.17,0,0,0-.3-.134,1.027,1.027,0,0,0-.973.3l-1.173,1.307-1.173,1.308a1,1,0,0,0-.2,1,1.055,1.055,0,0,0,.436.57,1.215,1.215,0,0,0,.3.135l1.71.368,1.71.369a1.026,1.026,0,0,0,.972-.3,1,1,0,0,0,.2-1l-.536-1.677-.537-1.676a1.05,1.05,0,0,0-.436-.57Z"/><path class="m" d="M133.528,131.943l1.576.771,1.575.771-1.475.973-1.475.972-.1-1.744-.1-1.743m-.235-1.006a1.227,1.227,0,0,0-.3.134,1.071,1.071,0,0,0-.469.906l.1,1.743.1,1.743a1.067,1.067,0,0,0,.57.872,1.028,1.028,0,0,0,.7.067,1.176,1.176,0,0,0,.3-.134l1.475-.972,1.475-.973a1.02,1.02,0,0,0-.1-1.776l-1.576-.772L134,131a1.033,1.033,0,0,0-.7-.067Z"/><path class="m" d="M137.819,122.522l-.871,1.509-.872,1.508L135.2,124l-.871-1.542h1.743l1.743.067m1.04-.2-.1-.3a.938.938,0,0,0-.872-.5H134.4a1.1,1.1,0,0,0-.906.5,1.038,1.038,0,0,0-.134.7l.1.3.872,1.542.871,1.542a.936.936,0,0,0,.872.5,1.1,1.1,0,0,0,.905-.5l.872-1.508.872-1.509a1.31,1.31,0,0,0,.134-.771Z"/><path class="m" d="M124.71,126.679l1.643-.637,1.643-.637-.268,1.744-.268,1.743-1.375-1.073-1.375-1.14m-.9-.436a.57.57,0,0,0-.1.336.979.979,0,0,0,.368.939l1.375,1.072,1.375,1.073a1,1,0,0,0,1.005.134,1.061,1.061,0,0,0,.537-.469.567.567,0,0,0,.1-.335l.269-1.744.268-1.743a.979.979,0,0,0-.369-.939,1,1,0,0,0-1.006-.134l-1.643.637-1.642.637a1.19,1.19,0,0,0-.537.536Z"/><path class="m" d="M120.52,117.225l.536,1.676.536,1.677-1.709-.369-1.71-.369,1.173-1.308,1.174-1.307m.536-.872a1.211,1.211,0,0,0-.3-.134,1.027,1.027,0,0,0-.972.3l-1.173,1.307-1.174,1.308a1,1,0,0,0-.2,1.006,1.062,1.062,0,0,0,.436.57,1.2,1.2,0,0,0,.3.134l1.709.369,1.71.368a1.029,1.029,0,0,0,.973-.3,1.009,1.009,0,0,0,.2-1.006l-.537-1.677-.536-1.676a.863.863,0,0,0-.436-.57Z"/><path class="m" d="M165.512,95.332l1.576.771,1.576.771-1.475.972-1.476.973-.1-1.744-.1-1.743m-.268-1.006a1.227,1.227,0,0,0-.3.134,1.071,1.071,0,0,0-.469.905l.1,1.744.1,1.743a1.067,1.067,0,0,0,.57.872,1.028,1.028,0,0,0,.7.067,1.211,1.211,0,0,0,.3-.134l1.475-.972,1.475-.973a1.021,1.021,0,0,0-.1-1.777l-1.576-.771-1.576-.771a1,1,0,0,0-.7-.067Z"/><path class="m" d="M165.479,152.428l-.872,1.508-.872,1.509-.871-1.542-.872-1.542h1.743l1.744.067m1.006-.2-.1-.3a.938.938,0,0,0-.872-.5h-3.486a1.1,1.1,0,0,0-.906.5,1.037,1.037,0,0,0-.134.7l.1.3.871,1.542.872,1.542a.938.938,0,0,0,.872.5,1.1,1.1,0,0,0,.905-.5l.872-1.509L166.35,153a1.3,1.3,0,0,0,.135-.771Z"/><path class="m" d="M151.666,152.9l1.643-.637,1.642-.637-.268,1.744-.268,1.743-1.375-1.073-1.374-1.14m-.905-.469a.565.565,0,0,0-.1.335.979.979,0,0,0,.369.939l1.374,1.073,1.375,1.073a1,1,0,0,0,1.006.134,1.065,1.065,0,0,0,.536-.47.565.565,0,0,0,.1-.335l.268-1.743.268-1.744a.977.977,0,0,0-.369-.939,1,1,0,0,0-1-.134l-1.643.637-1.643.637a1.629,1.629,0,0,0-.536.537Z"/><path class="m" d="M147.509,143.443l.536,1.676.536,1.676-1.709-.368-1.71-.369,1.173-1.308,1.174-1.307m.5-.872a1.17,1.17,0,0,0-.3-.134,1.027,1.027,0,0,0-.973.3l-1.173,1.307-1.173,1.308a1,1,0,0,0-.2,1,1.055,1.055,0,0,0,.436.57,1.18,1.18,0,0,0,.3.135l1.71.368,1.71.369a1.026,1.026,0,0,0,.972-.3,1,1,0,0,0,.2-1l-.536-1.677-.537-1.676a.774.774,0,0,0-.436-.57Z"/><path class="m" d="M157.365,140.593l1.576.771,1.576.771-1.475.972-1.475.973-.1-1.744-.1-1.743m-.268-1.006a1.227,1.227,0,0,0-.3.134,1.071,1.071,0,0,0-.469.905l.1,1.744.1,1.743a1.067,1.067,0,0,0,.57.872,1.034,1.034,0,0,0,.7.067,1.211,1.211,0,0,0,.3-.134l1.475-.972,1.475-.973a1.021,1.021,0,0,0-.1-1.777l-1.576-.771-1.576-.771a1.015,1.015,0,0,0-.7-.067Z"/><path class="m" d="M161.657,131.172l-.872,1.509-.872,1.508-.871-1.542-.872-1.542h1.743l1.744.067m1.006-.2-.1-.3a.938.938,0,0,0-.872-.5H158.2a1.1,1.1,0,0,0-.906.5,1.037,1.037,0,0,0-.134.7l.1.3.871,1.542.872,1.542a.936.936,0,0,0,.872.5,1.1,1.1,0,0,0,.905-.5l.872-1.508.871-1.509a1.3,1.3,0,0,0,.135-.771Z"/><path class="m" d="M148.514,135.363l1.643-.637,1.643-.637-.268,1.743-.268,1.744-1.375-1.073-1.375-1.14m-.905-.47a.57.57,0,0,0-.1.336.975.975,0,0,0,.368.938l1.375,1.073,1.374,1.073a1,1,0,0,0,1.006.134,1.061,1.061,0,0,0,.537-.469.567.567,0,0,0,.1-.335l.268-1.744.269-1.743a.979.979,0,0,0-.369-.939,1,1,0,0,0-1.006-.134l-1.643.637-1.643.637a1.193,1.193,0,0,0-.536.536Z"/><path class="m" d="M144.357,125.875l.536,1.676.537,1.676-1.71-.368-1.71-.369,1.174-1.308,1.173-1.307m.5-.872a1.176,1.176,0,0,0-.3-.134,1.025,1.025,0,0,0-.972.3l-1.174,1.307-1.173,1.308a1,1,0,0,0-.2,1.006,1.056,1.056,0,0,0,.436.569,1.174,1.174,0,0,0,.3.135l1.71.368,1.71.369a1.024,1.024,0,0,0,.972-.3,1,1,0,0,0,.2-1.005l-.537-1.677-.536-1.676a.839.839,0,0,0-.436-.57Z"/><path class="m" d="M122.1,110.084l1.71-.369,1.71-.369-.536,1.676-.537,1.677-1.173-1.308-1.174-1.307m-.8-.6a1.384,1.384,0,0,0-.168.3,1.091,1.091,0,0,0,.2,1.006L122.5,112.1l1.173,1.308a1.046,1.046,0,0,0,.972.335,1.079,1.079,0,0,0,.6-.4,1.338,1.338,0,0,0,.167-.3l.537-1.676.536-1.677a1.086,1.086,0,0,0-.2-1,1.043,1.043,0,0,0-.972-.336l-1.71.369-1.71.369a1.076,1.076,0,0,0-.6.4Z"/><path class="m" d="M119.648,100.026l.235,1.743.234,1.743-1.643-.67-1.642-.671,1.374-1.072,1.442-1.073m.67-.771a.864.864,0,0,0-.3-.168,1.07,1.07,0,0,0-1.006.134l-1.375,1.073-1.374,1.073a.961.961,0,0,0-.369.938,1.177,1.177,0,0,0,.335.637.862.862,0,0,0,.3.168l1.643.671,1.643.67a1.069,1.069,0,0,0,1-.134.963.963,0,0,0,.369-.939l-.235-1.743-.234-1.743a2.054,2.054,0,0,0-.4-.637Z"/><path class="m" d="M108.752,98.282l1.71-.369,1.709-.368-.536,1.676L111.1,100.9l-1.174-1.307-1.173-1.308m-.838-.637a1.344,1.344,0,0,0-.168.3,1.088,1.088,0,0,0,.2,1.006l1.174,1.307,1.173,1.308a1.045,1.045,0,0,0,.972.335,1.079,1.079,0,0,0,.6-.4,1.338,1.338,0,0,0,.167-.3l.537-1.676.536-1.677a1.086,1.086,0,0,0-.2-1.005,1.043,1.043,0,0,0-.972-.336l-1.71.369-1.71.369a1.2,1.2,0,0,0-.6.4Z"/><path class="m" d="M106.271,88.224l.234,1.744.235,1.743-1.643-.67-1.642-.671,1.374-1.073,1.442-1.073m.67-.771a.862.862,0,0,0-.3-.167,1.068,1.068,0,0,0-1.006.134l-1.375,1.073-1.374,1.072a.963.963,0,0,0-.369.939,1.174,1.174,0,0,0,.335.637.9.9,0,0,0,.3.168l1.643.67,1.642.671a1.07,1.07,0,0,0,1.006-.134.963.963,0,0,0,.369-.939l-.235-1.743-.234-1.744a1.238,1.238,0,0,0-.4-.637Z"/><path class="m" d="M126.823,98.651l1.475.972,1.475.973-1.576.771-1.576.771.1-1.744.1-1.743m-.135-1.039a.648.648,0,0,0-.335.1,1.063,1.063,0,0,0-.57.839l-.1,1.743-.1,1.743a.935.935,0,0,0,.469.906,1.055,1.055,0,0,0,.7.167.648.648,0,0,0,.335-.1l1.576-.772,1.575-.771a1.057,1.057,0,0,0,.57-.838.931.931,0,0,0-.469-.905l-1.475-.972-1.475-.973a1.055,1.055,0,0,0-.7-.167Z"/><path class="m" d="M122.632,91.678l.871-1.509.872-1.509.872,1.509.872,1.509h-3.487m-1.006.167a1.211,1.211,0,0,0,.134.3,1.057,1.057,0,0,0,.905.5h3.487a1,1,0,0,0,.872-.5,1.073,1.073,0,0,0,.134-.7,1.211,1.211,0,0,0-.134-.3l-.872-1.509-.872-1.508a1.054,1.054,0,0,0-.905-.5,1,1,0,0,0-.872.5l-.871,1.508-.872,1.509a.783.783,0,0,0-.134.7Z"/><path class="m" d="M113.479,86.816l1.475.972,1.475.973-1.575.771-1.576.771.1-1.743.1-1.744m-.134-1.006a.644.644,0,0,0-.335.1,1.058,1.058,0,0,0-.57.838l-.1,1.744-.1,1.743a.931.931,0,0,0,.469.905,1.057,1.057,0,0,0,.7.168.644.644,0,0,0,.335-.1l1.576-.771,1.576-.771a1.063,1.063,0,0,0,.57-.838.932.932,0,0,0-.47-.905l-1.475-.973-1.475-.972a1.1,1.1,0,0,0-.7-.168Z"/><path class="m" d="M134.6,114.174l-.872,1.509-.872,1.508-.871-1.542-.872-1.542h1.743l1.744.067m1.006-.2-.1-.3a.938.938,0,0,0-.872-.5h-3.486a1.1,1.1,0,0,0-.906.5,1.037,1.037,0,0,0-.134.7l.1.3.871,1.542.872,1.542a.936.936,0,0,0,.872.5,1.1,1.1,0,0,0,.905-.5l.872-1.508.871-1.509a1.09,1.09,0,0,0,.135-.771Z"/><path class="m" d="M143.117,154.339l1.575.771,1.576.771-1.475.972-1.475.973-.1-1.744-.1-1.743m-.235-.972a1.176,1.176,0,0,0-.3.134,1.067,1.067,0,0,0-.469.905l.1,1.743.1,1.744a1.064,1.064,0,0,0,.57.871,1.028,1.028,0,0,0,.7.067,1.191,1.191,0,0,0,.3-.134l1.475-.972,1.475-.972a1.022,1.022,0,0,0-.1-1.777l-1.575-.771-1.576-.771a1.022,1.022,0,0,0-.7-.067Z"/><path class="m" d="M112.54,121.784l-.871,1.509L110.8,124.8l-.872-1.542-.872-1.543H110.8l1.743.067m1.006-.167-.1-.3a.935.935,0,0,0-.871-.5h-3.487a1.1,1.1,0,0,0-.905.5,1.031,1.031,0,0,0-.134.7l.1.3.872,1.542.872,1.542a.935.935,0,0,0,.871.5,1.1,1.1,0,0,0,.906-.5l.871-1.508.872-1.509a.96.96,0,0,0,.134-.771Z"/><path class="m" d="M122.9,155.076l1.643-.637,1.643-.637-.269,1.744-.268,1.743-1.374-1.073-1.375-1.14m-.905-.469a.567.567,0,0,0-.1.335.979.979,0,0,0,.369.939l1.375,1.073,1.374,1.073a1,1,0,0,0,1.006.134,1.057,1.057,0,0,0,.536-.47.565.565,0,0,0,.1-.335l.268-1.743.268-1.744a.977.977,0,0,0-.368-.938,1,1,0,0,0-1.006-.134l-1.643.637-1.643.637a1.627,1.627,0,0,0-.536.536Z"/><path class="m" d="M118.709,145.622l.537,1.676.536,1.677-1.71-.369-1.71-.369,1.174-1.308,1.173-1.307m.537-.872a1.227,1.227,0,0,0-.3-.134,1.026,1.026,0,0,0-.972.3l-1.174,1.307-1.173,1.308a1,1,0,0,0-.2,1.006,1.056,1.056,0,0,0,.435.57,1.227,1.227,0,0,0,.3.134l1.71.369,1.71.368a1.027,1.027,0,0,0,.972-.3,1.006,1.006,0,0,0,.2-1.006L120.218,147l-.537-1.676a.861.861,0,0,0-.435-.57Z"/><path class="m" d="M117.905,128.389l.536,1.677.536,1.676-1.709-.369-1.71-.369,1.173-1.307,1.174-1.308m.536-.871a1.18,1.18,0,0,0-.3-.135,1.027,1.027,0,0,0-.972.3l-1.173,1.308L114.82,130.3a1.006,1.006,0,0,0-.2,1.006,1.055,1.055,0,0,0,.436.57,1.17,1.17,0,0,0,.3.134l1.71.369,1.71.369a1.026,1.026,0,0,0,.972-.3,1.006,1.006,0,0,0,.2-1.006l-.537-1.676-.536-1.677a.946.946,0,0,0-.436-.569Z"/><path class="m" d="M96.179,102.138l-.2-1.744-.2-1.743,1.609.7,1.609.7-1.408,1.04-1.408,1.039m-.7.771a.741.741,0,0,0,.268.168,1.065,1.065,0,0,0,1.006-.1l1.408-1.039,1.408-1.04a1.014,1.014,0,0,0,.068-1.575.745.745,0,0,0-.269-.168l-1.609-.7-1.609-.7a1.065,1.065,0,0,0-1.006.1,1,1,0,0,0-.4.939l.2,1.744.2,1.743a1.181,1.181,0,0,0,.335.637Z"/><path class="m" d="M106.874,107.77l-1.743.3-1.744.3.6-1.643.6-1.643,1.14,1.341,1.14,1.341m.805.637a1.378,1.378,0,0,0,.168-.3,1,1,0,0,0-.168-1.006l-1.14-1.341-1.14-1.341a1.043,1.043,0,0,0-.972-.336.892.892,0,0,0-.6.369,1.338,1.338,0,0,0-.167.3l-.6,1.643-.6,1.643a1,1,0,0,0,.167,1,1.045,1.045,0,0,0,.973.336l1.743-.3,1.743-.3a.889.889,0,0,0,.6-.369Z"/><path class="m" d="M112.272,113.872l-.2-1.743-.2-1.744,1.609.7,1.609.7-1.408,1.039-1.408,1.039m-.67.738a.718.718,0,0,0,.268.167,1.063,1.063,0,0,0,1.006-.1l1.408-1.04,1.408-1.039a1.016,1.016,0,0,0,.067-1.576.726.726,0,0,0-.268-.167l-1.61-.7-1.609-.7a1.065,1.065,0,0,0-1.006.1,1,1,0,0,0-.4.939l.2,1.743.2,1.744a.922.922,0,0,0,.336.637Z"/><path class="m" d="M93.329,91.342l-.9,1.509-.905,1.509-.838-1.543-.838-1.542,1.743.034,1.743.033m1.006-.167-.1-.3a.968.968,0,0,0-.872-.537L91.62,90.3l-1.744-.034a1.037,1.037,0,0,0-1.039,1.207l.1.3.839,1.542.838,1.543a.966.966,0,0,0,.872.536,1.026,1.026,0,0,0,.905-.5l.905-1.509.9-1.508a1.068,1.068,0,0,0,.134-.7Z"/></g><path class="b" d="M134.232,76.926l.536,12.438a2.606,2.606,0,0,1-1.575,2.515,3.251,3.251,0,0,1-3.387-.47,2.652,2.652,0,0,1-1.072-2.145c0-2.079-.269-10.192-.4-10.293"/><path class="d" d="M139.227,63.482c.235-.637,4.024-4.191,5.3-1.375s-4.962,6.437-5.566,6.37"/><path class="n" d="M116.63,61.805s3.051,22.2,15.389,18.876c9.455-3.085,8.114-14.148,6.437-21.86,0,0-2.011-9.722-13.075-7.711C115.725,52.887,116.63,61.805,116.63,61.805Z"/><path class="o" d="M122.7,64.554c.335,1.342,2.347,2.012,2.347,0"/><path class="p" d="M122.028,59.861a4,4,0,0,1,3.018-1.677"/><path class="o" d="M135.305,63.314c-.034,1.375-1.844,2.481-2.28.536"/><path class="p" d="M134.936,58.587a4.075,4.075,0,0,0-3.319-.973"/><path class="o" d="M130.41,65.9c.335,1.341,2.682,7.375-.335,5.364"/><path class="q" d="M126.722,73.607c.671,1.341,2.682,2.682,4.358,2.011C129.069,77.3,127.393,77.965,126.722,73.607Z"/><path class="r" d="M139.127,63.213c1.341-4.358,2.347-26.486-18.44-32.52-13.746-3.688-8.046,5.364-8.046,5.364-4.359-4.359-14.752-3.688-8.047,5.029-3.352,1.006-4.023,6.37,2.347,6.7-4.023,1.006-4.023,3.688-.67,5.364s10.36,10.494,10.862,12.137C115.994,57.514,122.7,49.8,130.41,51.479S138.121,60.531,139.127,63.213Z"/><path class="s" d="M219.725,103.244l-6.27,5a2.342,2.342,0,0,1-3.285-.369L198.7,93.488a2.343,2.343,0,0,1,.368-3.286l6.27-5a2.342,2.342,0,0,1,3.286.369l11.466,14.349A2.379,2.379,0,0,1,219.725,103.244Z"/><ellipse class="c" cx="116.015" cy="67.433" rx="1.207" ry="1.509" transform="translate(-17.813 77.265) rotate(-34.369)"/><ellipse class="c" cx="141.166" cy="64.811" rx="1.509" ry="1.207" transform="translate(23.838 166.607) rotate(-65.606)"/><path class="t" d="M116.161,67.4s-3.017,20.452,3.688,27.157,22.8,0,33.191-9.723c13.411-11.064,43.619-21.356,51.967-19.781,5.364,1.006,14.751,3.688,6.035,11.064-4.359,3.688-11.064,6.37-9.053,11.567"/><path class="t" d="M141.138,65.225s-1,7.376,2.347,9.387,16.495-1.978,19.446,0c2.011,1.342,2.112,2.549,2.112,2.549"/><path class="g" d="M209.2,92.046c-1.677,1.341-4.694,4.024-4.359,5.365s1.341.67,2.347,0,3.353-2.683,3.353-2.683-6.035,4.694-5.029,6.035,6.705-2.682,6.705-2.682-5.364,4.023-4.359,5.029,5.7-2.011,5.7-2.011-4.56,3.486-4.023,4.023c1.006,1.006,9.052-2.347,10.058-4.023s.335-3.018-1.341-2.347c.67-1.006,1.341-4.024-1.677-2.682,1.341-2.012,1.006-4.359-2.011-3.018.67-1.676.67-3.688-1.677-3.017A12.243,12.243,0,0,0,209.2,92.046Z"/><path class="g" d="M200.078,98.785c.537-2.715,2.548-5.867,3.219-5.129s-.1,4.123-.4,5.33S199.274,102.842,200.078,98.785Z"/><path class="j" d="M128.231,203.187c.268-.5.536-1.106.871-1.81"/><path class="u" d="M131.013,197.286c3.219-7.007,7.745-17.165,10.193-22.731"/><path class="j" d="M142.144,172.51c.436-1.006.738-1.643.838-1.844a7.816,7.816,0,0,1,1.342,1.509"/><path class="v" d="M146.335,175.226c4.09,6.772,9.388,18.574,12.3,24.575"/><path class="j" d="M159.444,201.41a14.025,14.025,0,0,0,.972,1.777"/><polygon class="s" points="83.104 153.97 76.466 152.931 69.827 151.858 74.052 146.661 78.276 141.431 80.69 147.701 83.104 153.97"/><path class="s" d="M68.687,153.4a2.01,2.01,0,0,1-.637-.838,1.907,1.907,0,0,1,.3-1.878L76.8,140.258a1.9,1.9,0,0,1,3.252.536l4.828,12.539a1.895,1.895,0,0,1-2.079,2.548L69.526,153.8A3.831,3.831,0,0,1,68.687,153.4Zm9.019-8.214-4.325,5.331,6.773,1.073Z"/><line class="w" x1="21.918" y1="130.703" x2="25.572" y2="136.603"/><path class="r" d="M26.142,137.542a1.067,1.067,0,0,1-1.509-.369l-3.654-5.867a1.1,1.1,0,0,1,1.878-1.14l3.654,5.9A1.084,1.084,0,0,1,26.142,137.542Z"/><line class="w" x1="24.868" y1="128.892" x2="28.523" y2="134.793"/><path class="r" d="M29.092,135.732a1.067,1.067,0,0,1-1.508-.369l-3.655-5.9a1.1,1.1,0,1,1,1.878-1.14l3.654,5.9A1.072,1.072,0,0,1,29.092,135.732Z"/><polygon class="x" points="280.542 204.26 278.028 206.976 275.513 209.691 274.407 206.137 273.334 202.584 276.955 203.422 280.542 204.26"/><path class="x" d="M275.815,210.7a1.045,1.045,0,0,1-1.341-.67l-2.179-7.108a1,1,0,0,1,.234-1.006,1.036,1.036,0,0,1,1.006-.3l7.242,1.677a1.089,1.089,0,0,1,.771.7,1,1,0,0,1-.235,1.006l-5.062,5.431A1.389,1.389,0,0,1,275.815,210.7Zm-.939-6.672,1.107,3.621,2.581-2.783Z"/><line class="y" x1="281.112" y1="200.069" x2="283.392" y2="207.21"/><path class="x" d="M283.727,208.216a1.054,1.054,0,0,1-1.307-.67l-2.28-7.142a1.039,1.039,0,0,1,1.978-.637l2.28,7.142A1.055,1.055,0,0,1,283.727,208.216Z"/><polygon class="s" points="44.28 266.418 41.665 270.877 39.016 275.336 36.468 270.81 33.92 266.318 39.117 266.351 44.28 266.418"/><path class="s" d="M39.754,276.577a1.437,1.437,0,0,1-.738.2,1.51,1.51,0,0,1-1.274-.738l-5.1-9.018a1.539,1.539,0,0,1,0-1.475,1.408,1.408,0,0,1,1.274-.7l10.36.1a1.508,1.508,0,0,1,1.274.738,1.536,1.536,0,0,1,0,1.475l-5.264,8.918A1.3,1.3,0,0,1,39.754,276.577Zm-3.286-8.784,2.615,4.593,2.683-4.56Z"/><polygon class="s" points="50.382 262.865 47.733 267.324 45.118 271.783 42.57 267.29 40.022 262.764 45.219 262.831 50.382 262.865"/><path class="s" d="M45.856,273.057a1.439,1.439,0,0,1-.738.2,1.508,1.508,0,0,1-1.274-.738l-5.1-9.052a1.536,1.536,0,0,1,0-1.475,1.314,1.314,0,0,1,1.274-.7l10.36.1a1.508,1.508,0,0,1,1.274.738,1.536,1.536,0,0,1,0,1.475l-5.264,8.918A1.637,1.637,0,0,1,45.856,273.057Zm-3.319-8.818,2.615,4.593,2.682-4.559Z"/><path class="s" d="M50.348,29.989,58.462,15.17a2.493,2.493,0,0,0-.537-3.386l-.2-.1c-.067-.034-.134-.1-.2-.134l-11.466-6.3h0a2.086,2.086,0,0,0-2.816.838c-.034.067-.067.168-.1.235l-.2.3L35.731,19.83a7.47,7.47,0,0,0-1.542-.235c-2.481-.033-4.493,1.308-4.527,3.018s1.945,3.151,4.392,3.185c2.146.033,3.923-.973,4.392-2.347l7.41-13.545L54.07,14.4,47.532,26.3a7.393,7.393,0,0,0-1.542-.235c-2.481-.034-4.493,1.307-4.526,3.017s1.944,3.152,4.392,3.185C48.1,32.369,49.879,31.363,50.348,29.989Z"/><path class="r" d="M62.82,81.955V71.193a1.381,1.381,0,1,0-2.682,0v9.555a4.95,4.95,0,0,0-.905.335c-1.375.738-2.112,2.112-1.609,3.085s2.045,1.173,3.419.435A2.723,2.723,0,0,0,62.82,81.955Z"/><path class="z" d="M32.68,57.078l-7.208-9.555a1.747,1.747,0,0,0-2.347-.637l-.1.1c-.033.033-.1.067-.134.1l-7.376,5.566h0a1.524,1.524,0,0,0-.3,2.078.26.26,0,0,0,.135.134c.033.067.1.134.134.2l6.4,8.483a2.947,2.947,0,0,0-.57.938c-.737,1.576-.469,3.286.637,3.789s2.582-.335,3.353-1.911a3.157,3.157,0,0,0-.235-3.52L18.5,54.128l5.3-3.99,5.8,7.678a2.965,2.965,0,0,0-.57.938c-.737,1.576-.469,3.286.637,3.789s2.582-.335,3.353-1.911A3.4,3.4,0,0,0,32.68,57.078Z"/><path class="s" d="M274.139,34.548l1.676-15.12a2.2,2.2,0,0,0-1.609-2.615c-1.04-.1-1.978.871-2.146,2.212L270.585,32.47a6.516,6.516,0,0,0-1.341.335c-2.079.8-3.286,2.648-2.716,4.09s2.682,1.945,4.761,1.14C273.066,37.331,274.206,35.856,274.139,34.548Z"/><path class="aa" d="M172.184,13.862l-4.727-7.208a1.231,1.231,0,0,0-1.643-.57,1.266,1.266,0,0,0-.134,1.743l4.224,6.4a3.155,3.155,0,0,0-.469.637c-.6,1.106-.469,2.347.3,2.749s1.877-.134,2.481-1.24A2.252,2.252,0,0,0,172.184,13.862Z"/><path class="s" d="M252.615,115.213l10.728-9.32a2.076,2.076,0,0,0,.57-2.816c-.034-.034-.067-.1-.134-.134a.585.585,0,0,0-.134-.168l-7.208-8.281h0a1.754,1.754,0,0,0-2.481-.168l-.168.168c-.067.067-.168.1-.235.167l-9.521,8.282a4.1,4.1,0,0,0-1.14-.6c-1.945-.738-3.923-.268-4.459,1.073s.6,3.051,2.548,3.788c1.676.637,3.386.369,4.157-.57l9.79-8.515,5.163,5.934-8.616,7.476a4.125,4.125,0,0,0-1.14-.6c-1.945-.738-3.923-.268-4.459,1.073s.6,3.051,2.548,3.788C250.134,116.454,251.843,116.152,252.615,115.213Z"/><path class="x" d="M286.074,75.216l2.414-6.571a1.007,1.007,0,0,0-.436-1.341,1.022,1.022,0,0,0-1.207.737L284.7,73.908a2.068,2.068,0,0,0-.638,0c-1,.135-1.743.8-1.676,1.509.1.7,1.006,1.174,2.012,1.039A1.874,1.874,0,0,0,286.074,75.216Z"/><path class="x" d="M231.526,139.487l-1.877-6.2c-.168-.536-.637-.905-1.073-.771a.115.115,0,0,0-.067.034.125.125,0,0,0-.1.033l-4.794,1.442h0a.791.791,0,0,0-.536,1c0,.034.033.068.033.1s.034.1.034.134l1.676,5.5a1.621,1.621,0,0,0-.469.368c-.671.671-.839,1.576-.369,2.045s1.374.3,2.045-.335a1.692,1.692,0,0,0,.536-1.844l-1.71-5.666,3.454-1.039,1.508,4.962a1.621,1.621,0,0,0-.469.369c-.671.67-.838,1.575-.369,2.045s1.375.3,2.045-.336A1.794,1.794,0,0,0,231.526,139.487Z"/><path class="x" d="M245.239,71.964l-2.75-11.835a1.551,1.551,0,1,0-2.916.7L242.02,71.36a7.38,7.38,0,0,0-.939.6c-1.341,1.173-1.777,2.85-.972,3.788s2.548.738,3.889-.4A3.136,3.136,0,0,0,245.239,71.964Z"/><path class="z" d="M21.851,200.974l-6.572-8.683a1.545,1.545,0,0,0-2.112-.57l-.1.1c-.034.033-.1.067-.134.1l-6.706,5.029h0a1.337,1.337,0,0,0-.268,1.878c.034.033.067.1.1.134a.691.691,0,0,0,.134.2l5.833,7.745a5.126,5.126,0,0,0-.536.838c-.671,1.441-.4,2.984.6,3.453s2.347-.3,3.051-1.743a2.857,2.857,0,0,0-.234-3.219l-6-7.946,4.828-3.621L19,201.645a5.1,5.1,0,0,0-.536.838c-.671,1.442-.4,2.984.6,3.453s2.347-.3,3.051-1.743A2.916,2.916,0,0,0,21.851,200.974Z"/><path class="r" d="M66.575,216.4V200.136a2.379,2.379,0,0,0-2.011-2.615,2.379,2.379,0,0,0-2.012,2.615v14.45a4.847,4.847,0,0,0-1.408.537c-2.112,1.106-3.185,3.185-2.414,4.66s3.084,1.743,5.2.637C65.771,219.448,66.81,217.771,66.575,216.4Z"/><path class="x" d="M259.722,261.121l5.633-10.259a1.709,1.709,0,0,0-.369-2.347c-.034-.033-.1-.033-.134-.067s-.1-.067-.134-.1l-7.946-4.359h0a1.429,1.429,0,0,0-1.945.57c-.033.067-.067.1-.067.168-.033.067-.1.134-.134.2l-5,9.119a5.153,5.153,0,0,0-1.073-.168c-1.71-.033-3.118.906-3.118,2.113s1.341,2.179,3.051,2.212a3.043,3.043,0,0,0,3.051-1.643l5.129-9.387,5.7,3.118-4.526,8.248a5.088,5.088,0,0,0-1.073-.168c-1.71-.034-3.118.9-3.118,2.112-.034,1.174,1.341,2.179,3.051,2.213A2.891,2.891,0,0,0,259.722,261.121Z"/><path class="s" d="M239.405,196.884l5.23-8.75a1.468,1.468,0,0,0-.235-2.045,1.445,1.445,0,0,0-1.911.771l-4.66,7.811a4.3,4.3,0,0,0-.905-.167c-1.475-.067-2.749.7-2.783,1.743s1.107,1.945,2.582,2.012A2.794,2.794,0,0,0,239.405,196.884Z"/><path class="ab" d="M293.517,154.071l-10.494-8.382a2.215,2.215,0,0,0-2.045-.3A2,2,0,0,0,279.7,147l-2.012,13.277a2.108,2.108,0,0,0,.772,1.945,2.149,2.149,0,0,0,1.072.435h.235a2,2,0,0,0,.771-.167l12.472-4.895a1.991,1.991,0,0,0,1.274-1.609A2.049,2.049,0,0,0,293.517,154.071Z"/><line class="y" x1="198.536" y1="31.933" x2="195.921" y2="43.567"/><path class="x" d="M195.485,45.411a1.919,1.919,0,0,1-1.442-2.28l2.616-11.6a1.907,1.907,0,1,1,3.721.838l-2.615,11.6A1.894,1.894,0,0,1,195.485,45.411Z"/><line class="y" x1="204.37" y1="33.274" x2="201.755" y2="44.874"/><path class="x" d="M201.319,46.718a1.916,1.916,0,0,1-1.442-2.279l2.615-11.6a1.908,1.908,0,0,1,3.722.838l-2.615,11.6A1.892,1.892,0,0,1,201.319,46.718Z"/></svg>