<svg xmlns="http://www.w3.org/2000/svg" viewBox="0 0 300 300"><defs><style>.a{fill:#ffc5cb;}.b{fill:#fbaa28;}.c{fill:#ff724c;}.d{fill:#9df4cf;}.e{fill:#f36b73;}.f{fill:#fff;}.g{fill:#ffaf66;}.h{fill:#ffe054;}.i{fill:#ffe993;}</style></defs><title>Login</title><path class="a" d="M248.27,101.9q-1.446-1.584-2.94-3.124c.869.125,3.76.563,3.038-1.025-.281-.619-2.373-.526-2.935-.582a4.344,4.344,0,0,1-2.578-.864c-3.148-2.165-5.728-5.2-8.941-7.377a42.992,42.992,0,0,0-11.157-5.5c-1.781-.557-8.885-3.018-9.834-.617-.926,2.338,6.234,4.32,7.844,5.106q5.468,2.668,10.7,5.777t10.194,6.633a50.023,50.023,0,0,0,4.487,3.3C247.613,104.427,249.947,103.734,248.27,101.9Z"/><path class="b" d="M188.539,52.266a29.73,29.73,0,0,0-13.03,4.106c-1.439.87-3.367,2.19-2,4.056,1,1.375,2.594.767,3.969.463-1.45.6-4.012,2.146-3.2,4.05s2.956.9,4.25.165c-1.537.985-3.6,2.4-3.459,4.511.131,1.884,1.981,2.772,3.675,2.758,1.979-.017,3.891-1.123,5.769-1.631a24.936,24.936,0,0,1,6.42-.851,25.436,25.436,0,0,1,11.688,2.776c3.98,2.046,7.06,5.333,10.747,7.808,6.121,4.109,15.457,4.4,17.419-4.391,1.9-8.5-5.474-16.069-12.333-19.74C209.2,51.393,198.73,51.307,188.539,52.266Z"/><path class="a" d="M190.656,65.662c-2.223-.233-4.324,1.068-6.168,2.129a81.744,81.744,0,0,0-13.218,9.442A88.187,88.187,0,0,0,153.8,98.807a92.446,92.446,0,0,0-5.607,11.325q-1.773,4.3-3.461,8.627c-.286.734-1.644,3.108-1.218,3.95.66,1.3,1.716.062,2.09-.776-.978,2.628,1.094,2.917,1.822,1.647.016.427.131,1.584.816,1.582.824,0,.689-.546.839-1.1a18.942,18.942,0,0,1,.392-2.256,10.292,10.292,0,0,1,.556-2.391c.015-.056.026-.114.043-.169,3.348-11.078,10.874-20.308,19.3-28a153.581,153.581,0,0,1,12.2-9.917c3.839-2.84,10.166-5.95,12.167-10.522A3.526,3.526,0,0,0,190.656,65.662Z"/><path class="a" d="M160.046,119.351a17.325,17.325,0,0,0-2.456,5.155c-.518,1.342-1.947,2.584-2.222.26-1.109,1.428-2.236.49-1.945-1.407-.6.659-1.874,1.413-2.145.094-.149-.722,1.073-2.04,1.443-2.624,1.617-2.556,3.163-5.157,4.78-7.713a163.609,163.609,0,0,1,10.686-15.248c6.871-8.53,15.347-16.383,25.583-20.633,2.157-.9,4.677-1.656,6.922-.6,2.513,1.187,3.061,3.92,1.643,6.224-1.872,3.041-6.214,4.846-9.277,6.512-4.638,2.522-9.427,4.76-13.648,7.973C171.629,103.27,165.642,111.443,160.046,119.351Z"/><path class="c" d="M184.774,78.905A2.246,2.246,0,0,0,186.1,82.36c1.734.463,4.324-.276,6.131-.331a30.431,30.431,0,0,1,11.8,1.912c2.254.807,4.43.426,6.8.64,1.254.114,2.7.692,3.932.7a18.357,18.357,0,0,0,3.754-.875c1.14-.265,2.281-.492,3.441-.65.727-.1,2.9.074,3.431-.3,1.139-.8,1.589-5.348,1.908-6.619.711-2.823,2.48-6.177.449-8.77-1.651-2.108-4.482-3.36-6.89-4.343a41.382,41.382,0,0,0-20.293-3.2,28.145,28.145,0,0,0-7.027,1.747,24.2,24.2,0,0,0-3.251,1.581,5.817,5.817,0,0,0-1.374.874c-.591.783-.294.15-.261,1.072.086,2.355.569,4.074-.223,6.489A25.243,25.243,0,0,1,184.774,78.905Z"/><path class="a" d="M253.643,90.464a56.79,56.79,0,0,0-15.195-17.4,59.784,59.784,0,0,0-10.022-6.188c-2.114-1.033-8.482-4.862-10.585-3.028-2.973,2.593,5.233,5.871,6.822,6.82,3.773,2.253,7.495,4.6,11.049,7.186a75.708,75.708,0,0,1,9.864,8.436,3.2,3.2,0,0,1,1.278,2.163c.087.764-.469,1.605-.329,2.329.448,2.308,1.865.146,2.129-1.064.818.969,2.118,2.841,3.5,2.9A1.492,1.492,0,0,0,253.643,90.464Z"/><path class="a" d="M216.852,69.5a2.135,2.135,0,0,0,.333-1.177c0-2.9-4.479-2.856-4.479,0a2.015,2.015,0,0,0,1.26,1.949c-2.426,1-4.182,2.793-4.182,5.391,0,8.435,18.47,8.437,18.47,0C228.254,70.782,222.065,68.732,216.852,69.5Z"/><path class="b" d="M208.121,56.045c2.154-1.391,8.082,1.733,9.992,2.777a26.41,26.41,0,0,1,8.086,6.644,16.626,16.626,0,0,1,3.637,9.117c.191,2.762-.266,7.287-2.953,8.9-4.45,2.675-7.566-12.063-8.989-14.8-1.639-3.151-4.169-5.056-7.085-6.957C209.314,60.757,205.153,58.113,208.121,56.045Z"/><path class="d" d="M217.576,80.378c-.6-3.174-1.267-6.342-1.8-9.528-.32-1.915-.16-3.83,1.7-4.954,2.451-1.482,5.23.1,5.952,2.663a90.888,90.888,0,0,1,1.8,9.528c.3,1.819.234,3.544-1.423,4.752A4,4,0,0,1,217.576,80.378Z"/><path class="d" d="M219.713,66.27a5.234,5.234,0,0,1,5.215-3.068c.888.075.883-1.31,0-1.385a6.619,6.619,0,0,0-6.55,4.085.7.7,0,0,0,.483.852.709.709,0,0,0,.852-.484Z"/><path d="M218.52,72.906a.76.76,0,0,0,0,1.519A.76.76,0,0,0,218.52,72.906Z"/><path d="M220.051,79.605a.76.76,0,0,0,0,1.519A.76.76,0,0,0,220.051,79.605Z"/><path d="M219.176,71.384a2.184,2.184,0,0,1,1.432,1.435c.162.508.965.291.8-.221a3.062,3.062,0,0,0-2.012-2.016c-.51-.164-.729.638-.221.8Z"/><path d="M221.88,78.46l.283,1.436c.1.525.905.3.8-.221l-.283-1.436c-.1-.524-.9-.3-.8.221Z"/><path class="e" d="M172.9,95.574a.326.326,0,0,0,0,.652A.326.326,0,0,0,172.9,95.574Z"/><path class="e" d="M174.818,98.382a.326.326,0,0,0,0,.651A.326.326,0,0,0,174.818,98.382Z"/><path class="e" d="M172.776,98a.326.326,0,0,0,0,.651A.326.326,0,0,0,172.776,98Z"/><path class="e" d="M171.628,101.061a.326.326,0,0,0,0,.651A.326.326,0,0,0,171.628,101.061Z"/><path class="e" d="M165.886,92.767a.326.326,0,0,0,0,.651A.326.326,0,0,0,165.886,92.767Z"/><path class="e" d="M163.717,89.2a.326.326,0,0,0,0,.651A.326.326,0,0,0,163.717,89.2Z"/><path class="e" d="M166.268,89.705a.326.326,0,0,0,0,.651A.326.326,0,0,0,166.268,89.705Z"/><path class="e" d="M163.461,92a.326.326,0,0,0,0,.651A.326.326,0,0,0,163.461,92Z"/><path class="e" d="M227.006,86.26a.326.326,0,0,0,0,.651A.326.326,0,0,0,227.006,86.26Z"/><path class="e" d="M227.644,88.812a.326.326,0,0,0,0,.651A.326.326,0,0,0,227.644,88.812Z"/><path class="e" d="M230.068,87.919a.326.326,0,0,0,0,.651A.326.326,0,0,0,230.068,87.919Z"/><path class="e" d="M236.575,75.541a.326.326,0,0,0,0,.651A.326.326,0,0,0,236.575,75.541Z"/><path class="e" d="M235.682,74.648a.326.326,0,0,0,0,.651A.326.326,0,0,0,235.682,74.648Z"/><path class="e" d="M237.213,73.372a.326.326,0,0,0,0,.651A.326.326,0,0,0,237.213,73.372Z"/><path class="e" d="M238.489,73.883a.326.326,0,0,0,0,.651A.326.326,0,0,0,238.489,73.883Z"/><path class="f" d="M215.513,76.373c-.039-1.03.108-3.769-1.349-3.858-1.419-.087-2.2,2.444-2.127,3.51C212.254,79.015,215.663,80.294,215.513,76.373Z"/><path d="M188.39,45.577a14.359,14.359,0,0,1,6.312-1.635.416.416,0,0,0,0-.831,15.29,15.29,0,0,0-6.731,1.749c-.474.248-.054.965.419.717Z"/><path d="M194.625,47.781a32.048,32.048,0,0,1,7.159-.218c.533.043.53-.789,0-.831a33.072,33.072,0,0,0-7.38.247c-.527.077-.3.878.221.8Z"/><path d="M126.431,140.795l9.577-7.726c.416-.336-.175-.921-.588-.588l-9.576,7.727c-.416.336.175.92.587.587Z"/><path d="M120.655,132.3l13.188-2.861c.522-.113.3-.914-.221-.8L120.434,131.5c-.523.113-.3.914.221.8Z"/><path d="M125.25,120.4l8.778,6.393c.433.315.848-.405.42-.717l-8.779-6.393c-.432-.316-.848.405-.419.717Z"/><path class="d" d="M277.578,177.667c-2.1.32-4.148,1.237-6.312,1.043-1.877-.168-3.2-1.2-4.684-2.247-3.645-2.56-5.56-1.038-9.168.553-3.493,1.541-5.743-.472-8.336-2.6-2.868-2.356-5.316-2.753-8.695-1.141-3,1.431-5.7,2.877-8.631.451-2.21-1.826-3.728-4.982-7.08-4.507-3.4.482-5.411,3.467-9.14,2.194-3.044-1.039-5.321-3.713-8.5-4.426-3.578-.8-5.976,1.9-9.172,2.8-4.048,1.15-5.532-2.922-9.054-3.476-3.2-.5-5.508,2.766-8.607,2.565-3.35-.217-3.795-5.055-7.467-4.365-1.817.342-3.006,1.99-4.751,2.479-1.018.285-3.987.006-3.429-1.754-2.668,1.807-5.284,3.469-7.952,5.276.838.521,1.629,1.2,2.563,1.812a.5.5,0,0,1,.225.552c-.57,1.868-.441,3.509-2.1,4.744-2.165,1.61-4.5,3.035-6.707,4.591A66.621,66.621,0,0,0,143,188.25a28.36,28.36,0,0,1-5.372,4.3.473.473,0,0,1-.778.153,25.241,25.241,0,0,0-6.078-4.588L94.529,212.667l-9.974,6.756,60.018,8.152,30.063,4.083,14.46,1.964,7.483,1.016c1.872.255,5.133,1.419,6.94.942a11.232,11.232,0,0,0,2.549-1.727l6.721-4.554L234.1,214.864l44.5-30.147a45.108,45.108,0,0,0,5-3.385C286.4,178.8,279.444,177.383,277.578,177.667Z"/><path d="M160.619,185.979a7.83,7.83,0,0,0,5.715.417c.509-.158.292-.96-.221-.8a6.956,6.956,0,0,1-5.075-.332c-.481-.228-.9.488-.419.717Z"/><path d="M177.739,184.078l4.552-.108a.416.416,0,0,0,0-.831l-4.552.108a.416.416,0,0,0,0,.831Z"/><path d="M181.225,189.583l5.394.379c.534.037.532-.794,0-.831l-5.394-.379c-.534-.037-.531.794,0,.831Z"/><path d="M207.681,186.392l6.334.153a.416.416,0,0,0,0-.831l-6.334-.152a.415.415,0,0,0,0,.83Z"/><path d="M208.663,192.463l7.176.627c.533.047.529-.784,0-.831l-7.176-.627c-.533-.046-.53.785,0,.831Z"/><path d="M174.867,200.711l7.569-.033a.416.416,0,0,0,0-.831l-7.569.033a.416.416,0,0,0,0,.831Z"/><path d="M187.315,207.094l6.382-.209c.533-.017.536-.848,0-.831l-6.382.209c-.533.017-.536.848,0,.831Z"/><path d="M199.7,201.966l4.753.646c.523.071.75-.73.221-.8l-4.753-.645c-.523-.071-.749.729-.221.8Z"/><path d="M211.41,209.292a22.775,22.775,0,0,0,7.791-.048c.526-.093.3-.894-.221-.8a21.59,21.59,0,0,1-7.349.047c-.523-.087-.748.713-.221.8Z"/><path d="M127.643,196.839l5.4.366c.534.037.532-.8,0-.831l-5.4-.366c-.533-.036-.531.795,0,.831Z"/><path d="M203.637,220.556l9.648.245a.416.416,0,0,0,0-.831l-9.648-.245a.416.416,0,0,0,0,.831Z"/><path d="M162.714,216.716l8.663.818c.532.05.528-.781,0-.831l-8.663-.818c-.532-.051-.529.781,0,.831Z"/><path d="M184.333,214.574l3.957-.179c.533-.024.536-.855,0-.831l-3.957.179c-.533.024-.536.855,0,.831Z"/><path d="M241.214,197.733l5.692.416c.534.039.531-.792,0-.831l-5.692-.416c-.533-.039-.531.792,0,.831Z"/><path d="M161.66,196.9l5.05.686c.523.071.75-.729.221-.8l-5.05-.686c-.523-.071-.749.729-.221.8Z"/><path d="M148.252,205.174l8.806-.242a.416.416,0,0,0,0-.831l-8.806.243a.415.415,0,0,0,0,.83Z"/><path d="M175.928,208.505l5.74.065a.416.416,0,0,0,0-.831l-5.74-.065a.416.416,0,0,0,0,.831Z"/><path d="M158.008,224.617l7.567.045a.416.416,0,0,0,0-.831l-7.567-.045a.416.416,0,0,0,0,.831Z"/><path d="M190.023,225.025l4.9-.411c.529-.044.534-.875,0-.831l-4.9.411c-.529.044-.534.875,0,.831Z"/><path d="M116.691,215.072l6.585.525c.534.042.531-.789,0-.831l-6.585-.525c-.533-.042-.53.789,0,.831Z"/><path d="M124.913,205.807l5.993.423c.534.037.531-.794,0-.831l-5.993-.423c-.534-.037-.532.794,0,.831Z"/><path d="M224.377,200.516l6.041,0a.416.416,0,0,0,0-.831l-6.041,0a.416.416,0,0,0,0,.831Z"/><path d="M132.57,230.222a21.078,21.078,0,0,0-6.124-.932,13.709,13.709,0,0,0-5.534.977,5.079,5.079,0,0,0-3.035,3.136,4.479,4.479,0,0,0,1.094,4.178,10.8,10.8,0,0,0,4.509,2.773,20.668,20.668,0,0,0,6.059,1.164,15.122,15.122,0,0,0,5.7-.7A5.694,5.694,0,0,0,138.719,238a4.147,4.147,0,0,0,.315-1.087.544.544,0,0,0,0-.057c0-.019.015-.033.018-.053C139.509,233.185,135.437,231.112,132.57,230.222Zm-1.625,10.48a20.325,20.325,0,0,1-5.709-.672,13.248,13.248,0,0,1-4.744-2.163,4.384,4.384,0,0,1-1.939-3.321,3.689,3.689,0,0,1,1.955-3.142,10.422,10.422,0,0,1,4.687-1.247,20.044,20.044,0,0,1,5.71.479,14.755,14.755,0,0,1,4.947,2,4.949,4.949,0,0,1,2.373,3.2,3.552,3.552,0,0,1,0,.9C137.721,239.943,133.6,240.632,130.945,240.7Z"/><path d="M217.125,178.462l4.753.645c.523.071.749-.729.221-.8l-4.753-.646c-.523-.071-.749.73-.221.8Z"/><path d="M228.837,185.787a22.775,22.775,0,0,0,7.791-.047c.526-.093.3-.894-.221-.8a21.59,21.59,0,0,1-7.349.047c-.523-.088-.748.713-.221.8Z"/><path d="M178.26,176.057l4.753.646c.523.071.75-.73.221-.8l-4.753-.645c-.523-.071-.749.729-.221.8Z"/><path d="M253.506,186.2a22.8,22.8,0,0,0,7.791-.047c.526-.094.3-.9-.221-.8a21.59,21.59,0,0,1-7.349.048c-.523-.088-.748.712-.221.8Z"/><path d="M159.406,172.513a.359.359,0,0,0-.119-.167,38,38,0,0,0-24.193-7.858c-2.422.033-4.825.326-7.24.48-2.566.164-5.138.244-7.709.277-5.166.065-10.331-.064-15.5-.123-10.536-.121-21.079-.025-31.616-.007-10.642.019-21.286.08-31.926.3-10.588.224-21.174.608-31.744,1.273q-1.983.126-3.964.263c-.53.037-.534.868,0,.831,10.465-.727,20.946-1.17,31.432-1.436s20.976-.359,31.465-.392,20.988-.013,31.483-.032c10.188-.018,20.405.566,30.573-.314a47.085,47.085,0,0,1,13.32.459,35.455,35.455,0,0,1,12.14,4.813c.916.583,1.8,1.213,2.657,1.878l-6.8,5.044-11.242,8.346-2.376,1.764a37.351,37.351,0,0,0-21.684-7.716,36.469,36.469,0,0,0-6.626.432c-.527.082-.3.883.221.8a36.4,36.4,0,0,1,22.336,3.758,35.234,35.234,0,0,1,5.343,3.448,35.2,35.2,0,0,0-.53,3.643,36.5,36.5,0,0,0-22.088-8.489,34.411,34.411,0,0,0-6.807.474c-.526.088-.3.889.221.8a34.885,34.885,0,0,1,22.864,4.174,35.9,35.9,0,0,1,5.541,3.888.253.253,0,0,0,.036.02.323.323,0,0,0,.467.045l7.067-5.342,11.249-8.5,2.558-1.934a.319.319,0,0,0,.333-.3,34.668,34.668,0,0,1,.9-4.279A.384.384,0,0,0,159.406,172.513Zm-1.618,4.2-7.045,5.326-11.25,8.5-1.472,1.114c.113-1.017.261-2.027.467-3.03l6.826-5.067,11.242-8.345,1.789-1.328C158.124,174.818,157.931,175.758,157.788,176.709Z"/><path d="M121.507,161.576a21.613,21.613,0,0,0,15.046-4.153,20.965,20.965,0,0,0,3.3-3.046c.349-.4-.236-.992-.588-.587a20.848,20.848,0,0,1-13.373,6.958,20.443,20.443,0,0,1-4.382,0c-.531-.057-.527.774,0,.831Z"/><path d="M107.515,189.125a22.53,22.53,0,0,1,15.743,8.785,21.7,21.7,0,0,1,2.629,4.5c.212.49.928.067.717-.419A23.376,23.376,0,0,0,112.8,189.4a22.17,22.17,0,0,0-5.281-1.1c-.533-.046-.53.785,0,.831Z"/><path d="M110.242,192.675a19.509,19.509,0,0,1,7.349,6.667c.29.447,1.01.031.717-.419a20.362,20.362,0,0,0-7.646-6.965c-.474-.247-.9.47-.42.717Z"/><path d="M233.2,163.765c.119-1.137-1.065-1.8-1.988-2.091a5.118,5.118,0,0,0-3.532.042,1.51,1.51,0,0,0-.611,2.361,4.357,4.357,0,0,0,3.172,1.287c1.069.058,2.727-.19,2.944-1.488a.524.524,0,0,0,0-.057C233.187,163.8,233.2,163.785,233.2,163.765Zm-2.6.776a4.35,4.35,0,0,1-2.594-.7c-.507-.379-.672-1.01-.035-1.346a3.961,3.961,0,0,1,2.585-.136c.65.147,1.84.509,1.805,1.352C232.194,164.423,231.215,164.533,230.6,164.541Z"/><path d="M294.815,177.047c.416-.628,0-2.98,0-3.7a15.893,15.893,0,0,0,.079-1.968,5.4,5.4,0,0,0-.946-3.861c-1.113-1.6-3.065-2-4.885-2.208-2.549-.295-5.09-.645-7.634-.991l-17.159-2.33-34.307-4.66-34.433-4.677a38.381,38.381,0,0,0-7.476-.512,21.836,21.836,0,0,0-6.8,1.486,36.734,36.734,0,0,0-6.667,3.844c-2.33,1.557-4.639,3.147-6.952,4.731q-1.709,1.17-3.421,2.332a.415.415,0,0,0-.142.532l-7.925,5.368c.264.144.524.3.779.474l7.232-4.9c.275,1,1.565,1.425,2.64,1.488,2.351.139,3.655-1.953,5.762-2.516,2.172-.58,3.3,1.275,4.579,2.645a4.5,4.5,0,0,0,4.7,1.49c2.239-.6,4.134-2.587,6.559-2.426,2.181.144,3.655,1.94,5.44,2.959,4.77,2.724,8.555-3.47,13.377-2.188,2.666.709,4.676,2.769,7.135,3.916a6.818,6.818,0,0,0,6.2-.1c2.18-1.026,4.571-2.519,6.92-1.047,1.994,1.25,3.108,3.541,5.238,4.625,2.243,1.142,4.575.33,6.7-.66a12.194,12.194,0,0,1,4.319-1.468,6.326,6.326,0,0,1,3.692,1c2.2,1.338,3.917,3.611,6.564,4.135,2.673.529,4.836-1.291,7.252-2.062a5.013,5.013,0,0,1,3.916.275c1.261.624,2.3,1.613,3.549,2.264,2.7,1.411,5.331.485,8.115-.113a9.457,9.457,0,0,1,5.056.481c.59.206,1.629.556,1.9,1.2.372.9-1.279,1.8-1.825,2.176-2.671,1.843-5.448,3.547-8.137,5.368l-8.671,5.875L247.8,205.084l-34.724,23.523c-2.636,1.786-5.441,3.449-7.929,5.436a5.541,5.541,0,0,1-1.734,1.136,4.717,4.717,0,0,1-1.8.043c-1.311-.147-2.588-.518-3.875-.793-3.173-.676-6.48-.93-9.7-1.367l-10.357-1.407-41.231-5.6-41.582-5.648-9.182-1.247,45.495-30.817c-.271-.155-.548-.3-.824-.443l-28.494,19.3L84.345,219.064a.469.469,0,0,0-.177.343.347.347,0,0,0-.433-.01c-2.577,1.744-5.164,3.472-7.744,5.212q-1.881,1.269-3.754,2.549a17.4,17.4,0,0,0-2.785,2.1,6.763,6.763,0,0,0-1.892,4.492c-.123-.022-.216.073-.216.423V237.5a9.84,9.84,0,0,0,.063,1.571.412.412,0,0,0-.025.221c.812,4.911,7.336,5.3,11.236,5.591,7.847.582,15.662,1.942,23.458,3l54.324,7.379c7.87,1.069,15.834,2.863,23.611.342a40.88,40.88,0,0,0,10.2-5.466q5.608-3.788,11.209-7.589,22.767-15.409,45.54-30.809l22.742-15.386c3.76-2.544,7.5-5.117,11.284-7.628,3.514-2.333,7.143-4.5,10.507-7.053a9.092,9.092,0,0,0,3.131-3.77.439.439,0,0,0-.131-.518A.986.986,0,0,0,294.815,177.047Zm-14.531.4a10.752,10.752,0,0,0-2.233-.227,17.5,17.5,0,0,0-3.542.722,7.528,7.528,0,0,1-5.12-.176c-1.268-.6-2.3-1.568-3.524-2.244-2.157-1.193-4.18-.883-6.35.079-1.418.629-2.844,1.532-4.44,1.543a6.539,6.539,0,0,1-3.821-1.519c-2.039-1.486-3.815-3.412-6.463-3.7-2.812-.3-5.041,1.433-7.578,2.288a5.2,5.2,0,0,1-4.233-.153,11.864,11.864,0,0,1-2.891-2.591c-1.469-1.57-3.128-2.957-5.417-2.668-2.256.285-4.01,1.845-6.179,2.364-2.854.682-5.337-1.432-7.585-2.859-2.087-1.325-4.394-2.3-6.891-1.656s-4.592,2.709-7.2,2.914c-2.174.171-3.7-1.527-5.374-2.61a5.844,5.844,0,0,0-5.769-.529c-1.979.852-4.367,2.878-6.614,1.71-1.571-.817-2.3-2.647-3.794-3.572-1.923-1.187-3.853-.107-5.5,1.02a4.74,4.74,0,0,1-2.786,1.088c-.773-.018-2.3-.233-2.03-1.323a.36.36,0,0,0-.047-.287c4.393-2.982,8.707-6.112,13.213-8.921a22.085,22.085,0,0,1,13.5-3.136c2.732.207,5.458.686,8.173,1.055l8.192,1.113,16.641,2.26,33.025,4.485c10.624,1.443,21.264,2.8,31.883,4.279a6.9,6.9,0,0,1,2.756.851,4.46,4.46,0,0,1,1.818,3.184c-.072.038-.119.173-.119.465v.912a5.206,5.206,0,0,1-.681,1.55c-1.7,2.636-4.786,4.251-7.395,5.834q-.657.4-1.3.819a1.68,1.68,0,0,0-.281-.557C283.465,178.1,281.611,177.691,280.284,177.444ZM68.7,231.938c.787-2.119,2.72-3.217,4.494-4.428,2.427-1.658,4.868-3.294,7.307-4.933q1.83-1.228,3.656-2.462a.4.4,0,0,0,.18-.351c.036.021.06.053.109.059l41.974,5.7,41.86,5.686,20.9,2.839c3.126.425,6.3.707,9.38,1.421a17.829,17.829,0,0,0,3.5.61c-7.3,5.079-14.331,11.07-22.908,13.817a26.883,26.883,0,0,1-6.768,1.287,42.519,42.519,0,0,1-7.849-.618q-9.034-1.191-18.064-2.419-17.975-2.439-35.942-4.924c-11.908-1.631-23.833-3.142-35.73-4.84-1.977-.282-4.3-.34-5.623-2.078A4.58,4.58,0,0,1,68.7,231.938ZM293.91,177.487c-.863,2.028-2.416,3.2-4.162,4.452-1.633,1.172-3.314,2.273-5,3.363-3.635,2.348-7.22,4.764-10.8,7.188l-21.984,14.873L207.713,237.3q-5.467,3.7-10.935,7.4c-3.544,2.4-7.032,4.951-10.687,7.181a28.814,28.814,0,0,1-10.514,3.937c-4.06.637-8.014.135-12.049-.414l-52.795-7.17-26.2-3.559c-2.508-.341-5.006-.508-7.524-.753-2.36-.229-5.076-.547-7.057-1.974a4.277,4.277,0,0,1-1.747-2.784,9.163,9.163,0,0,0-.024-2.864,4.678,4.678,0,0,0,1.178,1.361,5.844,5.844,0,0,0,2.367,1.094c1.4.31,2.864.434,4.283.634q4.546.64,9.1,1.244c6.222.832,12.446,1.652,18.666,2.5q18.56,2.531,37.118,5.088,9.2,1.256,18.413,2.485c5.357.713,10.792,1.891,16.19.955,9.613-1.666,17.531-8.151,25.258-13.651.952-.677,1.91-1.348,2.878-2a.415.415,0,0,0,.138-.16,4.006,4.006,0,0,0,1.162-.581c5.487-4.064,11.263-7.77,16.919-11.6l17.53-11.875,35.011-23.719c2.679-1.815,5.467-3.5,8.112-5.354a6.025,6.025,0,0,0,2-1.906.382.382,0,0,0,.189-.066c2.6-1.746,5.458-3.124,7.75-5.3a10.425,10.425,0,0,0,1.547-1.811v1.023a8.08,8.08,0,0,0,.231,2.622A.315.315,0,0,0,293.91,177.487Z"/><path class="g" d="M52.008,78.5c-1.17-4.4-5.387-8.9-10.339-7.592-4.665,1.228-6.19,6.654-5.378,10.944a2.342,2.342,0,0,0-2.665,2.35c0,2.431,2.919,2.979,4.247,1.65A11.7,11.7,0,0,0,39.48,87.9c-.746,2.288-2.533,4.119-3.754,6.166-.727,1.219-1.189,2.106.077,3.014a4.191,4.191,0,0,0,4.292.088c1.725-1.253,2.59-4.733,3.026-7a6.71,6.71,0,0,0,3.36.129C51.649,89.175,53.207,83.011,52.008,78.5Z"/><path class="h" d="M53.741,78.328c-.631-3.762-2.44-7.662-5.57-9.976a8.225,8.225,0,0,0-5.066-1.658,10.206,10.206,0,0,0-5.717,2.09c-3.224,2.4-4.868,6.2-6.725,9.644a22.965,22.965,0,0,1-3.27,4.862,37.934,37.934,0,0,1-3.57,2.81c-.405.34-1.033.815-1.111,1.383a1.591,1.591,0,0,0,.973,1.488,3.093,3.093,0,0,0,.612.31c-.04.022-.055-.273-.047-.271a6.468,6.468,0,0,0-.587.372c-.66.341-1.405.482-2.073.81a2.006,2.006,0,0,0-.343,3.581,4.354,4.354,0,0,0,.856.383,3.325,3.325,0,0,1,.512.209c.057.187-.377.514-.539.608a6.031,6.031,0,0,0-1.185.7,2,2,0,0,0-.443,2.48,4.182,4.182,0,0,0,2.483,1.378,20.24,20.24,0,0,0,3.172.407c1.161.089,2.316.233,3.476.341a54.484,54.484,0,0,0,8.366.207,19.455,19.455,0,0,0,6.564-1.28c6.846-2.956,9.774-11.32,9.494-18.3a21.71,21.71,0,0,0-.262-2.583c-.085-.527-.886-.3-.8.221a22.275,22.275,0,0,1-.847,10.258,16.274,16.274,0,0,1-5.771,8.431,12.06,12.06,0,0,1-4.8,2.009,37.588,37.588,0,0,1-7.951.459c-2.458-.081-4.886-.4-7.334-.588a19.612,19.612,0,0,1-3.084-.388c-.653-.155-2.093-.545-2.152-1.39-.076-1.084,1.054-1.311,1.726-1.8.45-.328.955-1.041.6-1.6-.293-.456-.942-.526-1.395-.741a1.245,1.245,0,0,1-.707-1.621c.286-.61,1.141-.826,1.72-1.024a4.761,4.761,0,0,0,1.9-.955c1.044-1.067-1.378-1.172-1.306-2.022-.009.105.056-.076.088-.12a2.47,2.47,0,0,1,.242-.27,9.042,9.042,0,0,1,.792-.7c.632-.509,1.3-.976,1.951-1.457a13.127,13.127,0,0,0,3.14-3.415c2.1-3.155,3.4-6.815,5.751-9.808,2.31-2.934,6.178-5.171,9.975-3.942,3.476,1.125,5.7,4.66,6.8,7.957a18.213,18.213,0,0,1,.673,2.724C53.028,79.075,53.829,78.852,53.741,78.328Z"/><path class="g" d="M44.415,95.375c2.468-2.668,6.635,4.4,7.9,5.913.662.791,2.905,4.388,3.9,4.5,1.088.121,2.927-2.089,3.765-2.679,2.767-1.945,6.549-4.213,9.973-4.649,4.77-.607,2.09,4.356.5,6.144-3.728,4.2-12.381,11.293-18.025,7.377a27.426,27.426,0,0,1-6.789-7.448C44.213,102.285,42.191,97.779,44.415,95.375Z"/><path class="e" d="M89.239,94.353c-.619-9.3-1.045-18.6-1.405-27.915-.1-2.62-.181-5.241-.3-7.861a73.166,73.166,0,0,1-.1-7.822c.062-.856.178-1.705.2-2.564.021-.752.094-1.878-.526-2.433a.891.891,0,0,0-1.469.23.958.958,0,0,0-.939-.679c-.631.04-.839.849-.966,1.345-.015.058-.021.117-.034.175-.015-.045-.025-.092-.04-.137-.131-.391-.315-1.009-.8-1.067-.6-.071-.775.74-.866,1.171a7.675,7.675,0,0,0-.123,1.853c.011.385.16,3.194-.79,2.738-.187-.09-.338-.328-.5-.457a.975.975,0,0,0-.821-.244,1.135,1.135,0,0,0-.749,1.49c.26.658.944,1.012,1.271,1.633a6.753,6.753,0,0,1,.586,2.818c.113,2.182.3,4.356.527,6.53s.55,4.345.751,6.524a10.656,10.656,0,0,1,.02,2.363.882.882,0,0,0,.455-.279c.465-.452.837-1.215,1.487-1.428.987-.323,1.416,1.018,1.625,1.706a25.113,25.113,0,0,1,.916,5.162,30.09,30.09,0,0,1,.005,5.477,5.411,5.411,0,0,1-1.536,3.871c-1.879,1.584-4.664,1.319-6.956,1.5a40.906,40.906,0,0,1-6.241.154c-1.356-.1-4.309-.377-4.141-2.358q0-1.742.012-3.484c.013-2.291.039-4.582.1-6.872.025-1,.074-2,.085-3a6.206,6.206,0,0,1,.181-1.782,1.643,1.643,0,0,1,1.035-1.151,1.593,1.593,0,0,1,1.585.347,1.749,1.749,0,0,1,.131.167c-.083-.609-.175-1.216-.248-1.825-.275-2.29-.489-4.588-.678-6.887a23.9,23.9,0,0,1-.178-5.966,9.268,9.268,0,0,1,.7-2.257c.219-.475.5-1.113.133-1.591a1.082,1.082,0,0,0-1.587-.006c-.18.177-.3.464-.507.609-.094.066-.069.071-.149,0A2.233,2.233,0,0,1,68,51.564a7.334,7.334,0,0,1-.376-1.076c-.228-.791-.392-1.6-.584-2.4-.1-.416-.189-1.175-.613-1.406-.7-.381-.9.745-.977,1.175-.3-.784-.725-1.459-1.411-1.278a1.013,1.013,0,0,0-.66.837,1.594,1.594,0,0,0-.1-.157c-.732-.812-1.621.1-1.723.908a9.74,9.74,0,0,0,.484,3.455c.333,1.325.624,2.634.844,3.986a74.7,74.7,0,0,1,.936,12.452c-.027,4.307-.068,8.614-.063,12.922q.015,12.831.345,25.659.083,3.2.184,6.407c.048,1.516.159,3.039.115,4.556-.032,1.115-.076,2.232-.042,3.348.018.6-.077,1.974.627,2.266a1.585,1.585,0,0,0,.8.02,4,4,0,0,1,.965.021,15.485,15.485,0,0,0,2.757-.046c1.982-.159,3.963-.2,5.951-.247l12.736-.32,3.195-.08c.2,0,.444-.187.416-.415C90.672,112.916,89.858,103.64,89.239,94.353Z"/><path class="i" d="M85.268,87.051c0-4.439-.774-8.378-5.84-9.078-4.456-.615-9.2.321-9.775,5.374-.525,4.632.269,10.388,5.154,12.389C80.514,98.075,85.268,92.386,85.268,87.051Z"/><path class="e" d="M82.468,166.883a22.407,22.407,0,0,0-3.759-1.36c-.678-.179-3.56-.256-3.951-.676a2.73,2.73,0,0,1-.213-1.439,10.2,10.2,0,0,1-.209-2.3c-.056-1.583,0-3.2-.16-4.785-1.4.149-2.805.224-4.208.341-.821.069-1.642.149-2.461.245a3.734,3.734,0,0,0-1.149.2c.292,4.025.3,8.063.423,12.1.94.38,4.242-.2,5.07-.216l4.71-.109c1.726-.04,3.516.054,5.234-.121C83.076,168.632,84.5,167.833,82.468,166.883Z"/><path class="e" d="M100.087,164.877c-1.27-.436-5.007-1.022-5.9-2.025-.392-.442-.311-1.46-.357-2.016-.2-2.348-.247-4.708-.436-7.059q-2.153.167-4.29.459a12.489,12.489,0,0,0-2.882.438c-.255.272.133,2.091.154,2.444q.144,2.45.245,4.9.051,1.239.091,2.476c.047,1.453-.324,1.661.877,2.03,2.563.788,6.4.265,9.092.38,1.016.043,4,.693,4.843.191C102.786,166.348,101.18,165.252,100.087,164.877Z"/><path class="f" d="M70.486,105.233a.752.752,0,0,1-1.5,0A.752.752,0,0,1,70.486,105.233Z"/><path class="f" d="M86.413,105.233a.752.752,0,0,1-1.5,0A.752.752,0,0,1,86.413,105.233Z"/><path d="M92.129,127.629c-.012-.35.006-.764.032-1.2q-.169-2.2-.31-4.4c-.015-.025-.038-.04-.054-.065-9.289.318-18.629-.091-27.871.885-.014.049-.029.091-.041.146.133,2.052.2,4.105.229,6.159.033.355.063.707.082,1.047q.747,13.862,1.5,27.723c2.458-.209,4.912-.467,7.372-.67,1.135-.094,1.506.03,1.726-.264a56.457,56.457,0,0,1,.867-11.925,17.989,17.989,0,0,1,1.855-6.614c2.531-4.61,5.65-.858,6.565,2.58,1.218,4.579,1.21,9.711,1.548,14.407,2.689-.438,5.384-.743,8.1-.933C93,145.556,92.437,136.6,92.129,127.629Z"/><path class="d" d="M51.37,116.108c-.382-1.7-2.667-2.353-2.983-4.068a5.549,5.549,0,0,1,1.142-3.244,7.331,7.331,0,0,0,1.259-3.746c.035-3.04-1.887-5.782-3.389-8.277-.69-1.146-1.23-2.36-1.885-3.52a3.84,3.84,0,0,0-2.194-1.7,9.608,9.608,0,0,0-8.438.947c-.762.483-2,1.218-2.1,2.227a3.587,3.587,0,0,0,.182,1.186,8.142,8.142,0,0,1,.266,2.267,9.145,9.145,0,0,1-1.261,4.208,8.363,8.363,0,0,1-1.23,1.729c-.442.449-.96.814-1.422,1.241a5,5,0,0,0-1.4,3.08c-.231,1.353-.546,2.673-.846,4.013-.227,1.012-.446,2.023-.678,3.034a5.9,5.9,0,0,0-.283,2.553c.213.849,1.432.9,2.128,1.035a9.569,9.569,0,0,1,3.543,1.79,16.38,16.38,0,0,1,3.092,3.009,21.393,21.393,0,0,1,2.012,3.465,9.078,9.078,0,0,0,.958,1.448,1.2,1.2,0,0,0,1.7.959,15.389,15.389,0,0,0,3.014-.83,1.9,1.9,0,0,0,.905-1.418,15.2,15.2,0,0,1,1.023-3.323,15.844,15.844,0,0,1,1.929-3.165,9.372,9.372,0,0,1,2.16-2.116c.653-.407,1.337-.767,1.969-1.207C51.115,117.285,51.538,116.86,51.37,116.108Z"/><path class="g" d="M33.371,114.069c-1.754-1.324-3.234-.842-4.676.118-.819-2.773-3.569-6.29-4.387-7.406,5.446-.632,10.7-6.678,8.444-12.321-4.29,1.933-8.509,4.021-12.779,6-1.946.9-3.619,1.538-3.265,3.988.285,1.968,1.737,4.144,2.81,5.763,1.04,1.568,3.688,6.142,6.292,7.237a1.248,1.248,0,0,0,1.116,1.289c1.351.281,1.915-.726,3.333.108.413.243,1.854,2.163,2.391,1.08.3-.6-.721-1.933-1.227-2.194.608.12,2.8,1.641,2.569.126-.124-.829-1.435-1.092-1.839-1.733.682.092,2.271,1.057,2.783.223C35.385,115.615,33.8,114.4,33.371,114.069Z"/><path d="M31.532,141.426l-.04.056a.4.4,0,0,0,0,.42l.041.055c.314.426,1.036.012.718-.419l-.041-.056v.42l.04-.056c.31-.437-.41-.853-.718-.42Z"/><path d="M31.519,145.21h.062a.416.416,0,0,0,0-.831h-.062a.416.416,0,0,0,0,.831Z"/><path d="M33.564,143.6h.062a.416.416,0,0,0,0-.831h-.062a.416.416,0,0,0,0,.831Z"/><path d="M35.219,141.572v-.062a.416.416,0,0,0-.831,0v.062a.416.416,0,0,0,.831,0Z"/><path d="M45.587,141.926a.416.416,0,1,0-.415-.416.421.421,0,0,0,.415.416Z"/><path d="M45.977,143.8v.062a.416.416,0,0,0,.831,0V143.8a.416.416,0,0,0-.831,0Z"/><path d="M47.155,141.448v.062a.416.416,0,0,0,.831,0v-.062a.416.416,0,0,0-.831,0Z"/><path d="M48.128,143.475a.416.416,0,1,0-.416-.415.423.423,0,0,0,.416.415Z"/><path d="M74.344,103.8l.124-.124a.416.416,0,0,0-.587-.588l-.124.124a.416.416,0,0,0,.587.588Z"/><path d="M75,106.357v.123a.416.416,0,0,0,.831,0v-.123a.416.416,0,0,0-.831,0Z"/><path d="M76.158,104.665h.124a.416.416,0,0,0,0-.831h-.124a.416.416,0,0,0,0,.831Z"/><path d="M78.1,100.779v.124a.416.416,0,0,0,.831,0v-.124a.416.416,0,0,0-.831,0Z"/><path d="M78.637,104.789h.123a.416.416,0,0,0,0-.831h-.123a.416.416,0,0,0,0,.831Z"/><path d="M79.008,109.375h.124a.416.416,0,0,0,0-.831h-.124a.416.416,0,0,0,0,.831Z"/><path class="e" d="M74.607,91.609a4.945,4.945,0,0,0,4.778-.414c-.128,1.33-.477,3.118-2.115,3.2C75.7,94.464,75.126,92.767,74.607,91.609Z"/><path class="e" d="M74.4,91.968a5.413,5.413,0,0,0,5.2-.414l-.625-.359c-.1,1.059-.355,2.7-1.7,2.78s-1.865-1.588-2.3-2.576c-.217-.487-.933-.065-.718.42.626,1.407,1.391,3.213,3.259,2.962,1.736-.233,2.148-2.128,2.293-3.586a.418.418,0,0,0-.625-.359,4.565,4.565,0,0,1-4.358.414C74.332,91.036,73.909,91.751,74.4,91.968Z"/><path class="g" d="M38,165.011c-.147-9.521-.223-19.043-.344-28.565-.028-2.136.309-4.67-.256-6.692a15.23,15.23,0,0,0-2.588-4.457,14.479,14.479,0,0,0-8.706-5.886,392.251,392.251,0,0,0,6.737,45.625c-2.1.189-4.991,1.4-7.1,2.224-3.257,1.274-.407,1.687,1.271,1.449,1.827-.259,3.652-.534,5.468-.86C34.513,167.484,38.2,167.724,38,165.011Z"/><path d="M87.119,83.4c.041-.28.075-.558.1-.829a30.16,30.16,0,0,0,0-5.567,25.2,25.2,0,0,0-.935-5.262,3.2,3.2,0,0,0-1.215-1.957,1.307,1.307,0,0,0-1.03-.071,2.865,2.865,0,0,0-1.285,1.084,4.516,4.516,0,0,1-.39.458,1.385,1.385,0,0,1-.124.109,2.324,2.324,0,0,1-.351-.779c-.133-.406-.408-1.25-1.3-1.3a2.828,2.828,0,0,0-2.059,1.107,7.784,7.784,0,0,0-.568.7l-.181.244c-.029.04-.078.11-.121.162a2.824,2.824,0,0,1-.389-.394,3.688,3.688,0,0,1-.388-.615A2.788,2.788,0,0,0,75.55,69.07a2.289,2.289,0,0,0-2.234.451,3.455,3.455,0,0,0-.867,1.582l-.079.247a3.457,3.457,0,0,1-.136.391,3.371,3.371,0,0,1-.158-.5L72,70.99A3.618,3.618,0,0,0,71.2,69.4a2.082,2.082,0,0,0-2.075-.469A2.113,2.113,0,0,0,67.768,70.4a6.311,6.311,0,0,0-.2,1.825v.1c-.006.6-.027,1.2-.048,1.8q-.021.6-.037,1.2c-.051,2.041-.081,4.228-.1,6.881,0,.432,0,.861,0,1.29-.058.08-.122.158-.175.239a16.692,16.692,0,0,0-.528-1.588c-.969-2.45-2.732-4.4-4.383-6.407-.756-.917-3.816-6.483-4.39-3.785-.353,1.66,3.275,5,4.226,6.155a15.8,15.8,0,0,1,3.792,7.595c.261,1.6.539,5.879-1.749,6.392-1.144.256-1.226-1.117-2.154-1.116-1.218,0-.815,1.151-.362,1.786,1.881,2.64,4.927-.03,5.659-2.153a8.581,8.581,0,0,0,.4-1.911,4.789,4.789,0,0,0,3.048,1.489c3.611.335,7.406,0,11.033,0,1.928,0,3.866.155,5.263-1.5A4.208,4.208,0,0,0,87.119,83.4ZM68.457,75.338c.01-.395.024-.791.037-1.186.021-.607.042-1.214.049-1.821v-.1a5.42,5.42,0,0,1,.157-1.541,1.184,1.184,0,0,1,.714-.832,1.217,1.217,0,0,1,.357-.054,1.046,1.046,0,0,1,.737.281,2.973,2.973,0,0,1,.574,1.235l.047.171c.117.449.294,1.127.893,1.3.865.246,1.168-.776,1.283-1.16l.07-.22a2.721,2.721,0,0,1,.594-1.164,1.319,1.319,0,0,1,1.228-.265c.367.142.593.547.875,1.053a3.969,3.969,0,0,0,.486.731c.245.284.7.814,1.249.733a1.35,1.35,0,0,0,.823-.679l.113-.15a6.918,6.918,0,0,1,.494-.612c.5-.53.961-.828,1.292-.805.168.011.276.17.449.7a1.978,1.978,0,0,0,.983,1.375c.494.2.935-.233,1.08-.375a5.394,5.394,0,0,0,.476-.553,2.114,2.114,0,0,1,.822-.76.331.331,0,0,1,.276.009c.369.192.632,1.051.73,1.375a24.237,24.237,0,0,1,.9,5.061,29.279,29.279,0,0,1,.005,5.388l-.006.059a4.03,4.03,0,0,0-2.4-.778H72.416a7,7,0,0,0-4.056.785c0-.112,0-.225,0-.337C68.376,79.554,68.407,77.373,68.457,75.338Z"/><path class="f" d="M72.026,84.028a2.4,2.4,0,0,1,1.157-.432c.528-.047.533-.879,0-.831a3.251,3.251,0,0,0-1.577.545c-.44.3-.025,1.019.42.718Z"/><path class="f" d="M81.345,83.841a.792.792,0,0,1,.842-.087c.5.2.713-.606.221-.8a1.607,1.607,0,0,0-1.651.3c-.414.339.177.924.588.588Z"/><path class="g" d="M48.242,165.222c1.117-15.659,3.106-31.311,2.552-47.039-5.382,2.325-7.348,8.356-7.341,13.692q.015,10.835.36,21.665.172,5.225.426,10.447c.084,1.691-.15,2.73,1.484,3.485a23.583,23.583,0,0,0,4.967,1.264c.876.178,7.805.924,4.689-.948-2.036-1.224-4.889-1.814-7.137-2.566"/><path d="M42.448,81.24a.752.752,0,0,1-1.5,0A.752.752,0,0,1,42.448,81.24Z"/><path d="M50.324,79.813a.752.752,0,0,1-1.5,0A.752.752,0,0,1,50.324,79.813Z"/><path class="e" d="M49.61,82.585c-.015-.379-.59-.608-.774-.21a2.486,2.486,0,0,1-2.227,1.13,8.91,8.91,0,0,1-2.59-.183.405.405,0,0,0-.257.03c-.013,0-.024.012-.038.017a.272.272,0,0,0-.035.016.327.327,0,0,0-.181.448l.011.027a.338.338,0,0,0,.042.1c.71,1.716,2.125,4.012,4.309,3.359C49.893,86.716,49.676,84.248,49.61,82.585Z"/><path class="f" d="M73.247,86.2l-.186.93c-.1.522.7.746.8.221l.186-.93c.105-.522-.7-.745-.8-.221Z"/><path class="f" d="M81.785,86.215V87.33a.416.416,0,0,0,.831,0V86.215a.416.416,0,0,0-.831,0Z"/><path d="M39.533,80.448a1.614,1.614,0,0,1,1.673-1.087c.534.035.532-.8,0-.831a2.456,2.456,0,0,0-2.475,1.7c-.17.508.633.726.8.221Z"/><path d="M48.105,78.1a1.408,1.408,0,0,1,1.7-.943.416.416,0,0,0,.221-.8A2.254,2.254,0,0,0,47.3,77.876a.416.416,0,0,0,.8.221Z"/><path class="c" d="M48.128,67.366,37.011,70.007c-1.753.417-3.485.792-4.391,2.589-.041.08-.065.159-.1.239-.142-.977-.3-1.947-.459-2.9-.174-1.029-.44-6.488-1.96-6.1-1.457.367.121,5.133.283,6.088.793,4.671,1.736,9.958.137,14.557-.228.656-2.945,4.342-.8,4.22,1.382-.079,2.411-3.731,2.667-4.712a22.786,22.786,0,0,0,.562-7.163,4.717,4.717,0,0,0,4.4,1.767c3.592-.509,7.206-1.712,10.735-2.55,1.875-.446,3.8-.744,4.773-2.679A4.247,4.247,0,0,0,48.128,67.366Z"/><path d="M17.573,172.605a.554.554,0,0,0,0,1.108A.554.554,0,0,0,17.573,172.605Z"/><path d="M32.068,170.488a.554.554,0,0,0,0,1.108A.554.554,0,0,0,32.068,170.488Z"/><path d="M33.045,175.211a.554.554,0,0,0,0,1.108A.554.554,0,0,0,33.045,175.211Z"/><path d="M42,171.139a.554.554,0,0,0,0,1.108A.554.554,0,0,0,42,171.139Z"/><path d="M67.571,177.816a.554.554,0,0,0,0,1.108A.554.554,0,0,0,67.571,177.816Z"/><path d="M79.949,172.768a.554.554,0,0,0,0,1.108A.554.554,0,0,0,79.949,172.768Z"/><path d="M101.935,174.559a.554.554,0,0,0,0,1.108A.554.554,0,0,0,101.935,174.559Z"/><path d="M113.5,169.022a.554.554,0,0,0,0,1.108A.554.554,0,0,0,113.5,169.022Z"/><path d="M81.823,104.932v.124a.416.416,0,0,0,.831,0v-.124a.416.416,0,0,0-.831,0Z"/></svg>