<svg xmlns="http://www.w3.org/2000/svg" viewBox="0 0 300 300"><defs><style>.a{fill:#b5e6d2;}.b{fill:#f97580;}.c{fill:#fcafb7;}.d{fill:#b7e9d4;}</style></defs><title>Message Sent</title><path class="a" d="M125.441,205.245a9.65,9.65,0,0,0-6.071-4.272,5.7,5.7,0,0,0-2-.215c-5.855-.028-4.8-8.166-7.024-11.751a15.9,15.9,0,0,0-13.037-7.5,13.866,13.866,0,0,0-7,2.05c-2.557,1.509-4.865,1.666-7.228-.368-4.259-3.665-8.493-6.389-14.3-6.75a20.757,20.757,0,0,0-14.91,5.369,24.346,24.346,0,0,0-5.272,6.654c-1.383,2.57-2.723,5.108-5.768,2.777-4.618-3.536-9.75-4.958-15.422-2.849a20.066,20.066,0,0,0-11.144,10.928,30.85,30.85,0,0,0-1.937,7.58c-.558,3.386-1.97,4.109-4.785,5.7-4.8,2.711-5.327,8.881-3.761,13.7,1.426,4.386,5.2,8.456,10.176,7.843,2.543-.312,4.324-1.259,6.391.88s3.664,4.39,6.188,6.12c9.159,6.276,21.141,5.243,30.793.689,5.49-2.59,9.967-6.358,14.559-10.232,5.277-4.45,8.281,3,12.3,5.518a16.424,16.424,0,0,0,15.873,1,17.885,17.885,0,0,0,6.2-5.082c1.516-1.946,2.235-5.042,4.386-6.382,2-1.25,4.535-.513,6.695-1.5a13.556,13.556,0,0,0,5.755-5.708C127.59,215.15,128.239,209.558,125.441,205.245Zm-7.879,19.39c-2.672.639-5.033-.027-7.013,2.418s-2.775,5.323-5.205,7.518a15.217,15.217,0,0,1-14.816,3.358,17.012,17.012,0,0,1-6.72-4.1c-1.884-1.865-2.969-4.523-5.915-4.832-2.722-.286-4.444,1.544-6.3,3.206a57.24,57.24,0,0,1-7.146,5.468,42.888,42.888,0,0,1-15.323,6.351,27.35,27.35,0,0,1-16.664-1.9,23.317,23.317,0,0,1-6.686-4.724c-1.8-1.831-2.964-4.463-5.75-4.939-2.564-.438-4.728,1.127-7.364.227a9.326,9.326,0,0,1-5.278-5.244c-1.852-4.118-2.21-10.689,2.043-13.509,2.367-1.57,4.7-1.982,5.631-5.064.845-2.814.84-5.723,1.971-8.506a19.232,19.232,0,0,1,10.763-10.941,14.253,14.253,0,0,1,8.344-.608c2.986.733,4.613,2.854,7.2,4.116,2.422,1.183,4.356-.31,5.455-2.376a27.922,27.922,0,0,1,5.018-7.178,19.755,19.755,0,0,1,14.733-5.846,20.244,20.244,0,0,1,7.805,2.034c2.8,1.369,4.555,3.753,7.122,5.338,2.8,1.727,5.145.84,7.758-.612a12.412,12.412,0,0,1,7.768-1.56,14.648,14.648,0,0,1,11.747,9.817c.824,2.665.475,5.7,2.691,7.735a5.34,5.34,0,0,0,3.148,1.518,3.359,3.359,0,0,0,.758.05,16.839,16.839,0,0,0,2.23.293c4.42,1.2,6.849,5.946,6.643,10.293C125.984,217.187,122.511,223.452,117.562,224.635Z"/><path d="M143.986,144.582c-.226-2-.448-3.992-.691-5.985q-1.251-10.253-2.8-20.467c-.079-.524-.876-.3-.8.22q1.836,12.141,3.241,24.342A16.592,16.592,0,0,0,143.986,144.582Z"/><path class="b" d="M145.935,150.579a15.6,15.6,0,0,0-2.28-7.514,9.4,9.4,0,0,0-7.67-4.466c-3.978.047-7.263,3.131-11.129,4.071-2.26.55-4.831.417-6.631,1.89-.775.633-1.332,1.785-.781,2.62a2.191,2.191,0,0,0,2.076.72,9.052,9.052,0,0,1,2.3-.176.586.586,0,0,1,.437.233c.188.326-.237.652-.581.8a12.122,12.122,0,0,0-3.039,1.933,2.008,2.008,0,0,0-.9,1.649c.112.769,1.011,1.176,1.787,1.155s1.525-.322,2.3-.34a.689.689,0,0,1,.617.226c.154.236,0,.552-.178.768a21.787,21.787,0,0,1-2.156,1.687c-.673.619-1.073,1.762-.435,2.418.59.607,1.6.367,2.384.045,1.11-.457,2.178-1,3.238-1.567-.033.3-.059.607-.076.911a13.611,13.611,0,0,0,1.347,7.237c2.371,4.371,7.748,5.314,12.287,4.682a11.524,11.524,0,0,0,6.332-2.811,10.13,10.13,0,0,0,3-6.114,15.053,15.053,0,0,0,.135-1.978A14.616,14.616,0,0,0,145.935,150.579Zm-.56,14.324a9.184,9.184,0,0,1-5.019,3.237,15.381,15.381,0,0,1-7.135.2,8.48,8.48,0,0,1-4.974-2.887,10.2,10.2,0,0,1-1.932-5.849,15.051,15.051,0,0,1,1.221-7.081,9.9,9.9,0,0,1,4.323-4.7,10.518,10.518,0,0,1,6.98-.837c4.7,1.01,7.7,5.18,8.263,9.8a15.95,15.95,0,0,1,.111,1.879A10.4,10.4,0,0,1,145.375,164.9Z"/><ellipse class="c" cx="182.968" cy="90.661" rx="62.187" ry="56.347"/><circle cx="131.529" cy="158.986" r="1.012"/><path class="d" d="M175.143,171.82a16.361,16.361,0,0,0-2.165,2.124,63.729,63.729,0,0,1-5.605,6.16,13.894,13.894,0,0,1-7.337,3.68,13.329,13.329,0,0,1-8.476-2.187c-2.531-1.563-4.53-3.825-6.786-5.764-1.318-1.134-4.386-.819-5.331.64a7.252,7.252,0,0,0-.683,5.052c1.13,7.311,6.765,13.6,13.748,16.046a24.811,24.811,0,0,0,21.251-2.829,23.67,23.67,0,0,0,6.023-5.585A44.8,44.8,0,0,1,175.143,171.82Z"/><circle cx="143.108" cy="157.285" r="1.012"/><path class="b" d="M142.712,161a8.492,8.492,0,0,1-1.1,3.992,4.043,4.043,0,0,1-3.027,1.763,4.81,4.81,0,0,1-2.978-1.064,9.2,9.2,0,0,1-2.622-3.648A17.256,17.256,0,0,0,142.712,161Z"/><path d="M129.479,157.415a2.108,2.108,0,0,1,2.512-1.287c.516.128.737-.669.22-.8a2.952,2.952,0,0,0-3.529,1.864c-.189.5.609.712.8.22Z"/><path d="M141.632,154.818a2.6,2.6,0,0,1,2.3.633c.392.359.978-.224.584-.584a3.475,3.475,0,0,0-3.1-.846c-.52.109-.3.906.22.8Z"/><path class="b" d="M138.422,210.944l35.491,2.386c-.743-3.355-1.818-6.8-4.226-9.249-2.688-2.737-6.65-3.825-10.472-4.151A40.707,40.707,0,0,0,143,202.062a16.218,16.218,0,0,0-5.315,2.659,6.96,6.96,0,0,0-2.708,5.117,3.625,3.625,0,0,0,.294,1.338A11.558,11.558,0,0,1,138.422,210.944Z"/><path class="c" d="M105.245,146.16c-.309-.757-.892-4.233-1.276-4.977a1.282,1.282,0,0,0-2.29.121c-.236.487-.252,3.545-.717,3.81a4.923,4.923,0,0,1-4.248-.068c-1.7-.7-3.182-1.878-5-2.311a2.466,2.466,0,0,0-1.858.256c-1.309.807-1,2.259-.342,3.277,2.849,4.431,10.524,3.6,13.106,8.195.524.931.765,1.993,1.2,2.968a3.643,3.643,0,0,0,2.191,2.19C107.043,159.89,110.748,159.626,105.245,146.16Z"/><path d="M229.425,120.458q-6.855,7.917-13.072,16.348-6.228,8.446-11.778,17.359T194.2,172.379q-4.814,9.278-8.89,18.9-4.07,9.607-7.372,19.51-.416,1.246-.818,2.5c-.16.494.625.706.784.214q3.2-9.925,7.177-19.581,3.97-9.636,8.7-18.943,4.7-9.273,10.122-18.168t11.509-17.339q6.11-8.469,12.878-16.445.854-1.005,1.716-2c.339-.391-.234-.964-.575-.569Z"/><path class="c" d="M186.9,171.637c-.25-1.888-.823-4-2.583-4.633-1.438-.514-3.389.112-4.315-1.1-.591-.775-.614-2.163-1.576-2.315a1.228,1.228,0,0,0-1.247.974,4.172,4.172,0,0,0,.048,1.718,15.8,15.8,0,0,1,.171,2.234.887.887,0,0,0-.3.839,1.1,1.1,0,0,0,.251.492,17.475,17.475,0,0,1-5.272,11.251,2.923,2.923,0,0,0-.428,3.736c.587.878,1.247,1.582,2.082,1.416a4.14,4.14,0,0,0,2.067-1.4,30.222,30.222,0,0,0,3.229-4.086,6.878,6.878,0,0,1,1.613-1.91,7.609,7.609,0,0,0,3.665-.994,5.687,5.687,0,0,0,2.764-4.309A5.547,5.547,0,0,0,186.9,171.637Z"/><path d="M186.6,169.846a4.4,4.4,0,0,0-1.6-1.532,6.668,6.668,0,0,0-2.291-.609,20.089,20.089,0,0,0-2.461-.221,6.758,6.758,0,0,0-2.258.227,1.816,1.816,0,0,0-1.285,1.175,1.564,1.564,0,0,0,.667,1.56,7.187,7.187,0,0,0,2.291,1.032l.03.007c-.248.061-.5.126-.738.2-.826.265-1.967.631-2.218,1.586s.663,1.464,1.409,1.748a12.413,12.413,0,0,0,1.579.478c-.21.074-.423.138-.63.225a3.649,3.649,0,0,0-1.811,1.184,1.408,1.408,0,0,0,.371,1.736,3.291,3.291,0,0,0,2.115.609c3.091.156,6.263-1.167,7.389-4.231A6.114,6.114,0,0,0,186.6,169.846Zm-.33,5.2a5.523,5.523,0,0,1-3.115,2.916,7.829,7.829,0,0,1-2.525.48,4.138,4.138,0,0,1-2.306-.312c-1.032-.715.35-1.315.936-1.576a11.033,11.033,0,0,1,2.507-.755c.488-.089.324-.774-.11-.811a11.992,11.992,0,0,1-2.516-.491c-.481-.149-2.074-.506-1.449-1.27a4.225,4.225,0,0,1,2.16-.93,10.991,10.991,0,0,1,2.522-.316.414.414,0,0,0,0-.827,10.6,10.6,0,0,1-4.082-1.1c-.383-.2-1.043-.643-.7-1.15.282-.417.959-.506,1.412-.552a14.988,14.988,0,0,1,3.823.2,3.97,3.97,0,0,1,3.06,1.71A5.27,5.27,0,0,1,186.267,175.042Z"/><path d="M161.06,127.229q.969,16.612.952,33.261-.019,16.546-1.018,33.072-.562,9.291-1.433,18.56c-.048.517.778.513.827,0q1.554-16.571,2.125-33.21.564-16.536.15-33.086-.233-9.3-.776-18.6c-.031-.516-.857-.519-.827,0Z"/><path d="M176.748,179.148c-1.532,4.465-3.017,8.945-4.411,13.454q-2.716,8.789-5.08,17.678-.3,1.126-.593,2.254a.378.378,0,0,0,.729.2q2.317-8.9,4.99-17.7,2.362-7.785,5.017-15.482A2.445,2.445,0,0,1,176.748,179.148Z"/><path d="M200.746,121.722q-4.238,8.522-8.13,17.2-3.858,8.606-7.371,17.353c-1.484,3.694-2.9,7.412-4.292,11.141.25.055.5.109.751.157q1.627-4.37,3.342-8.71,3.49-8.83,7.336-17.523,3.815-8.616,7.973-17.083.53-1.078,1.064-2.153C201.637,121.667,200.965,121.281,200.746,121.722Z"/><path d="M174.5,145.213c-.37,3.54-.893,7.064-1.425,10.582-.724,4.785-1.5,9.56-2.307,14.332q-1.314,7.828-2.7,15.644-1.288,7.285-2.621,14.564-1.013,5.53-2.056,11.056l-.195,1.026c-.1.518.695.74.794.219q1.007-5.275,1.971-10.56,1.317-7.168,2.592-14.343,1.387-7.817,2.717-15.642c.823-4.861,1.625-9.726,2.375-14.6.576-3.738,1.137-7.482,1.566-11.24q.06-.519.114-1.038c.055-.526-.769-.523-.823,0Z"/><path class="a" d="M276.006,116.679a13.774,13.774,0,0,0-3.772-5.906c-1.838-1.695-3.829-2.806-4.693-5.293-.879-2.529,0-5.2-.683-7.787a10.9,10.9,0,0,0-4.247-6.122,12.942,12.942,0,0,0-13.244-.583c-2.077,1.1-3.6,2.719-6.094,2.858-2.717.152-4.829-1.513-7.172-2.614a31.4,31.4,0,0,0-31.482,2.642,32.762,32.762,0,0,0-9.96,11.528c-1.056,2.049-1.525,4.595-3.08,6.341-2,2.25-5.069,1.993-7.609,3.247a11.319,11.319,0,0,0-6.1,12.459c.414,2.327.866,4.362-.055,6.67-.912,2.282-2.958,3.884-4.062,6.088a12.55,12.55,0,0,0,1.032,13.188c3.242,4.413,8.079,5.432,13.2,4.491,6.278-1.154,7.131,4.852,10.793,8.375a17.756,17.756,0,0,0,13.62,4.751,21.215,21.215,0,0,0,12.65-5.412,23.8,23.8,0,0,0,4.644-5.72c1.217-2.077,1.829-4.5,4.3-5.409,2.628-.973,5.3.7,7.975.748a14.284,14.284,0,0,0,7.757-2.254,18.627,18.627,0,0,0,5.878-6.036c1.493-2.407,2.036-5.033,3.154-7.579,2.6-5.914,9.324-3.412,13.452-7.484A15.588,15.588,0,0,0,276.006,116.679Zm-1.053,8.088a14.048,14.048,0,0,1-3.738,6.512c-2.08,1.95-4,2.11-6.669,2.466-5.955.8-6.523,5.692-8.616,10.24-1.961,4.258-5.431,8.146-10.009,9.578a12.4,12.4,0,0,1-7.114.032c-2.516-.677-5-.881-7.122.964-1.8,1.56-2.513,4.223-3.836,6.169a21.869,21.869,0,0,1-5.342,5.525,19.628,19.628,0,0,1-14.312,3.494,16.308,16.308,0,0,1-10.916-6.979c-1.339-2-2.043-4.222-4.3-5.405-2.394-1.253-4.46-.548-6.945-.194a11.15,11.15,0,0,1-11.221-5.762c-2.485-4.48-1.363-9.511,1.666-13.4,1.386-1.782,2.57-3.287,2.928-5.6.425-2.755-.811-5.291-.653-8.029.318-5.522,4.452-8.235,9.305-9.459,5.47-1.379,5.965-6.407,8.5-10.648a31.662,31.662,0,0,1,9.254-9.864,30.334,30.334,0,0,1,29.518-2.349c2.492,1.132,4.631,2.883,7.491,2.895,3.259.014,5.049-2.114,7.809-3.357,4.865-2.191,11.112-.973,14.013,3.714,1.546,2.5,1.354,4.814,1.378,7.594a9.159,9.159,0,0,0,3.519,7.1C274.131,113.9,276.692,118.571,274.953,124.767Z"/><path d="M242.965,177.575a30.3,30.3,0,0,0-4.046,17.064,76.021,76.021,0,0,0-10.43-11.323c-.794-.7-1.967.463-1.169,1.169a74.5,74.5,0,0,1,12.041,13.573.83.83,0,0,0,1.51-.637,28.56,28.56,0,0,1,3.521-19.012A.827.827,0,0,0,242.965,177.575Z"/><path d="M268.382,171.111a.844.844,0,0,0-1.016.577l-2.417,6.4a10.325,10.325,0,0,1-1.731-2.965.849.849,0,0,0-1.017-.577.833.833,0,0,0-.577,1.017,12.352,12.352,0,0,0,3.04,4.648.838.838,0,0,0,1.381-.365l2.914-7.718A.832.832,0,0,0,268.382,171.111Z"/><path d="M256.143,207.487a19.331,19.331,0,0,0-1.671,4.79l-3.57-6.7c-.5-.939-1.927-.1-1.427.834l4.719,8.856a.833.833,0,0,0,1.54-.417,17.34,17.34,0,0,1,1.836-6.53C258.051,207.375,256.626,206.538,256.143,207.487Z"/><path d="M253.389,130.121a14.1,14.1,0,0,0-3.505,5.078,20.18,20.18,0,0,1-2.482-4.267.832.832,0,0,0-1.13-.3.849.849,0,0,0-.3,1.131,21.267,21.267,0,0,0,3.615,5.681.833.833,0,0,0,1.381-.364,12.509,12.509,0,0,1,3.587-5.794C255.342,130.568,254.171,129.4,253.389,130.121Z"/><path d="M206.892,197.592a.833.833,0,0,0-1.169,0,11.251,11.251,0,0,0-2.2,4.282,7.255,7.255,0,0,1-1.84-2.42.833.833,0,0,0-1.13-.3.844.844,0,0,0-.3,1.13A8.687,8.687,0,0,0,203.65,204a.832.832,0,0,0,1.214-.494,9.545,9.545,0,0,1,2.028-4.745A.851.851,0,0,0,206.892,197.592Z"/><path d="M221.3,74.734a.846.846,0,0,0-1.017.577l-2.416,6.4a10.291,10.291,0,0,1-1.732-2.965.849.849,0,0,0-1.016-.577.833.833,0,0,0-.577,1.017,12.35,12.35,0,0,0,3.039,4.648.838.838,0,0,0,1.381-.365q1.458-3.858,2.915-7.717A.833.833,0,0,0,221.3,74.734Z"/><path d="M207.633,57.466a.844.844,0,0,0-1.016.577l-4.834,12.8a19.61,19.61,0,0,1-4.045-6.536.848.848,0,0,0-1.016-.577.833.833,0,0,0-.577,1.016,21.528,21.528,0,0,0,5.368,8.178.838.838,0,0,0,1.381-.365q2.658-7.038,5.317-14.076A.834.834,0,0,0,207.633,57.466Z"/><path d="M194.606,217.487a11.829,11.829,0,0,0-1.563-1.367.472.472,0,0,0-.221-.162,12.269,12.269,0,0,0-6.149-2.184l-4.658-.313-11.236-.755-13.711-.922-12.081-.811q-3.168-.214-6.338-.426a12.248,12.248,0,0,0-12.055,7.173c-1.182,2.7-1.115,5.785-1.31,8.676l-.879,13.082q-.326,4.836-.65,9.671a12.689,12.689,0,0,0,.781,5.613,12.238,12.238,0,0,0,6.082,6.519c2.294,1.083,4.692,1.157,7.155,1.323l9.986.671,13.534.91,12.809.861,8.122.545c.655.045,1.313.1,1.97.094a12.112,12.112,0,0,0,11.877-11.3c.055-.772.1-1.544.155-2.315l.811-12.055.779-11.6c.056-.829.141-1.665.148-2.5A12.155,12.155,0,0,0,194.606,217.487Zm-53.13-5.924,10.019.673,13.278.893,12.682.852,8.091.544,1.127.076a11.3,11.3,0,0,1,5.308,1.793,232.445,232.445,0,0,1-24.717,18.421q-3.6,2.329-7.3,4.524-11.391-9.788-21.839-20.6-2.9-3-5.716-6.086a11.171,11.171,0,0,1,2.475-.974A20.763,20.763,0,0,1,141.476,211.563Zm-16.6,33.2.867-12.9.644-9.569a12.044,12.044,0,0,1,1.442-5.2,11.417,11.417,0,0,1,3.844-4.023q8.211,8.973,17.09,17.3-10.064,6.8-19.42,14.576c-1.6,1.332-3.18,2.693-4.748,4.066,0-.072,0-.144.01-.217Q124.742,246.778,124.876,244.764ZM191,262.418a11.344,11.344,0,0,1-7.775,2.415c-1.66-.105-3.319-.224-4.979-.335l-11.177-.751-13.482-.906-11.9-.8-6.413-.431a11.665,11.665,0,0,1-4.938-1.4,11.4,11.4,0,0,1-5.457-7.027,11.594,11.594,0,0,1-.33-3.071.443.443,0,0,0,.11-.064,241.712,241.712,0,0,1,19.023-15.137q2.784-1.994,5.623-3.907a.429.429,0,0,0,.067-.068c1.26,1.178,2.516,2.359,3.8,3.517q3.186,2.883,6.45,5.679a.4.4,0,0,0,.341.1.378.378,0,0,0,.215-.054q5.625-3.342,11.052-7l.007.008c6.673,4.551,12.589,10.1,18.565,15.507q2.73,2.469,5.493,4.9c-.021.292-.037.584-.059.875A11.327,11.327,0,0,1,191,262.418Zm6.108-35.793c-.159,2.545-.342,5.088-.513,7.633l-.885,13.174q-.172,2.553-.344,5.105c-6.144-5.407-12.039-11.116-18.46-16.2q-2.41-1.909-4.941-3.66,7.266-4.927,14.153-10.385,3.327-2.64,6.552-5.405a11.121,11.121,0,0,1,4.438,9.738Z"/><path d="M71.464,259.753l11.68-1.278a.85.85,0,0,0,.826-.826.831.831,0,0,0-.826-.826L71.464,258.1a.851.851,0,0,0-.826.826.832.832,0,0,0,.826.827Z"/><path d="M46.221,217.66l19.915-1.515c1.054-.08,1.063-1.733,0-1.652l-19.915,1.514c-1.053.08-1.062,1.733,0,1.653Z"/><path d="M66.631,199.332l19.437-.314a.827.827,0,0,0,0-1.653l-19.437.315a.827.827,0,0,0,0,1.652Z"/><path d="M37.966,150.176l8.745-.486c1.057-.058,1.064-1.711,0-1.652l-8.745.486c-1.058.058-1.065,1.711,0,1.652Z"/><path d="M70.526,116.747l15.061-1.457a.849.849,0,0,0,.826-.826.832.832,0,0,0-.826-.826l-15.061,1.456a.85.85,0,0,0-.827.826.833.833,0,0,0,.827.827Z"/><path class="d" d="M156.654,197.685A63.268,63.268,0,0,0,153.6,183.9c-1.632-4.991-5.1-9.889-10.214-11.06a13.25,13.25,0,0,0-10.313,2.448c.06.037.121.069.18.108a5.843,5.843,0,0,1,2.232,2.556c.956,2.25.1,4.3-1.273,6.09a7.649,7.649,0,0,1-4.751,2.87c-2.1.367-4.241.69-6.362.845a49.936,49.936,0,0,1-4.444,6.348c-1.653,1.932-3.564,3.649-5.039,5.721a9.7,9.7,0,0,0-2.051,7.138c.584,3.242,3.594,5.651,6.81,6.363s6.58.017,9.7-1.035,6.129-2.46,9.331-3.232c5.325-1.285,11.035-.773,15.906-3.986A8.583,8.583,0,0,0,156.654,197.685Z"/><path class="d" d="M134.755,178.086a5.425,5.425,0,0,0-2.073-2.374c-3.05-1.988-6.794-1.575-10-2.935-3.259-1.383-5.528-4.427-7.06-7.618s-2.484-6.637-4.034-9.819a13.974,13.974,0,0,0-1.943-3.056c-.543.331-1.074.685-1.611,1.028,1.648,7.132-1.1,7.265-2.024,7.024a4.252,4.252,0,0,1-2.556-2.554c-.152-.339-.283-.688-.409-1.038a59.287,59.287,0,0,0-5.659,4.811,37.209,37.209,0,0,0,1.953,7.39c1.984,5.826,4.31,12.076,9.476,15.422,3.4,2.2,7.588,2.811,11.637,2.913a44.85,44.85,0,0,0,8.706-.874,7.1,7.1,0,0,0,4.412-2.665C134.85,182.077,135.643,180.175,134.755,178.086Z"/><path d="M154.806,140.61c.268,3.918.432,7.843.574,11.768q.27,7.475.407,14.953.16,8.057.218,16.115.054,7.6,0,15.211c-.034,4.082-.091,8.164-.242,12.244q-.023.617-.049,1.233c-.023.532.8.531.826,0,.168-3.923.233-7.851.275-11.778q.079-7.479.027-14.959-.043-8.058-.192-16.115-.14-7.6-.386-15.206c-.137-4.08-.3-8.16-.552-12.234q-.039-.617-.081-1.232c-.036-.528-.863-.532-.826,0Z"/><path d="M143.212,81.424a.551.551,0,0,0,0,1.1A.551.551,0,0,0,143.212,81.424Z"/><path d="M150.337,94.38a.551.551,0,0,0,0,1.1A.551.551,0,0,0,150.337,94.38Z"/><path d="M170.742,80.453a.551.551,0,0,0,0,1.1A.551.551,0,0,0,170.742,80.453Z"/><path d="M176.248,104.744a.551.551,0,0,0,0,1.1A.551.551,0,0,0,176.248,104.744Z"/><path d="M184.022,91.465a.551.551,0,0,0,0,1.1A.551.551,0,0,0,184.022,91.465Z"/><path d="M197.3,84.663a.551.551,0,0,0,0,1.1A.551.551,0,0,0,197.3,84.663Z"/><path d="M181.431,64.258a.551.551,0,0,0,0,1.1A.551.551,0,0,0,181.431,64.258Z"/><path d="M162.645,68.793a.551.551,0,0,0,0,1.1A.551.551,0,0,0,162.645,68.793Z"/><path d="M177.868,41.91a.551.551,0,0,0,0,1.1A.551.551,0,0,0,177.868,41.91Z"/><path d="M194.062,47.092a.551.551,0,0,0,0,1.1A.551.551,0,0,0,194.062,47.092Z"/><path d="M163.941,57.133a.551.551,0,0,0,0,1.1A.551.551,0,0,0,163.941,57.133Z"/><path d="M210.581,101.505a.551.551,0,0,0,0,1.1A.551.551,0,0,0,210.581,101.505Z"/><path d="M205.722,121.587a.551.551,0,0,0,0,1.1A.551.551,0,0,0,205.722,121.587Z"/><path d="M189.852,121.263a.551.551,0,0,0,0,1.1A.551.551,0,0,0,189.852,121.263Z"/><path d="M162,114.461a.551.551,0,0,0,0,1.1A.551.551,0,0,0,162,114.461Z"/><path d="M138.677,119a.551.551,0,0,0,0,1.1A.551.551,0,0,0,138.677,119Z"/><path d="M136.086,107.659a.551.551,0,0,0,0,1.1A.551.551,0,0,0,136.086,107.659Z"/><path d="M103.049,106.364a.551.551,0,0,0,0,1.1A.551.551,0,0,0,103.049,106.364Z"/><path d="M93.009,76.566a.551.551,0,0,0,0,1.1A.551.551,0,0,0,93.009,76.566Z"/><path d="M71.956,92.437a.551.551,0,0,0,0,1.1A.551.551,0,0,0,71.956,92.437Z"/><path d="M38.919,108.955a.551.551,0,0,0,0,1.1A.551.551,0,0,0,38.919,108.955Z"/><path d="M35.68,77.862a.551.551,0,0,0,0,1.1A.551.551,0,0,0,35.68,77.862Z"/><path d="M58.353,80.129a.551.551,0,0,0,0,1.1A.551.551,0,0,0,58.353,80.129Z"/><path d="M75.519,51.95a.551.551,0,0,0,0,1.1A.551.551,0,0,0,75.519,51.95Z"/><path d="M25.964,96.971a.551.551,0,0,0,0,1.1A.551.551,0,0,0,25.964,96.971Z"/><path d="M116.329,130.656a.551.551,0,0,0,0,1.1A.551.551,0,0,0,116.329,130.656Z"/><path d="M230.986,133.247a.551.551,0,0,0,0,1.1A.551.551,0,0,0,230.986,133.247Z"/><path d="M253.658,104.1a.551.551,0,0,0,0,1.1A.551.551,0,0,0,253.658,104.1Z"/><path d="M271.8,73.651a.551.551,0,0,0,0,1.1A.551.551,0,0,0,271.8,73.651Z"/><path d="M294.468,107.012a.551.551,0,0,0,0,1.1A.551.551,0,0,0,294.468,107.012Z"/><path d="M287.342,116.728a.551.551,0,0,0,0,1.1A.551.551,0,0,0,287.342,116.728Z"/><path d="M282.484,95.028a.551.551,0,0,0,0,1.1A.551.551,0,0,0,282.484,95.028Z"/><path d="M224.832,105.716a.551.551,0,0,0,0,1.1A.551.551,0,0,0,224.832,105.716Z"/></svg>