<svg xmlns="http://www.w3.org/2000/svg" viewBox="0 0 300 300"><defs><style>.a{fill:#80beff;}.b{fill:#ffc200;}.c{fill:#fb0e39;}.d{fill:#5a80f9;}.e{fill:#fedffd;}.f{fill:#2c2b47;}</style></defs><title>Message sent</title><path class="a" d="M249.541,162.562H50.212A2.219,2.219,0,0,0,48,164.774V292.788A2.218,2.218,0,0,0,50.212,295H249.541a2.218,2.218,0,0,0,2.212-2.212V164.774A2.219,2.219,0,0,0,249.541,162.562Z"/><path class="b" d="M78.266,93.459c-1.825-.811-3.742-1.622-4.24-3.742a10.05,10.05,0,0,1,.056-4.442c.2-.572.368-1.125.5-1.6a1.06,1.06,0,0,0-.737-1.475,1.2,1.2,0,0,0-1.714.793,9.3,9.3,0,0,0-.406,1.272c-.46,1.161-1.069,2.285-1.6,3.373-1.235,2.47-3.668,2.083-6.065,2.156a1.282,1.282,0,0,0-.331,2.507c2.451.83,4,1.88,4.073,4.627.056,2.12-.387,4.2-.332,6.322.037,1.383,2.194,1.788,2.507.332a20.821,20.821,0,0,1,2.267-5.788c1.088-1.788,3.484-2.009,5.42-1.954C78.819,95.873,79.446,93.993,78.266,93.459Zm-7.447,1.9a5.881,5.881,0,0,0-.516.627,8.2,8.2,0,0,0-.424-1.88A5.358,5.358,0,0,0,68.5,92.021a5.232,5.232,0,0,0,2.967-1.77c.019-.018.037-.037.037-.055.055.277.129.535.2.793a5.835,5.835,0,0,0,1.9,2.746A5.969,5.969,0,0,0,70.819,95.357Z"/><path class="c" d="M188.972,17.7c-1.327-.59-2.857-1.2-3.337-2.691a7.2,7.2,0,0,1,.019-3.853c.147-.442.3-.885.387-1.272a1.059,1.059,0,0,0-.737-1.456,1.217,1.217,0,0,0-1.733.793,8.421,8.421,0,0,0-.332,1.032,17.254,17.254,0,0,1-1.382,2.876c-1.069,1.769-2.913,1.474-4.737,1.529a1.281,1.281,0,0,0-.332,2.507c2.193.756,3.207,1.825,3.189,4.2-.019,1.548-.3,3.06-.277,4.608.019,1.4,2.194,1.788,2.507.332A16.123,16.123,0,0,1,183.848,22c.94-1.715,2.635-1.936,4.479-1.9C189.506,20.1,190.151,18.217,188.972,17.7Zm-6.507,1.7c0,.018-.018.018-.018.036a5.9,5.9,0,0,0-.351-1.271,4.094,4.094,0,0,0-.847-1.328,4.569,4.569,0,0,0,1.935-1.142c.055.184.111.35.166.534a4.553,4.553,0,0,0,1.253,1.825A4.718,4.718,0,0,0,182.465,19.4Z"/><path class="c" d="M111.15,50.732a3.817,3.817,0,0,0-2.636-2.525,6.34,6.34,0,0,0-1.77-.074c-1.032,0-1.438-.3-1.53-.885a4.3,4.3,0,0,0,3.945-4.313,4.563,4.563,0,0,0-1.972-3.521,4.185,4.185,0,0,0-2.231-.737c-.958-.018-3.742.83-2.967-.995.589-1.383,2.783-1.549,3.594-3.042a4.61,4.61,0,0,0,.037-4c-1.364-3.041-4.94-3.7-7.76-2.451-1.493.664-.2,2.857,1.29,2.193a3.11,3.11,0,0,1,4.11,1.235c.812,1.715-.534,2.341-1.787,3.042-1.383.774-2.434,1.88-2.286,3.576a3.527,3.527,0,0,0,2.562,3.133c1.124.295,2.378-.424,3.447-.129,2.286.608,1.382,3.871-.866,3.539a1.315,1.315,0,0,0-1.622,1.235c-.277,2.231.423,5.2,3.244,4.922.921-.092,2.82-1.014,2.838.94.019,1.124-1.216,1.4-1.954,1.769a4,4,0,0,0-2.156,2.231c-.627,1.511,1.843,2.175,2.451.682.369-.885,2.415-1.254,3.134-2.028A3.917,3.917,0,0,0,111.15,50.732Z"/><path class="d" d="M78.856,54.99A25.625,25.625,0,0,0,75.943,46.2c-.792-1.438-2.986-.148-2.193,1.29A23.325,23.325,0,0,1,76.4,55.672C76.625,57.275,79.077,56.593,78.856,54.99Z"/><path class="c" d="M199.976,50.419c-1.475,2.838-2.931,5.677-4.405,8.515-.756,1.457,1.437,2.747,2.193,1.291,1.475-2.839,2.931-5.678,4.406-8.516C202.944,50.253,200.732,48.962,199.976,50.419Z"/><path class="d" d="M114.412,88.7c-2.47-1.77-4.958-3.539-7.428-5.29-1.346-.959-2.618,1.253-1.29,2.193,2.47,1.77,4.958,3.539,7.428,5.29C114.467,91.855,115.739,89.661,114.412,88.7Z"/><path class="d" d="M210.1,88.906c-1.972,2.3-3.944,4.626-5.916,6.93-1.051,1.235.737,3.06,1.806,1.807,1.972-2.3,3.945-4.627,5.917-6.931C212.971,89.477,211.165,87.652,210.1,88.906Z"/><path class="d" d="M241.726,113.274c-1.014-1.051-1.125-2.673-2.655-3.226a3.262,3.262,0,0,0-3.3.9c-1.29,1.235-1.364,3.005-1.272,4.682a7.682,7.682,0,0,1,.111,1.935c-.111.48-.516,1.457-1.291,1.125-.589-.24-1.2-1.825-1.64-2.378-1.53-1.862-5.18-3.152-6.544-.313a3.006,3.006,0,0,0-.221,1.88c.129.829,1.032,1.825,1.014,2.6-.258.405-.516.811-.793,1.216a13.535,13.535,0,0,1-1.4-.626q-.775-.388-1.549-.83a30.76,30.76,0,0,1-2.912-1.935c-1-.738-1.954.921-.959,1.659,1.788,1.308,6.82,5.419,9,2.967a3.391,3.391,0,0,0,.259-3.465c-.406-1.069-1.586-2.783.294-3.115,1.4-.24,2.286,1.05,2.968,2.083,1.18,1.751,3.558,4.055,5.161,1.216.848-1.493.35-3.189.369-4.811.018-.682-.019-2.193.756-2.543a1.939,1.939,0,0,1,2.064.479c.479.534.664,1.29,1.2,1.843C241.246,115.522,242.592,114.158,241.726,113.274Z"/><path class="b" d="M230.592,69.091c-3.557,1.382-7.409-1.2-8.128-4.83a9.364,9.364,0,0,1,.719-5.529,5.17,5.17,0,0,0,7.022.368c3.613-2.857,1.659-9.105-3.3-7.778a7.829,7.829,0,0,0-3.816,2.525,6.674,6.674,0,0,1-.018-2.341c.645-3.889,4-8.35,7.189-10.58,1.327-.94.055-3.152-1.291-2.194-4.221,2.95-8.644,8.83-8.534,14.212a7.677,7.677,0,0,0,.959,3.484,13.921,13.921,0,0,0-1.53,7.557c.663,5.272,6.138,9.622,11.428,7.576C232.786,70.971,232.122,68.5,230.592,69.091ZM228.049,53.7c1.585-.037,1.861,1.714,1.161,2.8A2.816,2.816,0,0,1,226,57.534a3.83,3.83,0,0,1-1.622-1C225.284,55.156,226.593,53.755,228.049,53.7Z"/><path class="d" d="M149.471,18.9a4.277,4.277,0,0,0-1.622-5.382c-2.138-1.2-4.866-.222-6.636,1.2a10.1,10.1,0,0,0-2.083,2.341,9.6,9.6,0,0,1-1.216-10.138c.774-1.438-1.42-2.728-2.194-1.291a11.7,11.7,0,0,0,1.641,13.161,7.417,7.417,0,0,0,.663.664,7.159,7.159,0,0,0,1.991,7.723c2.71,2.323,6.4,3.1,6.765,7.281.368,4.092-3.226,7-7.115,6.691-1.641-.129-1.622,2.415,0,2.544a8.921,8.921,0,0,0,9.677-8.037,9.2,9.2,0,0,0-2.138-6.488c-1.733-2.009-4.9-2.6-6.341-4.811a4.681,4.681,0,0,1-.608-3.392C143.536,22.659,147.886,22.807,149.471,18.9Zm-6.894-2.009c1.069-.922,3.834-2.36,4.645-.387.848,2.064-1.88,3.17-3.373,3.059a6.489,6.489,0,0,1-2.765-.847A7.26,7.26,0,0,1,142.577,16.89Z"/><path class="c" d="M136.2,67.137c-.571-1.53-3.023-.866-2.451.682a18.57,18.57,0,0,1,1.014,9.6c-.258,1.6,2.212,2.3,2.451.682A21.174,21.174,0,0,0,136.2,67.137Z"/><path class="e" d="M226.15,137.346a42.849,42.849,0,0,1-10.525-3.631,47.147,47.147,0,0,1-13.787-11.539c-8.369-9.99-14.046-22.469-19.133-34.358-2.507-5.861-4.59-11.87-6.912-17.787-1.733-4.424-3.816-8.922-7.244-12.3-2.987-2.93-7.982-5.714-12.166-3.668-4.571,2.231-6.064,8.461-6.654,13.014-1.862,14.451,1.345,28.847,4.719,42.837-6.249.018-12.516,1.124-18.709,1.806-7.392.811-14.82,1.106-22.23,1.788A67.364,67.364,0,0,0,95.556,117.5c-6.6,2.506-13.677,5.345-17.014,12-1.732,3.466-2.562,7.226-1.179,10.949a16.26,16.26,0,0,0,7.225,8.239,15.09,15.09,0,0,0,2.1,23.594,8.981,8.981,0,0,0,1.032,14.414c-2.82,1.88-3.687,5.549-3.023,8.83.94,4.7,5.069,7.538,9.327,9.068,5.972,2.139,12.626,2.894,18.893,3.613,7.06.83,14.525,1.438,21.621.608,2.71-.313,5.493-1.124,7.263-3.336a7.082,7.082,0,0,0,1.382-2.82,14.769,14.769,0,0,0-.166-2.728,130.521,130.521,0,0,0,23.852-.221c6.544-.682,13.014-1.991,19.539-2.765,11.8-1.4,24.128-2.654,35.98-1.364.369.037.608-.332.645-.645,1.438-18.967,2.82-37.934,3.613-56.938A.7.7,0,0,0,226.15,137.346Z"/><path class="f" d="M192.972,173.308a38.422,38.422,0,0,1-32.386-23.685c-.443-1.125-2.3-.646-1.844.516a40.386,40.386,0,0,0,34.23,25.086C194.207,175.3,194.188,173.4,192.972,173.308Z"/><path class="f" d="M156.66,186.451c-.406-4.2-5.4-6.323-9.475-7.355,5.843-2.156,10.71-5.972,8.627-12.663a11.558,11.558,0,0,0-8.406-7.76c4.2-1.862,7.963-4.885,8.737-9.161.553-3.078-1-6.58-2.949-8.885-2.341-2.746-5.622-3.723-9.032-4.46-9.658-2.065-19.28-4.074-29.068-5.512-1.2-.184-1.714,1.659-.516,1.844,7.871,1.161,15.631,2.562,23.373,4.368,3.078.719,6.23,1.088,9.234,2.065a10.2,10.2,0,0,1,4.627,3.078c-5.438-1.309-11.078-1.143-14.046,4.626-2.249,4.351-1.677,9.659,2.323,12.2-.682.092-1.364.166-2.065.221-8.239.59-16.829-.461-24.921-1.972a128.3,128.3,0,0,1-27.409-8.35c-1.124-.479-2.1,1.161-.958,1.659a128.927,128.927,0,0,0,27.1,8.387c8.9,1.7,18.635,3.078,27.7,2.046a24.461,24.461,0,0,0,3.336-.627H143a10.413,10.413,0,0,1,10.248,5.069c-4.442-1.032-10.064-1.069-13.769,1.7-3.3,2.451-4.018,8.737-2.064,12.2a1.474,1.474,0,0,0,.313.35c-8.737,1.235-18.045.074-26.358-1.7A233.972,233.972,0,0,1,88,171.244c-1.179-.387-1.677,1.475-.516,1.843,15.649,5.032,32.128,10.138,48.773,8.387a53.765,53.765,0,0,0,7.428-1.309.907.907,0,0,0,.479.24,22.76,22.76,0,0,1,7.373,2.47,13.455,13.455,0,0,0-10.064,2.507c-3.5,2.709-4.663,7.575-2.064,11.244-2.046.073-4.074.018-6.009-.056-15.428-.59-31-3.06-44.847-10.267-1.087-.571-2.064,1.088-.958,1.659,12.442,6.47,26.285,9.253,40.183,10.212,6.47.442,13.124,1.069,19.391-.959C151.646,195.8,157.176,191.741,156.66,186.451Zm-13.972-28.5c-5.18-1.677-5.272-7.834-2.433-11.668,3.281-4.442,8.552-3.262,13.124-1.9h0a11.592,11.592,0,0,1,.774,2.285c.848,3.908-2.1,6.82-5.125,8.83a21.131,21.131,0,0,1-5.916,2.691A1.324,1.324,0,0,0,142.688,157.954Zm-3.595,20.239c-1.861-3.281-.553-8.958,2.968-10.47a18.013,18.013,0,0,1,11.926-.3c.055.019.092.019.147.037,1.18,4.719-2.378,7.65-6.377,9.345a38.313,38.313,0,0,1-8.83,2.507A.9.9,0,0,0,139.093,178.193Zm13.751,13.235c-2.986,3.483-7.262,4.718-11.686,5.087a.937.937,0,0,0-.166-.959c-2.525-3.262-.461-7.538,2.728-9.363a11.472,11.472,0,0,1,10.6-.461C155.056,187.483,154.484,189.511,152.844,191.428Z"/><path class="f" d="M141.268,200.865c-2.691-.018-6.322-.664-8.774.9-2.248,1.438-2.4,3.8-1.769,6.359a.878.878,0,1,0,1.677-.516c-.368-1.53-.7-2.93.719-4.036a4.95,4.95,0,0,1,2.949-.793c1.733-.074,3.466,0,5.2,0C142.393,202.782,142.393,200.865,141.268,200.865Z"/><path class="f" d="M174.465,68.538c-1.824.405-3.889,1.216-5.787,1.2-2.636-.019-3.208-2.931-3.853-4.958a64.162,64.162,0,0,1-2.415-10.489c-.184-1.216-2.027-.7-1.843.517.682,4.645,1.6,9.842,3.742,14.082,2.175,4.313,6.968,2.341,10.654,1.511C176.161,70.105,175.663,68.261,174.465,68.538Z"/><path class="e" d="M249.781,188.515q-37.658,31.713-76.772,61.657-10.782,8.266-21.695,16.387-39.372-28.7-78.744-57.381-11.28-8.239-22.58-16.46c-1.327-.959-2.6,1.235-1.29,2.193q39.7,28.922,79.389,57.86,11.282,8.24,22.58,16.46a1.246,1.246,0,0,0,1.29,0q39.732-29.584,78.08-61.011,10.839-8.876,21.53-17.9C252.841,189.271,251.016,187.465,249.781,188.515Z"/></svg>