<svg xmlns="http://www.w3.org/2000/svg" xmlns:xlink="http://www.w3.org/1999/xlink" viewBox="0 0 300 300"><defs><style>.a,.h,.k,.l,.n,.q,.r,.v{fill:none;}.b{fill:#ff5c76;}.c,.d,.j{fill:#ffc3a9;}.c,.j{stroke:#e89589;}.c,.h,.k,.l,.n,.q,.r,.v{stroke-linecap:round;stroke-linejoin:round;}.c,.j,.k,.l{stroke-width:1.049px;}.e{fill:#e89589;}.f{fill:#ff859b;}.g{clip-path:url(#a);}.h{stroke:#ff5c76;}.h,.n,.q,.r,.v{stroke-width:1.399px;}.i{fill:#ffeb7d;}.j{stroke-miterlimit:10;}.k{stroke:#ff859b;}.l,.n{stroke:#ae504a;}.m{fill:#621cd1;}.o{fill:#a4d2fc;}.p{fill:#465cff;}.q,.r{stroke:#3e9ff8;}.r{stroke-dasharray:7.513 7.513;}.s{fill:#3e9ff8;}.t{clip-path:url(#c);}.u{fill:#f9c126;}.v{stroke:#f9c126;}</style><clipPath id="a"><path class="a" d="M115.015,263.529c-3.357,13.432-8.429,31.34-16.02,29.766S30.753,244.536,43.94,215.609c8.709-14.831,74.573,4.512,74.573,4.512s51.139-23.366,58.029-31.69c6.856-8.29,38.651-47.886,51.453-45.612s21.722,5.666,16.825,51.978c-4.862,46.311-5.841,50.089-9.269,54.426s-32.04-8.115-32.04-8.115l11.053-13.292s-19.833-7.66-26.794-8.115c-13.641,25.709-17.419,34.943-30.046,35.118-11.123-6.366-49.04-16.265-51.558-15.39a189.8,189.8,0,0,0-6.541,24.1S107.67,263.389,115.015,263.529Z"/></clipPath><clipPath id="c"><path class="a" d="M80.877,229.32C57.686,219.7,46.6,215.259,62.793,182.694s38.931-57.329,88.215-65.584,89.684-14.656,91.119,15.95c.594,17.209-7.975,27.318-7.975,27.318s-8.465,5.736-23.856-4.757c10.669-7.7,15.6-10.354,15.6-10.354s-11.158-11.263-23.611-8.6-35.048,7.625-35.048,7.625,9.829,36.412,10.773,42.813c.98,6.366-30.885,39.456-62.646,32.425-2.413-16.3-8.814-54.041-8.814-54.041s-14.1,19.553-14.971,21.966a78.978,78.978,0,0,0,8.954-2.9s-14.2,20.952-13.606,27.668c.664,6.016,10.249,1.224,10.249,1.224S89.236,224.983,80.877,229.32Z"/></clipPath></defs><title>Message Sent_2</title><path class="b" d="M126.558,109.45c5.247,2.063,39.351-14.656,41.729-44.353S145.1,7.488,113.2,16.547,68.145,40.437,68.879,58.031c-17.944-.559-51.943,22.876-33.719,50.334C13.3,113.4-5.485,141.874,14.453,162.617s72.3-20.183,71.426-37.112C102.948,132.255,124.5,116.41,126.558,109.45Z"/><path class="c" d="M107.74,103.5c-.979.77-16.055,1.889-16.72-3.463-.769-5.316,9.864-4.022,10.949-3.358"/><path class="c" d="M132.959,84.65c.175-1.259,5.982-10.284,9.549-6.3,3.708,3.917-6.785,14.831-8.01,15.075"/><path class="d" d="M178.676,266.957c-2.344-1.644-6.191-7-7-8.15,1.19-3.078,12.488-32.635,16.615-39.91,1.574-2.764,3.743-4.128,6.611-4.128,7.8,0,18.119,10.074,20.042,12.068C211.975,230.369,188.26,258.177,178.676,266.957Z"/><path class="e" d="M194.906,215.294c7.24,0,16.789,9.024,19.343,11.578-3.988,4.687-26.164,30.606-35.608,39.42a48.231,48.231,0,0,1-6.366-7.555c1.609-4.2,12.487-32.5,16.475-39.6a6.669,6.669,0,0,1,6.156-3.847m0-1.049c-2.8,0-5.282,1.224-7.066,4.407-4.372,7.765-16.719,40.225-16.719,40.225s4.967,7.17,7.66,8.744c10.074-9.129,36.937-40.819,36.937-40.819s-11.858-12.557-20.812-12.557Z"/><path class="d" d="M118.094,262.934c-8.92,0-16.475-.105-18.259-.105-.595-2.308-3.463-14.726.769-20.287a7.173,7.173,0,0,1,6.017-2.728c.349,0,.7,0,1.049.035,9.584.8,38.721,10.388,41.974,11.472.245,1.47,1.294,7.941.909,10.774C143.138,262.794,128.867,262.934,118.094,262.934Z"/><path class="e" d="M106.621,239.324v1.049h0c.315,0,.664,0,1.014.035,9.269.77,37.147,9.864,41.554,11.333a54.827,54.827,0,0,1,.91,9.9c-7.521.63-21.442.77-32,.77-8.36,0-15.5-.07-17.839-.105-.735-3.008-3.113-14.306.769-19.448a6.584,6.584,0,0,1,5.6-2.519v-1.014m0,0c-13.887,0-7.171,24.03-7.171,24.03s8.36.14,18.644.14c11.647,0,25.744-.175,32.914-.875.63-3.078-.909-11.682-.909-11.682s-32.11-10.7-42.394-11.578c-.385-.035-.735-.035-1.084-.035Z"/><path class="f" d="M115.015,263.529c-3.357,13.432-8.429,31.34-16.02,29.766S30.753,244.536,43.94,215.609c8.709-14.831,74.573,4.512,74.573,4.512s51.139-23.366,58.029-31.69c6.856-8.29,38.651-47.886,51.453-45.612s21.127,5.6,16.825,51.978c-3.883,42.148-5.841,50.089-9.269,54.426s-32.04-8.115-32.04-8.115l11.053-13.292s-19.833-7.66-26.794-8.115c-10.423,24.555-15.67,29.8-34.138,33.125-10.879-5.282-44.983-14.237-47.466-13.362a189.8,189.8,0,0,0-6.541,24.1S107.67,263.389,115.015,263.529Z"/><g class="g"><path class="b" d="M99.59,263.529c-1.329,9.374-5,27.353,2.588,34.174s16.58-38.162,16.58-38.162Z"/></g><g class="g"><path class="b" d="M212.15,226.942c7.416,4.372,21.827,8.849,24.17,21.266,2.309,12.418-8.36,25.4-9.409,25.325s-29.766-31.446-29.766-31.446Z"/></g><path class="h" d="M187.735,219.7C189.169,213.825,213.514,165,213.514,165"/><path class="h" d="M106.131,239.429c-6.086-3.568-30.571-14.341-30.571-14.341"/><path class="h" d="M82.731,222.779c1.154,3.568,2.413,6.611,2.413,6.611"/><path class="h" d="M173.219,195.741a110.834,110.834,0,0,0-6.4,17.279"/><path class="h" d="M118.653,220.3c3.428.944,20.008,4.862,20.008,4.862"/><path class="h" d="M150.623,208.683c1.05,5.422,2.974,13.257,5.212,11.333"/><path class="i" d="M80.877,229.32C57.686,219.7,46.6,215.259,62.793,182.694s38.931-57.329,88.215-65.584,89.684-14.656,91.119,15.95c.594,17.209-7.975,27.318-7.975,27.318s-8.465,5.736-23.856-4.757c10.669-7.7,15.6-10.354,15.6-10.354s-11.158-11.263-23.611-8.6-35.048,7.625-35.048,7.625,9.829,36.412,10.773,42.813c.98,6.366-30.885,39.456-62.646,32.425-2.413-16.3-9.129-54.426-9.129-54.426S92.454,185.038,91.58,187.416a78.978,78.978,0,0,0,8.954-2.9s-14.2,20.952-13.606,27.668c.664,6.016,10.249,1.224,10.249,1.224S89.236,224.983,80.877,229.32Z"/><path class="d" d="M163.6,166.6c3.6-2.868,34.454-27.458,39.7-29.522a17.235,17.235,0,0,1,3.288-.314c9.059,0,16.439,6.75,18.293,8.569l-54.251,34.209Z"/><path class="e" d="M206.589,137.327c8.22,0,15.075,5.7,17.454,7.975l-53.237,33.544-6.541-12.067c12.067-9.654,34.768-27.353,39.176-29.137a16,16,0,0,1,3.148-.315m0-1.049a19.211,19.211,0,0,0-3.428.315c-5.562,2.133-40.225,29.906-40.225,29.906l7.485,13.817,55.266-34.839s-8.29-9.2-19.1-9.2Z"/><path class="d" d="M90.426,214.734a2.759,2.759,0,0,1-2.694-1.259c-1.259-2.379.07-9.234,13.292-28.262,6.891-1.574,33.719-7.871,37.742-8.815l2.8,12.207L97.107,212.81S93.294,214.734,90.426,214.734Z"/><path class="e" d="M138.381,176.993l2.588,11.333-44.107,24c-.21.1-3.778,1.889-6.471,1.889-1.714,0-2.1-.735-2.239-.98-.385-.769-.734-2.8,1.4-7.835,2.064-4.862,6.017-11.508,11.753-19.763,6.961-1.574,31.725-7.38,37.077-8.639m.8-1.26s-31.34,7.346-38.476,8.99c-17.769,25.569-15.075,30.536-10.283,30.536,3.043,0,6.96-2.029,6.96-2.029l44.808-24.38-3.009-13.117Z"/><path class="c" d="M131.071,106.651l6.785,21.722a4.726,4.726,0,0,1-1.609,5.177,5.944,5.944,0,0,1-6.226.769,4.834,4.834,0,0,1-2.9-3.253c-.979-3.708-5.282-17.874-5.562-17.979"/><path class="j" d="M94.9,84.405c6.226,13.677,14.1,36.447,32.18,29.347,20.567-7.975,3.043-43.443,3.043-43.443"/><path class="b" d="M130.3,67.9a19.017,19.017,0,0,0,2.064-5.876s-32.425-.21-49.32,5.422S70.173,94.024,90.776,89.932c14.62-2.9,28.157-8.605,35.677-16.72,1.155,4.023,3.673,7.31,7.556,7.555,2.8.175,5.771-12.942,5.771-12.942Z"/><path class="k" d="M99.905,63.908c-9.689,1.084-29.837,1.819-27.423,15.25,2.868,16.02,24.275,9.375,24.275,9.375"/><path class="l" d="M121.766,100.705s-1.5,1.924-2.693,1.084c-.42-.454.42-3.218-.874-7.765"/><ellipse class="m" cx="124.239" cy="89.443" rx="1.539" ry="1.924" transform="translate(-23.068 47.776) rotate(-19.957)"/><path class="n" d="M122.081,82.971c2.064-.874,5.107.315,5.107.315"/><ellipse class="m" cx="110.874" cy="94.028" rx="1.539" ry="1.924" transform="translate(-25.435 43.49) rotate(-19.957)"/><path class="n" d="M105.082,90.7c.7-2.064,3.882-3.638,3.882-3.638"/><path class="l" d="M127.608,104.483c.035.769-1.4,3.008-2.8,2.483"/><ellipse class="f" cx="110.355" cy="101.294" rx="3.323" ry="1.749" transform="translate(-12.604 15.739) rotate(-7.718)"/><ellipse class="f" cx="127.675" cy="94.932" rx="3.323" ry="1.749" transform="translate(-31.419 96.365) rotate(-37.148)"/><path class="o" d="M141.109,263.179c1.854-3.043,6.961-12.487,5.982-12.907,5.351,0,13.921,1.994,14.446,4.827s-10.109,35.433-16.3,33.964C139.011,287.559,147.335,276.226,141.109,263.179Z"/><path class="o" d="M180.775,265.837c-2.9-2.028-9.479-6.54-8.745-7.31-4.9,2.134-11.962,7.38-11.3,10.214.665,2.8,20.357,29.731,25.464,25.884S180.285,280.284,180.775,265.837Z"/><path class="o" d="M167.448,189.445l-14.586,6.436a3.744,3.744,0,0,1-4.932-1.924l-14.9-33.894a3.744,3.744,0,0,1,1.924-4.932l14.586-6.436a3.744,3.744,0,0,1,4.932,1.924l14.9,33.894A3.744,3.744,0,0,1,167.448,189.445Z"/><path class="p" d="M143.243,163.176l-2.064.91a2.4,2.4,0,0,1-3.148-1.225l-.909-2.063a2.394,2.394,0,0,1,1.224-3.148l2.064-.91a2.4,2.4,0,0,1,3.148,1.224l.909,2.064A2.383,2.383,0,0,1,143.243,163.176Z"/><path class="c" d="M130.616,173.075c-2.274,2.414.629,3.708,3.428,3.953-3.533,2.833-.35,4.757,3.288,4.372-3.533,2.833,1.154,3.917,2.973,3.778-1.889,1.644-.35,3.322,2.658,3.148,2.973-.175,12.138-7.8,11.263-9.689-.455-.98-7.94,2.343-7.94,2.343s6.856-3.743,5.981-5.631c-.909-1.889-9.584,2.063-9.584,2.063s8.885-4.372,7.486-6.471c-1.364-2.028-11.4,2.274-11.4,2.274s4.162-1.609,5.666-2.379c1.5-.839,3.008-1.609,1.259-2.868s-7.24.7-10.108,1.889A15.861,15.861,0,0,0,130.616,173.075Z"/><path class="c" d="M158.459,164.785c-2.309,2.064-6.506,6.121-6.122,8.22.385,2.134,1.714,1.119,3.113.14,1.365-1.014,4.618-4.057,4.618-4.057s-8.29,7.1-7.066,9.234c1.259,2.168,9.094-3.848,9.094-3.848s-7.38,6.051-6.086,7.7,7.7-2.868,7.7-2.868-6.3,5.282-5.6,6.121c1.294,1.644,12.207-3.218,13.641-5.841,1.469-2.623.63-4.757-1.679-3.778.945-1.574,2.029-6.261-2.063-4.3,1.923-3.113,1.609-6.821-2.484-4.862,1.015-2.623,1.119-5.806-2.064-4.827A15.533,15.533,0,0,0,158.459,164.785Z"/><path class="q" d="M149.084,143.1c.28-.875.735-2.1,1.33-3.6"/><path class="r" d="M153.317,132.57c9.024-20.427,30.221-59.813,55.3-61.527,30.991-2.133,31.761,17.909,23.821,26.129-7.905,8.22-45.437,7.416-26.374-40.33C216,31.973,241.042,21.969,253.6,18.436"/><path class="q" d="M257.237,17.492c2.379-.56,3.778-.77,3.778-.77"/><path class="s" d="M293.685,14.588c-.245.21-.56.49-.91.77-4.862,4.092-9.689,8.22-14.551,12.312-.07.07-.175.14-.245.21a1.282,1.282,0,0,1-2.063-.664c-.315-1.015-.595-2.029-.875-3.009-.385-1.364-.769-2.763-1.154-4.127-.07-.28-.21-.385-.525-.35-1.364.21-2.728.385-4.127.56a1.064,1.064,0,0,1-1.189-1.434l.1-.315c.805-2.134,1.574-4.267,2.379-6.4a.921.921,0,0,0-.105-.944q-1.626-2.257-3.253-4.513a1.874,1.874,0,0,0-.21-.279.843.843,0,0,1-.035-1.05.9.9,0,0,1,1.015-.315c.8.245,1.609.49,2.448.735,7.381,2.2,14.726,4.407,22.106,6.611a6.031,6.031,0,0,1,.735.245A1.217,1.217,0,0,1,293.685,14.588Zm-24.17,3.428c.035.035.07.07.105.07.1-.1.244-.21.349-.315.77-.8,1.539-1.609,2.344-2.378a1.285,1.285,0,0,1,.7-.315c.84-.07,1.679-.1,2.519-.175,3.5-.21,7-.42,10.493-.664.63-.035,1.225-.07,1.854-.14.14,0,.245-.175.385-.28a1.684,1.684,0,0,0-.385-.315c-.1-.07-.245-.035-.385-.07-4.966-.525-9.968-1.084-14.935-1.609-.63-.07-.805.035-1.015.63-.664,1.714-1.294,3.428-1.958,5.142C269.55,17.736,269.55,17.876,269.515,18.016Z"/><g class="t"><path class="u" d="M90.88,200.323c-4.407,8.36-13.746,22.106-9.9,32.53s20.182-15.705,20.182-17.174S90.88,200.323,90.88,200.323Z"/></g><g class="t"><path class="u" d="M219.74,140.58c5.982,4.547,19.169,15.146,14.551,23.016-2.763,4.722-9.968,2.483-9.968,2.483l-28.857-8.954Z"/></g><g class="t"><path class="u" d="M121.8,146.562a.97.97,0,0,0,.175-1.085.946.946,0,0,0-.909-.629h0l-3.358-.21a.928.928,0,0,1-.7-.42l-1.749-2.9a1.038,1.038,0,0,0-1.854.175l-1.224,3.148a.8.8,0,0,1-.629.524l-3.288.77a1.12,1.12,0,0,0-.805.769,1,1,0,0,0,.35,1.05l2.588,2.133a.876.876,0,0,1,.315.77l-.28,3.358a1.024,1.024,0,0,0,.49.979.8.8,0,0,0,.49.14,1.012,1.012,0,0,0,.629-.175l2.834-1.819a1.01,1.01,0,0,1,.839-.07l3.113,1.33a.949.949,0,0,0,1.084-.175,1.1,1.1,0,0,0,.35-1.05l-.839-3.253a.936.936,0,0,1,.175-.8Z"/></g><g class="t"><path class="u" d="M87.977,169.332a.643.643,0,0,0,.1-.7.7.7,0,0,0-.559-.42h0l-2.134-.14a.546.546,0,0,1-.455-.28l-1.084-1.819a.672.672,0,0,0-.63-.314.7.7,0,0,0-.559.419l-.77,1.994a.55.55,0,0,1-.385.35l-2.1.49a.638.638,0,0,0-.49.489.684.684,0,0,0,.21.665l1.644,1.364a.635.635,0,0,1,.21.49l-.175,2.133a.671.671,0,0,0,.315.63.559.559,0,0,0,.314.1.706.706,0,0,0,.385-.1l1.819-1.154a.554.554,0,0,1,.525-.035l1.958.839a.645.645,0,0,0,.7-.1.615.615,0,0,0,.21-.664l-.525-2.064a.69.69,0,0,1,.105-.525Z"/></g><g class="t"><path class="u" d="M137.157,209.627a.643.643,0,0,0,.1-.7.7.7,0,0,0-.56-.42h0l-2.134-.14a.545.545,0,0,1-.454-.28l-1.085-1.819a.671.671,0,0,0-.629-.314.7.7,0,0,0-.56.419l-.769,1.994a.55.55,0,0,1-.385.35l-2.1.49a.638.638,0,0,0-.49.489.684.684,0,0,0,.21.665l1.644,1.364a.635.635,0,0,1,.21.49l-.175,2.133a.671.671,0,0,0,.315.63.565.565,0,0,0,.315.1.706.706,0,0,0,.385-.1l1.818-1.154a.554.554,0,0,1,.525-.035l1.959.839a.643.643,0,0,0,.7-.1.615.615,0,0,0,.21-.664l-.524-2.064a.69.69,0,0,1,.105-.525Z"/></g><g class="t"><path class="u" d="M173.989,136.383a.645.645,0,0,0,.1-.7.694.694,0,0,0-.56-.419h0l-2.133-.14a.546.546,0,0,1-.455-.28l-1.085-1.819a.669.669,0,0,0-.629-.315.7.7,0,0,0-.56.42l-.769,1.994a.551.551,0,0,1-.385.349l-2.1.49a.637.637,0,0,0-.489.49.684.684,0,0,0,.209.664l1.644,1.365a.632.632,0,0,1,.21.489l-.175,2.134a.671.671,0,0,0,.315.63.571.571,0,0,0,.315.1.714.714,0,0,0,.385-.1l1.819-1.155a.552.552,0,0,1,.524-.035l1.959.84a.645.645,0,0,0,.7-.1.618.618,0,0,0,.209-.665l-.524-2.064a.688.688,0,0,1,.1-.524Z"/></g><g class="t"><path class="u" d="M75.805,209.977a.969.969,0,0,0,.175-1.084.947.947,0,0,0-.91-.63h0l-3.358-.21a.93.93,0,0,1-.7-.419l-1.749-2.9a1.038,1.038,0,0,0-1.854.175l-1.224,3.148a.8.8,0,0,1-.63.525l-3.288.77a1.115,1.115,0,0,0-.8.769,1,1,0,0,0,.35,1.049L64.4,213.3a.876.876,0,0,1,.315.77l-.28,3.358a1.025,1.025,0,0,0,.49.979.8.8,0,0,0,.489.14,1.015,1.015,0,0,0,.63-.175l2.833-1.819a1,1,0,0,1,.84-.07l3.113,1.329a.95.95,0,0,0,1.084-.175,1.1,1.1,0,0,0,.35-1.049l-.84-3.253a.934.934,0,0,1,.175-.8Z"/></g><g class="t"><path class="u" d="M233.732,129.457a.969.969,0,0,0,.175-1.084.947.947,0,0,0-.91-.63h0l-3.358-.21a.93.93,0,0,1-.7-.419l-1.749-2.9a1.038,1.038,0,0,0-1.854.175l-1.224,3.148a.8.8,0,0,1-.63.525l-3.288.77a1.115,1.115,0,0,0-.8.769,1,1,0,0,0,.35,1.049l2.588,2.134a.876.876,0,0,1,.315.77l-.28,3.358a1.025,1.025,0,0,0,.49.979.8.8,0,0,0,.489.14,1.015,1.015,0,0,0,.63-.175l2.833-1.819a1,1,0,0,1,.84-.07l3.113,1.329a.95.95,0,0,0,1.084-.175,1.1,1.1,0,0,0,.35-1.049l-.84-3.253a.934.934,0,0,1,.175-.8Z"/></g><g class="t"><path class="u" d="M199.838,112.108a.969.969,0,0,0,.175-1.084.947.947,0,0,0-.91-.63h0l-3.358-.21a.928.928,0,0,1-.7-.42l-1.749-2.9a1.038,1.038,0,0,0-1.854.175l-1.224,3.148a.8.8,0,0,1-.63.525l-3.288.769a1.119,1.119,0,0,0-.8.77,1,1,0,0,0,.35,1.049l2.588,2.134a.876.876,0,0,1,.315.769l-.28,3.358a1.026,1.026,0,0,0,.49.98.8.8,0,0,0,.489.14,1.015,1.015,0,0,0,.63-.175l2.833-1.819a1,1,0,0,1,.84-.07l3.113,1.329a.95.95,0,0,0,1.084-.175,1.1,1.1,0,0,0,.35-1.049l-.84-3.253a.937.937,0,0,1,.175-.8Z"/></g><g class="t"><path class="u" d="M174.968,194.936a.968.968,0,0,0,.175-1.084.946.946,0,0,0-.909-.629h0l-3.358-.21a.928.928,0,0,1-.7-.42l-1.749-2.9a1.037,1.037,0,0,0-1.853.175l-1.225,3.148a.8.8,0,0,1-.629.524l-3.288.77a1.12,1.12,0,0,0-.8.769,1,1,0,0,0,.35,1.05l2.588,2.133a.876.876,0,0,1,.315.77l-.28,3.358a1.024,1.024,0,0,0,.49.979.8.8,0,0,0,.49.14,1.01,1.01,0,0,0,.629-.175l2.834-1.819a1.01,1.01,0,0,1,.839-.07l3.113,1.33a.951.951,0,0,0,1.085-.175,1.1,1.1,0,0,0,.349-1.05l-.839-3.253a.936.936,0,0,1,.175-.8Z"/></g><g class="t"><path class="v" d="M100.325,185.387c-3.253,1.539-18.259,5.422-21.512,7.311"/></g><g class="t"><path class="v" d="M202.426,137.222c3.393-3.288,12.1-13.221,12.1-13.221"/></g></svg>