<svg xmlns="http://www.w3.org/2000/svg" xmlns:xlink="http://www.w3.org/1999/xlink" viewBox="0 0 300 300"><defs><style>.a,.b,.g,.h,.i,.m,.o,.r{fill:none;}.b{stroke:#3e9ff8;stroke-width:1.832px;}.b,.i,.n,.t,.u{stroke-miterlimit:10;}.c{fill:#3e9ff8;}.d{fill:#ffeb7d;}.e,.n{fill:#ffc3a9;}.e,.n,.o{stroke:#e89589;}.e,.g,.h,.m,.o,.r{stroke-linecap:round;stroke-linejoin:round;}.e,.g,.h,.i,.m,.n,.o{stroke-width:1.099px;}.f{fill:#621cd1;}.g,.h,.i{stroke:#f9c126;}.h{stroke-dasharray:4.298 4.298;}.j{fill:#ff859b;}.k{clip-path:url(#a);}.l{fill:#ff5c76;}.m{stroke:#ff5c76;}.p,.t,.u{fill:#465cff;}.q{fill:#a4d2fc;}.r{stroke:#fff;stroke-width:2.198px;}.s,.v{fill:#fff;}.t,.u{stroke:#6088e3;stroke-width:0.366px;}.t,.v{opacity:0.5;isolation:isolate;}</style><clipPath id="a"><path class="a" d="M130.461,145.594c0-8.061,11.725-26.748,24.916-41.038s30.046-21.252,48.366-7.695,31.145,30.413,30.779,48-6.229,26.016-33.71,26.748c-14.29,0-15.572-1.868-15.572-1.868l-47.084-11.689Z"/></clipPath></defs><title>Online Shopping_1</title><path class="b" d="M82.644,227.487S80.079,254.6,74.95,254.6s-9.527-27.115-9.527-27.115Z"/><path class="b" d="M251.194,227.487s2.565,27.115,7.694,27.115,9.527-27.115,9.527-27.115Z"/><path class="c" d="M244.2,172.526H91.7C66.559,172.526,46,191.176,46,213.967v7.768c0,5.826,5.2,10.552,11.652,10.552H277.832c6.449,0,11.652-4.726,11.652-10.552V213.6C289.484,191.029,269.111,172.526,244.2,172.526Z"/><path class="c" d="M273.142,140.977c0-14.4-17.368-26.161-38.62-26.161H104.372c-21.435,0-38.986,11.871-38.986,26.381v5.753c0,14.51,17.551,26.382,38.986,26.382h130.15c21.252,0,38.62-11.762,38.62-26.162v-1.026h0Z"/><path class="d" d="M176.079,103.97c-14.583-3.371-24.842-8.5-21.215-24.183s-1.685-34.04,20.189-41.112c21.912-7.071,30.3,2.6,45.289,32.391,6.412,12.751,27.81,14.18,32.977,19.31,5.13,5.13,16.049,34.479-19.383,37.374S176.079,103.97,176.079,103.97Z"/><path class="e" d="M187.145,63.774c.513-.769,6.522-4.177,7.255-.109s-8.428,6.778-9.16,6.485"/><path class="f" d="M210.705,195.829c-1.172-2.528-4.36-3.151-6.742-4.1-3.994-1.612-7.145-.4-10.882,1.283-2.089.916-5.533,1.392-6.6,3.664a2.9,2.9,0,0,0,3.042,4.067,1.4,1.4,0,0,0,.806.513c2.528.623,5.386,1.576,7.291,3.444a12.677,12.677,0,0,1,3.188,6.6c.513,2.565,1.795,9.563,6.009,6.888,1.832-1.135,2.419-3.737,2.9-5.679a47.717,47.717,0,0,0,1.246-7.878c.11-1.539.073-3.041.183-4.58A8.635,8.635,0,0,0,210.705,195.829Z"/><path class="f" d="M149.478,269.588c-.99-3.481-2.712-9.527-7.658-6.852-6.046,3.3-3.774,3.994-4.947,10.406a21.456,21.456,0,0,1-2.015,5.057,92.2,92.2,0,0,1-5.423,9.417c-.989,1.538-2.455,3.444-1.832,5.386.916,2.821,4.47,2.088,6.522,1.209,2.785-1.209,4.763-3.481,6.925-5.46,2.638-2.418,5.57-4.4,7.548-7.438C151.017,277.649,150.65,273.582,149.478,269.588Z"/><path class="d" d="M133.942,267.426c-8.061-15.389-21.618-49.1-9.527-68.885-17.588,2.2-31.035-9.161-22.644-26.015,5.386-10.26,50.125-20.153,50.125-20.153l72,13.74s4.4,19.054-13.374,28.4c-14.07,7.4-35.542,10.993-40.3,11.725s-13.191,4.031-13.924,17.588c-.183,3.518,0,28.947,1.1,40.3C153.215,274.022,138.559,270.321,133.942,267.426Z"/><path class="g" d="M150.43,268.892c-.109-.55-.256-1.283-.476-2.162"/><path class="h" d="M148.928,262.59c-4.1-15.829-13.264-51.261,6.632-61.851,23.451-12.458,52.4-10.259,57.893-26.748a61.2,61.2,0,0,0,2.932-11.359"/><path class="g" d="M216.458,160.471c-.183-1.906-1.173-1.5-1.173-1.5"/><path class="i" d="M122.95,199.274s9.783-15.023,24.109-20.7"/><path class="i" d="M116.757,179.744s16.159-7.731,31.365-5.093"/><path class="j" d="M130.461,145.594c0-8.061,11.725-26.748,24.916-41.038s30.046-21.252,48.366-7.695,31.145,30.413,30.779,48-6.229,26.016-33.71,26.748c-14.29,0-15.572-1.868-15.572-1.868l-47.084-11.689Z"/><g class="k"><path class="l" d="M187.218,139.4l.953,1.612.953,1.612h-3.738l.953-1.612.879-1.612m0-1.1h0a1.091,1.091,0,0,0-.952.549l-.953,1.612-.953,1.613a1.169,1.169,0,0,0,0,1.1,1.094,1.094,0,0,0,.953.55h3.737a1.094,1.094,0,0,0,.953-.55,1.169,1.169,0,0,0,0-1.1l-.953-1.613-.952-1.612a.981.981,0,0,0-.88-.549Z"/><path class="l" d="M183.114,115.952l-1.5-1.356,1.356-1.5a.545.545,0,1,0-.806-.733l-1.356,1.5-1.5-1.356a.545.545,0,1,0-.733.806l1.5,1.356-1.356,1.5a.545.545,0,0,0,.807.733l1.355-1.5,1.5,1.356a.544.544,0,1,0,.732-.806Z"/><path class="l" d="M175.163,103.457a1.466,1.466,0,1,1-1.465,1.466,1.47,1.47,0,0,1,1.465-1.466m0-1.1a2.565,2.565,0,1,0,2.565,2.565,2.549,2.549,0,0,0-2.565-2.565Z"/><path class="l" d="M170.766,126.431l-.623-1.905,1.906-.623a.557.557,0,0,0-.33-1.063l-1.905.623-.623-1.9a.556.556,0,1,0-1.063.329l.623,1.906-1.905.623a.556.556,0,1,0,.329,1.062l1.906-.623.623,1.906a.581.581,0,0,0,.7.366A.511.511,0,0,0,170.766,126.431Z"/><path class="l" d="M183.188,124.635l1.429,1.246,1.429,1.246-1.8.623-1.795.623.366-1.832.367-1.906m0-1.1a1.3,1.3,0,0,0-.367.074,1.082,1.082,0,0,0-.733.842l-.366,1.832-.366,1.832a1.075,1.075,0,0,0,.366,1.026,1.116,1.116,0,0,0,.733.257,1.321,1.321,0,0,0,.366-.073l1.8-.623,1.8-.623a1.093,1.093,0,0,0,.367-1.869l-1.43-1.246-1.429-1.246a2.154,2.154,0,0,0-.732-.183Z"/><path class="l" d="M195.682,121.374a1.232,1.232,0,0,1-.366.037,1.466,1.466,0,1,1,0-2.931c.11,0,.256.036.366.036v-1.135c-.11,0-.256-.037-.366-.037a2.565,2.565,0,1,0,0,5.13,1.232,1.232,0,0,0,.366-.037Z"/><path class="l" d="M173.7,137.313a1.286,1.286,0,0,1,.073-.366,1.46,1.46,0,0,1,2.748.989,1.512,1.512,0,0,1-.183.33l1.062.366a1.271,1.271,0,0,0,.147-.329,2.573,2.573,0,1,0-4.837-1.759c-.036.11-.073.22-.11.366Z"/><path class="l" d="M160.14,113.863a1.281,1.281,0,0,1,.074-.366,1.46,1.46,0,1,1,2.748.989,1.512,1.512,0,0,1-.183.33l1.062.366a1.328,1.328,0,0,0,.147-.33,2.573,2.573,0,0,0-4.837-1.758c-.037.109-.073.219-.11.366Z"/><path class="l" d="M168.568,99.683l-.623-1.905,1.905-.623a.557.557,0,1,0-.33-1.063l-1.905.623-.623-1.905a.556.556,0,1,0-1.062.329l.623,1.906-1.906.623a.556.556,0,0,0,.33,1.062l1.905-.623.623,1.906a.581.581,0,0,0,.7.366A.512.512,0,0,0,168.568,99.683Z"/><path class="l" d="M195.682,132.77a1.466,1.466,0,1,1-1.465,1.465,1.47,1.47,0,0,1,1.465-1.465m0-1.1a2.565,2.565,0,1,0,2.565,2.564,2.548,2.548,0,0,0-2.565-2.564Z"/><path class="l" d="M164.171,136.434a1.466,1.466,0,1,1-1.466,1.466,1.47,1.47,0,0,1,1.466-1.466m0-1.1a2.565,2.565,0,1,0,2.565,2.565,2.549,2.549,0,0,0-2.565-2.565Z"/><path class="l" d="M178.791,150.248a1.239,1.239,0,0,1-.367-.037,1.475,1.475,0,0,1,.733-2.858,1.292,1.292,0,0,1,.33.147l.293-1.1-.33-.11a2.555,2.555,0,0,0-1.282,4.947c.11.037.256.037.366.073Z"/><path class="l" d="M166.956,148.2l-.843,1.685-.843,1.686-1.026-1.576-1.026-1.575,1.869-.11,1.869-.11m.916-.586h0a1.169,1.169,0,0,0-.99-.513l-1.868.109-1.869.11a1.148,1.148,0,0,0-.916.587,1.081,1.081,0,0,0,.073,1.1l1.026,1.575,1.026,1.576a1.168,1.168,0,0,0,.989.513,1.149,1.149,0,0,0,.916-.586l.843-1.686.843-1.685a1.077,1.077,0,0,0-.073-1.1Z"/><path class="l" d="M198.394,149.478l.183-2.015,2.015.183a.551.551,0,1,0,.073-1.1l-2.015-.183.183-2.016a.551.551,0,0,0-1.1-.073l-.183,2.015-2.015-.183a.551.551,0,1,0-.074,1.1l2.016.184-.183,2.015a.519.519,0,0,0,.513.586A.593.593,0,0,0,198.394,149.478Z"/><path class="l" d="M203.011,139.878a1.286,1.286,0,0,1,.073-.366,1.46,1.46,0,1,1,2.748.989,1.512,1.512,0,0,1-.183.33l1.062.366a1.3,1.3,0,0,0,.147-.329,2.573,2.573,0,0,0-4.837-1.759c-.036.11-.073.22-.11.366Z"/><path class="l" d="M215.725,161.423l-.769,1.722-.77,1.723-1.1-1.5-1.1-1.5,1.868-.22,1.869-.22m.916-.659h0a1.064,1.064,0,0,0-.989-.44l-1.869.22-1.869.22a1.042,1.042,0,0,0-.879.659,1.171,1.171,0,0,0,.11,1.1l1.1,1.5,1.1,1.5a1.066,1.066,0,0,0,.99.44,1.093,1.093,0,0,0,.879-.66l.77-1.722.769-1.722a1.172,1.172,0,0,0-.11-1.1Z"/><path class="l" d="M222.577,155.854l.22-2.015,2.015.219a.513.513,0,0,0,.586-.476.538.538,0,0,0-.476-.586l-2.015-.22.22-2.015a.534.534,0,1,0-1.063-.11l-.22,2.015-2.015-.22a.514.514,0,0,0-.586.477.538.538,0,0,0,.476.586l2.015.22-.22,2.015a.515.515,0,0,0,.477.586A.489.489,0,0,0,222.577,155.854Z"/><path class="l" d="M232.91,132.074a1.47,1.47,0,1,1-2.052-.33,1.5,1.5,0,0,1,2.052.33m.879-.623a2.568,2.568,0,1,0-.549,3.591,2.574,2.574,0,0,0,.549-3.591Z"/><path class="l" d="M216.494,140.5l1.173-1.612,1.612,1.172a.55.55,0,1,0,.66-.879l-1.612-1.172L219.5,136.4a.549.549,0,1,0-.879-.659l-1.173,1.612-1.612-1.173a.55.55,0,1,0-.66.88l1.613,1.172-1.173,1.613a.568.568,0,0,0,.11.769A.539.539,0,0,0,216.494,140.5Z"/><path class="l" d="M228.476,143.909l-.146,1.868-.147,1.869-1.539-1.062-1.539-1.063,1.686-.806,1.685-.806m.88-.623a.874.874,0,0,0-.257-.257,1.177,1.177,0,0,0-1.1-.11l-1.686.807-1.685.806a1.106,1.106,0,0,0-.623.916.887.887,0,0,0,.22.733.856.856,0,0,0,.256.256l1.539,1.063,1.539,1.062a1.172,1.172,0,0,0,1.1.11,1.1,1.1,0,0,0,.623-.916l.147-1.869.146-1.868a.884.884,0,0,0-.219-.733Z"/><path class="l" d="M200.446,169.264a.848.848,0,0,1-.257-.256,1.47,1.47,0,1,1,2.382-1.722,1.512,1.512,0,0,1,.183.33l.916-.66c-.073-.11-.11-.22-.183-.33a2.569,2.569,0,0,0-4.141,3.042,1.918,1.918,0,0,0,.257.293Z"/><path class="l" d="M209.423,149.295a1.328,1.328,0,0,1,.33-.147,1.507,1.507,0,0,1,1.832.99,1.476,1.476,0,0,1-.99,1.832,1.265,1.265,0,0,1-.366.036l.33,1.063a1.321,1.321,0,0,0,.366-.073,2.575,2.575,0,0,0-1.429-4.947,1.292,1.292,0,0,0-.33.147Z"/><path class="l" d="M226.094,164.318a1.469,1.469,0,1,1-2.051-.33,1.5,1.5,0,0,1,2.051.33m.88-.623a2.569,2.569,0,1,0-.55,3.591,2.541,2.541,0,0,0,.55-3.591Z"/><path class="l" d="M220.855,126.248l-.77,1.722-.769,1.722-1.1-1.5-1.1-1.5,1.869-.219,1.869-.22m.916-.66h0a1.066,1.066,0,0,0-.989-.44l-1.869.22-1.869.22a1.041,1.041,0,0,0-.879.66,1.172,1.172,0,0,0,.11,1.1l1.1,1.5,1.1,1.5a1.065,1.065,0,0,0,.989.439,1.091,1.091,0,0,0,.88-.659l.769-1.722.77-1.723a1.175,1.175,0,0,0-.11-1.1Z"/><path class="l" d="M201.545,153.289a1.466,1.466,0,1,1-1.466,1.466,1.47,1.47,0,0,1,1.466-1.466m0-1.1a2.565,2.565,0,1,0,2.565,2.565,2.549,2.549,0,0,0-2.565-2.565Z"/><path class="l" d="M191.982,158.822l.952,1.612.953,1.612h-3.738l.953-1.612.88-1.612m0-1.1h0a1.092,1.092,0,0,0-.953.55l-.953,1.612-.952,1.613a1.163,1.163,0,0,0,0,1.1,1.091,1.091,0,0,0,.952.549h3.738a1.091,1.091,0,0,0,.952-.549,1.169,1.169,0,0,0,0-1.1l-.952-1.613-.953-1.612a.979.979,0,0,0-.879-.55Z"/><path class="l" d="M218.327,115.622a2.16,2.16,0,0,1-.294.22,1.459,1.459,0,0,1-1.392-2.565,1.292,1.292,0,0,1,.33-.147l-.55-.989a1.288,1.288,0,0,0-.33.146,2.566,2.566,0,0,0,2.455,4.507,3.427,3.427,0,0,1,.294-.183Z"/><path class="l" d="M194.51,99.829l1.172-1.612L197.3,99.39a.55.55,0,0,0,.659-.88l-1.612-1.172,1.172-1.612a.55.55,0,1,0-.879-.66l-1.173,1.612-1.612-1.172a.549.549,0,0,0-.659.879l1.612,1.173L193.63,99.17a.568.568,0,0,0,.11.769A.539.539,0,0,0,194.51,99.829Z"/><path class="l" d="M206.675,118.113a1.466,1.466,0,1,1-1.466,1.466,1.47,1.47,0,0,1,1.466-1.466m0-1.1a2.565,2.565,0,1,0,2.565,2.565,2.549,2.549,0,0,0-2.565-2.565Z"/><path class="l" d="M189.49,108.22l-1.686-.806-1.685-.806,1.576-1.063,1.575-1.062.147,1.869.073,1.868m.623.916h0a1.056,1.056,0,0,0,.476-.989l-.146-1.869-.147-1.868a1.1,1.1,0,0,0-.623-.916,1.073,1.073,0,0,0-1.1.073L187,104.629l-1.575,1.063a1.059,1.059,0,0,0-.477.989,1.108,1.108,0,0,0,.623.916l1.686.806,1.685.807a1.3,1.3,0,0,0,1.173-.074Z"/><path class="l" d="M202.2,108.367a1.293,1.293,0,0,1,.367.073,1.461,1.461,0,1,1-1.319,2.565l-.4,1.063a1.334,1.334,0,0,0,.329.146,2.573,2.573,0,0,0,1.759-4.837c-.11-.036-.22-.073-.366-.109Z"/><path class="l" d="M150.1,117.784a1.47,1.47,0,1,1-2.052-.33,1.468,1.468,0,0,1,2.052.33m.879-.623a2.568,2.568,0,1,0-.55,3.591,2.574,2.574,0,0,0,.55-3.591Z"/><path class="l" d="M147.975,138.3l1.173-1.613,1.612,1.173a.55.55,0,1,0,.66-.879l-1.612-1.173,1.172-1.612a.55.55,0,1,0-.879-.66l-1.173,1.613-1.612-1.173a.55.55,0,1,0-.66.879l1.613,1.173-1.173,1.612a.569.569,0,0,0,.11.77A.54.54,0,0,0,147.975,138.3Z"/><path class="l" d="M142.076,128.813l-.769,1.722-.77,1.722-1.1-1.5-1.1-1.5,1.869-.22,1.868-.219m.916-.66h0a1.066,1.066,0,0,0-.989-.44l-1.869.22-1.868.22a1.043,1.043,0,0,0-.88.66,1.175,1.175,0,0,0,.11,1.1l1.1,1.5,1.1,1.5a1.062,1.062,0,0,0,.989.44,1.092,1.092,0,0,0,.879-.659l.77-1.723.769-1.722a1.172,1.172,0,0,0-.11-1.1Z"/><path class="l" d="M154.827,127.823a.569.569,0,0,1-.293-.22,1.455,1.455,0,0,1,1.906-2.2.99.99,0,0,1,.256.293l.733-.843a.848.848,0,0,0-.257-.256,2.569,2.569,0,1,0-3.407,3.847c.11.073.183.147.293.22Z"/><path class="l" d="M137.972,145.045a.578.578,0,0,1-.293-.22,1.455,1.455,0,0,1,1.906-2.2,1,1,0,0,1,.256.293l.733-.842a.863.863,0,0,0-.257-.257,2.57,2.57,0,0,0-3.407,3.848c.11.073.183.146.293.219Z"/></g><path class="m" d="M161.789,121.961c-.366,1.465-4.03,15.023-9.16,21.984"/><path class="m" d="M145.667,140.281a17.367,17.367,0,0,1,10.626,14.657"/><path class="e" d="M184.14,78.358c-.11.22,1.759,10.369,2.382,13.447a4.7,4.7,0,0,1-.623,3.554,3.5,3.5,0,0,1-3.847,1.759,3.847,3.847,0,0,1-2.638-3.261l-1.906-12.568"/><path class="n" d="M160.69,58.571s1.466,31.292,19.31,25.8c12.2-4.177,8.317-27.371,4.507-35.322"/><ellipse class="f" cx="178.978" cy="66.196" rx="1.319" ry="1.649" transform="translate(-11.835 63.862) rotate(-19.596)"/><path class="o" d="M172.782,71.4a13.822,13.822,0,0,1-.11,3.114c-.184,1.136,1.942-.183,1.942-.183"/><path class="o" d="M180.11,59.3a2.776,2.776,0,0,0-2.675.183"/><path class="o" d="M168.018,62.968a5.2,5.2,0,0,0-2.125,1.5"/><path class="o" d="M179.743,76.526a2.292,2.292,0,0,1-2.2,1.832"/><ellipse class="f" cx="168.792" cy="68.54" rx="1.319" ry="1.649" transform="translate(-13.211 60.582) rotate(-19.596)"/><path class="d" d="M176.116,48.5h-.586c-3.664,0-1.466.367-7.695-3.3s-10.26-1.465-14.656.733-4.031,10.993,2.931,14.29,14.29.367,17.221-3.3c2.748-3.445,5.167-4.617,7.255-4.434,0,0,2.272.4,3,1.5s0,2.2,0,3.3c0,7.658,5.129,4.763,5.129,4.763l.733-15.755Z"/><path class="p" d="M159.114,183.188l-44.848-9.49a1.809,1.809,0,0,1-.513-3.334l27.114-15.28a1.655,1.655,0,0,1,1.246-.183l44.849,9.49a1.81,1.81,0,0,1,.513,3.335L160.36,183.005A1.63,1.63,0,0,1,159.114,183.188Z"/><path class="e" d="M145.7,149.075c-5.863.623-8.245,5.093-7.145,7.878,1.062,2.821,6.558,3.115,7.768,3.774,1.172.66,2.821,4.727,3.444,4.177.659-.586-.073-4.287-.623-5.533,2.638,1.979,3.664,6.01,4.653,4.837s-.659-5.24-1.758-7.438c1.758,1.319,1.978,2.858,3.151,4.47,1.136,1.576,1.429,2.235,2.088,1.319.66-.879-.916-5.862-2.345-7.768,2.382,1.063,3.628,6.632,4.617,5.753s-.146-4.324-1.246-6.522-3.957-3.994-8.537-4.874Z"/><path class="q" d="M158.565,183.042,112.434,173.3a1.881,1.881,0,0,1-1.356-1.209l-10.443-31.951a1.792,1.792,0,0,1,2.089-2.309l46.131,9.747a1.879,1.879,0,0,1,1.356,1.209l10.442,31.951A1.8,1.8,0,0,1,158.565,183.042Z"/><path class="m" d="M200.629,121.961s9.893,19.053,7.328,24.549-21.985,3.3-25.282,6.229"/><path class="e" d="M180.256,152.19c-.586-.11-4.287-3.371-4.91-3.994s-1.209,1.209,1.539,4.58c-3.371-.916-8.244,1.539-9.49,3.664-1.209,2.125-2.455,5.5-1.539,6.412s2.455-4.58,4.91-5.5c-1.539,1.832-3.371,6.742-2.748,7.658s.916.293,2.125-1.209c1.21-1.539,1.539-3.041,3.371-4.287-1.209,2.125-3.041,6.119-2.125,7.328s2.125-2.748,4.91-4.58c-.623,1.209-1.539,4.91-.916,5.5s2.455-3.371,3.664-3.994,6.742-.623,7.951-3.371C188.207,157.686,186.046,153.106,180.256,152.19Z"/><path class="q" d="M129.545,100.819,32.995,84.843a5.653,5.653,0,0,1-4.58-4.214L10.608,8.556a2.858,2.858,0,0,1,3.261-3.517l96.073,15.9a5.653,5.653,0,0,1,4.58,4.214l17.954,72.476A2.593,2.593,0,0,1,129.545,100.819Z"/><path class="p" d="M117.27,35.854,13.209,18.633,10.644,8.556a2.859,2.859,0,0,1,3.225-3.517l96.769,16.012a4.68,4.68,0,0,1,3.774,3.444Z"/><polyline class="r" points="28.892 52.819 24.568 49.228 27.353 45.491"/><path class="s" d="M106.9,30.651,18.889,16.324A3.268,3.268,0,0,1,16.14,13.1h0a3.272,3.272,0,0,1,3.775-3.225L107.927,24.2a3.268,3.268,0,0,1,2.748,3.224h0A3.252,3.252,0,0,1,106.9,30.651Z"/><path class="t" d="M53.771,71.652,37.686,69.014a1.883,1.883,0,0,1-1.539-1.392l-9.6-37.411a1.9,1.9,0,0,1,2.125-2.345L44.757,30.5A1.884,1.884,0,0,1,46.3,31.9l9.6,37.41A1.878,1.878,0,0,1,53.771,71.652Z"/><path class="u" d="M84.183,76.782,68.1,74.144a1.885,1.885,0,0,1-1.539-1.392l-9.6-37.411A1.9,1.9,0,0,1,59.084,33l16.085,2.638a1.885,1.885,0,0,1,1.539,1.392l9.6,37.411A1.878,1.878,0,0,1,84.183,76.782Z"/><path class="t" d="M114.6,81.179,98.51,78.541a1.885,1.885,0,0,1-1.539-1.392l-9.6-37.411A1.9,1.9,0,0,1,89.5,37.393l16.086,2.638a1.887,1.887,0,0,1,1.539,1.392l9.6,37.411A1.879,1.879,0,0,1,114.6,81.179Z"/><path class="v" d="M55.53,79.713,39.518,77.075a1.93,1.93,0,0,1-1.539-1.392h0A1.9,1.9,0,0,1,40.1,73.3l16.012,2.638a1.933,1.933,0,0,1,1.539,1.393h0A1.869,1.869,0,0,1,55.53,79.713Z"/><path class="s" d="M85.942,84.843,69.93,82.205a1.933,1.933,0,0,1-1.539-1.392h0a1.9,1.9,0,0,1,2.125-2.382l16.012,2.638a1.933,1.933,0,0,1,1.539,1.392h0A1.87,1.87,0,0,1,85.942,84.843Z"/><path class="v" d="M116.354,89.24,100.342,86.6A1.933,1.933,0,0,1,98.8,85.21h0a1.9,1.9,0,0,1,2.125-2.382l16.012,2.638a1.933,1.933,0,0,1,1.539,1.392h0A1.87,1.87,0,0,1,116.354,89.24Z"/><polyline class="r" points="114.082 55.64 118.736 59.121 116.024 62.858"/></svg>