<svg xmlns="http://www.w3.org/2000/svg" viewBox="0 0 300 300"><defs><style>.a{fill:#adf45b;}.b{fill:#f76559;}.c{fill:#f26a71;}.d{fill:#fcab2b;}.e{fill:#dde8e3;}.f{fill:#db9850;}.g{fill:#f27e8f;}.h{fill:none;}.i{fill:#ffa89c;}.j{fill:#fcafb7;}.k{fill:#87edbf;}.l{fill:#ffdb45;}.m{fill:#b7e2d0;}</style></defs><title>Online Shopping</title><path d="M112.707,169.986l-.015-1.12c.036-.061.079-.118.112-.182a.371.371,0,0,0-.122-.487q-.138-10.1-.278-20.2-.085-6.212-.17-12.424a.352.352,0,0,0-.131-.28.346.346,0,0,0-.359-.325q-10.225.088-20.449.3-10.177.213-20.354.548-5.616.186-11.23.41a.386.386,0,0,0-.707.193q-.231,10.508-.222,21.017.011,10.553.264,21.1.141,5.922.361,11.841c.018.488.778.49.76,0q-.387-10.5-.535-21.013-.148-10.553-.052-21.106.051-5.64.176-11.278,10.053-.4,20.112-.679,10.176-.282,20.356-.439,5.625-.089,11.251-.136l.168,12.172a5.37,5.37,0,0,0-5.112.676,5.951,5.951,0,0,0-1.76,2.292,6,6,0,0,1-1.719,2.555.406.406,0,0,0-.116.118q-1.146-1.866-2.293-3.733a.385.385,0,0,0-.669.037l-2.424,1.394a12.464,12.464,0,0,0-12.6-9.113,13.174,13.174,0,0,0-5.043,1.414,2.524,2.524,0,0,0,.237-1.06,2.559,2.559,0,1,0-2.578,2.556c-.231.183-.462.368-.681.566a13.125,13.125,0,0,0-4.187,7.93A14.709,14.709,0,0,0,74.98,163.69c.27.406.929.025.657-.383-3.3-4.942-3.149-11.952.986-16.376a12.937,12.937,0,0,1,7.255-3.916,11.313,11.313,0,0,1,7.923,1.656,11.533,11.533,0,0,1,5.064,6.966L78.979,161.918l-6.017,3.459a.4.4,0,0,0-.125.113.369.369,0,0,0-.357.556l3.335,5.276c.26.412.919.031.656-.384q-1.552-2.458-3.106-4.915l2.095-1.2,3.576,5.535q-1.454.687-2.918,1.347c-.446.2-.06.856.384.657s.907-.418,1.361-.627a5.8,5.8,0,0,1-1.636,2.82,3.266,3.266,0,0,1-3.7.057,18.73,18.73,0,0,1-5.87-5.1c-.3-.384-.837.157-.538.538a21.574,21.574,0,0,0,2.3,2.455.359.359,0,0,0-.323.357c-.006.232-.012.466-.018.7L65.557,171.8c-.4-.279-.784.38-.384.657l2.877,2c-.028.823-.073,1.645-.148,2.465a13.935,13.935,0,0,1-3.048-1.895c-.375-.309-.916.226-.537.538a14.611,14.611,0,0,0,3.277,2.05.378.378,0,0,0,.234.024,20.018,20.018,0,0,1-.458,2.53,11.1,11.1,0,0,1-2.754-2.233c-.327-.366-.863.174-.538.538a11.776,11.776,0,0,0,3.058,2.444.258.258,0,0,0,.026.008c-.087.283-.175.566-.279.845-.207.552-.455,1.093-.711,1.633a5.573,5.573,0,0,1-3.564-1.616.38.38,0,0,0-.537.537,6.357,6.357,0,0,0,3.754,1.808c-.289.6-.567,1.2-.81,1.814l-2.952-.805a.38.38,0,0,0-.2.733l2.893.789a7.914,7.914,0,0,0-.41,2.174.425.425,0,0,0-.018.532c0,.007,0,.013,0,.019a.384.384,0,0,0,.488.351,16.549,16.549,0,0,0,24.657-6.406c.965-2.015,1.643-4.16,2.7-6.134a10.163,10.163,0,0,1,3.888-4.309c1.93-1.05,4.193-.993,6.324-.937a19.6,19.6,0,0,0,7.024-.785,7.332,7.332,0,0,0,2.539-1.4q.069,4.935.136,9.87l.171,12.425a.381.381,0,0,0,.761,0Q112.858,181.025,112.707,169.986Zm-12.483-19.4q1.581,2.573,3.161,5.146a.383.383,0,0,0,.123.124q-1.479,1.072-2.985,2.107a36.208,36.208,0,0,0-2.8-5.936Zm-5.743,3.3,2.578-1.481a35.267,35.267,0,0,1,2.82,6q-1.025.7-2.058,1.38-1.716-2.922-3.43-5.844Zm-.75.431,3.452,5.882q-1.164.759-2.343,1.5a.181.181,0,0,0-.009-.031,31.069,31.069,0,0,0-3.881-5.749ZM90.285,156.3a30.283,30.283,0,0,1,3.89,5.75.248.248,0,0,0,.034.043q-1.633,1.013-3.289,1.987a.382.382,0,0,0-.04-.139q-1.6-3.072-3.2-6.144Zm-3.263,1.876,3.2,6.149a.371.371,0,0,0,.088.108q-1.556.9-3.133,1.764-1.758-3.045-3.514-6.09ZM83,160.482l3.5,6.074q-1.771.961-3.567,1.878-1.65-3.009-3.3-6.018Zm-6.884,3.957,2.86-1.644q1.642,2.991,3.284,5.984-1.261.635-2.537,1.243Zm33.2,5.953a16.962,16.962,0,0,1-6.16.819,18.5,18.5,0,0,0-6.181.46,8.92,8.92,0,0,0-4.363,3.365c-2.474,3.384-3.1,7.742-5.724,11.047A15.711,15.711,0,0,1,65.1,189.011a7.73,7.73,0,0,1,.487-2.5c0-.01.007-.019.009-.029.595-1.641,1.563-3.195,2.13-4.821a28.553,28.553,0,0,0,1.129-8.767c.151.131.287.279.442.406a13.463,13.463,0,0,0,3.637,2.315,3.7,3.7,0,0,0,3.777-.487A7.537,7.537,0,0,0,78.8,171.3a153.87,153.87,0,0,0,19.664-11.02c.634-.419,1.259-.851,1.887-1.28a.373.373,0,0,0,.409-.278c1.174-.808,2.341-1.626,3.492-2.466a.4.4,0,0,0-.153-.719.351.351,0,0,0-.052-.192l-.74-1.205a.388.388,0,0,0,.134-.056c1.61-1.1,1.761-3.2,3.1-4.513a4.594,4.594,0,0,1,5.1-.861.155.155,0,0,0,.023.006l.123,8.935q.075,5.5.151,11A5.3,5.3,0,0,1,109.321,170.392Z"/><path d="M86.366,198.235a2.138,2.138,0,0,0-3.741-1.972,2.189,2.189,0,0,0,.219,2.785,3.018,3.018,0,0,0,1.445.707c.592.165,1.154.422,1.175,1.122a1.317,1.317,0,0,1-1.335,1.286,2.066,2.066,0,0,1-1.788-1.092c-.256-.416-.914-.035-.656.384a2.781,2.781,0,0,0,2.735,1.439,2.044,2.044,0,0,0,1.8-2.136,1.771,1.771,0,0,0-.625-1.238,4.154,4.154,0,0,0-1.479-.606,1.477,1.477,0,0,1-1.095-1.089,1.3,1.3,0,0,1,.5-1.384,1.386,1.386,0,0,1,2.114,1.592c-.151.467.583.667.733.2Z"/><path d="M83.837,194.3a85.49,85.49,0,0,1-.011,9.842c-.029.489.732.487.761,0A85.716,85.716,0,0,0,84.6,194.3c-.028-.487-.788-.49-.761,0Z"/><path d="M170.613,141.758q-.3-10.391-.855-20.772-.315-5.882-.712-11.76a.387.387,0,0,0-.39-.363.379.379,0,0,0-.052-.752q-9.975-.472-19.965-.412-9.942.063-19.871.657-5.442.326-10.872.813a.379.379,0,0,0-.687.21v.04a.414.414,0,0,0,.006.39q.2,9.958.208,19.919.01,10.174-.17,20.349-.1,5.712-.265,11.423a.381.381,0,0,0,.761,0q.288-10.172.386-20.348t0-20.35q-.051-5.441-.16-10.88,9.722-.864,19.48-1.224,9.934-.361,19.879-.191,5.624.1,11.244.363a.32.32,0,0,0-.3.356q.7,10.374,1.146,20.763t.631,20.777q.106,5.888.129,11.774a.381.381,0,0,0,.761,0Q170.91,152.148,170.613,141.758Z"/><rect class="a" x="117.37" y="162.543" width="53.202" height="14.458"/><rect class="b" x="174.382" y="254.394" width="53.202" height="14.458"/><rect class="b" x="117.37" y="236.501" width="53.202" height="14.458"/><path d="M145.89,244.742a4.377,4.377,0,0,0-.709-.31l-.219-3.744a1.18,1.18,0,0,1,1.2.968c.077.482.81.277.733-.2a1.9,1.9,0,0,0-1.979-1.523l-.049-.841c-.028-.486-.789-.49-.76,0l.057.985c-.026.01-.055.014-.081.025a2.821,2.821,0,0,0-1.617,3.344,2.482,2.482,0,0,0,1.44,1.323c.173.074.358.138.545.2q.07,1.2.14,2.391a5.481,5.481,0,0,1-1.539-.652c-.43-.233-.814.423-.383.657a6.082,6.082,0,0,0,1.966.743c.012.212.025.423.037.635a.36.36,0,0,0-.053.561l.193.19a.384.384,0,0,0,.649-.269L145.4,248.1a2.027,2.027,0,0,0,1.032-.481A1.753,1.753,0,0,0,145.89,244.742Zm-1.978-.813a1.426,1.426,0,0,1-.693-1.871,2.3,2.3,0,0,1,.994-1.177l.191,3.274A4.119,4.119,0,0,1,143.912,243.929Zm1.5,3.4c-.019.006-.039.007-.058.012q-.061-1.04-.122-2.078a2.114,2.114,0,0,1,.715.478A.939.939,0,0,1,145.41,247.329Z"/><path d="M146.317,170.026a2.643,2.643,0,0,0-1.466-.517l.051-2.752a3.984,3.984,0,0,1,1.015.075c.478.1.682-.635.2-.733a4.938,4.938,0,0,0-1.2-.092l.017-.92a.38.38,0,0,0-.76,0l-.019,1.032a2.392,2.392,0,0,0-1.44.977,1.956,1.956,0,0,0,.535,2.812,2.661,2.661,0,0,0,.83.227l-.045,2.394a3.236,3.236,0,0,1-1.249-.771c-.354-.338-.893.2-.538.538a4.026,4.026,0,0,0,1.772,1.013L144,174.625a.38.38,0,0,0,.76,0l.024-1.245a2.327,2.327,0,0,0,1.169-.351A1.907,1.907,0,0,0,146.317,170.026Zm-3.164-1.334a1.456,1.456,0,0,1,.592-1.576,1.918,1.918,0,0,1,.394-.193q-.024,1.237-.047,2.474A1.106,1.106,0,0,1,143.153,168.692Zm1.64,3.933q.021-1.188.044-2.375c.7.121,1.318.342,1.3,1.124A1.369,1.369,0,0,1,144.793,172.625Z"/><path d="M202.3,261a3.216,3.216,0,0,0-.706-.316q.012-.946-.012-1.893a1.908,1.908,0,0,1,.918.847c.23.432.887.048.657-.384a2.509,2.509,0,0,0-1.6-1.239c-.009-.213-.01-.426-.022-.638-.028-.487-.789-.49-.761,0,.012.209.013.419.022.628a1.628,1.628,0,0,0-.753.386,1.573,1.573,0,0,0,.381,2.651,3.5,3.5,0,0,0,.408.163q-.033,1.289-.135,2.575a1.222,1.222,0,0,1-.723-1.038c-.027-.486-.787-.489-.76,0a2.119,2.119,0,0,0,1.406,1.832c-.033.34-.059.681-.1,1.02-.059.485.7.48.76,0,.036-.3.058-.6.087-.9.07,0,.139,0,.21,0a1.992,1.992,0,0,0,1.582-2.367A1.917,1.917,0,0,0,202.3,261Zm-1.594-.664a.826.826,0,0,1-.025-1.483,1.078,1.078,0,0,1,.14-.063c.015.535.019,1.069.015,1.6C200.794,260.369,200.749,260.354,200.707,260.331Zm1.655,2.808a1.061,1.061,0,0,1-.92.775c.068-.814.121-1.628.146-2.443a1.846,1.846,0,0,1,.428.25A1.338,1.338,0,0,1,202.362,263.139Z"/><path d="M228.141,212.09q-.135-5.832-.367-11.663c-.019-.488-.78-.49-.761,0q.41,10.325.521,20.658.11,10.377-.081,20.754-.108,5.834-.311,11.665c-.017.489.743.489.76,0q.358-10.326.421-20.661Q228.383,222.466,228.141,212.09Z"/><path d="M227.271,199.032q-10.279-.378-20.571-.18-10.24.2-20.459.979-5.639.429-11.262,1.036a.382.382,0,0,0-.747.09q-.528,10.034-.677,20.084t.088,20.1q.133,5.69.389,11.376c.022.487.783.49.761,0q-.452-10.04-.522-20.089t.244-20.094q.168-5.352.446-10.7,10.084-1.083,20.218-1.608,10.23-.525,20.478-.473,5.808.03,11.614.245C227.761,199.811,227.76,199.05,227.271,199.032Z"/><path class="c" d="M130.437,120.292c-.7,5.906,1.883,12.107-.1,17.715a17.619,17.619,0,0,1-4.783,6.713,1.6,1.6,0,0,0,1.162,2.774,15.189,15.189,0,0,0,14-10.209l.3,8.91,4.3-.134-2.283-26.552a42.622,42.622,0,0,1-12.719.422Z"/><path class="c" d="M149.514,124.43c-.7,5.905,1.883,12.106-.1,17.714a17.588,17.588,0,0,1-4.771,6.7,1.628,1.628,0,0,0,1.217,2.785A15.192,15.192,0,0,0,159.8,141.422l.3,8.91,4.3-.134-2.283-26.552a42.622,42.622,0,0,1-12.719.422Z"/><path class="d" d="M192.506,245.544c1.82-4.542,1.166-9.86,2.546-14.623.225-.777.783-1.706,1.573-1.528.575.129.84.783,1,1.351a28.247,28.247,0,0,1,1,7.9,50.737,50.737,0,0,0-.067,5.486,10.776,10.776,0,0,0,.278,1.618,31.568,31.568,0,0,0,9.191-1.52,101.38,101.38,0,0,0-1.3-28.827,32.883,32.883,0,0,1-18.129-.338l-.033.612a175.846,175.846,0,0,1-3.952,25.219,24.258,24.258,0,0,0-.578,3.093A32.948,32.948,0,0,0,192.506,245.544Z"/><path d="M194.771,216.684l-.413,5.075-.1,1.225a4.381,4.381,0,0,0-.057,1.25.852.852,0,0,0,1.179.549c.562-.223.846-.907,1.092-1.412a10.791,10.791,0,0,0,.77-2.11,10.993,10.993,0,0,0,.181-4.32c-.073-.482-.806-.278-.733.2a9.964,9.964,0,0,1-.1,3.541,10.272,10.272,0,0,1-.508,1.69,6,6,0,0,1-.77,1.508c-.081.1-.177.251-.309.161s-.05-.3-.038-.447l.078-.962.157-1.925.328-4.025c.04-.487-.721-.485-.761,0Z"/><path d="M201.675,216.467a6.323,6.323,0,0,0,6.06,7.431c.489.019.488-.741,0-.761a5.633,5.633,0,0,1-5.327-6.467c.077-.479-.656-.685-.733-.2Z"/><path d="M188.363,221.924a7.233,7.233,0,0,0,3.048-6.137c-.019-.488-.78-.49-.761,0a6.452,6.452,0,0,1-2.671,5.48c-.4.281-.017.941.384.657Z"/><path class="e" d="M161.343,201.087a16.709,16.709,0,0,0-3.8-6.789,12.019,12.019,0,0,0-7.067-3.485,7.673,7.673,0,0,1-5.431,4.147c-3.139.546-5.477-1.162-7.186-3.442q-.825.272-1.625.618c-4.268,1.851-5.815,3.3-8.3,7.5-2.1,3.54-2.424,7.9-2.606,12.006-.016.362-.02.728,0,1.092,1.145.393,2.423.521,3.586.824.439.115.873.228,1.3.334.168-.3.322-.6.454-.9q2.065-4.615,4.13-9.233c.235,2.459.607,14.012.842,16.471a23.322,23.322,0,0,0,.329,2.456,18.371,18.371,0,0,0,2.164-.059c2.357-.255,4.685-.733,7.018-1.147,2.748-.489,5.507-1.285,8.3-1.58,0-.043.014-.086.018-.128a134.979,134.979,0,0,0-.766-17.253c.7,2.978,3.012,5.605,4.781,8.1a8.678,8.678,0,0,0,2.3,2.349,22.658,22.658,0,0,0,4.313-2.5A96.811,96.811,0,0,0,161.343,201.087Z"/><path d="M39.336,284.644c.062,1.345,2.578.8,3.924.757l8.3-.275c1.169-.039,2.6-.258,3-1.359a2,2,0,0,0-1.032-2.261,5.2,5.2,0,0,0-2.625-.489C46.774,281.036,39.272,283.275,39.336,284.644Z"/><path d="M84.46,283.983c4.052-.045,8.391-.229,12.27,1.279a3.116,3.116,0,0,1,1.148.663,1.162,1.162,0,0,1,.3,1.222c-.24.55-.94.692-1.537.757q-5.3.587-10.626.937a2.23,2.23,0,0,1-2.985-2.665,2.565,2.565,0,0,1,.225-1.2A1.272,1.272,0,0,1,84.46,283.983Z"/><rect class="b" x="117.774" y="87.759" width="53.202" height="14.458"/><path d="M143.77,95.439a2.993,2.993,0,0,0-.512-.134l-.249-2.84a2.551,2.551,0,0,1,1.567.43c.4.281.782-.378.384-.657a3.17,3.17,0,0,0-2.019-.538l-.093-1.067c-.043-.483-.8-.488-.761,0q.053.6.106,1.2a3.14,3.14,0,0,0-.763.339c-1.021.638-1.833,2.246-.76,3.224a3.218,3.218,0,0,0,1.885.558q.1,1.138.2,2.275c-.628-.036-1.259-.125-1.878-.179-.488-.042-.485.719,0,.761.641.055,1.3.148,1.945.182l.081.927c.043.484.8.488.761,0l-.082-.928a1.883,1.883,0,0,0,1.42-.629C145.894,97.235,144.891,95.848,143.77,95.439Zm-1.967-.332a1.016,1.016,0,0,1-.833-.595,1.3,1.3,0,0,1,.207-1.062,2.1,2.1,0,0,1,1.083-.847q.115,1.3.229,2.605A5.94,5.94,0,0,1,141.8,95.107Zm2.585,2.811a1.176,1.176,0,0,1-.872.32l-.19-2.163a1.526,1.526,0,0,1,1.125.833A.956.956,0,0,1,144.388,97.918Z"/><rect class="b" x="173.567" y="178.832" width="53.202" height="14.458"/><path d="M199.155,182.78a2.194,2.194,0,0,0-2.535-.515,2.128,2.128,0,0,0-.413,3.471,12.249,12.249,0,0,0,1.607.817.8.8,0,0,1-.14,1.473,1.739,1.739,0,0,1-1.782-.591.38.38,0,0,0-.538.537,2.352,2.352,0,0,0,3,.541,1.534,1.534,0,0,0-.042-2.54c-.507-.354-1.2-.426-1.653-.848a1.427,1.427,0,0,1-.385-1.315,1.347,1.347,0,0,1,2.341-.492c.323.37.859-.17.538-.538Z"/><path d="M196.875,181.407l.06,8.645a.381.381,0,0,0,.761,0l-.06-8.645a.381.381,0,0,0-.761,0Z"/><rect class="b" x="58.6" y="115.831" width="52.895" height="14.458"/><path d="M84.152,122.078l-.323-.084q.04-1.588.083-3.176a1.811,1.811,0,0,1,1.309.776c.272.4.931.024.657-.384a2.685,2.685,0,0,0-1.945-1.184l.012-.449a.381.381,0,0,0-.761,0l-.013.489a2.427,2.427,0,0,0-1.95,2.634,2.274,2.274,0,0,0,1.832,1.877l-.081,3.07a3.034,3.034,0,0,1-1.3-.87c-.286-.312-.863.114-.6.461l.109.143a.4.4,0,0,0,.13.111,3.589,3.589,0,0,0,1.636.933q-.016.663-.035,1.326a.381.381,0,0,0,.761,0l.033-1.248a2.664,2.664,0,0,0,.483-.053,2.332,2.332,0,0,0,1.923-2.35A2.29,2.29,0,0,0,84.152,122.078Zm-2.181-1.79a1.564,1.564,0,0,1,1.179-1.4q-.038,1.441-.076,2.883A1.369,1.369,0,0,1,81.971,120.288Zm3.308,4.407a1.7,1.7,0,0,1-1.549,1.039l.078-2.961a3.271,3.271,0,0,1,.953.353A1.309,1.309,0,0,1,85.279,124.7Z"/><path class="f" d="M145.707,63.662A86.865,86.865,0,0,0,158.133,66.2a13.5,13.5,0,0,0,1.593-4.03c1.729-7.943.077-16.989-11.99-19.725-12.819-2.906-17.885,4.9-19.614,12.844a13.454,13.454,0,0,0-.266,2.047A130.009,130.009,0,0,0,145.707,63.662Z"/><path d="M165.373,70.394a37.666,37.666,0,0,0-6.676-2.408c-1.615-.465-3.316-.587-4.968-.9-1.674-.316-3.336-.691-4.992-1.087q-1.192-.287-2.381-.582c-1.9-.47-3.8-.915-5.686-1.442-1.946-.544-3.87-1.167-5.8-1.76a.384.384,0,0,0-.43.558,24.505,24.505,0,0,0,12.192,9.2,37.814,37.814,0,0,0,11.548,2.581,33.929,33.929,0,0,0,4.395-.074,13.15,13.15,0,0,0,3.476-.645c.636-.239,1.464-.664,1.405-1.465C167.384,71.4,166.115,70.773,165.373,70.394Zm1.3,2.18c-.053.1.011.009-.062.085-.028.03-.171.152-.119.113a2.408,2.408,0,0,1-.45.256,10.022,10.022,0,0,1-2.943.644,31.936,31.936,0,0,1-4.149.15,36.122,36.122,0,0,1-10.33-1.956c-4.72-1.533-9.2-3.959-12.361-7.874-.183-.227-.34-.473-.512-.708,1.571.489,3.141.983,4.726,1.427,1.882.526,3.789.971,5.686,1.441,3.124.773,6.256,1.532,9.439,2.025a19.742,19.742,0,0,1,2.326.379q1.09.306,2.173.641c1.132.351,2.259.728,3.361,1.168a15.133,15.133,0,0,1,2.133,1.013,3.7,3.7,0,0,1,.981.773,1.427,1.427,0,0,1,.114.192c-.04-.079.006.062.019.08,0,.055,0,.09,0,.057C166.683,72.6,166.7,72.514,166.668,72.574Z"/><path d="M147.15,41.61a1.247,1.247,0,0,1,1.236-.764,1.128,1.128,0,0,1,.84,1.162q.381.106.757.233a1.987,1.987,0,0,0-1.338-2.118,2.073,2.073,0,0,0-2.3,1.42C146.613,41.554,146.882,41.581,147.15,41.61Z"/><path d="M151.322,45.307a5.235,5.235,0,0,0-3.559-3.128.324.324,0,0,0-.517-.2c-4.441,3.328-6.694,8.569-8.081,13.787-.448,1.685-.823,3.388-1.2,5.09-.1.477.628.68.734.2,1.176-5.351,2.413-10.951,5.851-15.37a16.449,16.449,0,0,1,2.808-2.835.442.442,0,0,0,.083.024c1.628.146,2.64,1.6,3.29,2.95a26.727,26.727,0,0,1,1.638,4.444,29.731,29.731,0,0,1,1.041,9.414,29.24,29.24,0,0,1-.783,5.394c-.115.475.618.678.733.2A29.887,29.887,0,0,0,151.322,45.307Z"/><path class="e" d="M72.806,72.746v3.479H94.629V72.746H72.806Z"/><path d="M294.751,175.571a.342.342,0,0,0,.031-.278,131.5,131.5,0,0,0-7.246-19.256q-1.238-2.64-2.593-5.223c-.189-.362-.671-.153-.7.177-1.373.49-2.756.95-4.138,1.412a.385.385,0,0,0,.035-.379c-1.458-3.293-3.354-7.137-7.256-7.913-.478-.095-.682.638-.2.734,3.695.735,5.426,4.456,6.8,7.563a.316.316,0,0,0,.148.157q-9.21,3.057-18.666,5.289a.362.362,0,0,0,.05-.185c-.012-3.014-.034-6.131,1.016-9a9.118,9.118,0,0,1,4.79-5.425c.45-.19.062-.845-.384-.656a9.776,9.776,0,0,0-5.045,5.629c-1.168,2.992-1.15,6.293-1.138,9.454a.339.339,0,0,0,.187.313q-3.4.787-6.821,1.466c-.379.075-.328.544-.054.692a.332.332,0,0,0-.379.362q.622,9.406,1.244,18.814.175,2.662.352,5.325a.386.386,0,0,0,.389.364.3.3,0,0,0,.309.151,163.433,163.433,0,0,0,30.873-6.081q4.228-1.269,8.384-2.765A.4.4,0,0,0,294.751,175.571Zm-30.44,7.71q-4.374.676-8.78,1.109L254.3,165.827l-.352-5.325a.368.368,0,0,0-.224-.321.4.4,0,0,0,.1,0,215.626,215.626,0,0,0,24.306-6.3q3.219-1.039,6.4-2.181a130.252,130.252,0,0,1,7.77,18.233q.933,2.763,1.743,5.565a.343.343,0,0,0,.148.2A162.983,162.983,0,0,1,264.311,183.281Z"/><path class="e" d="M95.4,77.2H72.179Q67.6,87.608,63.934,98.388a3.6,3.6,0,0,1,4.338-.688,14.713,14.713,0,0,1,2.1,1.854,2.771,2.771,0,0,0,2.56.8c.929-.307,1.4-1.306,1.846-2.179s1.136-1.813,2.115-1.807,1.647.94,2.189,1.751,1.34,1.692,2.3,1.52c1.035-.185,1.56-1.509,2.592-1.712,1.06-.208,1.9.84,2.53,1.713s1.73,1.783,2.67,1.251c.786-.443.911-1.669,1.749-2,1.5-.6,2.6,2.334,4.164,1.917,1.2-.322,1.12-2.221,2.152-2.92.944-.639,2.2.064,3.06.816s1.883,1.641,2.983,1.342A149.377,149.377,0,0,1,95.4,77.2Z"/><ellipse class="g" cx="92.526" cy="182.722" rx="6.665" ry="7.929" transform="translate(-102.104 118.944) rotate(-45)"/><path class="h" d="M76.591,213.423a.381.381,0,0,0-.657.384l2.076,3.584a.38.38,0,0,0,.656-.384Z"/><path class="h" d="M51.624,218.729l-2.684,1.488c-.428.238-.045.895.384.657l2.684-1.489C52.436,219.148,52.053,218.491,51.624,218.729Z"/><path class="h" d="M55.591,212.543q.447,2.236.895,4.472c.1.479.829.276.733-.2l-.894-4.472C56.229,211.861,55.5,212.064,55.591,212.543Z"/><path class="h" d="M48.125,225.857v.894a.381.381,0,0,0,.761,0v-.894A.381.381,0,0,0,48.125,225.857Z"/><path class="h" d="M120.131,190.745c.39.295.77-.365.383-.657l-1.189-.9c-.391-.295-.77.365-.384.657Z"/><path class="h" d="M86.17,216.384c-.231-.431-.888-.048-.656.384l1.764,3.292c.231.432.888.048.656-.384Z"/><path class="h" d="M117.367,201.032h-2.981a.381.381,0,0,0,0,.761h2.981A.381.381,0,0,0,117.367,201.032Z"/><path class="h" d="M120.455,193.929l-2.385,1.491c-.414.259-.033.917.384.657l2.384-1.491C121.253,194.327,120.871,193.669,120.455,193.929Z"/><path class="b" d="M83.612,193.4c6.741.246,13.511,2.9,20.078,1.359a19.723,19.723,0,0,0,5.5-2.692H59.428V202.8c1-.824,1.936-1.569,2.776-2.191C68.37,196.04,75.942,193.119,83.612,193.4Z"/><path class="h" d="M76.591,213.423a.381.381,0,0,0-.657.384l2.076,3.584a.38.38,0,0,0,.656-.384Z"/><path class="h" d="M64.01,203.8q-1.2,1.337-2.4,2.674a.367.367,0,0,0-.027.046c-.248.361.251.843.565.492l.44-.492,1.954-2.182C64.873,203.977,64.337,203.437,64.01,203.8Z"/><path class="h" d="M73.762,206.182v2.087a.38.38,0,0,0,.76,0v-2.087A.38.38,0,0,0,73.762,206.182Z"/><path class="h" d="M86.4,206.076c.2-.442-.454-.83-.657-.384l-.378.831-1.112,2.448c-.2.442.454.829.656.384q.644-1.416,1.288-2.832Z"/><path class="h" d="M48.125,225.857v.894a.381.381,0,0,0,.761,0v-.894A.381.381,0,0,0,48.125,225.857Z"/><path class="h" d="M55.591,212.543q.447,2.236.895,4.472c.1.479.829.276.733-.2l-.894-4.472C56.229,211.861,55.5,212.064,55.591,212.543Z"/><path class="h" d="M86.17,216.384c-.231-.431-.888-.048-.656.384l1.764,3.292c.231.432.888.048.656-.384Z"/><path class="h" d="M51.624,218.729l-2.684,1.488c-.428.238-.045.895.384.657l2.684-1.489C52.436,219.148,52.053,218.491,51.624,218.729Z"/><path class="h" d="M120.455,193.929l-2.385,1.491c-.414.259-.033.917.384.657l2.384-1.491C121.253,194.327,120.871,193.669,120.455,193.929Z"/><path class="h" d="M98.02,204.721l-1.8,1.8-.285.284a.381.381,0,0,0,.538.538l.822-.822,1.265-1.265A.38.38,0,0,0,98.02,204.721Z"/><path class="h" d="M118.941,189.847l1.19.9c.39.295.77-.365.383-.657l-1.189-.9C118.934,188.9,118.555,189.555,118.941,189.847Z"/><path class="h" d="M108.654,198.628q-.3,1.491-.6,2.981c-.1.478.637.683.733.2l.6-2.981C109.483,198.352,108.75,198.148,108.654,198.628Z"/><path d="M116.774,205.17q-.042,9.607-.082,19.216l-.047,10.9a.38.38,0,0,0,.76,0q.042-9.608.083-19.216.025-6.221.053-12.443c-.251.164-.5.327-.763.491Z"/><path d="M116.856,185.954l0,.442q.373-.3.733-.593A.385.385,0,0,0,116.856,185.954Z"/><path d="M117.561,184.55c-.482.05-.487.811,0,.76.238-.025.476-.044.714-.069q.546-.446,1.045-.859C118.734,184.44,118.147,184.489,117.561,184.55Z"/><path d="M170.309,215.5q-.057-10.194-.112-20.388l-.063-11.446a.352.352,0,0,0-.327-.358.378.378,0,0,0-.085-.022q-10.166-.561-20.352-.5-9.127.062-18.241.64a5.773,5.773,0,0,1,.2.747c2.179-.135,4.359-.256,6.541-.347q10.171-.426,20.357-.22,5.58.112,11.153.419.055,10.013.11,20.024l.112,20.389.063,11.446a.381.381,0,0,0,.761,0Z"/><path class="i" d="M129.556,181.135c-2.48-1.826-6-.228-8.383,1.721-.527.43-1.155.95-1.853,1.526q-.5.413-1.045.859-.336.276-.688.562t-.733.593a93.683,93.683,0,0,1-7.668,5.669,19.723,19.723,0,0,1-5.5,2.692c-6.567,1.543-13.337-1.113-20.078-1.359-7.67-.279-15.242,2.642-21.408,7.212-.84.622-1.779,1.367-2.776,2.191-6.316,5.229-15.142,13.99-18.594,19.65-1.316,2.158-2.569,4.849-1.42,7.1.956,1.87,3.339,2.66,5.414,2.333a12.576,12.576,0,0,0,5.554-2.829c5.607-4.353,16.593-14.527,19.837-20.841-2.312,5.294-5.676,11.744-3.45,16.324s9.436,5.036,14.523,5.251,9.7.466,12.306-3.91c1.7-2.853,2.9-9.33,5.153-11.769,2.369-2.566,6.26-2.875,9.244-4.69,3.463-2.106,6.306-3.724,8.783-5.3.259-.164.512-.327.763-.491,4.942-3.229,8.445-6.47,12.69-13.587a9.344,9.344,0,0,0,1.2-4.649,6.329,6.329,0,0,0-.1-1.218,5.773,5.773,0,0,0-.2-.747A4.529,4.529,0,0,0,129.556,181.135Zm-80.67,45.616a.381.381,0,0,1-.761,0v-.894a.381.381,0,0,1,.761,0Zm3.122-7.366-2.684,1.489c-.429.238-.812-.419-.384-.657l2.684-1.488C52.053,218.491,52.436,219.148,52.008,219.385Zm4.478-2.37q-.449-2.236-.895-4.472c-.1-.479.638-.682.734-.2l.894,4.472C57.315,217.291,56.581,217.494,56.486,217.015Zm8.061-12.674-1.954,2.182-.44.492c-.314.351-.813-.131-.565-.492a.367.367,0,0,1,.027-.046q1.2-1.336,2.4-2.674C64.337,203.437,64.873,203.977,64.547,204.341Zm9.975,2.182v1.746a.38.38,0,0,1-.76,0v-2.087a.38.38,0,0,1,.76,0Zm3.488,10.868-2.076-3.584a.381.381,0,0,1,.657-.384l2.075,3.584A.38.38,0,0,1,78.01,217.391Zm6.894-8.036c-.2.445-.857.058-.656-.384l1.112-2.448.378-.831c.2-.446.858-.058.657.384l-.2.447Q85.547,207.939,84.9,209.355Zm2.374,10.705-1.764-3.292c-.232-.432.425-.815.656-.384l1.764,3.292C88.166,220.108,87.509,220.492,87.278,220.06Zm11.28-14.8-1.265,1.265-.822.822a.381.381,0,0,1-.538-.538l.285-.284,1.8-1.8A.38.38,0,0,1,98.558,205.258Zm21.573-14.513-1.19-.9c-.386-.292-.007-.952.384-.657l1.189.9C120.9,190.38,120.521,191.04,120.131,190.745Zm-11.34,11.066c-.1.481-.829.276-.733-.2q.3-1.489.6-2.981c.1-.48.829-.276.733.2Zm8.758-.067a.367.367,0,0,1-.182.049h-2.981a.381.381,0,0,1,0-.761h2.981a.359.359,0,0,1,.185.051A.393.393,0,0,1,117.549,201.744Zm3.289-7.158-2.384,1.491c-.417.26-.8-.4-.384-.657l2.385-1.491C120.871,193.669,121.253,194.327,120.838,194.586Z"/><path class="g" d="M125.256,179.585c2.51-3.032,5.106-5.967,7.9-8.729a2.235,2.235,0,0,1,.964-.662.781.781,0,0,1,.957.465,1.151,1.151,0,0,1-.353.917L131.4,175.8a4.719,4.719,0,0,1,1.485-1.184,1.426,1.426,0,0,1,2.051,1.77,4.7,4.7,0,0,1-.782,1.4,3.516,3.516,0,0,1,1.317-1.284,1.207,1.207,0,0,1,1.6.484,1.711,1.711,0,0,1-.263,1.38,25.1,25.1,0,0,1-2.409,3.733,11.922,11.922,0,0,1-3.25,3.049,5.867,5.867,0,0,1-4.3.779C125.389,185.569,122.443,182.984,125.256,179.585Z"/><path class="g" d="M44.337,227.241c2.406,1.382,2.69,2.015,2.118,3.2a2.213,2.213,0,0,0,.788,2.981c.462.352.873.8,1.25,1.034s.959.739.739,1.127a1.615,1.615,0,0,1-2.154.481c-.375-.2-.674-.534-1.064-.7-.615-.268-.688-.443-1.263-.1a15.66,15.66,0,0,0-1.573,1.251,5.436,5.436,0,0,1-3.792,1.243,3.726,3.726,0,0,1-3.144-2.27,4.138,4.138,0,0,1,.265-3.14,10.37,10.37,0,0,1,1.914-2.593,14.289,14.289,0,0,1,3.013-2.6C42.575,226.474,42.909,226.421,44.337,227.241Z"/><path d="M73.354,189.05c-1.3,1.058-3,1.693-3.859,3.129-1.4,2.344-.268,5.6,1.944,7.2s5.158,1.83,7.86,1.427a19.506,19.506,0,0,0,16.6-18.15,8.321,8.321,0,0,0-1.048-5.124c-1.435-2.156-4.341-2.543-6.909-2.2C82.4,176.057,79.817,183.782,73.354,189.05Z"/><path d="M195.647,99.613l5.238-1.2c-.216-.38-.421-.764-.6-1.162l-4.821,1.1q-.918-6.289-1.879-12.573-.29-1.873-.584-3.747c-.126-.8-1.348-.463-1.222.337q1.838,11.686,3.486,23.4c.446.22.893.436,1.344.638C196.286,104.146,195.976,101.878,195.647,99.613Z"/><path d="M214.041,95.4a.4.4,0,0,1,.208-.349,9.827,9.827,0,0,0,1.905-1.434l-12.805,2.933-2.181.5c.187.4.4.778.624,1.156Z"/><path d="M233.006,91.055l.01,0c.062.468.123.937.186,1.405.4-.15.8-.341,1.2-.516q-.751-5.62-1.509-11.242-.26-1.911-.523-3.822c-.11-.8-1.332-.462-1.222.337q.867,6.306,1.7,12.615a.646.646,0,0,0-.18,0L217.6,93.285a7.743,7.743,0,0,1-1.631,1.673l8.773-2.01Z"/><path d="M210.716,172.883c.249.388.5.775.755,1.159l23.061-3.538c-.044-.418-.081-.837-.114-1.256l-20.294,3.113Z"/><path d="M246.858,198.074l.156,1.211.039.306c.435.12.874.176,1.3.26q-.194-1.511-.386-3.02A4.579,4.579,0,0,1,246.858,198.074Z"/><path d="M249.006,204.936q-.051-.4-.1-.8l-.4-3.17a11.3,11.3,0,0,0-1.313-.353q.218,1.7.438,3.392C248.085,204.314,248.551,204.62,249.006,204.936Z"/><path d="M207.745,191.212q-.314-2.529-.631-5.058a5.083,5.083,0,0,1-1.25.1q.386,3.094.764,6.188C207,192.027,207.37,191.617,207.745,191.212Z"/><path d="M202.394,149.078q-.684-5.264-1.375-10.527l7.175-1.455a11.25,11.25,0,0,1-.324-1.224l-7.02,1.422q-.505-3.8-1.02-7.605c-.429-.019-.856-.05-1.282-.1q1.359,10.083,2.674,20.171C201.617,149.537,202.008,149.312,202.394,149.078Z"/><path class="j" d="M171.749,98.867A76.516,76.516,0,0,1,158.784,91.5a.741.741,0,0,0-1.113.868c.248.688,1.959,2.527,1.245,2.594-.773.073-2.182-1.693-2.954-2.465a1.473,1.473,0,0,0-2.156,2l.116.132,4.887,5.433a.738.738,0,0,1-.484,1.232,7.91,7.91,0,0,0-1.811.332.82.82,0,0,0-.027,1.551c5.269,1.888,10.529,3.614,15.311,6.532A15.553,15.553,0,0,1,171.749,98.867Z"/><path d="M50.845,245.89a66.6,66.6,0,0,1-22.919-6.714,12.228,12.228,0,0,1,7.431-4.447v0a4.211,4.211,0,0,0,2.276,3.056,5.214,5.214,0,0,0,4.256-.171,3.078,3.078,0,0,0,1.28-1.182,9.51,9.51,0,0,1,.714,7.534c-.153.466.581.666.733.2a10.269,10.269,0,0,0-.986-8.484.375.375,0,0,0-.1-.112,3.652,3.652,0,0,0,.1-1.254,7.487,7.487,0,0,0-.68-2.281c-.234-.534-.5-1.288-1.148-1.427s-1.013.423-1.134.973c-.252-.546-.623-1.117-1.283-1.053-.777.075-1.139.961-1.362,1.6-.033.095-.055.194-.084.291-.03-.1-.048-.2-.08-.3-.2-.591-.524-1.37-1.265-1.372-.717,0-1.057.729-1.2,1.323a5.8,5.8,0,0,0-.147,1.908c-.011,0-.02,0-.031,0a12.86,12.86,0,0,0-7.86,4.7.4.4,0,0,0-.077.176q-2.875-1.483-5.594-3.243a.4.4,0,0,0-.716-.181A179.414,179.414,0,0,1,8.86,251.207q-1.846,2.148-3.76,4.237a.356.356,0,0,0-.094.315.361.361,0,0,0,.169.373,128.985,128.985,0,0,0,28.437,13.7q4.192,1.419,8.477,2.543a.38.38,0,0,0,.2-.733A128.2,128.2,0,0,1,13.16,260.007q-3.7-2.037-7.26-4.32a181.713,181.713,0,0,0,12.456-15.244c1-1.375,1.98-2.769,2.945-4.172a67.418,67.418,0,0,0,22.623,9.3c2.069.435,4.161.755,6.263.993l-6.321,19.021q-.9,2.712-1.8,5.426c-.154.466.58.665.734.2q3.183-9.58,6.368-19.163.9-2.706,1.8-5.412C51.322,246.56,51.283,245.936,50.845,245.89Zm-14.82-13.138c.046-.272.2-1.428.684-1.2.388.185.529,1.118.627,1.476a13.02,13.02,0,0,1,.357,1.825c.057.475.8.494.76,0a5.942,5.942,0,0,1,.124-1.922c.105-.441.3-1.384.766-1.595.483-.22.833,1.009.936,1.322a7.028,7.028,0,0,1,.341,1.889c.052.475.783.5.761,0a11.9,11.9,0,0,1-.035-2.364c.014-.162.026-.847.305-.83.252.017.463.673.538.84.546,1.217,1.157,2.882.213,4.077a4,4,0,0,1-3.8,1.033,3.352,3.352,0,0,1-2.515-2.775A4.537,4.537,0,0,1,36.025,232.752Z"/><path class="j" d="M275.077,137.3c-1.363-6.851-3.222-13.786-6.84-19.7a3.59,3.59,0,0,1-.324.387,7.044,7.044,0,0,1-2.225,1.32,19.508,19.508,0,0,1-2.751,1.005,13.927,13.927,0,0,1-5.336.478,12.208,12.208,0,0,1-3.341-.894c1.982,5.279,3.873,9.565,5.354,15.434.826,3.274,1.578,6.742,3.816,9.269.389.439,1.029.868,1.51.534a1.307,1.307,0,0,0,.422-.777l.655-2.409a.948.948,0,0,1,1.843.054,3.208,3.208,0,0,1-.567,2.487c-.415.54-1.042,1.056-.961,1.732.07.584.651.959,1.2,1.165a6.1,6.1,0,0,0,7.408-3.045C275.941,142.166,275.543,139.639,275.077,137.3Z"/><ellipse class="j" cx="206.973" cy="93.515" rx="6.767" ry="7.875"/><path d="M211.185,184.405a94.708,94.708,0,0,0-15.63,12.3,4.15,4.15,0,0,0-1.04,1.416,1.467,1.467,0,0,0,.326,1.626c.734.6,1.813.035,2.576-.527l14.194-10.456a6.535,6.535,0,0,0,1.846-1.778,2.231,2.231,0,0,0,.033-2.431A1.739,1.739,0,0,0,211.185,184.405Z"/><path d="M240.186,200.488c3.077-.378,6.308-1,9.153.293a9.24,9.24,0,0,1,5.447,7.109,1.675,1.675,0,0,1-.271,1.333,1.316,1.316,0,0,1-1.7-.007,5.335,5.335,0,0,1-1.135-1.472,9.151,9.151,0,0,0-8.335-4.051,15.768,15.768,0,0,1-2.818.237,2.479,2.479,0,0,1-2.221-1.488C238.014,201.542,239.249,200.6,240.186,200.488Z"/><path d="M254.348,246.281q-2.583-19.769-5.109-39.545a13.782,13.782,0,0,0-1.383-.921q.974,7.555,1.949,15.112h-.013a301.034,301.034,0,0,1-29.743,6.586q-3.87.653-7.755,1.2-1.073-9.038-2.168-18.071a220.355,220.355,0,0,1,29.9-4.581c2.473-.205,4.95-.359,7.428-.481-.624-.357-1.253-.7-1.831-1.062a.481.481,0,0,1-.11-.105,222.741,222.741,0,0,0-27.595,3.339q-3.987.738-7.945,1.628c-.051-.426-.1-.852-.153-1.277q-.9-7.391-1.815-14.779l27.43-3.2c-.008-.421-.032-.841-.052-1.262l-18.827,2.2-8.355.975c-.478.522-.95,1.049-1.429,1.57q.582,4.7,1.161,9.409,2.571,21.067,5.025,42.148.225,1.933.445,3.867a.4.4,0,0,0,.039.334q1.023,8.834,2.019,17.668a.586.586,0,0,0-.278.5.69.69,0,0,0,.4.6q.726,6.444,1.44,12.891.207,1.886.412,3.77c.087.8,1.356.811,1.268,0q-.912-8.383-1.858-16.764a288.187,288.187,0,0,0,29.877-5.543q4.12-.993,8.21-2.112,1.176,8.88,2.382,17.756.261,1.911.523,3.821c.111.8,1.333.462,1.223-.337Q256.633,263.955,254.348,246.281Zm-41.907-16.32q14.844-2.1,29.429-5.663,4.064-.995,8.1-2.1,1.26,9.772,2.52,19.544-14.867,3.314-29.942,5.565-3.966.591-7.945,1.1Q213.533,239.18,212.441,229.961Zm12.149,35.667q-3.933.63-7.884,1.145-.961-8.516-1.947-17.029l-.011-.093q14.955-1.943,29.749-4.919,4.086-.826,8.156-1.737,1.05,8.053,2.112,16.106A286.9,286.9,0,0,1,224.59,265.628Z"/><path d="M220.364,78.847c-.675.123-1.062,1.03-1.746,1-.9-.045-.911-1.487-1.667-1.97a1.625,1.625,0,0,0-1.9.5,5.584,5.584,0,0,1-1.563,1.417c-1.776.748-3.848-1.692-5.533-.755-.856.476-1.326,1.734-2.3,1.684a7.789,7.789,0,0,1-1.054-.306c-1.112-.215-1.976.986-2.273,2.079s-.418,2.356-1.3,3.069c-1.518,1.015-1.474,3.1-.7,4.753a5.208,5.208,0,0,0,4.411,2.787,7.621,7.621,0,0,0,5.058-1.77c.382,1.805,1.186,4.006,3.024,4.161a3.963,3.963,0,0,0,2.88-1.407,19.679,19.679,0,0,0,5.974-13.145C221.722,79.988,221.3,78.676,220.364,78.847Z"/><path d="M57.688,57.727q.666,11.246.916,22.511t.079,22.529q-.1,6.323-.324,12.642c-.018.489.743.489.761,0q.4-11.259.392-22.526t-.446-22.526q-.243-6.318-.617-12.63c-.029-.486-.79-.49-.761,0Z"/><path d="M110.628,56.6l.19,22.99.19,22.856.107,12.955a.38.38,0,0,0,.76,0l-.19-22.99L111.5,69.558,111.388,56.6a.38.38,0,0,0-.76,0Z"/><path d="M58.681,56.97a195.573,195.573,0,0,1,20.458-1.949c6.771-.3,13.553-.259,20.324.024,3.857.161,7.71.4,11.558.7.488.038.486-.723,0-.761-6.845-.537-13.707-.881-20.574-.929-6.83-.047-13.664.2-20.469.8q-5.769.513-11.5,1.373c-.483.072-.278.8.2.733Z"/><path d="M117.487,43.909q-.215-6.175-.539-12.347c-.025-.486-.786-.489-.76,0q.577,10.98.808,21.975.237,11.082.141,22.168-.048,5.426-.183,10.849a.329.329,0,0,0-.079.233q.023.637.046,1.274a.38.38,0,0,0,.76,0q.288-10.991.237-21.988Q117.87,54.99,117.487,43.909Z"/><path d="M172.259,28.952c-7.774.059-15.548.186-23.322.333q-11.151.211-22.3.463-5.034.108-10.068.2a.38.38,0,0,0,0,.76c6.488-.119,12.975-.268,19.463-.406q11.692-.247,23.385-.442,5.262-.081,10.522-.125a.244.244,0,0,0-.006.039q.359,11.194.438,22.4t-.126,22.4q-.115,6.336-.322,12.669c-.016.489.745.489.761,0q.363-11.194.445-22.4t-.119-22.4q-.112-6.336-.317-12.669a.372.372,0,0,0-.011-.048c.526-.005,1.052-.015,1.578-.019A.38.38,0,0,0,172.259,28.952Z"/><path d="M58.83,44.6l-.357,8.053c-.021.489.739.488.761,0l.357-8.053c.022-.49-.739-.488-.761,0Z"/><path d="M58.112,20.91l.894,7.155c.06.479.821.485.76,0l-.894-7.155c-.06-.479-.821-.485-.76,0Z"/><path d="M110.876,44.162v6.261a.38.38,0,0,0,.76,0V44.162a.38.38,0,0,0-.76,0Z"/><path d="M110.429,26.276l.447,7.6c.029.486.789.49.76,0l-.447-7.6c-.028-.486-.789-.49-.76,0Z"/><path d="M118.06,18.671l.885,6.708c.064.478.825.485.761,0l-.886-6.708c-.063-.479-.824-.485-.76,0Z"/><path d="M168.63,11.613l1.328,9.84c.065.482.8.277.733-.2l-1.328-9.839c-.065-.483-.8-.277-.733.2Z"/><path d="M123.452,154.694l4.924,12.071c.182.447.918.252.733-.2l-4.924-12.071c-.182-.447-.918-.252-.733.2Z"/><path d="M128.645,154.743l2.6,10.75c.115.476.849.274.733-.2l-2.6-10.751c-.116-.475-.849-.274-.734.2Z"/><path d="M136.36,155.846l-2.239,9.39c-.113.476.62.679.734.2l2.238-9.39c.114-.475-.62-.678-.733-.2Z"/><path d="M51.749,100.054l-.836,32.127-.836,32.126-.469,18.026a.381.381,0,0,0,.761,0l.836-32.126.836-32.126.469-18.027a.381.381,0,0,0-.761,0Z"/><path d="M49.123,193.068l.445,9.39c.023.487.783.49.76,0l-.444-9.39c-.023-.488-.784-.491-.761,0Z"/><path d="M175.982,22.7l.349,20.589.349,20.589.2,11.586a.38.38,0,0,0,.76,0l-.349-20.588-.348-20.589-.2-11.587a.38.38,0,0,0-.76,0Z"/><path d="M176.711,83.059l.421,7.156c.029.486.79.49.761,0l-.421-7.156c-.029-.486-.79-.49-.761,0Z"/><path class="k" d="M91.721,229.424a10.362,10.362,0,0,1-5.577,1.695,56.186,56.186,0,0,1-6.435-.13,37.741,37.741,0,0,1-6.087-.742,12.827,12.827,0,0,1-5.287-2.3,6.861,6.861,0,0,1-1.179-1.22c-.048.09-.1.178-.152.268a32.815,32.815,0,0,0-2.756,7.192,35.754,35.754,0,0,0-.739,3.668c-.192,1.3-.313,2.612-.552,3.9a11.428,11.428,0,0,1-1.174,3.569,14.017,14.017,0,0,1-2.45,2.95,28.256,28.256,0,0,0-4.789,6.268,40.493,40.493,0,0,0-4.592,16.4c-.12,1.428-.189,2.86-.223,4.293a7.705,7.705,0,0,0,.483,3.6,2.3,2.3,0,0,0,3.241.955,8.084,8.084,0,0,0,2.7-3.007c2.974-4.646,4.833-9.879,7.421-14.731a96.258,96.258,0,0,1,9.241-13.432q1.561-2.016,3.095-4.062a21.126,21.126,0,0,1,.911,2.5,7.051,7.051,0,0,1,.155,3.572,29.241,29.241,0,0,1-1.281,3.538,21.725,21.725,0,0,0-1.317,7.927,35.063,35.063,0,0,0,4.375,15.568c.578,1.119,1.181,2.231,1.832,3.309a5.13,5.13,0,0,0,2.7,2.509,2.765,2.765,0,0,0,3.122-1.473,9.753,9.753,0,0,0,.907-3.682c.658-5.7-.329-11.431.1-17.139.415-5.558,1.952-10.949,3.2-16.357a99.589,99.589,0,0,0,2.335-13.319c.1-1.1.168-2.259.162-3.426A7.511,7.511,0,0,1,91.721,229.424ZM62.486,249.9,61,247.513c-.26-.417.4-.8.657-.384l1.491,2.385C63.4,249.93,62.745,250.312,62.486,249.9Zm.5-1.677q-.149-1.343-.3-2.683c-.054-.487.707-.481.76,0q.15,1.341.3,2.683C63.8,248.707,63.035,248.7,62.981,248.221Zm10.861-6.687A14.049,14.049,0,0,1,72.483,230.8a.38.38,0,0,1,.733.2A13.265,13.265,0,0,0,74.5,241.15.381.381,0,0,1,73.842,241.534Zm3.907,7.6,2.683-3.279c.31-.379.845.162.537.538l-2.683,3.279C77.976,250.055,77.441,249.514,77.749,249.138ZM81.3,250.98l-2.683-.3c-.482-.054-.486-.815,0-.761l2.683.3C81.779,250.273,81.782,251.034,81.3,250.98Z"/><path class="h" d="M208.442,127.428a209.491,209.491,0,0,0,25.491-13.858q3.428-2.185,6.769-4.5c.4-.276.02-.936-.384-.656a209.54,209.54,0,0,1-24.932,14.84q-3.628,1.831-7.327,3.521C207.614,126.975,208,127.63,208.442,127.428Z"/><path class="h" d="M244.268,111.438c.41-.264.029-.923-.383-.656a287.178,287.178,0,0,1-27.71,15.8q-4.005,2-8.07,3.868c-.444.2-.058.86.384.657a287.082,287.082,0,0,0,28.189-14.928Q240.511,113.869,244.268,111.438Z"/><path class="h" d="M203.886,160.173c-.083-.481-.817-.277-.733.2a8.606,8.606,0,0,0,1.886,4.043c.313.377.848-.164.538-.538A7.863,7.863,0,0,1,203.886,160.173Z"/><path class="h" d="M240.715,118.331c.411-.263.03-.921-.384-.656a230.724,230.724,0,0,1-24.468,13.642q-3.555,1.707-7.169,3.292c-.447.2-.06.852.384.657A230.578,230.578,0,0,0,234,122.471Q237.392,120.459,240.715,118.331Z"/><path class="h" d="M203.221,164.663h-2.385a.381.381,0,0,0,0,.761h2.385A.381.381,0,0,0,203.221,164.663Z"/><path class="h" d="M180.286,113.488a5.653,5.653,0,0,0-1.3,1.784l-1.031-2.5c-.184-.446-.92-.25-.733.2l1.412,3.422a.384.384,0,0,0,.733,0,4.965,4.965,0,0,1,1.46-2.372C181.186,113.7,180.647,113.159,180.286,113.488Z"/><path class="h" d="M261.872,107.705l-3.5.02a.381.381,0,0,0,0,.761l2.417-.014a6.666,6.666,0,0,0-1.552,2.125c-.2.442.453.829.656.384a6.057,6.057,0,0,1,2.173-2.567A.384.384,0,0,0,261.872,107.705Z"/><path class="h" d="M245.626,119.9c.392-.284.013-.944-.384-.656a140.058,140.058,0,0,1-27.509,15.543q-4.1,1.737-8.3,3.205c-.459.161-.262.9.2.733a140.565,140.565,0,0,0,28.543-13.777Q241.98,122.542,245.626,119.9Z"/><path class="l" d="M211.535,144.789q-4.5,2.544-8.91,5.229c-3.33,2.037-6.658,4.106-9.875,6.317-1.534,1.054-2.773,2.423-2.492,4.417a8.978,8.978,0,0,0,1.066,2.8l1.388,2.7,5.553,10.8c.811,1.577,1.559,3.211,2.5,4.716a8.309,8.309,0,0,0,3.212,3.237,4.908,4.908,0,0,0,4.659-.154,6.429,6.429,0,0,0,2.842-3.77c1.06-3.759-1.2-7.347-2.972-10.473a22.81,22.81,0,0,1-1.175-2.3c-.257-.606-.667-1.557-.379-2.043a2.855,2.855,0,0,1,.489-.5c.362-.275.76-.507,1.141-.752l2.544-1.637,10.178-6.546,2.545-1.637c.2-.128.395-.264.6-.385a1.312,1.312,0,0,1,.555-.155l1.585-.232,5.987-.877,1.652-.242q.945,11.566,1.529,23.158.3,6.12.5,12.244c.1,3.1-.241,6.91,1.862,9.471,2.206,2.687,6.2,1.849,8.235-.592,2.448-2.943,2.086-7.12,2.084-10.7l-.012-24.618-.011-21.743C236.739,144.734,223.956,145.405,211.535,144.789Zm-8.314,20.635h-2.385a.381.381,0,0,1,0-.761h2.385A.381.381,0,0,1,203.221,165.424Zm1.818-1.006a8.606,8.606,0,0,1-1.886-4.043c-.084-.479.65-.683.733-.2a7.863,7.863,0,0,0,1.691,3.707C205.887,164.254,205.352,164.8,205.039,164.418Z"/><path class="m" d="M267.847,112.948l-.013-.028a51.607,51.607,0,0,0-7.634-11.859c-3.317-3.772-7.55-7.32-12.3-9.109-.319-.12-.638-.225-.959-.32l-.774-.132a39.258,39.258,0,0,0-17.2,3.268c-8.975,3.829-16.6,10.174-24.093,16.43a205.485,205.485,0,0,0-30.117-12.779,2.378,2.378,0,0,0-1.9-.08,2.249,2.249,0,0,0-.875,1.569c-1.863,8.593,3,17.638,10.162,22.738s16.192,6.86,24.974,7.3q1.691,7.394,3.38,14.788c.345.019.692.033,1.038.051,12.421.616,25.2-.055,36.882-4.265.171-.061.345-.116.516-.18A133.31,133.31,0,0,0,249.582,115c1.918,3.194,5.884,4.767,9.605,4.575a17.416,17.416,0,0,0,7.182-2.144A3.423,3.423,0,0,0,267.847,112.948Zm-87.024,1.078a4.965,4.965,0,0,0-1.46,2.372.384.384,0,0,1-.733,0l-1.412-3.422c-.187-.452.549-.648.733-.2l1.031,2.5a5.653,5.653,0,0,1,1.3-1.784C180.647,113.159,181.186,113.7,180.823,114.026Zm27.236,12.746q3.7-1.691,7.327-3.521a209.54,209.54,0,0,0,24.932-14.84c.4-.28.784.38.384.656q-3.342,2.316-6.769,4.5a209.491,209.491,0,0,1-25.491,13.858C208,127.63,207.614,126.975,208.059,126.772Zm.046,3.678q4.064-1.872,8.07-3.868a287.178,287.178,0,0,0,27.71-15.8c.412-.267.793.392.383.656q-3.757,2.428-7.59,4.741a287.082,287.082,0,0,1-28.189,14.928C208.047,131.31,207.661,130.654,208.105,130.45Zm.589,4.159q3.612-1.586,7.169-3.292a230.724,230.724,0,0,0,24.468-13.642c.414-.265.8.393.384.656q-3.323,2.127-6.716,4.14a230.578,230.578,0,0,1-24.921,12.795C208.634,135.461,208.247,134.805,208.694,134.609Zm.938,4.113c-.464.163-.661-.572-.2-.733q4.2-1.471,8.3-3.205a140.058,140.058,0,0,0,27.509-15.543c.4-.288.776.372.384.656q-3.645,2.641-7.451,5.048A140.565,140.565,0,0,1,209.632,138.722Zm2.067,3.368c-.107.031-.212.066-.319.1a.381.381,0,0,1-.2-.734c.3-.086.589-.184.885-.273q2.28-.683,4.533-1.446c.821-.277,1.645-.548,2.461-.841a137.09,137.09,0,0,0,26.6-12.943c.416-.261.8.4.383.657q-3.577,2.247-7.287,4.273a137.816,137.816,0,0,1-14.572,6.863Q218.044,140.21,211.7,142.09Zm50.365-33.676a6.057,6.057,0,0,0-2.173,2.567c-.2.445-.858.058-.656-.384a6.666,6.666,0,0,1,1.552-2.125l-2.417.014a.381.381,0,0,1,0-.761l3.5-.02A.384.384,0,0,1,262.064,108.414Z"/></svg>