<svg xmlns="http://www.w3.org/2000/svg" viewBox="0 0 300 300"><defs><style>.a{fill:#1d1b33;}.b{fill:#2c2b47;}.c{fill:#db199b;}.d{fill:#ffc200;}.e{fill:#5a80f9;}.f{fill:#08c48e;}.g{fill:#fedffd;}</style></defs><title>Order completed</title><path class="a" d="M163.753,78.3c-.225.562-.468,1.106-.693,1.668-.225.507-.375,1.407-.957,1.519-1.031.206-1.874-2.362-2.081-3.15-.225-.881-1.593-.468-1.368.413.375,1.387,1.237,3.656,2.793,4.181l-.281,3.318c-.075.919,1.35.863,1.425-.037.094-1.125.187-2.231.281-3.356,1.219-.638,1.669-2.756,2.137-3.881C165.347,78.134,164.11,77.44,163.753,78.3Z"/><path class="a" d="M169.172,80.309c-1.013.056-1.8,1.218-2.288,1.987a8.76,8.76,0,0,0-1.312,3.506c-.131.9,1.256,1.256,1.387.338a8.415,8.415,0,0,1,.188-.938c.6.075,1.181.225,1.781.338-.038.243-.094.487-.15.731a.714.714,0,0,0,1.387.337,14.121,14.121,0,0,0,.375-4.349C170.465,81.434,170.334,80.234,169.172,80.309Zm-1.538,3.562a4.54,4.54,0,0,1,1.2-1.762c.319-.188.225-.413.263.225.018.375.037.75.037,1.143,0,.244-.019.469-.037.713C168.609,84.077,168.122,83.965,167.634,83.871Z"/><path class="a" d="M176.9,78.678c-.281.693-.45,1.968-1.087,2.418-1.182.806-1.894-1.781-2.213-2.531-.375-.825-1.743-.431-1.368.413.525,1.181,1.106,3.206,2.474,3.656a15.748,15.748,0,0,1-.45,3.731.714.714,0,0,0,1.388.337,16.131,16.131,0,0,0,.487-4.125c1.256-.506,1.538-2.024,2.006-3.206C178.508,78.528,177.252,77.834,176.9,78.678Z"/><path class="b" d="M117.5,86.327a18.619,18.619,0,0,1,4.425,6.618c.693,1.688,3.43.863,2.737-.825a22.116,22.116,0,0,0-5.194-7.855,1.426,1.426,0,0,0-1.968,2.062Z"/><path class="b" d="M174.215,136.048a21.519,21.519,0,0,1-2.25-7.181c-.206-1.818-3.056-1.743-2.85.075a24.789,24.789,0,0,0,2.681,8.606c.825,1.631,3.244.131,2.419-1.5Z"/><path class="c" d="M143.917,59.967a26.527,26.527,0,0,0-7.124-10.274c-1.031-.919-2.512.637-1.462,1.556a24.145,24.145,0,0,1,6.543,9.336C142.361,61.86,144.405,61.242,143.917,59.967Z"/><path class="b" d="M200.444,106.313a23.975,23.975,0,0,1-5.812,9.6c-1.294,1.313.787,3.281,2.081,1.969a26.817,26.817,0,0,0,6.506-10.874c.562-1.763-2.213-2.438-2.775-.694Z"/><path class="c" d="M171.253,55.636a14.555,14.555,0,0,0-1.069,7.724c.169,1.35,2.325,1.313,2.137-.056a12.57,12.57,0,0,1,.807-6.637C173.652,55.411,171.778,54.38,171.253,55.636Z"/><path class="c" d="M100.177,76.184a12.541,12.541,0,0,1-4.987-4.443c-.731-1.163-2.643-.206-1.912.956A14.634,14.634,0,0,0,99,77.984c1.219.619,2.4-1.162,1.181-1.8Z"/><path class="d" d="M177.383,106.632a14.554,14.554,0,0,0-1.068,7.724c.168,1.35,2.325,1.312,2.137-.056a12.569,12.569,0,0,1,.806-6.637C179.783,106.407,177.908,105.376,177.383,106.632Z"/><path class="d" d="M193.957,54.605a14.89,14.89,0,0,0-6.337,4.537c-.862,1.069.656,2.587,1.519,1.518a12.716,12.716,0,0,1,5.362-3.993C195.776,56.2,195.232,54.117,193.957,54.605Z"/><path class="e" d="M158.6,99.62a15.011,15.011,0,0,0-1.106,7.893c.244,1.8,3.094,1.743,2.85-.075a12.226,12.226,0,0,1,.769-6.45C161.8,99.3,159.31,97.932,158.6,99.62Z"/><path class="c" d="M169.809,21.832a12.484,12.484,0,0,1,3.244-5.849c.974-.975-.582-2.456-1.557-1.462a14.486,14.486,0,0,0-3.768,6.805,1.072,1.072,0,0,0,2.081.506Z"/><path class="c" d="M193.432,95.926a7.71,7.71,0,0,1-3.225-1.668,2.237,2.237,0,0,1,.038-2.981,4.255,4.255,0,0,1,1.95-.525c1.425-.225,2.962-.3,3.956-1.5a2.653,2.653,0,0,0,.243-3.131c-.881-1.406-3.862-1.688-3.9-3.6-.038-1.368,1.481-1.875,2.531-1.912.543-.019,1.087.094,1.631.075a4.976,4.976,0,0,0,1.95-.413,4.846,4.846,0,0,0,2.606-2.924c.862-2.963-3.694-5.044-5.981-5.344-1.35-.168-1.875,1.913-.506,2.081,2.1.263,6.693,2.888,2.606,4.275-1.988.675-3.862-.394-5.625,1.181-2.418,2.156-1.2,5.343,1.256,6.731.225.131.9.319,1.05.544-.056.506-.112,1.031-.15,1.537-.356.075-.693.15-1.05.225a20.09,20.09,0,0,0-2.549.45,3.963,3.963,0,0,0-2.756,2.493c-1.107,3.6,2.7,5.587,5.437,6.525,1.275.412,1.781-1.669.487-2.119Z"/><path class="c" d="M134.618,114.768a7.658,7.658,0,0,1,3.506-.881c1.5.094,2.063,1.05,1.65,2.85a10.037,10.037,0,0,1-1.256,1.575A4.8,4.8,0,0,0,137,121.724a2.6,2.6,0,0,0,2.25,2.437c1.519.244,6.431-1.856,5.343,1.875-.468,1.594-2.756,2.306-3.468,3.9a4.731,4.731,0,0,0,0,3.937c1.369,2.775,6.074,1.313,8.024,0,1.125-.769.132-2.662-1.012-1.893a6.288,6.288,0,0,1-3.581,1.218c-2.287,0-1.894-2.156-.619-3.45,1.106-1.124,2.4-1.762,2.775-3.412a4,4,0,0,0-4.537-4.8c-.356.037-.975.337-1.294.281-.693-.131-.937-1.575-.637-2.231.318-.731,1.143-1.313,1.518-2.044a3.78,3.78,0,0,0-.056-3.9c-1.893-2.85-5.531-1.819-8.1-.75-1.275.506-.244,2.4,1.012,1.874Z"/><path class="e" d="M109.908,52.655c-1.931-.619-3.694.206-5.587.356-1.05.281-1.669-.15-1.875-1.331a14.829,14.829,0,0,1,1.219-.919,10.282,10.282,0,0,0,1.537-1.443c1.875-2.231,2.887-5.812.487-8.062-2.681-2.512-6.393-1.35-9.074.45-1.518,1.012-.019,3.45,1.5,2.418,1.312-.881,3.019-1.912,4.65-1.35,2.343.807,1.312,3.525.131,4.856-1.256,1.388-3.262,2.044-3.525,4.125a3.738,3.738,0,0,0,2.381,3.731,5.66,5.66,0,0,0,3,.319c.506-.057.994-.169,1.5-.263.244-.056.487-.112.731-.15a1.865,1.865,0,0,1,2.531,1.144c-1.312,1.293.769,3.243,2.081,1.968C113.582,56.573,112.4,53.442,109.908,52.655Z"/><path class="c" d="M239.872,69.566c1.312-.881,3.018-1.912,4.65-1.35,2.343.806,1.312,3.525.131,4.856-1.256,1.387-3.262,2.044-3.525,4.125a3.738,3.738,0,0,0,2.381,3.731,5.649,5.649,0,0,0,3,.318c.506-.056.994-.168,1.5-.262.243-.056.487-.113.731-.15a1.864,1.864,0,0,1,2.531,1.143c-1.312,1.294.769,3.244,2.081,1.969,1.969-1.931.787-5.062-1.706-5.849-1.931-.619-3.693.206-5.587.356-1.05.281-1.669-.15-1.875-1.331A14.607,14.607,0,0,1,245.4,76.2a10.237,10.237,0,0,0,1.537-1.444c1.875-2.231,2.887-5.812.488-8.062-2.682-2.512-6.394-1.349-9.075.45-1.518,1.013-.018,3.45,1.519,2.419Z"/><path class="e" d="M210.681,26.257c1.424.075,3.337.319,4.237,1.612,1.237,1.763-.206,3.206-1.875,3.825-2.137.769-5.043-.412-6.525,1.837a3.992,3.992,0,0,0,.244,4.35,6.19,6.19,0,0,0,2.175,1.819c.3.168,5.4,2.981,3.337,3.318-1.8.3-1.65,3.15.169,2.85,3.093-.506,3.937-3.918,1.912-6.168-1.312-1.481-3.356-1.688-4.781-2.963-1.762-1.574.413-1.781,1.538-1.837a10.46,10.46,0,0,0,2.85-.487c2.831-.994,5.155-3.544,4.087-6.675-1.106-3.224-4.462-4.143-7.518-4.293-1.838-.131-1.669,2.718.15,2.812Z"/><path class="d" d="M229.242,117.693a20.252,20.252,0,0,0,2.737-.543c2.643-.975,5.137-3.469,4.293-6.506-.993-3.544-4.724-4.481-7.968-4.369a1.426,1.426,0,0,0,.075,2.85c1.556-.056,3.394-.019,4.519,1.256,1.5,1.706-.075,3.356-1.763,4.05-1.856.75-4.256.056-5.7,1.725a3.792,3.792,0,0,0,.281,4.931,6.623,6.623,0,0,0,2.437,1.65c.656.281,1.35.468,2.006.768.188.094.375.188.581.281.9.319,1.107.957.638,1.95-1.8.394-.956,3.131.825,2.738,2.812-.619,3.206-4.106,1.425-6.019-1.181-1.256-2.775-1.575-4.275-2.287-.9-.45-1.762-.656-1.35-1.706C228.417,117.449,228.454,117.862,229.242,117.693Z"/><path class="d" d="M44.738,25.451c1.538-.319,3.337-.6,4.669.45,1.762,1.425.506,3.318-1.032,4.293-1.687,1.069-4.18.788-5.3,2.681A3.809,3.809,0,0,0,44.2,37.694a6.685,6.685,0,0,0,2.681,1.2c.693.168,1.424.225,2.1.412l.619.169q1.405.225.956,1.8c-1.706.693-.393,3.243,1.294,2.549,2.662-1.106,2.456-4.593.375-6.168-1.369-1.05-3-1.069-4.594-1.518-.956-.282-1.856-.338-1.631-1.444.207-1.013.319-.6,1.088-.919a19.012,19.012,0,0,0,2.587-1.012c2.437-1.425,4.462-4.294,3.112-7.143-1.575-3.319-5.437-3.6-8.586-2.944a1.414,1.414,0,0,0,.543,2.775Z"/><path class="d" d="M138.93,85.84a20.4,20.4,0,0,0,2.738-.544c2.643-.975,5.137-3.469,4.293-6.506-.994-3.543-4.725-4.481-7.968-4.368a1.426,1.426,0,0,0,.075,2.85c1.556-.057,3.393-.019,4.518,1.256,1.5,1.706-.075,3.356-1.762,4.049-1.856.75-4.256.057-5.7,1.725a3.793,3.793,0,0,0,.282,4.931,6.611,6.611,0,0,0,2.437,1.65c.656.281,1.35.469,2.006.769.188.093.375.187.581.281.9.319,1.106.956.638,1.95-1.8.393-.956,3.131.825,2.737,2.812-.619,3.206-4.106,1.424-6.018-1.181-1.256-2.774-1.575-4.274-2.288-.9-.45-1.763-.656-1.35-1.706C138.1,85.6,138.143,86.008,138.93,85.84Z"/><path class="d" d="M161.485,44.2c-.844-2.212-2.831-1.425-4.594-1.35-2.174.094.319-1.443.919-2.343a2.976,2.976,0,0,0,.544-2.194,2.257,2.257,0,0,0-1.425-1.593c-.769-.3-2.85.412-3.9.506.919-1.856,3.544-3.412,1.95-5.775-1.256-1.837-3.6-1.106-5.156-.206-1.106.638-.056,2.344,1.05,1.706q1.463-1.377,2.306.844a10.094,10.094,0,0,1-1.2,1.481,6.512,6.512,0,0,0-.993,1.462,1.8,1.8,0,0,0,.412,2.213c.975.787,1.987.225,3.019.056q1.1-.872,1.518.675a8.7,8.7,0,0,1-.75.694,6.019,6.019,0,0,0-1.331,1.425c-1.087,1.949.15,3.562,2.269,3.281a12.016,12.016,0,0,1,2.006-.507c2.924.563-.394,2.888-.731,3.281a3.856,3.856,0,0,0-1.107,3.15c.15,1.275,2.156,1.219,2.006-.056C157.979,48.174,162.7,47.405,161.485,44.2Z"/><path class="d" d="M127.663,7c1.331-.075,1.743.638,1.218,2.138a10.6,10.6,0,0,1-1.875.356,5.941,5.941,0,0,0-1.706.487,1.785,1.785,0,0,0-1.106,1.95c.244,1.219,1.369,1.444,2.287,1.988.919.018,1.163.525.732,1.5a9.382,9.382,0,0,1-1.032.056,6.149,6.149,0,0,0-1.931.243c-2.081.788-2.156,2.831-.356,3.975.375.244,1.612.581,1.875.9,1.875,2.306-2.137,1.969-2.662,2.044a3.866,3.866,0,0,0-2.869,1.706c-.694,1.068.863,2.325,1.575,1.237,1.519-2.325,5.643.113,6.749-3.131.769-2.25-1.256-2.925-2.643-3.975-1.744-1.312,1.181-.9,2.212-1.218a2.988,2.988,0,0,0,1.819-1.331,2.332,2.332,0,0,0-.075-2.138c-.506-.937-3.694-1.931-3.694-2.549-.131.3-.262.618-.393.918,1.706-1.556,5.643-.412,5.962-3.674.225-2.213-2.063-3.15-3.825-3.469-1.256-.206-1.537,1.762-.262,1.987Z"/><path class="f" d="M277.406,128.492a2.424,2.424,0,0,0-2.081-.581l-1.743.338-.094-.094v.112c-11.474,2.194-23.061,4.575-34.291,6.881-8.081,1.65-16.461,3.375-24.692,5.006-18.054,3.581-37.253,7.181-58.664,11.024l-.843.15c-10.968,1.969-22.292,3.993-33.316,6.749l-9.956-18.617a2.369,2.369,0,0,0-2.681-1.256h0c-13.255,1.237-14.248.881-27.129,4.256a2.381,2.381,0,0,0-1.762,1.744,2.646,2.646,0,0,0,.619,2.512,2.262,2.262,0,0,0,2.193.562c12.243-3.224,12.58-2.793,25.179-4.049l10.2,19.1a.018.018,0,0,0,.018.019l36.485,68.3c-.038.018-.075.018-.113.037l2.025,3.469-5.493,7.386c-1.144,1.444-2.269,2.888-3.412,4.313-6.319,7.968-12.843,16.217-18.468,24.935a12.877,12.877,0,0,0-6.693,2.718,11.843,11.843,0,0,0-3.562,13.387,12.657,12.657,0,0,0,11.362,8.1,11.69,11.69,0,0,0,2.549-.225,13.378,13.378,0,0,0,9.581-7.593,11.383,11.383,0,0,0,.525-8.174,13.094,13.094,0,0,0-4.406-5.756,12.4,12.4,0,0,0-4.087-2.344l15.486-20.754c.45-.581.919-1.162,1.369-1.725,3.112-3.918,6.3-7.968,9.393-12.055a.754.754,0,0,0,.206.019c23.81,1.706,47.808,4.031,71.338,6.9.524.056,1.068.113,1.649.169,2.288.206,4.894.431,6.562,1.875a11.68,11.68,0,0,1,2.775,4.124,25.374,25.374,0,0,0-2.793,1.369,2.075,2.075,0,0,0-.207.131,1.721,1.721,0,0,0-.187.131,12.129,12.129,0,0,0-3.919,13.481,12.658,12.658,0,0,0,11.362,8.1,11.7,11.7,0,0,0,2.55-.225,13.379,13.379,0,0,0,9.58-7.593,11.381,11.381,0,0,0,.525-8.175,13.229,13.229,0,0,0-4.406-5.755,10.275,10.275,0,0,0-7.349-2.756c-.281.018-.544.056-.825.075-1.706-3.825-4.143-7.575-9.055-8.606-2.213-.469-4.5-.712-6.731-.956-.825-.094-1.631-.169-2.437-.263-3.056-.374-6.187-.731-9.318-1.087-12.374-1.406-24.936-2.662-37.347-3.731-4.425-.375-8.943-.75-13.5-1.106,3.075-.638,6.168-1.237,9.187-1.837l.881-.169c3.074-.6,6.187-1.275,9.205-1.912a2.336,2.336,0,0,0,.619-.019,2.48,2.48,0,0,0,.712-.263c3.563-.768,7.218-1.537,10.818-2.212,8.081-1.519,16.368-2.794,24.373-4.031,6.375-.975,12.974-1.987,19.461-3.131,1.912-.337,3.768-.675,5.55-1.012,7.161-1.369,13.423-2.775,19.385-4.387a2.493,2.493,0,0,0,1.913-2.157c.675-5.455,1.068-11.042,1.462-16.423.169-2.269.338-4.594.525-6.9.225-2.681.525-5.418.806-8.061.244-2.194.488-4.444.694-6.675.787-8.755,1.425-17.68,2.062-26.3l.319-4.312c.113-1.556.225-3.131.338-4.687.131-1.875.262-3.731.412-5.606l.075-.019-.075-.056c.037-.6.094-1.2.131-1.8A2.462,2.462,0,0,0,277.406,128.492ZM137.543,282.661a6.609,6.609,0,1,1-6.6-6.618A6.617,6.617,0,0,1,137.543,282.661ZM248.4,253.788a6.619,6.619,0,1,1-6.618,6.618A6.618,6.618,0,0,1,248.4,253.788Zm-7.649-113.953q1.013,10.405,1.5,20.905-16.648,3.684-33.391,6.843l-3.693-20.68C217.393,144.56,229.167,142.216,240.753,139.835Zm-32.491,52.308q-13.893,2.645-27.6,5.475l-7.33-19.03q15.833-2.389,31.553-5.287Zm-35.491-39.128c3.113-.581,6.244-1.162,9.356-1.743q9.307-1.716,18.223-3.431l3.675,20.642q-16.256,2.981-32.51,5.418l-7.424-19.273C167.034,154.084,169.922,153.54,172.771,153.015Zm-48.727,9.524c9.412-2.287,18.917-4.068,28.648-5.812l6.524-1.181,7.35,19.105c-1.125.169-2.25.337-3.375.487-9.956,1.425-20.155,2.719-30.335,3.863Zm11.287,21.111q16.536-1.884,33.053-4.312l7.425,19.292c-.844.169-1.688.338-2.532.525-8.68,1.819-17.623,3.769-26.585,5.793Zm45.821,41.49-4.275.844c-5.568,1.106-11.305,2.231-16.93,3.581-.037,0-.075-.019-.112-.019l-10.743-20.117q14.23-3.177,28.5-6.149l8.061,20.942C184.152,224.541,182.652,224.841,181.152,225.14Zm21.336-4.368c-.657.113-1.332.244-1.988.375-3.356.638-6.712,1.35-9.993,2.044l-8.062-20.924c8.906-1.837,17.793-3.581,26.68-5.287l3.918,21.992C209.518,219.553,205.994,220.135,202.488,220.772Zm39.015-6.3c-5.737.975-11.436,1.856-17.061,2.737l-.113.019c-2.118.318-4.255.656-6.411.993L213.962,196.1q14.4-2.7,28.685-5.156Q242.394,202.7,241.5,214.473Zm1.219-28.554q-14.877,2.559-29.642,5.306L209.724,172.4l2.738-.506q15.074-2.868,30-6.168Q242.825,175.822,242.722,185.919Zm25.366,8.418c-.356,4.874-.712,9.9-1.275,14.849-6.749,1.762-13.536,3.168-20.323,4.405q.844-11.727,1.069-23.51c6.9-1.162,13.967-2.325,21.111-3.45C268.463,189.219,268.276,191.806,268.088,194.337Zm1.706-19.667c-.225,2.268-.45,4.593-.656,6.918-7.162,1.125-14.342,2.287-21.485,3.506.056-6.806-.057-13.63-.319-20.436,7.912-1.781,15.917-3.693,23.885-5.7C270.788,164.227,270.282,169.514,269.794,174.67Zm2.719-33.223c-.3,4.106-.6,8.231-.9,12.337q-12.205,3.066-24.5,5.868-.507-10.432-1.519-20.811c8.887-1.818,18.224-3.712,27.523-5.493C272.907,136.048,272.7,138.748,272.513,141.447Z"/><path class="g" d="M122.263,243.908c-.019,0-.019.018-.037.018v-.018a.3.3,0,0,0,.149-.413,131.094,131.094,0,0,1-6.224-13.124.293.293,0,0,0-.431-.168c-1.706.881-3.9,1.125-5.4,2.362a.3.3,0,0,0-.075.281,64.189,64.189,0,0,0,4.744,11.08c.393.769.975,2.738,1.762,3.188a1.324,1.324,0,0,0,.806.075c.525-.094,1.275-.881,1.762-1.163a23.754,23.754,0,0,1,3.094-1.537C122.769,244.32,122.619,243.758,122.263,243.908Z"/><path class="b" d="M162.5,242.408a.142.142,0,0,0-.019-.225,44.481,44.481,0,0,0-19.142-7.275,47.841,47.841,0,0,0-9.261-.206c-2.4.169-5.55.169-7.537,1.763a11.025,11.025,0,0,0-2.156,2.924c-1.482,2.344-3.206,3.413-6,2.663-1.369-.375-3.693-1.163-4.425.731-.412,1.068.375,2.362.75,3.318.582,1.463,1.2,2.906,1.8,4.35,1.481,3.506,3,6.993,4.444,10.518a.133.133,0,0,0,.187.093c14.174-5.249,27.485-12.43,41.34-18.41A.178.178,0,0,0,162.5,242.408Zm-30.316-7.425q.816-.084,1.631-.112Q133.025,234.9,132.181,234.983Zm-17.774,7.294a1.491,1.491,0,0,0-.337.506,1.685,1.685,0,0,0-.094.75A1,1,0,0,1,114.407,242.277Z"/><path class="g" d="M119.788,253.732l-.019-.019a.3.3,0,0,0,.132-.412,131.359,131.359,0,0,1-6.469-13.012.292.292,0,0,0-.431-.168c-1.687.9-3.881,1.2-5.343,2.456a.259.259,0,0,0-.075.281,66.87,66.87,0,0,0,5.156,11.38c.431.787.918,2.437,1.762,2.794.694.3,1.125-.319,1.669-.694a24.756,24.756,0,0,1,3.862-2.1C120.388,254.107,120.107,253.638,119.788,253.732Z"/><path class="b" d="M158.054,252.7a.142.142,0,0,0-.019-.225,44.481,44.481,0,0,0-19.142-7.275,47.854,47.854,0,0,0-9.262-.206c-2.4.169-5.549.169-7.537,1.762a11.074,11.074,0,0,0-2.156,2.925c-1.481,2.344-3.206,3.412-6,2.662-1.369-.374-3.694-1.162-4.425.732-.412,1.068.375,2.362.75,3.318.581,1.463,1.2,2.906,1.8,4.35,1.481,3.506,3,6.993,4.443,10.518a.134.134,0,0,0,.188.093c14.174-5.249,27.485-12.43,41.34-18.411A.16.16,0,0,0,158.054,252.7Z"/><path class="g" d="M133.775,232.94a5.817,5.817,0,0,0-1.669,5.137c.112.731,1.237.431,1.125-.319a4.65,4.65,0,0,1,1.368-4.012c.544-.506-.281-1.331-.824-.806Z"/><path class="g" d="M138.293,233.577a5.129,5.129,0,0,0-2.55,4.969c.075.731,1.256.75,1.163,0a4.039,4.039,0,0,1,1.968-3.975c.656-.356.075-1.369-.581-.994Z"/><path class="g" d="M141.836,234.4a6.826,6.826,0,0,0-2.081,4.406c-.056.75,1.106.75,1.163,0a5.549,5.549,0,0,1,1.725-3.581c.562-.525-.263-1.35-.807-.825Z"/><path class="g" d="M145.755,234.515a7.929,7.929,0,0,0-2.381,5.081c-.057.749,1.106.749,1.162,0a6.613,6.613,0,0,1,2.025-4.256c.562-.525-.263-1.35-.806-.825Z"/><path class="g" d="M150.029,247.826a40.781,40.781,0,0,0-18.729-4.65c-2.55,0-4.894.019-7.068,1.444a17.656,17.656,0,0,0-5.344,5.7c-.393.637.619,1.237,1.013.581a16.1,16.1,0,0,1,5.343-5.55,9.27,9.27,0,0,1,4.8-1.05,5.237,5.237,0,0,0-.844,3.394c.075.731,1.237.75,1.162,0a4.108,4.108,0,0,1,1.088-3.337c.018-.019.018-.038.037-.038.394.019.788.038,1.181.038l1.088.056a4.771,4.771,0,0,0-.806,4.218.585.585,0,0,0,1.125-.318,3.593,3.593,0,0,1,.9-3.544.849.849,0,0,0,.15-.244q1.1.112,2.194.282a6.526,6.526,0,0,0-1.537,4.143.581.581,0,0,0,1.162,0,5.4,5.4,0,0,1,1.406-3.543.537.537,0,0,0,.15-.375c.769.15,1.519.318,2.269.506a5.678,5.678,0,0,0-1.088,4.368c.113.731,1.238.431,1.125-.319a4.454,4.454,0,0,1,.9-3.374.661.661,0,0,0,.131-.394,41.449,41.449,0,0,1,7.612,3.019C150.1,249.176,150.7,248.164,150.029,247.826Z"/><path class="e" d="M74.005,76.409a1.483,1.483,0,0,0,.412-1.537.6.6,0,0,0-.562-.431,3.315,3.315,0,0,0-.6.112,7.479,7.479,0,0,0,.562-1.312.584.584,0,0,0-.712-.713,12.517,12.517,0,0,0-1.707.656A10.711,10.711,0,0,0,71.736,72c.075-.375-.263-.9-.712-.712a13.5,13.5,0,0,0-8.137,9.524.6.6,0,0,0,1.031.525,48.612,48.612,0,0,0,5.962-.356c1.387-.263,2.643-1.65,3.637-2.587.469-.45,1.144-1.125.638-1.819C74.08,76.5,74.042,76.447,74.005,76.409Z"/><path class="e" d="M119.657,236.821c-.019-.225-.056-.45-.075-.675a.514.514,0,0,0-.019-.169,256.956,256.956,0,0,0-14.511-37.2,353.144,353.144,0,0,0-21.036-38.753c-1.818-2.906-3.712-5.756-5.662-8.587-.862-1.256-1.762-2.512-2.662-3.749-.769-1.069-1.631-2.813-2.681-3.6-.994-.75-3.094-.694-4.294-.9q-12.007-2.109-24.016-4.2c-6.3-1.106-12.58-2.212-18.88-3.3-.281-.057-.675.075-.712.412a63.441,63.441,0,0,0,3.018,30.56,148.12,148.12,0,0,0,12.693,26.06,202.368,202.368,0,0,0,34.572,43.422,203.878,203.878,0,0,0,24.354,19.8.582.582,0,0,0,.581,0c5.719-3.15,10.743-7.537,15.974-11.418a.579.579,0,0,0,.262-.656c-.412-1.35-.824-2.7-1.256-4.031a30.512,30.512,0,0,1,4.012-2.493A.605.605,0,0,0,119.657,236.821Z"/><path class="g" d="M99.146,135.935c-.187-1.031-.956-1.274-1.856-1.274.956-.45,1.706-1.05,1.406-1.95-.319-.9-1.237-1.144-2.287-1.069a1.028,1.028,0,0,0,.3-1.312c-.394-.75-1.275-.675-1.987-.582a38.927,38.927,0,0,0-6.019,1.407c-2.643.768-5.793,1.631-7.612,3.862a7.8,7.8,0,0,0-1.556,4.012c-.075.525.057,1.762-.356,2.081-.506.394-2.606-.225-3.225-.319h-.093A.257.257,0,0,0,75.6,141c-.769,2.493-.75,5.118-1.219,7.668a.3.3,0,0,0,.282.375c2.062.168,4.106.262,6.168.243,1.237,0,2.756.094,3.843-.618a4.134,4.134,0,0,0,1.538-2.4,11.546,11.546,0,0,1,.487-2.006c.619-1.163,1.781-1.294,2.944-1.463a26.588,26.588,0,0,0,5.231-1.275c.937-.337,2.324-.712,2.812-1.687.6-1.275-.356-1.762-1.406-1.856a16.039,16.039,0,0,1,1.612-.562,2.566,2.566,0,0,0,.9-.3A1.242,1.242,0,0,0,99.146,135.935Z"/><path class="g" d="M96.746,129.3c-.187-1.032-.956-1.275-1.856-1.275.956-.45,1.706-1.05,1.406-1.95-.318-.9-1.237-1.144-2.287-1.069a1.027,1.027,0,0,0,.3-1.312c-.394-.75-1.275-.675-1.987-.581a38.77,38.77,0,0,0-6.018,1.406c-2.644.768-5.794,1.631-7.612,3.862a7.781,7.781,0,0,0-1.556,4.012c-.075.525.056,1.762-.357,2.081-.506.394-2.606-.225-3.224-.319h-.094a.257.257,0,0,0-.263.207c-.768,2.493-.75,5.118-1.218,7.668a.3.3,0,0,0,.281.375c2.062.168,4.106.262,6.168.243,1.238,0,2.756.094,3.844-.618a4.138,4.138,0,0,0,1.537-2.4,11.546,11.546,0,0,1,.487-2.006c.619-1.163,1.782-1.294,2.944-1.463a26.639,26.639,0,0,0,5.231-1.274c.937-.338,2.325-.713,2.812-1.688.6-1.275-.356-1.762-1.406-1.856a16.039,16.039,0,0,1,1.612-.562,2.566,2.566,0,0,0,.9-.3A1.239,1.239,0,0,0,96.746,129.3Z"/><path class="d" d="M79.235,141.035c-.243-.656-.918-.956-1.556-1.294a60.04,60.04,0,0,0,.506-6.355.519.519,0,0,0-.206-.45h0c-.019-.019-.037-.038-.056-.038a.475.475,0,0,0-.169-.075c-1.537-.45-3.075-.937-4.593-1.406.806-7.856,1.462-15.955.769-23.829a57.955,57.955,0,0,0-1.857-9.768c-.881-3.281-1.968-6.618-4.687-8.849-3-2.475-6.487-2.644-10.161-1.95a35.878,35.878,0,0,0-10.8,3.824c-7.519,4.163-15.6,9.862-19.424,17.793A19.548,19.548,0,0,0,25.6,122.512c.3,1.087,1.106,2.287,1.256,3.393.15,1.125-1.237,2.775-1.743,3.806a64.721,64.721,0,0,0-3.319,8.081.583.583,0,0,0,.413.712,134.857,134.857,0,0,0,14.305,4.012c2.362.506,4.743.956,7.124,1.35,2.475.394,4.875.544,7.181,1.556a83.312,83.312,0,0,0,27.054,6.75.581.581,0,0,0,.562-.432,39.113,39.113,0,0,0,.619-6.955C79.123,143.754,79.573,141.991,79.235,141.035Z"/><path class="g" d="M69.617,78.865a2.469,2.469,0,0,0-3.9-1.293.228.228,0,0,0-.094.187.206.206,0,0,0-.3.075c-1.406,1.8-3.037,4.631-1.912,6.956a2.788,2.788,0,0,0,4.387.862A6.784,6.784,0,0,0,69.617,78.865Z"/><path class="g" d="M26.683,126.467c5.288,8.419,13.087,14.174,21.917,18.449.675.319,1.257-.675.582-1.012-8.662-4.2-16.33-9.787-21.505-18.036a.581.581,0,0,0-.994.6Z"/><path class="g" d="M78.6,139.16a53.3,53.3,0,0,1-5.287-2.643.463.463,0,0,0,.094-.282c.131-1.462.262-2.906.412-4.368.075-.75-1.106-.75-1.162,0-.132,1.35-.244,2.7-.375,4.05a67.353,67.353,0,0,1-10.124-7.406c-2.363-2.081-4.613-4.293-6.769-6.6-2.962-3.169-5.268-6.412-3.093-10.8.337-.675-.675-1.257-1.013-.582a8.186,8.186,0,0,0,.488,8.868,49.279,49.279,0,0,0,7.63,8.193,65.96,65.96,0,0,0,18.618,12.562C78.692,140.454,79.292,139.441,78.6,139.16Z"/><path class="g" d="M115.5,238.939c-1.763-4.424-3.281-8.905-5.212-13.255q-3.77-8.522-7.762-16.986c-5.212-11.08-10.63-22.029-16.2-32.941-3.356-6.6-6.768-13.161-10.18-19.723-.356-.675-1.35-.075-1.013.581,11.343,21.748,22.461,43.628,32.51,66,2.456,5.474,4.5,11.042,6.712,16.611.3.731,1.425.431,1.144-.282Z"/><path class="b" d="M80.023,140.81c-.45-5.137,3.974-7.931,8.324-9.318a33.829,33.829,0,0,1,3.844-.956,10.591,10.591,0,0,1,3.88-.488c.544.113.788-.731.225-.843a11.432,11.432,0,0,0-4.124.45,30.49,30.49,0,0,0-5.625,1.556c-4.181,1.706-7.837,4.668-7.387,9.6.038.563.919.563.863,0Z"/><path class="b" d="M96.015,131.286a19.3,19.3,0,0,0-4.931.975c-1.425.45-2.906.562-4.124,1.481-.45.337-.019,1.087.45.75,1.162-.881,2.568-.956,3.918-1.388a19.037,19.037,0,0,1,4.706-.937c.544-.056.544-.919-.019-.881Z"/><path class="b" d="M97.121,134.286a41.336,41.336,0,0,0-9.186,1.968c-.525.188-.3,1.05.225.844a40.448,40.448,0,0,1,8.943-1.95c.581-.056.581-.937.018-.862Z"/><path class="b" d="M96.165,137.7a24.044,24.044,0,0,0-7.63,1.368c-.525.207-.3,1.05.225.844a23.7,23.7,0,0,1,7.405-1.35c.563-.019.563-.9,0-.862Z"/><path class="b" d="M93.6,124.555c-3.094.469-6.844,1.05-9.487,2.812-.469.319-.038,1.069.45.75,2.55-1.687,6.3-2.268,9.28-2.718.544-.075.319-.919-.243-.844Z"/><path class="b" d="M94.515,127.649a27.738,27.738,0,0,0-8.961,1.874c-.525.207-.3,1.05.225.844a26.756,26.756,0,0,1,8.718-1.856c.581-.019.581-.9.018-.862Z"/><path class="e" d="M63.937,80.965c1.331-1.912,2.924-4.05,5.512-3.975a.581.581,0,0,0,0-1.162c-3.019-.075-4.931,2.287-6.506,4.556-.45.619.562,1.2.994.581Z"/><polygon class="f" points="129.612 270.455 156.76 234.159 160.922 236.352 134.674 270.887 129.612 270.455"/></svg>