<svg xmlns="http://www.w3.org/2000/svg" viewBox="0 0 300 300"><defs><style>.a{fill:#fedffd;}.b{fill:#bbe7ff;}.c{fill:#5a80f9;}.d{fill:#2c2b47;}.e{fill:#fb0e39;}.f{fill:#fff;}.g{fill:#ffc200;}</style></defs><title>Order Product Online</title><path class="a" d="M259.256,294.472a77.287,77.287,0,0,0-.875-8.29c-.479-2.973-1.338-5.879-1.585-8.885-.446-5.4-.975-10.783-1.553-16.167-1.189-11.015-2.658-22-4.524-32.912-1.734-10.206-3.534-20.642-6.7-30.534a37.1,37.1,0,0,0-5.9-11.824,26.45,26.45,0,0,0-10.734-7.811c-5.1-2.164-10.535-3.386-15.836-4.987a81.769,81.769,0,0,0-15.144-2.923.517.517,0,0,0-.445.264c-2.923,5.466-5.318,11.213-8.323,16.662-3.4,6.177-8.076,11.461-12.766,16.679a29.446,29.446,0,0,1-4.756,4.542,56.773,56.773,0,0,1-5.317,3.269c-3.93,2.18-8.009,4.112-12.088,6.028-1.6.76-3.2,1.5-4.789,2.295a7.573,7.573,0,0,0-2.362,1.388c-.825,1.023.727,2.741,1.222,3.666,1.47,2.741,3.055,5.416,4.723,8.058,7.1,11.2,15.457,21.551,24.077,31.608,3.5,4.079,7.118,8.059,10.619,12.138,1.354,1.585,2.725,3.17,4.079,4.756a9.292,9.292,0,0,0,1.783,2.064q.273,5.45.364,10.932a.514.514,0,0,0,.512.512h65.791a.559.559,0,0,0,.528-.528Z"/><path class="a" d="M223.6,182.243a198.9,198.9,0,0,0-11.857-25.53c-4.244-7.646-8.8-15.837-15.243-21.881-1.007-.958-2.46-2.576-3.93-2.791-1.486-.215-2.345,1.09-2.972,2.229a25.614,25.614,0,0,0-2.841,12.1c-.165,9.578,2.527,19.189,4.393,28.5.314,1.569.594,3.138.941,4.69.149.628.182,1.239.809,1.536a6.932,6.932,0,0,0,2.61.1h4.128c5.978,0,11.956.016,17.918.016a.469.469,0,0,0,.479-.379l4.425,1.337c.05.116.083.215.132.33C222.843,183.135,223.834,182.871,223.6,182.243Z"/><rect class="b" x="103.679" y="42.107" width="99.083" height="179.258"/><path class="c" d="M178.586,153.707c-1.272-7.959-2.477-15.919-3.683-23.895-.594-3.947-1.189-7.91-1.8-11.857-.3-1.965-.611-3.914-.908-5.879a33.565,33.565,0,0,1-.727-5.119,1.046,1.046,0,0,0-1.04-1.041,56,56,0,0,1-7.448.2c-.049-.842-.115-1.668-.181-2.51-.331-4.31-.5-9.264-2.824-13.046a7.873,7.873,0,0,0-11.709-2.014c-4.326,3.286-5.466,9.132-5.73,14.235-.066,1.2-.082,2.427-.082,3.633l-1.569.049-2.576.05c-.2,0-2.279-.033-2,.247a1.045,1.045,0,0,0-1.734.463q-1.906,11.915-3.814,23.829c-.611,3.865-1.239,7.712-1.85,11.576-.578,3.567-.974,7.217-1.75,10.751a1.058,1.058,0,0,0,1.007,1.321q24.721.148,49.443.314a.978.978,0,0,0,1.007-.941C178.6,153.972,178.6,153.856,178.586,153.707Zm-34-49.938c.182-5.383,1.982-15.9,9.644-14.879,5.747.76,6.044,9.182,6.407,13.608.1,1.189.182,2.394.265,3.583-2.032-.066-4.063-.132-6.077-.066-2.99.083-5.979.215-8.968.331l-1.321.049C144.534,105.5,144.551,104.645,144.584,103.769Zm-15.16,48.881c.595-3,.941-6.093,1.437-9.1.644-3.963,1.271-7.943,1.915-11.906q1.834-11.445,3.667-22.905c.66,0,1.37-.1,1.882-.116q2.081-.024,4.162-.1c.066,2.973.247,5.929.429,8.885.083,1.321,2.163,1.337,2.081,0-.182-2.973-.364-5.962-.43-8.951,3.022-.115,6.044-.247,9.083-.33q3.691-.124,7.382-.1c.181,3.121.347,6.259.545,9.38.082,1.321,2.163,1.337,2.08,0-.2-3.1-.346-6.226-.545-9.331h.083c2.1.067,4.178.166,6.259.034.115,1.089.363,2.179.528,3.253.314,1.948.611,3.914.909,5.862.644,4.162,1.271,8.34,1.9,12.5,1.172,7.745,2.345,15.49,3.567,23.235Q152.9,152.791,129.424,152.65Z"/><path class="c" d="M204,37.4H101.73a4.271,4.271,0,0,0-4.26,4.261V227.937a4.271,4.271,0,0,0,4.26,4.261H204a4.271,4.271,0,0,0,4.26-4.261V41.661A4.271,4.271,0,0,0,204,37.4Zm-6.11,170.209a4.271,4.271,0,0,1-4.261,4.26H112.085a4.271,4.271,0,0,1-4.261-4.26V52.015a4.272,4.272,0,0,1,4.261-4.261H135.65l1.932,2.18a3.972,3.972,0,0,0,2.956,1.338h24.606a3.888,3.888,0,0,0,2.956-1.338l1.932-2.18H193.6a4.272,4.272,0,0,1,4.261,4.261V207.609Z"/><circle class="b" cx="152.845" cy="221.901" r="7.745" transform="translate(-83.103 91.785) rotate(-26.566)"/><path class="a" d="M214.289,174.184c-.017-.016-.033-.016-.066-.033-12.666-3.7-26.208-4.921-39.32-5.647-5.631-.314-11.262-.314-16.91-.38-4.739-.05-11.444-.76-14.978,3.138-3.583,3.946-2.642,10.205-.363,14.548,2.939,5.615,8.785,8.769,14.6,10.668,6.259,2.048,12.881,3.253,19.272,4.855,7.15,1.8,14.317,3.6,21.567,5.021,1.783.346,3.567.677,5.367.957,1.321.2,3.088.76,4.36.149,1.354-.661,2.1-2.51,2.675-3.815a26.2,26.2,0,0,0,1.585-4.822c1.866-7.893,1.453-16.15,2.527-24.16A.392.392,0,0,0,214.289,174.184Z"/><path class="d" d="M168.43,173.194a5.727,5.727,0,0,0-4.228-4.954,11.125,11.125,0,0,0-3.385-.331c-2.18-.165-4.36-.281-6.539-.4-2.973-.149-6.325-.76-9.281-.281-5.367.892-4.839,6.886-1.536,9.859,1.982,1.783,4.591,2.527,7.1,3.2a32.785,32.785,0,0,0,8.934,1.436C164.235,181.649,169.008,178.445,168.43,173.194Z"/><path class="e" d="M234.089,101.936c-.248.843-.479,1.668-.743,2.461-1.057,3.121-2.1,6.226-3.154,9.347-1.024,3.038-2.048,6.077-3.105,9.1-.512,1.47-1.024,2.923-1.536,4.376a10.9,10.9,0,0,0-.941,3.105.511.511,0,0,0,.38.495c8.075,2.725,16.084,5.664,24.176,8.34,8.5,2.807,17.026,5.532,25.564,8.256a.554.554,0,0,0,.644-.363c3.352-9.182,6.407-18.479,9.5-27.76C268.025,113.3,251.065,107.584,234.089,101.936Z"/><path class="e" d="M293.159,99.889c-17.868-6.8-36.2-12.3-54.3-18.43a.56.56,0,0,0-.595.231,76.318,76.318,0,0,0-3.121,8.67c-.892,2.725-1.85,5.483-2.543,8.257a.546.546,0,0,0,.363.644c.578.215,1.14.429,1.718.644,0,.017-.017.033-.017.05,16.993,5.647,33.969,11.361,50.846,17.372v-.016c.512.165,1.024.347,1.536.512a.442.442,0,0,0,.562-.232.335.335,0,0,0,.066-.132c2.014-5.614,4.046-11.229,5.813-16.943A.478.478,0,0,0,293.159,99.889Z"/><path class="a" d="M115.586,54.987a.4.4,0,0,0-.116-.115.335.335,0,0,0-.1-.066C106.14,49.488,95.818,46.5,85.5,44.121c-10.172-2.361-20.84-4.029-31.227-2.1a37.832,37.832,0,0,0-4.294,1.04,3.482,3.482,0,0,0-1.965.975,7.794,7.794,0,0,0-.859,3.154c-.231,1.139-.413,2.3-.561,3.451-1.107-.627-2.23-1.238-3.369-1.8a8.245,8.245,0,0,0-2.973-1.2A4.026,4.026,0,0,0,38,48.811c-1.073.809-2.13,1.652-3.137,2.56A58.732,58.732,0,0,0,24.1,64.731a132.277,132.277,0,0,0-7.993,15.886A122.181,122.181,0,0,0,9.5,99.063c-.478,1.882-.891,3.782-1.222,5.7-.165.941-.743,2.593-.379,3.551.379.974,2.1,1.453,3.005,1.849a27.246,27.246,0,0,0,4.806,1.569.523.523,0,0,0,.66-.512c0-.413.76-1.255.975-1.6.346-.561.71-1.123,1.056-1.684.826-1.321,1.652-2.626,2.494-3.93q2.526-3.915,5.119-7.762c1.734-2.576,3.5-5.119,5.285-7.662.891-1.272,1.8-2.527,2.708-3.782.429-.611,1.073-1.982,1.767-2.312q2.8,7.8,5.813,15.523,1.486,3.815,3.022,7.613c.512,1.271,1.024,2.527,1.552,3.782a6.248,6.248,0,0,0,1.057,2.245.551.551,0,0,0,.628.083c7.563-3.55,14.928-7.514,22.558-10.9a.579.579,0,0,0,.545.016c7.645-4.244,15.622-7.811,23.383-11.84a.519.519,0,0,0,.264-.446,6.127,6.127,0,0,0-1.106-2.229c-.677-1.189-1.371-2.362-2.064-3.534q-2.254-3.814-4.558-7.613t-4.674-7.547c-.726-1.156-1.453-2.312-2.2-3.451-.363-.562-.693-1.189-1.106-1.718-.4-.528-.809-.743-.331-.908a8.381,8.381,0,0,1,1.883.115c.809.017,1.618.05,2.411.067L87,61.89c2.989.116,5.978.281,8.967.463s5.978.4,8.951.644c1.37.115,2.757.231,4.128.363.892.082,3.3-.083,4,.429a.527.527,0,0,0,.711-.181,26.362,26.362,0,0,0,1.9-5.665C115.916,56.837,116.345,55.846,115.586,54.987Z"/><path class="c" d="M91.591,9.706c-2.807-1.3-5.648-2.51-8.538-3.583-.974-.363-2.592-1.354-3.666-1.074-1.024.265-1.354,1.652-1.816,2.527-1.6,3.055-3.138,6.143-4.674,9.231-.677,1.354-1.337,2.709-2.015,4.063-.644,1.3-1.238,3.336-2.245,4.376a.8.8,0,0,0-.116.958c1.189,2.427,2.395,4.838,3.584,7.266a33,33,0,0,0-5.912,13.459c-.2.99,1.321,1.4,1.519.412A32.11,32.11,0,0,1,73.459,34.3a32.163,32.163,0,0,1,7.844-.842.78.78,0,0,0,.71-1.09c3.484-7.084,6.7-14.3,9.875-21.534A.887.887,0,0,0,91.591,9.706ZM80.527,31.752a.262.262,0,0,0-.033.083,34.287,34.287,0,0,0-6.986.776c-.016,0-.033-.016-.049-.016-1.107-2.246-2.213-4.476-3.32-6.722a23.2,23.2,0,0,0,1.817-3.633c.826-1.651,1.635-3.319,2.46-4.97,1.767-3.567,3.551-7.118,5.417-10.635a11,11,0,0,1,1.883.66c1.007.364,2.014.76,3.022,1.156,1.833.727,3.633,1.5,5.416,2.329C87.083,17.831,83.928,24.85,80.527,31.752Z"/><path class="c" d="M83.417,14.2c.3-.71.578-1.42.809-2.163.3-.975-1.222-1.387-1.52-.413-.2.611-.412,1.222-.66,1.816a4.71,4.71,0,0,0-2.312-.313,3.442,3.442,0,0,0-3.121,3.435c.066,1.519,1.156,2.212,2.246,2.939-.611,1.04-1.239,2.081-1.817,3.138a18.549,18.549,0,0,1-2.262-1.52c-.809-.611-1.586.744-.793,1.355A23.931,23.931,0,0,0,76.3,24.04a25.958,25.958,0,0,0-1.338,3.105c-.33.958,1.189,1.371,1.52.413A26.416,26.416,0,0,1,77.67,24.75c2.213,1.008,4.508,1.206,4.888-1.866a4.331,4.331,0,0,0-1.668-3.831c.644-1.106,1.271-2.229,1.849-3.369a10.134,10.134,0,0,1,.843.743c.71.727,1.816-.4,1.106-1.106A9.074,9.074,0,0,0,83.417,14.2Zm-2.659,9.281c-.644.727-1.652.165-2.345-.149.528-.974,1.09-1.948,1.668-2.906C80.791,21.15,81.567,22.538,80.758,23.479Zm-1.107-5.334c-1.04-.71-2.146-1.684-.974-2.89a2.286,2.286,0,0,1,2.725-.4C80.873,15.982,80.279,17.072,79.651,18.145Z"/><path class="e" d="M51.066,43.841c-.43,4.458-1.008,8.917-1.338,13.392a68.789,68.789,0,0,1-11.692-7.464c-1.073-.826-2.113.991-1.056,1.817a64.73,64.73,0,0,0,13.161,8.141,1.07,1.07,0,0,0,1.585-.908c.3-5,.958-9.991,1.454-14.979C53.3,42.5,51.2,42.519,51.066,43.841Z"/><path d="M219.821,173.92a31.4,31.4,0,0,0-4.459-1.948,67.507,67.507,0,0,0-6.82-1.5c-1.3-.264-1.866,1.734-.545,2a41.96,41.96,0,0,1,10.784,3.253C219.953,176.3,221.01,174.5,219.821,173.92Z"/><path d="M217.856,265.077A54.367,54.367,0,0,1,208.1,231.6c.066-1.337-2.014-1.337-2.08,0a56.154,56.154,0,0,0,10.04,34.514C216.816,267.224,218.632,266.183,217.856,265.077Z"/><path class="f" d="M149.571,169.66c-1.321,0-2.626-.066-3.947-.033a1.041,1.041,0,0,0,0,2.08c1.321-.033,2.626.033,3.947.033A1.041,1.041,0,0,0,149.571,169.66Z"/><path class="g" d="M91.013,182.557c-.727-2.527-2.609-4.426-5.3-3.4a10.122,10.122,0,0,0-1.651.941c-.925.545-1.057.694-1.784-.165-.908-1.073-1.321-2.328-2.576-3.121-2.593-1.668-5.978-.462-8.538.595-.561.231-1.139.479-1.7.71V178.1A149.985,149.985,0,0,0,44.51,190.6c-5.268,3.3-11.477,7.415-14.351,13.162a1.79,1.79,0,0,1-.231.347,12.614,12.614,0,0,0-1.238,4.574.546.546,0,0,0,.429.611.457.457,0,0,0,.215.049,477.3,477.3,0,0,0,61.1-.809.681.681,0,0,0,.66-.644c.38-4.442.595-8.884.611-13.343C91.706,190.682,92.07,186.289,91.013,182.557Z"/><path class="g" d="M42.479,188.783a153.165,153.165,0,0,1,26.537-13.409c-.049-.215-.1-.413-.165-.628-.677-2.378-2.411-4.277-5.036-3.6-1.338.347-2.411,1.932-3.617.793-1.172-1.107-1.569-2.494-3.154-3.237-2.708-1.272-5.83-.05-8.373,1.007-3.517,1.47-7.035,2.956-10.519,4.492-7,3.072-13.954,6.407-20.031,11.13-5,3.881-11.114,8.7-11.643,15.523a.547.547,0,0,0,.43.611.456.456,0,0,0,.214.05q10.429.5,20.907.578C31.068,196.4,37.161,192.152,42.479,188.783Z"/><path d="M30.622,175.192c-1.008-.76-1.965.958-.975,1.7a15.432,15.432,0,0,1,5.433,7.481c.413,1.189,2.312.693,1.9-.5A17.905,17.905,0,0,0,30.622,175.192Z"/><path d="M25.915,177.917c-1.007-.76-1.965.957-.974,1.7a15.43,15.43,0,0,1,5.433,7.48c.413,1.189,2.312.694,1.9-.5A17.789,17.789,0,0,0,25.915,177.917Z"/><path d="M21.49,180.493c-1.008-.76-1.966.958-.975,1.7a15.428,15.428,0,0,1,5.433,7.481c.413,1.189,2.312.693,1.9-.5A17.82,17.82,0,0,0,21.49,180.493Z"/><path d="M35.791,172.467c-.793-.974-2.18.429-1.371,1.4a53.39,53.39,0,0,1,5.994,9.049c.595,1.123,2.279.132,1.7-.99A55.277,55.277,0,0,0,35.791,172.467Z"/><path d="M45.022,180.774c.413,1.189,2.312.693,1.9-.5a23.168,23.168,0,0,0-6.374-9.727c-.925-.842-2.312.545-1.371,1.4A20.96,20.96,0,0,1,45.022,180.774Z"/><path d="M52.783,183c-1.007-.76-1.965.958-.974,1.7a15.432,15.432,0,0,1,5.433,7.481c.413,1.189,2.312.693,1.9-.5A17.816,17.816,0,0,0,52.783,183Z"/><path d="M48.093,185.711c-1.007-.759-1.965.958-.974,1.7a15.432,15.432,0,0,1,5.433,7.481c.413,1.189,2.312.693,1.9-.5A17.969,17.969,0,0,0,48.093,185.711Z"/><path d="M43.651,188.287c-1.007-.759-1.965.958-.974,1.7a15.445,15.445,0,0,1,5.433,7.481c.413,1.189,2.312.694,1.9-.5A17.792,17.792,0,0,0,43.651,188.287Z"/><path d="M57.952,180.262c-.793-.975-2.18.429-1.371,1.4a53.443,53.443,0,0,1,5.995,9.05c.595,1.123,2.279.132,1.7-.991A56.592,56.592,0,0,0,57.952,180.262Z"/><path d="M69.1,188.073a23.158,23.158,0,0,0-6.374-9.727c-.925-.842-2.312.545-1.371,1.4a21.112,21.112,0,0,1,5.846,8.835C67.613,189.757,69.512,189.262,69.1,188.073Z"/><path class="a" d="M254.55,108.79q-4.608,14.614-9.248,29.229a.535.535,0,0,0,.231.595,34.227,34.227,0,0,0,8.8,2.724.553.553,0,0,0,.644-.363c3.485-9.5,6.606-19.156,9.364-28.866Z"/><path class="a" d="M283.532,74.342a9.654,9.654,0,0,0-3.485-4.558c-3.831-2.246-6.589,2.576-8.339,5.218A61.336,61.336,0,0,0,265.8,86.479c.594-4.607,1.783-9.148,2.13-13.8.132-1.932.3-4.327-1.189-5.846-1.453-1.486-3.617-.941-5.4-.413-4.69,1.4-4.343,5.846-4.161,9.925.165,3.864.71,7.761,2.642,11.1h0a.668.668,0,0,0-.116.3c-2.048,6.177-4.128,12.336-6.044,18.562l12.6,4.294c2.444-6.028,4.079-12.336,5.9-18.562a.534.534,0,0,0-.232-.595c-.264-.115-.545-.247-.809-.363.463-.347.908-.693,1.354-1.057,3.633-2.873,7.63-6.159,9.991-10.238C283.416,78.173,284.308,76.224,283.532,74.342Z"/></svg>