<svg xmlns="http://www.w3.org/2000/svg" viewBox="0 0 300 300"><defs><style>.a{fill:#9cd147;}.b{fill:#a3e053;}.c{fill:#a8ed4f;}.d{fill:#8c967e;}.e{fill:#6b6b6b;}.f{fill:#fcc4bb;}.g{fill:#f98c7a;}.h{fill:#b8ff66;}</style></defs><title>Order delivered</title><path class="a" d="M38.273,244.846l.981,7.221c.09.661,1.094.38,1.005-.277l-.981-7.221c-.09-.661-1.094-.38-1,.277Z"/><path class="a" d="M40.138,244.365a61.047,61.047,0,0,1,.757,7.776c.022.669,1.064.672,1.042,0a63.39,63.39,0,0,0-.794-8.053c-.108-.66-1.112-.38-1.005.277Z"/><path class="a" d="M42.606,243.862l-.361,8.245c-.029.67,1.012.668,1.042,0l.36-8.245c.03-.671-1.012-.669-1.041,0Z"/><path class="a" d="M45.493,244.164l-1.235,7.527c-.108.656.9.938,1,.277l1.236-7.527c.108-.656-.9-.938-1-.277Z"/><path class="a" d="M49.164,246.626q-.919,2.364-1.608,4.808a.521.521,0,0,0,1,.277q.688-2.442,1.609-4.808c.243-.626-.764-.9-1-.277Z"/><path class="a" d="M35.493,246.144a20.9,20.9,0,0,1,1.3,5.784c.051.665,1.094.67,1.042,0a21.9,21.9,0,0,0-1.335-6.06c-.235-.622-1.242-.353-1,.276Z"/><path class="a" d="M33.159,247.6a13.216,13.216,0,0,0,1.463,4.726c.315.592,1.215.066.9-.526a11.857,11.857,0,0,1-1.32-4.2c-.077-.658-1.12-.666-1.042,0Z"/><path class="a" d="M227.8,248.582q1.188,2.962,2.64,5.808c.306.6,1.2.07.9-.526q-1.4-2.72-2.535-5.559c-.247-.615-1.255-.346-1.005.277Z"/><path class="a" d="M230.641,247.963l2.992,6.489c.28.608,1.178.079.9-.526l-2.991-6.489c-.281-.608-1.179-.08-.9.526Z"/><path class="a" d="M234.669,247.262l1.23,6.6c.122.658,1.127.379,1-.277l-1.229-6.6c-.123-.658-1.127-.379-1,.277Z"/><path class="a" d="M238.256,247.459V254.2a.521.521,0,0,0,1.041,0v-6.742a.521.521,0,0,0-1.041,0Z"/><path class="a" d="M241.716,247.787l-.835,6.059c-.091.656.913.939,1,.277l.836-6.059c.09-.656-.913-.94-1-.277Z"/><path class="a" d="M244.27,249.207l-1.35,4.7a.521.521,0,0,0,1.005.276l1.35-4.7a.522.522,0,0,0-1-.277Z"/><path class="a" d="M246.033,250.6l-1.14,3.091c-.232.629.774.9,1,.276l1.14-3.09c.232-.63-.775-.9-1.005-.277Z"/><path class="a" d="M226.182,249.6a30.884,30.884,0,0,0,1.473,4.687c.249.613,1.257.345,1-.277a30.661,30.661,0,0,1-1.473-4.687c-.15-.654-1.154-.377-1.005.277Z"/><path class="a" d="M224.032,251.482l.448,2.537c.117.659,1.121.38,1.005-.277l-.448-2.537c-.116-.659-1.121-.38-1,.277Z"/><path class="a" d="M201.707,242.037l1.276,2.384c.317.592,1.216.066.9-.525l-1.276-2.384c-.317-.592-1.216-.066-.9.525Z"/><path class="a" d="M204.362,240.713l.872,3.1a.521.521,0,0,0,1-.277l-.871-3.1a.522.522,0,0,0-1,.277Z"/><path class="a" d="M206.961,240.135l.3,3.894c.051.664,1.093.669,1.042,0l-.3-3.894c-.051-.665-1.093-.67-1.042,0Z"/><path class="a" d="M209.5,239.79l-.143,4.3c-.022.671,1.019.67,1.042,0l.142-4.3c.023-.671-1.019-.67-1.041,0Z"/><path class="a" d="M212.108,240.7l-.864,3.226a.521.521,0,0,0,1,.277l.865-3.226a.522.522,0,0,0-1-.277Z"/><path class="a" d="M198.612,127.289a120.177,120.177,0,0,0-19.767-25.427c-2.718-2.641-6.824-5.884-10.629-3.281A14.521,14.521,0,0,0,164.325,103c-1.123,1.79-2.059,3.687-3.047,5.552-1.321,2.493-2.861,4.869-4.327,7.277q-2.568,4.215-5.134,8.43c-.263.431.413.824.674.4l4.469-7.338c1.384-2.272,2.821-4.521,4.147-6.828,1.963-3.413,3.423-7.323,6.242-10.159a5.294,5.294,0,0,1,5.143-1.78,12.533,12.533,0,0,1,5.192,3.29A103.631,103.631,0,0,1,187.692,112.8a122.722,122.722,0,0,1,10.246,14.882A.391.391,0,0,0,198.612,127.289Z"/><path class="a" d="M108.373,80.97a6.267,6.267,0,0,0-5.992-4.711.487.487,0,0,0-.282.1.524.524,0,0,0-.293-.043,6.32,6.32,0,0,0-2.448,11.347,5.455,5.455,0,0,0,6.626-.05A6.477,6.477,0,0,0,108.373,80.97Zm-1.255-.461a4.847,4.847,0,0,1,.327,1.192.514.514,0,0,0-.112-.031,29.7,29.7,0,0,0-4.424,0V77.329A5.238,5.238,0,0,1,107.118,80.509Zm-5.251-3.134v4.391a30.3,30.3,0,0,0-4.126.738c0-.143-.007-.286.008-.43A5.378,5.378,0,0,1,101.867,77.375Zm-4.034,6.183a29.224,29.224,0,0,1,4.034-.731v4.821a4.362,4.362,0,0,1-1.286-.444A5.437,5.437,0,0,1,97.833,83.558Zm8.091,2.725a4.658,4.658,0,0,1-3.015,1.422V82.727a29.425,29.425,0,0,1,4.424-.016.486.486,0,0,0,.171-.022A5.529,5.529,0,0,1,105.924,86.283Z"/><path class="a" d="M132.707,61.609l-7.877-.153a.393.393,0,0,0-.39.39q.171,3.171.344,6.341c.027.5.808.5.781,0q-.16-2.971-.322-5.942l7.065.137c-.119,4.57-.195,9.141-.294,13.711-.022.995-.043,1.991-.069,2.986a.391.391,0,0,0,.781,0c.124-4.7.2-9.4.3-14.094.021-.995.042-1.99.069-2.986A.4.4,0,0,0,132.707,61.609Z"/><path class="a" d="M142.8,47.757a.391.391,0,0,0-.674.394c.225.376-.15.866-.545.939-.528.1-1.058-.475-1.4-.8-.666-.624-1.566-1.395-2.553-1.04-.837.3-1.035,1.2-1.106,1.982-.06.677.018,2.274-1.084,2.044-1.033-.216-1.5-1.473-2.111-2.2a2.68,2.68,0,0,0-2.228-1.017,4.483,4.483,0,0,0-3.624,3.269c-.81,2.672.455,5.535,1.535,7.932.206.458.88.061.675-.394-1-2.212-2.224-4.926-1.437-7.389.46-1.441,2.3-3.4,3.942-2.38.879.546,1.2,1.652,1.953,2.331a1.841,1.841,0,0,0,2.485.259,3.246,3.246,0,0,0,.658-2.223,2.6,2.6,0,0,1,.25-1.171c.341-.557.99-.322,1.428-.027.832.562,1.557,1.785,2.721,1.593A1.478,1.478,0,0,0,142.8,47.757Z"/><path class="a" d="M50.421,114.733v98.2a.391.391,0,0,0,.781,0V114.733A.391.391,0,0,0,50.421,114.733Z"/><path class="a" d="M150.382,114.109v31.616c0,.159.782.159.782,0V114.109C151.164,113.95,150.382,113.949,150.382,114.109Z"/><path class="a" d="M153.053,108.586c-.612-.8-1.231-1.6-1.846-2.4l-7.319-9.523-14.7-19.128L114.546,58.488l-3.691-4.8a49.752,49.752,0,0,0-3.293-4.043,9.4,9.4,0,0,0-3.682-2.6,5.394,5.394,0,0,0-3.925.277,12.552,12.552,0,0,0-3.738,2.833c-1.249,1.282-2.366,2.686-3.5,4.066l-7.719,9.361q-7.653,9.28-15.305,18.56l-15.3,18.56-3.86,4.681-1.93,2.34a4.811,4.811,0,0,0-1.217,1.838,2.285,2.285,0,0,0,1.4,2.621,3,3,0,0,0,1,.156c.8.013,1.59,0,2.385,0h99.2a2.288,2.288,0,0,0,2.251-2.107A2.384,2.384,0,0,0,153.053,108.586Zm-.3,2a1.49,1.49,0,0,1-1.386.97H51.183a4.884,4.884,0,0,1-2.421-.253,1.5,1.5,0,0,1-.631-1.535,1.975,1.975,0,0,1,.483-.848q.5-.606,1-1.211l3.726-4.519,7.519-9.118L75.831,75.917,90.87,57.68c1.249-1.514,2.492-3.033,3.747-4.543a29.637,29.637,0,0,1,3.416-3.623,7.11,7.11,0,0,1,3.943-1.936,5.678,5.678,0,0,1,4.047,1.665,26.008,26.008,0,0,1,3.347,3.783q1.808,2.346,3.61,4.7l7.193,9.357,14.32,18.632,14.385,18.714,3.436,4.472A1.69,1.69,0,0,1,152.751,110.588Z"/><path class="a" d="M111.871,215.982c.244.034.489.055.735.078V171.452c0-2.137.069-4.293,0-6.43,0-.03,0-.061,0-.092a.433.433,0,0,0-.091-.275.181.181,0,0,0-.019-.029.229.229,0,0,0-.023-.021.311.311,0,0,0-.235-.107H88.6a.41.41,0,0,0-.368.432v26c.246-.03.49-.07.735-.1v-25.1c0-.117.008-.244.012-.371h22.891Z"/><path class="a" d="M176.818,123.01a3.688,3.688,0,0,0-3.527-2.787.385.385,0,0,0-.176.046.418.418,0,0,0-.178-.01,3.714,3.714,0,0,0-1.407,6.684,3.222,3.222,0,0,0,3.913-.073A3.8,3.8,0,0,0,176.818,123.01Zm-1.551,2.973a2.455,2.455,0,0,1-2.973.517,2.957,2.957,0,0,1-1.566-2.833,2.988,2.988,0,0,1,2.417-2.654.392.392,0,0,0,.063-.024.35.35,0,0,0,.083.015,2.87,2.87,0,0,1,2.621,1.762A2.952,2.952,0,0,1,175.267,125.983Z"/><path class="a" d="M121.733,220.1l-17.975-.314-5.148-.089c-.462-.008-.462.773,0,.781l17.975.313,5.148.09C122.2,220.886,122.2,220.105,121.733,220.1Z"/><path class="a" d="M121.34,230.377q-5.512.244-11.056.434l-35.026.632q-5.7.012-11.406-.033c-1.181-.01-1.18.468,0,.478,15.142.123,30.314-.063,45.343-.561q6.336-.21,12.632-.49C122.989,230.786,122.5,230.325,121.34,230.377Z"/><path class="b" d="M109.135,189.808v2.956a.391.391,0,0,0,.782,0v-2.956A.391.391,0,0,0,109.135,189.808Z"/><path class="a" d="M73.005,162.688c-.021-.5-.8-.5-.782,0q.269,6.47.224,12.945a.354.354,0,0,0-.19-.043l-7.88.383q-.237-6.594-.473-13.187c.012,0,.022,0,.034,0a20.224,20.224,0,0,1,7.719-.973c.5.034.5-.747,0-.781a20.831,20.831,0,0,0-7.927,1,.394.394,0,0,0-.156.1.361.361,0,0,0-.462.363q.307,8.565.614,17.13c.018.5.8.5.782,0q-.052-1.432-.1-2.865l7.852-.382a.378.378,0,0,0,.18-.054c-.012,1.235-.028,2.47-.056,3.7a.391.391,0,0,0,.781,0Q73.364,171.354,73.005,162.688Z"/><path class="a" d="M71.452,180.453l-7.055.376c-.5.026-.5.808,0,.781l7.055-.375C71.953,181.208,71.956,180.427,71.452,180.453Z"/><path class="a" d="M71.571,127.6a.391.391,0,0,0-.782,0l.267,10.632a.319.319,0,0,0-.239-.064l-8.008.884q-.043-5.789-.088-11.577.942-.233,1.9-.385l3.876-.288a23.367,23.367,0,0,1,2.768.186c.5.064.492-.718,0-.782a23.739,23.739,0,0,0-9.515.713.39.39,0,0,0,.2.754q.043,5.747.088,11.494c-.309.152-.309.646,0,.724l.025,3.227a.391.391,0,0,0,.781,0q-.012-1.642-.025-3.286l8-.883a.4.4,0,0,0,.254-.131l.113,4.5a.391.391,0,0,0,.781,0Z"/><path class="a" d="M70.1,142.81l-7.842,1.131c-.5.072-.285.825.208.754l7.842-1.131C70.807,143.492,70.6,142.739,70.1,142.81Z"/><path class="a" d="M104.476,142.917l-.243-17.129a.391.391,0,0,0-.781,0q.092,6.437.182,12.874a.378.378,0,0,0-.152-.034l-7.994-.156q-.29-6.135-.046-12.281a.342.342,0,0,0-.077-.234,54.671,54.671,0,0,0,8.421-.8c.494-.086.285-.84-.208-.753a53.453,53.453,0,0,1-8.965.792.391.391,0,0,0,0,.781l.13,0a.37.37,0,0,0-.082.218q-.244,6.132.045,12.266l-.092,0a.391.391,0,0,0,0,.781l.14,0c.058,1.094.119,2.188.2,3.281.038.5.819.5.781,0-.083-1.088-.144-2.177-.2-3.266l7.945.155a.387.387,0,0,0,.162-.03l.048,3.34a29.218,29.218,0,0,0-9.182,1.034.391.391,0,0,0,.208.754,28.371,28.371,0,0,1,4.525-.872l.232-.025a28.6,28.6,0,0,1,4.61-.1.351.351,0,0,0,.364-.446A.4.4,0,0,0,104.476,142.917Z"/><path class="a" d="M134.449,125.382c.019-.5-.762-.5-.781,0a111.789,111.789,0,0,0,.237,12.549l-7.624.61-.741-9.578c.019-1,.059-1.992.134-2.987H132.7a.391.391,0,0,0,0-.781h-7.457a.386.386,0,0,0-.334.569c0,.01-.007.017-.007.027a53.727,53.727,0,0,0,.535,12.82c-.479.057-.479.816.017.777l.119-.01c.181,1.024.382,2.045.623,3.058a.387.387,0,0,0,.7.1.331.331,0,0,0,.366.4l5.847-.583c.5-.049.5-.831,0-.781l-5.847.583a.39.39,0,0,0-.308.2.377.377,0,0,0-.005-.133c-.229-.965-.421-1.937-.595-2.912l7.615-.609c.064.8.121,1.6.2,2.392.051.5.833.5.781,0A112.076,112.076,0,0,1,134.449,125.382Z"/><path class="c" d="M74.741,193.706v.229l10.4-.548-5.8-5.066q-2.345,2.516-4.6,5.113C74.74,193.524,74.744,193.616,74.741,193.706Z"/><path class="c" d="M84.491,183.021c-1.51,1.5-3,3.012-4.461,4.56l5.247,4.584Z"/><path class="c" d="M83.713,182.366a58.849,58.849,0,0,1-8.771.771l4.323,3.776C80.718,185.369,82.208,183.86,83.713,182.366Z"/><path class="c" d="M74.714,184.28v7.671c1.269-1.449,2.55-2.887,3.862-4.3Z"/><path class="c" d="M95.359,194.637a.524.524,0,0,1,.017-.091c-.01-.08-.021-.159-.03-.239l-10.83,5.75a.485.485,0,0,1-.568-.063c-.014,0-.026,0-.04,0a38.2,38.2,0,0,1-11.38-4.175v14.714a.51.51,0,0,1-.024.129,4.1,4.1,0,0,1,.008.933c0,.06,0,.12.006.18,0,.015-.007.025-.008.039H95.369v-.628a.521.521,0,0,1-.01-.057Z"/><path class="c" d="M84.177,199.017a.424.424,0,0,1,.078.032l9.622-5.109L73.23,195.029A37.339,37.339,0,0,0,84.177,199.017Z"/><path class="c" d="M97.383,228.4a.5.5,0,0,1-.037-.183V215.388l-7.248.2-25.121.708v9.932a.467.467,0,0,1-.064.236c-.012.8-.033,1.6-.053,2.4q2.067,0,4.126.058a54.243,54.243,0,0,1,6.022-.02H97.342C97.362,228.737,97.374,228.569,97.383,228.4Z"/><path class="c" d="M64.959,212.829a.5.5,0,0,1,.018.089v2.369l6.849-.194,25.52-.719v-1.545H64.959Z"/><path class="a" d="M62.032,231.624a4.2,4.2,0,0,0-3.136-.909c2.088-2.461,4-5.371,3.184-8.72-.845-3.486-4.735-4.828-7.928-3.9a11.15,11.15,0,0,0-4.229,2.467,8.211,8.211,0,0,0,.143-3.821,4.277,4.277,0,0,0-2.424-2.915,3.058,3.058,0,0,0-3.324.74,8.331,8.331,0,0,0-1.791,3.339c-.161.477.593.682.753.207.577-1.706,1.871-4.6,4.19-3.514,2.738,1.28,1.981,4.785,1.365,7.079a.394.394,0,0,0,.653.38c2.2-2.27,5.3-4.206,8.564-3.215a4.657,4.657,0,0,1,3.158,2.951,6.685,6.685,0,0,1-.419,4.787,19.456,19.456,0,0,1-3.483,4.763c-.28.312.092.883.474.614a3.092,3.092,0,0,1,3.446.044,3.308,3.308,0,0,1,1.371,3.464c-.617,3.213-4.248,4.279-7.029,3.208a8.979,8.979,0,0,1-4.033-3.387c-.284-.412-.961-.021-.675.394,2.023,2.939,5.659,5.2,9.28,3.771a5.155,5.155,0,0,0,3.184-3.652A4.164,4.164,0,0,0,62.032,231.624Z"/><path class="d" d="M239.7,141.163a22.644,22.644,0,0,0-.993-2.464q-.513-1.263-1.027-2.524a.4.4,0,0,0-.653-.173c-1.084,1-2.4,1.624-3.811.89-1.1-.575-1.977-1.5-3.14-1.974a5.535,5.535,0,0,0-5.941,1.212,1.788,1.788,0,0,1,.386-.042,2.376,2.376,0,0,1,.628.132c.021.007.039.019.059.026a4.6,4.6,0,0,1,1.84-.866,5.059,5.059,0,0,1,3.959.959,7.308,7.308,0,0,0,3.126,1.66,4.064,4.064,0,0,0,3.016-1.076c.571,1.388,1.157,2.771,1.7,4.171.172.449.142.672-.267.932a3.677,3.677,0,0,1-.925.408,4.388,4.388,0,0,1-2,.114,4.176,4.176,0,0,1-1.851-.811c-.548-.429-1-.967-1.551-1.392a3.19,3.19,0,0,0-1.719-.708.477.477,0,0,0-.053,0,6.165,6.165,0,0,1,.091.791c.043,0,.086.006.127.013a2.445,2.445,0,0,1,.915.4c.646.437,1.139,1.069,1.758,1.544a5.066,5.066,0,0,0,3.76.958C238.193,143.2,240.086,142.574,239.7,141.163Z"/><path class="d" d="M241.14,160.073a34.318,34.318,0,0,0-1.036-4.442,13.592,13.592,0,0,0-1.636-3.911,4.6,4.6,0,0,0-3.183-1.994c-.032-.421-.058-.843-.1-1.264a26.946,26.946,0,0,0-.619-4.068,3.354,3.354,0,0,0-1.983-2.469,4.223,4.223,0,0,0-2.829.082.833.833,0,0,1-.04.079,3.736,3.736,0,0,1-1.131.6q-1.421.735-2.773,1.591a36.579,36.579,0,0,0-5.076,3.876,5.8,5.8,0,0,1-1.256.966c-.281.141-.891.373-1.2.206-.239-.128-.219-.318-.153-.541a30.874,30.874,0,0,0-6.639,3.544,24.706,24.706,0,0,1-1.117-4.642,47.442,47.442,0,0,0,7.647-2.276.337.337,0,0,0,.429-.362q-.21-2.232-.419-4.464c0-.009-.006-.015-.007-.024a.377.377,0,0,0-.348-.535l-7.367.172a3.4,3.4,0,0,1,.2-1.8c.181-.47-.574-.673-.753-.208a4.082,4.082,0,0,0-.226,2.021l-1.442.033a.425.425,0,0,0-.124-.03.314.314,0,0,0-.208-.118l-1.985-.3c-.492-.074-.7.678-.208.754l1.13.17-1.127.506c-.458.206-.061.879.394.675l1.941-.871,9.369-.218.366,3.9a48.223,48.223,0,0,1-7.729,2.243.4.4,0,0,0-.207.042c-.278.055-.555.121-.835.171-2.519.449-6.3.686-7.5-2.22a.368.368,0,0,0-.04-.06.4.4,0,0,0-.01-.164,8.49,8.49,0,0,1,.771-6.307,13.791,13.791,0,0,1,4.639-4.8,20.178,20.178,0,0,1,6.484-2.764,14.108,14.108,0,0,1,6.406-.164,8.873,8.873,0,0,1,6.044,4.772,5.128,5.128,0,0,1,.745-.3,8.633,8.633,0,0,0-2.21-2.953,32.047,32.047,0,0,0,5.877.038.425.425,0,0,0,.336.187q.145.8.29,1.593c.089.494.843.285.753-.208q-.112-.615-.224-1.231l.762.619c.387.314.943-.235.553-.553l-1.205-.978a15.681,15.681,0,0,0,4.013-7.378,9.231,9.231,0,0,1,3.2.54c-.636,4.463-1.543,9.5-4.832,12.658a2.865,2.865,0,0,0,.695.129c.088,0,.174,0,.261-.009a16.446,16.446,0,0,0,3.75-7.587c.413-1.727.67-3.486.917-5.243a.461.461,0,0,0,.027-.278.431.431,0,0,0-.552-.4,9.79,9.79,0,0,0-3.769-.593c-.01,0-.017.006-.027.007a.327.327,0,0,0-.347.276,14.966,14.966,0,0,1-4.043,7.484.452.452,0,0,0-.271.165,31.3,31.3,0,0,1-7.322-.14c-.017,0-.032,0-.048,0a10.656,10.656,0,0,0-1.778-.927,13.156,13.156,0,0,0-7.074-.5c-4.743.8-9.753,3.394-12.374,7.553a9.408,9.408,0,0,0-1.2,7.5.307.307,0,0,0,.024.048.343.343,0,0,0,.026.176,4.817,4.817,0,0,0,2.682,2.587,9,9,0,0,0,4.751.345c.523-.074,1.043-.18,1.565-.276a25.37,25.37,0,0,0,.989,4.284.356.356,0,0,0,0,.085c.064.241.132.486.2.731a.449.449,0,0,0,.121.42c.78,2.608,1.984,5.306,4.762,6.191a7.961,7.961,0,0,0,5.624-.51c.01,0,.016.01.026.012a11.977,11.977,0,0,0,7.039-.371c.338,1.2.724,2.38,1.17,3.543a.391.391,0,0,0,.144.18.3.3,0,0,0,.394.111,7.69,7.69,0,0,1,2.5-.559,27.851,27.851,0,0,0,3.766,8.131.378.378,0,0,0,.357.169.4.4,0,0,0,.332.1l3.873-.6a.315.315,0,0,0,.248-.169.4.4,0,0,0,.265-.34A34.518,34.518,0,0,0,241.14,160.073Zm-18.729-1.612a12.665,12.665,0,0,0,2.377-1.766,12.264,12.264,0,0,0,2.459-3.29,41.589,41.589,0,0,0,.916,4.5A11.27,11.27,0,0,1,222.411,158.461Zm7.754,3.184a40.8,40.8,0,0,1-2.531-12.13c-.026-.5-.807-.5-.781,0,.043.818.117,1.632.208,2.444a.425.425,0,0,0-.025.039,11.5,11.5,0,0,1-5.907,6.238,7.786,7.786,0,0,1-4.6.705,5.264,5.264,0,0,1-3.46-2.473,13.108,13.108,0,0,1-1.395-3.327,30.293,30.293,0,0,1,5.908-3.327c-.817.707-1.619,1.43-2.391,2.187-.36.352.193.905.552.552a51.622,51.622,0,0,1,4.046-3.566c.02-.007.039-.016.06-.023a.373.373,0,0,0,.237-.211,51.267,51.267,0,0,1,7.621-4.942,8.548,8.548,0,0,1,3.5-1.315,2.427,2.427,0,0,1,2.528,1.837,20.225,20.225,0,0,1,.63,3.774q.226,2.041.28,4.095a48.3,48.3,0,0,1-.619,9.012A8.213,8.213,0,0,0,230.165,161.645Zm10.489,7.343-3.708.574a27.159,27.159,0,0,1-3.553-7.625c.215.012.43.018.646.05a.412.412,0,0,0,.194-.021.333.333,0,0,0,.5-.238,49.365,49.365,0,0,0,.7-8.812c-.009-.8-.041-1.594-.089-2.39a4.411,4.411,0,0,1,3.14,2.857,28.051,28.051,0,0,1,1.539,5.041A33.841,33.841,0,0,1,240.654,168.988Z"/><path class="d" d="M228.641,137.589a12.179,12.179,0,0,0-4.037-1.336,4.25,4.25,0,0,0-3.388,1.019,6.92,6.92,0,0,0-1.517,3.5q-.588,2.4-1.177,4.805l-.588,2.4c-.114.464-.445,1.1-.068,1.518.807.9,2.36-.355,2.966-.9a38.5,38.5,0,0,1,3.5-2.848,34.448,34.448,0,0,1,4.373-2.679c.494-.251,1.128-.373,1.42-.893a3.728,3.728,0,0,0,.294-1.642A3.019,3.019,0,0,0,228.641,137.589Zm.829,4.144c-.191.383-.879.509-1.236.694a34.9,34.9,0,0,0-3.188,1.878q-1.517,1-2.931,2.146-.72.582-1.41,1.2a6.473,6.473,0,0,1-1.468,1.151,1.453,1.453,0,0,1-.655.19c-.2-.023-.077-.119-.016-.33.2-.684.344-1.388.513-2.08q.48-1.958.959-3.915a30.8,30.8,0,0,1,.932-3.549,3.05,3.05,0,0,1,2.477-2.068,7.377,7.377,0,0,1,3.852.8,5.8,5.8,0,0,1,1.7.894,2.22,2.22,0,0,1,.64,1.786A3.1,3.1,0,0,1,229.47,141.733Z"/><path class="e" d="M237.782,170.255c-.149-.583-.35-1.156-.551-1.729-.277-.794-.506-1.6-.807-2.385a18.584,18.584,0,0,0-1.321-2.778,7.777,7.777,0,0,0-4.64-.443.147.147,0,0,0-.023.031q-.27.627-.6,1.233c.007.006.015.008.022.016,2.634,2.844,5.293,5.7,6.928,9,.117-.022.235-.041.351-.066C238.4,172.725,238,171.1,237.782,170.255Z"/><path class="f" d="M242.972,118.611c-.375-.326-.952-.169-1.418,0L238.12,119.9c-.556.208-1.252.392-1.685-.013a2.654,2.654,0,0,1-.479-1.076c-.142-.372-.522-.742-.888-.589a27.079,27.079,0,0,1,.5,5.863c1.056.185,2.152.2,3.187.412a4.415,4.415,0,0,1,.716-1.038,19.509,19.509,0,0,1,2.31-1.5,3.9,3.9,0,0,0,1.409-2.136A1.211,1.211,0,0,0,242.972,118.611Z"/><path class="f" d="M218.028,119.362a.5.5,0,0,0-.152-.219.455.455,0,0,0-.486-.5c-1.2.052-2.354.391-3.538.554-1.237.169-2.47.351-3.692.606a.455.455,0,0,0-.3.694.541.541,0,0,0,.048.177.465.465,0,0,0-.007.2c.136.69.262,1.382.4,2.071l.612,6.653c.045.5.827.5.781,0l-.333-3.625a4.3,4.3,0,0,0,1.893,1.344,4.944,4.944,0,0,0,3.735.04,14.9,14.9,0,0,1,.159,1.757c.016.5.8.5.781,0a15.832,15.832,0,0,0-.225-2.186,3.557,3.557,0,0,0,1.29-2.643A13.171,13.171,0,0,0,218.028,119.362Z"/><path class="b" d="M220.758,118.613l-1.651.321a5.05,5.05,0,0,0-9.76,2.15.267.267,0,0,0,.448.171c.006,0,.01,0,.016,0l11.082-2.154C221.212,119.039,221.077,118.551,220.758,118.613Z"/><path class="e" d="M217.8,121.731a.57.57,0,0,0,0,1.139A.57.57,0,0,0,217.8,121.731Z"/><path class="e" d="M212.44,122.624a.57.57,0,0,0,0,1.139A.57.57,0,0,0,212.44,122.624Z"/><path class="e" d="M213.023,121.194a2.886,2.886,0,0,0-1.777.644c-.335.278.145.753.478.478a2.137,2.137,0,0,1,1.3-.447C213.457,121.854,213.459,121.178,213.023,121.194Z"/><path class="e" d="M218.134,120.2a2.669,2.669,0,0,0-1.876.6c-.323.291.155.768.478.478a2.012,2.012,0,0,1,1.4-.4C218.569,120.9,218.567,120.227,218.134,120.2Z"/><path class="g" d="M213.859,122.6a3.064,3.064,0,0,0,.468,1.28,1.24,1.24,0,0,0,1.426.423c1.04-.34.906-1.5.574-2.343C215.515,122.214,214.686,122.4,213.859,122.6Z"/><path class="g" d="M215.356,125.694a1.931,1.931,0,0,1-1.608-.968c-.2-.254-.56.106-.358.359a2.35,2.35,0,0,0,1.966,1.116C215.679,126.179,215.681,125.672,215.356,125.694Z"/><path class="f" d="M225.933,141.744a1.272,1.272,0,0,0-.813-.63,8.293,8.293,0,0,0-4.625-.862,12.731,12.731,0,0,0-2.772,1.179c.06,1.038.168,2.073.184,3.108a13.15,13.15,0,0,1,4.541-.152,3.468,3.468,0,0,0,2.279-.122,3.06,3.06,0,0,0,1.1-1.668A1.265,1.265,0,0,0,225.933,141.744Z"/><path class="e" d="M247.974,176.349c.032,0,.066,0,.1,0a.777.777,0,0,0,.461-.762c.029-.476-.457-.973-.765-1.26a11.844,11.844,0,0,0-1.807-1.251,37.471,37.471,0,0,1-4.309-2.926c-.989.138-1.977.288-2.969.4h-.009a12.667,12.667,0,0,0,.07,1.652,6.466,6.466,0,0,0,.093,1.277c.261.9,1.569,1.042,2.321,1.248,1.221.335,2.438.678,3.669.975.619.15,1.242.29,1.867.414A11.366,11.366,0,0,0,247.974,176.349Z"/><path class="d" d="M222.746,139.212l2.245.628a.391.391,0,0,0,.208-.754l-2.245-.627a.391.391,0,0,0-.208.753Z"/><path class="h" d="M201.75,147.96H130.521a5.426,5.426,0,0,0-5.41,5.41V221a5.425,5.425,0,0,0,5.41,5.41h23.414a12.431,12.431,0,0,1,23.715,0h24.1a5.426,5.426,0,0,0,5.41-5.41V153.37A5.427,5.427,0,0,0,201.75,147.96Z"/><path class="e" d="M176.08,177.585a1.979,1.979,0,0,0-2.763,0,55.307,55.307,0,0,0-8.374,13.069l-3.115-3.3a1.971,1.971,0,0,0-2.762,0,1.992,1.992,0,0,0,0,2.762l5.106,5.4a1.953,1.953,0,0,0,1.9.5,2.046,2.046,0,0,0,1.365-1.364c.136-.349.277-.695.419-1.042l.018-.042.066-.156c.075-.172.149-.343.225-.514q.425-.953.885-1.888.975-1.979,2.115-3.869,1.119-1.855,2.386-3.613.306-.423.619-.839c.036-.049.275-.36.28-.368l.2-.253q.7-.88,1.432-1.73A1.994,1.994,0,0,0,176.08,177.585Z"/><path class="e" d="M244.654,202.345a106.922,106.922,0,0,0-2.32-13.949q-.522-1.684-1.084-3.341c-2.264-6.636-5.389-13.085-10.245-18.019-.8-.815-1.648-1.569-2.511-2.3-5.634-3.843-12.134-5.468-18.736-6v67.5h6.195a12.423,12.423,0,0,1,23.6,0h6.015C245.417,218.275,245.5,210.3,244.654,202.345Zm-9.891-6.153-3.329-5.731a.391.391,0,0,0-.674.394l3.1,5.337h-21.69v-34.5c3.312.8,12.8,1.237,19.354,10.265,8.988,12.38,8.57,20.944,9.275,24.24Z"/><path class="e" d="M223.846,193.892q6.559-3.525,12.867-7.493c.424-.267.033-.944-.394-.675q-6.3,3.966-12.868,7.493C223.008,193.455,223.4,194.13,223.846,193.892Z"/><path class="e" d="M246.508,211.723a.375.375,0,0,0-.569.328q.123,3.758.245,7.514a.4.4,0,0,0,.494.377,4.727,4.727,0,0,0,3.595-4.174A4.045,4.045,0,0,0,246.508,211.723Zm.44,7.3q-.107-3.239-.211-6.477a3.21,3.21,0,0,1,2.743,3.357A3.871,3.871,0,0,1,246.948,219.026Z"/><path class="e" d="M165.792,220.492a9.647,9.647,0,1,0,9.647,9.647A9.647,9.647,0,0,0,165.792,220.492Zm0,16.543a6.9,6.9,0,1,1,6.9-6.9A6.9,6.9,0,0,1,165.792,237.035Z"/><path class="e" d="M227.751,220.678a9.646,9.646,0,1,0,9.647,9.646A9.646,9.646,0,0,0,227.751,220.678Zm-.09,16.543a6.9,6.9,0,1,1,6.9-6.9A6.9,6.9,0,0,1,227.661,237.221Z"/><path class="a" d="M49.106,182.494a9.775,9.775,0,0,1-12.9-3.828,10.391,10.391,0,0,1-1.334-3.77c-.062-.415-.618-.315-.733,0-1.574,4.342-5.59,8.063-10.35,7.766a8.543,8.543,0,0,1-5.764-2.693,6.785,6.785,0,0,1-1.632-5.735,6.39,6.39,0,0,1,3.842-5.044.387.387,0,0,0-.2-.746,12.665,12.665,0,0,1-13.334-7.685,13.532,13.532,0,0,1-.467-8.46,12.316,12.316,0,0,1,4.726-6.781,12.687,12.687,0,0,1,8.64-2.348.391.391,0,0,0,.269-.66,19.493,19.493,0,0,1-6.379-16.2A19.28,19.28,0,0,1,22.459,111.9c2.3-1.4,6.014-2.4,8.023.025.287.345.8-.1.6-.469a9.211,9.211,0,0,1,1.31-10.1,8.141,8.141,0,0,1,9.69-1.783,8.54,8.54,0,0,1,4.215,4.221c.2.453.856.06.656-.39a9.642,9.642,0,0,0-9.526-5.437,9.1,9.1,0,0,0-7.846,7.468,9.8,9.8,0,0,0,.218,4.916c-1.866-1.06-4.352-.679-6.289.148a17.584,17.584,0,0,0-6.859,5.712,19.985,19.985,0,0,0,1.92,26.129,13.487,13.487,0,0,0-12.755,8.75,14.241,14.241,0,0,0-.136,9.083,13.114,13.114,0,0,0,5.282,6.924,13.462,13.462,0,0,0,7.483,2.219,7.852,7.852,0,0,0-1.7,10.258,8.969,8.969,0,0,0,5.834,3.716,9.768,9.768,0,0,0,7.067-1.447,13.131,13.131,0,0,0,4.736-5.576,11.1,11.1,0,0,0,3.306,5.411,10.493,10.493,0,0,0,7.287,2.64,10.7,10.7,0,0,0,4.513-1.152C49.927,182.941,49.543,182.273,49.106,182.494Z"/><path class="a" d="M31.285,181.752l2.553,26.213.72,7.4c.049.5.831.5.782,0L32.787,189.15l-.721-7.4c-.048-.5-.83-.5-.781,0Z"/><path class="a" d="M38.182,183.094l.674,23.845.192,6.787c.014.5.8.5.781,0l-.674-23.845-.192-6.787a.391.391,0,0,0-.781,0Z"/><path class="a" d="M44.519,229.493a5.723,5.723,0,0,0-1.985-3.592,4.466,4.466,0,0,0-3.385-.866,4.005,4.005,0,0,0-1.952.823,8.294,8.294,0,0,0-2.568-7.375,6.211,6.211,0,0,0-8.173-.249,5.724,5.724,0,0,0-1.016,1.2,5.911,5.911,0,0,0-3.728-3.732c-3.273-1.03-6.711.769-8.622,3.406a14,14,0,0,0-2.252,5.457c-.1.491.653.7.753.208.608-2.991,2.012-6.071,4.776-7.631,2.482-1.4,5.885-1.339,7.64,1.165a4.842,4.842,0,0,1,.868,2.289,4.874,4.874,0,0,0-.265,1.987.393.393,0,0,0,.768.1,4.558,4.558,0,0,0,.3-2.027,4.978,4.978,0,0,1,4.47-3.1,6.439,6.439,0,0,1,6.018,4.723,8.967,8.967,0,0,1-.014,4.945c-.138.5.566.658.753.208.823-1.974,3.748-2.12,5.225-.863,2.053,1.747,2,4.808,1.128,7.131a23.175,23.175,0,0,1-2.506,4.491c-.276.422.4.814.675.395C43.211,235.88,45.066,232.882,44.519,229.493Z"/><path class="a" d="M31.1,241.645c-.547-2.238-3.279-3.8-5.262-2.206a3.639,3.639,0,0,0-.493.492c.037-.367.064-.736.076-1.106a9.439,9.439,0,0,0-.451-3.936c-.945-2.191-3.821-1.836-5.167-.252a5.95,5.95,0,0,0-.874,1.453,4.381,4.381,0,0,0-3.22-2.926,5.405,5.405,0,0,0-5.967,3.78,7.222,7.222,0,0,0,.225,4.785c.182.463.938.262.754-.207-1.1-2.8-.327-6.452,2.825-7.456a3.64,3.64,0,0,1,3.72.78,3.463,3.463,0,0,1,1.031,3.065c-.045.166-.094.333-.137.5a.391.391,0,0,0,.753.208,3.526,3.526,0,0,0,.16-.6A6.853,6.853,0,0,1,20.5,235.03a2.588,2.588,0,0,1,3.108-.643c1.125.74,1.043,2.668,1.044,3.841a16.506,16.506,0,0,1-.661,4.611.391.391,0,0,0,.754.207c.338-1.129.752-2.506,1.815-3.167a2.509,2.509,0,0,1,3.2.741,4.17,4.17,0,0,1,.328,4.073,12.807,12.807,0,0,1-2.649,3.785c-.333.374.217.929.552.552C29.778,247.02,31.808,244.541,31.1,241.645Z"/><path class="a" d="M275.793,105.842a12.318,12.318,0,0,0-11.257-9.283,8.058,8.058,0,0,0-4.454,1.171,9.946,9.946,0,0,0-.913-9.061,8.139,8.139,0,0,0-5.249-3.513,9.864,9.864,0,0,0-8.12,2.291,5.607,5.607,0,0,0-.585-1.882,9.981,9.981,0,0,0-5.891-4.587,8.73,8.73,0,0,0-7.279,1.058,14.766,14.766,0,0,0-4.98,5.991,30.806,30.806,0,0,0-1.587,3.86,7.782,7.782,0,0,0-1.381-2.513,7.3,7.3,0,0,0-7.773-2.3,10.783,10.783,0,0,0-6.267,5.1,16.585,16.585,0,0,0-1.881,7.508,31.431,31.431,0,0,0,.065,3.263,7.425,7.425,0,0,0-3.752-.814,5.613,5.613,0,0,0-4.608,3.1,10.193,10.193,0,0,0-.651,6A30.04,30.04,0,0,0,201.1,117.9c.179.464.935.263.753-.208a34.364,34.364,0,0,1-1.6-5.141,12.654,12.654,0,0,1-.163-5.629,5.217,5.217,0,0,1,3.307-3.811,6.2,6.2,0,0,1,4.831.727c.024.015.048.034.073.05.134,1.543.344,3.082.579,4.61a.393.393,0,0,0,.653.173,3.709,3.709,0,0,0,1.155-2.575,3.221,3.221,0,0,0-1.025-2.14,5.376,5.376,0,0,0-.64-.53,21.13,21.13,0,0,1,.976-9.3,10.621,10.621,0,0,1,4.723-5.554,6.975,6.975,0,0,1,7.786.315A6.736,6.736,0,0,1,225,93.41c-.3,1-.57,2-.808,3a.393.393,0,0,0,.714.3,5.063,5.063,0,0,0,.879-3.235,34.055,34.055,0,0,1,1.346-3.752,17.07,17.07,0,0,1,4.11-6.11,8.354,8.354,0,0,1,6.528-2.192,9.688,9.688,0,0,1,6.084,3.475,5.1,5.1,0,0,1,1.223,3.227l0,.017a8.6,8.6,0,0,0-2.043,3.584.394.394,0,0,0,.653.38,5.7,5.7,0,0,0,2.1-3.269c.02-.114.016-.227.028-.34a9.222,9.222,0,0,1,7.222-2.684c4.189.37,6.914,4.18,6.962,8.2A8.512,8.512,0,0,1,258.513,99a8.142,8.142,0,0,0-.891,1.086c-.251.374.3.782.613.474a8.2,8.2,0,0,0,.935-1.129,7.05,7.05,0,0,1,4.877-2.089,10.965,10.965,0,0,1,6.385,2.023,11.492,11.492,0,0,1,4.465,6.171,16.137,16.137,0,0,1,.038,8.174,35.6,35.6,0,0,1-3.456,8.8c-.237.443.437.838.674.394C274.862,117.824,277.267,111.663,275.793,105.842Zm-65.956-.182a2.193,2.193,0,0,1-.333,1.771c-.141-.954-.272-1.925-.376-2.9A2.606,2.606,0,0,1,209.837,105.66Z"/><path class="a" d="M232.447,68.034a7.572,7.572,0,0,0-3.847-3.6,5.718,5.718,0,0,0-4.863.385,5.83,5.83,0,0,0-.822.563A12.531,12.531,0,0,0,222,57.841a8.718,8.718,0,0,0-7.887-4.859,7.055,7.055,0,0,0-2.528.5,5.819,5.819,0,0,0-1.892-7.268,6.368,6.368,0,0,0-5.469-.563,5.876,5.876,0,0,0-3.753,4.162,6.821,6.821,0,0,0-.188,1.405,4.6,4.6,0,0,0-3.5-.388c-3.225,1.059-4.526,4.712-4.258,7.848a7.705,7.705,0,0,0-5.957-.995,10.048,10.048,0,0,0-5.837,4.915,14.637,14.637,0,0,0-1.688,8.369,34.533,34.533,0,0,0,2.773,10.011,4.742,4.742,0,0,0-5.305.83c-2.4,2.37-1.678,6.324,0,8.863a23.94,23.94,0,0,0,4.158,4.435c.373.335.928-.216.552-.552-2.245-2.015-4.728-4.234-5.34-7.333-.5-2.542.547-5.536,3.409-5.9a3.172,3.172,0,0,1,3.216,1.353c.217.366.888.121.714-.3-2.289-5.545-4.861-11.873-2.546-17.833A10.368,10.368,0,0,1,185.358,59a6.731,6.731,0,0,1,6.744.3c.195.12.383.252.567.39a25.15,25.15,0,0,0,2.428,6.389.4.4,0,0,0,.714-.093c.862-2.658-.387-5.129-2.433-6.724a8.378,8.378,0,0,1,.21-3.808,6.058,6.058,0,0,1,2.486-3.44,3.805,3.805,0,0,1,3.895-.095c.117.063.228.138.339.213a6.671,6.671,0,0,0,1.648,3.835.394.394,0,0,0,.653-.173,3.773,3.773,0,0,0-1.539-4.079,5.333,5.333,0,0,1,2.782-5.061,5.687,5.687,0,0,1,4.811-.114,4.643,4.643,0,0,1,2.667,3.7,5.167,5.167,0,0,1-1.233,4.1,5.891,5.891,0,0,0-.69.616c-.29.308.1.884.473.614.027-.02.05-.044.077-.064l0,0c.012-.013.024-.023.036-.035a5.02,5.02,0,0,0,.563-.5c2.08-1.627,5.094-1.476,7.386-.266,3.113,1.641,4.442,5.086,4.39,8.472a14.817,14.817,0,0,1-.434,3.262,4.507,4.507,0,0,0-.917,2.851.393.393,0,0,0,.768.1,18.142,18.142,0,0,0,.894-2.688,5.232,5.232,0,0,1,5.5-1.606c3.34,1.149,4.8,4.985,4.548,8.252a17.53,17.53,0,0,1-2.157,6.657c-.232.445.442.841.674.394C233.174,76.639,234.544,72.038,232.447,68.034ZM195.27,64.647a24.482,24.482,0,0,1-1.607-4.072A5.52,5.52,0,0,1,195.27,64.647Zm6.672-10.008a5.794,5.794,0,0,1-.7-1.675A3.045,3.045,0,0,1,201.942,54.639Z"/><path class="a" d="M293.855,155.891a44.047,44.047,0,0,0-1.424-4.843,15.866,15.866,0,0,0-2.074-4.123c-1.561-2.11-4.2-3.734-6.856-3.4,3.09-3.378,5.308-7.987,3.829-12.569a8.739,8.739,0,0,0-4.092-5.122,6.47,6.47,0,0,0-6.1.083,6.65,6.65,0,0,0-2.715,2.67,8.952,8.952,0,0,0-8.628-6.561,10.562,10.562,0,0,0-6.89,2.988,11.6,11.6,0,0,0-3.472,7.031,15.045,15.045,0,0,0,1.539,8.465,8.53,8.53,0,0,0-9.535,4.086c-2.477,4.378-1.237,9.82,1.437,13.789a29.736,29.736,0,0,0,5.2,5.664,5.049,5.049,0,0,0-3.416,3.892c-.518,2.472.772,4.876,2.4,6.644,3.4,3.684,9.123,6.274,13.965,3.921a7.941,7.941,0,0,0,4.139-4.6,27.925,27.925,0,0,0,4.277,6.349c1.8,2.085,4.121,3.807,6.99,3.847a6.321,6.321,0,0,0,5.763-3.731,9.671,9.671,0,0,0,.358-7.238,16.347,16.347,0,0,0-2.224-4.211,5.984,5.984,0,0,0,.869.117c2.65.154,4.9-1.682,6.069-3.937C294.758,162.235,294.565,158.948,293.855,155.891Zm-.68,7.408c-.7,2.229-2.387,4.443-4.8,4.892a5.085,5.085,0,0,1-2.809-.311c-.86-1.1-1.791-2.148-2.714-3.173-.284-.315-.716.028-.653.38a4.718,4.718,0,0,0,2.82,3.385c2.343,3.055,4.121,6.573,2.91,10.476a5.865,5.865,0,0,1-4.676,4.327c-2.612.335-5.046-1.129-6.736-3a25.449,25.449,0,0,1-5.06-7.693.319.319,0,0,0-.369-.28.356.356,0,0,0-.407.375,6.777,6.777,0,0,1-3.4,4.807,8.673,8.673,0,0,1-6.4.895,14.3,14.3,0,0,1-6.258-3.374c-1.641-1.467-3.185-3.441-3.287-5.732-.093-2.089,1.365-4.5,3.625-4.585.312-.012.549-.436.276-.667-3.5-2.969-6.9-6.539-7.986-11.136-.991-4.182.151-8.963,4.2-11.057a6.879,6.879,0,0,1,6.173-.248.394.394,0,0,0,.534-.535c-2.554-4.437-2.987-10.5.481-14.6a10.265,10.265,0,0,1,5.957-3.525,8.011,8.011,0,0,1,9.3,7.186,4.781,4.781,0,0,0-.068,1.427c.046.394.691.579.768.1,0-.035,0-.07.01-.105h0c0-.01,0-.02,0-.03a7.364,7.364,0,0,0,.062-1.322,5.293,5.293,0,0,1,2.416-3.327,5.731,5.731,0,0,1,5.546-.463,7.778,7.778,0,0,1,3.83,4.4,9.762,9.762,0,0,1,.019,6.453,16.756,16.756,0,0,1-4.482,6.711c-.265.255.007.8.38.653,2.435-.967,5.137.206,6.8,2.068,1.9,2.132,2.736,5.021,3.5,7.713C293.468,157.262,294.093,160.384,293.175,163.3Z"/><path class="a" d="M267.815,179.545q2.376,15.792,5.63,31.434.925,4.444,1.921,8.874c.111.49.864.283.754-.208q-3.5-15.585-6.132-31.349-.746-4.473-1.419-8.959c-.075-.495-.828-.285-.754.208Z"/><path class="a" d="M272.987,180.856a282.4,282.4,0,0,0,3.457,28.374q.7,4.008,1.508,8c.1.492.853.284.753-.208a281.017,281.017,0,0,1-4.259-28.176q-.4-3.989-.678-7.986c-.035-.5-.817-.5-.781,0Z"/><path class="a" d="M290.675,220.64a5,5,0,0,0-2.723-3c-2.758-1.223-6.237-.264-8.393,1.714a11.6,11.6,0,0,0-2.11,2.743,3.124,3.124,0,0,0-.95-1.161,5.579,5.579,0,0,0-4.565-.924c-3.442.709-5.987,3.836-7.466,6.839a15.158,15.158,0,0,0-1.385,4.335,6.057,6.057,0,0,0-2.8-1.911,9.43,9.43,0,0,0-6.008-.023A10.484,10.484,0,0,0,246.9,237.6a8.834,8.834,0,0,0,1.533,6.066c.282.412.96.022.675-.394a8.183,8.183,0,0,1,.208-9.6,9.955,9.955,0,0,1,9.768-3.922c1.565.351,3.582,1.263,3.86,3.043.071.455.745.313.767-.1A14.962,14.962,0,0,1,267.254,224c1.762-2.121,4.613-4.057,7.486-3.111.823.27,2.375,1.194,2.14,2.225-.1.182-.2.364-.294.547-.193.371.325.84.613.474.022-.028.033-.057.054-.085l.007.006c.021-.04.043-.079.063-.119a2.039,2.039,0,0,0,.182-.344,15.209,15.209,0,0,1,1.882-2.935,7.809,7.809,0,0,1,3.38-2.315c2.472-.846,5.766-.568,6.994,2.094.752,1.628.2,3.465-.272,5.089a.391.391,0,0,0,.754.207C290.717,224.1,291.222,222.317,290.675,220.64Z"/><path class="a" d="M293.726,242.478a5.668,5.668,0,0,0-3.828-1.493,7.405,7.405,0,0,0-4.5,1.484,12.957,12.957,0,0,0-1.487,1.266,5.651,5.651,0,0,0,.22-.937,4.231,4.231,0,0,0-1.19-3.654c-2.653-2.391-6.394,1.072-8.162,2.992a18.714,18.714,0,0,0-3.158,4.695c-.213.452.46.849.675.394a17.934,17.934,0,0,1,5.534-6.789c1.115-.822,2.721-1.769,4.114-1.046a3.188,3.188,0,0,1,1.443,3.045c-.1,1.707-1.268,3.194-2.254,4.5-.265.351.34.823.613.473,1.822-2.324,4-5.162,7.138-5.594a5.5,5.5,0,0,1,3.673.721,3.668,3.668,0,0,1,1.6,3.72,11.1,11.1,0,0,1-2.773,5.03c-.317.385.232.941.553.552C293.958,249.393,296.618,245.334,293.726,242.478Z"/><path class="a" d="M197.133,243.306l-57.012-.042L83.4,243.222l-32-.024a.4.4,0,1,0,0,.781l57.012.042,56.721.042,32,.024A.4.4,0,1,0,197.133,243.306Z"/></svg>