<svg xmlns="http://www.w3.org/2000/svg" viewBox="0 0 300 300"><defs><style>.a{fill:#2c2b47;}.b{fill:#fedffd;}.c{fill:#bbe7ff;}.d{fill:#ffc200;}.e{fill:#5a80f9;stroke:#5a80f9;stroke-miterlimit:10;stroke-width:0.162px;}.f{fill:#fb0e39;}</style></defs><title>Selfie</title><path class="a" d="M173.96,51.042c-3.156-1.343-6.781-1.6-9.548-3.787-2.2-1.748-3.658-4.224-5.114-6.587-2.752-4.483-5.891-8.626-11.653-8.529-6.247.1-12.591,4.03-18.368-.064-4.143-2.946-6.506-7.769-10.649-10.714-5.082-3.593-10.39-1.392-15.488.906-3.318,1.489-6.7,2.719-10.39,2.007a20.221,20.221,0,0,1-9.468-5.211c-4.191-3.82-7.817-9.856-13.934-10.6-3.3-.4-6.263,1.166-9.338,2.1-4.224,1.3-8.092.178-11.976-1.6-5.13-2.33-11.685-5.907-17.252-2.67a7.933,7.933,0,0,0-3.9,6.247c-.243,2.88,1.262,5.243,3.058,7.363a34.851,34.851,0,0,1,2.865,3.528,12.449,12.449,0,0,1,1.8,6.1c.227,3.156,0,6.376,1.2,9.37.89,2.217,2.525,4.273,4.968,4.823,3.043.68,5.794-1.214,8.659-1.894,6.7-1.6,9.581,6.442,14.161,9.63a15.343,15.343,0,0,0,8.658,2.7c3.528.017,6.554-1.925,10-2.152,3.512-.227,6.215,2.233,8.643,4.418a22.594,22.594,0,0,0,7.477,4.985,18.145,18.145,0,0,0,9.24.809c3.334-.583,5.956-2.751,9.193-3.512,5.923-1.408,11.231,3.609,16.653,5.033a10.291,10.291,0,0,0,7.283-.582c3.253-1.586,5.907-4.953,9.726-5.131,3.415-.162,5.05,3.011,6.911,5.309a7.064,7.064,0,0,0,6.473,2.977c1.716-.161,3.366-.744,5.1-.809,2.023-.081,5.405,1.392,3.981,4.014-.178.34.13.874.551.712a18.989,18.989,0,0,1,6.975-1.311.485.485,0,0,0,.469-.356,17.132,17.132,0,0,0,.437-3.836c0-.016,0-.016.016-.032A12.7,12.7,0,0,0,173.96,51.042Z"/><path class="b" d="M177.65,65.931a.374.374,0,0,0-.324,0c-4.078-.777-5.648,4.24-5.5,7.445.162,3.657,2.3,7.784,5.777,9.321,4.435,1.942,5.956-4.191,6.021-7.379A9.647,9.647,0,0,0,177.65,65.931Z"/><path class="a" d="M187.668,69.864q-10.1,2.427-20.181,4.855a.484.484,0,0,0-.211.809,6.992,6.992,0,0,0,5.341,2.136c2.136-.259,3.285-2.217,4.11-3.981a.491.491,0,0,0,.049-.21c.793-.195,1.6-.389,2.395-.583.016.016.016.032.033.049a5.667,5.667,0,0,0,5.729,1.472c1.877-.631,2.541-2.152,3.269-3.835A.479.479,0,0,0,187.668,69.864Z"/><path class="c" d="M249.2,60.946c-2.637-.987-6.085-2.379-6.894-5.389-1.084-4.013,3.124-6.8,6-8.561a.488.488,0,0,0-.372-.89,22.221,22.221,0,0,1-5.858.275c-1.651-.162-4.661-.356-5.665-1.942-.89-1.408-.323-3.755-.032-5.244a24.867,24.867,0,0,1,1.829-5.664c.21-.469-.356-1.019-.761-.583-2.832,3.043-6.651,6.927-11.264,5.438-4.806-1.57-3.366-7.736-3.722-11.571a.489.489,0,0,0-.955-.13A30.59,30.59,0,0,1,214.29,37.35a2.357,2.357,0,0,1-2.525.632,6.421,6.421,0,0,1-1.456-1.3c-.68-.68-1.343-1.408-1.958-2.136a37.256,37.256,0,0,1-3.82-5.568.489.489,0,0,0-.89.373c.615,3.528,4.143,12.073-1.942,12.623a22.014,22.014,0,0,1-6.425-.534c-1.78-.372-4.013-.842-5.389-2.12a.411.411,0,0,0-.647-.016.45.45,0,0,0-.049.7c3.14,3.819,6.425,7.816,7.525,12.752a11.783,11.783,0,0,1-4.709,12.575c-.372.243-.275.939.243.907a24.647,24.647,0,0,1,7.7.615c2.331.582,5.665,1.488,7.089,3.608,1.5,2.25.388,5.762-.518,8.06a42.97,42.97,0,0,1-3.771,6.878.491.491,0,0,0,.664.664c3.706-2.072,7.93-4.37,12.3-3.156,4.726,1.311,5.292,5.842,5.292,10.066a.486.486,0,0,0,.971,0c.114-4.03.5-8.917,2.816-12.38,2.93-4.37,8.141-2.881,12.235-1.295a.485.485,0,0,0,.47-.809c-3.415-2.816-3.609-8.092-1.182-11.62,2.784-4.046,8.076-5.341,12.721-4.953C249.652,61.95,249.684,61.124,249.2,60.946Z"/><path class="a" d="M271.484,294.381c-1.376-17.85-6.215-35.507-11.361-52.6-.292-.955-.583-1.926-.874-2.881-.146-.469-.227-1.359-.6-1.715a1.289,1.289,0,0,0-.486-.21,8.622,8.622,0,0,0-2.039-.2c-3.059-.194-6.117-.291-9.176-.388-11.361-.372-22.738-.615-34.115-.874q-22.553-.51-45.121-1.036c-14.452-.356-28.9-.712-43.34-1.214-1.57-.048-3.124-.113-4.693-.161a.5.5,0,0,0-.47.356c-6.085,16.329-14.339,31.752-20.051,48.227a84.86,84.86,0,0,0-3.5,12.591.5.5,0,0,0,.469.615H263.893a67.564,67.564,0,0,0,6.781,0,1.977,1.977,0,0,1,.308,0,.47.47,0,0,0,.226-.048A.483.483,0,0,0,271.484,294.381Z"/><path class="d" d="M286.437,164.523c-1.23-11.588-3.819-23.159-9.338-33.517a53.6,53.6,0,0,0-22.285-22.641c-10.584-5.535-22.608-8.06-34.2-10.584-25.765-5.6-51.982-8.869-78.249-11.07-25.085-2.1-50.72-4.046-75.659.437-19.534,3.5-43.292,11.539-51.642,31.461-4.16,9.921-3.237,21.185.566,31.057,4.046,10.5,11.329,19.291,19.55,26.8,8.48,7.752,17.9,14.566,27.254,21.185,9.532,6.732,19.533,12.979,30.425,17.284,4.742,1.878,14.064,4.143,14.533,4.321.486-.582,6.538-12.4,9.549-18.5a314.73,314.73,0,0,0-5.454,38.307c-.017.194,52.84,7.412,79.3,7.93q19.809.388,39.6-.7,4.9-.267,9.807-.631c1.683-.129,3.383-.356,5.05-.4a1.923,1.923,0,0,1,1.634.55c.486.4.906.874,1.408,1.262a17.52,17.52,0,0,0,11.329,3.447,21.831,21.831,0,0,0,11.264-3.317c3.771-2.46,6.23-6.344,7.946-10.423a115.776,115.776,0,0,0,4.968-15.552,111.824,111.824,0,0,0,3.14-18.353A194.652,194.652,0,0,0,286.437,164.523Z"/><path class="b" d="M276.921,211.439c-1.375-11.458-2.848-22.9-6.166-33.985A131.574,131.574,0,0,0,258,148.258a133.626,133.626,0,0,0-10.163-14.792c-1.165-1.473-3.221.6-2.072,2.072a129.255,129.255,0,0,1,25.425,56.19c1.23,6.538,2.023,13.141,2.816,19.744C274.219,213.284,277.132,213.317,276.921,211.439Z"/><path class="b" d="M229.341,206.18c-4.046-14.76-7.137-29.908-7.526-45.266a108.359,108.359,0,0,1,2.169-25.247c2.153.016,4.3.016,6.441.032a1.457,1.457,0,0,0,0-2.913c-2.379-.016-4.758-.032-7.137-.032a1.309,1.309,0,0,0-1.262.777,1.244,1.244,0,0,0-.761.955c-3.317,15.471-2.848,31.38-.372,46.933a236.036,236.036,0,0,0,5.017,23.159,155.313,155.313,0,0,0,6.474,20.035,63.6,63.6,0,0,0,12.154,19.518c1.294,1.375,3.35-.7,2.071-2.072C237.271,232.187,232.853,219.03,229.341,206.18Z"/><path class="b" d="M122.852,191.016a2.043,2.043,0,0,0-.178-.454,216.112,216.112,0,0,0-46.157-54.377q-7.621-6.434-15.843-12.138c-1.538-1.084-3.011,1.457-1.473,2.525a212.572,212.572,0,0,1,50.008,48.907q5.85,8.011,10.94,16.572c.032.065.081.114.113.178-1.2,2.768-2.266,5.616-3.657,8.3-.858,1.667,1.65,3.139,2.524,1.472,1.554-2.977,2.687-6.15,4.062-9.224A1.543,1.543,0,0,0,122.852,191.016Z"/><path class="b" d="M137.126,231.087a226.512,226.512,0,0,0-5.47-24.7c-.826-2.945-1.829-6.053-4.16-8.043-2.039-1.748-5.891-2.444-7.719-4.4-8.529,17.494-19.745,32.61-24,46.965a40.7,40.7,0,0,0-1.942,11.118A6.788,6.788,0,0,0,94.4,255.2a2.8,2.8,0,0,0,2.589,1.635,1.948,1.948,0,0,0,1.44-.955,21.454,21.454,0,0,0,.793,7.089,3.113,3.113,0,0,0,1.311,2.055,2.32,2.32,0,0,0,2.638-.615,6.8,6.8,0,0,0,1.343-2.557,19.262,19.262,0,0,0-.226,7.331,5.062,5.062,0,0,0,1.861,3.593,3.8,3.8,0,0,0,4.548-.874,9.219,9.219,0,0,0,2.071-4.5,17.968,17.968,0,0,1,1.5-4.758,10.067,10.067,0,0,0,1.149,4.467,3.5,3.5,0,0,0,3.949,1.715c1.262-.469,1.942-1.812,2.476-3.042a78.018,78.018,0,0,0,6.085-35.7,81.758,81.758,0,0,0,3.237,15.423c.5,1.457,1.538,3.156,3.043,2.9a3.133,3.133,0,0,0,1.99-1.877C138.566,241.849,137.967,236.265,137.126,231.087Z"/><path class="e" d="M221.994,51.964h-36.3a1.948,1.948,0,0,0-1.942,1.942v71.711a1.948,1.948,0,0,0,1.942,1.942h36.3a1.948,1.948,0,0,0,1.942-1.942V53.906A1.948,1.948,0,0,0,221.994,51.964Z"/><path class="b" d="M247.9,102.6c-.081-4.256-.324-8.836-2.913-12.218-2.3-3.027-6.021-4.564-9.565-5.956C222.851,79.477,211.2,72.825,197.7,73.44c-1.295.065-4.791-.032-5.26,2.606a5,5,0,0,0,.89,3.091c1.068,1.473,2.848,1.829,4.515,2.152q6.677,1.263,13.336,2.541c-7.914.211-16.346.567-22.868,5.066-1.165.809-2.379,1.99-1.893,3.5a2.559,2.559,0,0,0,1.521,1.569,6.227,6.227,0,0,0,3.916.065c5.568-1.489,11.135-1.715,18.272-3.577-5.211,2.978-9.71,3.82-14.193,6.49-1.975,1.182-4.775,2.719-6.344,4.4a6.676,6.676,0,0,0-1.829,3.124c-.356,1.294,1.311,2.67,2.622,2.46a64.186,64.186,0,0,0,16.394-4.678c-.712.567-1.473,1.149-2.4,1.813a14.293,14.293,0,0,0-5.827,7.412,2.379,2.379,0,0,0,.211,1.878c.777,1.343,2.314,1.068,3.56.712,6.118-1.748,11.766-5.179,17.171-8.513a26.174,26.174,0,0,0,5.179,14.824c2.136,2.7,5,5.211,5.357,8.626.226,2.137-.583,4.257-.5,6.393q8.522.243,17.026-.227l.5-.145C247.839,124.856,248.082,112.815,247.9,102.6Z"/><path class="b" d="M203.851,56.642a1.829,1.829,0,1,0,1.829,1.828A1.826,1.826,0,0,0,203.851,56.642Z"/><path class="a" d="M217.705,94.754a55.617,55.617,0,0,0-11.685,6.733c-.987.744-.016,2.427.987,1.683a57.125,57.125,0,0,1,11.685-6.733C219.841,95.952,218.854,94.269,217.705,94.754Z"/><path class="a" d="M217.235,87.342a24.379,24.379,0,0,0-8.334,2.59c-1.117.582-.13,2.265.987,1.683a22.033,22.033,0,0,1,7.347-2.331C218.465,89.139,218.482,87.2,217.235,87.342Z"/><path class="a" d="M216.07,83.8a12.126,12.126,0,0,0-5.389-1.036c-1.246.065-1.262,2.007,0,1.942a10.073,10.073,0,0,1,4.418.761C216.232,85.967,217.219,84.3,216.07,83.8Z"/><path class="a" d="M108.95,240.781a81.767,81.767,0,0,0-5.616,21.783c-.146,1.246,1.8,1.23,1.942,0a80.615,80.615,0,0,1,5.535-21.265C111.3,240.15,109.419,239.648,108.95,240.781Z"/><path class="a" d="M116.783,241.412a91.372,91.372,0,0,0-3.658,24.907.971.971,0,0,0,1.942,0,89.473,89.473,0,0,1,3.577-24.389A.966.966,0,0,0,116.783,241.412Z"/><path class="a" d="M104.305,234.777a71.421,71.421,0,0,0-6.716,20.585c-.194,1.23,1.683,1.748,1.877.518a69.438,69.438,0,0,1,6.522-20.116C106.555,234.647,104.871,233.66,104.305,234.777Z"/><path class="c" d="M262.744,75.8a9.055,9.055,0,0,1-5.955-6.182.49.49,0,0,0-.955.194.468.468,0,0,0-.178.486c.372,1.569.76,3.285.129,4.839a6.825,6.825,0,0,1-3.253,3.075.489.489,0,0,0,.373.89c3.414-1.052,5.275,3.948,6.57,6.214a.488.488,0,0,0,.89-.372,10.667,10.667,0,0,1-.566-4.5c.291-1.813,1.554-2.865,3.059-3.755A.493.493,0,0,0,262.744,75.8Z"/><path class="c" d="M183.962,23.772a4.842,4.842,0,0,1-.356-4.531c.194-.47-.373-.712-.729-.5a.427.427,0,0,0-.388.243,5.16,5.16,0,0,1-1.036,1.586,2.925,2.925,0,0,1-2.735.615c-.485-.065-.922.631-.372.89,1.651.777.793,3.253.566,4.612-.081.5.648.923.89.373.761-1.684,1.667-2.8,3.739-2.541C183.913,24.549,184.123,24.064,183.962,23.772Z"/><path class="c" d="M242.013,14.418a8.367,8.367,0,0,1-3.722-6.991.492.492,0,0,0-.971-.1.453.453,0,0,0-.276.42,8.105,8.105,0,0,1-.857,4c-.858,1.392-2.444,1.828-3.917,2.233a.488.488,0,0,0,.13.955c3.269-.032,3.657,4.774,4.256,7.169a.488.488,0,0,0,.955-.129,11.428,11.428,0,0,1,.453-3.771c.631-1.732,2.136-2.476,3.819-2.929A.469.469,0,0,0,242.013,14.418Z"/><path class="f" d="M199.5,74.152c-.566-1.278-2.428-1.327-3.916-1.052a4.378,4.378,0,0,0-1.425.243.977.977,0,0,0-.566,1.457,3.864,3.864,0,0,0,2.395,1.294C197.1,76.305,200.34,76.062,199.5,74.152Z"/><path class="f" d="M191.714,88.362c-1.149-.874-2.9.081-4.095,1.084a3.776,3.776,0,0,0-.987.777.977.977,0,0,0,.21,1.554,3.847,3.847,0,0,0,2.752-.033C190.678,91.388,193.381,89.624,191.714,88.362Z"/><path class="f" d="M193.186,101.438c-1.359-.76-2.945.275-3.965,1.457a3.124,3.124,0,0,0-.857.874c-1.2,2.12,2.395,2.071,3.5,1.6C193.219,104.8,195.161,102.539,193.186,101.438Z"/><path class="f" d="M202.476,108.656c-1.408-.4-2.67.842-3.383,2.137a2.335,2.335,0,0,0-.631,1.084c-.437,2.168,2.832,1.392,3.771.712C203.415,111.7,204.531,109.255,202.476,108.656Z"/><path class="f" d="M137.336,243.37c-.129-1.214-1.1-2.169-2.363-1.634a.406.406,0,0,0-.113.064.977.977,0,0,0-.777.7,5.189,5.189,0,0,0-.582,3.286,2.4,2.4,0,0,0,.987,1.666,1.066,1.066,0,0,0,1.618.356C137.271,247.076,137.466,244.568,137.336,243.37Z"/><path class="f" d="M118,262.435a1.407,1.407,0,0,0-1.181.259.442.442,0,0,0-.583.323,7.2,7.2,0,0,0,.5,5.13c.567.955,1.732,1.651,2.751.874C121.4,267.613,120.376,262.839,118,262.435Z"/><path class="f" d="M108.691,266.61a1.781,1.781,0,0,0-2.849.7,5.051,5.051,0,0,0,.259,4.418,3.129,3.129,0,0,0,.373.567c.566,1,1.667,1.764,2.767.954C111.394,271.692,110.617,267.953,108.691,266.61Z"/><path class="f" d="M102.606,260.93c-.178-1.263-1.279-3.723-2.978-2.881a2.216,2.216,0,0,0-1.068,2.168c-.13,1.684.016,4.046,1.8,4.678C102.412,265.607,102.784,262.192,102.606,260.93Z"/><path class="f" d="M97.087,250.831a1.768,1.768,0,0,0-2.913-.534,1.638,1.638,0,0,0-.372.728,6.23,6.23,0,0,0,.485,5.1c.826,1.278,2.12.777,2.687-.437A6.1,6.1,0,0,0,97.087,250.831Z"/></svg>