<svg xmlns="http://www.w3.org/2000/svg" xmlns:xlink="http://www.w3.org/1999/xlink" viewBox="0 0 300 300"><defs><style>.a,.d,.l,.m,.n,.p,.r{fill:none;}.b,.e,.f{fill:#da7656;}.b,.d,.e,.f{stroke:#ae504a;}.b,.f,.j,.p,.t,.u{stroke-miterlimit:10;}.b,.d,.e,.k{stroke-width:0.887px;}.c,.j{fill:#621cd1;}.d,.e,.k,.l,.m,.n,.q,.r,.s{stroke-linecap:round;stroke-linejoin:round;}.f,.j,.t,.u{stroke-width:0.296px;}.g,.s{fill:#ffeb7d;}.h{fill:#3e9ff8;}.i{clip-path:url(#a);}.j{stroke:#621cd1;}.k{fill:#d6906b;stroke:#aa7157;}.l,.m,.n{stroke:#f9c126;}.l,.m,.n,.p,.q,.r,.s{stroke-width:1.182px;}.m{stroke-dasharray:3.59 3.59;}.n{stroke-dasharray:3.497 3.497;}.o{fill:#ffadc7;}.p,.q,.r,.t,.u{stroke:#ff5c76;}.q,.t{fill:#ff5c76;}.s{stroke:#ffeb99;}.u{fill:#dd5e5e;}</style><clipPath id="a"><path class="a" d="M124.247,111.3c-4.434.591-7.685,0-9.163-2.069,1.182-5.321,6.207-16.849,8.276-18.622s10.937-5.026,14.78-5.321c0,0-1.182,8.868,5.616,9.163s4.73-9.163,4.73-9.163c2.335-.562,14.011-4.877,16.553-8.572-.3,3.251.3,11.232,2.365,13.006,4.138-1.774,4.729-2.069,4.729-2.069a5.355,5.355,0,0,1-1.478,5.616C167.7,95.34,162.97,98,162.97,98a17.553,17.553,0,0,1,.591,15.667c-3.843,8.572-5.912,13.6-5.912,15.962-2.956,1.478-13.893-1.478-18.031-1.774a23.257,23.257,0,0,0-8.277,1.183Z"/></clipPath></defs><title>Selfie_1</title><path class="b" d="M149.077,85.585c-.591.06-1.567.148-2.749.207a3.683,3.683,0,0,0-.059-.561c-.473-2.513-1.892-10.7-1.833-10.878l-4.848,2.306,1.36,9.34c-2.069.089-3.665.119-3.665.119a24.026,24.026,0,0,0,0,5.025c.3,2.66,4.138,5.616,8.276,5.616S152.328,90.906,149.077,85.585Z"/><path class="b" d="M129.42,60.371s-1.242,20.9,11.646,18.061c8.809-2.246,7.8-17.854,5.7-23.293"/><ellipse class="c" cx="140.713" cy="64.599" rx="1.064" ry="1.33" transform="translate(-10.349 30.634) rotate(-11.988)"/><path class="d" d="M136.071,68.086a10.789,10.789,0,0,1-.414,2.483c-.266.887,1.567.059,1.567.059"/><path class="d" d="M143.313,60.9a3.122,3.122,0,0,0-2.838-.354"/><path class="d" d="M133.972,61.7a7.869,7.869,0,0,0-2.66,1.3"/><path class="d" d="M140.386,72.491a1.886,1.886,0,0,1-1.714,1.566"/><ellipse class="c" cx="133.47" cy="65.959" rx="1.064" ry="1.33" transform="translate(-10.789 29.16) rotate(-11.988)"/><path class="c" d="M170.36,53.661c2.364-9.459,2.069-18.622-12.12-19.509-12.71-.8-12.267,9.193-10.759,15.726a2.881,2.881,0,0,0-2.809-.3c1.331-12.651-12.355-11.676-12.414-5.468-11.41-7.479-18.386,5.439-11.115,12.976,5.971,6.178,18.209,3.015,23.855-.266,3.842,3.045,3.015,8.188,3.015,8.188s2.069.591,2.364-3.251c1.183,5.912,9.9,8.424,12.859,2.808-.887,8.276,13.3,11.824,13.006-2.069C190.164,68.145,184.548,36.813,170.36,53.661Z"/><path class="e" d="M147.688,64.539c.206-.561,3.547-3.695,4.67-1.212s-4.375,5.676-4.907,5.617"/><path class="f" d="M158.27,282.864a21.291,21.291,0,0,1-3.222-.295c-2.838-.444-4.05-3.4-5.114-6.031-.148-.384-.3-.768-.473-1.123-.384-.887-.887-1.862-1.448-2.867-1.064-1.981-2.247-4.227-2.069-5.38.236-1.6,1.744-7.892,2.216-9.814l6.326,3.429a20.094,20.094,0,0,0-.236,5.055c.029.207.088.562.147,1.035.385,2.867,1.331,9.547,4.671,13.153,1.389,1.508,1.36,2.1,1.271,2.306-.03.148-.384.532-2.069.532Z"/><path class="f" d="M148.486,258.005l5.527,2.985a21.1,21.1,0,0,0-.207,4.907c.03.177.089.562.148,1,.414,2.9,1.33,9.7,4.789,13.39,1.153,1.212,1.182,1.744,1.182,1.8-.059.059-.384.3-1.685.3a20.505,20.505,0,0,1-3.163-.3c-2.6-.414-3.754-3.252-4.759-5.764-.147-.385-.3-.769-.473-1.124-.384-.886-.916-1.921-1.448-2.9-.976-1.832-2.187-4.108-2.04-5.113.266-1.419,1.567-6.828,2.129-9.193m-.592-1.33s-2.069,8.513-2.364,10.434,2.364,5.764,3.547,8.513,2.365,6.858,5.912,7.419a21.378,21.378,0,0,0,3.281.3c2.335,0,3.813-.739,1.153-3.606-3.843-4.109-4.434-12.622-4.73-13.982a23.451,23.451,0,0,1,.3-5.2l-7.095-3.872Z"/><path class="f" d="M128.888,289.545a.9.9,0,0,1-.68-.237,1.19,1.19,0,0,1-.148-1,10.859,10.859,0,0,1,1.922-2.749c1.773-2.158,4.2-5.143,4.581-7.951a28.458,28.458,0,0,0-.236-7.656c-.148-1.3-.325-2.542-.355-3.754h6.3c1.478,7.094,2.779,14.957,2.335,15.814-.5.946-3.576,2.542-6.3,3.961-1.6.828-3.222,1.685-4.493,2.453a6.112,6.112,0,0,1-2.926,1.124Z"/><path class="f" d="M139.943,266.607c1.6,7.715,2.572,14.158,2.276,15.163-.5.828-3.724,2.513-6.089,3.754-1.6.828-3.252,1.685-4.523,2.483a5.765,5.765,0,0,1-2.719,1.094c-.178,0-.3-.029-.325-.089-.059-.059-.119-.266-.059-.65a13.581,13.581,0,0,1,1.832-2.571c1.8-2.217,4.286-5.232,4.671-8.188a29.265,29.265,0,0,0-.237-7.775c-.148-1.123-.266-2.216-.325-3.251l5.5.03m.709-.887h-7.094c0,3.576,1.183,7.419.591,11.794-.591,4.316-6.207,9.045-6.5,10.7-.177.976.178,1.774,1.242,1.774a6.669,6.669,0,0,0,3.192-1.242c3.547-2.187,10.05-4.936,10.937-6.591.8-1.478-2.365-16.435-2.365-16.435Z"/><path class="c" d="M131.932,288.746c3.548-2.187,10.051-4.936,10.937-6.591.326-.591.089-2.838-.295-5.5-1.892,1.744-5.38,4.847-7.242,6.178-1.862,1.359-3.873,2.01-4.818,1.152-1.478,1.863-2.868,3.4-3.015,4.2C127.2,289.87,128.385,290.963,131.932,288.746Z"/><path class="c" d="M159.423,279.7a10.3,10.3,0,0,1-1.6-2.246c-.739.621-2.276.148-3.429-.5-1.271-.709-6.414-10.02-8.247-12.888-.3,1.3-.532,2.454-.62,3.015-.3,1.922,2.364,5.765,3.547,8.514s2.365,6.857,5.912,7.419S163.265,283.81,159.423,279.7Z"/><polygon class="b" points="156.496 128.978 153.599 141.541 128.001 136.841 128.917 129.895 132.405 123.392 156.496 128.978"/><path class="g" d="M128.976,133.767c-10.936,13.154-19.509,21.4-13.3,54.33s16.553,78.716,16.553,78.716c4.138,4.109,6.5.828,8.277,0,.886-4.374-3.252-42.8-3.547-52.674s1.477-38.959,1.477-38.959,13.007,33.727,13.893,37.037-4.729,40.053-5.32,44.162c1.478,4.375,5.025,5.5,7.685,5.764,3.547-5.2,16.849-41.708,15.075-51.581-1.478-9.045-9.754-40.88-13.893-52.675s-.295-20.839-.295-20.839S141.687,140.625,128.976,133.767Z"/><path class="h" d="M124.247,111.3c-4.434.591-7.685,0-9.163-2.069,1.182-5.321,6.207-16.849,8.276-18.622s10.937-5.026,14.78-5.321c0,0-1.182,8.868,5.616,9.163s4.73-9.163,4.73-9.163c2.66-.887,12.562-5.469,15.223-6.355-.3,3.251,1.625,9.015,3.695,10.789,4.138-1.774,4.729-2.069,4.729-2.069a5.355,5.355,0,0,1-1.478,5.616C167.7,95.34,162.97,98,162.97,98a17.553,17.553,0,0,1,.591,15.667c-3.843,8.572-5.912,13.6-5.912,15.962-2.956,1.478-13.893-1.478-18.031-1.774a23.257,23.257,0,0,0-8.277,1.183Z"/><g class="i"><path class="j" d="M143.963,109.233l1.271.828,1.271.827-1.36.68-1.359.68.088-1.508.089-1.507m-.384-.8h0a.809.809,0,0,0-.473.739l-.089,1.507-.089,1.508a.878.878,0,0,0,.414.8.945.945,0,0,0,.887.059l1.36-.68,1.36-.68a.809.809,0,0,0,.472-.739.943.943,0,0,0-.413-.8l-1.271-.827-1.271-.828a.873.873,0,0,0-.887-.059Z"/></g><g class="i"><path class="j" d="M132.464,93.832l-1.566-.413.414-1.567a.441.441,0,0,0-.858-.207l-.413,1.567-1.567-.414a.441.441,0,0,0-.207.857l1.567.414-.414,1.567a.441.441,0,1,0,.857.207l.414-1.567,1.567.414a.441.441,0,0,0,.532-.325A.544.544,0,0,0,132.464,93.832Z"/></g><g class="i"><path class="j" d="M127.41,105.893l-1.153-1.153,1.153-1.153a.439.439,0,1,0-.621-.621l-1.153,1.153-1.153-1.153a.439.439,0,0,0-.62.621l1.153,1.153-1.153,1.153a.438.438,0,0,0,.62.62l1.153-1.152,1.153,1.152a.439.439,0,1,0,.621-.62Z"/></g><g class="i"><path class="j" d="M135.686,100.069l1.478.385,1.478.384-1.064,1.094-1.064,1.093-.414-1.448-.414-1.508m-.384-.8a.459.459,0,0,0-.236.178.915.915,0,0,0-.207.857l.414,1.448.413,1.449a.937.937,0,0,0,.621.621.892.892,0,0,0,.621-.06.452.452,0,0,0,.236-.177l1.065-1.094,1.064-1.093a.92.92,0,0,0,.207-.858.934.934,0,0,0-.621-.62l-1.478-.385-1.478-.384a1.382,1.382,0,0,0-.621.118Z"/></g><g class="i"><path class="j" d="M143.431,95.488a1.665,1.665,0,0,1-.236.177,1.19,1.19,0,1,1-1.065-2.128.5.5,0,0,1,.3-.089l-.414-.8a1.069,1.069,0,0,0-.266.118,2.069,2.069,0,0,0,1.862,3.695c.089-.059.178-.088.266-.148Z"/></g><g class="i"><path class="j" d="M141.894,120.111a1.069,1.069,0,0,1-.266.118,1.183,1.183,0,0,1-.532-2.306,1.02,1.02,0,0,1,.295-.029l-.207-.887c-.088,0-.206.03-.295.03a2.058,2.058,0,1,0,.887,4.02c.088-.03.177-.06.295-.089Z"/></g><g class="i"><path class="j" d="M133.5,112.662c-.03-.089-.059-.178-.089-.3a1.192,1.192,0,1,1,2.365-.3v.3l.887-.118v-.3a2.07,2.07,0,0,0-4.109.5,1.059,1.059,0,0,0,.059.3Z"/></g><g class="i"><path class="j" d="M149.165,127.944l-1.152-1.153,1.152-1.153a.438.438,0,0,0-.62-.62l-1.153,1.152-1.153-1.152a.439.439,0,1,0-.621.62l1.153,1.153-1.153,1.153a.439.439,0,1,0,.621.621l1.153-1.153,1.153,1.153a.439.439,0,1,0,.62-.621Z"/></g><g class="i"><path class="j" d="M132.612,122.948v3.015l-1.3-.768-1.3-.769,1.3-.768,1.3-.71m.444-.768h0a.942.942,0,0,0-.887,0l-1.3.768-1.3.769a.887.887,0,0,0,0,1.537l1.3.769,1.3.768a.942.942,0,0,0,.887,0,.881.881,0,0,0,.443-.768v-3.015a.91.91,0,0,0-.443-.828Z"/></g><g class="i"><path class="j" d="M126.316,115.5a1.19,1.19,0,1,1-.532,1.6,1.185,1.185,0,0,1,.532-1.6m-.414-.8a2.069,2.069,0,1,0,2.779.917,2.06,2.06,0,0,0-2.779-.917Z"/></g><g class="i"><path class="j" d="M155.521,103.794c-.03-.089-.059-.177-.089-.3a1.192,1.192,0,0,1,2.365-.3v.3l.887-.118v-.3a2.07,2.07,0,1,0-4.109.5,1.037,1.037,0,0,0,.059.3Z"/></g><g class="i"><path class="j" d="M165.423,99.3l.266-1.6,1.6.266a.435.435,0,1,0,.148-.857l-1.6-.266.266-1.6a.435.435,0,0,0-.857-.147l-.266,1.6-1.6-.266a.435.435,0,1,0-.147.857l1.6.266-.266,1.6a.438.438,0,0,0,.355.5A.417.417,0,0,0,165.423,99.3Z"/></g><g class="i"><path class="j" d="M148.427,103.971c-.089-.029-.178-.059-.3-.088a1.19,1.19,0,0,1,1.064-2.129,1.679,1.679,0,0,1,.237.178l.413-.8a1.16,1.16,0,0,0-.266-.148,2.069,2.069,0,0,0-1.862,3.695,1.069,1.069,0,0,0,.266.118Z"/></g><g class="i"><path class="j" d="M162.083,112.337a1.622,1.622,0,0,1,.177-.237,1.192,1.192,0,1,1,1.626,1.744c-.089.059-.148.118-.236.177l.62.651c.089-.059.148-.118.237-.178a2.07,2.07,0,0,0-2.838-3.015l-.207.207Z"/></g><g class="i"><path class="j" d="M155.7,112.366l-.621-1.507,1.508-.621a.45.45,0,0,0-.355-.828l-1.507.621-.621-1.508a.45.45,0,0,0-.828.355l.621,1.508-1.508.62a.45.45,0,0,0,.355.828l1.508-.621.62,1.508a.446.446,0,0,0,.592.236A.47.47,0,0,0,155.7,112.366Z"/></g><g class="i"><path class="j" d="M154.486,121.441l1.271.828,1.271.827-1.359.68-1.36.68.088-1.508.089-1.507m-.414-.8h0a.811.811,0,0,0-.473.739l-.088,1.507-.089,1.508a.876.876,0,0,0,.414.8.944.944,0,0,0,.887.059l1.359-.68,1.36-.68a.808.808,0,0,0,.473-.739.877.877,0,0,0-.414-.8l-1.271-.827-1.271-.828a.944.944,0,0,0-.887-.059Z"/></g><g class="i"><path class="j" d="M163.354,87.448l.089,1.507.088,1.508-1.359-.68-1.36-.68,1.271-.828,1.271-.827m.414-.8h0a.866.866,0,0,0-.887.059l-1.271.827-1.271.828a.942.942,0,0,0-.414.8.863.863,0,0,0,.473.739l1.36.68,1.359.68A.868.868,0,0,0,164,91.2a.944.944,0,0,0,.414-.8l-.089-1.508-.088-1.507a.842.842,0,0,0-.473-.739Z"/></g><g class="i"><path class="j" d="M152.476,95.517l.266-1.6,1.6.266a.435.435,0,1,0,.148-.857l-1.6-.266.266-1.6a.435.435,0,1,0-.857-.148l-.266,1.6-1.6-.266a.435.435,0,1,0-.148.857l1.6.266-.266,1.6a.437.437,0,0,0,.355.5A.4.4,0,0,0,152.476,95.517Z"/></g><g class="i"><path class="j" d="M135.1,88.009l-1.507.03-1.508.029.739-1.33.739-1.33.769,1.3.768,1.3m.769.444h0a.942.942,0,0,0,0-.887l-.769-1.3-.768-1.3a.962.962,0,0,0-.769-.444.881.881,0,0,0-.768.444l-.739,1.33-.739,1.33a.942.942,0,0,0,0,.887.959.959,0,0,0,.768.443l1.508-.029,1.507-.03a.883.883,0,0,0,.769-.443Z"/></g><g class="i"><path class="j" d="M152.594,82.3c.089-.029.178-.059.3-.088a1.175,1.175,0,1,1,.266,2.335h-.3l.119.887h.295a2.07,2.07,0,0,0-.5-4.109,1.037,1.037,0,0,0-.3.059Z"/></g><g class="i"><path class="j" d="M122.71,94.424l.089,1.507.088,1.508-1.359-.68-1.36-.68,1.271-.828,1.271-.827m.414-.769h0a.868.868,0,0,0-.887.059l-1.271.828-1.271.828a.942.942,0,0,0-.414.8.927.927,0,0,0,.473.739l1.36.679,1.359.68a.866.866,0,0,0,.887-.059.942.942,0,0,0,.414-.8l-.089-1.507-.088-1.508a.827.827,0,0,0-.473-.739Z"/></g><g class="i"><path class="j" d="M118.808,109.174a.994.994,0,0,1-.3-.03,1.19,1.19,0,1,1,.592-2.305,1.049,1.049,0,0,1,.266.118l.236-.887-.266-.089a2.061,2.061,0,0,0-1.034,3.991c.088.029.206.029.3.059Z"/></g><path class="e" d="M118.483,107.607c-.591,3.547-.976,24.741,3.4,27.934,3.252,2.364,7.242,1.625,9.016-6.356s2.365-28.968,2.069-31.332c2.069-3.548,4.434-6.208,1.478-8.573-.3-5.32-1.478-15.37-2.069-15.37s-.887.886-.887,2.955-.591,7.981-.591,7.981c-.887-2.364-4.138-8.572-4.434-9.163s-1.774-1.182-1.182,1.182,2.66,9.459,2.66,9.459c-.887-1.182-2.956-1.478-2.365,1.183-1.182-.3-2.66,0-1.478,3.547a49.834,49.834,0,0,0,2.365,5.912L124.69,108.2A19.943,19.943,0,0,0,118.483,107.607Z"/><path class="k" d="M122.473,124.6s2.07-13.3,2.365-16.258"/><path class="d" d="M125.429,91.2c1.774,1.773,4.316,3.783,2.365,0-1.241-2.424-1.773-2.956-2.069-3.547"/><path class="d" d="M127.942,86.354s2.069,4.316,2.512,5.439-.3,2.069-2.069.295"/><path class="e" d="M133.41,92.975c-.295-.295-4.729-2.364-4.138-3.547s5.025-.3,5.025-.3"/><path class="l" d="M143.608,139.679c-.3,2.187-5.616,16.2-4.138,18.652a17.588,17.588,0,0,0,3.252-.828"/><path class="l" d="M119.37,153.158s6.3,1.862,11.528-6.089"/><path class="l" d="M148.929,148.162s1.212,7.42,6.06,7.952"/><path class="l" d="M133.854,136.368c-1.183,2.188-3.547,4.671-2.661,5.2a10.07,10.07,0,0,0,1.774.827"/><path class="l" d="M149.077,138.585c.236,2.454-.384,5.7.68,5.735a8.955,8.955,0,0,0,1.98-.178"/><path class="l" d="M126.346,137.521s-.325.562-.887,1.537"/><path class="m" d="M123.715,142.191c-3.192,6.119-8.1,16.82-7.153,23.766,1.123,8.425,5.054,40.851,6.384,51.67"/><path class="l" d="M123.153,219.4c.148,1.124.207,1.774.207,1.774"/><path class="l" d="M139.47,165.455s.237.591.68,1.625"/><path class="n" d="M141.48,170.3c4.257,10.257,13.775,33.343,14.248,35.472.591,2.749,5.025,10.434,1.182,24.977-2.66,10.109-5.2,19.746-6.5,24.682"/><path class="l" d="M149.964,257.118c-.3,1.094-.444,1.714-.444,1.714"/><path class="l" d="M138.731,175.741c0-.5.562-4.759.739-10.02"/><path class="o" d="M198.707,59.307c-2.66.532-5.912,1.064-5.912,1.064s-2.66.266-3.547-1.862S178.9,29.275,178.9,29.275a2.119,2.119,0,0,1,2.069-2.394c2.365-.266,15.667-1.064,15.667-1.064s1.182-.533,2.069,1.33,9.754,28.436,9.754,28.436.887,1.33-.886,1.862S198.707,59.307,198.707,59.307Z"/><path class="c" d="M186.854,35.423l-1.094.089a1.66,1.66,0,0,1-1.685-.975l-1.508-3.9a1.492,1.492,0,0,1,1.419-1.951l1.094-.089a1.661,1.661,0,0,1,1.685.976l1.507,3.9A1.482,1.482,0,0,1,186.854,35.423Z"/><path class="e" d="M163.856,79.23c2.365-1.33,30.417-17.026,32.486-18.888-2.365-2.128-5.912-7.183-8.868-8.247a9.134,9.134,0,0,0,.3,2.335s-5.912-2.335-3.843-5.794c-2.365-1.064,0-5.852,3.252-4.522a53.072,53.072,0,0,0-6.5-3.193c-1.183-.532-3.252-2.926.886-2.66s15.076,4.523,16.258,5.853c-3.547-4.523-8.424-11.026-8.868-12.77-.207-.768-.147-3.577,2.365-1.064,2.247,2.247,11.528,10.375,12.711,14.366-1.478-6.917-2.07-8.247-1.183-8.513s2.661,3.724,4.434,6.119,5.616,10.907,4.138,15.163-10.05,14.366-17.735,18.623-20.367,12.5-26.574,13.834c-2.956-5.321-3.252-8.248-3.252-10.11Z"/><path class="d" d="M192.352,46.656A21.158,21.158,0,0,0,187.031,44"/><path class="d" d="M190.4,50.144s-2.779-2.927-6.326-1.36"/><path class="g" d="M169.946,21a1.279,1.279,0,0,1-.887-.384l-6.06-6.8a1.172,1.172,0,0,1,1.744-1.566l6.06,6.8a1.171,1.171,0,0,1-.089,1.656A1.245,1.245,0,0,1,169.946,21Z"/><path class="g" d="M184.282,15.382a1.2,1.2,0,0,1-1.182-1.034L181.3,1.341a1.179,1.179,0,0,1,2.336-.325l1.8,13.006a1.173,1.173,0,0,1-1,1.331A.226.226,0,0,1,184.282,15.382Z"/><path class="g" d="M201.545,17.6a1.316,1.316,0,0,1-.473-.089,1.19,1.19,0,0,1-.592-1.566L205.8,3.972a1.184,1.184,0,1,1,2.158.976l-5.321,11.971A1.216,1.216,0,0,1,201.545,17.6Z"/><path class="g" d="M211.743,28.388A1.19,1.19,0,0,1,210.56,27.3a1.166,1.166,0,0,1,1.064-1.272l17.292-1.448a1.172,1.172,0,1,1,.207,2.335l-17.292,1.449C211.831,28.388,211.8,28.388,211.743,28.388Z"/><path class="g" d="M222.532,45.178a1.342,1.342,0,0,1-.473-.089l-8.572-3.783a1.184,1.184,0,1,1,.975-2.158l8.572,3.783a1.192,1.192,0,0,1,.591,1.567A1.215,1.215,0,0,1,222.532,45.178Z"/><path class="p" d="M44.348,163.858,29.155,168.44a2.344,2.344,0,0,1-2.927-1.567l-5.409-17.942a2.343,2.343,0,0,1,1.567-2.926l15.193-4.582a2.344,2.344,0,0,1,2.927,1.567l5.409,17.942A2.342,2.342,0,0,1,44.348,163.858Z"/><path class="p" d="M39.175,158.213l-8.808,2.66a2.344,2.344,0,0,1-2.927-1.567L24.78,150.5a2.344,2.344,0,0,1,1.567-2.927l8.808-2.66a2.344,2.344,0,0,1,2.927,1.567l2.66,8.808A2.331,2.331,0,0,1,39.175,158.213Z"/><polygon class="q" points="56.142 106.454 61.079 111.154 67.759 109.735 64.803 115.884 68.232 121.796 61.463 120.909 56.881 125.963 55.64 119.253 49.432 116.475 55.403 113.223 56.142 106.454"/><polygon class="r" points="27.677 244.408 26.021 241.038 22.327 240.506 24.987 237.904 24.366 234.239 27.677 235.983 30.958 234.239 30.337 237.904 32.997 240.506 29.303 241.038 27.677 244.408"/><polygon class="r" points="208.195 181.358 215.319 186.383 223.478 183.397 220.876 191.703 226.256 198.531 217.566 198.65 212.718 205.862 209.939 197.615 201.545 195.25 208.521 190.048 208.195 181.358"/><polygon class="s" points="272.487 84.64 268.792 86.472 268.201 90.551 265.334 87.595 261.284 88.305 263.176 84.64 261.284 81.004 265.334 81.713 268.201 78.757 268.792 82.836 272.487 84.64"/><polygon class="q" points="274.852 205.212 275.916 209.853 279.285 213.193 274.674 214.227 271.304 217.627 270.27 212.986 266.871 209.646 271.511 208.582 274.852 205.212"/><polygon class="q" points="235.656 239.294 236.986 240.801 238.907 241.363 237.4 242.693 236.838 244.614 235.538 243.107 233.587 242.545 235.124 241.215 235.656 239.294"/><polygon class="r" points="61.759 185.851 67.02 188.659 72.962 188.186 70.153 193.447 70.626 199.389 65.365 196.581 59.423 197.054 62.232 191.792 61.759 185.851"/><polygon class="q" points="94.037 265.631 96.52 266.961 99.329 266.754 97.969 269.237 98.176 272.045 95.722 270.686 92.914 270.893 94.244 268.439 94.037 265.631"/><polygon class="s" points="249.519 105.301 248.81 112.307 251.973 118.574 244.967 117.835 238.701 120.997 239.41 114.021 236.247 107.755 243.253 108.464 249.519 105.301"/><polygon class="r" points="225.488 68.944 227.468 70.303 229.892 70.362 228.532 72.372 228.444 74.767 226.463 73.407 224.069 73.318 225.428 71.338 225.488 68.944"/><path class="p" d="M256.554,172.785l-16.021-8.69a2.344,2.344,0,0,1-.946-3.193l10.2-18.858a2.343,2.343,0,0,1,3.193-.946L269,149.788a2.344,2.344,0,0,1,.946,3.193l-10.2,18.858A2.343,2.343,0,0,1,256.554,172.785Z"/><path class="p" d="M256.939,164.3l-9.489-5.143a2.343,2.343,0,0,1-.946-3.193l5.144-9.488a2.342,2.342,0,0,1,3.192-.946l9.488,5.143a2.342,2.342,0,0,1,.946,3.192l-5.143,9.489A2.376,2.376,0,0,1,256.939,164.3Z"/><path class="p" d="M45.353,81.152,34.505,78.314a2.371,2.371,0,0,1-1.685-2.867l3.4-12.977a2.373,2.373,0,0,1,2.868-1.685l10.848,2.838A2.372,2.372,0,0,1,51.62,66.49l-3.4,12.977A2.313,2.313,0,0,1,45.353,81.152Z"/><path class="p" d="M44.23,75.358l-5.853-1.537a2.372,2.372,0,0,1-1.685-2.867L38.229,65.1A2.372,2.372,0,0,1,41.1,63.416l5.852,1.537a2.371,2.371,0,0,1,1.685,2.867L47.1,73.673A2.325,2.325,0,0,1,44.23,75.358Z"/><polygon class="r" points="64.389 37.138 62.734 33.798 59.039 33.236 61.729 30.635 61.079 26.969 64.389 28.713 67.7 26.969 67.079 30.635 69.74 33.236 66.045 33.798 64.389 37.138"/><path class="t" d="M99.535,146.389a.674.674,0,0,0-.857-.5h0a3.108,3.108,0,1,1-1.389-6.059c.029,0,.089-.03.118-.03a.651.651,0,0,0,.473-.8l-.236-1a.671.671,0,0,0-.71-.5h-.118a.178.178,0,0,0-.118.029,5.39,5.39,0,0,0,2.335,10.523c.029,0,.059,0,.059-.029.059-.03.118-.03.177-.059a.684.684,0,0,0,.444-.769Z"/><path class="g" d="M26.524,193.95a.67.67,0,0,0,.916-.355h0a3.108,3.108,0,0,1,5.617,2.66.225.225,0,0,1-.06.119.65.65,0,0,0,.326.857l.946.443a.653.653,0,0,0,.827-.236.223.223,0,0,0,.059-.118.155.155,0,0,0,.059-.119,5.4,5.4,0,0,0-9.725-4.7.106.106,0,0,1-.029.06c-.03.059-.03.118-.059.177a.669.669,0,0,0,.325.828Z"/><path class="g" d="M86.854,225.667a.521.521,0,0,0,.621.443h0a2.429,2.429,0,1,1,.621,4.818.108.108,0,0,0-.089.03.533.533,0,0,0-.443.591l.118.8a.517.517,0,0,0,.532.444h.207a4.217,4.217,0,0,0-1.064-8.366H87.3c-.059,0-.089.03-.148.03a.518.518,0,0,0-.414.562Z"/><path class="u" d="M200.244,162.262a.5.5,0,0,0-.3-.709h0a2.433,2.433,0,0,1,2.129-4.375c.029,0,.059.03.088.03a.509.509,0,0,0,.68-.266l.355-.739a.506.506,0,0,0-.177-.651c-.03-.029-.06-.029-.089-.059s-.059-.029-.089-.059a4.231,4.231,0,0,0-3.724,7.6c.029,0,.029.029.059.029.059.03.089.03.148.059a.526.526,0,0,0,.65-.236Z"/><path class="t" d="M200.244,162.262a.5.5,0,0,0-.3-.709h0a2.433,2.433,0,0,1,2.129-4.375c.029,0,.059.03.088.03a.509.509,0,0,0,.68-.266l.355-.739a.506.506,0,0,0-.177-.651c-.03-.029-.06-.029-.089-.059s-.059-.029-.089-.059a4.231,4.231,0,0,0-3.724,7.6c.029,0,.029.029.059.029.059.03.089.03.148.059a.526.526,0,0,0,.65-.236Z"/><path class="g" d="M85.17,71.663a.732.732,0,0,0,1.093.266h0a3.526,3.526,0,0,1,3.4,6.178.23.23,0,0,1-.119.059.75.75,0,0,0-.266,1.035l.562,1.034a.755.755,0,0,0,.946.325c.059-.029.089-.029.148-.059s.088-.029.118-.059a6.144,6.144,0,0,0-5.823-10.819.1.1,0,0,0-.059.03c-.06.03-.119.089-.178.118a.74.74,0,0,0-.236.976Z"/><path class="t" d="M201.279,117.3a.747.747,0,0,0-1.124.059h0a3.532,3.532,0,0,1-5.025-4.966.407.407,0,0,0,.089-.119.75.75,0,0,0-.03-1.064l-.827-.827a.765.765,0,0,0-1-.059c-.03.029-.089.059-.119.088s-.088.059-.118.089a6.145,6.145,0,0,0,8.661,8.72l.059-.059a.688.688,0,0,1,.118-.148.763.763,0,0,0-.029-1Z"/><path class="g" d="M198.825,252.507a.723.723,0,0,0-.177-1.094h0a3.539,3.539,0,1,1,4.345-5.587c.03.03.089.059.118.089a.722.722,0,0,0,1.035-.148l.709-.916a.765.765,0,0,0-.059-1l-.118-.118-.089-.089a6.145,6.145,0,0,0-7.626,9.636c.029.03.059.03.059.059.059.03.118.089.177.119a.733.733,0,0,0,.976-.148Z"/><polygon class="r" points="230.158 260.074 232.818 260.251 235.153 258.98 234.976 261.641 236.247 263.976 233.587 263.798 231.252 265.099 231.429 262.439 230.158 260.074"/></svg>