<svg xmlns="http://www.w3.org/2000/svg" xmlns:xlink="http://www.w3.org/1999/xlink" viewBox="0 0 300 300"><defs><style>.a,.c,.e,.f,.m,.n,.p,.q,.r,.x,.y{fill:none;}.b{fill:#ae504a;stroke-width:1.009px;}.b,.n{stroke:#ae504a;}.b,.c,.l,.q{stroke-miterlimit:10;}.c{stroke:#3e9ff8;}.c,.d,.l,.m,.n,.p,.x,.y{stroke-width:1.346px;}.d,.l{fill:#ffc3a9;}.d,.l,.m{stroke:#e89589;}.d,.e,.f,.m,.n,.p,.r,.x,.y{stroke-linecap:round;stroke-linejoin:round;}.e,.y{stroke:#f9c126;}.e,.f,.q,.r{stroke-width:2.018px;}.f{stroke:#ffeb7d;}.g{fill:#621cd1;}.h{fill:#a4d2fc;}.i{fill:#ff859b;}.j{clip-path:url(#a);}.k{fill:#ffadc7;}.o{fill:#3e9ff8;}.p,.x{stroke:#ff5c76;}.q,.r{stroke:#465cff;}.s{fill:#ffeb7d;}.t{fill:#f9c126;}.u{clip-path:url(#b);}.v{clip-path:url(#c);}.w{fill:#ff5c76;opacity:0.54;}.w,.x{isolation:isolate;}.x{opacity:0.46;}</style><clipPath id="a"><path class="a" d="M189.916,96.2c-14.5-13.961-44.135-22.707-74.546,5.55-35.389,33.976-29.67,90.424-9.486,94.562,14.162,2.893,26.441-3.566,26.441-3.566s33.976,10.025,57.558-3.229c17.862,7.871,49.686-6.426,58.97-25.028S261,112.31,261,112.31a17.839,17.839,0,0,1-14.667-3.229c-7.871,5.012-25.364,19.309-26.811,25.028C214.238,122.267,199.235,105.111,189.916,96.2Z"/></clipPath><clipPath id="b"><path class="a" d="M95.691,226.282c-.4,12.346-3.6,42.891-5.012,56.111a7.168,7.168,0,0,0,5.483,7.737l19.847,4.676a7.183,7.183,0,0,0,7.2-2.455l24.759-30.444a7.168,7.168,0,0,0,1.481-5.786l-8.478-47.668a7.112,7.112,0,0,0-3.7-5.08l-5.046-2.691a7.143,7.143,0,0,0-7.636.606L98.517,220.765A7.43,7.43,0,0,0,95.691,226.282Z"/></clipPath><clipPath id="c"><path class="a" d="M84.691,185.006c2.758,4.979,7.5,13.018,9.89,17.123a7.128,7.128,0,0,1,.774,5.416L83.412,253.732a7.2,7.2,0,0,1-4.238,4.844l-27.013,10.9a7.15,7.15,0,0,1-9.386-4.138l-14.734-39.8a7.106,7.106,0,0,1,1.783-7.67L64.776,184.5a7.213,7.213,0,0,1,4-1.917l8.746-1.178A7.152,7.152,0,0,1,84.691,185.006Z"/></clipPath></defs><title>Shopping</title><path class="b" d="M165.628,39.345a160.153,160.153,0,0,1-8.208-15,29.427,29.427,0,0,0-9.217-.471c-7.132-2.624-11.169-.236-11.169-.236.707-8.948-16.08-25.364-25.734-10.731s6.8,20.386,15.373,17.863a13.811,13.811,0,0,0-1.379,7.333,39.619,39.619,0,0,0-4.34,9.453c-6.795,21.462-15.743,15-26.44,20.016s-33.977,41.108,4.642,67.549S193.516,122.6,199.605,96.5,169.194,44.727,165.628,39.345Z"/><path class="c" d="M128.254,31.675c.37,5.719,1.077,17.157,2.86,20.016"/><path class="d" d="M138.952,55.56c-.908.538-13.389-1.682-13.052-7.1.336-5.483,8.78-1.917,9.553-.975"/><path class="e" d="M82.538,183.593A138.72,138.72,0,0,1,92.5,172.155"/><path class="e" d="M93.942,203.979c.605-6.661,3.566-23.784,3.566-23.784"/><path class="f" d="M125.4,201.119a160.591,160.591,0,0,0-2.153-21.8"/><path class="d" d="M244.48,118.029c-.3-2.086,3.7-9.958,3.7-11.438,0-4.709-2.725-6.391-2.019-12.11.673-5.383,2.557-8.545,2.826-7s.774,7.972,2.557,10.361,8.981,2.859,13.052-4.306c4.07-7.2-.841-14.633-.269-15.542s3.734.572,5.214,5.652a10.587,10.587,0,0,1-.673,8.376s3.3,6.863,2.994,9.857c-.437,4.406-9.554,8.679-11.37,10.159s-4.172,10.765-4.172,10.765Z"/><path class="g" d="M263.79,91.958,253.5,93.774a3,3,0,0,1-3.5-2.455L246.5,71.4a3,3,0,0,1,2.455-3.5l10.294-1.816a3,3,0,0,1,3.5,2.456l3.5,19.914A3.014,3.014,0,0,1,263.79,91.958Z"/><rect class="h" x="258.847" y="66.207" width="2.557" height="26.206" transform="translate(-9.825 46.416) rotate(-10.009)"/><path class="h" d="M254.471,76.383l-2.994.538a1.109,1.109,0,0,1-1.278-.875l-.538-2.994a1.109,1.109,0,0,1,.874-1.278l2.994-.538a1.109,1.109,0,0,1,1.279.874l.538,2.994A1.11,1.11,0,0,1,254.471,76.383Z"/><path class="d" d="M265.505,96.264c3.263-2.826,5.887-5.147,4.441-6.8s-4.071.672-7.334,3.5-5.248,5.887-4.44,6.8S262.276,99.123,265.505,96.264Z"/><path class="d" d="M267.389,100.065c2.927-2.086,5.315-3.734,4.1-5.45s-3.6-.033-6.526,2.052-4.777,4.508-4.1,5.45S264.429,102.151,267.389,100.065Z"/><path class="d" d="M268.667,103.5c2.49-1.749,4.508-3.195,3.465-4.676s-3.061-.067-5.55,1.682-4.037,3.835-3.465,4.676S266.178,105.246,268.667,103.5Z"/><path class="i" d="M189.916,96.2c-14.5-13.961-44.135-22.707-74.546,5.55-35.389,33.976-29.67,90.424-9.486,94.562,14.162,2.893,26.441-3.566,26.441-3.566s33.976,10.025,57.558-3.229c17.862,7.871,49.686-6.426,58.97-25.028S261,112.31,261,112.31a17.839,17.839,0,0,1-14.667-3.229c-7.871,5.012-25.364,19.309-26.811,25.028C214.238,122.267,199.235,105.111,189.916,96.2Z"/><g class="j"><path class="k" d="M118.061,101.377h-.1a2.276,2.276,0,0,0-1.245.3,2.647,2.647,0,0,0-1.043.673A2.335,2.335,0,0,0,115,103.4a2.62,2.62,0,0,0-.3,1.245,3.489,3.489,0,0,0,.942,2.288,3.352,3.352,0,0,0,2.288.942h.1a2.289,2.289,0,0,0,1.245-.3,2.655,2.655,0,0,0,1.042-.673,2.321,2.321,0,0,0,.673-1.043,2.62,2.62,0,0,0,.3-1.245,3.479,3.479,0,0,0-.942-2.287,3.26,3.26,0,0,0-2.288-.942h-.1a2.276,2.276,0,0,0-1.245.3,2.647,2.647,0,0,0-1.043.673A2.335,2.335,0,0,0,115,103.4a2.62,2.62,0,0,0-.3,1.245,3.489,3.489,0,0,0,.942,2.288,3.352,3.352,0,0,0,2.288.942h.1a2.289,2.289,0,0,0,1.245-.3,2.655,2.655,0,0,0,1.042-.673,2.321,2.321,0,0,0,.673-1.043,2.62,2.62,0,0,0,.3-1.245,3.479,3.479,0,0,0-.942-2.287,3.26,3.26,0,0,0-2.288-.942Z"/><path class="k" d="M112.713,167.849h-.1a2.287,2.287,0,0,0-1.245.3,2.658,2.658,0,0,0-1.043.673,2.327,2.327,0,0,0-.672,1.043,2.62,2.62,0,0,0-.3,1.245,3.474,3.474,0,0,0,.942,2.287,3.348,3.348,0,0,0,2.287.942h.1a2.278,2.278,0,0,0,1.245-.3,2.654,2.654,0,0,0,1.043-.673,2.324,2.324,0,0,0,.672-1.042,2.62,2.62,0,0,0,.3-1.245,3.479,3.479,0,0,0-.942-2.288,3.418,3.418,0,0,0-2.287-.942h-.1a2.287,2.287,0,0,0-1.245.3,2.658,2.658,0,0,0-1.043.673,2.327,2.327,0,0,0-.672,1.043,2.62,2.62,0,0,0-.3,1.245,3.474,3.474,0,0,0,.942,2.287,3.348,3.348,0,0,0,2.287.942h.1a2.278,2.278,0,0,0,1.245-.3,2.654,2.654,0,0,0,1.043-.673,2.324,2.324,0,0,0,.672-1.042,2.62,2.62,0,0,0,.3-1.245,3.479,3.479,0,0,0-.942-2.288,3.418,3.418,0,0,0-2.287-.942Z"/><path class="k" d="M124.52,182.516h-.1a2.284,2.284,0,0,0-1.244.3,2.658,2.658,0,0,0-1.043.673,2.338,2.338,0,0,0-.673,1.043,2.62,2.62,0,0,0-.3,1.245,3.484,3.484,0,0,0,.942,2.287,3.351,3.351,0,0,0,2.288.942h.1a2.275,2.275,0,0,0,1.244-.3,2.647,2.647,0,0,0,1.043-.673,2.326,2.326,0,0,0,.673-1.042,2.62,2.62,0,0,0,.3-1.245,3.216,3.216,0,0,0-3.23-3.23h-.1a2.284,2.284,0,0,0-1.244.3,2.658,2.658,0,0,0-1.043.673,2.338,2.338,0,0,0-.673,1.043,2.62,2.62,0,0,0-.3,1.245,3.484,3.484,0,0,0,.942,2.287,3.351,3.351,0,0,0,2.288.942h.1a2.275,2.275,0,0,0,1.244-.3,2.647,2.647,0,0,0,1.043-.673,2.326,2.326,0,0,0,.673-1.042,2.62,2.62,0,0,0,.3-1.245,3.216,3.216,0,0,0-3.23-3.23Z"/><path class="k" d="M117.355,143.191h-.1a2.287,2.287,0,0,0-1.245.3,2.655,2.655,0,0,0-1.042.673,2.321,2.321,0,0,0-.673,1.043,2.62,2.62,0,0,0-.3,1.245,3.479,3.479,0,0,0,.942,2.287,3.348,3.348,0,0,0,2.287.942h.1a2.276,2.276,0,0,0,1.245-.3,2.647,2.647,0,0,0,1.043-.673,2.335,2.335,0,0,0,.673-1.042,2.619,2.619,0,0,0,.3-1.245,3.481,3.481,0,0,0-.941-2.288,3.416,3.416,0,0,0-2.288-.942h-.1a2.287,2.287,0,0,0-1.245.3,2.655,2.655,0,0,0-1.042.673,2.321,2.321,0,0,0-.673,1.043,2.62,2.62,0,0,0-.3,1.245,3.479,3.479,0,0,0,.942,2.287,3.348,3.348,0,0,0,2.287.942h.1a2.276,2.276,0,0,0,1.245-.3,2.647,2.647,0,0,0,1.043-.673,2.335,2.335,0,0,0,.673-1.042,2.619,2.619,0,0,0,.3-1.245,3.481,3.481,0,0,0-.941-2.288,3.416,3.416,0,0,0-2.288-.942Z"/><path class="k" d="M129.163,157.858h-.1a2.285,2.285,0,0,0-1.245.3,2.658,2.658,0,0,0-1.043.673,2.338,2.338,0,0,0-.673,1.043,2.631,2.631,0,0,0-.3,1.245,3.474,3.474,0,0,0,.942,2.287,3.348,3.348,0,0,0,2.287.942h.1a2.278,2.278,0,0,0,1.245-.3,2.654,2.654,0,0,0,1.043-.673,2.324,2.324,0,0,0,.672-1.042,2.62,2.62,0,0,0,.3-1.245,3.482,3.482,0,0,0-.942-2.288,3.323,3.323,0,0,0-2.287-.942h-.1a2.285,2.285,0,0,0-1.245.3,2.658,2.658,0,0,0-1.043.673,2.338,2.338,0,0,0-.673,1.043,2.631,2.631,0,0,0-.3,1.245,3.474,3.474,0,0,0,.942,2.287,3.348,3.348,0,0,0,2.287.942h.1a2.278,2.278,0,0,0,1.245-.3,2.654,2.654,0,0,0,1.043-.673,2.324,2.324,0,0,0,.672-1.042,2.62,2.62,0,0,0,.3-1.245,3.482,3.482,0,0,0-.942-2.288,3.323,3.323,0,0,0-2.287-.942Z"/><path class="k" d="M150.961,168.59h-.1a2.283,2.283,0,0,0-1.244.3,2.658,2.658,0,0,0-1.043.673,2.329,2.329,0,0,0-.673,1.043,2.62,2.62,0,0,0-.3,1.245,3.484,3.484,0,0,0,.942,2.287,3.349,3.349,0,0,0,2.288.942h.1a2.275,2.275,0,0,0,1.244-.3,2.647,2.647,0,0,0,1.043-.673,2.326,2.326,0,0,0,.673-1.042,2.62,2.62,0,0,0,.3-1.245,3.489,3.489,0,0,0-.942-2.288,3.264,3.264,0,0,0-2.288-.941h-.1a2.283,2.283,0,0,0-1.244.3,2.658,2.658,0,0,0-1.043.673,2.329,2.329,0,0,0-.673,1.043,2.62,2.62,0,0,0-.3,1.245,3.484,3.484,0,0,0,.942,2.287,3.349,3.349,0,0,0,2.288.942h.1a2.275,2.275,0,0,0,1.244-.3,2.647,2.647,0,0,0,1.043-.673,2.326,2.326,0,0,0,.673-1.042,2.62,2.62,0,0,0,.3-1.245,3.489,3.489,0,0,0-.942-2.288,3.264,3.264,0,0,0-2.288-.941Z"/><path class="k" d="M162.769,183.223h-.1a2.278,2.278,0,0,0-1.245.3,2.663,2.663,0,0,0-1.043.672,2.333,2.333,0,0,0-.672,1.043,2.62,2.62,0,0,0-.3,1.245,3.479,3.479,0,0,0,.942,2.287,3.348,3.348,0,0,0,2.287.942h.1a2.284,2.284,0,0,0,1.245-.3,2.658,2.658,0,0,0,1.043-.673,2.338,2.338,0,0,0,.673-1.043,2.631,2.631,0,0,0,.3-1.245,3.216,3.216,0,0,0-3.229-3.229h-.1a2.278,2.278,0,0,0-1.245.3,2.663,2.663,0,0,0-1.043.672,2.333,2.333,0,0,0-.672,1.043,2.62,2.62,0,0,0-.3,1.245,3.479,3.479,0,0,0,.942,2.287,3.348,3.348,0,0,0,2.287.942h.1a2.284,2.284,0,0,0,1.245-.3,2.658,2.658,0,0,0,1.043-.673,2.338,2.338,0,0,0,.673-1.043,2.631,2.631,0,0,0,.3-1.245,3.216,3.216,0,0,0-3.229-3.229Z"/><path class="k" d="M155.6,143.9h-.1a2.276,2.276,0,0,0-1.245.3,2.656,2.656,0,0,0-1.043.672,2.343,2.343,0,0,0-.673,1.043,2.631,2.631,0,0,0-.3,1.245,3.474,3.474,0,0,0,.942,2.287,3.348,3.348,0,0,0,2.287.942h.1a2.286,2.286,0,0,0,1.245-.3,2.655,2.655,0,0,0,1.042-.673,2.321,2.321,0,0,0,.673-1.043,2.62,2.62,0,0,0,.3-1.245,3.479,3.479,0,0,0-.942-2.287,3.414,3.414,0,0,0-2.287-.942h-.1a2.276,2.276,0,0,0-1.245.3,2.656,2.656,0,0,0-1.043.672,2.343,2.343,0,0,0-.673,1.043,2.631,2.631,0,0,0-.3,1.245,3.474,3.474,0,0,0,.942,2.287,3.348,3.348,0,0,0,2.287.942h.1a2.286,2.286,0,0,0,1.245-.3,2.655,2.655,0,0,0,1.042-.673,2.321,2.321,0,0,0,.673-1.043,2.62,2.62,0,0,0,.3-1.245,3.479,3.479,0,0,0-.942-2.287,3.414,3.414,0,0,0-2.287-.942Z"/><path class="k" d="M167.411,158.565h-.1a2.275,2.275,0,0,0-1.244.3,2.656,2.656,0,0,0-1.043.672,2.335,2.335,0,0,0-.673,1.043,2.62,2.62,0,0,0-.3,1.245,3.484,3.484,0,0,0,.942,2.287,3.349,3.349,0,0,0,2.288.942h.1a2.283,2.283,0,0,0,1.244-.3,2.658,2.658,0,0,0,1.043-.673,2.338,2.338,0,0,0,.673-1.043,2.62,2.62,0,0,0,.3-1.245,3.216,3.216,0,0,0-3.23-3.229h-.1a2.275,2.275,0,0,0-1.244.3,2.656,2.656,0,0,0-1.043.672,2.335,2.335,0,0,0-.673,1.043,2.62,2.62,0,0,0-.3,1.245,3.484,3.484,0,0,0,.942,2.287,3.349,3.349,0,0,0,2.288.942h.1a2.283,2.283,0,0,0,1.244-.3,2.658,2.658,0,0,0,1.043-.673,2.338,2.338,0,0,0,.673-1.043,2.62,2.62,0,0,0,.3-1.245,3.216,3.216,0,0,0-3.23-3.229Z"/><path class="k" d="M136.294,111.368h-.1a2.275,2.275,0,0,0-1.244.3,2.647,2.647,0,0,0-1.043.673,2.326,2.326,0,0,0-.673,1.042,2.62,2.62,0,0,0-.3,1.245,3.487,3.487,0,0,0,.942,2.288,3.349,3.349,0,0,0,2.288.942h.1a2.284,2.284,0,0,0,1.244-.3,2.658,2.658,0,0,0,1.043-.673,2.329,2.329,0,0,0,.673-1.043,2.616,2.616,0,0,0,.3-1.244,3.487,3.487,0,0,0-.942-2.288,3.414,3.414,0,0,0-2.288-.942h-.1a2.275,2.275,0,0,0-1.244.3,2.647,2.647,0,0,0-1.043.673,2.326,2.326,0,0,0-.673,1.042,2.62,2.62,0,0,0-.3,1.245,3.487,3.487,0,0,0,.942,2.288,3.349,3.349,0,0,0,2.288.942h.1a2.284,2.284,0,0,0,1.244-.3,2.658,2.658,0,0,0,1.043-.673,2.329,2.329,0,0,0,.673-1.043,2.616,2.616,0,0,0,.3-1.244,3.487,3.487,0,0,0-.942-2.288,3.414,3.414,0,0,0-2.288-.942Z"/><path class="k" d="M148.1,126.035H148a2.278,2.278,0,0,0-1.245.3,2.654,2.654,0,0,0-1.043.673,2.324,2.324,0,0,0-.672,1.042,2.62,2.62,0,0,0-.3,1.245,3.482,3.482,0,0,0,.942,2.288,3.348,3.348,0,0,0,2.287.942h.1a2.285,2.285,0,0,0,1.245-.3,2.658,2.658,0,0,0,1.043-.673,2.338,2.338,0,0,0,.673-1.043,2.627,2.627,0,0,0,.3-1.244,3.477,3.477,0,0,0-.942-2.288,3.412,3.412,0,0,0-2.287-.942H148a2.278,2.278,0,0,0-1.245.3,2.654,2.654,0,0,0-1.043.673,2.324,2.324,0,0,0-.672,1.042,2.62,2.62,0,0,0-.3,1.245,3.482,3.482,0,0,0,.942,2.288,3.348,3.348,0,0,0,2.287.942h.1a2.285,2.285,0,0,0,1.245-.3,2.658,2.658,0,0,0,1.043-.673,2.338,2.338,0,0,0,.673-1.043,2.627,2.627,0,0,0,.3-1.244,3.477,3.477,0,0,0-.942-2.288,3.412,3.412,0,0,0-2.287-.942Z"/><path class="k" d="M140.937,86.71h-.1a2.276,2.276,0,0,0-1.245.3,2.647,2.647,0,0,0-1.043.673,2.335,2.335,0,0,0-.673,1.042,2.631,2.631,0,0,0-.3,1.245,3.479,3.479,0,0,0,.942,2.288,3.348,3.348,0,0,0,2.287.942h.1a2.287,2.287,0,0,0,1.245-.3,2.655,2.655,0,0,0,1.042-.673,2.321,2.321,0,0,0,.673-1.043,2.62,2.62,0,0,0,.3-1.245,3.479,3.479,0,0,0-.942-2.287,3.414,3.414,0,0,0-2.287-.942h-.1a2.276,2.276,0,0,0-1.245.3,2.647,2.647,0,0,0-1.043.673,2.335,2.335,0,0,0-.673,1.042,2.631,2.631,0,0,0-.3,1.245,3.479,3.479,0,0,0,.942,2.288,3.348,3.348,0,0,0,2.287.942h.1a2.287,2.287,0,0,0,1.245-.3,2.655,2.655,0,0,0,1.042-.673,2.321,2.321,0,0,0,.673-1.043,2.62,2.62,0,0,0,.3-1.245,3.479,3.479,0,0,0-.942-2.287,3.414,3.414,0,0,0-2.287-.942Z"/><path class="k" d="M152.744,101.377h-.1a2.275,2.275,0,0,0-1.244.3,2.647,2.647,0,0,0-1.043.673,2.326,2.326,0,0,0-.673,1.042,2.62,2.62,0,0,0-.3,1.245,3.489,3.489,0,0,0,.942,2.288,3.349,3.349,0,0,0,2.288.942h.1a2.284,2.284,0,0,0,1.244-.3,2.658,2.658,0,0,0,1.043-.673,2.338,2.338,0,0,0,.673-1.043,2.62,2.62,0,0,0,.3-1.245,3.484,3.484,0,0,0-.942-2.287,3.26,3.26,0,0,0-2.288-.942h-.1a2.275,2.275,0,0,0-1.244.3,2.647,2.647,0,0,0-1.043.673,2.326,2.326,0,0,0-.673,1.042,2.62,2.62,0,0,0-.3,1.245,3.489,3.489,0,0,0,.942,2.288,3.349,3.349,0,0,0,2.288.942h.1a2.284,2.284,0,0,0,1.244-.3,2.658,2.658,0,0,0,1.043-.673,2.338,2.338,0,0,0,.673-1.043,2.62,2.62,0,0,0,.3-1.245,3.484,3.484,0,0,0-.942-2.287,3.26,3.26,0,0,0-2.288-.942Z"/><path class="k" d="M172.424,117.827h-.1a2.276,2.276,0,0,0-1.245.3,2.647,2.647,0,0,0-1.043.673,2.335,2.335,0,0,0-.673,1.042,2.619,2.619,0,0,0-.3,1.245,3.483,3.483,0,0,0,.941,2.288,3.356,3.356,0,0,0,2.288.941h.1a2.286,2.286,0,0,0,1.245-.3,2.655,2.655,0,0,0,1.042-.673,2.321,2.321,0,0,0,.673-1.043,2.62,2.62,0,0,0,.3-1.245,3.479,3.479,0,0,0-.942-2.287,3.382,3.382,0,0,0-2.287-.942h-.1a2.276,2.276,0,0,0-1.245.3,2.647,2.647,0,0,0-1.043.673,2.335,2.335,0,0,0-.673,1.042,2.619,2.619,0,0,0-.3,1.245,3.483,3.483,0,0,0,.941,2.288,3.356,3.356,0,0,0,2.288.941h.1a2.286,2.286,0,0,0,1.245-.3,2.655,2.655,0,0,0,1.042-.673,2.321,2.321,0,0,0,.673-1.043,2.62,2.62,0,0,0,.3-1.245,3.479,3.479,0,0,0-.942-2.287,3.382,3.382,0,0,0-2.287-.942Z"/><path class="k" d="M184.2,132.46h-.1a2.285,2.285,0,0,0-1.245.3,2.658,2.658,0,0,0-1.043.673,2.338,2.338,0,0,0-.673,1.043,2.612,2.612,0,0,0-.3,1.244,3.481,3.481,0,0,0,.941,2.288,3.352,3.352,0,0,0,2.288.942h.1a2.28,2.28,0,0,0,1.245-.3,2.655,2.655,0,0,0,1.042-.673,2.321,2.321,0,0,0,.673-1.043,2.613,2.613,0,0,0,.3-1.244,3.482,3.482,0,0,0-.942-2.288,3.414,3.414,0,0,0-2.287-.942h-.1a2.285,2.285,0,0,0-1.245.3,2.658,2.658,0,0,0-1.043.673,2.338,2.338,0,0,0-.673,1.043,2.612,2.612,0,0,0-.3,1.244,3.481,3.481,0,0,0,.941,2.288,3.352,3.352,0,0,0,2.288.942h.1a2.28,2.28,0,0,0,1.245-.3,2.655,2.655,0,0,0,1.042-.673,2.321,2.321,0,0,0,.673-1.043,2.613,2.613,0,0,0,.3-1.244,3.482,3.482,0,0,0-.942-2.288,3.414,3.414,0,0,0-2.287-.942Z"/><path class="k" d="M177.066,93.135h-.1a2.287,2.287,0,0,0-1.245.3,2.665,2.665,0,0,0-1.043.673,2.327,2.327,0,0,0-.672,1.043,2.613,2.613,0,0,0-.3,1.244,3.477,3.477,0,0,0,.942,2.288,3.348,3.348,0,0,0,2.287.942h.1a2.285,2.285,0,0,0,1.245-.3,2.658,2.658,0,0,0,1.043-.673,2.327,2.327,0,0,0,.672-1.043,2.613,2.613,0,0,0,.3-1.244,3.216,3.216,0,0,0-3.229-3.23h-.1a2.287,2.287,0,0,0-1.245.3,2.665,2.665,0,0,0-1.043.673,2.327,2.327,0,0,0-.672,1.043,2.613,2.613,0,0,0-.3,1.244,3.477,3.477,0,0,0,.942,2.288,3.348,3.348,0,0,0,2.287.942h.1a2.285,2.285,0,0,0,1.245-.3,2.658,2.658,0,0,0,1.043-.673,2.327,2.327,0,0,0,.672-1.043,2.613,2.613,0,0,0,.3-1.244,3.216,3.216,0,0,0-3.229-3.23Z"/><path class="k" d="M188.84,107.8h-.1a2.287,2.287,0,0,0-1.245.3,2.665,2.665,0,0,0-1.043.673,2.327,2.327,0,0,0-.672,1.043,2.613,2.613,0,0,0-.3,1.244,3.477,3.477,0,0,0,.942,2.288,3.348,3.348,0,0,0,2.287.942h.1a2.287,2.287,0,0,0,1.245-.3,2.658,2.658,0,0,0,1.043-.673,2.327,2.327,0,0,0,.672-1.043,2.613,2.613,0,0,0,.3-1.244,3.477,3.477,0,0,0-.942-2.288,3.414,3.414,0,0,0-2.287-.942h-.1a2.287,2.287,0,0,0-1.245.3,2.665,2.665,0,0,0-1.043.673,2.327,2.327,0,0,0-.672,1.043,2.613,2.613,0,0,0-.3,1.244,3.477,3.477,0,0,0,.942,2.288,3.348,3.348,0,0,0,2.287.942h.1a2.287,2.287,0,0,0,1.245-.3,2.658,2.658,0,0,0,1.043-.673,2.327,2.327,0,0,0,.672-1.043,2.613,2.613,0,0,0,.3-1.244,3.477,3.477,0,0,0-.942-2.288,3.414,3.414,0,0,0-2.287-.942Z"/><path class="k" d="M198.158,155.335h-.1a2.289,2.289,0,0,0-1.245.3,2.655,2.655,0,0,0-1.042.673,2.321,2.321,0,0,0-.673,1.043,2.62,2.62,0,0,0-.3,1.245,3.479,3.479,0,0,0,.942,2.287,3.348,3.348,0,0,0,2.287.942h.1a2.276,2.276,0,0,0,1.245-.3,2.647,2.647,0,0,0,1.043-.673,2.335,2.335,0,0,0,.673-1.042,2.619,2.619,0,0,0,.3-1.245,3.215,3.215,0,0,0-3.229-3.23h-.1a2.289,2.289,0,0,0-1.245.3,2.655,2.655,0,0,0-1.042.673,2.321,2.321,0,0,0-.673,1.043,2.62,2.62,0,0,0-.3,1.245,3.479,3.479,0,0,0,.942,2.287,3.348,3.348,0,0,0,2.287.942h.1a2.276,2.276,0,0,0,1.245-.3,2.647,2.647,0,0,0,1.043-.673,2.335,2.335,0,0,0,.673-1.042,2.619,2.619,0,0,0,.3-1.245,3.215,3.215,0,0,0-3.229-3.23Z"/><path class="k" d="M209.932,170h-.1a2.287,2.287,0,0,0-1.245.3,2.655,2.655,0,0,0-1.042.673,2.321,2.321,0,0,0-.673,1.043,2.62,2.62,0,0,0-.3,1.245,3.481,3.481,0,0,0,.942,2.287,3.348,3.348,0,0,0,2.287.942h.1a2.276,2.276,0,0,0,1.245-.3,2.647,2.647,0,0,0,1.043-.673,2.335,2.335,0,0,0,.673-1.042,2.619,2.619,0,0,0,.3-1.245,3.481,3.481,0,0,0-.941-2.288,3.416,3.416,0,0,0-2.288-.942h-.1a2.287,2.287,0,0,0-1.245.3,2.655,2.655,0,0,0-1.042.673,2.321,2.321,0,0,0-.673,1.043,2.62,2.62,0,0,0-.3,1.245,3.481,3.481,0,0,0,.942,2.287,3.348,3.348,0,0,0,2.287.942h.1a2.276,2.276,0,0,0,1.245-.3,2.647,2.647,0,0,0,1.043-.673,2.335,2.335,0,0,0,.673-1.042,2.619,2.619,0,0,0,.3-1.245,3.481,3.481,0,0,0-.941-2.288,3.416,3.416,0,0,0-2.288-.942Z"/><path class="k" d="M202.8,130.677h-.1a2.284,2.284,0,0,0-1.244.3,2.658,2.658,0,0,0-1.043.673,2.338,2.338,0,0,0-.673,1.043,2.613,2.613,0,0,0-.3,1.244,3.487,3.487,0,0,0,.942,2.288,3.351,3.351,0,0,0,2.288.942h.1a2.275,2.275,0,0,0,1.244-.3,2.647,2.647,0,0,0,1.043-.673,2.324,2.324,0,0,0,.673-1.043,2.613,2.613,0,0,0,.3-1.244,3.216,3.216,0,0,0-3.23-3.23h-.1a2.284,2.284,0,0,0-1.244.3,2.658,2.658,0,0,0-1.043.673,2.338,2.338,0,0,0-.673,1.043,2.613,2.613,0,0,0-.3,1.244,3.487,3.487,0,0,0,.942,2.288,3.351,3.351,0,0,0,2.288.942h.1a2.275,2.275,0,0,0,1.244-.3,2.647,2.647,0,0,0,1.043-.673,2.324,2.324,0,0,0,.673-1.043,2.613,2.613,0,0,0,.3-1.244,3.216,3.216,0,0,0-3.23-3.23Z"/><path class="k" d="M214.608,145.344h-.1a2.287,2.287,0,0,0-1.245.3,2.655,2.655,0,0,0-1.042.673,2.321,2.321,0,0,0-.673,1.043,2.616,2.616,0,0,0-.3,1.244,3.482,3.482,0,0,0,.942,2.288,3.348,3.348,0,0,0,2.287.942h.1a2.276,2.276,0,0,0,1.245-.3,2.647,2.647,0,0,0,1.043-.673,2.332,2.332,0,0,0,.673-1.043,2.624,2.624,0,0,0,.3-1.244,3.477,3.477,0,0,0-.942-2.288,3.385,3.385,0,0,0-2.287-.942h-.1a2.287,2.287,0,0,0-1.245.3,2.655,2.655,0,0,0-1.042.673,2.321,2.321,0,0,0-.673,1.043,2.616,2.616,0,0,0-.3,1.244,3.482,3.482,0,0,0,.942,2.288,3.348,3.348,0,0,0,2.287.942h.1a2.276,2.276,0,0,0,1.245-.3,2.647,2.647,0,0,0,1.043-.673,2.332,2.332,0,0,0,.673-1.043,2.624,2.624,0,0,0,.3-1.244,3.477,3.477,0,0,0-.942-2.288,3.385,3.385,0,0,0-2.287-.942Z"/><path class="k" d="M232.1,154.259H232a2.276,2.276,0,0,0-1.245.3,2.647,2.647,0,0,0-1.043.673,2.335,2.335,0,0,0-.673,1.042,2.631,2.631,0,0,0-.3,1.245,3.479,3.479,0,0,0,.942,2.288,3.352,3.352,0,0,0,2.287.941h.1a2.286,2.286,0,0,0,1.245-.3,2.665,2.665,0,0,0,1.043-.673,2.327,2.327,0,0,0,.672-1.043,2.62,2.62,0,0,0,.3-1.245,3.474,3.474,0,0,0-.942-2.287,3.414,3.414,0,0,0-2.287-.942H232a2.276,2.276,0,0,0-1.245.3,2.647,2.647,0,0,0-1.043.673,2.335,2.335,0,0,0-.673,1.042,2.631,2.631,0,0,0-.3,1.245,3.479,3.479,0,0,0,.942,2.288,3.352,3.352,0,0,0,2.287.941h.1a2.286,2.286,0,0,0,1.245-.3,2.665,2.665,0,0,0,1.043-.673,2.327,2.327,0,0,0,.672-1.043,2.62,2.62,0,0,0,.3-1.245,3.474,3.474,0,0,0-.942-2.287,3.414,3.414,0,0,0-2.287-.942Z"/><path class="k" d="M243.908,168.926h-.1a2.275,2.275,0,0,0-1.244.3,2.647,2.647,0,0,0-1.043.673,2.326,2.326,0,0,0-.673,1.042,2.62,2.62,0,0,0-.3,1.245,3.489,3.489,0,0,0,.942,2.288,3.352,3.352,0,0,0,2.288.941h.1a2.283,2.283,0,0,0,1.244-.3,2.658,2.658,0,0,0,1.043-.673,2.329,2.329,0,0,0,.673-1.043,2.62,2.62,0,0,0,.3-1.245,3.216,3.216,0,0,0-3.23-3.229h-.1a2.275,2.275,0,0,0-1.244.3,2.647,2.647,0,0,0-1.043.673,2.326,2.326,0,0,0-.673,1.042,2.62,2.62,0,0,0-.3,1.245,3.489,3.489,0,0,0,.942,2.288,3.352,3.352,0,0,0,2.288.941h.1a2.283,2.283,0,0,0,1.244-.3,2.658,2.658,0,0,0,1.043-.673,2.329,2.329,0,0,0,.673-1.043,2.62,2.62,0,0,0,.3-1.245,3.216,3.216,0,0,0-3.23-3.229Z"/><path class="k" d="M236.743,129.6h-.1a2.278,2.278,0,0,0-1.245.3,2.652,2.652,0,0,0-1.042.672,2.326,2.326,0,0,0-.673,1.043,2.62,2.62,0,0,0-.3,1.245,3.484,3.484,0,0,0,.942,2.288,3.352,3.352,0,0,0,2.287.941h.1a2.284,2.284,0,0,0,1.245-.3,2.658,2.658,0,0,0,1.043-.673,2.338,2.338,0,0,0,.673-1.043,2.619,2.619,0,0,0,.3-1.245,3.478,3.478,0,0,0-.941-2.287,3.416,3.416,0,0,0-2.288-.942h-.1a2.278,2.278,0,0,0-1.245.3,2.652,2.652,0,0,0-1.042.672,2.326,2.326,0,0,0-.673,1.043,2.62,2.62,0,0,0-.3,1.245,3.484,3.484,0,0,0,.942,2.288,3.352,3.352,0,0,0,2.287.941h.1a2.284,2.284,0,0,0,1.245-.3,2.658,2.658,0,0,0,1.043-.673,2.338,2.338,0,0,0,.673-1.043,2.619,2.619,0,0,0,.3-1.245,3.478,3.478,0,0,0-.941-2.287,3.416,3.416,0,0,0-2.288-.942Z"/><path class="k" d="M248.551,144.268h-.1a2.276,2.276,0,0,0-1.245.3,2.656,2.656,0,0,0-1.043.672,2.343,2.343,0,0,0-.673,1.043,2.631,2.631,0,0,0-.3,1.245,3.474,3.474,0,0,0,.942,2.287,3.348,3.348,0,0,0,2.287.942h.1a2.286,2.286,0,0,0,1.245-.3,2.655,2.655,0,0,0,1.042-.673,2.321,2.321,0,0,0,.673-1.043,2.62,2.62,0,0,0,.3-1.245,3.479,3.479,0,0,0-.942-2.287,3.414,3.414,0,0,0-2.287-.942h-.1a2.276,2.276,0,0,0-1.245.3,2.656,2.656,0,0,0-1.043.672,2.343,2.343,0,0,0-.673,1.043,2.631,2.631,0,0,0-.3,1.245,3.474,3.474,0,0,0,.942,2.287,3.348,3.348,0,0,0,2.287.942h.1a2.286,2.286,0,0,0,1.245-.3,2.655,2.655,0,0,0,1.042-.673,2.321,2.321,0,0,0,.673-1.043,2.62,2.62,0,0,0,.3-1.245,3.479,3.479,0,0,0-.942-2.287,3.414,3.414,0,0,0-2.287-.942Z"/><path class="k" d="M225.675,180.364h-.1a2.284,2.284,0,0,0-1.245.3,2.658,2.658,0,0,0-1.043.673,2.338,2.338,0,0,0-.673,1.043,2.62,2.62,0,0,0-.3,1.245,3.484,3.484,0,0,0,.942,2.287,3.352,3.352,0,0,0,2.288.942h.1a2.28,2.28,0,0,0,1.245-.3,2.644,2.644,0,0,0,1.042-.673,2.318,2.318,0,0,0,.673-1.042,2.62,2.62,0,0,0,.3-1.245,3.215,3.215,0,0,0-3.23-3.229h-.1a2.284,2.284,0,0,0-1.245.3,2.658,2.658,0,0,0-1.043.673,2.338,2.338,0,0,0-.673,1.043,2.62,2.62,0,0,0-.3,1.245,3.484,3.484,0,0,0,.942,2.287,3.352,3.352,0,0,0,2.288.942h.1a2.28,2.28,0,0,0,1.245-.3,2.644,2.644,0,0,0,1.042-.673,2.318,2.318,0,0,0,.673-1.042,2.62,2.62,0,0,0,.3-1.245,3.215,3.215,0,0,0-3.23-3.229Z"/><path class="k" d="M254.976,117.457h-.1a2.278,2.278,0,0,0-1.245.3,2.663,2.663,0,0,0-1.043.672,2.333,2.333,0,0,0-.672,1.043,2.62,2.62,0,0,0-.3,1.245,3.474,3.474,0,0,0,.942,2.287,3.348,3.348,0,0,0,2.287.942h.1a2.284,2.284,0,0,0,1.245-.3,2.658,2.658,0,0,0,1.043-.673,2.327,2.327,0,0,0,.672-1.043,2.62,2.62,0,0,0,.3-1.245,3.474,3.474,0,0,0-.942-2.287,3.414,3.414,0,0,0-2.287-.942h-.1a2.278,2.278,0,0,0-1.245.3,2.663,2.663,0,0,0-1.043.672,2.333,2.333,0,0,0-.672,1.043,2.62,2.62,0,0,0-.3,1.245,3.474,3.474,0,0,0,.942,2.287,3.348,3.348,0,0,0,2.287.942h.1a2.284,2.284,0,0,0,1.245-.3,2.658,2.658,0,0,0,1.043-.673,2.327,2.327,0,0,0,.672-1.043,2.62,2.62,0,0,0,.3-1.245,3.474,3.474,0,0,0-.942-2.287,3.414,3.414,0,0,0-2.287-.942Z"/><path class="k" d="M117.355,120.686h-.1a2.287,2.287,0,0,0-1.245.3,2.655,2.655,0,0,0-1.042.673,2.321,2.321,0,0,0-.673,1.043,2.613,2.613,0,0,0-.3,1.244,3.482,3.482,0,0,0,.942,2.288,3.348,3.348,0,0,0,2.287.942h.1a2.276,2.276,0,0,0,1.245-.3,2.647,2.647,0,0,0,1.043-.673,2.332,2.332,0,0,0,.673-1.043,2.612,2.612,0,0,0,.3-1.244,3.481,3.481,0,0,0-.941-2.288,3.267,3.267,0,0,0-2.288-.942h-.1a2.287,2.287,0,0,0-1.245.3,2.655,2.655,0,0,0-1.042.673,2.321,2.321,0,0,0-.673,1.043,2.613,2.613,0,0,0-.3,1.244,3.482,3.482,0,0,0,.942,2.288,3.348,3.348,0,0,0,2.287.942h.1a2.276,2.276,0,0,0,1.245-.3,2.647,2.647,0,0,0,1.043-.673,2.332,2.332,0,0,0,.673-1.043,2.612,2.612,0,0,0,.3-1.244,3.481,3.481,0,0,0-.941-2.288,3.267,3.267,0,0,0-2.288-.942Z"/><path class="k" d="M92.7,164.654h-.1a2.286,2.286,0,0,0-1.245.3,2.655,2.655,0,0,0-1.042.673,2.321,2.321,0,0,0-.673,1.043,2.62,2.62,0,0,0-.3,1.245,3.479,3.479,0,0,0,.942,2.287,3.348,3.348,0,0,0,2.287.942h.1a2.276,2.276,0,0,0,1.245-.3,2.656,2.656,0,0,0,1.043-.672,2.343,2.343,0,0,0,.673-1.043,2.619,2.619,0,0,0,.3-1.245,3.478,3.478,0,0,0-.941-2.287,3.323,3.323,0,0,0-2.288-.942h-.1a2.286,2.286,0,0,0-1.245.3,2.655,2.655,0,0,0-1.042.673,2.321,2.321,0,0,0-.673,1.043,2.62,2.62,0,0,0-.3,1.245,3.479,3.479,0,0,0,.942,2.287,3.348,3.348,0,0,0,2.287.942h.1a2.276,2.276,0,0,0,1.245-.3,2.656,2.656,0,0,0,1.043-.672,2.343,2.343,0,0,0,.673-1.043,2.619,2.619,0,0,0,.3-1.245,3.478,3.478,0,0,0-.941-2.287,3.323,3.323,0,0,0-2.288-.942Z"/><path class="k" d="M99.829,139.256h-.1a2.284,2.284,0,0,0-1.245.3,2.658,2.658,0,0,0-1.043.673,2.338,2.338,0,0,0-.673,1.043,2.631,2.631,0,0,0-.3,1.245,3.474,3.474,0,0,0,.942,2.287,3.348,3.348,0,0,0,2.287.942h.1a2.278,2.278,0,0,0,1.245-.3,2.654,2.654,0,0,0,1.043-.673,2.324,2.324,0,0,0,.672-1.042,2.62,2.62,0,0,0,.3-1.245,3.484,3.484,0,0,0-.942-2.288,3.417,3.417,0,0,0-2.287-.941h-.1a2.284,2.284,0,0,0-1.245.3,2.658,2.658,0,0,0-1.043.673,2.338,2.338,0,0,0-.673,1.043,2.631,2.631,0,0,0-.3,1.245,3.474,3.474,0,0,0,.942,2.287,3.348,3.348,0,0,0,2.287.942h.1a2.278,2.278,0,0,0,1.245-.3,2.654,2.654,0,0,0,1.043-.673,2.324,2.324,0,0,0,.672-1.042,2.62,2.62,0,0,0,.3-1.245,3.484,3.484,0,0,0-.942-2.288,3.417,3.417,0,0,0-2.287-.941Z"/></g><path class="d" d="M155.435,67.939l2.019,21.731a5.16,5.16,0,0,1-2.321,5.08c-2.254,1.177-4.138.2-5.484-.976a6.34,6.34,0,0,1-1.984-4.373c-.2-4.137-1.514-22.774-1.716-23.043"/><path class="l" d="M134.343,39.513c-2.254,11.472,1.548,34.683,18.569,36.029,24.692,1.143,16.248-39.46,16.248-39.46"/><ellipse class="g" cx="149.986" cy="51.574" rx="2.187" ry="1.749" transform="translate(85.038 196.271) rotate(-84.803)"/><path class="m" d="M156.546,60.908s3.162.976,2.556-.4a16.737,16.737,0,0,1-1.177-3.97"/><path class="n" d="M150.255,45.367a3.554,3.554,0,0,0-3.465.605"/><path class="m" d="M154.056,67.031a2.976,2.976,0,0,1-3.4-1.615"/><ellipse class="g" cx="162.052" cy="51.561" rx="2.187" ry="1.749" transform="translate(96.024 208.275) rotate(-84.803)"/><path class="n" d="M165.023,46.006a3.653,3.653,0,0,0-3.364-1.178"/><path class="o" d="M150.726,12.736c-3.8,2.187-5.719,5.853-4.878,8.645l-3.9,2.221c-1.951-2.153-6.19-2.221-9.991-.068-4.205,2.389-6.291,6.627-4.676,9.453s6.324,3.2,10.529.774c3.97-2.254,6.055-6.156,4.912-8.982l3.8-2.153c1.85,2.422,6.257,2.59,10.226.336,4.2-2.388,6.325-6.761,4.71-9.587C159.809,10.583,154.931,10.348,150.726,12.736Z"/><path class="b" d="M132.358,39.345c-.37,8.208.707,8.208,6.426,6.8,5.718-1.446,4.306-7.871,4.306-7.871s17.862,8.948,36.1-9.285-1.446-30.04-14.3-20.722c-12.884,9.284-22.5,23.581-22.5,23.581Z"/><path class="p" d="M179.387,109.249c7.3,9.654,20.756,24.658,9.285,44.337-12.01,20.588,1.076,36.836,1.076,36.836"/><path class="q" d="M169.8,202.8c-4.845,2.927-9.218-1.278-4.205-7.434,5.046-6.123,19.477-33.3,24.389-36.163s30.881,5.584,33.707,6.122,2.691,3.028-.3,4.979C220.394,172.29,169.8,202.8,169.8,202.8Z"/><path class="r" d="M194.76,139.827c.942-8.107-11.874-12.413-14.532-2.388-1.917,7.3,5.113,9.655,7.132,10.159s3.532,10.8,3.532,10.8"/><path class="d" d="M161.154,135.32c3.8-4.979,12.817-9.588,16.316-9.285s10.091,2.355,12.244,7.3c2.052,4.676-.3,3.5-1.446,2.927,2.321,1.446,3.5,6.728-.3,4.676,2.624,2.623,1.447,5.853-.874,4.373.571,1.446-.4,4.1-2.624,2.624-2.624-1.75-10.361-.068-13.658-1.514C167.579,144.974,161.154,135.32,161.154,135.32Z"/><path class="d" d="M179.522,130.711c3.2.572,7.6,4.373,8.746,5.551"/><path class="d" d="M180.665,136.262c2.321.572,7.3,4.676,7.3,4.676"/><path class="d" d="M180.093,140.938c2.624.874,6.123,2.926,7,4.373"/><path class="f" d="M98.584,223.624c-.942-7.6-2.859-55.606,16.786-71.148"/><path class="s" d="M95.691,226.282c-.4,12.346-3.6,42.891-5.012,56.111a7.168,7.168,0,0,0,5.483,7.737l19.847,4.676a7.183,7.183,0,0,0,7.2-2.455l24.759-30.444a7.168,7.168,0,0,0,1.481-5.786l-8.478-47.668a7.112,7.112,0,0,0-3.7-5.08l-5.046-2.691a7.143,7.143,0,0,0-7.636.606L98.517,220.765A7.43,7.43,0,0,0,95.691,226.282Z"/><path class="t" d="M84.691,185.006c2.758,4.979,7.5,13.018,9.89,17.123a7.128,7.128,0,0,1,.774,5.416L83.412,253.732a7.2,7.2,0,0,1-4.238,4.844l-27.013,10.9a7.15,7.15,0,0,1-9.386-4.138l-14.734-39.8a7.106,7.106,0,0,1,1.783-7.67L64.776,184.5a7.213,7.213,0,0,1,4-1.917l8.746-1.178A7.152,7.152,0,0,1,84.691,185.006Z"/><path class="h" d="M168.925,188.067c1.682-4.205,7.973-13.12,7.973-13.12,15.373,11.707,25.768-5.214,29.973-15.306,8.544.875,10.933,2.826,10.933,2.826s-14.432,19.141,2.893,28.459c2.893,16.652,4.743,50.09,12.951,56.684-3.095,15.2-42.016,30.343-52.276,28.257-1.581-9.049-4.205-53.285-6.728-58.432C178.748,208.756,180.8,193.113,168.925,188.067Z"/><path class="p" d="M131.114,117.457c-1.985,6.492-6.156,23.817-5.214,29.973"/><path class="p" d="M210.134,151.063c3.936-7.165,9.284-15.743,9.284-15.743"/><g class="u"><path class="t" d="M95.455,224.331l16.753,10.8a4.38,4.38,0,0,0,5.685-.807l22.169-25.634a3.541,3.541,0,0,0-.942-5.416l-7.7-4.306a6.682,6.682,0,0,0-7.368.539L95.321,221.3A1.858,1.858,0,0,0,95.455,224.331Z"/></g><g class="v"><path class="w" d="M61.412,177.168c3.835,9.755,7.872,22.639,9.856,29.132a4.9,4.9,0,0,0,5.484,3.431l22.538-3.6L80.351,171.819Z"/></g><path class="x" d="M71.437,211.817c-3.566,5.349-24.322,46.12-23.246,54.328"/><path class="y" d="M115.4,241.151c1.446,6.425,6.425,47.533,4.642,50.762"/><path class="p" d="M134.343,190.388c3.566-2.153,35.389-20.722,37.542-42.891-6.088-3.229-11.437-13.22-11.437-13.22-7.5,1.783-35.759,9.284-45.044,22.169"/><path class="f" d="M117.893,151.063c-15.373,9.655-6.089,73.638-1.076,86.152"/><path class="e" d="M71.437,208.251c2.153-7.165,31.453-47.9,46.456-55.775"/><path class="e" d="M63.935,187.159c6.8-6.089,32.9-38.619,55.035-36.1"/><path class="f" d="M140.062,210.4c-1.783-13.927-6.8-17.526-6.8-17.526"/></svg>