<svg xmlns="http://www.w3.org/2000/svg" viewBox="0 0 300 300"><defs><style>.a{fill:#2f2ff7;}.b{fill:#003a81;}.c{fill:#ffdb43;}.d{fill:#ffb093;}.e{fill:#f78663;}.f{fill:#ffa42c;}.g{fill:#62f6ff;}</style></defs><title>Succes</title><path class="a" d="M148.378,261.663l7.328-12.186a1.364,1.364,0,0,0-2.354-1.376l-7.328,12.186a1.364,1.364,0,0,0,2.354,1.376Z"/><path class="a" d="M219.16,147.486l-8.608,21.079c-.663,1.623,1.973,2.33,2.628.725l8.608-21.08c.663-1.623-1.973-2.329-2.628-.724Z"/><path class="a" d="M141.025,248.511q5.605-11.293,12.149-22.06a1.364,1.364,0,0,0-2.353-1.376q-6.549,10.775-12.15,22.06c-.778,1.567,1.573,2.949,2.354,1.376Z"/><path class="a" d="M47.983,256.6l11.348-19.456a1.364,1.364,0,0,0-2.354-1.376L45.629,255.226a1.364,1.364,0,0,0,2.354,1.376Z"/><path class="a" d="M66.87,178.1l12.56-24.708c.793-1.56-1.558-2.941-2.354-1.375l-12.56,24.707c-.793,1.56,1.558,2.942,2.354,1.376Z"/><path class="a" d="M70.628,206.613l12.3-25.17c.767-1.571-1.583-2.954-2.354-1.376l-12.3,25.171c-.767,1.57,1.583,2.953,2.354,1.375Z"/><path class="a" d="M219.323,169.589l-8.608,21.08c-.663,1.623,1.973,2.329,2.629.724l8.608-21.079c.663-1.623-1.974-2.33-2.629-.725Z"/><path class="a" d="M141.217,181.6a1.162,1.162,0,0,0-1.167-.446c-6.24.837-9.862,4.369-12.711,9.791a138.353,138.353,0,0,0-6.486,13.229,72.032,72.032,0,0,0-4.176,9.267,1.335,1.335,0,0,0-.037.908,1.457,1.457,0,0,0,1.444,1.228c5.541.07,9.387-5.249,12.452-9.258.771-1.008,1.5-2.04,2.186-3.091a53.24,53.24,0,0,0,4.917-7.609,45.131,45.131,0,0,0,4.884-12.165A1.5,1.5,0,0,0,141.217,181.6Z"/><path class="a" d="M96.41,236.564c-.01.016-.018.032-.027.048a1.49,1.49,0,0,0-.606.371c-10.735,10.559-18.481,24.4-15.056,39.85a1.519,1.519,0,0,0,2.215.9c12.273-7.718,14.276-27.058,16.229-40.008C99.407,236.127,97.352,234.993,96.41,236.564Z"/><path class="b" d="M47.085,86.06a10,10,0,0,1,4.369-2.372,9.7,9.7,0,0,1,3.223-.229q0-.411.007-.823a11.333,11.333,0,0,1-5.582-1.41,9.153,9.153,0,0,1-3.5-3.526,11.61,11.61,0,0,1-1.588-4.594c-.093-.455-.177-.915-.255-1.377-.2.015-.4.031-.606.039-.527,5.786-5.176,11.159-10.874,10.608l-.056.011c-.122.026-.247.04-.37.06.013.225.028.45.042.676a11.593,11.593,0,0,1,8.064,4.09,11.843,11.843,0,0,1,2.814,7.043c.162.013.323.015.484.018a11.47,11.47,0,0,1,1.066-4.492A9.608,9.608,0,0,1,47.085,86.06Z"/><path class="c" d="M285.25,181.988a10.014,10.014,0,0,1,4.369-2.371,9.7,9.7,0,0,1,3.223-.23c0-.273,0-.548.007-.822a11.348,11.348,0,0,1-5.582-1.411,9.157,9.157,0,0,1-3.5-3.525,11.613,11.613,0,0,1-1.587-4.595c-.094-.454-.177-.914-.256-1.377-.2.016-.4.032-.605.039-.528,5.786-5.177,11.159-10.875,10.609-.019,0-.037.008-.055.01-.123.026-.248.04-.371.06l.042.676a11.594,11.594,0,0,1,8.064,4.091,11.849,11.849,0,0,1,2.815,7.043c.161.012.322.014.483.018a11.466,11.466,0,0,1,1.066-4.492A9.6,9.6,0,0,1,285.25,181.988Z"/><circle class="b" cx="226.066" cy="213.066" r="4.655"/><path class="c" d="M45.7,143.318a6.367,6.367,0,0,1,2.782-1.51,6.178,6.178,0,0,1,2.052-.146c0-.174,0-.349,0-.524a7.219,7.219,0,0,1-3.554-.9A5.837,5.837,0,0,1,44.756,138a7.4,7.4,0,0,1-1.01-2.925c-.06-.289-.113-.582-.163-.877-.128.01-.257.02-.385.025-.336,3.683-3.3,7.1-6.923,6.754l-.036.006c-.078.017-.157.026-.236.038l.027.431a7.381,7.381,0,0,1,5.134,2.6,7.551,7.551,0,0,1,1.792,4.484c.1.008.2.009.307.011a7.321,7.321,0,0,1,.679-2.86A6.117,6.117,0,0,1,45.7,143.318Z"/><circle class="b" cx="190.344" cy="218.292" r="2.166"/><circle class="b" cx="214.167" cy="266.991" r="2.166"/><circle class="b" cx="79.91" cy="107.107" r="2.166"/><circle class="b" cx="9.05" cy="121.486" r="4.05"/><circle class="b" cx="79.901" cy="57.327" r="2.166"/><circle class="b" cx="13.566" cy="220.459" r="2.166"/><circle class="b" cx="45.436" cy="174.73" r="2.166"/><circle class="b" cx="264.021" cy="125.322" r="2.166"/><path class="c" d="M258.423,72.192a4.375,4.375,0,0,1,1.908-1.036,4.253,4.253,0,0,1,1.408-.1l0-.359a4.966,4.966,0,0,1-2.438-.616,4.012,4.012,0,0,1-1.528-1.54,5.085,5.085,0,0,1-.693-2.007c-.041-.2-.077-.4-.112-.6-.088.007-.176.014-.264.017-.231,2.528-2.261,4.875-4.75,4.634l-.024,0c-.054.011-.108.017-.162.026l.018.3a5.07,5.07,0,0,1,3.523,1.787,5.18,5.18,0,0,1,1.229,3.077c.071.005.141.006.211.007a5.017,5.017,0,0,1,.466-1.962A4.2,4.2,0,0,1,258.423,72.192Z"/><circle class="b" cx="267.071" cy="247.484" r="2.166"/><circle class="b" cx="246.924" cy="35.47" r="2.166"/><circle class="b" cx="21.769" cy="38.233" r="2.166"/><path class="c" d="M105.224,32.413a4.369,4.369,0,0,1,1.908-1.036,4.253,4.253,0,0,1,1.408-.1l0-.359a4.964,4.964,0,0,1-2.438-.616,4.012,4.012,0,0,1-1.528-1.54,5.064,5.064,0,0,1-.693-2.007q-.061-.3-.112-.6c-.088.007-.176.014-.264.017-.231,2.528-2.262,4.875-4.751,4.634l-.024.005c-.053.011-.108.017-.162.026.006.1.013.2.019.295a5.068,5.068,0,0,1,3.522,1.787,5.175,5.175,0,0,1,1.23,3.077c.07.005.141.006.211.007a5.015,5.015,0,0,1,.465-1.962A4.2,4.2,0,0,1,105.224,32.413Z"/><path class="b" d="M89.625,41.611c-1.41,1.755-2.692,3.53-3.968,5.4-1.175,1.725-2.983,3.712-3.36,5.784-.038.212.187.455.4.308,1.59-1.092,2.5-3.141,3.5-4.752,1.338-2.142,2.578-4.273,3.72-6.515.091-.178-.153-.4-.294-.227Z"/><path class="d" d="M213.756,104.247A44.72,44.72,0,0,1,229.473,94.2a175.091,175.091,0,0,0-8.4-16.163c-3.829-4.965-7.93-9.938-13.22-13.283-1.057-.668-2.038.79-1.279,1.657l1.5,1.714c-1.058-.788-2.128-1.54-3.212-2.23a1.115,1.115,0,0,0-.507-.17c-1.158-.6-2.1.98-1.322,1.929l1.193,1.451a21.262,21.262,0,0,0-2.974-1.667,1.416,1.416,0,0,0-1.429,2.444c.206.131.394.28.594.417a.982.982,0,0,0,.15.233,18.281,18.281,0,0,1,4.839,9.384,18.127,18.127,0,0,0-1.947-3.852,1.4,1.4,0,0,0-2.448.22.91.91,0,0,0-.332.8c.295,3.517-.009,8.18,2.692,10.745,2.361,2.242,4.626,3.731,6.369,6.643S213.7,104.149,213.756,104.247Z"/><path class="d" d="M201.217,31.411a1.382,1.382,0,0,0-.095-.671,1,1,0,0,0-.918-.866,1.811,1.811,0,0,0-.961-.1,1.839,1.839,0,0,0-.815-2.825c-2.862-1.045-5.737-2.052-8.632-3-2.189-.718-4.879-2.01-7.221-1.873a1.7,1.7,0,0,0-1.609,1.225c0,.028-.013.054-.019.081a1.153,1.153,0,0,0-.428.444c-5.422,9.863-11.148,19.53-16.85,29.232,2.155.527,18.918,7.487,20.177,7.949a79.671,79.671,0,0,0,7.8-13.994,31.207,31.207,0,0,1,7.113-5.538,1.76,1.76,0,0,0,.565-.476,1.645,1.645,0,0,0,1.237-1.7,28.783,28.783,0,0,1,.663-7.091A1.723,1.723,0,0,0,201.217,31.411Z"/><path class="e" d="M184.477,29.324c.444-.99.935-1.956,1.425-2.923a11.99,11.99,0,0,0,1.345-2.746.773.773,0,0,0-1.281-.746,8.2,8.2,0,0,0-1.739,2.748,26.794,26.794,0,0,0-1.245,3.036c-.307.863,1.114,1.479,1.5.631Z"/><path class="e" d="M191.261,31.927c1.112-1.884,1.923-3.886,3.147-5.723.559-.839-.812-1.644-1.353-.791a21.8,21.8,0,0,0-2.988,6.01.656.656,0,0,0,1.194.5Z"/><path class="e" d="M194.1,38.5a50.937,50.937,0,0,0,5.892-9.833c.486-1.2-1.385-1.875-2.024-.853-1.983,3.173-3.28,6.74-4.78,10.153a.529.529,0,0,0,.912.533Z"/><path class="e" d="M205.2,70.734c1,.953,2.015,1.887,2.983,2.868a36.581,36.581,0,0,0,2.835,3.019.582.582,0,0,0,.909-.7,15.35,15.35,0,0,0-2.86-3.2,29.262,29.262,0,0,0-3.26-2.771c-.465-.336-1.012.4-.607.786Z"/><path class="e" d="M208.8,69.043c.935,1.031,1.847,2.086,2.694,3.19a10.875,10.875,0,0,0,2.209,2.719.74.74,0,0,0,1.076-.828,8.676,8.676,0,0,0-2.411-2.81q-1.488-1.437-3.062-2.777a.358.358,0,0,0-.506.506Z"/><path class="c" d="M195.258,169.193c-3.225-8.792-12.19-8.366-20.069-8.21l-22.656.448-6.273-.535c.045-.11-17.423-5.4-25.671-9.257-1.218-.432-2.43-.883-3.641-1.343-5.765,13.708-11.1,27.59-15.893,41.669q-3.99,11.715-7.512,23.583c-1.971,6.648-4.81,13.75-5.451,20.676-1.016,10.989,10.943,11.769,16.391,4.324a28.453,28.453,0,0,0,3.592-6.883,85.872,85.872,0,0,0,4.5-8.938q10.3-18.887,20.15-38.009c2.747-.477,5.489-.98,8.231-1.478-4.389,4.528-6.958,11.953-.746,15.684a9.044,9.044,0,0,0,3.416,1.167,1.59,1.59,0,0,0,.958.16c.1-.014.2-.032.306-.046l.125.008a1.312,1.312,0,0,0,.8.137l.409-.051a33.33,33.33,0,0,0,5.9-.39,90.222,90.222,0,0,0,11.215-1.79c2.491-.508,5.012-1.024,7.518-1.609,6.849-1.014,13.993-2.6,19.195-7.343C195.825,185.916,197.941,176.51,195.258,169.193Z"/><path class="f" d="M173.533,179.862c-.672-.636-1.384-1.223-2.111-1.792l1.095-1.3a5.141,5.141,0,0,0,1.331-1.87.656.656,0,0,0-.951-.731c-.659.33-1.072,1.153-1.5,1.736q-.612.829-1.222,1.66a1.02,1.02,0,0,0-.331.2,253.59,253.59,0,0,0-25.648,6.3.512.512,0,0,0,.271.986c8.5-1.632,16.912-3.773,25.335-5.757a28.725,28.725,0,0,1,2.267,2.032c.674.677,1.285,1.737,2.234,2,.506.14,1.219-.274,1.143-.871C175.3,181.352,174.311,180.6,173.533,179.862Z"/><path class="f" d="M140.336,159.7c-1.055,3.906-2.1,7.812-3.091,11.732a7.1,7.1,0,0,1-2.643-.576c-1.157-.946-.208-2.792.081-3.978a75.659,75.659,0,0,1,2.438-8.014c.39-1.07-1.255-1.465-1.676-.462a71.918,71.918,0,0,0-2.531,6.9c-.516,1.694-1.419,3.833-1.351,5.6.09,2.365,3.525,2.646,5.634,2.657a.815.815,0,0,0,1.244-.227.967.967,0,0,0,.291-.981c1.07-4.072,2.082-8.155,3.083-12.244A.768.768,0,0,0,140.336,159.7Z"/><path class="f" d="M112.782,164.383c5.614-1.342,10.886-3.884,14.026-8.928.5-.8-.772-1.544-1.265-.74-2.877,4.693-7.925,7.13-13.06,8.584a.563.563,0,0,0,.3,1.084Z"/><path class="g" d="M243.041,120.028a8.268,8.268,0,0,0,.133-1.817.827.827,0,0,0-.176-.474c.06-1.819-1.2-3.7-2.116-5.22-1.081-1.793-2.115-4.255-3.585-6-.9-1.688-1.8-3.371-2.663-5.057-.764-1.485-2.981-.177-2.236,1.308,1.593,3.174,3.154,6.367,4.783,9.523.914,1.771,2.08,3.49,2.881,5.3a26.263,26.263,0,0,1-.992,4.945c-5.217,6.676-16.325,10.773-23.189,13.555-8.408,3.406-17.094,5.956-25.723,8.721a.7.7,0,0,0-.372,1.057q-4.239,7.359-8.415,14.751a.75.75,0,0,0,1.294.756q4.559-7.491,9.015-15.043a.867.867,0,0,0,.119-.5c10.861-2.756,21.741-5.894,31.932-10.6,5.57-2.569,16.338-6.914,18.891-13.708A2.993,2.993,0,0,0,243.041,120.028Z"/><path class="g" d="M233.847,102.02l-.049-.238a.292.292,0,0,0-.559,0l-.049.238a.337.337,0,1,0,.657,0Z"/><path class="d" d="M192.51,71.559a1.5,1.5,0,0,0-.2-.233c-3.931,2.13-8.034,3.926-12,6-3.781,1.983-7.814,3.69-11.285,6.2-1.488,1.863-2.485,4.121-1.181,6.126a4.033,4.033,0,0,0,4.8,1.592c-.34.484-.669.962-.976,1.407a44.11,44.11,0,0,0-4.673,9.006c-.211.539.2,2.7.735,1.576a50.867,50.867,0,0,1,4.98-8.339c.779-1.06,1.647-2.052,2.515-3.044,3.691,6.608,9.541,10,17.978,5.227.148-.083.294-.17.441-.256-1.541,2.429-3.021,4.9-4.393,7.426-2.084,3.845-4.761,8.049-5.459,12.4-.074.462.536,1.014.911.53,2.709-3.5,4.184-8.03,6.238-11.945q2.975-5.667,6.313-11.111a8.071,8.071,0,0,0,2.59-6.079C199.694,82.484,195.341,76.044,192.51,71.559Z"/><path class="g" d="M211.9,107.625a71.481,71.481,0,0,1,10.875-8.231c3.531-2.165,7.4-3.651,10.946-5.731a.394.394,0,0,0-.3-.716c-8.441,1.693-16.443,7.847-22.555,13.641C210.175,107.24,211.2,108.259,211.9,107.625Z"/><path class="g" d="M234.277,95.59c-4.313.358-8.461,3.31-12.071,5.544-3.462,2.143-8.326,4.492-10.465,8.04a.259.259,0,0,0,.289.376,10.3,10.3,0,0,0,1.681-.515,1.016,1.016,0,0,0,.039.78c.207.454.4.913.564,1.382a7.036,7.036,0,0,0,.36.941c-9.239,1.23-18.368,3.8-27.617,5.3a.95.95,0,0,0-.294-.685A204.977,204.977,0,0,1,169.32,97.328a1.009,1.009,0,0,0-.354-.293.95.95,0,0,0-1.518.287q-3.129,6.359-5.944,12.86a1.089,1.089,0,0,0-.034.781,1.007,1.007,0,0,0,1.292,1.18,41.878,41.878,0,0,1,10.834-2.11q.405,6.657.811,13.315a1.056,1.056,0,0,0,.061.969,1.107,1.107,0,0,0,1.947.616c.015-.011.03-.018.045-.031l.653-.554a.98.98,0,0,0,.437-.164c2.4-1.6,4.865-3.086,7.383-4.487,10.156-.862,21.57-1.79,31.045-5.7a1,1,0,0,0,.3-.2c.9.577,1.805,1.136,2.739,1.651.891.491,2.043,1.441,3.084,1.059a.585.585,0,0,0,.4-.712c-.427-1.078-1.678-1.285-2.66-1.763-1.129-.549-2.229-1.152-3.311-1.789a.728.728,0,0,0,.032-.086c.217-1.083-.619-2.4-1.108-3.348a.9.9,0,0,0-.387-.392c2.874-1.477,5.621-3.9,8.2-5.465,3.677-2.233,8.123-3.638,11.451-6.291A.637.637,0,0,0,234.277,95.59Z"/><path class="g" d="M183.885,60.793c-2.908-2.875-7.4-4.248-11.176-5.722a87.306,87.306,0,0,0-8.816-3.3,33.4,33.4,0,0,0-4.643-1.325c-.226-.108-.453-.216-.68-.326a.886.886,0,0,0-1.223,1.076.719.719,0,0,0,.586.654c.195.045.4.1.595.146a18.9,18.9,0,0,0,3.885,1.447c2.9,1.253,6.139,2.047,8.965,3.16,4,1.574,8.089,4.044,12.387,4.481C183.916,61.1,183.983,60.89,183.885,60.793Z"/><path class="g" d="M157.375,53c-1.138-.364-1.591,1.379-.489,1.774,8.864,3.18,17.358,7.4,26.284,10.374.1.033.137-.1.066-.156C175.643,59.273,166.359,55.864,157.375,53Z"/><path class="g" d="M157.412,56.528c-15.463,29.989-31.306,60.583-42.9,92.322a.989.989,0,0,0,1.036,1.251A62.586,62.586,0,0,0,123,153.18c9.4,4.474,20.2,8.692,29.877,8.558a.138.138,0,0,0,.069-.254c-5.161-3.2-11.219-4.681-16.9-6.7-6.3-2.235-12.495-4.754-18.763-7.078C131.968,118.037,145,87.6,160.149,58.127,161.079,56.317,158.348,54.712,157.412,56.528Z"/><path class="b" d="M192.779,80.5c.671-1.131,1.245-2.292,1.8-3.484a9.706,9.706,0,0,0,1.214-3.211.8.8,0,0,0-1.344-.557,11.282,11.282,0,0,0-1.592,3.028c-.526,1.121-1.06,2.228-1.545,3.368-.416.975.891,1.824,1.465.856Z"/><path class="b" d="M176.986,85.63c2.153-.017,5.111.04,7.06-.982.669-.35.289-1.258-.356-1.314a17.708,17.708,0,0,0-3.335.367c-1.121.12-2.243.217-3.369.273a.829.829,0,0,0,0,1.656Z"/><path class="b" d="M194.375,80.794a1.185,1.185,0,0,0,.833.623.793.793,0,0,0,.984-.749,1.193,1.193,0,0,0-.388-.976c-.664-.781-2.014.249-1.429,1.1Z"/><path class="b" d="M182.827,87.319a1.187,1.187,0,0,0,.833.623.793.793,0,0,0,.984-.749,1.19,1.19,0,0,0-.388-.976c-.664-.781-2.013.249-1.429,1.1Z"/><path class="e" d="M183.905,91.356a6.669,6.669,0,0,0,7.567.994c.813-.425.1-1.56-.705-1.206a5.837,5.837,0,0,1-5.97-.68c-.622-.484-1.512.34-.892.892Z"/><path class="e" d="M192.694,83.707a21.256,21.256,0,0,0-1.817-3.189,1.072,1.072,0,0,0-1.446-.312,1.329,1.329,0,0,0-.181.033c-1.676.47-4.537,1.38-3.952,3.237.535,1.7,1.689,3.95,3.625,4.779,1.688.722,4.132.217,4.547-1.518A4.976,4.976,0,0,0,192.694,83.707Z"/><path class="b" d="M21.02,208.719a43.79,43.79,0,0,1-2.932,4.513,23.471,23.471,0,0,0-2.721,4.038.382.382,0,0,0,.556.427c2.786-1.925,3.94-5.954,5.221-8.906.036-.082-.081-.156-.124-.072Z"/><path class="b" d="M236.975,189.455c-3.371,5.042-6.813,10.309-8.935,16.022-.491,1.321,1.736,2.28,2.3.969,2.4-5.588,4.3-11.3,7.043-16.753a.235.235,0,0,0-.406-.238Z"/><path class="b" d="M273.423,233.613c-1.619,2.818-3.1,5.831-4.953,8.5-.7,1.011,1.212,1.985,1.625.685.977-3.07,2.461-6.052,3.7-9.025.09-.217-.261-.354-.374-.158Z"/><path class="c" d="M51.355,132.432c2.934-5.414,6.747-10.313,9.534-15.786a.845.845,0,0,0-1.322-1.019c-4.518,4.282-7.484,10.1-10.288,15.591-.7,1.372,1.334,2.582,2.076,1.214Z"/><path class="c" d="M288.466,173.292c2.611-6.176,5.941-12.915,6.532-19.671a.485.485,0,0,0-.82-.34c-4.3,4.973-6.817,11.908-9.345,17.887-1.042,2.465,2.581,4.612,3.633,2.124Z"/><path class="c" d="M178.735,263.584a6.415,6.415,0,0,1,2.8-1.509,6.224,6.224,0,0,1,2.064-.147c0-.174,0-.349,0-.524a7.29,7.29,0,0,1-3.574-.9,5.847,5.847,0,0,1-2.239-2.244,7.359,7.359,0,0,1-1.016-2.925c-.06-.289-.113-.582-.164-.877-.129.01-.258.02-.387.025-.339,3.684-3.316,7.105-6.964,6.755l-.036.007c-.078.016-.158.025-.237.038l.027.43a7.441,7.441,0,0,1,5.163,2.6,7.523,7.523,0,0,1,1.8,4.484c.1.008.206.009.309.011a7.269,7.269,0,0,1,.683-2.859A6.115,6.115,0,0,1,178.735,263.584Z"/><path class="c" d="M181.777,254.416c2.283-4.612,5.738-9.649,6.488-14.77.056-.383-.383-.742-.7-.409-3.579,3.71-5.422,9.476-7.654,14.087-.6,1.246,1.249,2.344,1.869,1.092Z"/><path class="b" d="M192.18,70.75a.938.938,0,0,0-.5-.666,1.117,1.117,0,0,0-.4-.288c-8.548-3.544-17.74-3.133-26.533-.7-3.995,1.107-9.4,2.491-13.977,4.725a27.618,27.618,0,0,0-3.723,1.859,20.612,20.612,0,0,0-1.84,1.193c-1.015.694-2.428,1.942-2.208,3.106a.893.893,0,0,0,.441,1.1,1.757,1.757,0,0,0,.794.376,3.371,3.371,0,0,0,1.962-.178,32.288,32.288,0,0,0,6.472-1.774l3.66-1.148a26.992,26.992,0,0,0-7.981,5.573,1.092,1.092,0,0,0,0,1.511c1.775,1.807,4.8.211,6.738-.6a41.736,41.736,0,0,0,5.292-2.751c-.365.361-.724.732-1.072,1.129a1.084,1.084,0,0,0,.216,1.678c2.081,1.247,4.059.352,6.136-.528Q171.241,82,176.678,79.3c.039-.019.057-.05.092-.072l12.75-5.381a1.061,1.061,0,0,0,.3-.187C191.15,73.131,192.523,72.227,192.18,70.75Z"/><path class="a" d="M176.343,105.086a.827.827,0,0,0-.106-.038c-5.695-.806-11.478,1.182-17.317.71-6.426-.521-12.75-1.963-19.209-2.149a55.791,55.791,0,0,0-30,7.965,38.281,38.281,0,0,1-6.155,10.508,20.738,20.738,0,0,1,11.95,1.062c.194.078.382.165.566.258,10.662-7.33,23.425-7.487,36.188-4.529,10.141,2.35,23.631-.032,25.372-12.451A1.2,1.2,0,0,0,176.343,105.086Z"/></svg>