<svg xmlns="http://www.w3.org/2000/svg" viewBox="0 0 300 300"><defs><style>.a{fill:#fedffd;}.b{fill:#ff4900;}.c{fill:#2c2b47;}.d{fill:#fff;}.e{fill:#db199b;}.f{fill:#ffc200;}</style></defs><title>Success</title><path class="a" d="M49.439,57.493c0-.012-.015-.009-.018-.02a.422.422,0,0,0-.661.075c-.012,0-.009.015-.02.018a.316.316,0,0,0-.092.123l-.055-.023a.378.378,0,0,0-.082-.5,39.229,39.229,0,0,0-5.046-3.686,11.462,11.462,0,0,0-4.888-2.005,5.745,5.745,0,0,0-4.306,1.989,29.183,29.183,0,0,0-4.066,4.59,2.168,2.168,0,0,0-.531,1.65c.175.945,1.242,1.048,1.1,2.139-.17,1.283-.4,2.2.516,3.319,2.293,2.826,7.439,2.571,10.648,2.246a29.015,29.015,0,0,0,3.042-.394c.881-.182,1.019-.5,1.36-1.324,1.039-2.541,2.093-5.072,3.132-7.613A.446.446,0,0,0,49.439,57.493Z"/><path class="b" d="M291.831,259.027q-12.009-13.422-23.408-27.391a.229.229,0,0,0-.311,0q-7.514,6.59-15.465,12.648a.248.248,0,0,0-.234.334c1.894,4.5,3.772,9,5.666,13.5.476,1.15.964,2.3,1.441,3.447.536,1.283,1.259,2.615.981,4.051a14.71,14.71,0,0,1-1.41,3.3c-.529,1.093-1.055,2.2-1.581,3.3q-6.042,12.74-11.242,25.85c-.09.222.217.352.366.214q14.537-12.861,29.087-25.713a.217.217,0,0,0,.055-.213q-3.24-9.122-7.019-18.027,5.2,8.53,10.4,17.075a.226.226,0,0,0,.346.045q6.149-6.062,12.312-12.113A.206.206,0,0,0,291.831,259.027Z"/><path class="a" d="M269.7,231.225q-5.9-10.464-12.408-20.569c-3.725-5.768-7.326-11.63-11.368-17.19-2.951-4.052-6.235-7.818-9.361-11.737-3-3.755-5.949-7.534-8.966-11.272-3.361-4.154-7.018-8.02-10.641-11.944q-6.575-7.11-13.14-14.234-11.228-12.142-22.663-24.095c-2.028-2.1-4.053-4.194-6.093-6.3q-1.581-1.626-3.185-3.247c-.544-.562-1.092-1.136-1.656-1.681a5.773,5.773,0,0,0-2.01-1.092,128.3,128.3,0,0,0-20.254-6.55,166.764,166.764,0,0,0-21.826-3.4l-24-2.4c-7.812-.789-15.676-1.775-23.53-1.079a64.532,64.532,0,0,0-10.923,1.926c-3.112.833-6.563,1.743-9.116,3.8-4.226,3.418-4.937,9.364-4.358,14.425.833,7.249,3.861,14.364,7.612,20.558,7.151,11.812,18.775,19.262,30.611,25.777,12.371,6.807,24.711,14.106,38.192,18.5,2.033.665,4.088,1.226,6.143,1.786a.449.449,0,0,0,.429-.113q7.364-8.5,14.953-16.8c5.873,5.226,11.827,10.381,17.652,15.657,5.957,5.4,11.6,11.133,17.464,16.635a357.475,357.475,0,0,0,38.856,31.591c8.239,5.792,15.767,12.5,24.015,18.277a.447.447,0,0,0,.539-.068q9.474-7.327,18.963-14.646A.416.416,0,0,0,269.7,231.225Z"/><path class="b" d="M177.579,173.984q-11.9-5.909-24.169-11.065a.222.222,0,0,0-.22.058q-5.868,6.842-12.249,13.2a.2.2,0,0,0-.01.287.235.235,0,0,0-.037.332c1.466,1.756,2.929,3.5,4.395,5.256,1.431,1.716,3.254,3.415,3.8,5.636a45.017,45.017,0,0,1,.676,7.166c.173,2.208.347,4.417.5,6.616q.987,13.4,1.714,26.794c.017.206,9.154-18.55,12.988-28.106.487-1.206.962-2.409,1.435-3.623a8.772,8.772,0,0,0,.934-3.033,4.829,4.829,0,0,0-1.006-2.546c-.7-1.1-1.43-2.186-2.165-3.281q-3.873-5.74-8.2-11.139a67.293,67.293,0,0,1,14.075,13.975.226.226,0,0,0,.406-.058q3.249-8.25,7.185-16.2A.168.168,0,0,0,177.579,173.984Z"/><path class="c" d="M95.758,118c8.976,2.526,16.513,8.613,23.634,14.39,7.517,6.1,14.628,12.689,21.517,19.468,3.983,3.928,7.906,7.91,11.832,11.9.795.806,2.04-.439,1.245-1.245-13.735-14-27.7-28.326-43.973-39.443a47.288,47.288,0,0,0-13.785-6.769.88.88,0,0,0-.47,1.7Z"/><path class="d" d="M115.137,107.705c-3.1-.123-5.626-2.034-7.973-3.892a.329.329,0,0,0-.144-.073.427.427,0,0,0-.5-.264,3.325,3.325,0,0,0-2.2,5.088,3.094,3.094,0,0,0,.43,5.014,2.894,2.894,0,0,0,1.688,4.1c-1.028,4.556,8.517,4.12,10.952,3.961a.452.452,0,0,0,.437-.549q-1.267-6.5-2.264-13.05A.46.46,0,0,0,115.137,107.705Z"/><path class="c" d="M158.734,130.876a10.076,10.076,0,0,0,5.187-5.269c1.165-2.722.768-5.4.02-8.191a.88.88,0,0,0-1.7.448c.662,2.464,1.09,4.84-.009,7.248a8.488,8.488,0,0,1-4.378,4.25c-1.034.446-.137,1.968.882,1.514Z"/><path class="e" d="M180.09,92.984C176.7,87.5,170.919,83.9,164.939,81.46c-6.42-2.6-13.225-4.08-20-5.527-28.95-6.226-56.749-13.164-86-17.775L47.788,55.835a63.145,63.145,0,0,0-4.982,13.376l10.618,4.9C72.965,82.8,91.086,94.924,110.953,101.7a48.285,48.285,0,0,1,7.178,3.174c1.984,1.136,3.381-.235,3.564,2.057a21.479,21.479,0,0,0-5.277,2.58l2,12.575a100,100,0,0,0,51.643-4.934c3.628-1.365,7.321-3.044,9.787-6.047C183.926,106.128,183.491,98.465,180.09,92.984Z"/><path class="f" d="M157.205,72.465A5.687,5.687,0,0,0,152.3,70.9a10.244,10.244,0,0,0-4.735,2.524c-.149-.568-.307-1.121-.468-1.685a.442.442,0,0,0-.542-.315,375.492,375.492,0,0,1-39.144,9.923.419.419,0,0,0-.316.306,5.093,5.093,0,0,0,.56,2.639c-.309-.092-.631-.23-.829-.277a8.166,8.166,0,0,0-1.129-.148,5.156,5.156,0,0,0-2.663.467,5.255,5.255,0,0,0-2.586,3.394c-.953,3.57.807,7.9,2.569,10.964a19.7,19.7,0,0,0,7.624,7.638c3.082,1.639,7.434,2.783,10.211.119a22.688,22.688,0,0,0,14.309,5,12.84,12.84,0,0,1,.219,6.939c-.561,2.192-1.631,4.195-1.962,6.462-.6,4.034.53,8.071,1.793,11.875-2.237.862-4.46,1.733-6.673,2.639a.457.457,0,0,0-.315.541,67.8,67.8,0,0,0,3.318,9.441.435.435,0,0,0,.488.206q9.583-2.546,18.987-5.724c5.626-1.916,11.744-3.653,16.569-7.241a.468.468,0,0,0,.164-.6q-2.042-4.571-4.094-9.138a.435.435,0,0,0-.487-.206q-2.85,1.03-5.7,2.037a18.936,18.936,0,0,0-6.3-9.1c-1.637-1.278-3.5-2.148-5.244-3.262a12.021,12.021,0,0,1-4.64-5.811c4.4-1.433,7.8-4.236,8.833-8.868,5.955.09,10.822-5.268,12.047-10.768C163.507,84.81,161.835,76.78,157.205,72.465ZM111.1,99.754a9.635,9.635,0,0,1-3.535-4.294,8.031,8.031,0,0,1-.414-1.241c-.221-.932-.283-1.027.469-1.746.732-.7.869-.65,1.749-.411a7.483,7.483,0,0,1,1.382.4c.632.329.881,1.229,1.217,1.847.441.825.893,1.647,1.365,2.451q1.328,2.287,2.846,4.451A9.847,9.847,0,0,1,111.1,99.754Zm42.936-16.446c.9,4.133,1.124,9.524-3.477,11.332a87.491,87.491,0,0,0-.678-9.618c-.158-1.209-1.081-3.864-.186-4.744a2.322,2.322,0,0,1,3.476.595A7.176,7.176,0,0,1,154.033,83.308Z"/><path class="e" d="M181.687,95.708c-2.577-6.627-8.708-10.014-14.853-12.84a.456.456,0,0,0-.65.258c-.507,2.165-1.1,4.3-1.8,6.408-.413,1.248-.657,2.2-2.082,2.53-.724.166-1.447.382-2.162.583-3.334.928-6.63,1.958-9.916,3.022-7.723,2.507-15.4,5.2-23.067,7.865-4.037,1.411-8.085,2.825-12.134,4.19a.438.438,0,0,0-.3.326.5.5,0,0,0-.018.216c.679,4.688,2.157,9.215,2.836,13.9a.441.441,0,0,0,.306.315c7.176,1.291,14.461,2.616,21.777,2.136a87,87,0,0,0,10.645-1.667c3.958-.771,7.918-1.58,11.815-2.632,6.249-1.71,13.848-3.936,17.994-9.3C183.431,106.692,183.616,100.674,181.687,95.708Z"/><path class="c" d="M176.757,3.678c-3.606.369-5.7,3.434-7.827,5.965a8.131,8.131,0,0,1-4.912,2.979c-1.97.371-4.017.266-5.962.779-3.112.833-5.23,3.274-6.744,5.989-1.692,3.022-2.651,6.433-4.677,9.271a9.8,9.8,0,0,1-4.687,3.687,54.856,54.856,0,0,1-5.981,1.317c-3.322.789-6.766,2.242-8.741,5.178-2.161,3.22-1.724,7.365-3.523,10.737-1.858,3.475-5.949,5.148-7.532,8.822-1.092,2.53-.422,5.87,2.414,6.856a.4.4,0,0,0,.536-.364l1.042.147a.393.393,0,0,0,.124.376,5.875,5.875,0,0,0,7.1.246c3.224-2.051,4.549-5.856,7.194-8.461,3.018-2.975,7.108-2.493,10.946-3.294A9.907,9.907,0,0,0,152.22,49c1.573-2.582,2.673-5.831,5.4-7.478,3.055-1.846,7.1-1.079,9.883-3.522,2.384-2.09,2.873-5.452,4.876-7.813s5.513-2.766,7.4-5.27c1.871-2.488.757-5.538.733-8.355-.025-3.1,2.47-5.8,2.021-8.917C182.123,4.914,179.339,3.419,176.757,3.678Z"/><path class="a" d="M120.957,61.475c-2.949-1.179-2.723,3.343-1.922,4.878a2.267,2.267,0,0,0,.29.444,2.936,2.936,0,0,0,.46.758,1.682,1.682,0,0,0,2.622.126,2.909,2.909,0,0,0,.466-.816,2.341,2.341,0,0,0,.251-1.49l0-.012C123.106,63.757,122.3,62.013,120.957,61.475Z"/><path class="d" d="M112.776,90.717A68.889,68.889,0,0,0,120,103.539c.651.918,2.191.041,1.525-.885A68.116,68.116,0,0,1,114.3,89.832c-.449-1.046-1.972-.149-1.526.885Z"/><path class="d" d="M109.776,83.47a11.813,11.813,0,0,0,1.278,2.735c.611.953,2.136.068,1.526-.886a9.806,9.806,0,0,1-1.1-2.3c-.348-1.084-2.05-.636-1.7.449Z"/><path class="f" d="M67.26,31.939l-2.565,1.122a11.138,11.138,0,0,1-1.288.562,1.449,1.449,0,0,1-1.586-.238,25.32,25.32,0,0,1-3.51-3.5c-.307-.365-.807.04-.741.431.321,1.922.546,3.856.844,5.784a23.7,23.7,0,0,0-5.2,2.361.446.446,0,0,0,.217.822c1.737.2,3.462.4,5.2.6a22.355,22.355,0,0,0,1.146,6.225c.124.376.767.466.857.009.4-2.186.795-4.358,1.2-6.545a33.069,33.069,0,0,0,5.454,2.835c.347.144.713-.349.5-.651-1.207-1.713-2.411-3.414-3.618-5.127a20.808,20.808,0,0,0,3.68-4.079C68.143,32.14,67.627,31.78,67.26,31.939Z"/><path class="f" d="M44.014,85.959l-2.565,1.122a11.152,11.152,0,0,1-1.289.562,1.449,1.449,0,0,1-1.586-.238,25.486,25.486,0,0,1-3.51-3.5c-.306-.365-.807.039-.741.431.321,1.921.546,3.856.844,5.784a23.646,23.646,0,0,0-5.2,2.361.446.446,0,0,0,.217.822c1.736.2,3.461.4,5.2.6a22.276,22.276,0,0,0,1.146,6.224c.123.376.767.467.857.01.4-2.187.8-4.359,1.2-6.545a33.176,33.176,0,0,0,5.453,2.835c.348.143.713-.349.5-.652-1.207-1.712-2.411-3.414-3.618-5.127A20.868,20.868,0,0,0,44.6,86.573C44.885,86.162,44.369,85.8,44.014,85.959Z"/><path class="f" d="M20.5,29.046c-.644.281-1.828,1.051-2.413.76a8.241,8.241,0,0,1-1.736-1.747c-.318-.362-.795.036-.741.43.145.879.255,1.766.389,2.648a13.341,13.341,0,0,0-2.44,1.126.444.444,0,0,0,.216.822c.791.089,1.571.18,2.362.269a11.764,11.764,0,0,0,.564,2.935c.124.376.767.467.857.01.176-.976.364-1.954.54-2.93a17.736,17.736,0,0,0,2.474,1.256c.347.143.713-.349.5-.652-.557-.794-1.124-1.586-1.681-2.38a11.648,11.648,0,0,0,1.718-1.939C21.4,29.243,20.857,28.89,20.5,29.046Z"/><path class="f" d="M90.9,48.731c-.645.281-1.829,1.051-2.413.76a8.2,8.2,0,0,1-1.736-1.747c-.319-.362-.8.036-.741.43.144.879.255,1.766.388,2.647a13.475,13.475,0,0,0-2.44,1.127.444.444,0,0,0,.217.822c.791.089,1.57.18,2.362.269a11.763,11.763,0,0,0,.563,2.935c.124.376.767.467.857.009.176-.975.364-1.953.54-2.929a17.792,17.792,0,0,0,2.474,1.256c.347.143.713-.349.5-.652-.556-.794-1.124-1.586-1.68-2.38A11.694,11.694,0,0,0,91.5,49.339C91.793,48.94,91.251,48.575,90.9,48.731Z"/><path class="f" d="M17.385,61.522c-.645.281-1.828,1.052-2.413.76a8.172,8.172,0,0,1-1.736-1.747c-.319-.362-.8.037-.741.431.145.878.255,1.766.388,2.647a13.538,13.538,0,0,0-2.44,1.126.445.445,0,0,0,.217.823c.791.088,1.571.18,2.362.268a11.824,11.824,0,0,0,.563,2.936c.124.376.767.466.857.009.176-.975.364-1.954.541-2.929A17.774,17.774,0,0,0,17.456,67.1c.348.144.713-.349.5-.651-.556-.8-1.124-1.586-1.68-2.381a11.653,11.653,0,0,0,1.718-1.939C18.279,61.72,17.74,61.367,17.385,61.522Z"/><path class="e" d="M31.364,61.887c2.3.136,4.7.483,7,.421,1.6-.049,2.18-1.454,2.913-2.762.519-.942.533-1.874-.617-2.339-1.606-.641-2.857.815-4.357.48-.553-.126-.786.728-.233.854a2.707,2.707,0,0,0,1.813.018c.674-.215,2.681-1.624,2.633.544a5.985,5.985,0,0,1-1.077,1.7c-.925,1-2.706.54-3.976.466-1.36-.087-2.718-.163-4.078-.25-.57-.048-.585.835-.018.872Z"/></svg>