<svg xmlns="http://www.w3.org/2000/svg" xmlns:xlink="http://www.w3.org/1999/xlink" viewBox="0 0 300 300"><defs><style>.a,.k,.l,.n,.o{fill:none;}.b{fill:#a4d2fc;}.c{fill:#465cff;}.d,.i{fill:#ffc3a9;}.d,.i,.k{stroke:#e89589;}.d,.k,.l,.n,.o{stroke-linecap:round;stroke-linejoin:round;}.d,.i,.k,.o{stroke-width:1.222px;}.e{fill:#ff5c76;}.f{fill:#f9c126;}.g{clip-path:url(#a);}.h{fill:#ffeb7d;}.i{stroke-miterlimit:10;}.j{fill:#621cd1;}.l{stroke:#ff5c76;stroke-width:1.528px;}.m{fill:#fff;}.n{stroke:#a4d2fc;stroke-width:1.833px;}.o{stroke:#621cd1;}</style><clipPath id="a"><path class="a" d="M150.414,173.711a1.232,1.232,0,0,1-1.069-1.65c8.525-23.377,20.84-43.269,47.027-40.183,26.341,3.117,42.078,5.011,50.42,49.014a1.211,1.211,0,0,1-1.589,1.375c-8.342-2.964-16.807,2.383-18.762,3.758a1.265,1.265,0,0,0-.52.795L221.8,212.549a1.218,1.218,0,0,1-1.5.978l-43.971-11.215a1.192,1.192,0,0,1-.856-.764c-.947-2.536-4.614-12.528-5.164-17.753A26.976,26.976,0,0,1,171.56,172.7l-2.842,10.054a1.225,1.225,0,0,1-2.109.458C163.981,180.189,157.962,174.291,150.414,173.711Z"/></clipPath></defs><title>Support Team</title><path class="b" d="M293.422,235.406a1.819,1.819,0,0,1-.4-.061L104.059,187.217a1.579,1.579,0,1,1,.794-3.056l188.966,48.128a1.585,1.585,0,0,1-.4,3.117Z"/><path class="c" d="M192.95,264.649l-91.366-23.468a1.591,1.591,0,0,1-.337-2.964l25.088-12.864a7.368,7.368,0,0,1,5.164-.581l91.366,23.468a1.591,1.591,0,0,1,.336,2.964l-25.087,12.865A7.2,7.2,0,0,1,192.95,264.649Z"/><path class="c" d="M78.3,229.631c-6.448-.978-14.056-9.595,4.064-15.035,12.406-3.728,22.215-5.653,29.518,4.217,3.789,4.492-10.45,3.545-16.134,5.44S82.424,230.242,78.3,229.631Z"/><path class="d" d="M225.065,181.258c.948,11.4,3.178,20.9,3.178,24.049s0,11.7-29.426,22.8c-6.142,2.78-11.215,2.994-19.1,2.964-5.53-.031-10.45-.764-13.2-2.353-4.553-2.6.305,4.431,4.431,5.378-5.684,2.231-7.609,3.789-10.115,7.914-1.8,2.964-1.131,4.278,1.9,1.253,2.536-2.536,7.272-4.431,9.5-5.072-3.789,3.178-7.609,6.967-7.914,11.092-.184,2.231.947,1.253,3.483-1.9s4.737-5.072,7.915-6.325a21.08,21.08,0,0,0-4.737,11.092c0,3.484,1.65.52,2.536-1.253a34.567,34.567,0,0,1,5.684-7.272,46.139,46.139,0,0,0-2.231,11.092c0,1.589.948,1.253,2.537-1.894,1.589-3.178,4-8.556,12.039-8.556,9.5,0,34.194-8.22,43.7-14.882s14.881-14.576,12.987-26.585-4.125-22.795-4.125-22.795S232.491,170.013,225.065,181.258Z"/><path class="d" d="M170.368,234.336a39.291,39.291,0,0,1,4.37-1.161"/><path class="d" d="M170.307,173.986c-1.895,6.661-6.967,21.207-8.862,24.69s-8.22,8.556-16.134,10.451-29.427,4.43-32.91,5.378-14.576,10.45-17.723,11.7c-3.178,1.253,1.252-6.967,2.23-10.45-3.789.947-11.4,1.589-16.47,3.789-5.073,2.23-5.073,0-1.253-4.126,3.789-4.125,6.967-6.325,11.4-7.914s11.7-1.253,17.723-2.231c6.02-.947,32.605-10.114,34.835-12.986,2.231-2.842,11.4-24.385,11.4-24.385S166.487,165.766,170.307,173.986Z"/><path class="e" d="M280.527,142.665c-2.017-8.373-21.268-15.248-14.423-33.858s9.9-42.2-15.982-54.575c-22.429-10.726-33.368-3.117-35.568,7.4a3.326,3.326,0,0,0-3.117,1.039c-1.345,1.741-.061,4.95,2.842,7.211,2.689,2.078,5.806,2.6,7.333,1.345,34.163,8.8,18.243,36.3,13.14,42.016s-28.388,49.319,13.751,60.137C290.672,184.223,282.544,151.037,280.527,142.665Z"/><path class="f" d="M150.414,173.711a1.232,1.232,0,0,1-1.069-1.65c8.525-23.377,20.84-43.269,47.027-40.183,26.341,3.117,42.078,5.011,50.42,49.014a1.211,1.211,0,0,1-1.589,1.375c-8.342-2.964-16.807,2.383-18.762,3.758a1.265,1.265,0,0,0-.52.795L221.8,212.549a1.218,1.218,0,0,1-1.5.978l-43.971-11.215a1.192,1.192,0,0,1-.856-.764c-.947-2.536-4.614-12.528-5.164-17.753A26.976,26.976,0,0,1,171.56,172.7l-2.842,10.054a1.225,1.225,0,0,1-2.109.458C163.981,180.189,157.962,174.291,150.414,173.711Z"/><g class="g"><path class="e" d="M177.488,187.8a2.2,2.2,0,0,0-1.314-1.131,1.816,1.816,0,0,0-1.9.275,2.276,2.276,0,0,0-.641,1.681,2.7,2.7,0,0,0-1.834,0,1.911,1.911,0,0,0-1.039,1.619,1.642,1.642,0,0,0,.428,1.406c1.192,1.406,4.614,1.619,4.981,1.619h.061a.662.662,0,0,0,.642-.427C177,192.626,178.313,189.509,177.488,187.8Z"/><path class="e" d="M214.615,180.311a1.834,1.834,0,0,0,.153-1.68c-.336-.978-.856-1.314-1.314-1.406a2.348,2.348,0,0,0-1.742.428,2.447,2.447,0,0,0-1.039-1.528,2.075,2.075,0,0,0-1.956.061,1.545,1.545,0,0,0-.916,1.192c-.489,1.8,1.314,4.706,1.466,5.042v.061a.688.688,0,0,0,.7.275C210.4,182.7,213.668,181.992,214.615,180.311Z"/><path class="e" d="M190.383,186.331a2.022,2.022,0,0,0-1.681.061,1.734,1.734,0,0,0-1.191,1.528,2.354,2.354,0,0,0,.641,1.681,2.676,2.676,0,0,0-1.344,1.252,1.989,1.989,0,0,0,.336,1.956,1.775,1.775,0,0,0,1.314.764c1.833.275,4.492-1.833,4.828-2.108h0a.76.76,0,0,0,.214-.764C193.255,190.242,192.186,187.1,190.383,186.331Z"/><path class="e" d="M166.365,160.052a2.022,2.022,0,0,0-1.681.061,1.734,1.734,0,0,0-1.191,1.528,2.352,2.352,0,0,0,.641,1.68,2.678,2.678,0,0,0-1.344,1.253,1.989,1.989,0,0,0,.336,1.956,1.775,1.775,0,0,0,1.314.764c1.833.275,4.492-1.834,4.828-2.109h0a.759.759,0,0,0,.214-.764C169.237,163.932,168.107,160.785,166.365,160.052Z"/><path class="e" d="M211.712,160.785a2.2,2.2,0,0,0-1.314-1.131,1.816,1.816,0,0,0-1.9.275,2.28,2.28,0,0,0-.641,1.681,2.7,2.7,0,0,0-1.834,0,1.915,1.915,0,0,0-1.039,1.62,1.639,1.639,0,0,0,.428,1.405c1.192,1.406,4.614,1.62,4.981,1.62h.061a.663.663,0,0,0,.642-.428C211.223,165.613,212.506,162.527,211.712,160.785Z"/><path class="e" d="M229.985,167.783a1.836,1.836,0,0,0,.153-1.681c-.336-.978-.856-1.314-1.314-1.406a2.357,2.357,0,0,0-1.742.428,2.447,2.447,0,0,0-1.039-1.528,2.076,2.076,0,0,0-1.955.061,1.548,1.548,0,0,0-.917,1.192c-.489,1.8,1.314,4.706,1.467,5.042v.061a.686.686,0,0,0,.7.275C225.768,170.2,229.007,169.463,229.985,167.783Z"/><path class="e" d="M221.735,143.765a2.022,2.022,0,0,0-1.681.061,1.734,1.734,0,0,0-1.192,1.528,2.353,2.353,0,0,0,.642,1.68,2.684,2.684,0,0,0-1.345,1.253,1.99,1.99,0,0,0,.337,1.956,1.775,1.775,0,0,0,1.314.764c1.833.275,4.491-1.834,4.828-2.109h0a.759.759,0,0,0,.214-.764C224.607,147.676,223.538,144.529,221.735,143.765Z"/><path class="e" d="M211.712,160.785a2.2,2.2,0,0,0-1.314-1.131,1.816,1.816,0,0,0-1.9.275,2.28,2.28,0,0,0-.641,1.681,2.7,2.7,0,0,0-1.834,0,1.915,1.915,0,0,0-1.039,1.62,1.639,1.639,0,0,0,.428,1.405c1.192,1.406,4.614,1.62,4.981,1.62h.061a.663.663,0,0,0,.642-.428C211.223,165.613,212.506,162.527,211.712,160.785Z"/><path class="e" d="M229.985,167.783a1.836,1.836,0,0,0,.153-1.681c-.336-.978-.856-1.314-1.314-1.406a2.357,2.357,0,0,0-1.742.428,2.447,2.447,0,0,0-1.039-1.528,2.076,2.076,0,0,0-1.955.061,1.548,1.548,0,0,0-.917,1.192c-.489,1.8,1.314,4.706,1.467,5.042v.061a.686.686,0,0,0,.7.275C225.768,170.2,229.007,169.463,229.985,167.783Z"/><path class="e" d="M174.432,141.259a2.2,2.2,0,0,0-1.314-1.131,1.814,1.814,0,0,0-1.894.275,2.277,2.277,0,0,0-.642,1.681,2.7,2.7,0,0,0-1.834,0,1.917,1.917,0,0,0-1.039,1.62,1.642,1.642,0,0,0,.428,1.405c1.192,1.406,4.614,1.62,4.981,1.62h.061a.663.663,0,0,0,.642-.428C174,146.087,175.257,143,174.432,141.259Z"/><path class="e" d="M194.508,153.329a1.836,1.836,0,0,0,.153-1.681c-.336-.977-.856-1.314-1.314-1.405a2.348,2.348,0,0,0-1.742.428,2.445,2.445,0,0,0-1.039-1.528,2.073,2.073,0,0,0-1.955.061,1.548,1.548,0,0,0-.917,1.192c-.489,1.8,1.314,4.705,1.467,5.042v.061a.686.686,0,0,0,.7.275C190.291,155.651,193.53,155.01,194.508,153.329Z"/><path class="e" d="M186.227,127.6a2.019,2.019,0,0,0-1.68.061,1.734,1.734,0,0,0-1.192,1.528A2.359,2.359,0,0,0,184,130.87a2.676,2.676,0,0,0-1.344,1.252,1.989,1.989,0,0,0,.336,1.956,1.775,1.775,0,0,0,1.314.764c1.833.275,4.492-1.833,4.828-2.108h0a.76.76,0,0,0,.214-.764C189.1,131.511,188,128.364,186.227,127.6Z"/><path class="e" d="M187.174,168.272a2.2,2.2,0,0,0-1.314-1.131,1.814,1.814,0,0,0-1.894.275,2.281,2.281,0,0,0-.642,1.681,2.7,2.7,0,0,0-1.833,0,1.911,1.911,0,0,0-1.039,1.619,1.642,1.642,0,0,0,.428,1.406c1.191,1.4,4.614,1.619,4.98,1.619h.062a.66.66,0,0,0,.641-.427C186.747,173.1,188,170.013,187.174,168.272Z"/><path class="e" d="M208.29,141.015a1.836,1.836,0,0,0,.152-1.681c-.336-.978-.855-1.314-1.314-1.406a2.345,2.345,0,0,0-1.741.428,2.447,2.447,0,0,0-1.039-1.528,2.075,2.075,0,0,0-1.956.061,1.548,1.548,0,0,0-.917,1.192c-.489,1.8,1.314,4.706,1.467,5.042v.061a.688.688,0,0,0,.7.275C204.073,143.337,207.312,142.7,208.29,141.015Z"/><path class="e" d="M214.584,198.34a2.2,2.2,0,0,0-1.314-1.131,1.814,1.814,0,0,0-1.894.275,2.281,2.281,0,0,0-.642,1.681,2.7,2.7,0,0,0-1.833,0,1.913,1.913,0,0,0-1.039,1.62,1.639,1.639,0,0,0,.428,1.405c1.191,1.406,4.614,1.62,4.98,1.62h.061a.661.661,0,0,0,.642-.428C214.1,203.168,215.379,200.112,214.584,198.34Z"/><path class="e" d="M243.767,176.889a1.836,1.836,0,0,0,.152-1.681c-.336-.978-.855-1.314-1.314-1.406a2.353,2.353,0,0,0-1.741.428,2.45,2.45,0,0,0-1.039-1.528,2.078,2.078,0,0,0-1.956.062,1.545,1.545,0,0,0-.917,1.191c-.489,1.8,1.314,4.706,1.467,5.042v.061a.688.688,0,0,0,.7.275C239.519,179.272,242.789,178.569,243.767,176.889Z"/></g><path class="d" d="M205.417,117.394c-.214.275.306,14.178.55,18.395a6.488,6.488,0,0,1-1.528,4.645c-1.222,1.344-3.055,2.536-5.469,1.589a5.3,5.3,0,0,1-2.9-4.889V117.18"/><path class="h" d="M183.874,108.043c5.073.306,9.473-4.675,9.87-11.123s-3.392-11.947-8.434-12.253c-5.072-.306-9.472,4.675-9.87,11.123A13.722,13.722,0,0,0,177,103.215a13.494,13.494,0,0,0-2.72,7.487,11.287,11.287,0,0,0,3.453,8.525,3.48,3.48,0,0,0-.336,1.253,3.321,3.321,0,1,0,3.514-3.117,3.573,3.573,0,0,0-1.619.306c-4.37-4.462-2.873-9.656-.978-12.529A7.887,7.887,0,0,0,183.874,108.043Z"/><path class="i" d="M183.752,83.934s-3.728,41.191,19.068,39.327c15.706-1.773,16.959-32.91,14.484-43.422"/><path class="j" d="M204.225,97.9a2.083,2.083,0,0,1,1.834,2.323,2.146,2.146,0,0,1-1.864,2.322,2.083,2.083,0,0,1-1.834-2.322A2.124,2.124,0,0,1,204.225,97.9Z"/><path class="k" d="M196.372,104.774a18.444,18.444,0,0,1-2.6,3.544c-1.1,1.161,2.383,1.314,2.383,1.314"/><path class="l" d="M208.137,94.384a5.264,5.264,0,0,0-4.431-1.894"/><path class="k" d="M201.628,113.513s-.55,2.017-2.933,1.1"/><path class="j" d="M191.88,97.684a2.083,2.083,0,0,1,1.834,2.323,2.146,2.146,0,0,1-1.864,2.322,2.083,2.083,0,0,1-1.834-2.322A2.146,2.146,0,0,1,191.88,97.684Z"/><path class="l" d="M192.247,92.581a7.3,7.3,0,0,0-3.422,1.62"/><path class="e" d="M217.182,92c1.039-6.6-1.742-17.876-13.109-23.957s-31.322-11.429-33.552,3.972,22.4,17.54,29.854,14.851S212.873,84.759,217.182,92Z"/><path class="h" d="M220.94,88.425c.306-.427.642-.916,1.009-1.5-2.964-29.365-24.11-25.912-28.694-23.315,0,0-2.414-.947,6.784,3.27,12.651,5.836,16.379,18.212,17.234,22.093-3.483,1.405-6.233,5.347-6.722,10.206-.642,6.447,2.933,12.07,7.975,12.559s9.656-4.309,10.3-10.726C229.435,94.6,225.921,88.976,220.94,88.425Z"/><path class="b" d="M82.027,46.929c2.414-1.65,4.675-3.27,7-4.859.488-.336,1.038-.611,1.558-.917a3.3,3.3,0,0,1,4.645,3.423c-.061.428-.153.825-.214,1.283a12.579,12.579,0,0,0,1.375.336,2.137,2.137,0,0,1,1.833,2.6c-.03.519-.153,1.069-.214,1.589-.061.366,0,.58.459.641a2.573,2.573,0,0,1,2.261,3.453c-.183.7-.061,1.162.581,1.467a3.643,3.643,0,0,1,.641.52,2.418,2.418,0,0,1,.061,3.7,11.541,11.541,0,0,1-1.161.978q-6.921,4.812-13.812,9.625a9.349,9.349,0,0,1-1.191.7,1.453,1.453,0,0,1-1.956-.55c-1.711-2.383-3.545-4.706-5.2-7.211a58.844,58.844,0,0,1-4.064-6.815c-1.375-2.811-1.283-5.928-1.008-8.983.091-1.253.244-2.445.366-3.7a5.316,5.316,0,0,0-1.283-4.217c-.183-.214-.306-.428-.458-.611a2.378,2.378,0,0,1,.091-3.208,2.627,2.627,0,0,1,3.423-.7,9.9,9.9,0,0,1,4.828,5.653c.55,1.589.855,3.239,1.283,4.858C81.874,46.226,81.966,46.5,82.027,46.929Z"/><path class="b" d="M146.075,67.585c.336-1.283.581-2.566,1.008-3.819a7.752,7.752,0,0,1,3.789-4.431,1.984,1.984,0,0,1,2.659.55,1.864,1.864,0,0,1,.092,2.506c-.123.152-.214.336-.337.489a4.288,4.288,0,0,0-1.008,3.3c.122.978.214,1.925.306,2.9.214,2.414.305,4.828-.8,7.058a47.464,47.464,0,0,1-3.178,5.348c-1.283,1.956-2.719,3.789-4.064,5.653a1.117,1.117,0,0,1-1.528.428,5.908,5.908,0,0,1-.947-.55q-5.409-3.759-10.817-7.548a7.2,7.2,0,0,1-.917-.764,1.9,1.9,0,0,1,.061-2.9,3.352,3.352,0,0,1,.52-.4c.519-.244.58-.611.458-1.161a2.029,2.029,0,0,1,1.772-2.689c.336-.061.4-.214.336-.52-.061-.4-.122-.825-.152-1.252a1.631,1.631,0,0,1,1.436-2.017c.336-.092.7-.153,1.069-.275-.061-.336-.122-.672-.152-1.009a2.577,2.577,0,0,1,3.636-2.658c.4.244.825.458,1.222.733,1.8,1.253,3.606,2.506,5.47,3.82C146.014,68.044,146.075,67.83,146.075,67.585Z"/><path class="b" d="M128.566,120.052c1.191-.825,2.322-1.619,3.483-2.414.245-.183.52-.305.764-.458a1.656,1.656,0,0,1,2.322,1.711c-.03.214-.061.4-.091.642.244.061.458.122.672.183a1.072,1.072,0,0,1,.917,1.284c-.031.244-.061.519-.092.794-.03.183,0,.306.214.336a1.293,1.293,0,0,1,1.131,1.711.539.539,0,0,0,.305.734c.122.061.214.183.336.244a1.184,1.184,0,0,1,.031,1.834,4.487,4.487,0,0,1-.581.489c-2.292,1.589-4.583,3.178-6.875,4.8a3.857,3.857,0,0,1-.611.336.709.709,0,0,1-.978-.275c-.856-1.192-1.772-2.353-2.6-3.575a28.973,28.973,0,0,1-2.017-3.392,8.244,8.244,0,0,1-.489-4.461l.183-1.834a2.559,2.559,0,0,0-.641-2.078,1.786,1.786,0,0,1-.214-.3,1.17,1.17,0,0,1,.061-1.589,1.322,1.322,0,0,1,1.711-.336,4.975,4.975,0,0,1,2.414,2.811c.275.794.428,1.62.642,2.414C128.505,119.716,128.535,119.869,128.566,120.052Z"/><path class="m" d="M211.9,160.143l.55-2.536a2.9,2.9,0,1,0-1.008-.244l-.55,2.566-8.006-1.741a2.057,2.057,0,0,0-2.445,1.558l-2.078,9.5a2.058,2.058,0,0,0,1.559,2.445l17.02,3.7a2.057,2.057,0,0,0,2.445-1.558l2.078-9.5a2.058,2.058,0,0,0-1.559-2.445Z"/><path class="c" d="M120.621,193.115l-89.655-20.26a8.575,8.575,0,0,1-6.234-5.653L5.45,109.3A8.584,8.584,0,0,1,15.473,98.2l89.655,20.259a8.579,8.579,0,0,1,6.234,5.653l19.312,57.906A8.6,8.6,0,0,1,120.621,193.115Z"/><path class="j" d="M92.294,249.737l-23.315-6.295c-5.653-9.289-9.412-21.817-9.412-36.546,0-20.29,6.2-38.013,15.493-47.608a1.968,1.968,0,0,0-.917-3.27L62.623,152.9a1.861,1.861,0,0,0-1.8.428c-10.389,8.984-17.509,27.807-17.509,49.533,0,18.3,4.981,33.675,12.712,43l-5.042,2.6a.692.692,0,0,0-.4.642h0v3.025h0a.743.743,0,0,0,.551.733l27.5,7.426a3.166,3.166,0,0,0,2.353-.275l11.459-5.867a.736.736,0,0,0,.4-.673V250.5A.753.753,0,0,0,92.294,249.737Z"/><path class="n" d="M105.709,123.291c-2.842,20.932,5.683,52.131,19.954,63.651"/><path class="o" d="M74.051,225.689a25.742,25.742,0,0,1,8.77-5.653"/></svg>