<svg xmlns="http://www.w3.org/2000/svg" viewBox="0 0 300 300"><defs><style>.a{fill:#fe744f;}.b{fill:#fcc490;}.c{fill:#e5a25e;}.d{fill:#fff;}.e{fill:#f798a0;}.f{fill:#5fc3b7;}.g{fill:#b7e6d4;}.h{fill:#31544b;}.i{fill:#f9e1cd;}.j{fill:#fcd456;}.k{fill:#ffe354;}.l{fill:#ffb5a4;}.m{fill:#a8815e;}.n{fill:#7f161a;}.o{fill:#c17e48;}.p{fill:#fef795;}</style></defs><title>Team</title><path class="a" d="M119.653,64.157a362.5,362.5,0,0,1-.842-36.758c.119-4.382.369-9.037,1.849-12.507,1.584-3.714,4.233-5.274,6.739-6.446,2-.936,4.238-1.707,6.052.1.726.723,1.362,1.844,2.177,2.112.9.3,1.788-.524,2.624-1.209C144.04,4.7,150.795,5.6,156.915,8.685c1.707.86,3.452,1.892,5.211,1.514,1.021-.22,2-.911,3.031-.979,2.768-.185,5,4.094,6.352,8.48a88.679,88.679,0,0,1,3.34,22.459c.284,7.8-.076,15.629-.453,23.417Z"/><path class="b" d="M172.35,51.153c0-18.3,0-33.137-24.852-33.137s-24.853,14.836-24.853,33.137c0,8.321.008,15.919,2.344,21.738V91.923a17.092,17.092,0,0,0,17.042,17.042h10.318A17.092,17.092,0,0,0,169.39,91.923V74.276C172.343,68.305,172.35,60.15,172.35,51.153Z"/><path d="M129.438,53.041c-.216,2.064.6,4.726,3.084,4.805A2.565,2.565,0,0,0,134.9,56.3a5.784,5.784,0,0,0,.127-3.562c-.138-.764-1.3-.44-1.165.321.207,1.148.443,3.936-1.547,3.549-1.624-.317-1.808-2.235-1.668-3.57.081-.772-1.128-.766-1.208,0Z"/><path d="M159.391,53.083a4.373,4.373,0,0,0,.8,2.852,2.116,2.116,0,0,0,2.118.73c2.1-.572,1.839-3.074,1.379-4.668a.6.6,0,0,0-1.165.321c.259.9.759,2.526-.344,3.1-1.316.688-1.562-1.608-1.584-2.337-.024-.776-1.232-.779-1.208,0Z"/><rect class="a" x="154.847" y="39.466" width="12.385" height="3.203" rx="0.937"/><rect class="a" x="126.324" y="43.596" width="11.991" height="3.101" rx="0.937" transform="translate(-4.206 15.02) rotate(-6.396)"/><path d="M134.827,66.614a20.113,20.113,0,0,0,24.852-2.03c.573-.527-.283-1.379-.854-.854a18.9,18.9,0,0,1-23.389,1.842c-.65-.429-1.256.616-.609,1.042Z"/><path class="a" d="M128.384,18.383a19.066,19.066,0,0,0,2.285,13.284c1.159,1.954,3.1,3.87,5.346,3.554a5.837,5.837,0,0,0,3.653-2.715,18.041,18.041,0,0,0,3.3-9.6,14.707,14.707,0,0,0,3.025,8.97,6.327,6.327,0,0,0,4,2.7c2.263.276,4.375-1.489,5.264-3.588a15.955,15.955,0,0,0,.77-6.739,14.54,14.54,0,0,0,7.487,7.073,4.76,4.76,0,0,0,4.124.155c1.562-.9,1.873-3.025,1.72-4.823a17.057,17.057,0,0,0-6.179-11.659Z"/><path d="M137.438,88.089a.62.62,0,0,0,.427-.177.6.6,0,0,0-.427-1.031.6.6,0,0,0-.6.6.615.615,0,0,0,.6.6Z"/><path class="c" d="M86.453,131.841c-3.386,11.219-4.207,23.379-1.1,34.679s10.365,21.639,20.594,27.359c7.511,4.2,16.268,5.787,24.873,5.768,16.8-.037,33.029-5.9,49.722-7.8,6.257-.713,12.789-.926,18.376-3.831,8.49-4.415,12.969-14.329,13.487-23.884s11.01-49.309-35.779-73.257c-16.841-8.62-37.727-8.477-54.819-.365a65.669,65.669,0,0,0-35.3,41.093Z"/><path class="a" d="M140.287,46.749c3.189-.282,9.621-.791,9.621-.791.244,1.845.772,3.639,1.17,5.457a15.127,15.127,0,0,1,.375,5.538,6.862,6.862,0,0,1-2.743,4.682,4.49,4.49,0,0,1-5.21-.059c-1.441-1.19-1.77-3.231-2-5.086Z"/><path d="M107.715,137.968l-1.025,1.7-1.207-2.4c-.349-.694-1.391-.083-1.043.61l1.52,3.019q.3,14.665.593,29.33l.168,8.324a.6.6,0,0,0,1.208,0q-.3-14.744-.6-29.486l-.159-7.864,1.584-2.62A.6.6,0,0,0,107.715,137.968Z"/><path class="d" d="M174.285,125.588q-.432-3.759-1.1-7.485-.344-1.9-.754-3.781a20.191,20.191,0,0,0-.85-3.437c-.915-2.2-3.527-1.3-4.312.492-.4.914-.2,1.956-.56,2.874a1.289,1.289,0,0,1-1.776.556c-1.78-.674-2.033-3.289-2.548-4.84a5.886,5.886,0,0,0-1.566-2.8c-.754-.57-2.139.01-2.849.433-1.832,1.092-2.7,3.039-3.571,4.885-.712,1.517-1.882,3.724-3.91,3.5-1.458-.159-1.793-2.122-2.252-3.224-.644-1.543-1.855-2.857-3.686-2.554-2.2.365-3.18,2.555-3.724,4.459a5.31,5.31,0,0,1-1.314,2.739c-.487.42-1.251.735-1.746.152a3.869,3.869,0,0,1-.494-2.339,8.233,8.233,0,0,0-.329-2.58c-.565-1.628-2.08-2.979-3.872-2.177-1.807.807-2.123,3.125-2.415,4.84q-.619,3.648-.91,7.342a79.062,79.062,0,0,0,.282,15.2c.1.875.232,1.747.36,2.619a1.121,1.121,0,0,0,.169,1.1,1.023,1.023,0,0,0,1.213.647.907.907,0,0,0,.64-.615c10.611-3.056,21.7.974,32.442,1.141a34.353,34.353,0,0,0,9.4-1.059,1.028,1.028,0,0,0,.739-.97A113.112,113.112,0,0,0,174.285,125.588Zm-34,12.869a32.341,32.341,0,0,0-8,1.085,78.473,78.473,0,0,1-.541-16.758,51.428,51.428,0,0,1,1.206-8.82c.137-.532.5-1.89,1.3-1.716.686.151.91,1.329.975,1.891.237,2.037-.149,4.713,2.269,5.594a3.354,3.354,0,0,0,3.207-.706,6.037,6.037,0,0,0,1.86-3.122c.348-1.148.555-2.511,1.537-3.317a1.193,1.193,0,0,1,1.938.243c.979,1.551,1.028,3.576,2.724,4.644,2.408,1.515,5.249-.325,6.546-2.4,1.139-1.826,1.941-5.52,4.417-6.045a14.445,14.445,0,0,1,1.385,3.731,6.578,6.578,0,0,0,2.214,3.454,3.831,3.831,0,0,0,3.821.395c1.339-.674,1.63-2.064,1.773-3.426a1.918,1.918,0,0,1,.568-1.488,1.5,1.5,0,0,1,.208-.108A3.566,3.566,0,0,1,170,112.71q.621,2.611,1.117,5.251.992,5.282,1.461,10.641a112.721,112.721,0,0,1,.407,11.3C162.181,142.47,151.166,138.3,140.288,138.457Z"/><path class="e" d="M51.1,169.321q-.263-2.531-.657-5.045a2.753,2.753,0,0,0-2.349-2.222c-1.382-.17-2.583.881-3.67,1.589a75.153,75.153,0,0,0-7.143,5.266,68.691,68.691,0,0,0-7.669,7.54,8.894,8.894,0,0,0-6.652-3.065H22.9c-6.744,0-10.975,6.24-12.9,9.968-5.059,9.8-5.191,21.58-4.917,31.855a56.512,56.512,0,0,0,1.977,14.817c1.169,3.863,3.558,8.98,8.3,11.418a9.337,9.337,0,0,0,4.308,1.1,9.023,9.023,0,0,0,3.465-.71,14.663,14.663,0,0,0,5.146-3.819c9.3-6.241,14.739-17.017,18.231-27.359A98.02,98.02,0,0,0,51.1,169.321Zm-28.512,71.2a7.538,7.538,0,0,1-6.583-.34c-4.3-2.212-6.5-6.967-7.59-10.566A55.153,55.153,0,0,1,6.5,215.168c-.27-10.1-.147-21.665,4.758-31.164,1.775-3.441,5.644-9.2,11.638-9.2h.056c5.864.034,8.2,6.139,9.071,9.773q.532,2.268.995,4.552a105.147,105.147,0,0,1,2.218,19.65,70.974,70.974,0,0,1-.538,9.783,46.331,46.331,0,0,1-1.731,8.374C31.279,232.118,27.31,238.58,22.591,240.52Zm24.617-36.393c-2.891,10.951-7.567,22.481-16.176,30.211a33.205,33.205,0,0,0,3.288-6.961,47.742,47.742,0,0,0,1.79-8.635,72.384,72.384,0,0,0,.549-9.98,106.534,106.534,0,0,0-2.246-19.914q-.463-2.3-1-4.6a18.722,18.722,0,0,0-3-6.839,71.527,71.527,0,0,1,16.17-13.7,1.913,1.913,0,0,1,1.61-.412,1.578,1.578,0,0,1,1.094,1.3A97.037,97.037,0,0,1,47.208,204.127Z"/><path class="f" d="M293.708,148.66a101.956,101.956,0,0,0-3.931-14.165,86.623,86.623,0,0,0-5.188-12.655c-1.873-3.467-4.532-6.647-8.345-8-3.335-1.179-7.421-.885-9.961,1.8-3.136,3.317-2.825,8.191-2.11,12.352.878,5.11,1.852,10.2,2.779,15.306q.339,1.86.677,3.72a42.149,42.149,0,0,0-10.372-11.246.583.583,0,0,0-.071-.035.572.572,0,0,0-.052-.06c-3.918-3.018-7.793-6.175-12.218-8.437-.54-.276-1.1-.55-1.684-.8a24.847,24.847,0,0,0-11.458-4.724c-6.353-.813-12.774,1.1-18.542,3.889a63.558,63.558,0,0,0-31.1,33.417c-5.747,14.474-2.9,30.3-.3,45.65a23.7,23.7,0,0,0,16.714,18.282c8.407,2.408,17.4.9,25.939-.974,8.622-1.89,17.522-4.321,24.115-10.191,6-5.341,9.473-13.082,10.941-20.98a61.7,61.7,0,0,0,.955-9,41.457,41.457,0,0,0,9.855,3.117,20.676,20.676,0,0,0,13-1.458,20.021,20.021,0,0,0,8.119-8C296.085,167.391,295.421,157.459,293.708,148.66Zm-7.128,31.08a16.641,16.641,0,0,1-11,4.4,32.229,32.229,0,0,1-12.515-2.591c-.859-.337-1.706-.7-2.544-1.091a132.516,132.516,0,0,0-.563-13.669c-.8-9.584-2.081-19.354-6.405-27.945a36.088,36.088,0,0,0-6.428-9.019,83.434,83.434,0,0,1,7.3,5.268c.657.511,1.311,1.026,1.97,1.534v0c4.985,3.854,9.37,8.571,11.984,14.362.3.664,1.217.16,1.1-.465l-2.617-14.391q-.66-3.629-1.321-7.258a26.029,26.029,0,0,1-.613-7.035,8.939,8.939,0,0,1,2.277-5.427,7.028,7.028,0,0,1,4.638-2.017,11.472,11.472,0,0,1,9.472,4.641c2.592,3.2,4.06,7.2,5.527,11a127.531,127.531,0,0,1,4.337,13.086,75.511,75.511,0,0,1,2.443,13.711,35.976,35.976,0,0,1-1.208,13.408A21.714,21.714,0,0,1,286.58,179.74Z"/><path class="g" d="M225.621,219.451c.931-7.662-1.619-15.54-5.083-22.436-4.7-9.36-13.5-16.039-22.8-20.859-20.957-10.862-46.476-13.607-68.544-5.229S86.829,199.15,85.858,222.735c-.374,9.081,21.548,54.972,34.968,70.759H199.17C206.5,284.178,222.041,248.913,225.621,219.451Z"/><path class="b" d="M177.644,141.179a9.78,9.78,0,0,0-4.288-.485v-1.776a17.092,17.092,0,0,0-17.042-17.042h-7.6a17.092,17.092,0,0,0-17.042,17.042v3.657l-.02-1.776a11.519,11.519,0,0,0-5.49.38,3.969,3.969,0,0,0,.431,7.78,12.805,12.805,0,0,0,5.079.024v1.473a16.867,16.867,0,0,0,2.425,8.7q-.066,3.927-.131,7.852a3.567,3.567,0,0,0,.662,2.608,5.2,5.2,0,0,0,2.5,1.2,61.283,61.283,0,0,0,32.432-.256,4.447,4.447,0,0,0,2.492-1.36,3.036,3.036,0,0,0,.209-2.308q-.679-3.846-1.357-7.69a16.881,16.881,0,0,0,2.452-8.743v-1.322a10.459,10.459,0,0,0,3.855-.175,4.486,4.486,0,0,0,3.43-3.521A4.436,4.436,0,0,0,177.644,141.179Z"/><path class="d" d="M182.887,168.68a33.666,33.666,0,0,1-9.764-3.1.636.636,0,0,0-.732.094,28.148,28.148,0,0,1-18.649,6.6.679.679,0,0,0-.576-.188,31.025,31.025,0,0,1-21.793-4.426.5.5,0,0,0-.236-.094.483.483,0,0,0-.313.046,14.559,14.559,0,0,0-4.273,2.481c-.86.647-1.7,1.32-2.511,2.035a.618.618,0,0,0-.094.732c1.539,3.112,4.5,5.117,7.563,6.544,1.711.8,3.489,1.431,5.245,2.119.9.352,1.8.719,2.672,1.129.906.425,1.753,1,2.678,1.378a5.206,5.206,0,0,0,6.392-2.272c.918-1.493,1.823-2.994,2.735-4.491l2.112-3.465c1.8,1.977,3.63,3.926,5.511,5.825a8.973,8.973,0,0,0,4.423,2.907,7,7,0,0,0,5.04-.816c5.458-3.31,10.81-7,14.836-12.025C183.4,169.378,183.385,168.758,182.887,168.68Z"/><path class="h" d="M267.727,79.991c-.712-4.7-1.746-9.352-2.888-13.968a66.45,66.45,0,0,0-3.42-10.749,23.528,23.528,0,0,0-6.223-8.8c-3.025-2.517-7.307-4.419-11.229-2.933a7.708,7.708,0,0,0-3.3,2.331c-3.176-3.64-6.6-7.225-10.884-9.527a19.976,19.976,0,0,0-14.815-1.615c-10.09,2.754-16.33,11.916-19.047,21.539a57.316,57.316,0,0,0-2.006,13.665c-.291,9.027-1,18.037-2,27.013-.687,6.176-1.533,12.33-2.417,18.481a5.033,5.033,0,0,0,1.079,4.507,5.221,5.221,0,0,0,5.073,1.246c.919-.216,1.834-.98,2.741-.48.876.483,1.534,1.269,2.455,1.686,1.784.809,3.2-.047,4.29-1.457a5.816,5.816,0,0,1,1.119-1.328c.463-.317.826.038,1.185.384a5.227,5.227,0,0,0,1.9,1.388,2.968,2.968,0,0,0,2.251-.253c.922-.455,2.193-2.115,3.307-1.494a6.242,6.242,0,0,1,1.4,1.4,5.051,5.051,0,0,0,1.723,1.353c1.731.736,3.156-.351,4.536-1.268a2.9,2.9,0,0,1,1.983-.649,5.759,5.759,0,0,1,2.006.814c1.4.784,2.851,1.744,4.523,1.718a7.021,7.021,0,0,0,4.175-1.977c.874-.706,2.045-1.941,3.29-1.742,1.279.2,2.1,1.789,2.971,2.6a3.75,3.75,0,0,0,4.658.547,14.367,14.367,0,0,1,2.553-1.372,7.077,7.077,0,0,1,2.878-.276,16.272,16.272,0,0,1,2.744.78,6.32,6.32,0,0,0,2.719.134,7.013,7.013,0,0,0,4.473-2.822,29.957,29.957,0,0,0,3.081-5.652,45.935,45.935,0,0,0,2.182-6.064C269.279,98.3,269.094,89.01,267.727,79.991ZM265.79,102.62a43.812,43.812,0,0,1-3.929,11.689c-.811,1.583-1.677,3.553-3.188,4.589a4.712,4.712,0,0,1-4.6.423,9.181,9.181,0,0,0-5.677-.279,9.7,9.7,0,0,0-2.576,1.228c-.621.4-1.393.964-2.165.671-1.177-.449-1.876-1.9-2.825-2.678a3.88,3.88,0,0,0-4.008-.719,17.439,17.439,0,0,0-3.55,2.474,3.417,3.417,0,0,1-3.616.651c-1.424-.592-2.634-1.618-4.134-2.045a5.051,5.051,0,0,0-4.461,1.078,3.572,3.572,0,0,1-1.855.92,2.128,2.128,0,0,1-1.376-.9c-.949-1.031-1.874-2.254-3.42-2.259-1.577,0-2.458,1.264-3.763,1.884a1.023,1.023,0,0,1-1.286-.3,6.422,6.422,0,0,0-1.737-1.378c-1.475-.634-2.7.259-3.572,1.388a7.253,7.253,0,0,1-1.218,1.444c-.617.463-1.314.024-1.849-.37a8.24,8.24,0,0,0-2.423-1.539c-1.073-.321-1.847.15-2.837.476-1.481.487-3.359.438-4.13-1.158-.493-1.019-.1-2.287.052-3.353q.267-1.866.53-3.732.661-4.74,1.245-9.49c.993-8.176,1.763-16.381,2.212-24.606q.186-3.4.3-6.794c.271-8.232,2.026-16.747,6.7-23.663a23.27,23.27,0,0,1,10.894-8.956,18.279,18.279,0,0,1,13.948.128c5.134,2.3,9,6.63,12.61,10.811a1.012,1.012,0,0,0,1.58-.2c1.854-3.718,6.579-3.465,9.744-1.751a18.048,18.048,0,0,1,6.987,7.352,44.084,44.084,0,0,1,3.729,9.861c1.137,4.185,2.117,8.428,2.928,12.688C266.7,84.874,267.474,93.89,265.79,102.62Z"/><path class="i" d="M253.121,72.9a3.153,3.153,0,0,0-2.367,1.274V68.195a17.1,17.1,0,0,0-12.261-16.343,4.352,4.352,0,0,1-1.8,2.053,14.294,14.294,0,0,1-3.956,1.329,32.007,32.007,0,0,0-20.858,16.795V88.905a17.092,17.092,0,0,0,10.913,15.877,85.633,85.633,0,0,1,.356,19.175c-.208,2.2-.407,4.7,1.092,6.324,1.223,1.322,3.178,1.594,4.969,1.787,2.113.228,4.5.372,6.093-1.041,1.352-1.2,1.675-3.157,1.915-4.951q1.434-10.692,2.867-21.383a17.1,17.1,0,0,0,10.672-15.788V87.158a3.153,3.153,0,0,0,2.367,1.274c2.386,0,4.319-3.477,4.319-7.766S255.507,72.9,253.121,72.9Z"/><path class="h" d="M215.277,74.19a9.463,9.463,0,0,1,5.481-2.149c.773-.046.778-1.254,0-1.208a10.836,10.836,0,0,0-6.335,2.5c-.6.5.259,1.346.854.854Z"/><path class="e" d="M106.225,284.189c.013-30.922.013-62.036-3.875-92.479-1.095-8.567-2.515-17.141-5.21-24.99s-6.764-14.99-12.2-19.26a24.013,24.013,0,0,0-17.669-4.737,27.23,27.23,0,0,0-17.461,8.59c-9.193,9.927-12.312,27.207-13.72,43.3-2.856,32.675-1.574,67.131,1.984,98.879h67.032C106.156,290.762,106.224,287.362,106.225,284.189Z"/><path class="j" d="M290.779,258.369c0-35.822-28.349-64.861-63.319-64.861s-63.319,29.039-63.319,64.861a65.669,65.669,0,0,0,10.1,35.125H280.677A65.669,65.669,0,0,0,290.779,258.369Z"/><path class="k" d="M99.631,148C98,130.755,98.657,91,75.7,83.166A34.675,34.675,0,0,0,63.216,81a18.475,18.475,0,0,1,3.54-5.138c.544-.556-.309-1.411-.854-.854a19.728,19.728,0,0,0-3.655,5.211,22.492,22.492,0,0,1,.312-3.943c.131-.76-1.032-1.087-1.164-.321a24.454,24.454,0,0,0-.354,4.265c-.978-1.448-1.994-2.87-3.077-4.243-.481-.61-1.33.25-.854.854,1.132,1.435,2.188,2.927,3.2,4.451a33.058,33.058,0,0,0-8.865,3.047C38.3,90.4,32.787,109.8,33.015,117.487c.84,28.37.185,51.532,1.025,79.9.3,2.464.213,5.419,1.539,6.39,2.387,1.748,3.791-2.929,4.518-3.844a1.117,1.117,0,0,1,1.862.216,2.91,2.91,0,0,0,2.755,1.715c1.261-.046,1.439-1.1,1.687-2.511a1.14,1.14,0,0,1,1.995-.538,2.963,2.963,0,0,0,2.156,1.277,3.923,3.923,0,0,0,3.129-2.775,11.906,11.906,0,0,0,.359-4.385,248.814,248.814,0,0,1,1.46-38.595c.575-4.962,2.113-10.961,7.838-11.289a8.432,8.432,0,0,1,6.778,3.158c6.241,7.317,7.988,17.041,8.494,26.449.472,8.756,0,17.6,1.76,26.215a2.916,2.916,0,0,0,2.335,2.339c2.064.308,2.449-2.333,4.087-2.611,2.19-.371,3.322,3.8,5.448,3.148,2.148-.653,1.31-5.266,3.551-5.131,1,.061,1.51,1.181,1.966,2.072s1.511,1.805,2.334,1.236C100.818,182.618,101.258,165.247,99.631,148Z"/><path class="h" d="M238.152,69.51a9,9,0,0,1,7.989,2.17c.57.526,1.426-.326.854-.854a10.264,10.264,0,0,0-9.164-2.48c-.758.166-.437,1.331.321,1.164Z"/><circle cx="219.156" cy="82.515" r="1.903"/><circle cx="243.472" cy="82.515" r="1.903"/><path class="e" d="M235.9,82.867l-.727-6.374a12.419,12.419,0,0,0-.3-2.942c-.34-.79-.989-.7-1.846-.563a23.271,23.271,0,0,0-3.713.57c-1.173.394-.722,1.218-.629,2.407q.282,3.617.563,7.231a3.429,3.429,0,0,0,.544,1.918c.683.852,1.956.851,3.046.774,1.134-.08,2.481-.3,2.951-1.336A3.209,3.209,0,0,0,235.9,82.867Z"/><path class="a" d="M226.166,91.705a10.314,10.314,0,0,0,3.35,4.47,5.257,5.257,0,0,0,5.348.545,5.367,5.367,0,0,0,2.221-2.519,12.939,12.939,0,0,0,.907-3.284l-11.854.7"/><path d="M180.761,39.647c-.11,0-.213.026-.321.032a33.982,33.982,0,0,0-6.952-17.61,27.494,27.494,0,0,0-7.091-6.258,34.767,34.767,0,0,0-9.364-3.679,32.23,32.23,0,0,0-11.112-1.106,53.03,53.03,0,0,0-9.473,1.833c-6.04,1.713-12.027,4.357-16.277,9.121a33.408,33.408,0,0,0-7.75,17.757,5.814,5.814,0,0,0-4.927,5.719V59.537a5.829,5.829,0,0,0,4.594,5.676.572.572,0,0,0-.025.342A27.318,27.318,0,0,0,129.451,84.95c.72.254,1.451.468,2.188.659v1.022a1.206,1.206,0,0,0,1.2,1.2h5.169a1.207,1.207,0,0,0,1.2-1.2V85.537a1.207,1.207,0,0,0-1.2-1.2h-5.169a1.172,1.172,0,0,0-.589.177,25.845,25.845,0,0,1-19-19.17c.016,0,.031,0,.047,0a5.826,5.826,0,0,0,5.809-5.81V45.456a5.81,5.81,0,0,0-5.478-5.775,32.886,32.886,0,0,1,6.131-15.322,23.827,23.827,0,0,1,6.319-5.821,39.052,39.052,0,0,1,8.405-3.815c6.226-2.062,12.87-3.283,19.39-2.064a39.6,39.6,0,0,1,9.763,3.029,25.6,25.6,0,0,1,7.3,5.312c4.912,5.086,7.551,11.911,8.309,18.873a5.814,5.814,0,0,0-4.3,5.583V59.537a5.81,5.81,0,1,0,11.619,0V45.456A5.826,5.826,0,0,0,180.761,39.647Z"/><path class="l" d="M276.17,124.57a4.175,4.175,0,0,1-6.138-.553c-2.461-3.171-5.222-7.739-6.972-10.474s-5.3-7.245-6.411-10.259a1.1,1.1,0,0,1,1.653-1.269l4.563,4.357a1.051,1.051,0,0,0,1.684-1.138c-1.729-4.969-3.681-10.521-5.254-15.079a4.183,4.183,0,0,1-.336-1.835,1.43,1.43,0,0,1,1.154-1.3c.729-.063,1.283.613,1.695,1.218l3.543,5.193c-.573-1.772-1.255-3.281-2.347-6.423a1.593,1.593,0,0,1,2.882-1.357,46.591,46.591,0,0,1,3.769,6.554,15.135,15.135,0,0,1-.845-5.367,1.205,1.205,0,0,1,2.356-.195l6.347,21.934c1,3.439,2,7.016,1.437,10.552A9.858,9.858,0,0,1,276.17,124.57Z"/><path class="d" d="M89.5,116.368a5.157,5.157,0,0,0-6.138-3.626,2.841,2.841,0,0,0-.543.19C80.422,102,72.857,93.994,63.849,93.994c-9.668,0-17.678,9.218-19.4,21.382a4.336,4.336,0,0,0-4.521-1.228,6.278,6.278,0,0,0-4.347,5.572,7.674,7.674,0,0,0,3.47,6.4,6.962,6.962,0,0,0,4.681,1.256,5.12,5.12,0,0,0,1.057-.267c2.278,11.163,9.931,19.393,19.064,19.393,9.657,0,17.675-9.191,19.414-21.334a6.451,6.451,0,0,0,5.064-2.947A7.292,7.292,0,0,0,89.5,116.368Z"/><path class="k" d="M48.417,113.453A9.465,9.465,0,0,1,53.9,111.3c.772-.046.778-1.254,0-1.208a10.839,10.839,0,0,0-6.336,2.5c-.6.495.259,1.346.854.854Z"/><circle cx="52.296" cy="121.778" r="1.903"/><circle cx="76.613" cy="121.778" r="1.903"/><path class="k" d="M72.321,112.535a7.734,7.734,0,0,1,6.771.892c.65.43,1.256-.616.61-1.043A8.908,8.908,0,0,0,72,111.37c-.734.245-.419,1.412.321,1.165Z"/><path class="a" d="M60.929,121.51c1.726-.242,3.52-.213,5.247-.455a9.054,9.054,0,0,1,.685,3.551,3.082,3.082,0,0,1-1.98,2.79,2.749,2.749,0,0,1-2.551-.708,4.476,4.476,0,0,1-1.246-2.421A12.7,12.7,0,0,1,60.929,121.51Z"/><path d="M35.087,163.035c-.811-2.26-1.64-4.514-2.46-6.771l-4.966-13.675c-.787-2.167-1.489-4.392-2.383-6.516a3.5,3.5,0,0,0-1.561-1.892,4.08,4.08,0,0,0-2.679-.137A58.608,58.608,0,0,0,8.611,138.39q-1.544.717-3.049,1.514a.484.484,0,0,0-.065.053.525.525,0,0,0-.1.084c-.012.014-.028.025-.038.039a.481.481,0,0,0-.072.5c1.6,4.211,3.357,8.367,5.112,12.515,2.234,5.279,4.491,10.568,7.059,15.695,1.006,2.009,2.281,5.582,5.1,4.845a17.269,17.269,0,0,0,3.041-1.377l3.1-1.51a26.812,26.812,0,0,0,5.43-2.9,3.9,3.9,0,0,0,1.3-1.839A4.756,4.756,0,0,0,35.087,163.035Zm-1.072,3.178c-.938,1.438-3.092,2.118-4.559,2.832q-2.979,1.451-5.956,2.9c-.866.42-1.871.97-2.7.19a6.363,6.363,0,0,1-1.057-1.586c-.456-.815-.883-1.647-1.3-2.483-2.37-4.748-4.472-9.635-6.549-14.516-1.809-4.251-3.607-8.516-5.259-12.831a65.764,65.764,0,0,1,11.253-4.574q1.378-.414,2.776-.769c.973-.245,2.225-.608,3,.263a7.6,7.6,0,0,1,1.105,2.491q.578,1.593,1.157,3.187l4.629,12.746,2.314,6.372c.354.974.712,1.946,1.061,2.921A3.116,3.116,0,0,1,34.015,166.213Z"/><path d="M16.311,144.291v.118a1.007,1.007,0,0,0,2.013,0v-.118A1.007,1.007,0,0,0,16.311,144.291Z"/><path class="l" d="M14.532,185.7a28.911,28.911,0,0,0-1.36-17.338c-1.089-2.677-2.616-5.374-2.321-8.249a8.8,8.8,0,0,1,3.313-5.687A20.1,20.1,0,0,1,20.1,151.28a4.872,4.872,0,0,1,2.191-.43,1.763,1.763,0,0,1,1.607,1.341,2.5,2.5,0,0,1-.575,1.664,28.476,28.476,0,0,1-3.009,3.791,9.312,9.312,0,0,1,3.5-1.59,3.181,3.181,0,0,1,3.326,1.429,3.176,3.176,0,0,1-.752,3.467,9.318,9.318,0,0,1-3.213,1.941c1.9-.622,4.18-1.186,5.752.054a3.194,3.194,0,0,1,.068,4.739c-1.11.929-2.738.973-3.928,1.8-1.786,1.237-2.035,3.793-1.673,5.935s1.157,4.282.813,6.427a6.175,6.175,0,0,1-9.8,3.965Z"/><path class="m" d="M206.32,176.625a1.641,1.641,0,0,1-2.451-1.283l-1.449-16.755c-.106-1.228.015-2.822,1.191-3.193,1.089-.343,2.1.722,2.612,1.741s.989,2.241,2.071,2.607a2.731,2.731,0,0,0,2.825-1.118,27.138,27.138,0,0,0,1.626-2.794,3.37,3.37,0,0,1,2.538-1.793c1.39-.045,2.435,1.22,3.165,2.4s1.534,2.532,2.89,2.844c1.753.4,3.3-1.137,4.4-2.562s2.486-3.047,4.277-2.877A3.565,3.565,0,0,1,232.5,155.5a12.215,12.215,0,0,1,1.251,2.812,2.353,2.353,0,0,0,1.2,1.586c.921.318,1.811-.556,2.281-1.409a21.36,21.36,0,0,1,1.642-3.036,2.866,2.866,0,0,1,3.012-1.188,3,3,0,0,1,1.653,1.905c.3.816.423,1.69.749,2.5.3.74.92,1.488,1.716,1.434,1.768-.12,1.489-3.516,3.228-3.854a1.7,1.7,0,0,1,1.732,1.071,4.976,4.976,0,0,1,.276,2.161l-.332,15.719c-.04,1.889-.326,4.172-2.05,4.946a3.689,3.689,0,0,1-3.472-.57,29.3,29.3,0,0,1-2.73-2.455,17.66,17.66,0,0,0-7.619-3.548C225.553,171.272,214.78,171.83,206.32,176.625Z"/><path class="b" d="M251.59,181.174a5.063,5.063,0,0,0-.952.1c-1.158-8.552-11.692-15.25-24.53-15.25-13.011,0-23.642,6.884-24.555,15.6a5.063,5.063,0,1,0,1.858,7.772c3.748,6.025,12.5,10.252,22.7,10.252,9.807,0,18.251-3.917,22.219-9.574a5.051,5.051,0,1,0,3.263-8.9Z"/><circle cx="213.12" cy="186.657" r="1.903"/><path class="n" d="M132.295,187.025c-1.185-1.473-3.033-2.835-4.922-2.653a15.545,15.545,0,0,0-5.291-15.939,14.474,14.474,0,0,0-22.44,5.647A14.994,14.994,0,0,0,86.9,168.525a14.081,14.081,0,0,0-12.035,9.564,14.517,14.517,0,0,0-.756,6.555,8.842,8.842,0,0,0-5.383-1.43,11.389,11.389,0,0,0-7.738,4.08c-4.278,4.886-5.455,12.367-2.308,18.142a14.236,14.236,0,0,0,5.382,5.515,9.493,9.493,0,0,0-5.471,7.582c-.42,4.032,2.383,7.509,6.086,8.778a8.809,8.809,0,0,0,4.113.361c-1.437,3.278.308,7.516,3.368,9.38,4.145,2.523,10.14,1.91,14.213-.477a8.668,8.668,0,0,0,2.843-2.556c.7-1.04.77-2.564,2.079-3.083,6.294-2.128,11.6,3.417,16.837,5.865,2.672,1.249,5.722,2.037,8.649,1.275a8.706,8.706,0,0,0,6.2-10.772,11.517,11.517,0,0,0,4.748,1.907,6.5,6.5,0,0,0,6.2-2.46c2.78-3.728,1.793-9.447.3-13.47a23.824,23.824,0,0,0-3.105-5.756,6.85,6.85,0,0,0,3.712-1.309A8,8,0,0,0,138,200.571C138.623,195.422,135.354,190.826,132.295,187.025Zm2.246,17.349a5.061,5.061,0,0,1-5.077,1.314c-.816-.274-1.274.784-.784,1.346a21.8,21.8,0,0,1,5.277,12.176c.348,3.712-.781,8.612-5.415,8.462-2.745-.089-5.051-1.88-7.148-3.466-.638-.483-1.552.464-1.1,1.1a7.166,7.166,0,0,1-4.785,11.39c-5.941.831-10.7-4.231-15.713-6.47a12.368,12.368,0,0,0-8.935-.844,4.014,4.014,0,0,0-2.236,2.059,7.752,7.752,0,0,1-1.381,2.454,11.1,11.1,0,0,1-5.535,2.756c-3.964.883-9.465.356-11.3-3.889a5.2,5.2,0,0,1,.808-5.828c.7-.681-.186-1.612-.975-1.265a7.645,7.645,0,0,1-8.5-2.153,6.929,6.929,0,0,1,.065-8.842,7.235,7.235,0,0,1,4.646-2.774c.873-.131.648-1.305,0-1.552a12.956,12.956,0,0,1-7.96-12.525c.157-5.277,3.4-11.41,8.852-12.786A7.167,7.167,0,0,1,74.7,187.3c.507.67,1.77.327,1.471-.62a13.292,13.292,0,0,1,3.595-13.342,12.459,12.459,0,0,1,13.267-2.254,12.627,12.627,0,0,1,6.148,5.111.814.814,0,0,0,1.471-.192,12.9,12.9,0,0,1,11.866-9.163,13.5,13.5,0,0,1,12.946,9,14.453,14.453,0,0,1-.083,9.571.813.813,0,0,0,1.183.909c1.751-1.131,3.543.543,4.59,1.845a36.932,36.932,0,0,1,3.564,5.157C136.539,196.6,137.6,201.443,134.541,204.374Z"/><circle cx="238.771" cy="186.657" r="1.903"/><path d="M236.109,178.872a7.34,7.34,0,0,1,5.067,2.334c.534.567,1.387-.288.854-.854a8.573,8.573,0,0,0-5.921-2.688c-.777-.032-.775,1.176,0,1.208Z"/><path class="o" d="M120.811,211.8c0-12.79-9.075-22.674-21.194-22.674-11.579,0-18.6,8.187-19.2,20.07a4.268,4.268,0,0,0-2.206-.641c-2.647,0-4.793,2.411-4.793,5.385s2.146,5.385,4.793,5.385a4.436,4.436,0,0,0,3.159-1.373,23.633,23.633,0,0,0,8.618,12.617c-2.085,6.219-5.05,16.4-2.6,19.8,1.509,2.094,4.595,1.206,6.382,1.144,2.267-.079,5.2.187,7.335-1.275,3.074-2.105,4.252-10.138,3.743-16.009C115.064,232.7,120.811,223.474,120.811,211.8Z"/><path d="M209.221,181.319a12.174,12.174,0,0,1,5.764-.844c.774.072.769-1.136,0-1.208a12.964,12.964,0,0,0-6.085.888c-.712.287-.4,1.456.321,1.164Z"/><path class="d" d="M232.773,189.981a13.931,13.931,0,0,1-3.3,5.743,4.332,4.332,0,0,1-2.108,1.264,4.43,4.43,0,0,1-3.351-1.123,13.489,13.489,0,0,1-4.387-5.556A14.442,14.442,0,0,0,232.773,189.981Z"/><path class="p" d="M145.552,293.494a3.13,3.13,0,0,0,.65-2.113c-2.883-8.267-6.347-16.444-11.506-23.733a50.169,50.169,0,0,0-20.733-17.4c-8.871-3.822-19.022-4.6-28.788-3.734-14.787,1.306-29.238,6.329-40.875,14.75-11.283,8.166-19.807,19.558-23.578,32.227h124.83Z"/><path class="n" d="M107.37,199.306a42.271,42.271,0,0,0-10.053,1.029l-.136.086a44.231,44.231,0,0,1,.1,6.816c0,2.279.362,4.76,1.629,6.226a5.143,5.143,0,0,0,2.859,1.552,4.984,4.984,0,0,0,3.166-.071c2.056-.886,3.314-3.9,3.525-6.853a30.85,30.85,0,0,0-1.036-8.725Z"/><path d="M93.532,198.5a9.4,9.4,0,0,0-6.085,2.07,1.418,1.418,0,0,0,0,1.992,1.441,1.441,0,0,0,1.993,0,6.4,6.4,0,0,1,4.092-1.244A1.41,1.41,0,0,0,93.532,198.5Z"/><path d="M117.589,197.9c-1.441-2.484-6.242-3.69-8.366-1.468-1.254,1.31.736,3.306,1.992,1.992.065-.068.088-.093.1-.1.027-.019.055-.037.078-.05.1-.037.2-.062.3-.09.024-.007.142-.027.184-.036a3.653,3.653,0,0,1,1.286.085,4.305,4.305,0,0,1,1.286.471c.112.063.222.13.328.2.023.016.017.01.027.017s.031.028.09.077a1.368,1.368,0,0,1,.143.142c.015.027.114.157.128.181A1.41,1.41,0,0,0,117.589,197.9Z"/><path d="M87.262,206.537a12.973,12.973,0,0,0,1.177,4.374c.528,1.113,1.389,2.491,2.827,2.287,1.174-.167,1.671-1.359,1.867-2.392a10.693,10.693,0,0,0-.176-4.681.6.6,0,0,0-1.164.321,9.535,9.535,0,0,1,.29,3.173c-.05.619-.135,2.159-.918,2.377-1.011.281-1.72-1.714-1.976-2.376a11.55,11.55,0,0,1-.719-3.083c-.073-.767-1.281-.774-1.208,0Z"/><path d="M110.131,205.275a14.129,14.129,0,0,0,1.448,4.1c.488.9,1.361,2.034,2.536,1.557,1.017-.414,1.157-1.68,1.166-2.633a11.82,11.82,0,0,0-.824-4.4c-.28-.716-1.448-.405-1.165.321a10.93,10.93,0,0,1,.743,3.057c.045.531.269,2.055-.264,2.447-1.019.749-2.348-4.1-2.476-4.769-.145-.763-1.309-.44-1.164.321Z"/><path class="d" d="M92.538,216.7a28.041,28.041,0,0,0,5.214,5.023,9.452,9.452,0,0,0,6.861,1.741,9.266,9.266,0,0,0,5.336-3.458,24.1,24.1,0,0,0,3.141-5.661l.051.173a30.54,30.54,0,0,1-20.533,1.988Z"/><path class="d" d="M289.923,254.293a56.841,56.841,0,0,0-11.947-28.81,52.742,52.742,0,0,0-5.351-5.791c-1.843-1.716-4.125-3.564-6.817-3.057a5.007,5.007,0,0,0-2.968,1.83.549.549,0,0,0-.035.068.75.75,0,0,0-.06.054,24.4,24.4,0,0,0-3.944,7.922,32.983,32.983,0,0,0-1.1,8.79c-.033,6.219.407,13.092,4.349,18.207a13.734,13.734,0,0,0,5.855,4.5,101.306,101.306,0,0,1-16.351,4.838c-4.131.844-10.615,1.287-11.516,6.523-.452,2.627.773,5.286,2.3,7.351a23.989,23.989,0,0,0,5.545,5.354,27.511,27.511,0,0,0,15.207,4.794,33.316,33.316,0,0,0,16.88-4.211,19.08,19.08,0,0,0,5.956-5.15,20.6,20.6,0,0,0,3.289-7.291A45.064,45.064,0,0,0,289.923,254.293Zm-1.143,11.535c-.574,5.074-2.272,10.123-6.227,13.556-4.026,3.494-9.625,5.348-14.84,6.022a27.964,27.964,0,0,1-15.665-2.305,24.252,24.252,0,0,1-6.019-4.065,16.116,16.116,0,0,1-4.422-6.141c-.814-2.3-.528-4.813,1.547-6.325a14.425,14.425,0,0,1,5.989-2.042,105.1,105.1,0,0,0,16.8-4.473q2-.723,3.971-1.53c.5-.2.647-1.026,0-1.164-5.608-1.2-8.928-6.514-10.126-11.764a44.637,44.637,0,0,1-.881-9.583,33.84,33.84,0,0,1,.834-8.347,23.567,23.567,0,0,1,3.989-8.39,3.888,3.888,0,0,1,3.066-1.53,6.185,6.185,0,0,1,3.566,1.568,40.022,40.022,0,0,1,5.244,5.2,54.788,54.788,0,0,1,8.087,12.39A53.9,53.9,0,0,1,288.78,265.828Z"/><path d="M258.236,250.555q-.5-2.763-1.116-5.5-1.262-5.608-3-11.094c-1.152-3.626-2.452-7.211-3.919-10.722-1.257-3.008-2.81-5.863-5.736-7.527-3.085-1.754-6.462-1.693-9.9-1.568-3.69.134-7.371.453-11.043.828-7.648.779-15.269,1.763-22.94,2.292-3.974.273-7.952.5-11.917.893-1.9.186-3.792.4-5.677.687-1.423.215-3.124.57-3.964,1.87a5.276,5.276,0,0,0-.628,3.63q2.613,11.891,5.227,23.782c.72,3.273,1.254,6.693,2.609,9.78a10.313,10.313,0,0,0,6.483,5.957c3.379,1.049,7.166.927,10.665.975,4,.055,7.991-.05,11.98-.281,7.955-.461,15.873-1.428,23.746-2.646,3.96-.613,7.911-1.291,11.855-2,2.837-.513,6.989-.755,7.676-4.262A13.984,13.984,0,0,0,258.236,250.555Zm-1.055,5.663c-.682,1.34-2.306,1.725-3.658,1.993-3.7.734-7.426,1.35-11.147,1.96-7.483,1.229-15,2.256-22.564,2.867a150.027,150.027,0,0,1-22.454.376c-3.125-.218-6.347-.879-8.457-3.394-1.9-2.262-2.592-5.325-3.216-8.138q-2.475-11.161-4.908-22.331l-1.216-5.53a3.111,3.111,0,0,1,1.48-3.443,17.014,17.014,0,0,1,5.139-.949c3.726-.437,7.47-.7,11.212-.946,7.324-.488,14.6-1.244,21.9-2.052,3.531-.391,7.065-.763,10.608-1.021,1.72-.125,3.443-.223,5.167-.277a26.6,26.6,0,0,1,4.905.085,10.525,10.525,0,0,1,7.747,5.372,59.645,59.645,0,0,1,3.879,9.435,133.137,133.137,0,0,1,5.572,21.177C257.432,252.91,257.918,254.768,257.181,256.218Z"/><path d="M215.687,234.754c-1.423,1.829-4.074,5.489-3.262,8.016a5.919,5.919,0,0,0,5.5,4.017,5.743,5.743,0,0,0,5.377-4.125,7.587,7.587,0,0,0-.47-4.7c-.905-2.268-2.7-4.4-5.574-4.083A2.318,2.318,0,0,0,215.687,234.754Z"/><path class="a" d="M234.836,266.416c-2.248-2.485-3.779-4.862-6.569-10.923a7.394,7.394,0,0,1-.827-4.107,3.037,3.037,0,0,1,2.768-2.721,3.766,3.766,0,0,1,2.882,2.217,12.543,12.543,0,0,0,1.987,3.226A10.726,10.726,0,0,1,233.758,250a3.654,3.654,0,0,1,1.964-3.574c1.526-.623,3.329.33,4.216,1.719a11.7,11.7,0,0,1,2.028,4.7,38.5,38.5,0,0,1-.3-4.728c.165-1.6,1.379-3.408,2.953-3.08,1.03.214,1.65,1.24,2.145,2.168L251,255.13c.719,1.347,1.625,2.847,3.318,2.821a3.21,3.21,0,0,0,2.892-2.52c.706-2.585-.624-4.951-.92-7.452-.165-1.4.369-3.226,1.775-3.325,1.312-.093,2.11,1.387,2.518,2.637,1.354,4.15,2.24,8.565,1.565,12.878s-3.127,8.519-7.046,10.444c-3.047,1.5-6.926,3.025-10.219,2.2C241.922,272.073,238.856,270.861,234.836,266.416Z"/><path d="M224.677,227.613a1.536,1.536,0,0,0-1.931-1.074,4.389,4.389,0,0,0-2.309,1.752,3.069,3.069,0,0,0-.008-.407,2.036,2.036,0,0,0-1.811-1.825,2.768,2.768,0,0,0-2.428,1.122,3.811,3.811,0,0,0-.632,1.485c-.186-.332-.353-.674-.55-1-.4-.662-.848-1.5-1.635-1.768a1.331,1.331,0,0,0-1.628.669,3.88,3.88,0,0,0-.141,2.177c.311,3.2,1.08,6.812,4.509,7.946a6.259,6.259,0,0,0,5.37-.493c1.723-1.162,2.556-3.657,2.986-5.581A6.325,6.325,0,0,0,224.677,227.613Zm-1.2,1.782a13.822,13.822,0,0,1-.6,2.413c-.455,1.321-1.13,3.032-2.51,3.619a5.408,5.408,0,0,1-3.932.1c-2.461-.815-3.149-3.358-3.489-5.672-.084-.569-.141-1.141-.186-1.715-.037-.478-.058-1.532.6-.782a17,17,0,0,1,2.077,3.589c.281.56,1.109.261,1.126-.305a5.21,5.21,0,0,1,.5-2.6,1.47,1.47,0,0,1,1.727-.706c.653.324.471,1.27.4,1.854a5.212,5.212,0,0,0,.05,2.1.609.609,0,0,0,1.165,0,5.193,5.193,0,0,1,2.283-3.428C223.8,227.22,223.575,228.761,223.476,229.4Z"/><circle cx="139.933" cy="146.968" r="1.541"/><circle cx="165.737" cy="145.849" r="1.541"/><path class="a" d="M154.243,142.7a20.3,20.3,0,0,0-5.281.593l-.071.05a28.086,28.086,0,0,1,.05,3.928,6.137,6.137,0,0,0,.856,3.588,2.641,2.641,0,0,0,1.5.9,2.4,2.4,0,0,0,1.664-.041c1.08-.51,1.741-2.248,1.851-3.95a19.4,19.4,0,0,0-.544-5.028Z"/><path class="d" d="M141.041,141.111a9.412,9.412,0,0,0-6.4.616,1.419,1.419,0,0,0-.458,1.939,1.44,1.44,0,0,0,1.939.458,6.4,6.4,0,0,1,4.269-.27A1.41,1.41,0,0,0,141.041,141.111Z"/><path class="d" d="M167.559,137.284a9.406,9.406,0,0,0-6.331,1.111,1.419,1.419,0,0,0-.306,1.969,1.441,1.441,0,0,0,1.969.306,6.4,6.4,0,0,1,4.235-.6A1.41,1.41,0,0,0,167.559,137.284Z"/><path d="M148.2,146.5a10.167,10.167,0,1,1-8.144-9.967A10.275,10.275,0,0,1,148.2,146.5a.4.4,0,0,0,.805,0,10.973,10.973,0,1,0-8.829,10.761A11.1,11.1,0,0,0,149,146.5.4.4,0,0,0,148.2,146.5Z"/><path d="M55.8,131.522a12.984,12.984,0,0,0,10.006,4.41c3.939-.175,6.395-3.2,8.5-6.18.748-1.061-1-2.067-1.738-1.016-1.724,2.442-3.757,5.148-7.029,5.19A11.092,11.092,0,0,1,57.22,130.1c-.861-.972-2.28.456-1.424,1.423Z"/><path d="M176.246,145.064A10.167,10.167,0,1,1,168.1,135.1a10.274,10.274,0,0,1,8.144,9.966.4.4,0,0,0,.8,0,10.973,10.973,0,1,0-8.829,10.762,11.1,11.1,0,0,0,8.829-10.762A.4.4,0,0,0,176.246,145.064Z"/><path d="M145.241,157.092c2.982,4.043,10.734,4.18,13.235-.462.615-1.14-1.122-2.158-1.738-1.016a5.048,5.048,0,0,1-4.59,2.458c-1.773.009-4.051-.48-5.169-2a1.036,1.036,0,0,0-1.376-.361,1.013,1.013,0,0,0-.362,1.377Z"/><path class="d" d="M179.313,248.3l-.876,1.422a42.118,42.118,0,0,0-1.911-4.188c-.365-.686-1.408-.077-1.043.61A40.048,40.048,0,0,1,177.7,251.1a.54.54,0,0,0-.119.256,116.548,116.548,0,0,0-1.4,31.943q.424,4.463,1.19,8.884c.131.765,1.295.441,1.164-.321a115.47,115.47,0,0,1-1.071-31.224q.459-4.5,1.279-8.961a.627.627,0,0,0,0-.221c.035-.035.079-.05.108-.1l1.508-2.447C180.765,248.246,179.721,247.639,179.313,248.3Z"/><path d="M58.844,278.474a27.825,27.825,0,0,0-3.5,6.744q-.47-2.541-.94-5.083c-.141-.764-1.306-.44-1.165.321q.563,3.036,1.123,6.072l.147.793a.619.619,0,0,0,.086.464l.329,1.779.255,1.38.153.828c.013.069.014.227.032.352a.647.647,0,0,0-.04.858.609.609,0,0,0,.522.3c1.155-.152.75-1.3.6-2.107q-.332-1.794-.664-3.588l-.036-.195c1.13-2.737,2.134-5.715,3.956-8.064C60.169,278.721,59.32,277.86,58.844,278.474Z"/><path d="M129.316,279.6l-1.716,3.68c-.23-.937-.49-1.866-.789-2.785-.239-.736-1.406-.421-1.165.321a38.393,38.393,0,0,1,1.889,11.528.6.6,0,0,0,1.208,0,39.7,39.7,0,0,0-.735-7.094l2.351-5.04C130.686,279.507,129.645,278.893,129.316,279.6Z"/><path class="d" d="M152.868,188.087a28.347,28.347,0,0,1,.5,8.391c-.068.774,1.14.769,1.208,0a29.47,29.47,0,0,0-.544-8.712c-.161-.759-1.326-.438-1.164.321Z"/><path class="d" d="M153.2,215.794a62.366,62.366,0,0,1,.568,6.959.6.6,0,0,0,1.207,0,65.007,65.007,0,0,0-.61-7.28c-.107-.766-1.271-.44-1.165.321Z"/><path class="d" d="M153.383,240.676a16.909,16.909,0,0,1,.359,5.154c-.063.774,1.145.77,1.208,0a18.028,18.028,0,0,0-.4-5.475c-.173-.758-1.338-.437-1.165.321Z"/><path class="d" d="M154.116,260.743a55.225,55.225,0,0,0,.411,8.868c.1.76,1.306.77,1.208,0a55.341,55.341,0,0,1-.412-8.868c.027-.778-1.181-.777-1.207,0Z"/><path d="M169.7,89.84a73.838,73.838,0,0,0-12.625,9.444,55.9,55.9,0,0,1-5.724-7.173.615.615,0,0,0-.949-.122,17.064,17.064,0,0,0-4.574,6.923q-12.462-3.239-24.975-6.269c-.755-.183-1.077.981-.321,1.164q12.777,3.093,25.5,6.4a.615.615,0,0,0,.742-.422,15.85,15.85,0,0,1,3.982-6.43,57.883,57.883,0,0,0,5.849,7.2.615.615,0,0,0,.854,0,72.419,72.419,0,0,1,12.851-9.674A.6.6,0,0,0,169.7,89.84Z"/><path d="M251.605,78.964V83.58a1.75,1.75,0,0,0,.265.949,60.533,60.533,0,0,1-1.551,11.161,28.723,28.723,0,0,1-2.653,6.942,9.921,9.921,0,0,1-4.737,4.677,23.154,23.154,0,0,1-4.369.942l-4.8.848c-.764.135-.44,1.3.321,1.164l4.386-.775a35.179,35.179,0,0,0,4.277-.842,10.066,10.066,0,0,0,5.276-4.277c2.863-4.3,4-9.675,4.6-14.725.174-1.448.295-2.9.4-4.356a1.756,1.756,0,0,0,2.206-1.708V78.964A1.813,1.813,0,0,0,251.605,78.964Z"/><path d="M233.722,108.427l8.509-1.827c.76-.163.438-1.328-.321-1.165l-8.509,1.828C232.641,107.426,232.963,108.59,233.722,108.427Z"/><path class="h" d="M201.944,53.337A21.651,21.651,0,0,0,199.453,63.7a1.007,1.007,0,0,0,2.013,0,19.479,19.479,0,0,1,2.216-9.346c.6-1.146-1.136-2.165-1.738-1.016Z"/><path class="h" d="M205.155,64.477a41.713,41.713,0,0,0-1.191,9.165,1.007,1.007,0,0,0,2.013,0,39.159,39.159,0,0,1,1.119-8.629c.308-1.258-1.633-1.8-1.941-.536Z"/><path class="h" d="M200.918,80.738l-.806,6.023c-.072.543.515,1,1.007,1.006a1.031,1.031,0,0,0,1.006-1.006l.806-6.023c.073-.543-.514-1-1.006-1.007a1.033,1.033,0,0,0-1.007,1.007Z"/><path class="h" d="M212.2,58.8a8.415,8.415,0,0,1,4.954-4.675c1.217-.419.694-2.364-.535-1.941a10.354,10.354,0,0,0-6.157,5.6,1.041,1.041,0,0,0,.361,1.377A1.014,1.014,0,0,0,212.2,58.8Z"/><path class="h" d="M208.689,50.212a12.26,12.26,0,0,1,5.6-3.6c1.235-.376.709-2.319-.535-1.941a14.253,14.253,0,0,0-6.49,4.12c-.861.963.558,2.391,1.424,1.423Z"/><path class="h" d="M205.619,93.882q-.49,6.019-.446,12.065a1.007,1.007,0,0,0,2.013,0q-.045-6.041.446-12.065c.1-1.291-1.908-1.284-2.013,0Z"/><path class="h" d="M200.239,98.493l-.981,11.014c-.114,1.289,1.9,1.282,2.013,0l.981-11.014c.115-1.29-1.9-1.282-2.013,0Z"/><path d="M110.62,232.222a117.09,117.09,0,0,1-15.549,35.636c-1.814,2.777-3.764,5.461-5.809,8.071a.689.689,0,0,0-.089-.015c-4.993-15.5-6.387-31.82-8.471-47.895-.53-4.088-1.124-8.167-1.814-12.232a1.635,1.635,0,0,0,.953-1.554v-.355a1.813,1.813,0,0,0-3.624,0v.355a1.677,1.677,0,0,0,1.483,1.723c2.714,15.933,3.641,32.141,7.034,47.963A124.754,124.754,0,0,0,88.4,277.45c0,.008.011.013.014.021q-.672,7.894-.885,15.818a.6.6,0,0,0,1.208,0q.2-7.938.887-15.852a118.467,118.467,0,0,0,18.92-34.1q1.882-5.314,3.245-10.794A.6.6,0,0,0,110.62,232.222Z"/></svg>