<svg xmlns="http://www.w3.org/2000/svg" viewBox="0 0 300 300"><defs><style>.a{fill:#bbe7ff;}.b{fill:#fb0e39;}.c,.h{fill:#fedffd;isolation:isolate;}.c{opacity:0.72;}.d{fill:#ffabd0;}.e{fill:#ffc200;}.f{fill:#ff74c7;}.g{fill:#36345b;}.h{opacity:0.73;}.i{fill:#fff;}</style></defs><title>Virtual Reality VR</title><path class="a" d="M225.05,262.727a204.136,204.136,0,0,0-7.119-31.467,203.562,203.562,0,0,0-11.943-29.876c-2.361-4.757-4.877-9.428-7.649-13.963a51.178,51.178,0,0,0-9.017-11.515,27.71,27.71,0,0,0-4.654-3.44c-.5-.291-1.01-.65-1.523-.89a19.135,19.135,0,0,0-3.542-.889,104.88,104.88,0,0,0-34.154-2.208c-4.945.5-10.2,1.078-14.749,3.183a16.387,16.387,0,0,0-3.166,1.882,4.189,4.189,0,0,0-.941.787c-.034.052,0,.206-.017.24-.086.1-.411.308-.565.445a47.413,47.413,0,0,0-5.253,5.7,89.588,89.588,0,0,0-8.247,12.953,224.157,224.157,0,0,0-13.4,29.67,226.6,226.6,0,0,0-13.45,63.5c-.171,2.618-.308,5.219-.359,7.837a.264.264,0,0,0,.257.257H144.32a13.982,13.982,0,0,0,2.4,0h0a.243.243,0,0,0,.223-.035.276.276,0,0,0,.12-.29c.838-4.278,1.985-8.5,3.045-12.731.993-3.936,1.968-7.888,2.944-11.824q2.592,12.346,5.167,24.709a.257.257,0,0,0,.24.188h65.6a19.825,19.825,0,0,0,2.67,0h.119a.264.264,0,0,0,.257-.257A201.925,201.925,0,0,0,225.05,262.727Z"/><path class="b" d="M66.978,109.532a51.876,51.876,0,0,1,4.244,4.209c1.523,1.592,3.063,3.183,4.585,4.774,3.012,3.149,6.041,6.28,9.052,9.428.685.719,1.78-.376,1.095-1.095-3.011-3.148-6.04-6.279-9.051-9.428-1.489-1.557-2.978-3.1-4.466-4.654a57.909,57.909,0,0,0-4.364-4.346c-.77-.616-1.865.479-1.095,1.112Z"/><path class="c" d="M280.181,64.462c-.085-4.039-.188-8.094-.359-12.132a.53.53,0,0,0-.8-.411.513.513,0,0,0-.291-.12,395.933,395.933,0,0,0-58.212-1.112c-2.7.154-5.407.325-8.11.531a65.647,65.647,0,0,0-7.563.684.513.513,0,0,0-.377.5q-.282,21.637.171,43.274c.086,3.782.034,7.6.308,11.362a.515.515,0,0,0,.514.513q29.208-1.051,58.434-.513c5.509.1,11.019.274,16.529.462a.5.5,0,0,0,.513-.514C280.369,92.815,280.455,78.63,280.181,64.462Z"/><path class="d" d="M160.216,70.074a7.424,7.424,0,0,0-6.605-3.268h-.12C146.2,68.859,144.953,77.5,147.023,83.8c1.147,3.474,3.9,7.614,8.094,7.033,5.664-.8,7.084-7.221,7.2-11.961C162.406,75.858,162.047,72.572,160.216,70.074Z"/><path class="e" d="M226.2,13.762a5.941,5.941,0,0,0,1.112-3.953A5.286,5.286,0,0,0,224.639,6.1c-3.148-1.831-7.478-1.112-10.643.291A17.088,17.088,0,0,0,209.273,9.6a35.72,35.72,0,0,1-4.466,4.055c-3.234,2.173-7.409,2.259-10.591,4.569-4.774,3.49-6.092,9.736-9.822,14.1a11.161,11.161,0,0,1-3.422,2.772c-1.746.89-3.679,1.232-5.271,2.413-2.686,1.968-4.157,5.133-5.3,8.162-1.3,3.473-2.293,7.272-4.842,10.095-1.352,1.489-3.115,2.327-4.757,3.44a9.347,9.347,0,0,0-3.3,3.935c-.718,1.574,8.864-.017,9.891-1.215,1.488-1.728,3.405-1.66,5.509-1.848a5.913,5.913,0,0,0,4-1.831c1.215-1.266,2.088-2.857,3.645-3.747a14.372,14.372,0,0,1,5.27-1.352A11.093,11.093,0,0,0,190.4,51.7a12.6,12.6,0,0,0,3.028-3.217,9.882,9.882,0,0,1,3.525-3.4c2.019-.907,4.312-.257,6.451-.513,3.166-.377,5.63-2.584,7.426-5.065a29.173,29.173,0,0,0,2.584-4.415c.839-1.711,1.66-3.61,3.3-4.705,1.54-1.044,3.49-1.25,5-2.4a6.011,6.011,0,0,0,2.361-3.85c.308-2.036-.753-4.055-.256-6.074C224.211,16.448,225.34,15.148,226.2,13.762Z"/><path class="f" d="M254.224,69.082a.589.589,0,0,0-.36-.24c-3.114-.787-6.194-1.711-9.325-2.515-.821-.206-1.66-.411-2.5-.6a4.024,4.024,0,0,0-1.181-.24c-.667.069-1.506.856-2.053,1.232-.77.531-1.523,1.095-2.242,1.694-.667.548-1.317,1.13-1.95,1.728-.479.462-1.318,1.044-1.4,1.763v.154c-.907,4.7-2,9.394-3.115,14.048a.61.61,0,0,0,.325.633,62.285,62.285,0,0,0,14.425,3.491.7.7,0,0,0,.53-.052c1.506-1.18,2.909-2.464,4.33-3.764a9,9,0,0,0,1.848-1.745,8.928,8.928,0,0,0,.53-2.533c.787-4.175,1.574-8.333,2.361-12.508A.508.508,0,0,0,254.224,69.082ZM235.8,70.656a31.027,31.027,0,0,1,3.7-2.978c.291-.2.582-.393.873-.581-.017.017.667-.445.565-.445a6.245,6.245,0,0,1,1.266.291c1.283.291,2.549.616,3.816.975,2.224.6,4.448,1.232,6.673,1.814-1.523,1.506-3.063,2.977-4.569,4.517-.137.137-.274.291-.41.428-2.31-.359-4.62-.77-6.9-1.283-1.181-.257-2.362-.548-3.542-.856-.582-.154-1.147-.308-1.728-.479-.189-.051-.633-.137-.924-.24A7.514,7.514,0,0,1,235.8,70.656Zm15.349,10.13c-.171.889-.325,1.762-.5,2.652a1.444,1.444,0,0,1-.633,1.112c-.36.325-.719.65-1.061.975-.924.856-1.848,1.711-2.807,2.516a79.392,79.392,0,0,0,2.379-12.509c1.54-1.386,3.011-2.84,4.432-4.363C252.342,74.386,251.76,77.586,251.144,80.786Z"/><path class="f" d="M89.069,45.708c-1.814-4.517-3.611-9.052-5.219-13.637,0-.018,0-.018-.017-.018v-.034c-.206-.7-1.113-1.163-1.66-1.54-.7-.5-1.438-.975-2.173-1.42q-1.208-.719-2.464-1.335a5.8,5.8,0,0,0-2.208-.924,3.892,3.892,0,0,0-1.129.411c-.8.325-1.591.65-2.378.975-2.961,1.249-5.869,2.635-8.847,3.867a.7.7,0,0,0-.376.445.546.546,0,0,0-.052.5c1.386,4,2.79,8.007,4.176,12.011a8.983,8.983,0,0,0,.906,2.43A9.007,9.007,0,0,0,69.7,48.891c1.574,1.078,3.165,2.138,4.825,3.08a.532.532,0,0,0,.223.051A.691.691,0,0,0,75,52.005a62.276,62.276,0,0,0,13.843-5.613A.618.618,0,0,0,89.069,45.708Zm-14.8-17.231A5.777,5.777,0,0,1,75.517,28c-.308-.017.581.394.564.377.325.136.65.29.958.444a29.684,29.684,0,0,1,4.09,2.4,8.51,8.51,0,0,1,1.386,1.01,7.346,7.346,0,0,1-.924.393c-.53.24-1.078.479-1.626.719-1.112.479-2.241.941-3.37,1.369-2.174.821-4.381,1.574-6.605,2.275-.034-.034-.086-.051-.12-.085-.137-.1-.257-.206-.394-.308-1.557-1.181-3.131-2.31-4.7-3.439-.154-.12-.308-.24-.462-.377,2.122-.907,4.209-1.865,6.331-2.789C71.838,29.47,73.053,28.956,74.267,28.477Zm-5.133,18.6a1.41,1.41,0,0,1-.787-.993c-.308-.855-.6-1.694-.89-2.549q-1.617-4.645-3.234-9.309c1.54,1.215,3.115,2.379,4.74,3.457.1.085.223.171.325.257a79.611,79.611,0,0,0,4.175,11.994q-1.591-1-3.131-2.053C69.938,47.607,69.545,47.334,69.134,47.077Z"/><path class="d" d="M135.816,60.817a1.407,1.407,0,0,0-1.2.12c.291-.582.565-1.181.8-1.8a2.484,2.484,0,0,0,.188-2c-.513-1.009-1.454-.821-2.241-.359.53-1.147.873-2.618-.428-2.738a4.406,4.406,0,0,0-2.293.873,9.707,9.707,0,0,0-1.044.77,1.051,1.051,0,0,0-.7-1.267c-1.2-.479-2.618.839-3.457,1.506a34.843,34.843,0,0,0-7.135,8.128c-1.026,1.506-2,3.063-2.96,4.6a14.684,14.684,0,0,0-2.224,5.15,6.884,6.884,0,0,0,.855,4.791c.907,1.523,2.413,2.824,2.943,4.552a6.139,6.139,0,0,1-.7,4.979,30.939,30.939,0,0,1-2.67,3.85,2.083,2.083,0,0,1-.239-.171c-.274-.188-.531.257-.257.445,3.4,2.293,6.571,5.27,10.592,6.451.616.188,1.608.581,2.224.239a1.618,1.618,0,0,0,.531-.6,8.806,8.806,0,0,1,1.026-1.214,12.784,12.784,0,0,0,1.746-1.848c.6-.89,1.18-1.8,1.813-2.67a11.272,11.272,0,0,0,2.362-5.321,8.19,8.19,0,0,0-1.112-5.442,27.866,27.866,0,0,1-1.78-2.446,4.893,4.893,0,0,1,.257-4.278c.924-2.071,2.224-3.953,3.3-5.955a19.335,19.335,0,0,0,2.43-6.553C136.534,61.963,136.534,61.125,135.816,60.817Z"/><path d="M129.245,55.239a64.5,64.5,0,0,0-6.519,9.514.514.514,0,0,0,.89.513,62.679,62.679,0,0,1,6.348-9.291c.428-.514-.308-1.232-.719-.736Z"/><path d="M133.489,55.94c-1.215,1.609-2.7,2.961-3.97,4.535a18.514,18.514,0,0,0-3.063,5.51c-.222.633.77.889.992.273a17.649,17.649,0,0,1,3.269-5.612c1.2-1.4,2.549-2.7,3.661-4.192.394-.531-.5-1.044-.889-.514Z"/><path d="M134.84,60.081a38.7,38.7,0,0,0-6.211,9.172c-.274.6.616,1.112.89.513a37.926,37.926,0,0,1,6.057-8.966c.428-.5-.291-1.215-.736-.719Z"/><path class="d" d="M195.6,197q-1.515-5.184-2.687-10.472a.254.254,0,0,0-.5.052l-6.417.085a.214.214,0,0,0-.239-.256c-1.472.154-1.934-1.763-2.276-2.858a9,9,0,0,0-1.66-3.251c-1.968-2.327-4.945-3.405-7.888-3.867a72.242,72.242,0,0,0-10.523-.736c-1.848-.034-3.7,0-5.544.069a11.863,11.863,0,0,0-4.4.53c-.958.462-1.779,1.711-1.18,2.755a1.483,1.483,0,0,0,.239.308,13.683,13.683,0,0,0-1.865.068c-1.249.1-2.772.24-3.61,1.318-1.232,1.591,1.249,2.413,3.371,2.772a4.563,4.563,0,0,0-2.413.547,1.893,1.893,0,0,0-.839,2.567c.6.975,1.917,1.232,2.944,1.386,1.642.24,3.285.479,4.945.719a3.633,3.633,0,0,0-2.55.77c-.873,1.026.1,2.1,1.078,2.5a7.9,7.9,0,0,0,2.361.428c1.215.085,2.43.137,3.628.137,1.215,0,2.43-.052,3.627-.154.548-.052,1.1-.1,1.643-.171a3.666,3.666,0,0,1,2.1.068,5.262,5.262,0,0,1,1.8,2.464c.377.77.719,1.557,1.044,2.344a22.891,22.891,0,0,0,2.259,4.483,7.348,7.348,0,0,0,3.336,2.738,8.961,8.961,0,0,0,5.9-.137,48.05,48.05,0,0,0,7-3.08q3.645-1.822,7.187-3.833A.254.254,0,0,0,195.6,197Z"/><path d="M153.166,179.345c4.158.308,8.47-.924,12.508.462.634.222.89-.77.274-.993-4.158-1.42-8.521-.188-12.782-.5-.65-.051-.65.976,0,1.027Z"/><path d="M150.257,184.085c2.259-.052,4.518-.12,6.759-.172,2.276-.051,4.569-.171,6.828,0,.667.052.65-.975,0-1.026-2.276-.171-4.552-.052-6.828,0-2.258.051-4.517.12-6.759.171a.514.514,0,0,0,0,1.027Z"/><path d="M154.638,189.064c3.816-.462,7.648-.77,11.5-.958.651-.035.668-1.061,0-1.027q-5.748.282-11.5.958c-.65.069-.65,1.095,0,1.027Z"/><path d="M175.565,75.173a19.464,19.464,0,0,0-2.054-4.791c-.907-1.677-2.036-3.217-2.926-4.911-2.6-5-16.6-2.652-27.189-1.044a9.911,9.911,0,0,0-3.765,1.369,6.566,6.566,0,0,0-3.1,7.29,59.229,59.229,0,0,0,2.071,6.382c.616,1.557,1.18,3.131,2.84,3.816a13.3,13.3,0,0,0,5.544.872c1.284-.068,3.132-.291,3.867-1.523a3.717,3.717,0,0,0,.24-.735c.1-.257-.257-.907.6-.668.308.086.479.719.564.976a4.143,4.143,0,0,0,1.267,1.985c1.454,1.18,3.507.941,5.253.941,2.275-.017,4.568-.069,6.827-.257a23.777,23.777,0,0,0,6.023-.924,5.716,5.716,0,0,0,3.234-3.508A8.381,8.381,0,0,0,175.565,75.173Z"/><path d="M170.774,67.114a12.279,12.279,0,0,0-1.934.256.257.257,0,0,0-.188.24c.017.462,0,.907.017,1.369a5.711,5.711,0,0,0,.017,1.078c.068.291.171.359.445.428a6.363,6.363,0,0,0,1.608,0c.24-.017.445,0,.582-.24a3.023,3.023,0,0,0,.068-1.181c0-.41-.017-.838-.051-1.249a1.161,1.161,0,0,0-.188-.753.265.265,0,0,0-.359,0c0,.018-.017.018-.017.052a.236.236,0,0,0-.052.308.059.059,0,0,0,.017.034c.137.308.582.034.445-.257a.059.059,0,0,0-.017-.034,1.9,1.9,0,0,0-.034.308l.034-.034h-.359c.154.154.085,1.027.085,1.283a5.471,5.471,0,0,1-.051,1.4l.171-.171a3.882,3.882,0,0,1-1.181.052c-.188,0-.513.051-.65-.137-.051-.086,0-.325,0-.411,0-.6,0-1.215-.017-1.814a2.954,2.954,0,0,1-.188.24,10.752,10.752,0,0,1,1.8-.24c.326-.034.343-.547,0-.53Z"/><path d="M136.894,69.869c.7-.035,1.4-.069,2.087-.086l-.256-.257a13.394,13.394,0,0,1-.189,2.345,2.792,2.792,0,0,0,.24-.189l-2.105.257c.086.1.171.223.24.325.171-.941-.154-1.831.376-2.72a.257.257,0,0,0-.445-.257,2.877,2.877,0,0,0-.41,1.163c-.069.565.068,1.113-.034,1.66-.035.137.068.342.239.325l2.1-.256c.1-.017.222-.069.239-.189a14.994,14.994,0,0,0,.206-2.481.263.263,0,0,0-.257-.256c-.7.034-1.4.068-2.088.085-.273.034-.273.548.052.531Z"/><path class="g" d="M171.116,66.772a5.812,5.812,0,0,0-5.031-4.4,44.347,44.347,0,0,0-5.647.069c-2.019.085-4.021.222-6.04.41-3.935.36-7.837.924-11.721,1.643l-.1.051a8.05,8.05,0,0,0-5.425,3.593c-1.214,2.174-1.334,5.2.445,7.1,1.626,1.745,4.141,2,6.366,2.121,2.891.171,5.783-.017,8.675-.1a89.5,89.5,0,0,0,10.044-.6c2.464-.342,5.63-.8,7.46-2.687C171.937,72.127,171.851,69.064,171.116,66.772Z"/><path d="M139.58,68.431a8.6,8.6,0,0,0-2.378.171.287.287,0,0,0-.206.086c-.017.017-.051.017-.068.034h0c-.274.171-.428.668-.53.924a4.655,4.655,0,0,0-.291,1.934c.017.12.1.274.256.256.616-.068,1.249-.136,1.865-.2.343-.034.959.034,1.249-.2.291-.223.223-.822.24-1.13a5.639,5.639,0,0,0,.034-1.694A.245.245,0,0,0,139.58,68.431Z"/><path d="M171.988,69.646a14.42,14.42,0,0,0-.77-2.926c-.119-.393-.119-.393-.273-.427a11.483,11.483,0,0,0-2.772-.137.263.263,0,0,0-.257.256,18.753,18.753,0,0,0,.137,3.251.264.264,0,0,0,.257.257l3.439.051A.251.251,0,0,0,171.988,69.646Z"/><path class="b" d="M261.12,147.929a41.917,41.917,0,0,0-6.537-17.077c-5.065-7.768-12.012-14.065-19.335-19.66a111.438,111.438,0,0,0-24.161-14.237,81.534,81.534,0,0,0-27.994-6.5,67.775,67.775,0,0,0-14.869.941c-2.413.428-4.774,1.113-7.2,1.506-1.523.24-3.063.359-4.6.479-4.329.342-8.709.188-13.021.719a28.945,28.945,0,0,0-7.409,1.814,19.765,19.765,0,0,0-3.285,1.676c-.668.411-1.352,1.147-2.088,1.506.308-1.437.633-2.857.941-4.277a.245.245,0,0,0-.171-.308,68.566,68.566,0,0,1-8.692-3.166,38.213,38.213,0,0,1-7.871-4.312.275.275,0,0,0-.36.086c-.171.376-.718.616-1.061.855-.479.342-.958.667-1.437,1.01-.958.684-1.9,1.386-2.84,2.087-1.763,1.335-3.491,2.721-5.185,4.141A128.146,128.146,0,0,0,94.1,104.4a131.887,131.887,0,0,0-23.254,32.733A60.473,60.473,0,0,0,66,149.332a56.274,56.274,0,0,0-1.489,12.645,36.974,36.974,0,0,0,1.8,12.525A28.158,28.158,0,0,0,82.036,191.87a32.039,32.039,0,0,0,22.176,1.112,34.839,34.839,0,0,0,9.65-5.27,47.111,47.111,0,0,0,7.666-7.563c2.071-2.344,3.747-4.74,6.417-6.468a20.984,20.984,0,0,1,2.447-1.471,15.568,15.568,0,0,1,2.943-.805q3.361-.795,6.776-1.283a128.53,128.53,0,0,1,26.282-.787,66.2,66.2,0,0,1,14.168,2.447,19.491,19.491,0,0,1,5.664,2.5,12.194,12.194,0,0,1,1.9,1.608c.257.274.5.548.736.839.034.034.5.565.479.667a7.4,7.4,0,0,1-.856.668c-1.437,1.112-2.908,2.138-4.414,3.131a.277.277,0,0,0-.12.291,24.168,24.168,0,0,0,.856,3.08c.393,1.317.821,2.635,1.232,3.935.821,2.55,1.659,5.082,2.481,7.615.787,2.429,1.574,4.876,2.31,7.323.291.993.222,2.242,1.386,2.4a13.18,13.18,0,0,0,3.285-.137c1.814-.206,3.627-.514,5.424-.856a132.551,132.551,0,0,0,16-4.192c9.086-2.994,17.915-7,25.5-12.919a50.323,50.323,0,0,0,16.153-21.286A37.461,37.461,0,0,0,261.12,147.929Z"/><path class="a" d="M129.4,100.891c-1.831,7.58-3.508,15.194-5.612,22.689a121.478,121.478,0,0,1-6.845,18.514c-2.036,4.363-4.277,8.624-6.587,12.833-.48.873.855,1.643,1.334.77a167.514,167.514,0,0,0,10.13-21.149,162.1,162.1,0,0,0,5.7-19.164c1.146-4.688,2.241-9.394,3.371-14.082.222-.959-1.249-1.369-1.489-.411Z"/><path class="a" d="M226.829,149.657q-3.876,2.259-7.648,4.654a37.83,37.83,0,0,0-8.967-6.023c-.889-.427-1.677.907-.787,1.335a37.154,37.154,0,0,1,8.4,5.561q-10.19,6.544-19.746,14-3.876,3.028-7.632,6.194c-.753.667.342,1.745,1.095,1.112a257.431,257.431,0,0,1,27.669-20.362q4.158-2.643,8.384-5.133A.771.771,0,0,0,226.829,149.657Z"/><path class="b" d="M148.786,261.033a15.587,15.587,0,0,1,3.183,7.511c.136.976,1.676.976,1.54,0a17.048,17.048,0,0,0-3.406-8.281c-.581-.77-1.916-.017-1.317.77Z"/><path class="c" d="M82.891,107.188c-.085-4.038-.188-8.094-.359-12.132a.53.53,0,0,0-.8-.411.506.506,0,0,0-.291-.119,395.931,395.931,0,0,0-58.212-1.113c-2.7.154-5.407.326-8.11.531a65.687,65.687,0,0,0-7.563.684.514.514,0,0,0-.377.5q-.282,21.636.171,43.273c.086,3.782.035,7.6.308,11.362a.515.515,0,0,0,.514.513q29.208-1.052,58.434-.513c5.509.1,11.019.274,16.529.462a.5.5,0,0,0,.513-.513C83.08,135.541,83.165,121.356,82.891,107.188Z"/><path class="h" d="M130.186,184.478c-.085-4.038-.188-8.093-.359-12.132a.54.54,0,0,0-.8-.41.412.412,0,0,0-.291-.12A395.8,395.8,0,0,0,70.52,170.7c-2.7.154-5.407.325-8.11.53a65.648,65.648,0,0,0-7.563.685.512.512,0,0,0-.377.5q-.282,21.636.171,43.274c.086,3.781.034,7.6.308,11.361a.516.516,0,0,0,.513.514q29.21-1.053,58.435-.514c5.509.1,11.019.274,16.529.462a.5.5,0,0,0,.513-.513C130.374,212.831,130.46,198.646,130.186,184.478Z"/><path class="c" d="M120.365,193.119c-.086-4.038-.189-8.093-.36-12.132a.527.527,0,0,0-.8-.41.5.5,0,0,0-.291-.12A395.792,395.792,0,0,0,60.7,179.345c-2.7.154-5.407.325-8.11.53a65.688,65.688,0,0,0-7.563.685.512.512,0,0,0-.377.5q-.282,21.637.171,43.274c.086,3.781.035,7.6.308,11.361a.516.516,0,0,0,.514.514q29.208-1.053,58.434-.514c5.51.1,11.019.274,16.529.462a.5.5,0,0,0,.513-.513C120.553,221.472,120.638,207.287,120.365,193.119Z"/><path d="M147.759,75.242a64.715,64.715,0,0,1,8.539-.514.513.513,0,0,0,0-1.026,64.54,64.54,0,0,0-8.539.513c-.65.068-.65,1.095,0,1.027Z"/><path class="i" d="M261.393,65.711a22.011,22.011,0,0,0-11.447-9.035,20.733,20.733,0,0,0-3.525-.838.891.891,0,0,0-.325-.069c-7.991.017-16.546,1.985-21.474,8.778-3.867,5.322-4.791,12.662-3.833,19.01.7,4.689,2.789,9.24,6.622,12.149,4.432,3.371,10.472,4.192,15.879,4.432a20.865,20.865,0,0,0,8.692-1.2,18.134,18.134,0,0,0,6.023-3.952,23.474,23.474,0,0,0,6.554-13.364A23.748,23.748,0,0,0,261.393,65.711ZM246.627,98.6a38.37,38.37,0,0,1-8.4-.462,24.789,24.789,0,0,1-7.426-2.122,15.594,15.594,0,0,1-8.059-10.54c-1.489-5.955-.924-13.158,2.207-18.548,3.61-6.212,10.506-8.847,17.385-9.429,1.266-.1,2.515-.154,3.781-.154h.017a20.1,20.1,0,0,1,11.91,6.5,21.154,21.154,0,0,1,5.236,14.014C263.344,87.63,257.047,97.811,246.627,98.6Z"/><path class="i" d="M57.191,112.441a16.036,16.036,0,0,0-10.352-6.3.778.778,0,0,0-.206-.017c-5.886.017-12.166,1.471-15.81,6.5-2.824,3.9-3.491,9.291-2.807,13.946a13.611,13.611,0,0,0,4.86,8.931c3.268,2.5,7.751,3.132,11.755,3.3a13.937,13.937,0,0,0,10.712-3.747,17.81,17.81,0,0,0,1.848-22.621ZM46.7,137.235a27.484,27.484,0,0,1-6.143-.411,17.374,17.374,0,0,1-5.287-1.608,11.256,11.256,0,0,1-5.544-7.735,18.538,18.538,0,0,1,1.694-13.038c3.1-5.27,9.342-6.759,15.074-6.793a14.839,14.839,0,0,1,12.372,14.938C58.816,129.637,54.2,136.807,46.7,137.235Z"/><path class="i" d="M45.915,111.705H45.88c-.051,0-.1-.017-.154-.017-3.918.017-8.025,1.01-10.42,4.346a12.757,12.757,0,0,0-1.746,9.394,8.806,8.806,0,0,0,3.44,5.8c2.139,1.523,5.03,1.9,7.58,1.985a9.218,9.218,0,0,0,7.033-2.584,11.334,11.334,0,0,0,3.114-6.519C55.5,118.361,51.818,112.6,45.915,111.705Zm-.394,19.969a14.421,14.421,0,0,1-6.947-1.267,6.977,6.977,0,0,1-3.422-4.774,11.6,11.6,0,0,1,1.061-8.179c1.95-3.319,5.9-4.192,9.5-4.209h.052a9.246,9.246,0,0,1,7.546,9.257C53.289,127.019,50.312,131.5,45.521,131.674Z"/><path class="f" d="M43.091,116.787a4.889,4.889,0,0,1,2.054.034c.958.206,1.386-1.266.41-1.488a7.06,7.06,0,0,0-2.874-.035c-.959.189-.548,1.677.41,1.489Z"/><path class="f" d="M43.091,119.662a4.889,4.889,0,0,1,2.054.034c.958.2,1.386-1.266.41-1.489a7.077,7.077,0,0,0-2.874-.034c-.976.188-.565,1.677.41,1.489Z"/><path class="f" d="M43.091,128.9a4.889,4.889,0,0,1,2.054.034c.958.2,1.386-1.266.41-1.489a7.077,7.077,0,0,0-2.874-.034c-.976.2-.565,1.677.41,1.489Z"/><path class="f" d="M43.091,125.719a4.889,4.889,0,0,1,2.054.034c.958.206,1.386-1.266.41-1.488a7.06,7.06,0,0,0-2.874-.035c-.976.189-.565,1.677.41,1.489Z"/><path class="f" d="M43.091,122.536a4.889,4.889,0,0,1,2.054.035c.958.2,1.386-1.267.41-1.489a7.06,7.06,0,0,0-2.874-.034c-.976.188-.565,1.659.41,1.488Z"/><path class="a" d="M245.566,195.4a14.752,14.752,0,0,0-2.413,6.314c-.188,1.369,1.916,1.968,2.105.582a13.621,13.621,0,0,1,2.19-5.8c.787-1.163-1.112-2.241-1.882-1.095Z"/><path class="a" d="M242.674,207.578a43.3,43.3,0,0,0,.188,6.656c.154,1.386,2.327,1.386,2.173,0a41.2,41.2,0,0,1-.188-6.656c.086-1.4-2.088-1.4-2.173,0Z"/><path class="a" d="M244.8,220.5a20.356,20.356,0,0,0,4.106,5.013c1.044.924,2.6-.616,1.54-1.54a18.25,18.25,0,0,1-3.764-4.568,1.089,1.089,0,0,0-1.882,1.1Z"/><path class="a" d="M254.463,229.189c1.694.377,3.371.753,5.065,1.147,1.369.308,1.951-1.8.582-2.105-1.694-.376-3.371-.753-5.065-1.146-1.369-.308-1.95,1.8-.582,2.1Z"/><path class="a" d="M267.536,231.157c2.036.719,3.85-.342,5.852-.5,1.386-.1,1.4-2.276,0-2.173-1.728.119-3.576,1.18-5.287.581-1.318-.479-1.882,1.626-.565,2.088Z"/><path class="a" d="M280.027,227.221a13.442,13.442,0,0,0,4.073-4.585c.65-1.232-1.215-2.345-1.883-1.095a10.98,10.98,0,0,1-3.285,3.8c-1.129.8-.051,2.687,1.095,1.882Z"/><path class="a" d="M287.043,216.972a20.587,20.587,0,0,0,1.488-5.236c.189-1.369-1.9-1.968-2.1-.582a18.048,18.048,0,0,1-1.284,4.723c-.513,1.266,1.352,2.378,1.9,1.095Z"/><path class="a" d="M285.4,200.614a15.559,15.559,0,0,1,.787,5.15,1.087,1.087,0,0,0,2.173,0,17.22,17.22,0,0,0-.872-5.732c-.428-1.335-2.533-.753-2.088.582Z"/><path class="a" d="M279.7,191.973a7.275,7.275,0,0,1,2.875,3.217c.6,1.266,2.481.154,1.882-1.095a9.3,9.3,0,0,0-3.662-4,1.089,1.089,0,0,0-1.1,1.882Z"/><path class="a" d="M251.007,192.093a10.621,10.621,0,0,1,4.894-2.687,1.093,1.093,0,0,0-.582-2.105,12.814,12.814,0,0,0-5.852,3.252c-1.01.975.53,2.515,1.54,1.54Z"/><path class="a" d="M261.068,187.763a14.875,14.875,0,0,1,5.886-.444c1.386.154,1.386-2.02,0-2.174a16.529,16.529,0,0,0-6.468.531,1.084,1.084,0,0,0,.582,2.087Z"/><path class="a" d="M272.481,187.49a10.49,10.49,0,0,1,3.559,1.831,1.118,1.118,0,0,0,1.54,0,1.1,1.1,0,0,0,0-1.54,13.153,13.153,0,0,0-4.517-2.379,1.084,1.084,0,0,0-.582,2.088Z"/><path class="i" d="M75.157,188.482a12.206,12.206,0,0,0-1.95,5.116c-.154,1.113,1.54,1.592,1.694.462a10.819,10.819,0,0,1,1.779-4.688c.633-.958-.89-1.831-1.523-.89Z"/><path class="i" d="M72.83,198.338a35.567,35.567,0,0,0,.154,5.39c.12,1.112,1.882,1.129,1.763,0a35.309,35.309,0,0,1-.154-5.39c.051-1.146-1.712-1.129-1.763,0Z"/><path class="i" d="M74.541,208.793a16.168,16.168,0,0,0,3.337,4.055c.855.753,2.105-.5,1.249-1.249a14.694,14.694,0,0,1-3.046-3.7.89.89,0,0,0-1.54.89Z"/><path class="i" d="M82.361,215.826l4.107.923c1.112.257,1.574-1.454.462-1.693q-2.053-.463-4.107-.924c-1.095-.257-1.557,1.454-.462,1.694Z"/><path class="i" d="M92.953,217.417c1.659.582,3.114-.291,4.739-.411,1.13-.085,1.13-1.848,0-1.762-1.4.1-2.891.958-4.277.462-1.078-.36-1.523,1.334-.462,1.711Z"/><path class="i" d="M103.065,214.234a10.932,10.932,0,0,0,3.3-3.713c.53-.992-.993-1.9-1.523-.89a8.891,8.891,0,0,1-2.669,3.08c-.924.651-.035,2.173.889,1.523Z"/><path class="i" d="M108.746,205.935a16.5,16.5,0,0,0,1.215-4.243c.154-1.112-1.54-1.592-1.694-.462a15.316,15.316,0,0,1-1.027,3.816c-.462,1.026,1.061,1.933,1.506.889Z"/><path class="i" d="M107.411,192.691a12.38,12.38,0,0,1,.634,4.176.882.882,0,0,0,1.762,0,14.242,14.242,0,0,0-.7-4.638c-.342-1.078-2.053-.616-1.694.462Z"/><path class="i" d="M102.809,185.693a5.913,5.913,0,0,1,2.327,2.6c.479,1.027,2,.137,1.523-.89a7.614,7.614,0,0,0-2.961-3.234.882.882,0,0,0-.889,1.523Z"/><path class="i" d="M79.572,185.8a8.662,8.662,0,0,1,3.953-2.173.879.879,0,0,0-.462-1.694,10.537,10.537,0,0,0-4.74,2.618c-.822.8.428,2.036,1.249,1.249Z"/><path class="i" d="M87.717,182.288a12.13,12.13,0,0,1,4.774-.359c1.129.137,1.112-1.626,0-1.763a13.54,13.54,0,0,0-5.236.428.878.878,0,0,0,.462,1.694Z"/><path class="i" d="M96.957,182.083a8.65,8.65,0,0,1,2.874,1.471.922.922,0,0,0,1.249,0,.888.888,0,0,0,0-1.249,11,11,0,0,0-3.644-1.934.889.889,0,0,0-.479,1.712Z"/><path class="b" d="M25.878,56.454Q39.455,71.905,54.316,86.141c.719.685,1.814-.393,1.095-1.095Q40.551,70.827,26.956,55.359c-.651-.736-1.729.359-1.078,1.095Z"/><path class="b" d="M29.984,83.147a198.073,198.073,0,0,0,17.607,18.326c.736.667,1.814-.411,1.1-1.095A195.791,195.791,0,0,1,31.079,82.052c-.65-.753-1.728.342-1.095,1.095Z"/><path class="b" d="M272.652,159.941q9.471,7.341,18.925,14.7c.77.6,1.865-.479,1.1-1.095q-9.471-7.341-18.925-14.7c-.787-.582-1.882.5-1.1,1.095Z"/><path class="b" d="M209.222,196.028q9.009,8.187,18.035,16.358c.736.668,1.831-.428,1.095-1.095q-9.009-8.187-18.035-16.358c-.736-.65-1.831.428-1.095,1.095Z"/><path class="b" d="M109,100.822A110.825,110.825,0,0,1,90.266,85.046c-.684-.719-1.779.377-1.095,1.095a113.7,113.7,0,0,0,19.045,16.016c.838.548,1.608-.787.787-1.335Z"/><path class="b" d="M225.1,194.026q12.807,10.215,24.606,21.577c.718.684,1.8-.394,1.095-1.095Q239,203.164,226.2,192.931c-.77-.6-1.865.479-1.095,1.095Z"/><path class="b" d="M256.14,157.083a78.563,78.563,0,0,1,12.183,11.174c.668.736,1.746-.342,1.1-1.095a82.36,82.36,0,0,0-12.508-11.413c-.787-.582-1.557.753-.77,1.334Z"/><path class="b" d="M59.073,155.441a92.283,92.283,0,0,1,11.054,8.744c.735.667,1.813-.411,1.095-1.1a97.474,97.474,0,0,0-11.362-8.983c-.838-.547-1.608.787-.787,1.335Z"/><path class="i" d="M98.89,190.707q-.411-1.822-.821-3.645c-.223-.958-1.711-.565-1.489.411.1.427.188.872.291,1.3a8.883,8.883,0,0,0-5.835-1.762c-2.84.136-6.125.941-8.145,3.062a12.459,12.459,0,0,0-3.045,7.769c-.223,2.994.119,6.4,2.019,8.846a9.764,9.764,0,0,0,8.521,3.525c.958-.137.975-1.694-.017-1.557a8.513,8.513,0,0,1-6.759-2.31c-1.933-1.865-2.327-4.774-2.293-7.341a12.439,12.439,0,0,1,2.019-7.084c1.523-2.138,4.124-2.926,6.622-3.268a7.856,7.856,0,0,1,6.331,1.66c-.718.017-1.437.017-2.139-.017-.992-.034-.992,1.506,0,1.54a32.357,32.357,0,0,0,3.868-.086.859.859,0,0,0,.479-.188A.749.749,0,0,0,98.89,190.707Z"/></svg>