<svg xmlns="http://www.w3.org/2000/svg" viewBox="0 0 300 300"><defs><style>.a{fill:none;}.b{fill:#84d0ab;}.c{fill:#fcaa2a;}.d{fill:#ff9052;}.e{fill:#de9e55;}.f{fill:#fff;}.g{fill:#fcafb7;}.h{fill:#fee253;}.i{fill:#e9686d;}</style></defs><title>Welcome</title><path d="M150.084,28.609a2.193,2.193,0,0,0-2.272,1.063,30.7,30.7,0,0,1-1.994,2.542,11.4,11.4,0,0,1-2.641,2.067c-1,.558-2.322,1.083-3.393.407a1.488,1.488,0,0,1-.728-1.255,1.6,1.6,0,0,0-.453-1.315.853.853,0,0,0-1.04-.072c-.424.322-.385.983-.443,1.458a9.443,9.443,0,0,0,.416,3.5,9.37,9.37,0,0,1,.423,2.084,7.11,7.11,0,0,1-.128.99,10.554,10.554,0,0,1-.19,1.145,21.671,21.671,0,0,1-1.509,4.066c-.093.206-.04.537.237.581l3.621.572a.413.413,0,0,0,.487-.276,9.72,9.72,0,0,1,2.067-3.414,5.821,5.821,0,0,1,1.461-.966c.655-.35,1.311-.657,2-.948a9.213,9.213,0,0,0,5.343-5.385,8.949,8.949,0,0,0,.3-4.724A2.662,2.662,0,0,0,150.084,28.609Zm-1.649,9.843A11.709,11.709,0,0,1,145,40.415a9.364,9.364,0,0,0-3.109,1.88,10.434,10.434,0,0,0-2.033,3.333l-2.815-.444a25.452,25.452,0,0,0,1.1-2.77,11.554,11.554,0,0,0,.394-1.638,12.2,12.2,0,0,0,.218-1.515,14.668,14.668,0,0,0-.687-3.44,7.061,7.061,0,0,1-.232-1.659c.008-.272.067-.552.1-.822.021-.175-.016-.707.191-.585.255.15.144,1.044.229,1.325a2.263,2.263,0,0,0,.743,1.081,3.092,3.092,0,0,0,2.63.547,10.092,10.092,0,0,0,5.113-3.436,16.478,16.478,0,0,0,1.041-1.331,6.966,6.966,0,0,1,.98-1.253c1.051-.941,1.807.287,2.025,1.255A8.062,8.062,0,0,1,148.435,38.452Z"/><path d="M156.326,32.821a15.016,15.016,0,0,1-4.246,8.725.4.4,0,0,0,.559.56,15.877,15.877,0,0,0,4.478-9.285C157.178,32.316,156.386,32.32,156.326,32.821Z"/><path d="M158.212,40.063a14.874,14.874,0,0,1-4.823,4.2c-.446.245-.047.929.4.683a15.76,15.76,0,0,0,5.106-4.485C159.2,40.053,158.511,39.657,158.212,40.063Z"/><path d="M106.755,118.225c-.216-.58-.461-1.152-.712-1.717A34.5,34.5,0,0,0,104.3,113.1a35.211,35.211,0,0,0-4.516-6.1c-1.384-1.5-3.632-3.512-5.817-2.321-1.972,1.075-.119,3.651-.154,5.214.035,2.586-.557,5.105-.725,7.675a14.676,14.676,0,0,0,.924,6.636c.807,1.925,2.371,3.876,4.5,4.36s3.733-.981,4.393-2.89c.747-2.161.152-4.487.524-6.683a2.4,2.4,0,0,0,1.142,1.311,1.544,1.544,0,0,0,2.186-2.079Zm-1.356,1.467c-1.111.012-1.419-1.387-1.617-2.233-.1-.418-.629-.329-.763,0-.9,2.192-.234,4.516-.578,6.78-.263,1.735-1.3,3.833-3.368,3.624-2.11-.214-3.685-2.29-4.406-4.119a14.105,14.105,0,0,1-.8-6c.152-2.628.772-5.2.736-7.844a6.955,6.955,0,0,0-.437-2.087,3.322,3.322,0,0,1-.237-1.983c.326-.824,1.578-.764,2.261-.55a6,6,0,0,1,2.372,1.593,33.886,33.886,0,0,1,6.929,10.332,8.473,8.473,0,0,1,.658,1.709C106.242,119.423,105.875,119.686,105.4,119.692Z"/><path d="M31.311,148.782l-1.776-7.053c-.592-2.348-1.125-4.721-1.777-7.053-.2-.715-.887-1.185-1.536-.594-.783.712-.07,1.818-.589,2.652-1.24,1.989-4.143.788-5.708-.071a14.036,14.036,0,0,1-2.457-1.723c-.743-.647-1.376-1.381-2.052-2.093a2.963,2.963,0,0,0-2.293-1.181,2.053,2.053,0,0,0-1.624,1.279,7.957,7.957,0,0,0,.168,5.608,10.048,10.048,0,0,0,6.243,6.162,34.333,34.333,0,0,1,3.558,1.14A6.367,6.367,0,0,1,25,150.6a.4.4,0,0,0,.487.276l5.547-1.609a.364.364,0,0,0,.216-.165l.014-.018a.3.3,0,0,0,.02-.049A.365.365,0,0,0,31.311,148.782ZM25.682,150a7.106,7.106,0,0,0-2.331-3.863c-1.519-1.28-3.409-1.557-5.231-2.182a9.3,9.3,0,0,1-6.231-8.777,3.589,3.589,0,0,1,.608-2.347c.691-.791,1.628-.157,2.205.42.656.655,1.236,1.372,1.923,2a15.766,15.766,0,0,0,2.12,1.635c1.533.982,3.54,1.964,5.409,1.655a3.15,3.15,0,0,0,2.051-1.241,2.4,2.4,0,0,0,.432-1.038,2.869,2.869,0,0,0,.009-.655c-.02-.242-.133-.648.037-.859.25-.312.308.13.357.321.076.3.15.595.225.893l.472,1.875q.461,1.83.922,3.66.9,3.56,1.793,7.12Z"/><path class="a" d="M88.906,249.261a43.361,43.361,0,0,0,7.784,5.465c0-.347.037-.7.037-1.02V225.734a121.733,121.733,0,0,1-12.815,19.187C85.547,246.4,87.2,247.859,88.906,249.261Z"/><path d="M115.214,44.171c-1.355-6.151-.024-13.156-3.6-18.34-2.925-4.24-8.659-6-13.713-5S88.493,25.189,85.392,29.3s-3.572,8.68-6.225,13.1c-1.164,1.936-4.294,4.73-4.854,7.623a8.948,8.948,0,0,0,2.354,8.138c2.119,1.993,5.167,2.564,8.035,3.05,8.356,1.415,17.168,2.793,25.12-.14,2.839-1.047,5.662-2.836,6.725-5.67C117.893,51.807,116.039,47.916,115.214,44.171ZM94.982,53.586c-.051.5-.843.507-.792,0a37.106,37.106,0,0,0-.663-11.543c.037-.027.082-.041.118-.069a10.353,10.353,0,0,0,.9,1.091A37.671,37.671,0,0,1,94.982,53.586ZM105.087,54.8c-.15.486-.914.277-.764-.211a31.044,31.044,0,0,0,1.344-8.689c.273-.086.544-.18.812-.285A31.849,31.849,0,0,1,105.087,54.8Zm6.9-16.3a7.747,7.747,0,0,1-2.58,4.435,10.652,10.652,0,0,1-10.356,2.174,9.872,9.872,0,0,1-5-3.938.4.4,0,0,0-.621-.08,2.221,2.221,0,0,1-2.906.314,3.3,3.3,0,0,1-1.307-2.727,2.71,2.71,0,0,1,2.941-1.927.4.4,0,0,0,.487-.487c-.062-.308-.1-.621-.139-.933,3.676-1.64,7.323-3.664,9.725-6.976.835.782,1.69,1.559,2.581,2.271a8.868,8.868,0,0,0,3.107,1.705,10.711,10.711,0,0,0,4.108.258A18.148,18.148,0,0,1,111.983,38.5Z"/><path d="M98.926,35.1a3.436,3.436,0,0,0-3.988,2.021c-.2.47.569.674.763.211a2.628,2.628,0,0,1,3.014-1.469A.4.4,0,0,0,98.926,35.1Z"/><path d="M109.422,33.407a2.705,2.705,0,0,0-2.808.07c-.427.275-.03.96.4.684a1.9,1.9,0,0,1,2.009-.071A.4.4,0,0,0,109.422,33.407Z"/><path d="M98.027,37.6a.4.4,0,0,0-.622.08.793.793,0,0,0-.1.344.653.653,0,0,0,.134.592c.01.019.014.038.025.056a.381.381,0,0,0,.389.18.406.406,0,0,0,.405-.283c.008-.029.008-.056.014-.084a.379.379,0,0,0,.023-.132A.961.961,0,0,0,98.027,37.6Z"/><path d="M107.72,36.171c-.017-.028-.042-.055-.062-.083s-.02-.032-.034-.045-.037-.056-.061-.082a.346.346,0,0,0-.362-.095c-.016,0-.029-.009-.045-.01a.386.386,0,0,0-.342.2.849.849,0,0,0,.011.73.394.394,0,0,0,.439.36c.019.006.03.02.05.025a.4.4,0,0,0,.487-.277,1.015,1.015,0,0,0,.024-.384A.667.667,0,0,0,107.72,36.171Z"/><path d="M104.705,37.115c.279.633.421,1.719-.489,1.894-.5.1-.288.859.211.763a1.754,1.754,0,0,0,1.287-1.949c-.1-1.121-.957-1.959-1.206-3.031-.115-.5-.879-.286-.763.21A12.141,12.141,0,0,0,104.705,37.115Z"/><path d="M106.421,39.811a5.481,5.481,0,0,1-6.555.027.4.4,0,0,0-.595.342,4.47,4.47,0,0,0,3.979,4.442c.5.063.5-.729,0-.792a3.64,3.64,0,0,1-3.1-2.893,6.228,6.228,0,0,0,6.672-.442C107.225,40.2,106.831,39.508,106.421,39.811Z"/><circle cx="57.973" cy="148.348" r="1.28"/><circle cx="69.53" cy="145.4" r="1.28"/><path d="M57.616,142.886a3.786,3.786,0,0,0-2.8,3.03c-.076.5.687.713.764.21a3.019,3.019,0,0,1,2.244-2.477C58.326,143.554,58.114,142.791,57.616,142.886Z"/><path d="M71.882,141.219c-1.509-.656-2.954-1.076-4.51-.31-.457.225-.057.908.4.683a4.228,4.228,0,0,1,3.711.311C71.945,142.1,72.348,141.422,71.882,141.219Z"/><path d="M69.011,149.114c-2.8.722-5.546,1.6-8.339,2.334a.4.4,0,0,0-.237.582,5.542,5.542,0,0,0,4.387,2.727,4.218,4.218,0,0,0,3.469-1.595,6.427,6.427,0,0,0,1.221-3.667A.4.4,0,0,0,69.011,149.114Zm-1.258,3.455a3.436,3.436,0,0,1-2.931,1.4,4.6,4.6,0,0,1-3.4-1.9c2.422-.65,4.819-1.391,7.243-2.036A5.392,5.392,0,0,1,67.753,152.569Z"/><path d="M55.25,266.768A78.5,78.5,0,0,1,40.823,254.3a19.093,19.093,0,0,0-2.853-2.866,2.286,2.286,0,0,0-1.522-.564,3.055,3.055,0,0,0-2.494,1.726c-1.351,2.88.5,6.851,2.74,9.9,3.214,4.381,13.191,10.41,13.191,10.41Z"/><path d="M234.975,148.954c.662-.152.382-1.17-.281-1.018-1.075.247-2.5.4-2.661-1.041-.143-1.275.494-2.49.068-3.759-.215-.64-1.234-.366-1.017.281.5,1.48-.556,3.033.158,4.515C231.944,149.39,233.642,149.26,234.975,148.954Z"/><path d="M230.624,143.345a.481.481,0,0,0-.007-.121c0-.007,0-.012,0-.019a.562.562,0,0,0-.039-.082.443.443,0,0,0-.027-.058.745.745,0,1,0,0,.561.576.576,0,0,0,.03-.061.843.843,0,0,0,.037-.08c0-.007,0-.012,0-.019A.481.481,0,0,0,230.624,143.345Z"/><path d="M241.794,143.341a.519.519,0,0,0-.008-.12c0-.007,0-.013,0-.02-.009-.031-.028-.053-.039-.082a.619.619,0,0,0-.028-.058.745.745,0,1,0,0,.562c.013-.019.019-.042.03-.062s.029-.049.038-.079a.115.115,0,0,1,0-.019A.541.541,0,0,0,241.794,143.341Z"/><path d="M237.141,139.334c-.441.513.3,1.263.746.746a2.66,2.66,0,0,1,3.553-.423c.553.4,1.081-.519.533-.911A3.7,3.7,0,0,0,237.141,139.334Z"/><path d="M231.355,138.753c.651.2.929-.818.281-1.017A4.048,4.048,0,0,0,227.378,139c-.429.52.314,1.27.746.746A3.015,3.015,0,0,1,231.355,138.753Z"/><path d="M261.751,138.541a18.33,18.33,0,0,0-3.993-6.045,6.416,6.416,0,0,0-7.122-9.613,15.074,15.074,0,0,0-3.347-6,7.443,7.443,0,0,0-6.251-2.335,5,5,0,0,0-4.278,4.7,13.537,13.537,0,0,0-15.657,6.6,7.121,7.121,0,0,0-.821,4.759,3.778,3.778,0,0,0,3.434,3.01,8.024,8.024,0,0,0,2.094,15.043c.1.309.2.616.313.918a15.354,15.354,0,0,0,1.862,3.5.487.487,0,0,0-.305.065,30.647,30.647,0,0,0-6.407,5.073c-.472.489.274,1.236.746.746a29.547,29.547,0,0,1,6.194-4.907.483.483,0,0,0,.245-.367,11.945,11.945,0,0,0,2.407,2.279,9.656,9.656,0,0,0,7.2,1.631,10.527,10.527,0,0,0,4.988-2.388,28.881,28.881,0,0,1-10.12,8.31c-.609.3-.075,1.21.533.911a29.826,29.826,0,0,0,11.644-10.29,6.487,6.487,0,0,0,4.481.86,6.818,6.818,0,0,0,5.28-7.353,5.243,5.243,0,0,0,6.347-2.082A8.063,8.063,0,0,0,261.751,138.541Zm-14.1,4.863c-.426,5.071-3.1,10.782-8.146,12.7a8.519,8.519,0,0,1-6.656-.206,11.259,11.259,0,0,1-5.029-5.1,16.774,16.774,0,0,1-1.777-8.11,12.308,12.308,0,0,1,2.254-7.338c2.781-3.563,7.875-4.2,12.041-3.265a9.51,9.51,0,0,1,5.214,2.9,9.995,9.995,0,0,1,2.153,6.25A19.334,19.334,0,0,1,247.649,143.4Zm2.834,2.107a3.015,3.015,0,0,1-2.619,2.231,18.25,18.25,0,0,0,.511-1.967,21.021,21.021,0,0,0,.329-2.371c.037-.472.051-.949.055-1.427A3.018,3.018,0,0,1,250.483,145.511Z"/><path d="M239.107,148.968a.412.412,0,0,0-.426.162,5.858,5.858,0,0,1-4.854,2.2c-.679-.032-.677,1.024,0,1.055a6.866,6.866,0,0,0,5.019-1.882,6.271,6.271,0,0,1-1.567,3.97c-.338.379.22.941.56.559a7.1,7.1,0,0,0,1.717-5.8A.323.323,0,0,0,239.107,148.968Z"/><path class="b" d="M178.183,60.38q.7,3.955,1.4,7.911c.089.5.851.289.763-.21q-.7-3.956-1.4-7.912C178.858,59.669,178.1,59.881,178.183,60.38Z"/><path class="b" d="M180.884,35.611l.456,16.754a.4.4,0,0,0,.792,0l-.457-16.754A.4.4,0,0,0,180.884,35.611Z"/><path class="b" d="M184.264,60.736l.966,12.1c.04.5.832.509.791,0q-.483-6.048-.965-12.1C185.015,60.232,184.223,60.228,184.264,60.736Z"/><path class="b" d="M187.215,43.057q.031,6.747.064,13.495a.4.4,0,0,0,.791,0q-.031-6.747-.064-13.495A.4.4,0,0,0,187.215,43.057Z"/><path class="b" d="M188.833,19.789q.55,8.371,1.1,16.742c.033.506.825.51.792,0q-.552-8.37-1.1-16.742C189.591,19.283,188.8,19.28,188.833,19.789Z"/><path class="b" d="M193.061,55.155V70.978a.4.4,0,0,0,.792,0V55.155A.4.4,0,0,0,193.061,55.155Z"/><path class="b" d="M184.855,31.9l-.933-13.5c-.035-.5-.827-.509-.791,0l.933,13.5C184.1,32.4,184.891,32.406,184.855,31.9Z"/><path class="b" d="M176.286,10.479l.465,14.893c.016.508.807.51.792,0l-.465-14.893C177.062,9.971,176.271,9.969,176.286,10.479Z"/><path class="b" d="M173.877,32.825q.718,9.073,1.438,18.147c.039.5.831.509.791,0l-1.437-18.147C174.629,32.321,173.837,32.317,173.877,32.825Z"/><path class="b" d="M184.513,14.206q-.524-4.414-1.046-8.829c-.059-.5-.851-.506-.791,0q.522,4.414,1.045,8.829C183.781,14.705,184.573,14.711,184.513,14.206Z"/><path class="b" d="M196.6,9.541l-.371,9.311c-.02.509.771.509.792,0l.371-9.311C197.412,9.031,196.621,9.032,196.6,9.541Z"/><path class="b" d="M194.6,34.229l.644,13.487c.024.507.816.51.791,0l-.643-13.487C195.368,33.721,194.577,33.719,194.6,34.229Z"/><path d="M147.042,281.067c-3.775-3.515-10.987-.589-15.946.961s-8.691,2.838-13.1,5.582c-1.1.683-2.36,1.778-1.948,3,.436,1.294,2.236,1.317,3.583,1.09l22.159-3.749a8.456,8.456,0,0,0,4.567-1.742C147.553,285.073,148.4,282.008,147.042,281.067Z"/><path d="M225.9,254.372c-.225-.457-.908-.056-.684.4q.911,1.851,1.724,3.747c.2.467.882.064.684-.4Q226.807,256.224,225.9,254.372Z"/><path d="M229.754,250.947q.339,3.784.865,7.547c.07.5.833.288.763-.211q-.51-3.657-.836-7.336C230.5,250.444,229.709,250.439,229.754,250.947Z"/><path d="M234.9,250.044l-.717,8.434c-.044.508.748.5.791,0l.717-8.434C235.734,249.536,234.942,249.539,234.9,250.044Z"/><path d="M239.015,250.14l-2.295,8.491a.4.4,0,0,0,.763.21l2.295-8.49A.4.4,0,0,0,239.015,250.14Z"/><path d="M243.181,251.656l-2.754,6.96c-.188.473.578.679.763.21l2.754-6.96C244.131,251.393,243.366,251.187,243.181,251.656Z"/><path d="M245.986,254.672l-2.021,3.946c-.232.453.451.854.683.4q1.011-1.974,2.021-3.947C246.9,254.619,246.219,254.218,245.986,254.672Z"/><path d="M252.135,265.3c-.194-.463-.96-.26-.764.21l1.194,2.864c.193.463.96.26.764-.21Z"/><path d="M254.744,264.125a.4.4,0,0,0-.763.211q.557,2.077,1.114,4.155a.4.4,0,0,0,.763-.211Q255.3,266.2,254.744,264.125Z"/><path d="M257.439,263.646v4.964a.4.4,0,0,0,.791,0v-4.964A.4.4,0,0,0,257.439,263.646Z"/><path d="M261.88,262.9q-.556,2.78-1.112,5.558c-.1.5.663.71.763.21q.556-2.778,1.112-5.557C262.743,262.609,261.98,262.4,261.88,262.9Z"/><path d="M266.154,263.512l-1.876,4.786c-.186.475.579.68.763.211l1.876-4.787C267.1,263.248,266.338,263.042,266.154,263.512Z"/><path d="M270.72,265.493l-1.7,2.741c-.27.434.414.831.683.4l1.7-2.74C271.673,265.459,270.988,265.061,270.72,265.493Z"/><path d="M17.928,113.034c-.243-.448-.927-.049-.684.4l4.9,9.033c.243.448.926.049.683-.4Q20.377,117.551,17.928,113.034Z"/><path d="M26.878,114.3q-.78,4.032-1.559,8.065c-.1.5.667.711.764.21q.779-4.032,1.558-8.065C27.737,114.01,26.975,113.8,26.878,114.3Z"/><path d="M38.357,115.081l-6.2,9.312c-.283.425.4.822.684.4l6.2-9.313C39.324,115.055,38.638,114.658,38.357,115.081Z"/><path d="M279.527,127.131a4.511,4.511,0,0,0-2.584-2.606,3.178,3.178,0,0,0-3.4,1.351,8.16,8.16,0,0,0-1.16,4.64,4.446,4.446,0,0,1-.509,2.547c-.741.866-1.643-.517-1.966-1.082a2.9,2.9,0,0,0-1.613-1.582,1.455,1.455,0,0,0-1.676.564.4.4,0,0,0,0,.4,33.1,33.1,0,0,1,3.981,14.128c.025.506.817.51.791,0a34.007,34.007,0,0,0-3.957-14.27c.4-.323,1.076.112,1.339.444a15.94,15.94,0,0,0,1.229,1.82,1.884,1.884,0,0,0,1.69.586,1.717,1.717,0,0,0,1.146-1.133,6.939,6.939,0,0,0,.318-2.082,19.461,19.461,0,0,1,.225-2.6c.246-1.265,1.012-2.773,2.413-3.026,1.288-.232,2.255.81,2.819,1.834a12.841,12.841,0,0,1,1.2,4,25.8,25.8,0,0,1-3.832,18.471c-.281.427.4.824.683.4a26.663,26.663,0,0,0,4.011-18.474A15.968,15.968,0,0,0,279.527,127.131Z"/><path d="M279.783,118.316c-.266-.434-.951-.036-.683.4a32.446,32.446,0,0,1,4.776,16.7,31.532,31.532,0,0,1-.353,4.959c-.075.5.687.713.764.211a33.252,33.252,0,0,0-2.18-17.726A32.744,32.744,0,0,0,279.783,118.316Z"/><path d="M287.711,123.92a.4.4,0,0,0-.763.211,31.259,31.259,0,0,1-.371,18.4c-.16.484.6.692.763.21A32.026,32.026,0,0,0,287.711,123.92Z"/><path d="M264.46,210.819a13.871,13.871,0,0,1,5.078,1.556c.733.38,1.7.783,2.439.205a1.893,1.893,0,0,0,.411-2.066,21.712,21.712,0,0,0-2.028-4.937,9.035,9.035,0,0,0-3.5-3.641c-.86-.458-2.04-.786-2.465-1.761-.416-.956.612-1.613.733-2.51a1.178,1.178,0,0,0-1.044-1.469c-.887,0-1.457,1.041-1.966,1.628a26.783,26.783,0,0,1-10.773,7.485c-.473.177-.268.942.21.763a27.707,27.707,0,0,0,9.346-5.832,26.84,26.84,0,0,0,1.875-1.971c.285-.332.54-.705.854-1.009.12-.116.348-.34.537-.263s.2.337.187.5a2.56,2.56,0,0,1-.5,1.039,2.189,2.189,0,0,0-.356,1.288,2.73,2.73,0,0,0,1.359,1.971c.775.5,1.661.782,2.412,1.328a7.854,7.854,0,0,1,1.749,1.816,18.882,18.882,0,0,1,2.215,4.636c.2.578.8,1.723.344,2.3-.542.676-1.9-.333-2.453-.589a14.3,14.3,0,0,0-4.81-1.268,14.722,14.722,0,0,0-10.646,3.3c-.391.328.172.885.56.56A13.95,13.95,0,0,1,264.46,210.819Z"/><path d="M275.015,225.548a13.187,13.187,0,0,0-11.024-6.445,12.139,12.139,0,0,0-3.755.5.4.4,0,0,0,.211.764,12.321,12.321,0,0,1,13.884,5.582A.4.4,0,0,0,275.015,225.548Z"/><path d="M195.007,285.1c-.193-.463-.96-.26-.764.211l1.194,2.863c.194.464.96.26.764-.21Z"/><path d="M197.617,283.93a.4.4,0,0,0-.764.211q.556,2.077,1.114,4.155a.4.4,0,0,0,.763-.21Z"/><path d="M200.311,283.451v4.964a.4.4,0,0,0,.791,0v-4.964A.4.4,0,0,0,200.311,283.451Z"/><path d="M204.752,282.7q-.555,2.778-1.112,5.557c-.1.5.663.71.764.21q.555-2.778,1.111-5.557C205.615,282.415,204.852,282.2,204.752,282.7Z"/><path d="M209.026,283.317,207.15,288.1c-.186.475.579.68.763.211q.939-2.394,1.877-4.786C209.975,283.053,209.21,282.848,209.026,283.317Z"/><path d="M213.592,285.3l-1.7,2.74c-.27.434.414.832.683.4l1.7-2.74C214.545,285.264,213.861,284.867,213.592,285.3Z"/><path d="M81.941,275.206c-.193-.463-.959-.26-.763.211l1.194,2.863c.193.464.96.26.763-.21Z"/><path d="M84.551,274.033a.4.4,0,0,0-.763.21q.557,2.077,1.114,4.155a.4.4,0,0,0,.763-.21Q85.108,276.111,84.551,274.033Z"/><path d="M87.246,273.553v4.964a.4.4,0,0,0,.791,0v-4.964A.4.4,0,0,0,87.246,273.553Z"/><path d="M91.687,272.8q-.556,2.778-1.112,5.557c-.1.5.663.71.763.211q.557-2.779,1.112-5.558C92.55,272.517,91.787,272.3,91.687,272.8Z"/><path d="M95.961,273.419l-1.876,4.787c-.186.474.579.68.763.21l1.876-4.786C96.91,273.155,96.145,272.95,95.961,273.419Z"/><path d="M100.527,275.4l-1.7,2.74c-.27.434.414.832.683.4l1.7-2.741C101.48,275.367,100.8,274.969,100.527,275.4Z"/><path d="M50.454,291.307c-.193-.463-.959-.26-.763.21l1.194,2.864c.193.463.959.26.763-.211Z"/><path d="M53.064,290.133a.4.4,0,0,0-.763.21l1.114,4.156a.4.4,0,0,0,.763-.211Q53.622,292.211,53.064,290.133Z"/><path d="M55.759,289.654v4.964a.4.4,0,0,0,.791,0v-4.964A.4.4,0,0,0,55.759,289.654Z"/><path d="M60.2,288.9q-.556,2.779-1.112,5.558c-.1.5.663.71.763.21q.556-2.779,1.112-5.557C61.063,288.617,60.3,288.4,60.2,288.9Z"/><path d="M64.474,289.52,62.6,294.306c-.186.474.579.68.763.21q.937-2.393,1.876-4.786C65.423,289.256,64.658,289.05,64.474,289.52Z"/><path d="M69.039,291.5l-1.7,2.741c-.269.433.415.831.684.4l1.7-2.74C69.993,291.467,69.308,291.069,69.039,291.5Z"/><path d="M245.647,289.732c-.193-.464-.959-.26-.763.21l1.194,2.864c.193.463.959.26.763-.211Z"/><path d="M248.257,288.558a.4.4,0,0,0-.763.21l1.113,4.155a.4.4,0,0,0,.763-.21Z"/><path d="M250.951,288.078v4.964a.4.4,0,0,0,.792,0v-4.964A.4.4,0,0,0,250.951,288.078Z"/><path d="M255.393,287.329q-.556,2.778-1.112,5.557c-.1.5.663.711.763.211q.555-2.779,1.112-5.558C256.255,287.042,255.492,286.829,255.393,287.329Z"/><path d="M259.667,287.945l-1.877,4.786c-.186.474.58.68.764.21l1.876-4.786C260.616,287.681,259.851,287.475,259.667,287.945Z"/><path d="M264.232,289.926l-1.7,2.74c-.27.434.415.832.683.4l1.7-2.74C265.185,289.892,264.5,289.494,264.232,289.926Z"/><path class="a" d="M98.286,72.529a6.637,6.637,0,0,1-1.046,4.447,21.73,21.73,0,0,0-.348-4.863c-.094-.5-.857-.289-.764.21a20.86,20.86,0,0,1-1.511,12.421c-.209.46.473.862.684.4a21.786,21.786,0,0,0,1.845-6.936.329.329,0,0,0,.25-.129,7.365,7.365,0,0,0,1.681-5.549C99.019,72.029,98.227,72.023,98.286,72.529Z"/><path class="a" d="M114.1,76.251c-.084-.128-.17-.253-.253-.382C113.93,76,114.017,76.123,114.1,76.251Z"/><path class="a" d="M112.791,74.159l-.015-.024Z"/><path class="a" d="M116.239,79.327q-.639-.856-1.245-1.736Q115.6,78.47,116.239,79.327Z"/><path class="a" d="M112.694,72.42h0q.771,1.363,1.61,2.687Q113.466,73.784,112.694,72.42Z"/><path class="a" d="M98.286,72.529a6.637,6.637,0,0,1-1.046,4.447,21.73,21.73,0,0,0-.348-4.863c-.094-.5-.857-.289-.764.21a20.86,20.86,0,0,1-1.511,12.421c-.209.46.473.862.684.4a21.786,21.786,0,0,0,1.845-6.936.329.329,0,0,0,.25-.129,7.365,7.365,0,0,0,1.681-5.549C99.019,72.029,98.227,72.023,98.286,72.529Z"/><path class="a" d="M114.347,75.176q.842,1.322,1.748,2.6Q115.188,76.5,114.347,75.176Z"/><path class="a" d="M118.215,80.576c.6.75,1.214,1.49,1.85,2.21C119.429,82.066,118.816,81.326,118.215,80.576Z"/><path class="a" d="M116.149,77.851q.8,1.123,1.656,2.206C117.238,79.333,116.683,78.6,116.149,77.851Z"/><path class="a" d="M111.857,75.96l-1.63-2.111c-.307-.4-1,0-.684.4q.816,1.055,1.63,2.11C111.48,76.757,112.168,76.363,111.857,75.96Z"/><path class="a" d="M114.793,81.358c-.283-.42-.969-.025-.683.4l1.249,1.856c.283.42.969.024.683-.4Z"/><path class="a" d="M106.152,66.125c-.281-.422-.967-.026-.684.4q.621.931,1.241,1.862c.282.422.968.026.684-.4Z"/><path class="a" d="M98.286,72.529a6.637,6.637,0,0,1-1.046,4.447,21.73,21.73,0,0,0-.348-4.863c-.094-.5-.857-.289-.764.21a20.86,20.86,0,0,1-1.511,12.421c-.209.46.473.862.684.4a21.786,21.786,0,0,0,1.845-6.936.329.329,0,0,0,.25-.129,7.365,7.365,0,0,0,1.681-5.549C99.019,72.029,98.227,72.023,98.286,72.529Z"/><path class="a" d="M118.215,80.576c-.138-.172-.274-.345-.41-.519-.567-.724-1.122-1.457-1.656-2.206l-.054-.073q-.907-1.278-1.748-2.6l-.043-.069q-.838-1.323-1.61-2.687h0c-.841-1.489-1.626-3.01-2.339-4.566S109,64.708,108.422,63.1c-.171-.476-.936-.271-.764.21a61.874,61.874,0,0,0,5.118,10.829l.015.024q.516.864,1.057,1.71c.082.129.169.254.253.382.294.449.587.9.893,1.34q.606.879,1.245,1.736,1.549,2.076,3.267,4.019c.338.382.9-.18.559-.56C119.429,82.066,118.816,81.326,118.215,80.576Z"/><path class="b" d="M112.763,102.637a14.363,14.363,0,0,0,.959,1.092,20.039,20.039,0,0,0,5.934,3.993l13.475-20.558c-1.962-.437-3.878-1.161-5.806-1.753-3,5.363-7.219,9.92-11.473,14.319A24.728,24.728,0,0,1,112.763,102.637Z"/><path class="c" d="M142.892,44.3c-1.406-2.546-5.075-3.012-7.722-1.809s-4.527,3.592-6.371,5.84-3.9,4.542-6.678,5.415c-5.007,1.577-14.432-3.813-20.211-3.378a10.8,10.8,0,0,0-1.743.013c-4.689.426-8.047,4.221-10.4,7.961a59.994,59.994,0,0,0-6.428,14.12,50.27,50.27,0,0,0-2.5,16.185,30.859,30.859,0,0,0,3.891,14.621c2.169,3.752,5.791,7.891,10.482,8.021a7.392,7.392,0,0,0,5.37-2.08,5.278,5.278,0,0,0,1.4-2.392,7.212,7.212,0,0,0-.266-3.846c-.409-1.375-.968-2.709-1.475-4.05l-1.5-3.962q-1.53-4.048-3.061-8.1c-.18-.478.584-.681.764-.21a55.36,55.36,0,0,0,4.741,10.011,26.879,26.879,0,0,0,2.941,3.864,11.073,11.073,0,0,0,3.824,2.968,4.779,4.779,0,0,0,4.809-.857,24.728,24.728,0,0,0,3.089-2.907c4.254-4.4,8.474-8.956,11.473-14.319.283-.506.57-1.009.83-1.531a.4.4,0,0,1-.3-.089,19.023,19.023,0,0,1-2.489-2.385,33.207,33.207,0,0,1-5.284-9.017,16.286,16.286,0,0,0,4.844-1.062c9.37-4.259,14.646-11,17.852-20.782C143.45,48.507,143.929,46.176,142.892,44.3ZM97.4,78.078a.329.329,0,0,1-.25.129A21.786,21.786,0,0,1,95.3,85.143c-.211.463-.893.061-.684-.4a20.86,20.86,0,0,0,1.511-12.421c-.093-.5.67-.71.764-.21a21.73,21.73,0,0,1,.348,4.863,6.637,6.637,0,0,0,1.046-4.447c-.059-.506.733-.5.791,0A7.365,7.365,0,0,1,97.4,78.078Zm9.313-9.692q-.619-.931-1.241-1.862c-.283-.425.4-.821.684-.4l1.241,1.861C107.677,68.412,106.991,68.808,106.709,68.386Zm2.834,5.863c-.311-.4.377-.8.684-.4l1.63,2.111c.311.4-.377.8-.684.4Q110.358,75.3,109.543,74.249Zm5.816,9.365-1.249-1.856c-.286-.425.4-.82.683-.4l1.249,1.856C116.328,83.638,115.642,84.034,115.359,83.614Zm3.761,6.8q-.621-.931-1.241-1.862c-.284-.425.4-.821.683-.4l1.241,1.861C120.087,90.44,119.4,90.836,119.12,90.414Zm.386-7.068q-1.716-1.941-3.267-4.019-.639-.856-1.245-1.736c-.306-.441-.6-.891-.893-1.34-.084-.128-.171-.253-.253-.382q-.543-.845-1.057-1.71l-.015-.024a61.874,61.874,0,0,1-5.118-10.829c-.172-.481.593-.686.764-.21q.865,2.418,1.933,4.758c.713,1.556,1.5,3.077,2.339,4.566h0q.771,1.363,1.61,2.687l.043.069q.842,1.323,1.748,2.6l.054.073c.534.749,1.089,1.482,1.656,2.206.136.174.272.347.41.519.6.75,1.214,1.49,1.85,2.21C120.4,83.166,119.844,83.728,119.506,83.346Z"/><path class="a" d="M213.456,142.174a6.391,6.391,0,0,1-.431-.656L211.369,139q-5.942-9.042-11.884-18.085-3.882-5.91-7.766-11.82l-8.756-13.326-12.346-18.79L155.528,54.014l-.1.16-9.549,14.532q-8.463,12.882-16.928,25.763l-17.841,27.153L99.19,139.756q-.657,1-1.312,2c-.105.16-.2.334-.319.486a.428.428,0,0,0-.052.084,22.954,22.954,0,0,0,.012,3v61.41a.36.36,0,0,1,.116.265c0,.053,0,.107,0,.16.053,2.894,0,5.793,0,8.688,0,2.919.037,5.841,0,8.76a1.527,1.527,0,0,1,0,.179,1.169,1.169,0,0,1-.116.348v40.88a10.41,10.41,0,0,1,1.376.028H213.536a26.776,26.776,0,0,1,0-2.819V143.747a14.041,14.041,0,0,0,.014-1.408A.656.656,0,0,0,213.456,142.174Z"/><path class="a" d="M62.879,219.928a73.667,73.667,0,0,0,4.606,6.91q2.852-4.263,5.7-8.525l3.2-4.784,1.486-2.222c-5.685,1.31-11.3,2.981-16.947,4.461A25.44,25.44,0,0,0,62.879,219.928Z"/><path class="a" d="M235.886,215.446l3.723-5.119c.3-.413-.386-.808-.683-.4l-3.723,5.12C234.9,215.459,235.589,215.854,235.886,215.446Z"/><path class="a" d="M248.492,210.953q-.466-2.328-.931-4.654c-.1-.5-.863-.288-.763.21l.93,4.654C247.828,211.662,248.591,211.451,248.492,210.953Z"/><path class="a" d="M94.153,231.085q-2.642,4.369-5.65,8.5c-1.382,1.9-2.832,3.756-4.311,5.586,1.544,1.4,3.108,2.768,4.714,4.091a43.361,43.361,0,0,0,7.784,5.465c0-.347.037-.7.037-1.02V226.592l-.079.149Q95.45,228.942,94.153,231.085Z"/><path class="a" d="M86.4,220.089q-7.739,10.933-15.919,21.544-8.154,10.578-16.732,20.82a.333.333,0,0,1-.231.125q3.375,2.678,6.688,5.434a15.1,15.1,0,0,0,1.865-1.4,182.7,182.7,0,0,0,14.562-13.925A140.914,140.914,0,0,0,89.392,236.97q2.861-4.124,5.37-8.478.612-1.068,1.2-2.151.3-.558.6-1.12c.035-.066.1-.177.162-.277v-17.2l-2.036.348Q90.611,214.137,86.4,220.089Zm8.161,3.355q-3.233,5.192-6.732,10.208-6.165,8.832-13.128,17.071t-14.7,15.832c-.364.357-.924-.2-.56-.56q4.333-4.254,8.441-8.729,7.27-7.925,13.787-16.5t12.2-17.722C94.148,222.613,94.833,223.011,94.563,223.444Zm1.427-9.189q-3.831,5.885-7.84,11.652Q81.024,236.154,73.34,246T57.459,265.235c-.336.385-.893-.177-.56-.559q4.588-5.259,9.015-10.655,7.9-9.641,15.271-19.708,7.34-10.034,14.121-20.458C95.583,213.429,96.268,213.826,95.99,214.255Z"/><path class="a" d="M80.491,219.9,65.572,239.715,50.653,259.529c-.3.4-.99.008-.684-.4L58.351,248,73.27,228.184l14.168-18.817c-2.54.464-5.075.948-7.6,1.487-.28.059-.559.126-.838.19L72.271,221.1l-12.49,18.674-6.244,9.336q-1.548,2.316-3.1,4.63c-.935,1.4-1.975,2.777-2.782,4.259q2.743,2.109,5.457,4.259a.387.387,0,0,1,.077-.368q4.812-5.747,9.494-11.6,8.361-10.457,16.288-21.25,7.519-10.238,14.633-20.765-2.514.431-5.026.878Z"/><path class="a" d="M74.782,148.366a2.786,2.786,0,0,0-.7-5.486c-.019,0-.037,0-.056.006a10.6,10.6,0,0,0-10.923-6.86c-5.763.647-9.881,6.1-9.2,12.184a11.127,11.127,0,0,0,7.183,9.309l.983,6.923c.255-.069.51-.138.763-.213q-.458-3.228-.916-6.455a9.992,9.992,0,0,0,3.658.278,10.125,10.125,0,0,0,6.569-3.522q.534,2.791,1.194,5.558c.246-.106.493-.209.74-.314q-.715-3.019-1.287-6.073A11.267,11.267,0,0,0,74.782,148.366Z"/><path class="a" d="M247.445,171.159l-4.654,3.257c-.414.29-.019.977.4.684l4.654-3.258C248.259,171.552,247.863,170.866,247.445,171.159Z"/><path class="a" d="M254.076,169.068c-.177-.472-.943-.268-.763.211l1.4,3.723c.177.472.943.268.763-.211Q254.775,170.93,254.076,169.068Z"/><path class="a" d="M226.192,207.451l1.894-6.506a.4.4,0,0,0-.763-.21l-1.9,6.506A.4.4,0,0,0,226.192,207.451Z"/><path class="a" d="M266.252,164.671,261.6,164.2c-.507-.052-.5.74,0,.791l4.653.474C266.758,165.514,266.754,164.722,266.252,164.671Z"/><path class="a" d="M270.3,151.862c-.1-.5-.864-.288-.764.21l.467,2.327c.1.5.864.288.764-.211Z"/><path class="a" d="M234.309,169.458q-.465.93-.931,1.861c-.227.454.456.856.684.4q.465-.931.931-1.862C235.22,169.4,234.537,169,234.309,169.458Z"/><path class="a" d="M219.122,188.661c-.414-.3-.809.388-.4.683l4.607,3.323c.414.3.809-.388.4-.684Z"/><path d="M65.579,158.052a9.992,9.992,0,0,1-3.658-.278q.458,3.227.916,6.455c1.184-.347,2.349-.748,3.482-1.183,2.364-.909,4.688-1.956,7.023-2.958q-.657-2.766-1.194-5.558A10.125,10.125,0,0,1,65.579,158.052Z"/><path d="M62.074,164.442l-.983-6.923a11.127,11.127,0,0,1-7.183-9.309c-.683-6.082,3.435-11.537,9.2-12.184a10.6,10.6,0,0,1,10.923,6.86c.019,0,.037-.006.056-.006a2.786,2.786,0,0,1,.7,5.486A11.267,11.267,0,0,1,72.8,153.7q.567,3.052,1.287,6.073a55.72,55.72,0,0,1,7.3-2.613c-.064-1.066-.14-2.131-.246-3.194A48.017,48.017,0,0,0,79.1,143.7a20.017,20.017,0,0,0-4.569-8.022,12.281,12.281,0,0,0-8.215-3.59A15.939,15.939,0,0,0,54.585,136.4c-3.3,3.191-5.168,7.571-6.429,11.909A72.749,72.749,0,0,0,45.9,163.068a15.864,15.864,0,0,0,1.984,1.061C52.316,166.079,57.321,165.731,62.074,164.442Z"/><path d="M50.489,193.389c-1.506-2.132-3.958-3.286-6.33-4.444-.024.22-.043.44-.065.661a40.7,40.7,0,0,0,1,10.158,14.8,14.8,0,0,0,1.1,2.327,11.11,11.11,0,0,0,4.587,4.175,14.473,14.473,0,0,0,2.146.868q-.221-3.01-.439-6.02C52.291,198.427,52.044,195.59,50.489,193.389Z"/><path class="d" d="M96.69,254.726a43.361,43.361,0,0,1-7.784-5.465c-1.606-1.323-3.17-2.7-4.714-4.091,1.479-1.83,2.929-3.682,4.311-5.586q3-4.131,5.65-8.5,1.3-2.143,2.495-4.344l.079-.149v-1.648c-.059.1-.127.211-.162.277q-.3.561-.6,1.12-.59,1.083-1.2,2.151-2.5,4.355-5.37,8.478a140.914,140.914,0,0,1-12.757,15.718,182.7,182.7,0,0,1-14.562,13.925,15.1,15.1,0,0,1-1.865,1.4q-3.307-2.763-6.688-5.434a.333.333,0,0,0,.231-.125q8.576-10.239,16.732-20.82,8.178-10.608,15.919-21.544,4.212-5.95,8.289-12l-1.084.185Q86.488,218.8,78.974,229.043q-7.926,10.791-16.288,21.25-4.68,5.854-9.494,11.6a.387.387,0,0,0-.077.368Q50.4,260.114,47.658,258c.807-1.482,1.847-2.861,2.782-4.259q1.548-2.315,3.1-4.63l6.244-9.336L72.271,221.1,79,211.044l-.284.065c-.281.063-.561.133-.842.2l-1.486,2.222-3.2,4.784q-2.85,4.263-5.7,8.525a73.667,73.667,0,0,1-4.606-6.91,25.44,25.44,0,0,1-1.953-4.16c-.258.068-.516.138-.775.205a41.912,41.912,0,0,0,5.417,9.547c.473.676.973,1.331,1.466,1.992l-.3.446L53.885,247.172l-3.612,5.4-1.806,2.7a27.414,27.414,0,0,0-1.662,2.628.41.41,0,0,0,.142.541c4.383,3.366,8.721,6.792,12.96,10.339a.412.412,0,0,0,.479.062,26.1,26.1,0,0,0,4-3.195q1.9-1.669,3.751-3.387,3.744-3.469,7.29-7.146,4.323-4.493,8.266-9.331c.877.794,1.754,1.587,2.652,2.355a65.522,65.522,0,0,0,8.277,6.35,23.761,23.761,0,0,0,2.107,1.139v-1.923C96.727,254.022,96.694,254.379,96.69,254.726Z"/><path class="d" d="M58.351,248,49.969,259.13c-.306.407.381.8.684.4l14.919-19.814L80.491,219.9l8.09-10.744c-.382.069-.762.142-1.143.211L73.27,228.184Z"/><path class="d" d="M65.914,254.021q-4.425,5.4-9.015,10.655c-.333.382.224.944.56.559q8.2-9.4,15.881-19.237t14.81-20.091q4.009-5.765,7.84-11.652c.278-.429-.407-.826-.684-.4q-6.78,10.419-14.121,20.458Q73.823,244.375,65.914,254.021Z"/><path class="d" d="M93.879,223.045q-5.69,9.137-12.2,17.722-6.5,8.565-13.787,16.5-4.106,4.474-8.441,8.729c-.364.358.2.917.56.56q7.709-7.571,14.7-15.832,6.952-8.228,13.128-17.071,3.5-5.014,6.732-10.208C94.833,223.011,94.148,222.613,93.879,223.045Z"/><path class="e" d="M65.307,186.023l-1.32-7.67a4.95,4.95,0,0,1-2.889,3.406c-1.8.748-3.644.114-5.268-.78q.752,3.505,1.5,7.01A20.8,20.8,0,0,1,65.167,186,.381.381,0,0,1,65.307,186.023Z"/><path class="e" d="M60.661,181.085a4.141,4.141,0,0,0,2.608-3.1l-7.583,2C57.177,180.886,58.927,181.714,60.661,181.085Z"/><path class="e" d="M77.873,211.307c.281-.065.561-.135.842-.2l.284-.065c.279-.064.558-.131.838-.19,2.526-.539,5.061-1.023,7.6-1.487.381-.069.761-.142,1.143-.211q2.511-.45,5.026-.878l1.084-.185,2.036-.348V158.431a19.438,19.438,0,0,0-12.636-1.879c-.915.158-1.814.371-2.706.609a55.72,55.72,0,0,0-7.3,2.613c-.247.1-.494.208-.74.314-2.335,1-4.659,2.049-7.023,2.958-1.133.435-2.3.836-3.482,1.183-.253.075-.508.144-.763.213-4.753,1.289-9.758,1.637-14.195-.313a15.864,15.864,0,0,1-1.984-1.061c-5.481-3.4-8.694-9.79-12.422-15.237a17.067,17.067,0,0,0-2.525-3.051c-3,1.345-6,2.7-9.078,3.826-.021.156-.043.313-.06.467-1.715,15.787,7.18,32.195,21.344,39.374.332.168.668.333,1,.5,2.372,1.158,4.824,2.312,6.33,4.444,1.555,2.2,1.8,5.038,2,7.725q.219,3.011.439,6.02l.5,6.82a13.393,13.393,0,0,0,.61,3.481c2.05-.441,4.087-.937,6.119-1.462.259-.067.517-.137.775-.205C66.577,214.288,72.188,212.617,77.873,211.307ZM57.288,188.883a.414.414,0,0,1-.593-.331.365.365,0,0,1-.085-.169l-1.7-7.943-.015-.009a.365.365,0,0,1-.18-.305.4.4,0,0,1,.085-.721.422.422,0,0,1,.556-.148l8.1-2.138a.424.424,0,0,1,.347-.092l.314-.083a.379.379,0,0,1,.478.315.324.324,0,0,1,.013.033q.774,4.5,1.549,9c.075.437-.5.654-.7.366a.387.387,0,0,1-.284.137A19.82,19.82,0,0,0,57.288,188.883Z"/><path class="f" d="M65.451,186.656c.2.288.777.071.7-.366q-.776-4.5-1.549-9a.324.324,0,0,0-.013-.033.379.379,0,0,0-.478-.315l-.314.083a.424.424,0,0,0-.347.092l-8.1,2.138a.422.422,0,0,0-.556.148.4.4,0,0,0-.085.721.365.365,0,0,0,.18.305l.015.009,1.7,7.943a.365.365,0,0,0,.085.169.414.414,0,0,0,.593.331,19.82,19.82,0,0,1,7.879-2.09A.387.387,0,0,0,65.451,186.656Zm-2.182-8.67a4.141,4.141,0,0,1-2.608,3.1c-1.734.629-3.484-.2-4.975-1.1Zm-7.439,2.993c1.624.894,3.464,1.528,5.268.78a4.95,4.95,0,0,0,2.889-3.406l1.32,7.67a.381.381,0,0,0-.14-.022,20.8,20.8,0,0,0-7.833,1.988Q56.581,184.485,55.83,180.979Z"/><path class="g" d="M222.1,212.981a42.368,42.368,0,0,1-7.769-9.413v15.466A58.168,58.168,0,0,0,222.1,212.981Z"/><path class="g" d="M268.4,144.554a30.84,30.84,0,0,0-4.675,5.377c-2.962,4.272-6.2,8.5-10.533,11.369s-9.992,4.2-14.822,2.277c-3.983-1.586-6.867-5.092-10.558-7.274a17.932,17.932,0,0,0-13.033-2.011c-.152.035-.3.083-.449.128v47.612c.024.042.047.084.072.125q1.176,2.016,2.542,3.911a33.938,33.938,0,0,0,14.151,11.749,23.861,23.861,0,0,0,17.026.527,18.157,18.157,0,0,0,7.144-4.64c1.844-1.989,3.526-5.314,2.22-8-1.316-2.713-4.7-2.978-7.339-3.25a24.425,24.425,0,0,1-8.461-2.308,28.037,28.037,0,0,1-12.521-12.957,43.3,43.3,0,0,1-3.853-20.1.4.4,0,0,1,.791,0c-.046,1.736-.019,3.474.1,5.207.474,6.863,2.421,13.793,6.59,19.353a27.522,27.522,0,0,0,2.752,3.134,56.624,56.624,0,0,0,4.4-13.015c8.028,1.2,16.3-1.957,22.5-7.193s10.54-12.37,13.8-19.8c.3-.688.584-1.39.847-2.095C279.058,147.378,272.155,141.173,268.4,144.554ZM247.561,206.3q.465,2.326.931,4.654c.1.5-.664.709-.764.21l-.93-4.654C246.7,206.011,247.461,205.8,247.561,206.3ZM235.2,215.047l3.723-5.12c.3-.408.983-.013.683.4l-3.723,5.119C235.589,215.854,234.9,215.459,235.2,215.047Zm-9.775-7.806,1.9-6.506a.4.4,0,0,1,.763.21l-1.894,6.506A.4.4,0,0,1,225.428,207.241Zm-2.1-14.574-4.607-3.323c-.41-.295-.015-.981.4-.683l4.607,3.322C224.139,192.279,223.744,192.965,223.33,192.667Zm11.663-22.81q-.466.931-.931,1.862c-.228.456-.911.054-.684-.4q.466-.93.931-1.861C234.537,169,235.22,169.4,234.993,169.857Zm12.851,1.985L243.19,175.1c-.418.293-.813-.394-.4-.684l4.654-3.257C247.863,170.866,248.259,171.552,247.844,171.842Zm6.865,1.16-1.4-3.723c-.18-.479.586-.683.763-.211q.7,1.861,1.4,3.723C255.652,173.27,254.886,173.474,254.709,173Zm11.543-7.54-4.653-.474c-.5-.051-.507-.843,0-.791l4.653.474C266.754,164.722,266.758,165.514,266.252,165.462Zm3.754-11.063-.467-2.327c-.1-.5.663-.709.764-.21l.467,2.326C270.87,154.687,270.106,154.9,270.006,154.4Z"/><path d="M214.329,177.92V145.4c0-.956.015-1.912,0-2.868a2.543,2.543,0,0,0-.641-1.442q-5.175-7.875-10.349-15.75l-10.349-15.75-.588-.894-.341-.52V78.735H179.03v9.606l-16.823-25.6-6.337-9.644a.4.4,0,0,0-.683,0q-3.39,5.158-6.779,10.316-7.932,12.074-15.866,24.147l-18.194,27.689-13.92,21.185q-1.642,2.5-3.286,5a2.323,2.323,0,0,0-.415,1.619V266.438a.4.4,0,0,0,.4.4H209.179a44.57,44.57,0,0,0,4.551,0,1.983,1.983,0,0,1,.2,0,.4.4,0,0,0,.4-.4V177.92Zm-.791-34.173V263.223a26.776,26.776,0,0,0,0,2.819H98.9a10.41,10.41,0,0,0-1.376-.028V145.324a22.954,22.954,0,0,1-.012-3,.428.428,0,0,1,.052-.084c.117-.152.214-.326.319-.486q.656-1,1.312-2l11.915-18.134,17.841-27.153q8.465-12.88,16.928-25.763l9.549-14.532.1-.16,15.089,22.963,12.346,18.79,8.756,13.326q3.883,5.91,7.766,11.82,5.943,9.042,11.884,18.085l1.656,2.52a6.391,6.391,0,0,0,.431.656.656.656,0,0,1,.1.165A14.041,14.041,0,0,1,213.538,143.747Z"/><path d="M161.324,96.07a13.429,13.429,0,1,0,8.629,14.7,14.255,14.255,0,0,0,.165-2.094A13.571,13.571,0,0,0,161.324,96.07Z"/><path class="b" d="M178.2,122.317a22.379,22.379,0,0,0-3.663-4.473,116.454,116.454,0,0,0-13.262-12.266,42.889,42.889,0,0,0-11.864-6.449c-4.534,3.683-5.1,10.1-2.752,15.325,1.905.348,3.761,1.983,5.413,3a30.566,30.566,0,0,1,6.522,5.766,54.656,54.656,0,0,0,5.991,6.251,12.35,12.35,0,0,0,7.927,3.086c2.9-.089,5.848-1.9,6.617-4.681A7.476,7.476,0,0,0,178.2,122.317Z"/><path d="M178.018,140.68a78.486,78.486,0,0,1,18.052-6.136,19.107,19.107,0,0,0,3.915-1.01,2.293,2.293,0,0,0,1.257-1.027,3.055,3.055,0,0,0-.227-3.025c-1.8-2.623-6.164-3.033-9.926-2.646-5.405.555-15.653,6.109-15.653,6.109Z"/><path d="M139.416,202.724c-.7-1.217-2.108-1.905-3.262-2.613-1.332-.818-2.672-1.624-4.04-2.382a35.733,35.733,0,0,0-8.563-3.578,4.334,4.334,0,0,0-2.228-.269,1.579,1.579,0,0,0-1.051,1.242,2.28,2.28,0,0,0,.7,1.709c.028.037.066.065.1.1a3.221,3.221,0,0,0-.976-.019,2.3,2.3,0,0,0-1.953,1.543,2.559,2.559,0,0,0,.751,2.405,3.532,3.532,0,0,0,.9.624,2.387,2.387,0,0,0-1.377.893,2.359,2.359,0,0,0-.05,2.7c.776,1.106,2.234,1.44,3.473,1.778l9.3,2.537,2.845.776a3.374,3.374,0,0,0,3.32-.955,8.015,8.015,0,0,0,1.026-1.7c.325-.614.619-1.262.982-1.856a2.719,2.719,0,0,0,.493-1.184A2.927,2.927,0,0,0,139.416,202.724Zm-.768,2.5c-.255.408-.456.862-.681,1.287-.284.537-.558,1.081-.852,1.612a2.579,2.579,0,0,1-2.919,1.286l-6.489-1.77c-2.192-.6-4.391-1.173-6.577-1.794-1.035-.294-2.526-.94-2.372-2.253.182-1.546,1.959-1.518,3.137-1.416.447.039.534-.674.105-.777-1.221-.3-3.413-.9-3.128-2.609a1.539,1.539,0,0,1,1.531-1.118,5.04,5.04,0,0,1,2.362.7c.454.218.847-.424.4-.683a5.608,5.608,0,0,1-1.4-1.136c-.309-.347-.856-.92-.686-1.433.2-.611.8-.53,1.3-.428q.966.2,1.913.477a36.278,36.278,0,0,1,7.2,3.119c1.176.645,2.331,1.328,3.477,2.025a18.3,18.3,0,0,1,3.186,2.1,2.653,2.653,0,0,1,.83,1.363A1.764,1.764,0,0,1,138.648,205.226Z"/><path d="M151.582,172c-.106-.5-.869-.287-.763.211a25.168,25.168,0,0,0,4.2,9.489c.3.41.982.015.684-.4A24.6,24.6,0,0,1,151.582,172Z"/><path d="M171.242,184.669a50.807,50.807,0,0,1-3.856-25.262.37.37,0,0,0-.012-.123,3.368,3.368,0,0,0,2.434-.95,4.131,4.131,0,0,0-.8-6.23,4.594,4.594,0,0,0-.589-.32,2.257,2.257,0,0,0,.153-.892l.024-3.135a14.524,14.524,0,0,0-.26-3.518,4.882,4.882,0,0,0-1.843-2.925,9.925,9.925,0,0,0-3.9-1.1c-.329-.062-.74-.246-.7-.579.021-.165.157-.294.2-.455.1-.361-.269-.669-.6-.848a11.9,11.9,0,0,0-8.352-1.1,4.72,4.72,0,0,1-2.74.207,5.625,5.625,0,0,1-1.748-1.473,7.745,7.745,0,0,0-5.509-1.783c-7.567-.071-6.656,5.422-6.8,7.008a13.506,13.506,0,0,0,.646,4.708,4.452,4.452,0,0,0,1.368,2.532c.049.036.106.052.156.083-.179,2.2-.456,4.4-.687,6.592a27.216,27.216,0,0,0,.076,8.929,8.513,8.513,0,0,0,4.741,5.967c3.965,1.839,8.654,1.5,12.883,1.159a13.03,13.03,0,0,0,4.127-.84,7.471,7.471,0,0,0,3.013-2.43,10.6,10.6,0,0,0,1.778-3.909,3.779,3.779,0,0,0,.419-2.118l0-.548c.048-.557.082-1.114.095-1.666.011-.43,0-.86,0-1.29a3.46,3.46,0,0,0,1.7.856.4.4,0,0,0-.067.184,51.354,51.354,0,0,0,3.964,25.661C170.76,185.535,171.442,185.132,171.242,184.669Zm-8.327-18.7a7.8,7.8,0,0,1-2.461,3.016,8.394,8.394,0,0,1-3.91,1.293,45.275,45.275,0,0,1-7.632.3,17.32,17.32,0,0,1-5.309-1.016,7.75,7.75,0,0,1-4.832-5.32,23.481,23.481,0,0,1-.227-8.381c.228-2.339.542-4.672.744-7.014a5.976,5.976,0,0,0,1.871.125,23.541,23.541,0,0,0,6.529-1.378,4.383,4.383,0,0,1,1.4-.357,1.321,1.321,0,0,1,1.223.637,6.176,6.176,0,0,1,.225.9c.308.971,1.514,1.291,2.531,1.339a13.379,13.379,0,0,0,6.487-1.348.753.753,0,0,1,.6-.109.664.664,0,0,1,.309.4,10.548,10.548,0,0,1,.423,2.38,6.992,6.992,0,0,0,.136.71q.009,5.532.019,11.064a1.711,1.711,0,0,0,.444,1.395,1.966,1.966,0,0,0,1.9.178A10.427,10.427,0,0,1,162.915,165.971Zm1.992-9a.36.36,0,0,0-.065-.1q-.012-2.306-.022-4.613a.361.361,0,0,0,.275.036c2.534-.746,5.549,1.106,4.93,3.973a2.706,2.706,0,0,1-5.118.7Z"/><path class="a" d="M134.768,201.029a7.323,7.323,0,0,0-3.772,1.75,4.4,4.4,0,0,0-1.178,2.964,4.271,4.271,0,0,0,1.164,2.98,13.287,13.287,0,0,0,1.725,1.411q.915.681,1.871,1.305a39.383,39.383,0,0,0,11.7,5.128,48.058,48.058,0,0,1-1-6.786.807.807,0,0,1-.1-1.451,60.265,60.265,0,0,1,0-6.5A18.525,18.525,0,0,0,134.768,201.029Z"/><path class="a" d="M162.9,205.768a.792.792,0,0,0,0,1.583A.792.792,0,0,0,162.9,205.768Z"/><path class="a" d="M162.587,198.322a.792.792,0,0,0,0,1.583A.792.792,0,0,0,162.587,198.322Z"/><path class="a" d="M168.171,203.906a.792.792,0,0,0,0,1.583A.792.792,0,0,0,168.171,203.906Z"/><path class="a" d="M157.622,182.188a.792.792,0,0,0,0,1.583A.792.792,0,0,0,157.622,182.188Z"/><path class="a" d="M134.768,201.029a7.323,7.323,0,0,0-3.772,1.75,4.4,4.4,0,0,0-1.178,2.964,4.271,4.271,0,0,0,1.164,2.98,13.287,13.287,0,0,0,1.725,1.411q.915.681,1.871,1.305a39.383,39.383,0,0,0,11.7,5.128,48.058,48.058,0,0,1-1-6.786.77.77,0,0,0,.254.052.792.792,0,0,0,0-1.583.783.783,0,0,0-.351.08,60.265,60.265,0,0,1,0-6.5A18.525,18.525,0,0,0,134.768,201.029Z"/><path class="a" d="M154.83,195.84a.792.792,0,0,0,0,1.583A.792.792,0,0,0,154.83,195.84Z"/><path class="a" d="M157.622,212.593a.792.792,0,0,0,0,1.583A.792.792,0,0,0,157.622,212.593Z"/><path class="a" d="M186.786,202.355a.792.792,0,0,0,0,1.583A.792.792,0,0,0,186.786,202.355Z"/><path class="a" d="M185.856,216.626a.792.792,0,0,0,0,1.584A.792.792,0,0,0,185.856,216.626Z"/><path class="a" d="M183.994,185.291a.792.792,0,0,0,0,1.583A.792.792,0,0,0,183.994,185.291Z"/><path class="a" d="M179.651,211.042a.792.792,0,0,0,0,1.583A.792.792,0,0,0,179.651,211.042Z"/><polygon class="a" points="176.216 192.906 176.216 192.906 176.217 192.906 176.216 192.906"/><path class="a" d="M176.633,192.743a.4.4,0,0,1,.052.008A.434.434,0,0,0,176.633,192.743Z"/><path class="a" d="M176.742,192.773a.282.282,0,0,1,.063.037A.326.326,0,0,0,176.742,192.773Z"/><path class="a" d="M176.907,192.954a.386.386,0,0,1,.012.155A.386.386,0,0,0,176.907,192.954Z"/><path class="a" d="M176.842,192.842a.317.317,0,0,1,.047.075A.288.288,0,0,0,176.842,192.842Z"/><path class="a" d="M164.029,184.767a.38.38,0,0,1,.124-.1A.378.378,0,0,0,164.029,184.767Z"/><path class="a" d="M164.341,184.643a.35.35,0,0,1,.071.017A.294.294,0,0,0,164.341,184.643Z"/><path class="a" d="M164.487,184.708c.011.008.022.014.033.023A.388.388,0,0,0,164.487,184.708Z"/><path class="a" d="M164.6,184.83v0Z"/><path class="a" d="M164.193,184.652a.3.3,0,0,1,.093-.02A.3.3,0,0,0,164.193,184.652Z"/><path class="a" d="M183.994,185.291a.792.792,0,0,0,0,1.583A.792.792,0,0,0,183.994,185.291Z"/><path class="a" d="M179.651,211.042a.792.792,0,0,0,0,1.583A.792.792,0,0,0,179.651,211.042Z"/><path class="a" d="M186.786,202.355a.792.792,0,0,0,0,1.583A.792.792,0,0,0,186.786,202.355Z"/><path class="a" d="M185.856,216.626a.792.792,0,0,0,0,1.584A.792.792,0,0,0,185.856,216.626Z"/><path class="a" d="M154.83,195.84a.792.792,0,0,0,0,1.583A.792.792,0,0,0,154.83,195.84Z"/><path class="a" d="M157.622,182.188a.792.792,0,0,0,0,1.583A.792.792,0,0,0,157.622,182.188Z"/><path class="a" d="M154.83,195.84a.792.792,0,0,0,0,1.583A.792.792,0,0,0,154.83,195.84Z"/><path class="a" d="M135.13,181.824h-4.713c0,.132-.011.263-.011.386v5.415c.734-.122,1.484-.187,2.225-.246a54.742,54.742,0,0,0,11.386-1.7,20.443,20.443,0,0,0,6.281-3.09c.154-.257.309-.512.47-.763H135.13Z"/><path class="a" d="M179.651,211.042a.792.792,0,0,0,0,1.583A.792.792,0,0,0,179.651,211.042Z"/><path class="a" d="M164.1,232.535H181.1c0-.131.012-.263.012-.385V231a21.725,21.725,0,0,1-3.484.847,50.839,50.839,0,0,1-11.64.066,38.119,38.119,0,0,1-8.91-1.385,14.559,14.559,0,0,1-1.245,2Z"/><path class="a" d="M185.856,216.626a.792.792,0,0,0,0,1.584A.792.792,0,0,0,185.856,216.626Z"/><path class="a" d="M186.786,202.355a.792.792,0,0,0,0,1.583A.792.792,0,0,0,186.786,202.355Z"/><path class="a" d="M130.406,196.854V203.6a4.169,4.169,0,0,1,.59-.824,7.323,7.323,0,0,1,3.772-1.75,18.525,18.525,0,0,1,10.4.8,45.5,45.5,0,0,1,8.644,4.283c.7.426,1.4.859,2.095,1.293a.4.4,0,0,0,.595-.342,37.486,37.486,0,0,1,5.095-17.333,38.157,38.157,0,0,1,2.993-4.4.431.431,0,0,0,.036-.071h0a.416.416,0,0,0-.021-.424v0a.5.5,0,0,0-.083-.1.388.388,0,0,0-.033-.023.432.432,0,0,0-.075-.048.294.294,0,0,0-.071-.017.255.255,0,0,0-.055-.011.3.3,0,0,0-.093.02.262.262,0,0,0-.04.011.378.378,0,0,0-.124.1,38.871,38.871,0,0,0-7.744,17.043,37.711,37.711,0,0,0-.525,4.571,52.175,52.175,0,0,0-10.542-5.4c.05-.734.116-1.469.194-2.205A28.853,28.853,0,0,1,130.406,196.854Z"/><path class="a" d="M183.994,185.291a.792.792,0,0,0,0,1.583A.792.792,0,0,0,183.994,185.291Z"/><path d="M130.406,196.854a28.853,28.853,0,0,0,15.006,1.926,40.5,40.5,0,0,1,4.886-16.193,20.443,20.443,0,0,1-6.281,3.09,54.742,54.742,0,0,1-11.386,1.7c-.741.059-1.491.124-2.225.246V182.21c0-.123.008-.254.011-.386h20.351c.172-.267.345-.533.526-.791H136.353c-2.08,0-4.176-.076-6.255,0-.029,0-.059,0-.088,0a.4.4,0,0,0-.4.4v15.439c.266.13.528.271.792.407Z"/><path class="a" d="M157.622,182.188a.792.792,0,0,0,0,1.583A.792.792,0,0,0,157.622,182.188Z"/><path class="a" d="M154.83,195.84a.792.792,0,0,0,0,1.583A.792.792,0,0,0,154.83,195.84Z"/><path class="a" d="M164.1,232.535H181.1c0-.131.012-.263.012-.385V231a21.725,21.725,0,0,1-3.484.847,50.839,50.839,0,0,1-11.64.066,38.119,38.119,0,0,1-8.91-1.385,14.559,14.559,0,0,1-1.245,2Z"/><path class="a" d="M185.856,216.626a.792.792,0,0,0,0,1.584A.792.792,0,0,0,185.856,216.626Z"/><path class="a" d="M186.786,202.355a.792.792,0,0,0,0,1.583A.792.792,0,0,0,186.786,202.355Z"/><path class="a" d="M179.651,211.042a.792.792,0,0,0,0,1.583A.792.792,0,0,0,179.651,211.042Z"/><path class="a" d="M183.994,185.291a.792.792,0,0,0,0,1.583A.792.792,0,0,0,183.994,185.291Z"/><path d="M181.116,232.15c0,.122-.008.254-.012.385H155.837a14.559,14.559,0,0,0,1.245-2,14.654,14.654,0,0,1-3.747-1.76c-3.783-2.556-5.7-6.885-6.8-11.177a69.152,69.152,0,0,0-16.127,3.5V208.787l-.792-.215v18.016c0,2.08-.076,4.176,0,6.254,0,.03,0,.059,0,.089a.4.4,0,0,0,.4.395h45.159c2.08,0,4.176.076,6.255,0,.029,0,.059,0,.088,0a.4.4,0,0,0,.4-.395v-2.218q-.388.153-.792.29Z"/><path class="f" d="M168.171,203.906a.792.792,0,0,0,0,1.583A.792.792,0,0,0,168.171,203.906Z"/><path class="f" d="M162.587,198.322a.792.792,0,0,0,0,1.583A.792.792,0,0,0,162.587,198.322Z"/><path class="f" d="M145.269,209.781a.77.77,0,0,0,.254.052.792.792,0,0,0,0-1.583.783.783,0,0,0-.351.08A.807.807,0,0,0,145.269,209.781Z"/><path class="f" d="M157.622,212.593a.792.792,0,0,0,0,1.583A.792.792,0,0,0,157.622,212.593Z"/><path class="f" d="M162.9,205.768a.792.792,0,0,0,0,1.583A.792.792,0,0,0,162.9,205.768Z"/><path class="a" d="M172.825,189.634a.787.787,0,0,1,.306.063A.787.787,0,0,0,172.825,189.634Z"/><path class="a" d="M172.521,189.7a.8.8,0,0,1,.3-.062A.8.8,0,0,0,172.521,189.7Z"/><path class="a" d="M154.83,195.84a.792.792,0,0,0,0,1.583A.792.792,0,0,0,154.83,195.84Z"/><path class="a" d="M157.622,182.188a.792.792,0,0,0,0,1.583A.792.792,0,0,0,157.622,182.188Z"/><path class="a" d="M186.786,202.355a.792.792,0,0,0,0,1.583A.792.792,0,0,0,186.786,202.355Z"/><path class="a" d="M183.994,185.291a.792.792,0,0,0,0,1.583A.792.792,0,0,0,183.994,185.291Z"/><path class="a" d="M185.856,216.626a.792.792,0,0,0,0,1.584A.792.792,0,0,0,185.856,216.626Z"/><path class="a" d="M179.651,211.042a.792.792,0,0,0,0,1.583A.792.792,0,0,0,179.651,211.042Z"/><path class="h" d="M191.264,204.067c-.211-7.708-2.268-15.46-6.662-21.451s-11.279-10.023-18.432-9.775a18.179,18.179,0,0,0-14.876,8.192c-.181.258-.354.524-.526.791-.161.251-.316.506-.47.763a40.5,40.5,0,0,0-4.886,16.193c-.078.736-.144,1.471-.194,2.205a52.175,52.175,0,0,1,10.542,5.4,37.711,37.711,0,0,1,.525-4.571,38.871,38.871,0,0,1,7.744-17.043.378.378,0,0,1,.124-.1.262.262,0,0,1,.04-.011.3.3,0,0,1,.093-.02.255.255,0,0,1,.055.011.294.294,0,0,1,.071.017.432.432,0,0,1,.075.048.388.388,0,0,1,.033.023.5.5,0,0,1,.083.1v0a.416.416,0,0,1,.021.424h0a.431.431,0,0,1-.036.071,38.157,38.157,0,0,0-2.993,4.4A37.486,37.486,0,0,0,156.5,207.06a.4.4,0,0,1-.595.342c-.7-.434-1.394-.867-2.095-1.293a45.5,45.5,0,0,0-8.644-4.283,18.525,18.525,0,0,0-10.4-.8,7.323,7.323,0,0,0-3.772,1.75,4.169,4.169,0,0,0-.59.824,4.445,4.445,0,0,0-.588,2.14,4.313,4.313,0,0,0,.588,2.19,4.107,4.107,0,0,0,.576.79,13.287,13.287,0,0,0,1.725,1.411q.915.681,1.871,1.305a39.383,39.383,0,0,0,11.7,5.128c.7.181,1.412.338,2.123.484a37.7,37.7,0,0,0,3.825.589c.591.058,1.189.093,1.787.128a32.851,32.851,0,0,0,7.678-.386,12.8,12.8,0,0,0,4.615-1.657,10.952,10.952,0,0,0,3.224-3.346,41.281,41.281,0,0,0,4.239-9.172,51.554,51.554,0,0,0,2.362-10.1.415.415,0,0,1,.089-.2h0a.45.45,0,0,1,.416-.163.434.434,0,0,1,.052.008.321.321,0,0,1,.057.022.326.326,0,0,1,.063.037.283.283,0,0,1,.037.032.288.288,0,0,1,.047.075c.006.013.013.023.018.037a.386.386,0,0,1,.012.155c-.113.873-.243,1.743-.4,2.61a52.068,52.068,0,0,1-3.069,10.562,50.628,50.628,0,0,1-2.241,4.791,16.545,16.545,0,0,1-2.817,3.979c-2.449,2.433-5.877,3.159-9.2,3.438a38.1,38.1,0,0,1-3.955.1,39.963,39.963,0,0,1-5.96-.559c-.777-.134-1.547-.3-2.314-.483-.144.015-.287.028-.431.044,1.106,4.292,3.019,8.621,6.8,11.177a14.654,14.654,0,0,0,3.747,1.76,38.119,38.119,0,0,0,8.91,1.385,50.839,50.839,0,0,0,11.64-.066,21.725,21.725,0,0,0,3.484-.847q.4-.136.792-.29a10.556,10.556,0,0,0,6.814-7.366A68.8,68.8,0,0,0,191.264,204.067Zm-36.434-6.644a.792.792,0,0,1,0-1.583A.792.792,0,0,1,154.83,197.423Zm2.792-13.652a.792.792,0,0,1,0-1.583A.792.792,0,0,1,157.622,183.771Zm15.2,7.446a.783.783,0,0,1-.66-1.183.95.95,0,0,1,.05-.088.715.715,0,0,1,.088-.1,1.071,1.071,0,0,1,.218-.147.8.8,0,0,1,.3-.062.787.787,0,0,1,.306.063.581.581,0,0,1,.074.04.622.622,0,0,1,.155.116.595.595,0,0,1,.148.223c.012.028.028.053.038.082a.894.894,0,0,1,.035.218.873.873,0,0,1-.016.2c0,.019,0,.037-.009.056a.822.822,0,0,1-.068.181l-.021.036A.7.7,0,0,1,172.825,191.217ZM175,182.841a.769.769,0,0,1-.728-1.017.75.75,0,0,1,1.456,0A.769.769,0,0,1,175,182.841Zm4.654,29.784a.792.792,0,0,1,0-1.583A.792.792,0,0,1,179.651,212.625Zm2.257-10.566a.77.77,0,0,1-.086.017.716.716,0,0,1-.706-.481.905.905,0,0,1,0-.62.718.718,0,0,1,.706-.482.77.77,0,0,1,.086.018A.782.782,0,0,1,181.908,202.059Zm2.086-15.185a.792.792,0,0,1,0-1.583A.792.792,0,0,1,183.994,186.874Zm1.862,31.336a.792.792,0,0,1,0-1.584A.792.792,0,0,1,185.856,218.21Zm.93-14.272a.792.792,0,0,1,0-1.583A.792.792,0,0,1,186.786,203.938Z"/><path class="i" d="M144.092,227.945c-5.325,2.582-10.053,6.806-11.712,12.213-1.338,4.364-.58,9.012.329,13.452,1.038,5.076,2.26,10.116,3.481,15.154a16.929,16.929,0,0,0,2.2,5.811,6.411,6.411,0,0,0,5.454,2.931c3.9-.262,5.812-4.6,6.478-8.231a58.591,58.591,0,0,0-.474-23.455,73.992,73.992,0,0,0,27.721-7.708c3.912-1.981,8.006-4.856,8.509-9,.576-4.747-4.18-8.829-9.172-9.63S149.418,225.364,144.092,227.945Z"/><path d="M144.622,151.918c-1.589-.844-3.805-1.378-5.139.217-.325.388.232.951.56.56,1.1-1.311,2.892-.778,4.18-.094C144.673,152.84,145.073,152.157,144.622,151.918Z"/><path d="M154.53,153.127c-.474.175-.269.94.21.763a3.633,3.633,0,0,1,4.187,1.144c.307.4.994,0,.683-.4A4.424,4.424,0,0,0,154.53,153.127Z"/><path d="M149.564,162.1c.483.164.691-.6.21-.763-.9-.3-1.845-.159-2.75-.388a1.975,1.975,0,0,1-.963-.5,1.64,1.64,0,0,1-.245-1.439c.294-2.1.615-4.2.923-6.3.073-.5-.689-.714-.763-.211l-.541,3.688-.264,1.8a9.321,9.321,0,0,0-.2,1.751,2.069,2.069,0,0,0,1.42,1.833C147.409,161.983,148.535,161.757,149.564,162.1Z"/><path d="M154.851,162.54a11.524,11.524,0,0,1-8.4.929.4.4,0,0,0-.211.763,12.352,12.352,0,0,0,8.541-.79c.443,2.37-2.1,4.009-4.191,4.395-.5.092-.288.855.211.763,2.652-.489,5.649-2.8,4.626-5.823A.4.4,0,0,0,154.851,162.54Z"/><path d="M143.894,154.258a1.188,1.188,0,0,0,0,2.374A1.188,1.188,0,0,0,143.894,154.258Z"/><path d="M157.041,155.305a1.188,1.188,0,0,0,0,2.374A1.188,1.188,0,0,0,157.041,155.305Z"/><path d="M103.553,132.719V264.887a.4.4,0,0,0,.791,0V132.719a.4.4,0,0,0-.791,0Z"/><path d="M111.93,124.032V262.715a.4.4,0,0,0,.791,0V124.032a.4.4,0,0,0-.791,0Z"/><path d="M121.548,115.034V146.68a.4.4,0,0,0,.791,0V115.034a.4.4,0,0,0-.791,0Z"/><path d="M121.237,158.16V185.3a.4.4,0,0,0,.792,0v-1.387a.4.4,0,0,0-.792,0V185.3a.4.4,0,0,0,.792,0V158.16a.4.4,0,0,0-.792,0Z"/><path d="M120.307,209.972V262.4a.4.4,0,0,0,.791,0V209.972a.4.4,0,0,0-.791,0Z"/><path d="M130.855,96.729v23.89a.4.4,0,0,0,.792,0V96.729a.4.4,0,0,0-.792,0Z"/><path d="M130.855,132.1v43.746a.4.4,0,0,0,.792,0V132.1a.4.4,0,0,0-.792,0Z"/><path d="M141.4,81.837v46.848a.4.4,0,0,0,.791,0V81.837a.4.4,0,0,0-.791,0Z"/><path d="M153.5,64.463V89.594a.4.4,0,0,0,.791,0V64.463a.4.4,0,0,0-.791,0Z"/><path d="M164.052,72.84V91.455a.4.4,0,0,0,.792,0V72.84a.4.4,0,0,0-.792,0Z"/><path d="M174.291,93.627V114.1a.4.4,0,0,0,.791,0V93.627a.4.4,0,0,0-.791,0Z"/><path d="M174.911,144.508v24.821a.4.4,0,0,0,.792,0V144.508a.4.4,0,0,0-.792,0Z"/><path d="M189.8,142.957V182.98a.4.4,0,0,0,.792,0V142.957a.4.4,0,0,0-.792,0Z"/><path d="M201.9,146.99v26.682a.4.4,0,0,0,.792,0V146.99a.4.4,0,0,0-.792,0Z"/><path d="M201.9,181.118v81.6a.4.4,0,0,0,.792,0v-81.6a.4.4,0,0,0-.792,0Z"/><path d="M187.321,234.792v31.026a.4.4,0,0,0,.792,0V234.792a.4.4,0,0,0-.792,0Z"/><path d="M173.05,250v15.2a.4.4,0,0,0,.791,0V250a.4.4,0,0,0-.791,0Z"/><path d="M158.778,252.477v13.03a.4.4,0,0,0,.792,0v-13.03a.4.4,0,0,0-.792,0Z"/></svg>