<svg xmlns="http://www.w3.org/2000/svg" viewBox="0 0 300 300"><defs><style>.a{fill:#ffc010;}.b{fill:#b263ea;}.c{fill:#60358e;}.d{fill:#ffaf97;}.e{fill:none;}.f{fill:#a3ed96;}.g{fill:#7f57b2;}.h{fill:#fff;}.i{fill:#7dc16f;}</style></defs><title>Winner</title><path class="a" d="M277.039,87.378c-1.2-2.193-1.009-4.843-2.086-7.093a.727.727,0,0,0-.814-.331,4.816,4.816,0,0,0-3.058,2.981,15.1,15.1,0,0,1-1.415,3c-1.078-1.783-.151-4.257-.662-6.215a2.813,2.813,0,0,0-2.385-2.161,3.257,3.257,0,0,0-2.7,1.539,5.147,5.147,0,0,0-1.115,3.553.746.746,0,0,0,.721.721.724.724,0,0,0,.721-.721,3.783,3.783,0,0,1,.685-2.493c.345-.536,1-1.284,1.679-1.152.833.163,1.063,1.113,1.1,1.829.06,1.054-.072,2.11-.013,3.165a5.253,5.253,0,0,0,1.409,3.561.738.738,0,0,0,1.02,0,8.716,8.716,0,0,0,2.043-3.548,4.557,4.557,0,0,1,1.759-2.424,19.044,19.044,0,0,1,.693,2.913,12.2,12.2,0,0,0,1.164,3.6C276.24,88.92,277.486,88.193,277.039,87.378Z"/><path class="a" d="M286.2,159.021a.733.733,0,0,0-1.132-.146,20.1,20.1,0,0,0-2.633,3.02,16.49,16.49,0,0,1-1.56,1.807c-.036-2.016.039-4.034-.059-6.049a.743.743,0,0,0-.721-.721,4.406,4.406,0,0,0-2.887,1.084c-.373.277-.728.577-1.1.858a4.687,4.687,0,0,1-.463.318c-.04.023-.081.045-.122.065l-.008,0-.007.006h0l-.01.008a.255.255,0,0,1,.091.006.643.643,0,0,0-.1,0c-.029.02-.036.01-.008,0-.824-.057-1.148,1.21-.277,1.391.9.187,1.653-.56,2.3-1.076a5.629,5.629,0,0,1,1.887-1.15c.063,2.228-.039,4.457.082,6.684a.729.729,0,0,0,1.085.622c2.085-1.166,3.2-3.454,4.814-5.171a18.051,18.051,0,0,1,.833,4.483.746.746,0,0,0,.721.721.724.724,0,0,0,.72-.721C287.381,163.047,287.332,160.787,286.2,159.021Z"/><path class="a" d="M275.5,159.275a.044.044,0,0,0-.015,0h.008Z"/><path class="a" d="M28.687,162.179a2.839,2.839,0,0,0-2.658-.828,3.125,3.125,0,0,0-1.665,1.791,22.429,22.429,0,0,0-.959,2.75c-.129.42-.26.841-.419,1.251-.024.062-.045.115-.069.17-.13-.142-.26-.283-.379-.432-.405-.508-.769-1.049-1.136-1.584a13.8,13.8,0,0,0-2.227-2.874,2.014,2.014,0,0,0-2.766.236,6.17,6.17,0,0,0-1.4,3.157,29.718,29.718,0,0,0-.443,3.655c-.074.925,1.368.921,1.442,0,.07-.879.132-1.76.274-2.631a6.961,6.961,0,0,1,.963-2.952,1.078,1.078,0,0,1,.725-.492.327.327,0,0,1,.118.012l.084.054a2.8,2.8,0,0,1,.226.209,19.254,19.254,0,0,1,1.961,2.653,8.515,8.515,0,0,0,2.371,2.724.73.73,0,0,0,.874-.113c1.023-1.229,1.243-3.031,1.775-4.5a6.28,6.28,0,0,1,.429-.974c.05-.09.1-.179.159-.266.009-.013.068-.1.078-.114.045-.054.092-.1.139-.158.015-.016.1-.089.111-.1a.843.843,0,0,1,.12-.077c.1-.05-.077.006.108-.042a.259.259,0,0,0,.038-.011h.014c.023,0,.126.006.163.008a2.112,2.112,0,0,1,.925.5C28.379,163.784,29.405,162.769,28.687,162.179Z"/><path class="a" d="M294.7,209.323a.721.721,0,0,0-.887-.5c-1.468.612-2.688,1.68-4.1,2.382a7.3,7.3,0,0,1,.217-2.771,11.343,11.343,0,0,0,.379-3.64.741.741,0,0,0-.721-.72c-1.858-.076-3.485.844-5.227,1.33a.722.722,0,0,0,.383,1.391,25.556,25.556,0,0,1,4.16-1.255c-.011,2.372-1.274,4.654-.257,7.007a.719.719,0,0,0,.814.332,35.065,35.065,0,0,0,3.91-2.261,6.276,6.276,0,0,1-.357,2.073c-.308.877,1.085,1.254,1.39.383A7.619,7.619,0,0,0,294.7,209.323Z"/><path class="b" d="M62.246,166.189a.888.888,0,0,0-1.064-.6c-2.66.369-4.9,2.025-7.461,2.713a.866.866,0,0,0,.46,1.668c2.563-.687,4.8-2.344,7.461-2.713A.87.87,0,0,0,62.246,166.189Z"/><path class="c" d="M168.1,225.04c.7-.735,1.4-1.475,2.1-2.206a.386.386,0,0,0-.062-.245,34.464,34.464,0,0,0-3.291-3.8q-.913-.918-1.882-1.778a9.994,9.994,0,0,0-1.783-1.431,2.974,2.974,0,0,0-3.162.219,3.631,3.631,0,0,0-1.354,2.049.446.446,0,0,0-.447.475,7.121,7.121,0,0,1-1.346,3.978,24.665,24.665,0,0,1-2.66,3.377,22.6,22.6,0,0,1-3.672,3.125,8.159,8.159,0,0,1-1.375.864c-.431.192-.876.355-1.315.529a15.507,15.507,0,0,0-1.542.67,1.555,1.555,0,0,0-.794.721c2.428,1.163,5.214,1.3,7.985,1.336a12.049,12.049,0,0,0,4.667-.635c3.441-1.379,4.645-4.965,5.948-8.117.1-.241.2-.482.3-.721.043-.1.168-.279.22-.415.084.05.193.109.234.137a20.761,20.761,0,0,0,3.146,1.843A.673.673,0,0,0,168.1,225.04Z"/><path class="a" d="M160.1,24.961a5.647,5.647,0,0,0-6.018,3.566,6.307,6.307,0,0,0-.26.892A4.951,4.951,0,0,0,152.2,30c-2.407,1.366-4.482,4.49-4.111,7.335.016.119.049.227.074.341a3.085,3.085,0,0,0-2.278,2.439,5.523,5.523,0,0,0,1.383,3.9.744.744,0,0,0,.986.258.725.725,0,0,0,.259-.986,5.356,5.356,0,0,1-1.223-2.64c0-.081,0-.161,0-.242,0-.026,0-.052.008-.079l.01-.052c.018-.081.04-.16.064-.239.051-.165,0-.02.043-.1.037-.069.076-.135.117-.2.067-.107.044-.061.044-.061.051-.058.1-.112.159-.167.024-.024.1-.088.129-.11a3.277,3.277,0,0,1,.32-.2c.024-.013.117-.056.138-.067.071-.029.143-.055.216-.079s.117-.029.176-.044a4.965,4.965,0,0,0,2.745,1.925.725.725,0,0,0,.814-.331,1.988,1.988,0,0,0-.307-2.324,3.326,3.326,0,0,0-2.155-.82c-.079,0-.161,0-.242,0-.006-.025-.014-.045-.02-.071-.013-.061-.025-.123-.036-.185-.006-.031-.008-.039-.01-.049a.159.159,0,0,0,0-.041c-.012-.149-.019-.3-.017-.448,0-.131.01-.261.022-.392.012-.146.009-.088.012-.106.012-.077.026-.155.041-.232a5.923,5.923,0,0,1,.6-1.68,8.146,8.146,0,0,1,1.014-1.516,8.367,8.367,0,0,1,.673-.7,4.707,4.707,0,0,1,.633-.514,5.64,5.64,0,0,1,.73-.431q.083-.04.168-.078l.087-.033c.063-.022.128-.04.192-.06a5.045,5.045,0,0,0,1.193,3.416,2.951,2.951,0,0,0,3.02.8.743.743,0,0,0,.5-.887c-.25-1.645-.819-3.629-2.383-4.5a3.022,3.022,0,0,0-.695-.273c.025-.093.043-.188.072-.278a4.321,4.321,0,0,1,1.335-1.984,4.694,4.694,0,0,1,3.4-.815C161.021,26.485,161.015,25.042,160.1,24.961Zm-4.62,6.174c.022.017.075.058.1.078a2.529,2.529,0,0,1,.571.7,6.258,6.258,0,0,1,.687,1.9,1.084,1.084,0,0,1-.219-.022c-.059-.018-.117-.036-.175-.056-.026-.012-.1-.046-.13-.062-.067-.041-.134-.081-.2-.126-.008-.009-.076-.063-.137-.122s-.109-.113-.161-.172c-.1-.118.019.045-.09-.12a3.891,3.891,0,0,1-.279-.5.566.566,0,0,1-.054-.132c-.035-.1-.067-.192-.1-.289a5.163,5.163,0,0,1-.14-.615,4.326,4.326,0,0,1-.048-.691.249.249,0,0,0,.032.018c.059.031.118.06.176.094S155.423,31.1,155.477,31.135Z"/><path class="a" d="M100.886,35.363a.724.724,0,0,0-1.02,0c-.652.842-1.563,1.236-2.409.412a2.438,2.438,0,0,1-.322-.395,4.536,4.536,0,0,0-.206-3.16.726.726,0,0,0-1.245,0,3.949,3.949,0,0,0-.095,3.319c-.087.231-.183.454-.285.66A8.648,8.648,0,0,1,92.8,39.291a3.07,3.07,0,0,1-2.821.654,5.051,5.051,0,0,1-1.9-1.08,6.831,6.831,0,0,0,.786-3.888,3.207,3.207,0,0,0-.62-1.869,1.265,1.265,0,0,0-1.717-.1,3.751,3.751,0,0,0-1.3,4.152,6.007,6.007,0,0,0,1.078,1.96,3.145,3.145,0,0,1-1.592,1.419,1.707,1.707,0,0,1-2.332-1.158,12.2,12.2,0,0,1-.28-3.507.721.721,0,0,0-1.442,0,12.643,12.643,0,0,0,.375,4.027,3,3,0,0,0,3.12,2.167,4.19,4.19,0,0,0,3.162-1.93,4.941,4.941,0,0,0,4.908,1.12,8.738,8.738,0,0,0,4.039-3.806c.1-.178.2-.362.294-.549a2.878,2.878,0,0,0,4.324-.52A.745.745,0,0,0,100.886,35.363Zm-14.244-.236a2.344,2.344,0,0,1,.363-.6,3.143,3.143,0,0,1,.267-.274,4.211,4.211,0,0,1,.139.615,5.172,5.172,0,0,1-.36,2.813A2.849,2.849,0,0,1,86.642,35.127Z"/><path class="a" d="M270.726,123.537a2.683,2.683,0,0,0-2.435-.343,5.61,5.61,0,0,0-1.847.908,4.714,4.714,0,0,0-.315-1.469,3.263,3.263,0,0,0-2.422-2.011,5.6,5.6,0,0,0-4.036.911,2.475,2.475,0,0,0-2.193-1.058,3.725,3.725,0,0,0-2.759,1.858,3.258,3.258,0,0,0-.29,3.416c.508.772,1.757.051,1.245-.728-.786-1.2,1.239-3.926,2.591-2.918a1.243,1.243,0,0,1,.309.368,5.194,5.194,0,0,0-.675.872,3.9,3.9,0,0,0-.114,3.828.734.734,0,0,0,.987.259c1.492-.757,1.825-2.9,1.463-4.524a5.551,5.551,0,0,1,.541-.34,4.381,4.381,0,0,1,2.334-.577c.052,0,.1.008.157.013.094.017.187.036.28.06a2.963,2.963,0,0,1,.294.095l.009,0c.058.029.116.058.173.091.032.018.172.114.191.123a2.138,2.138,0,0,1,.174.155c.026.027.117.134.136.153.064.089.12.181.175.275a3.288,3.288,0,0,1,.316,1.509,7.747,7.747,0,0,1-.229,1.788,3.587,3.587,0,0,0-.155.6c-.011.041-.02.081-.032.121l.01,0c-.009.064-.03.125-.036.19-.067.828,1.2.953,1.417.192.071-.25.137-.508.2-.768a3.2,3.2,0,0,1,.636-.91,4.373,4.373,0,0,1,1.615-1.023,2.486,2.486,0,0,1,.794-.16c.07,0,.14,0,.21.006h.024a.255.255,0,0,0,.048.012,1.138,1.138,0,0,1,.151.045c.022.01.062.029.084.042a.2.2,0,0,0,.029.016l.02.017c.012.01.047.047.069.07a.4.4,0,0,1,.094.2,2.173,2.173,0,0,1-.007.966c-.173.906,1.216,1.3,1.391.383A2.728,2.728,0,0,0,270.726,123.537Z"/><path class="a" d="M227.14,226.946a3.031,3.031,0,0,0-2.42-.363,6.865,6.865,0,0,0-4.223,3.186c-1.3-1.131-3.3-1.615-4.538-.369a2.846,2.846,0,0,0-.518.723,3.523,3.523,0,0,0-2.707-1.644,3.156,3.156,0,0,0-3.235,3.128,4.991,4.991,0,0,0,.23,1.728,2.173,2.173,0,0,0,.52,1.077c.377.292.95.191,1.4.214.927.048.925-1.4,0-1.442-.147-.008-.3,0-.444-.006a3.211,3.211,0,0,1-.093-2.289,1.614,1.614,0,0,1,1.155-.946,1.865,1.865,0,0,1,.745.029,2.044,2.044,0,0,1,.783.406,4.156,4.156,0,0,1,1.235,2.607c.13.8,1.451.613,1.416-.192a3.625,3.625,0,0,1,.433-2.26c-.041.056.115-.121.184-.185.02-.016.052-.041.071-.053a1.934,1.934,0,0,1,.215-.116c-.127.056.165-.04.232-.054a.174.174,0,0,0,.023-.007.118.118,0,0,0,.028,0c.084,0,.166-.006.25,0,.051,0,.1.006.153.011.026,0,.074.011.1.017.14.031.277.069.414.114a1.074,1.074,0,0,1,.3.126,3.911,3.911,0,0,1,.386.224,2.93,2.93,0,0,1,.673.636,4.121,4.121,0,0,0,.017,2.165.727.727,0,0,0,1.205.318,2.337,2.337,0,0,0,.354-2.722,5.3,5.3,0,0,1,1.268-1.727,5.564,5.564,0,0,1,1.808-1.144,3.53,3.53,0,0,1,.857-.2,1.31,1.31,0,0,1,.726.091c.038.019.076.038.112.06s.057.035.085.054l.01.006,0,0a.739.739,0,0,1,.246.287,2.435,2.435,0,0,1,.272,1.066c.05.923,1.493.929,1.442,0A3.2,3.2,0,0,0,227.14,226.946Z"/><path class="a" d="M93.8,233.734a1.843,1.843,0,0,1-.577.41.4.4,0,0,1-.375,0c.089.036-.1-.07-.1-.071.031.024-.129-.132-.156-.166a2.276,2.276,0,0,1-.273-.482,3.757,3.757,0,0,1-.075-2.689.728.728,0,0,0-1.059-.814,10.792,10.792,0,0,0-1.946,2.176,5.543,5.543,0,0,1-2.009,1.93c-1.239.486-1.761-.832-1.854-1.976.043-.049.093-.1.134-.146a8.613,8.613,0,0,0,1.681-2.874.726.726,0,0,0-.7-.913c-1.739.122-2.492,1.757-2.57,3.371a3.429,3.429,0,0,1-.5.4,1.6,1.6,0,0,1-.5.233.482.482,0,0,1-.353-.014c-.717-.31-.42-1.378-.155-1.952a4.306,4.306,0,0,1,1.751-2.077c.84-.391.109-1.634-.728-1.245a5.2,5.2,0,0,0-2.014,2.115,4.052,4.052,0,0,0-.647,3.082,2.115,2.115,0,0,0,2.362,1.515,2.833,2.833,0,0,0,.957-.389c.013.048.023.1.038.146a2.95,2.95,0,0,0,2.151,2.2,3.507,3.507,0,0,0,3.151-1.391,18.616,18.616,0,0,0,1.189-1.535,4.748,4.748,0,0,0,.629,1.913,2.233,2.233,0,0,0,1.439,1.1,2.5,2.5,0,0,0,2.131-.839C95.492,234.115,94.471,233.1,93.8,233.734Z"/><path class="a" d="M107.169,159.353c-1.642,1-1.837,2.944-1.665,4.694.085.859.253,1.793.332,2.512a6.709,6.709,0,0,1,.053,1.031c0,.056-.007.112-.012.167,0,.034-.012.081-.018.1-.017.059-.033.118-.05.177v0a.25.25,0,0,1-.031.048h0l0,0,0,0c-.006.006-.005.009-.008.013a.1.1,0,0,1-.018.009c-.166.063.07-.028-.025.014a.287.287,0,0,1-.078.024,2.307,2.307,0,0,1-1.012-.169,11.087,11.087,0,0,1-1.765-.768,8.022,8.022,0,0,1-1.483-1.309c-1.3-1.13-2.93.19-3.077,1.661a5.1,5.1,0,0,0,1.2,3.451,19.2,19.2,0,0,1,1.774,2.242c.011.019.037.073.061.122-.069,0-.151,0-.2,0a6.832,6.832,0,0,1-1.222-.2c-.9-.206-1.289,1.184-.383,1.39s2.624.656,3.2-.419c.456-.851-.3-1.819-.8-2.458-.293-.376-.6-.737-.914-1.1-.139-.163-.277-.326-.412-.491a1.6,1.6,0,0,1-.221-.3,4.389,4.389,0,0,1-.651-1.715,1.153,1.153,0,0,1,.192-.891,1.2,1.2,0,0,1,.328-.285.311.311,0,0,1,.043-.018c.212.089.394.375.542.536a5.49,5.49,0,0,0,.823.753,9.509,9.509,0,0,0,2.016.991,3.437,3.437,0,0,0,2.673.245c1.451-.709.932-2.857.752-4.1a12.709,12.709,0,0,1-.2-2.842,2.293,2.293,0,0,1,.989-1.882C108.687,160.115,107.963,158.867,107.169,159.353Z"/><path class="a" d="M105.76,168.109l.014-.015,0,0C105.75,168.1,105.716,168.107,105.76,168.109Z"/><path class="a" d="M48.016,187.774c-.038.028-.052.051.048,0l-.006-.007Z"/><path class="a" d="M51.429,191.5a1.611,1.611,0,0,1-.666-.671,5.619,5.619,0,0,1-.5-1.212,9.954,9.954,0,0,0-.923-2.535,1.576,1.576,0,0,0-2.321-.4,3.451,3.451,0,0,0-1.538,2.407c-.169.931-.186,2-.323,2.854a5.277,5.277,0,0,1-.137.647c-.026.09-.054.181-.089.269l-.007.012c-.024.048-.048.095-.075.141a.377.377,0,0,1-.437.227,2.987,2.987,0,0,1-.559-.137,1.677,1.677,0,0,1-.58-.316,2.936,2.936,0,0,1-.629-1.314c-.319-1.1-.432-2.442-1.218-3.336a2.192,2.192,0,0,0-3.413.452,9.7,9.7,0,0,0-1.374,3.755c-.194.905,1.2,1.292,1.391.383a9.817,9.817,0,0,1,1.028-3.117c.2-.324.5-.659.811-.679a.578.578,0,0,1,.432.106c-.094-.065.122.145.066.069a2.006,2.006,0,0,1,.2.332c.483,1.008.54,2.187.972,3.221a3.146,3.146,0,0,0,2.538,1.986c2.331.351,2.513-2.333,2.659-3.98a11.741,11.741,0,0,1,.154-1.272,2.484,2.484,0,0,1,.344-1c.061-.09-.042.028.087-.1a4.025,4.025,0,0,1,.321-.292,2.922,2.922,0,0,1,.351-.222.123.123,0,0,1,.029-.008.078.078,0,0,1,.035-.017l.007.006.008,0c0,.006,0,.006,0,.008l0,0,0,0,0,0,.024.029a3.5,3.5,0,0,1,.442,1.074c.157.512.3,1.03.477,1.535a3.708,3.708,0,0,0,2.034,2.473C51.916,193.215,52.291,191.821,51.429,191.5Z"/><path class="a" d="M49.857,80a1.433,1.433,0,0,1-.719.2.81.81,0,0,1-.376-.131,1.376,1.376,0,0,1-.178-.188,13.711,13.711,0,0,0,.239-4.853.727.727,0,0,0-1.2-.318c-1.176,1.116-1.246,3.224-.843,4.686a4.443,4.443,0,0,0,.306.78,3.979,3.979,0,0,1-.923,2.034,1.445,1.445,0,0,1-.9.209,2.325,2.325,0,0,1-1.2-.62,4.79,4.79,0,0,1-.507-.539c.011-.039.024-.081.034-.119a14.355,14.355,0,0,0,.485-3.123,5.024,5.024,0,0,0-.408-2.484.727.727,0,0,0-.814-.331c-2.817.869-2.139,4.227-.867,6.308a6.806,6.806,0,0,1-1.169,2.334,1.577,1.577,0,0,1-1.324.689,1.744,1.744,0,0,1-1.361-.665c-.078-.085-.129-.194-.2-.287C38.979,82.2,39.138,79.793,39,78.3c-.078-.856-.232-2.355-1.272-2.592-1.351-.306-1.946,1.94-2.158,2.843a8.314,8.314,0,0,0,.5,4.634.978.978,0,0,1-.838-.2,3,3,0,0,1-.689-1.59,6.318,6.318,0,0,1,.363-3.81.722.722,0,0,0-1.245-.728,7.43,7.43,0,0,0-.565,4.586c.213,1.427.954,3.169,2.635,3.209a2.694,2.694,0,0,0,1.044-.173A3.067,3.067,0,0,0,40.481,85.8a4.723,4.723,0,0,0,2.56-2.983,3.358,3.358,0,0,0,3.247.923,3.278,3.278,0,0,0,1.921-2.336,2.566,2.566,0,0,0,2.375-.162C51.407,80.814,50.679,79.569,49.857,80ZM37.175,78.221a5.818,5.818,0,0,1,.255-.661c.033.138.068.276.092.416a1.382,1.382,0,0,1,.028.219c.01.11.02.219.028.329q.028.429.019.859a8.618,8.618,0,0,1-.154,1.559,7.313,7.313,0,0,1-.182.732c-.045.146-.076.242-.109.33a7.588,7.588,0,0,1-.288-1.91A5.256,5.256,0,0,1,37.175,78.221Zm5.24-.835a1.172,1.172,0,0,1,.189-.361c.02.21.031.476.03.689a10.482,10.482,0,0,1-.131,1.511c-.026-.092-.063-.181-.084-.273A3.035,3.035,0,0,1,42.415,77.386Z"/><path class="a" d="M51.79,137.327l-.009-.008-.006,0a.358.358,0,0,0,.084.08l-.011-.022C51.833,137.36,51.817,137.347,51.79,137.327Z"/><path class="a" d="M65.142,138.67a3.335,3.335,0,0,1-.435.03c-.039,0-.081,0-.123,0a1.486,1.486,0,0,0-.255-.071,1.1,1.1,0,0,0-.113-.064c-.012-.006-.017-.006-.026-.01l-.033-.037c-.069-.071-.135-.148-.206-.217h0c-.008-.014-.013-.024-.025-.044-.067-.114-.138-.224-.2-.341-.051-.095-.1-.194-.144-.291l-.027-.052-.006-.018c-.086-.238-.178-.472-.261-.711-.153-.444-.3-.891-.475-1.326a3.187,3.187,0,0,0-2.152-2.217,3.113,3.113,0,0,0-3.406,2.121,13.509,13.509,0,0,0-.548,3.759c-.012.135-.027.268-.041.4.031-.3,0,.019-.025.132s-.047.237-.078.354c-.035.135-.221.471-.032.165a2.665,2.665,0,0,0-.128.237.356.356,0,0,1-.035.028c-.06.038-.118.077-.179.112s-.115.062-.17.1l-.021.013a.483.483,0,0,0-.141.044l0,0-.059-.07-.014-.027c-.048-.085-.1-.166-.146-.253-.033-.061-.08-.166-.1-.218-.349-.915-.556-1.873-.87-2.8a5.642,5.642,0,0,0-.68-1.469,3.627,3.627,0,0,0-2.486-1.422c-2.286-.306-4.171,1.625-4.56,3.762a1.334,1.334,0,0,0,.907,1.6,1.309,1.309,0,0,0,1.6-.906,2.85,2.85,0,0,1,.287-.915c.022-.04.269-.426.187-.319a2.9,2.9,0,0,1,.231-.253c.024-.025.1-.1.128-.122a2.006,2.006,0,0,1,.374-.22c.027,0,.243-.058.21-.065a1.124,1.124,0,0,1,.791.181c.023.012.076.041.13.072l0,0,.009.007.019.011-.03-.022c-.005-.011-.006-.02,0-.023s.034.024.062.068c.047.03.089.058.093.073l-.089-.066.007.013c.058.049.045.046.011.022.082.144.19.385.207.419-.022-.043-.031-.062-.041-.083.015.033.033.075.052.126.038.1.073.2.106.306.077.23.145.463.212.7.559,1.944,1.3,4.946,3.971,4.442a3.475,3.475,0,0,0,2.675-2.462,21.1,21.1,0,0,0,.419-3.6c.01-.058.018-.118.029-.176.023-.13.049-.258.081-.386s.071-.241.106-.362a.392.392,0,0,1,.021-.056c.02-.042.04-.083.063-.123s.043-.07.064-.1.089-.075.131-.115a.909.909,0,0,0,.133-.073l.008,0,.009.009,0,0c.044.077.092.152.135.23s.077.162.118.242c.016.04.032.08.047.12a15.478,15.478,0,0,0,1.277,3.111,3.57,3.57,0,0,0,3.458,1.7,1.339,1.339,0,0,0,1.3-1.3A1.3,1.3,0,0,0,65.142,138.67Z"/><path class="a" d="M52.025,137.731c-.024-.051-.03-.061,0,0Z"/><path class="a" d="M51.837,137.353l-.037-.023.041.03Z"/><path class="a" d="M265.68,187.458a1.311,1.311,0,0,0-1.6-.906c-1.759.494-3.044,1.952-4.255,3.234q-.325.346-.668.677c-.011-.063-.031-.179-.038-.218s-.028-.246-.034-.3c-.015-.152-.033-.305-.037-.458,0-.077,0-.154,0-.232a.66.66,0,0,1,0-.069c.036-.2.069-.4.113-.595.221-1.012.518-2.007.666-3.034a4.138,4.138,0,0,0-.508-3.224,2.657,2.657,0,0,0-2.918-.857,7.636,7.636,0,0,0-3.279,2.43,6.613,6.613,0,0,1,.456-3.573,1.306,1.306,0,0,0-.906-1.6,1.329,1.329,0,0,0-1.6.906,8.952,8.952,0,0,0,.445,7.527,1.3,1.3,0,0,0,2.038.263c.491-.6.971-1.21,1.5-1.782a13.333,13.333,0,0,1,.992-.983c.086-.075.174-.147.261-.221l.04-.034.049-.031c.2-.132.412-.246.615-.374l.018-.013.019,0a1.949,1.949,0,0,0,.222-.062h.015c0,.019.009.034.018.062a1.481,1.481,0,0,1,.027.16c0,.056.009.112.01.168a6.309,6.309,0,0,1-.034.659l0,.054c0,.019-.008.036-.014.069-.022.12-.041.241-.064.361-.055.287-.12.572-.187.857a17.2,17.2,0,0,0-.589,2.933,6.5,6.5,0,0,0,.576,3.079,1.96,1.96,0,0,0,2.223,1.111,4.115,4.115,0,0,0,1.8-1.2c.651-.639,1.245-1.334,1.9-1.964.088-.084.18-.163.27-.245-.046.754-.152,1.509-.263,2.243a23.106,23.106,0,0,0-.4,4.663,1.326,1.326,0,0,0,1.3,1.3,1.31,1.31,0,0,0,1.3-1.3,22.941,22.941,0,0,1,.389-4.52A16.484,16.484,0,0,0,265.68,187.458Z"/><path class="a" d="M234.91,51.368l.01-.009-.01.008Z"/><path class="a" d="M238.505,50.2c-.039.04-.057.06-.05.056l.044-.047Z"/><path class="a" d="M242.244,48.637c.06-.037.053-.042,0,0Z"/><path class="a" d="M244.516,46.605a3.694,3.694,0,0,0-3.563-.231,4.343,4.343,0,0,0-1.612,2.127c-.071.165-.14.33-.209.5l-.006.014-.021.048c-.086.2-.172.393-.269.584a4.8,4.8,0,0,1-.269.473.779.779,0,0,1-.062.083l.043-.044c-.017.017-.033.035-.049.053s-.039.042-.044.047c-.035.038-.071.076-.107.113-.012.013-.008.011-.017.02s0,0,0,0-.047.024-.081.043c-.049.017-.118.045-.146.057-.035-.03-.172-.09-.027,0h0c-.077-.047-.154-.094-.23-.142-.014-.013-.127-.093-.178-.136-.121-.1-.239-.211-.359-.316-1.132-.993-2.591-1.634-3.948-.595-1.228.939-1.066,2.387-1.432,3.722-.017.063-.078.218-.079.232-.08.165-.165.327-.253.487-.075.137-.153.273-.236.405-.024.039-.1.146-.147.222-.071-.048-.143-.095-.212-.145a6.287,6.287,0,0,0-1.008-.62,4.7,4.7,0,0,0-4.509.233,5.046,5.046,0,0,0-1.909,4.743,1.332,1.332,0,0,0,1.3,1.3,1.307,1.307,0,0,0,1.3-1.3,6.651,6.651,0,0,1-.019-.988c0-.069.012-.139.02-.208l.01-.05c.035-.171.078-.337.129-.5.005-.017.036-.1.052-.146l.032-.066a3.126,3.126,0,0,0,.159-.282,3.007,3.007,0,0,0,.218-.231l.032-.032c.066-.045.137-.082.2-.126l.061-.041a2.377,2.377,0,0,1,.234-.078c.108-.03.218-.051.328-.071.025,0,.273-.022.317-.023.108,0,.216.008.324.016.037.007.116.02.181.036.1.026.2.065.3.093h0l0,0c.106.059.216.11.321.173a5.359,5.359,0,0,0,1.969,1.031c1.216.162,2.049-.786,2.618-1.736a6.218,6.218,0,0,0,.83-1.918c.12-.588.14-1.2.3-1.776.016-.054.036-.107.05-.161,0-.006,0,0,0-.007l.064-.116-.007,0,.006,0h0l.008-.007h0l.028-.01c.025.008.033.01.053.018a1.127,1.127,0,0,0,.122.085.746.746,0,0,0,.074.04.227.227,0,0,0,.032.031c.107.092.214.183.32.277.962.85,2.035,1.589,3.379,1.152a3.753,3.753,0,0,0,2.112-1.929c.1-.2.2-.408.289-.617.06-.138.118-.276.176-.415l.061-.145.015-.034a10.457,10.457,0,0,1,.568-1.092.208.208,0,0,0,.021-.018.786.786,0,0,1,.073-.064c-.02.012-.045.027-.081.045h0c.018-.011.059-.042.1-.072a.648.648,0,0,0,.063-.016.407.407,0,0,1,.078,0l.09,0,.032.01c.13.036.257.071.386.113l.071.026c-.018,0,.207.1.22.1a1.33,1.33,0,0,0,1.775-.466A1.309,1.309,0,0,0,244.516,46.605Z"/><path class="b" d="M26.11,116.473c-2.269-.855-4.712-1.515-6.613-3.095a1.185,1.185,0,0,0-1.631,0,1.164,1.164,0,0,0,0,1.632c2.237,1.859,4.954,2.679,7.631,3.688a1.164,1.164,0,0,0,1.419-.806A1.179,1.179,0,0,0,26.11,116.473Z"/><path class="b" d="M80.54,94.726c-1.652-1.971-3.009-4.167-4.567-6.21a1.193,1.193,0,0,0-1.579-.413,1.161,1.161,0,0,0-.414,1.578c1.678,2.2,3.149,4.554,4.929,6.677a1.162,1.162,0,0,0,1.631,0A1.18,1.18,0,0,0,80.54,94.726Z"/><path class="b" d="M243.765,95.563a28.727,28.727,0,0,1-5.871-3.55,1.186,1.186,0,0,0-1.632,0,1.165,1.165,0,0,0,0,1.632,30.975,30.975,0,0,0,6.338,3.91,1.181,1.181,0,0,0,1.578-.413A1.165,1.165,0,0,0,243.765,95.563Z"/><path class="b" d="M257.521,147.8a1.163,1.163,0,0,0-1.419-.806c-3.052,1.111-6.763,1.447-8.829,4.261a1.162,1.162,0,0,0,.414,1.578,1.18,1.18,0,0,0,1.578-.414c-.07.095.016-.021.042-.051.053-.061.107-.121.162-.179a4.623,4.623,0,0,1,.4-.376,7.607,7.607,0,0,1,.709-.467,10.3,10.3,0,0,1,1.966-.853c1.376-.466,2.8-.777,4.167-1.274A1.185,1.185,0,0,0,257.521,147.8Z"/><path class="b" d="M219.256,202.588c-1.019-2.544-1.94-5.138-3.688-7.292a1.161,1.161,0,0,0-1.631,0,1.181,1.181,0,0,0,0,1.632,23.539,23.539,0,0,1,3.094,6.273,1.19,1.19,0,0,0,1.419.806A1.162,1.162,0,0,0,219.256,202.588Z"/><path class="b" d="M267.4,214.776c-1.757-1.833-4.222-2.608-6.338-3.91-1.268-.781-2.428,1.214-1.164,1.992,1.931,1.189,4.271,1.881,5.87,3.55C266.8,217.482,268.426,215.849,267.4,214.776Z"/><path class="b" d="M110.722,204.6a47.388,47.388,0,0,0-4.981-4.928,1.159,1.159,0,0,0-1.578.414,1.182,1.182,0,0,0,.413,1.578,43.954,43.954,0,0,1,4.515,4.567A1.154,1.154,0,0,0,110.722,204.6Z"/><path class="b" d="M53.474,206.637a36.773,36.773,0,0,0-5.267,6.338A1.155,1.155,0,0,0,50.2,214.14a34.018,34.018,0,0,1,4.907-5.871C56.12,207.186,54.492,205.552,53.474,206.637Z"/><path class="b" d="M204.5,30.526a1.165,1.165,0,0,0-1.578-.414c-2.386,1.6-4.111,3.829-6,5.946a1.179,1.179,0,0,0,0,1.631,1.164,1.164,0,0,0,1.631,0c1.742-1.952,3.333-4.113,5.532-5.585A1.181,1.181,0,0,0,204.5,30.526Z"/><path class="b" d="M119.5,31.819c-.606-2.189-1.4-4.52-1.315-6.815.056-1.485-2.251-1.482-2.308,0-.095,2.5.739,5.047,1.4,7.428A1.155,1.155,0,0,0,119.5,31.819Z"/><rect class="a" x="132.902" y="233.008" width="49.497" height="40.356" rx="3"/><rect class="a" x="89.243" y="245.556" width="49.497" height="27.808" rx="3"/><rect class="a" x="177.267" y="259.46" width="49.497" height="13.904" rx="3"/><path class="a" d="M58.589,247.555a1.018,1.018,0,0,0-1.427,0,5.45,5.45,0,0,0-.977,1.975,15.821,15.821,0,0,1-.638,1.946,3.083,3.083,0,0,1-.209.366.93.93,0,0,1-.12.132c.056-.043-.167.086-.229.11a1.484,1.484,0,0,1-.208.056l-.007,0c0-.006-.008-.009-.025-.009a.121.121,0,0,0-.038-.007c-.011-.007-.023-.012-.033-.019-.044-.039-.123-.109-.15-.136-.222-.222-.407-.478-.61-.716a4.757,4.757,0,0,0-4.244-1.617,3.668,3.668,0,0,0-2.684,2.275,27.251,27.251,0,0,0-1.13,3.508,1.825,1.825,0,0,1-.7-.219c-1.151-.6-2.173,1.143-1.019,1.743.952.5,2.941,1.029,3.459-.323.236-.618.388-1.272.562-1.909.085-.309.171-.618.267-.924.052-.165.106-.33.164-.494.024-.065.181-.456.121-.319a4.726,4.726,0,0,1,.453-.821l.013-.017c.034-.04.069-.082.106-.119l.154-.148.015-.015c.028-.019.055-.039.084-.057s.169-.085.2-.1a2.071,2.071,0,0,1,.346-.09c.017.009.311,0,.37,0l.1.008c.11.016.223.041.33.067a2.748,2.748,0,0,1,1.682,1.077,3.526,3.526,0,0,0,1.623,1.321,2.7,2.7,0,0,0,2.434-.652,5.153,5.153,0,0,0,1.231-2.4c.133-.434.251-.872.4-1.3a3.815,3.815,0,0,1,.146-.382c.036-.076.075-.152.117-.225.026-.043.217-.291.082-.133A1.036,1.036,0,0,0,58.589,247.555Z"/><path class="a" d="M23.32,274.346c-.531-.453-1.03-.941-1.58-1.374a3.051,3.051,0,0,0-2.1-.913,2.891,2.891,0,0,0-2.155,1.382c-.039.054-.287.391-.166.244-.056.068-.123.13-.184.195a.124.124,0,0,0,.031,0c-.01,0-.027.006-.04.008a.468.468,0,0,0-.043.046.127.127,0,0,0,.023-.042c-.067.013-.147.035-.178.042-.2.042-.514.1-.654.12-.048.007-.264.028-.38.032h-.247a.734.734,0,0,1-.086-.02h0c-.014-.031-.034-.059-.06-.054L15.485,274c-.018-.027-.066-.1-.07-.1-.063-.1-.127-.209-.188-.316-.174-.307-.339-.62-.517-.926-.208-.357-.461-.695-.633-1.072.026.056-.092-.258-.117-.338-.044-.14-.081-.284-.125-.424a2.346,2.346,0,0,0-1.468-1.64,4.225,4.225,0,0,0-5.316,2.9c-.311,1.261,1.635,1.8,1.946.536a2.423,2.423,0,0,1,1.389-1.515,1.781,1.781,0,0,1,1-.1,1.984,1.984,0,0,1,.327.083l.043.015a.142.142,0,0,0,.025.007.1.1,0,0,0,.016.017c0,.006,0,0,.005.009.007-.01.075.2.03.046-.034-.124.063.2.079.256.085.278.164.552.275.822a20.8,20.8,0,0,0,1.138,2.053,2.739,2.739,0,0,0,2.573,1.8,4.927,4.927,0,0,0,2.279-.486,2.99,2.99,0,0,0,.786-.784c.074-.1.145-.2.215-.3l.077-.109c.013-.013.1-.117.115-.137a.5.5,0,0,1,.447-.221h.009a.566.566,0,0,0,.06.047c.152.093.3.19.443.3.486.364,1.047.919,1.564,1.36a1.036,1.036,0,0,0,1.427,0A1.018,1.018,0,0,0,23.32,274.346Z"/><path class="a" d="M17.112,273.878c0-.006-.012,0,0,0Z"/><path class="a" d="M17.139,273.88l-.027,0,0,.016.02,0Z"/><path class="a" d="M264.234,270.458a3.807,3.807,0,0,0-4.207.307,4.921,4.921,0,0,0-1.562,2.7,2.613,2.613,0,0,1-.244-.121,4.514,4.514,0,0,1-1.083-.845c-.821-.791-1.531-1.69-2.362-2.472a5.527,5.527,0,0,0-3.135-1.657,4.136,4.136,0,0,0-3.547,1.434,11.188,11.188,0,0,0-1.96,3.968c-.4,1.238,1.544,1.768,1.946.537a9.984,9.984,0,0,1,1.331-2.945,2.25,2.25,0,0,1,2.3-.944c.1.024.192.055.286.088l.025.008.012.006c.046.021.092.043.137.067a5,5,0,0,1,.619.386c.1.071.3.245.472.4.2.181.387.37.572.562.734.759,1.4,1.586,2.2,2.286a4.614,4.614,0,0,0,3.24,1.382,1.042,1.042,0,0,0,1.009-1.009,3.674,3.674,0,0,1,1-2.261,1.418,1.418,0,0,1,.771-.37,2.239,2.239,0,0,1,1.162.231,1.038,1.038,0,0,0,1.381-.362A1.018,1.018,0,0,0,264.234,270.458Z"/><path class="a" d="M294.682,245.363a1.857,1.857,0,0,0-1.786-.853,11.065,11.065,0,0,0-4.055,1.727c-.318.172-.638.342-.965.5l-.2.094-.025.012c-.138.054-.276.108-.418.151-.045.013-.089.021-.134.031h0l-.006,0v-.083c0-.1,0-.2,0-.294a3.137,3.137,0,0,1,.068-.587c.086-.5.195-.987.268-1.486a3.658,3.658,0,0,0-.68-3.208c-.929-.969-2.345-.822-3.538-.548a24.435,24.435,0,0,0-3.134,1.052,1.037,1.037,0,0,0-.7,1.241,1.016,1.016,0,0,0,1.242.705c.834-.314,1.661-.646,2.519-.892a8.506,8.506,0,0,1,1.291-.281,3.186,3.186,0,0,1,.586,0c.047.009.129.024.144.029l.023.008a.917.917,0,0,1,.108.066.684.684,0,0,1,.146.228c.013.052.043.154.044.158a.753.753,0,0,0,.023.094l0,.041a4.392,4.392,0,0,1-.1,1.292,7.538,7.538,0,0,0-.249,2.975,1.843,1.843,0,0,0,1.673,1.543,4.015,4.015,0,0,0,1.777-.457c1.224-.538,2.343-1.284,3.563-1.83.044-.015.294-.117.354-.137.141-.047.285-.077.428-.119H292.9c.021,0,.043,0,.066,0l.016,0v0h0v0h0c0,.1.007.2,0,.294s-.01.176-.017.265c-.006.055-.009.082-.009.089-.008.049-.015.1-.024.147a1.04,1.04,0,0,0,.7,1.242,1.018,1.018,0,0,0,1.242-.7A3.691,3.691,0,0,0,294.682,245.363Z"/><path class="a" d="M292.962,246.525l-.013,0h.029v0Z"/><path class="b" d="M108.709,244.5a4.994,4.994,0,0,1-1.817.958c-.8.26-1.624.441-2.434.671a8.447,8.447,0,0,0-4.724,2.984,1.016,1.016,0,0,0,.362,1.381,1.033,1.033,0,0,0,1.381-.362,7.072,7.072,0,0,1,4.138-2.225,10.267,10.267,0,0,0,4.521-1.979C111.1,245.056,109.669,243.631,108.709,244.5Z"/><path class="b" d="M199.63,258.79c-2.547.305-4.263-1.642-5.572-3.57-.726-1.068-2.476-.059-1.743,1.019,1.68,2.474,4.042,4.961,7.315,4.57a1.041,1.041,0,0,0,1.009-1.01A1.015,1.015,0,0,0,199.63,258.79Z"/><path class="b" d="M178.072,232.16a3.081,3.081,0,0,1-.727.974,2.286,2.286,0,0,1-.668.374,3.385,3.385,0,0,1-2.006-.03,7.7,7.7,0,0,1-3.831-2.54,1.018,1.018,0,0,0-1.428,0,1.032,1.032,0,0,0,0,1.428c2.449,2.956,8.137,5.164,10.4.813C180.414,232.028,178.672,231.006,178.072,232.16Z"/><path class="b" d="M282.037,267.607a15.912,15.912,0,0,0-6.107.875,11.358,11.358,0,0,0-4.6,4.034,1.016,1.016,0,0,0,.362,1.381,1.034,1.034,0,0,0,1.381-.362,12.862,12.862,0,0,1,1.909-2.127,7.494,7.494,0,0,1,1.753-1.091,14.283,14.283,0,0,1,5.3-.691A1.01,1.01,0,0,0,282.037,267.607Z"/><path class="b" d="M242.315,273.1a1.035,1.035,0,0,0-1.241-.7,4.448,4.448,0,0,1-4.105-1.436,1.019,1.019,0,0,0-1.428,0,1.031,1.031,0,0,0,0,1.427,6.528,6.528,0,0,0,6.069,1.956A1.016,1.016,0,0,0,242.315,273.1Z"/><path class="b" d="M66.862,272.493a4.327,4.327,0,0,1-3.254.358,7.427,7.427,0,0,1-2.984-1.9c-.938-.9-2.367.526-1.427,1.427a9.417,9.417,0,0,0,4.022,2.457,6.466,6.466,0,0,0,4.661-.6C69.035,273.64,68.015,271.9,66.862,272.493Z"/><path class="b" d="M38.814,272.391a14.209,14.209,0,0,0-4.633-.046,8.748,8.748,0,0,0-4.149,2,1.019,1.019,0,0,0,0,1.428,1.031,1.031,0,0,0,1.427,0c1.906-1.617,4.439-1.794,6.818-1.436a1.044,1.044,0,0,0,1.242-.705A1.018,1.018,0,0,0,38.814,272.391Z"/><path class="b" d="M245.751,240.477a2.461,2.461,0,0,1-1.646-.461,5.44,5.44,0,0,1-1.458-1.459,7.822,7.822,0,0,1-1.009-1.95,4.511,4.511,0,0,1-.3-1.9c.075-1.3-1.944-1.293-2.019,0a8.2,8.2,0,0,0,1.742,5.085c1.1,1.485,2.736,2.837,4.694,2.707a1.033,1.033,0,0,0,1.009-1.009A1.019,1.019,0,0,0,245.751,240.477Z"/><path class="b" d="M14.2,234.409a8.33,8.33,0,0,1-4.159.17,4.013,4.013,0,0,1-3.179-2.08,1.016,1.016,0,0,0-1.381-.362,1.035,1.035,0,0,0-.362,1.381A5.829,5.829,0,0,0,9.382,236.5a10.516,10.516,0,0,0,5.354-.144C15.968,235.96,15.441,234.011,14.2,234.409Z"/><path class="d" d="M158.808,94.956c.108-.242.205-.49.3-.739a4.448,4.448,0,0,0,3.656.708c1.7-.611,2.087-2.73,1.428-4.229a3.567,3.567,0,0,0-3.993-2.021,18.3,18.3,0,0,0-.317-5.162,7.84,7.84,0,0,0-3.906-5.342,10.9,10.9,0,0,0-5.3-1.327c.147.114.159.347-.081.376a8.473,8.473,0,0,0-3.175.7,5.855,5.855,0,0,0-2.093,2.351.247.247,0,0,1-.387.034,12.175,12.175,0,0,0-1.193,2.734,14.518,14.518,0,0,0-1.216,5.7c0,.063.006.128.007.192-.034.257-.08.514-.1.769a11.8,11.8,0,0,0,.935,5.976,6.41,6.41,0,0,0,3.684,4.3,4.955,4.955,0,0,0,.864.246c.154.06.306.125.465.174a6.06,6.06,0,0,0,1.866.262,59.1,59.1,0,0,1-1.206,6.66l-.024.1c.087-.028.173-.062.262-.088a.433.433,0,0,1,.23.834c-.09.027-.175.062-.264.089-.01.091-.032.179-.043.27a.4.4,0,0,0,.51-.291,59.543,59.543,0,0,0,1.413-7.65,7.424,7.424,0,0,0,1.12-.241,13.932,13.932,0,0,0,4.389-2.3,7.787,7.787,0,0,0,1.119-1.253,96.216,96.216,0,0,0-.464,11.811.41.41,0,0,0,.388.408l.232-.626a.434.434,0,0,1,.14-.373.4.4,0,0,1,.1-.127A95.769,95.769,0,0,1,158.808,94.956Z"/><path class="e" d="M150.452,76.781a8.387,8.387,0,0,0-3.429.825,6.45,6.45,0,0,0-2.152,2.44.2.2,0,0,0,.065.263.247.247,0,0,0,.387-.034,5.855,5.855,0,0,1,2.093-2.351,8.473,8.473,0,0,1,3.175-.7c.24-.029.228-.262.081-.376A.285.285,0,0,0,150.452,76.781Z"/><path class="c" d="M210.041,161.919a12.056,12.056,0,0,0-2.225-4.165c-2.491-2.745-6.271-2.625-9.68-2.748-.261-.009-.521-.019-.781-.033-.108-.006-.32-.06-.466-.062.017-.1.035-.218.047-.267a21.4,21.4,0,0,0,.608-3.409,13.741,13.741,0,0,1-3.08-1.173,34.62,34.62,0,0,0-2.325,4.258q-.542,1.176-1.01,2.383a9.928,9.928,0,0,0-.721,2.17,2.974,2.974,0,0,0,1.307,2.888,3.631,3.631,0,0,0,2.392.555.445.445,0,0,0,.6.254,7.125,7.125,0,0,1,4.2-.125A24.751,24.751,0,0,1,203,163.762a22.675,22.675,0,0,1,4.209,2.354,8.219,8.219,0,0,1,1.289.988c.33.337.638.7.954,1.049a15.684,15.684,0,0,0,1.165,1.212c.073.065.153.134.238.2A33.655,33.655,0,0,0,210.041,161.919Zm-1.742.713a.323.323,0,0,1-.494-.121,15.028,15.028,0,0,0-2.554-3.942c-.241-.28.165-.69.408-.408l.014.018a.275.275,0,0,1,.182.022,5.8,5.8,0,0,1,2.76,4.072A.3.3,0,0,1,208.3,162.632Z"/><path class="f" d="M133.167,160.491c-1.046-.178-2.09-.369-3.129-.581a.79.79,0,0,0-.184.586,113.133,113.133,0,0,0,5.083,22.5,106.735,106.735,0,0,0,5.613,13.6c1.628,3.255,3.371,6.459,5.273,9.563a43.043,43.043,0,0,0,6.928,9.185,12.562,12.562,0,0,0,1.036.863c.11.137.228.267.346.4.027.044.036.093.066.135a2.835,2.835,0,0,0,1.055.877c.134.1.263.2.405.285a3.843,3.843,0,0,0,3.481.477,2.688,2.688,0,0,0,.339-.183,5.745,5.745,0,0,0,4.147-3.846c.713-2.357.066-5-.682-7.266-.387-1.171-.844-2.316-1.32-3.452q-.184-.44-.37-.877l-.14-.33-.131-.31c-.177-.421-.352-.842-.514-1.269-1.471-3.869-2.82-7.788-4.1-11.722q-3.892-11.922-6.757-24.146-.357-1.527-.7-3.057c-.007-.031-.025-.05-.034-.079-.612,0-1.224-.006-1.836-.02C147,161.9,133.2,160.54,133.167,160.491Z"/><path class="f" d="M195.293,161.762a4.392,4.392,0,0,0-3.049-1.736c-2.687-.385-5.546.672-7.882,1.919a25.345,25.345,0,0,0-6.574,5.223,45.35,45.35,0,0,0-3.189,3.9,52.043,52.043,0,0,0-3.714-11.663c-.508.117-1.015.242-1.526.35a96.809,96.809,0,0,1-12.5,1.79c-.157.03-3.141.2-4.565.242a1.29,1.29,0,0,0,.009.322,63.445,63.445,0,0,0,3.453,12.371c1.665,4.1,3.93,8.233,7.457,11.028a14.359,14.359,0,0,0,5.733,2.831,16.363,16.363,0,0,0,7.324-.115c4.688-1.117,8.512-4.3,11.416-8.032a59.529,59.529,0,0,0,7.127-12.622c.118-.268.234-.536.351-.8a7.193,7.193,0,0,0,.491-1.067A4.338,4.338,0,0,0,195.293,161.762Z"/><path class="e" d="M146.419,72.639c-1.559,0-7.256,5.357-5.3,6.247C141.47,79.043,147.152,72.637,146.419,72.639Z"/><path class="e" d="M145.323,80.275a5.855,5.855,0,0,1,2.093-2.351,8.473,8.473,0,0,1,3.175-.7c.24-.029.228-.262.081-.376a.285.285,0,0,0-.22-.063,8.387,8.387,0,0,0-3.429.825,6.45,6.45,0,0,0-2.152,2.44.2.2,0,0,0,.065.263A.247.247,0,0,0,145.323,80.275Z"/><path class="e" d="M157.286,108.6a96.216,96.216,0,0,1,.464-11.811,7.787,7.787,0,0,1-1.119,1.253,13.932,13.932,0,0,1-4.389,2.3,7.424,7.424,0,0,1-1.12.241,59.543,59.543,0,0,1-1.413,7.65.4.4,0,0,1-.51.291c-.25,1.949-.9,3.833-1.019,5.8a5.007,5.007,0,0,0,1.746,4.586,2.777,2.777,0,0,0,3.93-.628,15.935,15.935,0,0,0,2.045-4.506l1.773-4.774A.41.41,0,0,1,157.286,108.6Z"/><path class="e" d="M148.935,107.439c.015,0,.03-.006.045,0l.034-.012.024-.1C149.007,107.362,148.968,107.4,148.935,107.439Z"/><path class="e" d="M183.736,71.853a104.857,104.857,0,0,0-14.82,25.262,105.349,105.349,0,0,0-5.573,17.964c-.117.545-.95.313-.834-.23q.534-2.492,1.191-4.953a14.642,14.642,0,0,0-5.029-1.1q-1.282,3.458-2.568,6.915a8.18,8.18,0,0,1-2.494,4,3.62,3.62,0,0,1-4.444-.3c-3.332-2.71-1.3-7.282-.821-10.858a32.523,32.523,0,0,0-5.124,2.222.432.432,0,0,1-.72.4l-.011-.011a32.868,32.868,0,0,0-9.4,8.085c-.346.436-.954-.18-.612-.612a33.4,33.4,0,0,1,9.4-8.109q-3.154-3.245-6.2-6.594a251.5,251.5,0,0,1-21.308-27.095l-7,5.559a81.148,81.148,0,0,0,21.805,42.349c.258-.952.52-1.9.8-2.851a.433.433,0,0,1,.834.23q-1.128,3.852-2.046,7.759a144.158,144.158,0,0,0-3.63,26.316.391.391,0,0,1,.039.2l-.115,1.442a94.007,94.007,0,0,0,11.963,2.348c.643.082,1.287.149,1.93.218.431.047.862.094,1.294.135a97.012,97.012,0,0,0,12.677.352c.187-.007.374-.016.561-.024l.341-.015c.194-.009.388-.015.582-.025q2.578-.135,5.149-.406,4.044-.43,8.039-1.212c.231-.045.462-.09.692-.137a95.22,95.22,0,0,0,12.682-3.494.433.433,0,0,1-.057-.193q-.531-9.033-.319-18.088A221.238,221.238,0,0,1,191.321,74.3a.888.888,0,0,1-.3-.418A8.406,8.406,0,0,0,183.736,71.853Z"/><path class="b" d="M148.525,107.59a.46.46,0,0,1,.41-.151c.033-.04.072-.077.1-.118a59.1,59.1,0,0,0,1.206-6.66,6.06,6.06,0,0,1-1.866-.262c-.159-.049-.311-.114-.465-.174a4.955,4.955,0,0,1-.864-.246,6.41,6.41,0,0,1-3.684-4.3,11.8,11.8,0,0,1-.935-5.976c.024-.255.07-.512.1-.769,0-.064-.007-.129-.007-.192a14.518,14.518,0,0,1,1.216-5.7,12.175,12.175,0,0,1,1.193-2.734.2.2,0,0,1-.065-.263,6.45,6.45,0,0,1,2.152-2.44,8.387,8.387,0,0,1,3.429-.825.285.285,0,0,1,.22.063,10.9,10.9,0,0,1,5.3,1.327,7.84,7.84,0,0,1,3.906,5.342,18.3,18.3,0,0,1,.317,5.162,3.567,3.567,0,0,1,3.993,2.021c.659,1.5.27,3.618-1.428,4.229a4.448,4.448,0,0,1-3.656-.708c-.092.249-.189.5-.3.739a95.769,95.769,0,0,0-.661,12.927.452.452,0,0,1,.719.065,15.743,15.743,0,0,1,5.06,1.12c.425-1.55.88-3.092,1.376-4.621a106.421,106.421,0,0,1,7.29-17.137,47.374,47.374,0,0,0-4.021-5.04s-2.644-2.943-3.933-4.405a44.555,44.555,0,0,0-5.392-4.566c-4.818-3.4-12.826-3.387-17.222.865a10.778,10.778,0,0,0-2.119,3.156c-.007.012-.016.023-.023.036-3.78,6.905-.057,15.49-3.559,22.455a13.941,13.941,0,0,1-1.3,2.088q3.728,4.182,7.631,8.2A33.406,33.406,0,0,1,148.525,107.59Zm-7.4-28.7c-1.961-.89,3.736-6.247,5.3-6.247C147.152,72.637,141.47,79.043,141.124,78.886Z"/><path class="d" d="M202.115,67.113a21.563,21.563,0,0,0-4.97.783l5.717-10.152a1.014,1.014,0,0,0-1.585-1.223,23.914,23.914,0,0,0-3.745,4.2c-.392.559-.758,1.379-1.384,1.723a1.572,1.572,0,0,1-.417.139l1.466-2.851,1.242-2.416a6,6,0,0,0,1-2.363,1.312,1.312,0,0,0-1.905-1.215c-.754.394-1.181,1.384-1.627,2.07-.967,1.484-1.885,3.018-2.914,4.46-.174.244-.786,1.011-1.155.675-.015-.013-.019-.031-.031-.045,1.1-2.522,2.359-4.98,3.621-7.426a1.01,1.01,0,1,0-1.743-1.019,62.962,62.962,0,0,0-9.471,17.713.9.9,0,0,0,.092.747A9.275,9.275,0,0,1,192.393,74a.408.408,0,0,1,.088.351.762.762,0,0,0,.321-.334,5.764,5.764,0,0,1,3.478-2.687c2.018-.785,4.069-1.494,6.1-2.238a1.017,1.017,0,0,0,.723-1.107A1,1,0,0,0,202.115,67.113Z"/><path class="d" d="M191.321,74.3c.013-.039.025-.079.037-.118-.106-.108-.226-.2-.338-.3A.888.888,0,0,0,191.321,74.3Z"/><path class="d" d="M114.046,76.015a47.185,47.185,0,0,1-3.007-10.977,1,1,0,0,0-1.107-.723,1.031,1.031,0,0,0-.876.991,32.45,32.45,0,0,0-.229,4.555l-4.712-8.4c-.545-.973-2.248-.318-1.845.778l2.244,6.094a4.826,4.826,0,0,1,.3.954h0a2.913,2.913,0,0,1-.776-.472l-3.318-5.238A1.01,1.01,0,0,0,98.972,64.6q1.43,3.342,2.861,6.683c.089.208.184.415.256.63.041.121.047.324.081.449-.147-.086-.409-.169-.523-.237-.088-.053-.169-.115-.255-.171l-4.337-5.124a1,1,0,0,0-1.325-.078,1.023,1.023,0,0,0-.26,1.3A39.175,39.175,0,0,0,106.387,81.6a1.415,1.415,0,0,0,.364.2l7.282-5.785Z"/><path class="e" d="M180.6,137.316A221.238,221.238,0,0,1,191.321,74.3c.013-.039.025-.079.037-.118-.106-.108-.226-.2-.338-.3a8.406,8.406,0,0,0-7.284-2.033,104.857,104.857,0,0,0-14.82,25.262,105.349,105.349,0,0,0-5.573,17.964c-.117.545-.95.313-.834-.23q.534-2.492,1.191-4.953a14.642,14.642,0,0,0-5.029-1.1q-1.282,3.458-2.568,6.915a8.18,8.18,0,0,1-2.494,4,3.62,3.62,0,0,1-4.444-.3c-3.332-2.71-1.3-7.282-.821-10.858a32.523,32.523,0,0,0-5.124,2.222.432.432,0,0,1-.72.4l-.011-.011a32.868,32.868,0,0,0-9.4,8.085c-.346.436-.954-.18-.612-.612a33.4,33.4,0,0,1,9.4-8.109q-3.154-3.245-6.2-6.594a251.5,251.5,0,0,1-21.308-27.095l-7,5.559a81.148,81.148,0,0,0,21.805,42.349c.258-.952.52-1.9.8-2.851a.433.433,0,0,1,.834.23q-1.128,3.852-2.046,7.759a144.158,144.158,0,0,0-3.63,26.316.391.391,0,0,1,.039.2l-.115,1.442a94.007,94.007,0,0,0,11.963,2.348c.643.082,1.287.149,1.93.218.431.047.862.094,1.294.135a97.012,97.012,0,0,0,12.677.352c.187-.007.374-.016.561-.024l.341-.015c.194-.009.388-.015.582-.025q2.578-.135,5.149-.406,4.044-.43,8.039-1.212c.231-.045.462-.09.692-.137a95.22,95.22,0,0,0,12.682-3.494.433.433,0,0,1-.057-.193Q180.383,146.371,180.6,137.316Z"/><path class="e" d="M201.49,108.154A5.147,5.147,0,0,0,199.1,104.9c-1.044-.654-2.233-1.033-3.287-1.671a1.01,1.01,0,0,0-1.019,1.743c.953.577,2.009.944,2.979,1.488a3.222,3.222,0,0,1,1.771,2.233C199.834,109.957,201.781,109.421,201.49,108.154Z"/><path class="e" d="M209.918,139.56a16.872,16.872,0,0,1-1.784-1.773,21.411,21.411,0,0,1-1.659-2.532,1.01,1.01,0,0,0-1.743,1.019,17.294,17.294,0,0,0,3.2,4.212,10.2,10.2,0,0,1,1.449,1.422c.359.482.447.711.185,1.105-.719,1.085,1.028,2.1,1.744,1.018C212.408,142.371,211.147,140.689,209.918,139.56Z"/><path class="e" d="M207.773,126.99a1.01,1.01,0,0,0,2.019,0c.083-4.671-3.987-8.012-7.494-10.41a1.019,1.019,0,0,0-1.381.362,1.029,1.029,0,0,0,.362,1.381C204.169,120.3,207.842,123.11,207.773,126.99Z"/><path class="b" d="M128.57,125.369a81.486,81.486,0,0,1-5.666-6.453c-1.363,2.464-8.372,15.726-4.34,21.029,1.942,2.554,5.861,2.314,7.1,1.737a145.821,145.821,0,0,1,3.326-16.212A.381.381,0,0,1,128.57,125.369Z"/><path class="b" d="M211.471,138.87c-1.859-2.077-3.847-4.05-5.507-6.3,5.429.711,7.246-4.671,5.143-8.794-1.968-3.861-5.536-7.732-9.746-9.036,3.932-2.08,3.222-6.962.311-9.535-3.358-2.968-8.046-3.711-12.017-5.5-1-.447-2.555-1.482-3.624-2.024,0,0-.01.007-.016.009a218.907,218.907,0,0,0-4.489,51.944,3.58,3.58,0,0,0,2.669,2.509c4.967.9,7.339-3.54,6.446-7.545a20.793,20.793,0,0,0,14.305,4.682C210.36,149.166,216.224,144.18,211.471,138.87Zm-11.928-30.179a3.222,3.222,0,0,0-1.771-2.233c-.97-.544-2.026-.911-2.979-1.488a1.01,1.01,0,0,1,1.019-1.743c1.054.638,2.243,1.017,3.287,1.671a5.147,5.147,0,0,1,2.391,3.256C201.781,109.421,199.834,109.957,199.543,108.691Zm1.374,8.251a1.019,1.019,0,0,1,1.381-.362c3.507,2.4,7.577,5.739,7.494,10.41a1.01,1.01,0,0,1-2.019,0c.069-3.88-3.6-6.691-6.494-8.667A1.029,1.029,0,0,1,200.917,116.942Zm10.391,27.089c-.716,1.079-2.463.067-1.744-1.018.262-.394.174-.623-.185-1.105a10.2,10.2,0,0,0-1.449-1.422,17.294,17.294,0,0,1-3.2-4.212,1.01,1.01,0,0,1,1.743-1.019,21.411,21.411,0,0,0,1.659,2.532,16.872,16.872,0,0,0,1.784,1.773C211.147,140.689,212.408,142.371,211.308,144.031Z"/><path class="a" d="M182.24,123.286A220.159,220.159,0,0,1,186.015,97.7c.417-2.008.854-4.012,1.327-6.007q2.029-8.557,4.744-16.931a.466.466,0,0,0,.395-.4.408.408,0,0,0-.088-.351,9.275,9.275,0,0,0-8.088-3.087c-.17.02-.34.026-.509.056a.343.343,0,0,0-.509.059l-.037.048a.367.367,0,0,0-.236.31,105.784,105.784,0,0,0-10.207,15.5c-.075.139-.141.282-.215.422a106.421,106.421,0,0,0-7.29,17.137c-.5,1.529-.951,3.071-1.376,4.621a15.743,15.743,0,0,0-5.06-1.12.452.452,0,0,0-.719-.065.4.4,0,0,0-.1.127.434.434,0,0,0-.14.373l-.232.626-1.773,4.774a15.935,15.935,0,0,1-2.045,4.506,2.777,2.777,0,0,1-3.93.628,5.007,5.007,0,0,1-1.746-4.586c.115-1.968.769-3.852,1.019-5.8.011-.091.033-.179.043-.27.089-.027.174-.062.264-.089a.433.433,0,0,0-.23-.834c-.089.026-.175.06-.262.088l-.034.012c-.015,0-.03,0-.045,0a.46.46,0,0,0-.41.151,33.406,33.406,0,0,0-5.867,2.511q-3.909-4.012-7.631-8.2-7.692-8.631-14.569-17.945-2.894-3.93-5.632-7.969a.455.455,0,0,0-.754.016.215.215,0,0,1-.026.014l-.013.006-7.282,5.785-.213.169a.356.356,0,0,0-.014.568,82.113,82.113,0,0,0,15.09,34.709c.421.562.855,1.113,1.29,1.664a81.486,81.486,0,0,0,5.666,6.453.381.381,0,0,0,.415.1,145.821,145.821,0,0,0-3.326,16.212q-.6,4.074-.973,8.178-.35,3.916-.483,7.848a.435.435,0,0,0,.007.827q2.891.78,5.828,1.375c1.039.212,2.083.4,3.129.581.069.011.139.021.208.033a96.519,96.519,0,0,0,13.295,1.29l.133,0,.236,0c.612.014,1.224.017,1.836.02,1.14,0,2.279-.018,3.418-.053,1.424-.043,2.847-.111,4.267-.217.1-.007.2-.017.3-.025a96.809,96.809,0,0,0,12.5-1.79c.511-.108,1.018-.233,1.526-.35a95.153,95.153,0,0,0,10.93-3.183.45.45,0,0,0-.038-.858c-.112-1.907-.189-3.817-.251-5.727A220.117,220.117,0,0,1,182.24,123.286Zm-13.951,35.805c-.23.047-.461.092-.692.137q-3.992.775-8.039,1.212-2.568.274-5.149.406c-.194.01-.388.016-.582.025l-.341.015c-.187.008-.374.017-.561.024a97.012,97.012,0,0,1-12.677-.352c-.432-.041-.863-.088-1.294-.135-.643-.069-1.287-.136-1.93-.218a94.007,94.007,0,0,1-11.963-2.348l.115-1.442a.391.391,0,0,0-.039-.2,144.158,144.158,0,0,1,3.63-26.316q.915-3.907,2.046-7.759a.433.433,0,0,0-.834-.23c-.278.947-.54,1.9-.8,2.851a80.637,80.637,0,0,1-11.547-14.985,80.746,80.746,0,0,1-10.258-27.364l7-5.559a251.5,251.5,0,0,0,21.308,27.1q3.036,3.356,6.2,6.594a33.4,33.4,0,0,0-9.4,8.109c-.342.432.266,1.048.612.612a32.868,32.868,0,0,1,9.4-8.085l.011.011a.432.432,0,0,0,.72-.4,32.523,32.523,0,0,1,5.124-2.222c-.484,3.576-2.511,8.148.821,10.858a3.62,3.62,0,0,0,4.444.3,8.18,8.18,0,0,0,2.494-4q1.287-3.458,2.568-6.915a14.642,14.642,0,0,1,5.029,1.1q-.654,2.462-1.191,4.953c-.116.543.717.775.834.23a104.97,104.97,0,0,1,14.3-34.7,104.145,104.145,0,0,1,6.1-8.527,8.406,8.406,0,0,1,7.284,2.033c.112.1.232.192.338.3-.012.039-.024.079-.037.118A221.238,221.238,0,0,0,180.6,137.316q-.213,9.047.319,18.088a.433.433,0,0,0,.057.193A95.22,95.22,0,0,1,168.289,159.091Z"/><path class="a" d="M143.847,133.361a45.23,45.23,0,0,0-3.088-4.433l2.807-2.282c.432-.351-.183-.96-.612-.611l-2.5,2.031q.153-1.224.3-2.45c.069-.551-.8-.546-.865,0q-.122.978-.244,1.955c-.28-.33-.556-.663-.846-.985-.373-.415-.983.2-.612.611q.677.751,1.314,1.531l-.015.121-2.579,2.1c-.432.352.183.96.612.612l1.813-1.474q-.181,1.461-.364,2.921c-.068.551.8.546.865,0l.414-3.322A44.334,44.334,0,0,1,143.1,133.8C143.389,134.272,144.137,133.838,143.847,133.361Z"/><path class="a" d="M168.351,140.992l-1.99-.38,1.815-.912c.5-.25.06-1-.437-.747l-1.786.9.591-2.415c.133-.541-.7-.771-.834-.23l-.768,3.136-1.932-.368c-.544-.1-.778.73-.23.834l.92.176-1.042.523c-.5.25-.06,1,.437.747l1.572-.79q-.227.927-.454,1.853c-.132.541.7.772.834.23l.54-2.2,2.534.483C168.665,141.929,168.9,141.1,168.351,140.992Z"/><path class="a" d="M166.526,124.044l-1.794-1.929,1.533-1.754c.365-.418-.244-1.032-.611-.612l-1.5,1.71q.084-.963.167-1.926c.048-.554-.818-.551-.865,0l-.1,1.11-1.126-1.211c-.38-.408-.99.2-.612.612l1.637,1.761-.065.752-1.1,1.263c-.365.418.245,1.032.612.612l.367-.42q-.093,1.065-.184,2.129c-.048.555.817.551.865,0l.279-3.227.127-.145,1.754,1.887C166.294,125.065,166.905,124.452,166.526,124.044Z"/><path class="a" d="M151.434,147.335l-2.326.973q.594-1.051,1.189-2.1a.433.433,0,0,0-.747-.437l-.9,1.593a17.1,17.1,0,0,1-.075-1.883.433.433,0,0,0-.865,0,17.744,17.744,0,0,0,.233,3.134l-.136.24-3.088,1.291c-.506.211-.284,1.049.23.834l2.169-.907-.875,1.548a.433.433,0,0,0,.747.437l1.215-2.149A17.418,17.418,0,0,0,149,152.46c.207.51,1.044.287.835-.23a17.147,17.147,0,0,1-.881-2.926l2.713-1.134C152.17,147.958,151.948,147.121,151.434,147.335Z"/><path class="a" d="M135.486,145.924l-2.995,1.3q-.239-1.437-.478-2.873c-.091-.548-.925-.315-.834.23q.192,1.158.385,2.315l-1.188-.65c-.489-.268-.926.479-.437.747l1.363.746-1.67.723c-.509.221-.069.966.437.747l1.753-.759q.207,1.242.413,2.483c.091.548.925.316.834-.23q-.181-1.1-.365-2.2l2.025,1.109c.488.267.925-.479.436-.747l-1.9-1.042,2.661-1.152C136.432,146.45,135.992,145.705,135.486,145.924Z"/><path class="a" d="M180.33,104.622l-2.252.751a12.1,12.1,0,0,1,1.168-1.792c.346-.43-.263-1.046-.611-.612a13.652,13.652,0,0,0-1.3,1.987l-1.176-.966c-.427-.351-1.043.258-.612.612l1.371,1.127c0,.012-.009.025-.014.037l-2.674.892c-.526.175-.3,1.011.23.834l2.024-.675a13.036,13.036,0,0,0-.55,1.915c-.107.544.726.777.834.23a12.662,12.662,0,0,1,.782-2.5l.185-.062,2.139,1.758c.427.351,1.042-.257.612-.611l-1.787-1.469,1.865-.621C181.086,105.281,180.86,104.445,180.33,104.622Z"/><path class="a" d="M180.443,87.02l-2.241.115a20.885,20.885,0,0,0,1.762-1.9c.346-.43-.262-1.046-.612-.612a20.783,20.783,0,0,1-1.756,1.9L176.2,83.727c-.248-.5-1-.06-.747.437l1.489,2.982c-.023.02-.047.037-.07.057l-2.279.117c-.554.029-.557.894,0,.865l1.144-.058c-.508.385-1.031.752-1.576,1.09-.472.292-.038,1.041.437.747a21.553,21.553,0,0,0,2.6-1.912l.188-.01q.684,1.368,1.367,2.737c.248.5.995.06.747-.437l-1.173-2.348,2.111-.109C181,87.857,181,86.991,180.443,87.02Z"/><path class="a" d="M180.519,134.469l-.951-1.021h.622a.433.433,0,0,0,0-.865h-1.156l1.267-1.9c.31-.464-.439-.9-.747-.437l-1.238,1.855-1.108-1.191c-.381-.408-.991.2-.612.612l.986,1.059h-1.97a.433.433,0,0,0,0,.865h1.806l-.919,1.376c-.31.464.439.9.747.437l1.181-1.77,1.48,1.589C180.287,135.489,180.9,134.876,180.519,134.469Z"/><path class="a" d="M130.067,113.24a23.191,23.191,0,0,1-2.05,1.34q.353-1.407.7-2.815a.433.433,0,0,0-.834-.23q-.346,1.387-.694,2.774l-.771-1.37a.433.433,0,0,0-.747.437q.535.95,1.069,1.9a22.228,22.228,0,0,1-2.064.929c-.514.2-.291,1.034.23.834.612-.234,1.208-.5,1.8-.782l-.6,2.4a.433.433,0,0,0,.835.23q.282-1.13.565-2.26.593,1.055,1.187,2.109a.433.433,0,0,0,.747-.436l-1.5-2.672a23.159,23.159,0,0,0,2.568-1.641C130.947,113.66,130.516,112.909,130.067,113.24Z"/><path class="a" d="M128.189,96.737l-2.46.487.857-1.166c.33-.45-.421-.882-.747-.437l-1.049,1.427-.136-1.42c-.053-.549-.919-.555-.865,0l.186,1.943-2.1.415c-.545.108-.314.942.23.834l1.616-.319-1.527,2.078c-.33.45.42.882.747.437l1.206-1.641.153,1.594c.053.549.918.555.865,0q-.126-1.318-.253-2.636l.059-.08,3.447-.682C128.965,97.463,128.734,96.629,128.189,96.737Z"/><path class="a" d="M115.044,88.637a11.9,11.9,0,0,0-2.437-1.165l1.988-1.993a.433.433,0,0,0-.612-.612L112.3,86.556q.012-.8.022-1.61a.433.433,0,0,0-.865,0l-.03,2.185a12.379,12.379,0,0,0-1.942-.325c-.555-.042-.552.823,0,.865a11.066,11.066,0,0,1,1.481.223l-1.679,1.684a.432.432,0,0,0,.611.611q.754-.754,1.508-1.511l-.039,2.88a.433.433,0,0,0,.865,0l.045-3.3a11.408,11.408,0,0,1,2.334,1.121C115.08,89.682,115.514,88.934,115.044,88.637Z"/><path class="a" d="M171.8,152.978c.553.058.549-.808,0-.865a11.688,11.688,0,0,0-2.213-.007v-.128a12.838,12.838,0,0,1,1.078-1.38c.374-.411-.236-1.025-.612-.612-.176.194-.326.406-.49.608a.432.432,0,0,0-.841.12v1.026l-.008.013-1.365-1.02c-.447-.333-.878.417-.437.747l1.139.851a11.573,11.573,0,0,0-1.453.408c-.521.185-.3,1.022.23.834.34-.122.684-.217,1.029-.305a13.777,13.777,0,0,0-.93,2.423.433.433,0,0,0,.835.23,12.927,12.927,0,0,1,.96-2.467V155.8a.433.433,0,0,0,.865,0v-2.323l1.759,1.315c.446.333.878-.418.437-.747l-1.493-1.115A11.4,11.4,0,0,1,171.8,152.978Z"/><path class="g" d="M145.405,86.245c-.148.522-.334,1.59-.917,1.815a.617.617,0,0,1-.777-.5,2.772,2.772,0,0,1,.112-1.215c.131-.541-.7-.772-.834-.23-.272,1.12-.237,2.842,1.341,2.838,1.23,0,1.643-1.54,1.909-2.481A.433.433,0,0,0,145.405,86.245Z"/><path class="g" d="M155,87.018c-.156.545-.411,1.608-1.047,1.788-.9.255-1.02-1.238-1.028-1.8a.433.433,0,0,0-.865,0c.016,1.122.383,2.752,1.818,2.684,1.188-.056,1.684-1.492,1.956-2.442A.433.433,0,0,0,155,87.018Z"/><path class="g" d="M145.026,81.279c.084-.047.169-.093.251-.141a.433.433,0,0,0-.436-.747c-1.423.832-2.83,1.53-3.124,3.311a.444.444,0,0,0,.213.462.344.344,0,0,0,.564.091l.017-.017a.374.374,0,0,0,.193-.2l0-.009a3.889,3.889,0,0,1,1.937-1.107.346.346,0,0,0,.125-.61,1.824,1.824,0,0,0,.662-.506C145.626,81.545,145.308,81.2,145.026,81.279Z"/><path class="g" d="M158.339,82.414a7.047,7.047,0,0,0-.689-1.228,4.85,4.85,0,0,0-.88-.941c-.364-.288-.833-.4-1.187-.689a.385.385,0,0,0-.626.286,4.867,4.867,0,0,0-.9-.106.361.361,0,0,0-.264.6c-.029,0-.056,0-.085,0-.555.025-.558.891,0,.865a4.1,4.1,0,0,1,3.441,1.948.433.433,0,0,0,.413.179.4.4,0,0,0,.358-.071.189.189,0,0,1,0,.023c.027.461.748.464.721,0A2.351,2.351,0,0,0,158.339,82.414Z"/><path class="g" d="M162.132,91.536c-.861.036-1.681-.3-2.544-.254-.461.025-.464.746,0,.721.861-.048,1.681.29,2.544.254C162.594,92.237,162.6,91.516,162.132,91.536Z"/><path class="h" d="M150.06,91.8a41.028,41.028,0,0,0-5.38.178c1.079,2.244,2.98,4.18,5.66,3.978,2.285-.173,3.4-1.766,3.926-3.658C152.871,92.129,151.482,91.862,150.06,91.8Z"/><path class="i" d="M160.175,214.121c-1.047-3.35-2.763-6.445-4.014-9.717-1.267-3.319-2.3-6.723-3.238-10.147s-1.8-6.857-2.7-10.282c-.932-3.517-1.862-7.04-2.528-10.619-.314-1.683-.644-3.367-.921-5.057a19.416,19.416,0,0,1-.316-5.1c.057-.553-.809-.549-.865,0-.307,2.987.473,6.024,1.008,8.942.645,3.52,1.451,6.988,2.36,10.448,1.821,6.929,3.434,13.956,5.869,20.7.672,1.86,1.43,3.678,2.244,5.48a49.782,49.782,0,0,1,2.269,5.581C159.506,214.88,160.342,214.654,160.175,214.121Z"/><path class="i" d="M188.638,161.085c-2.612.952-4.773,2.987-6.788,4.834a28.008,28.008,0,0,0-3.068,3.132c-.916,1.148-1.743,2.363-2.642,3.523a1.717,1.717,0,0,1-1.023-.645.479.479,0,0,0-.339-.183c0-.024-.006-.047,0-.07a.379.379,0,0,0-.227-.369c-.073-.3-.485-.512-.712-.229-.378.472-.731.963-1.092,1.449-2-3.944-2-8.681-4.472-12.43-.305-.464-1.054-.031-.747.436,2.583,3.925,2.456,8.96,4.782,13.014a.435.435,0,0,0,.679.088c.234-.3.458-.609.683-.916-.013.193-.023.385-.04.577a18.162,18.162,0,0,0-.567,5.76.433.433,0,0,0,.865,0,47.52,47.52,0,0,1,.485-5.021,6.857,6.857,0,0,0,.54,1.029.436.436,0,0,0,.806-.218,4.416,4.416,0,0,0-.213-1.544,2.483,2.483,0,0,0,.305.082.383.383,0,0,0,.663.123c.944-1.185,1.788-2.445,2.721-3.639a26.126,26.126,0,0,1,3.009-3.133c1.962-1.805,4.074-3.886,6.627-4.816C189.387,161.73,189.163,160.893,188.638,161.085Z"/><path class="c" d="M162.5,255.344h-3.235V243.006a1.258,1.258,0,1,0-2.516,0v1.474h-2a1.144,1.144,0,1,0,0,2.287h2v8.577H153.51a1.144,1.144,0,1,0,0,2.287H162.5a1.144,1.144,0,1,0,0-2.287Z"/></svg>